G04*
G04 #@! TF.GenerationSoftware,Altium Limited,Altium Designer,23.1.1 (15)*
G04*
G04 Layer_Physical_Order=4*
G04 Layer_Color=16711680*
%FSLAX25Y25*%
%MOIN*%
G70*
G04*
G04 #@! TF.SameCoordinates,434D1FB9-1166-4A3C-A543-B38E0AA6253E*
G04*
G04*
G04 #@! TF.FilePolarity,Positive*
G04*
G01*
G75*
G04:AMPARAMS|DCode=19|XSize=59.06mil|YSize=45.28mil|CornerRadius=5.66mil|HoleSize=0mil|Usage=FLASHONLY|Rotation=0.000|XOffset=0mil|YOffset=0mil|HoleType=Round|Shape=RoundedRectangle|*
%AMROUNDEDRECTD19*
21,1,0.05906,0.03396,0,0,0.0*
21,1,0.04774,0.04528,0,0,0.0*
1,1,0.01132,0.02387,-0.01698*
1,1,0.01132,-0.02387,-0.01698*
1,1,0.01132,-0.02387,0.01698*
1,1,0.01132,0.02387,0.01698*
%
%ADD19ROUNDEDRECTD19*%
%ADD20R,0.06600X0.06000*%
%ADD23R,0.02362X0.05984*%
G04:AMPARAMS|DCode=25|XSize=39.37mil|YSize=31.5mil|CornerRadius=3.94mil|HoleSize=0mil|Usage=FLASHONLY|Rotation=90.000|XOffset=0mil|YOffset=0mil|HoleType=Round|Shape=RoundedRectangle|*
%AMROUNDEDRECTD25*
21,1,0.03937,0.02362,0,0,90.0*
21,1,0.03150,0.03150,0,0,90.0*
1,1,0.00787,0.01181,0.01575*
1,1,0.00787,0.01181,-0.01575*
1,1,0.00787,-0.01181,-0.01575*
1,1,0.00787,-0.01181,0.01575*
%
%ADD25ROUNDEDRECTD25*%
G04:AMPARAMS|DCode=26|XSize=39.37mil|YSize=31.5mil|CornerRadius=3.94mil|HoleSize=0mil|Usage=FLASHONLY|Rotation=180.000|XOffset=0mil|YOffset=0mil|HoleType=Round|Shape=RoundedRectangle|*
%AMROUNDEDRECTD26*
21,1,0.03937,0.02362,0,0,180.0*
21,1,0.03150,0.03150,0,0,180.0*
1,1,0.00787,-0.01575,0.01181*
1,1,0.00787,0.01575,0.01181*
1,1,0.00787,0.01575,-0.01181*
1,1,0.00787,-0.01575,-0.01181*
%
%ADD26ROUNDEDRECTD26*%
G04:AMPARAMS|DCode=27|XSize=59.06mil|YSize=45.28mil|CornerRadius=5.66mil|HoleSize=0mil|Usage=FLASHONLY|Rotation=90.000|XOffset=0mil|YOffset=0mil|HoleType=Round|Shape=RoundedRectangle|*
%AMROUNDEDRECTD27*
21,1,0.05906,0.03396,0,0,90.0*
21,1,0.04774,0.04528,0,0,90.0*
1,1,0.01132,0.01698,0.02387*
1,1,0.01132,0.01698,-0.02387*
1,1,0.01132,-0.01698,-0.02387*
1,1,0.01132,-0.01698,0.02387*
%
%ADD27ROUNDEDRECTD27*%
%ADD28R,0.05709X0.02362*%
%ADD30R,0.02323X0.01772*%
%ADD34R,0.11614X0.06496*%
%ADD69C,0.00984*%
%ADD70C,0.01968*%
%ADD71C,0.03937*%
%ADD72O,0.08661X0.07087*%
%ADD73O,0.09055X0.13780*%
%ADD74O,0.07087X0.08661*%
%ADD75R,0.07087X0.08661*%
%ADD76C,0.07874*%
%ADD77C,0.06600*%
%ADD78R,0.05512X0.05512*%
%ADD79C,0.05512*%
%ADD80O,0.15748X0.07874*%
%ADD81R,0.11811X0.07874*%
%ADD82R,0.09449X0.05118*%
%ADD83R,0.09055X0.18898*%
%ADD84R,0.16929X0.09055*%
%ADD85R,0.09055X0.16929*%
%ADD86C,0.06000*%
%ADD87R,0.06000X0.06000*%
%ADD88C,0.02362*%
G04:AMPARAMS|DCode=89|XSize=25.59mil|YSize=47.24mil|CornerRadius=1.92mil|HoleSize=0mil|Usage=FLASHONLY|Rotation=0.000|XOffset=0mil|YOffset=0mil|HoleType=Round|Shape=RoundedRectangle|*
%AMROUNDEDRECTD89*
21,1,0.02559,0.04341,0,0,0.0*
21,1,0.02175,0.04724,0,0,0.0*
1,1,0.00384,0.01088,-0.02170*
1,1,0.00384,-0.01088,-0.02170*
1,1,0.00384,-0.01088,0.02170*
1,1,0.00384,0.01088,0.02170*
%
%ADD89ROUNDEDRECTD89*%
%ADD90R,0.05315X0.11811*%
%ADD91R,0.02284X0.05984*%
%ADD92R,0.11811X0.05315*%
%ADD93R,0.01772X0.02323*%
%ADD94R,0.04803X0.03583*%
%ADD95R,0.06496X0.11614*%
G36*
X180099Y357852D02*
Y57490D01*
X179780Y57122D01*
X177482D01*
Y58268D01*
X177398Y58690D01*
X177158Y59048D01*
X176800Y59288D01*
X176378Y59372D01*
X175955Y59288D01*
X175597Y59048D01*
X175358Y58690D01*
X175274Y58268D01*
Y57122D01*
X172976D01*
Y55534D01*
X172476Y55123D01*
X172269Y55164D01*
X171071D01*
Y51181D01*
X170071D01*
Y55164D01*
X168873D01*
X168262Y55043D01*
X168068Y54914D01*
X167568Y55181D01*
Y62598D01*
X167381Y63050D01*
X166929Y63238D01*
X142913D01*
X142461Y63050D01*
X142274Y62598D01*
Y60827D01*
X136417D01*
Y47835D01*
X138158D01*
Y40157D01*
X138158Y40157D01*
X138280Y39543D01*
X138628Y39022D01*
X140723Y36928D01*
X140531Y36466D01*
X126378D01*
X125926Y36279D01*
X125739Y35827D01*
Y27165D01*
X125926Y26713D01*
X126378Y26526D01*
X127103D01*
X127370Y26026D01*
X127241Y25833D01*
X127119Y25221D01*
Y24627D01*
X126476D01*
X126054Y24543D01*
X125696Y24304D01*
X125457Y23946D01*
X125373Y23524D01*
X125457Y23101D01*
X125696Y22743D01*
X126054Y22504D01*
X126476Y22420D01*
X127119D01*
Y21826D01*
X127241Y21215D01*
X127587Y20697D01*
X128104Y20351D01*
X128716Y20229D01*
X130602D01*
Y23524D01*
X131602D01*
Y20229D01*
X133489D01*
X133620Y20255D01*
X134007Y19938D01*
Y11811D01*
X134194Y11359D01*
X134646Y11172D01*
X174016D01*
X174468Y11359D01*
X174655Y11811D01*
Y21260D01*
X174638Y21302D01*
X174972Y21802D01*
X179528D01*
X179599Y21831D01*
X180099Y21497D01*
Y16164D01*
X164939Y1003D01*
X12227Y1003D01*
X-2933Y16164D01*
Y38673D01*
X-2434Y38940D01*
X-2352Y38886D01*
X-1969Y38810D01*
X-710D01*
Y37228D01*
X-1108Y36830D01*
X-1378Y36179D01*
Y35474D01*
X-1108Y34823D01*
X-610Y34325D01*
X41Y34055D01*
X746D01*
X1397Y34325D01*
X1896Y34823D01*
X2165Y35474D01*
Y36179D01*
X1896Y36830D01*
X1498Y37228D01*
Y38873D01*
X1565Y38886D01*
X1891Y39104D01*
X2108Y39429D01*
X2185Y39813D01*
Y39964D01*
X3918D01*
Y39961D01*
X3994Y39577D01*
X4212Y39251D01*
X4537Y39033D01*
X4921Y38957D01*
X8071D01*
X8455Y39033D01*
X8781Y39251D01*
X8998Y39577D01*
X9074Y39961D01*
Y42323D01*
X8998Y42707D01*
X8781Y43032D01*
X8455Y43250D01*
X8071Y43326D01*
X4921D01*
X4537Y43250D01*
X4212Y43032D01*
X3994Y42707D01*
X3918Y42323D01*
Y42172D01*
X2185D01*
Y42176D01*
X2108Y42560D01*
X1891Y42885D01*
X1565Y43103D01*
X1181Y43179D01*
X-1969D01*
X-2352Y43103D01*
X-2434Y43049D01*
X-2933Y43316D01*
Y44450D01*
X-2434Y44685D01*
X-1969Y44592D01*
X-894D01*
Y47194D01*
X-394D01*
Y47695D01*
X2602D01*
Y48376D01*
X2494Y48919D01*
X2186Y49380D01*
X1725Y49688D01*
X1181Y49797D01*
X710D01*
Y50394D01*
X626Y50816D01*
X387Y51174D01*
X29Y51414D01*
X-394Y51498D01*
X-816Y51414D01*
X-1174Y51174D01*
X-1414Y50816D01*
X-1498Y50394D01*
Y49797D01*
X-1969D01*
X-2434Y49704D01*
X-2933Y49939D01*
Y180640D01*
X-2472Y180832D01*
X12046Y166314D01*
Y163764D01*
X11648Y163366D01*
X11378Y162715D01*
Y162010D01*
X11648Y161359D01*
X12146Y160860D01*
X12797Y160591D01*
X13502D01*
X14153Y160860D01*
X14651Y161359D01*
X14921Y162010D01*
Y162715D01*
X14651Y163366D01*
X14254Y163764D01*
Y166772D01*
X14169Y167194D01*
X13930Y167552D01*
X-1357Y182839D01*
Y189396D01*
X-857Y189730D01*
X-549Y189602D01*
X156D01*
X726Y189839D01*
X46140Y144425D01*
Y124016D01*
X46224Y123593D01*
X46464Y123235D01*
X54338Y115361D01*
X54696Y115122D01*
X55118Y115038D01*
X74740D01*
X85904Y103874D01*
Y84473D01*
X85506Y84074D01*
X85236Y83423D01*
Y82718D01*
X85506Y82067D01*
X86004Y81569D01*
X86655Y81299D01*
X87360D01*
X88011Y81569D01*
X88510Y82067D01*
X88779Y82718D01*
Y83423D01*
X88510Y84074D01*
X88112Y84473D01*
Y104331D01*
X88028Y104753D01*
X87788Y105111D01*
X75977Y116922D01*
X75619Y117162D01*
X75197Y117246D01*
X55575D01*
X48348Y124473D01*
Y144882D01*
X48264Y145304D01*
X48025Y145662D01*
X1568Y192119D01*
X1352Y192263D01*
X1305Y192378D01*
X807Y192876D01*
X156Y193146D01*
X-549D01*
X-857Y193018D01*
X-1357Y193352D01*
Y195507D01*
X457Y197321D01*
X20803D01*
X54141Y163983D01*
X54499Y163744D01*
X54921Y163660D01*
X79451D01*
X79453Y163656D01*
X79604Y163160D01*
X79213Y162769D01*
X78972Y162186D01*
X78963Y162178D01*
X78615Y161657D01*
X78493Y161042D01*
X78493Y161042D01*
Y159646D01*
X78130D01*
Y158525D01*
X77667Y158281D01*
X77630Y158287D01*
X77432Y158584D01*
X77106Y158801D01*
X76722Y158878D01*
X74360D01*
X73976Y158801D01*
X73650Y158584D01*
X73433Y158258D01*
X73356Y157874D01*
Y154724D01*
X73433Y154340D01*
X73650Y154015D01*
X73976Y153797D01*
X74360Y153721D01*
X76722D01*
X77106Y153797D01*
X77432Y154015D01*
X77630Y154312D01*
X77667Y154317D01*
X78130Y154073D01*
Y152480D01*
X81673D01*
Y156144D01*
X81704Y156299D01*
X81704Y156299D01*
Y160257D01*
X81718Y160264D01*
X82217Y160762D01*
X82486Y161413D01*
Y162118D01*
X82217Y162769D01*
X81826Y163160D01*
X81977Y163656D01*
X81979Y163660D01*
X93819D01*
X93890Y163571D01*
X94040Y163160D01*
X93882Y162922D01*
X93798Y162500D01*
Y160055D01*
X92721D01*
Y156563D01*
X94902D01*
X97083D01*
Y160055D01*
X96005D01*
Y162500D01*
X95921Y162922D01*
X95763Y163160D01*
X95913Y163571D01*
X95984Y163660D01*
X130294D01*
Y160945D01*
X128747Y159398D01*
X128508Y159040D01*
X128424Y158618D01*
Y151181D01*
X128508Y150759D01*
X128747Y150400D01*
X130294Y148854D01*
Y145768D01*
X130315Y145661D01*
Y143307D01*
X137205D01*
Y146850D01*
X132501D01*
Y149311D01*
X132418Y149733D01*
X132178Y150092D01*
X130631Y151638D01*
Y155512D01*
X137205D01*
Y156180D01*
X152046D01*
Y134368D01*
X141656Y123978D01*
X132717D01*
X132294Y123894D01*
X131936Y123655D01*
X125649Y117368D01*
X125201Y117589D01*
X125236Y117854D01*
X125080Y119036D01*
X124624Y120138D01*
X123898Y121083D01*
X122953Y121809D01*
X121851Y122265D01*
X120669Y122421D01*
X112795D01*
X111613Y122265D01*
X110512Y121809D01*
X109566Y121083D01*
X108841Y120138D01*
X108384Y119036D01*
X108229Y117854D01*
X108384Y116672D01*
X108841Y115571D01*
X109566Y114625D01*
X110512Y113900D01*
X111613Y113443D01*
X112795Y113288D01*
X120669D01*
X120934Y113323D01*
X121156Y112874D01*
X96569Y88287D01*
X96329Y87929D01*
X96315Y87856D01*
X95815Y87905D01*
Y123849D01*
X97638D01*
X98022Y123926D01*
X98347Y124143D01*
X98565Y124469D01*
X98641Y124853D01*
Y124930D01*
X122491D01*
X122913Y125014D01*
X123271Y125253D01*
X125774Y127756D01*
X126337D01*
X126988Y128026D01*
X127486Y128524D01*
X127756Y129175D01*
Y129880D01*
X127486Y130531D01*
X126988Y131029D01*
X126337Y131299D01*
X125632D01*
X124981Y131029D01*
X124482Y130531D01*
X124213Y129880D01*
Y129317D01*
X122033Y127138D01*
X98641D01*
Y127215D01*
X98565Y127599D01*
X98347Y127925D01*
X98022Y128142D01*
X97638Y128218D01*
X94488D01*
X94104Y128142D01*
X93779Y127925D01*
X93561Y127599D01*
X93485Y127215D01*
Y124853D01*
X93561Y124469D01*
X93607Y124400D01*
Y71783D01*
X93107Y71603D01*
X92736Y71974D01*
X92085Y72244D01*
X91380D01*
X90729Y71974D01*
X90230Y71476D01*
X89961Y70825D01*
Y70120D01*
X90230Y69469D01*
X90729Y68971D01*
X91380Y68701D01*
X92085D01*
X92736Y68971D01*
X93107Y69342D01*
X93607Y69162D01*
Y65195D01*
X84117Y55705D01*
X84110Y55695D01*
X83864Y55506D01*
X83675Y55260D01*
X83665Y55253D01*
X63559Y35147D01*
X63345Y35236D01*
X62640D01*
X61989Y34966D01*
X61490Y34468D01*
X61221Y33817D01*
Y33112D01*
X61490Y32461D01*
X61989Y31963D01*
X62640Y31693D01*
X63345D01*
X63996Y31963D01*
X64494Y32461D01*
X64764Y33112D01*
Y33230D01*
X83358Y51824D01*
X83858Y51617D01*
Y51056D01*
X84127Y50055D01*
X84645Y49157D01*
X85378Y48424D01*
X86276Y47906D01*
X87277Y47638D01*
X88314D01*
X89315Y47906D01*
X90213Y48424D01*
X90946Y49157D01*
X91464Y50055D01*
X91732Y51056D01*
Y52093D01*
X91464Y53094D01*
X90946Y53992D01*
X90213Y54725D01*
X89315Y55243D01*
X88314Y55512D01*
X87753D01*
X87546Y56012D01*
X95491Y63957D01*
X95731Y64315D01*
X95815Y64738D01*
Y76432D01*
X96315Y76639D01*
X96346Y76609D01*
X96997Y76339D01*
X97702D01*
X98353Y76609D01*
X98851Y77107D01*
X99121Y77758D01*
Y78463D01*
X98851Y79114D01*
X98453Y79512D01*
Y87050D01*
X124462Y113058D01*
X124483Y113090D01*
X125005Y113518D01*
X125390Y113988D01*
X125429Y114013D01*
X125458Y114057D01*
X125466Y114062D01*
X133174Y121770D01*
X134034D01*
X134193Y121270D01*
X133483Y120344D01*
X132985Y119143D01*
X132881Y118354D01*
X150583D01*
X150479Y119143D01*
X149982Y120344D01*
X149190Y121376D01*
X148159Y122167D01*
X146958Y122664D01*
X145669Y122834D01*
X144287D01*
X144096Y123296D01*
X153930Y133130D01*
X154169Y133488D01*
X154253Y133911D01*
Y157087D01*
Y190160D01*
X154169Y190582D01*
X153930Y190940D01*
X153642Y191229D01*
X144686Y200184D01*
Y207678D01*
X136419D01*
Y197836D01*
X143913D01*
X152046Y189703D01*
Y158387D01*
X137205D01*
Y159055D01*
X132179D01*
X131988Y159517D01*
X132178Y159707D01*
X132418Y160065D01*
X132501Y160488D01*
Y162992D01*
X137205D01*
Y166535D01*
X130315D01*
Y165868D01*
X55379D01*
X22040Y199206D01*
X21682Y199445D01*
X21260Y199529D01*
X0D01*
X-422Y199445D01*
X-781Y199206D01*
X-2472Y197515D01*
X-2933Y197706D01*
Y357852D01*
X12227Y373012D01*
X164939Y373012D01*
X180099Y357852D01*
D02*
G37*
G36*
X168511Y39658D02*
X168672Y39418D01*
X168652Y39370D01*
Y30954D01*
X167589D01*
X167447Y31297D01*
X167413Y31454D01*
X167649Y31808D01*
X167739Y32259D01*
Y37032D01*
X167649Y37484D01*
X167394Y37866D01*
X167011Y38122D01*
X166560Y38212D01*
X163164D01*
X162713Y38122D01*
X162331Y37866D01*
X162075Y37484D01*
X161985Y37032D01*
Y34011D01*
X161802Y33889D01*
X158750D01*
X158714Y34070D01*
X158542Y34329D01*
X158495Y34360D01*
Y36248D01*
X158373Y36863D01*
X158025Y37384D01*
X158025Y37384D01*
X156872Y38537D01*
X156741Y38625D01*
X156893Y39125D01*
X164961D01*
X165413Y39312D01*
X165600Y39764D01*
Y39883D01*
X166100Y40150D01*
X166286Y40026D01*
X166830Y39918D01*
X167511D01*
Y42913D01*
X168511D01*
Y39658D01*
D02*
G37*
G36*
X166929Y48031D02*
X164961Y46063D01*
Y39764D01*
X142913D01*
Y62598D01*
X166929D01*
Y48031D01*
D02*
G37*
G36*
X142520Y35796D02*
X142520Y35796D01*
X151181D01*
Y28346D01*
X150476D01*
X150452Y28405D01*
X150000Y28592D01*
X142913D01*
X142461Y28405D01*
X142403Y28346D01*
X142126D01*
X140945Y27165D01*
X126378Y27165D01*
Y35827D01*
X142365D01*
X142520Y35796D01*
D02*
G37*
G36*
X155497Y28687D02*
X155802Y28626D01*
X157977D01*
X158022Y28590D01*
Y22441D01*
X158040Y22399D01*
X157705Y21899D01*
X150639D01*
Y27707D01*
X151181D01*
X151546Y27858D01*
X152046Y27654D01*
Y25984D01*
X152130Y25562D01*
X152369Y25204D01*
X152727Y24964D01*
X153150Y24880D01*
X153572Y24964D01*
X153930Y25204D01*
X154169Y25562D01*
X154253Y25984D01*
Y28212D01*
X154702Y28301D01*
X155096Y28565D01*
X155277Y28834D01*
X155497Y28687D01*
D02*
G37*
G36*
X179528Y22441D02*
X158661D01*
Y29039D01*
X158714Y29119D01*
X158775Y29424D01*
Y30315D01*
X169291D01*
Y39370D01*
X171260D01*
Y47244D01*
X179528D01*
Y22441D01*
D02*
G37*
G36*
X150000Y21260D02*
X174016D01*
Y11811D01*
X134646D01*
Y21712D01*
X134668Y21826D01*
Y25221D01*
X134646Y25335D01*
Y26378D01*
X141339D01*
X142913Y27953D01*
X150000D01*
Y21260D01*
D02*
G37*
%LPC*%
G36*
X94832Y371576D02*
X64567D01*
X64144Y371492D01*
X63786Y371253D01*
X60637Y368103D01*
X60397Y367745D01*
X60313Y367323D01*
Y357874D01*
X60397Y357452D01*
X60637Y357094D01*
X62162Y355568D01*
X62520Y355329D01*
X62942Y355245D01*
X63563D01*
Y355168D01*
X63640Y354784D01*
X63857Y354458D01*
X64183Y354241D01*
X64567Y354164D01*
X67716D01*
X68101Y354241D01*
X68426Y354458D01*
X68644Y354784D01*
X68720Y355168D01*
Y355245D01*
X75000D01*
Y351772D01*
X78465D01*
Y358937D01*
X77637D01*
X77446Y359399D01*
X78067Y360020D01*
X79708D01*
X80291Y359437D01*
X80084Y358937D01*
X80000D01*
Y351772D01*
X80589D01*
Y347898D01*
X71590Y338899D01*
X65833D01*
X65587Y338850D01*
X64862D01*
X64852Y338848D01*
X62205D01*
X61821Y338772D01*
X61495Y338555D01*
X61278Y338229D01*
X61201Y337845D01*
Y335483D01*
X61278Y335099D01*
X61495Y334773D01*
X61821Y334556D01*
X62205Y334479D01*
X65354D01*
X65738Y334556D01*
X66064Y334773D01*
X66281Y335099D01*
X66358Y335483D01*
Y336691D01*
X72047D01*
X72470Y336775D01*
X72828Y337015D01*
X82473Y346660D01*
X82713Y347019D01*
X82797Y347441D01*
Y351772D01*
X83465D01*
Y358937D01*
X82836D01*
Y359557D01*
X82752Y359979D01*
X82513Y360337D01*
X80948Y361903D01*
X80875Y361951D01*
Y364173D01*
X80799Y364557D01*
X80581Y364883D01*
X80256Y365100D01*
X79872Y365177D01*
X77509D01*
X77125Y365100D01*
X76800Y364883D01*
X76582Y364557D01*
X76506Y364173D01*
Y361581D01*
X75576Y360651D01*
X74981D01*
X74675Y361024D01*
Y364173D01*
X74599Y364557D01*
X74381Y364883D01*
X74056Y365100D01*
X73806Y365150D01*
X73684Y365573D01*
X73687Y365670D01*
X73943Y365926D01*
X74213Y366577D01*
Y367282D01*
X73943Y367933D01*
X73444Y368431D01*
X72793Y368701D01*
X72088D01*
X71437Y368431D01*
X70939Y367933D01*
X70669Y367282D01*
Y366577D01*
X70939Y365926D01*
X71200Y365665D01*
X71061Y365127D01*
X70925Y365100D01*
X70600Y364883D01*
X70382Y364557D01*
X70306Y364173D01*
Y361047D01*
X70254Y361000D01*
X69839Y360806D01*
X68720Y361925D01*
Y363730D01*
X68644Y364114D01*
X68426Y364440D01*
X68101Y364657D01*
X67716Y364733D01*
X64567D01*
X64183Y364657D01*
X63857Y364440D01*
X63640Y364114D01*
X63563Y363730D01*
Y361368D01*
X63640Y360984D01*
X63857Y360658D01*
X64183Y360441D01*
X64567Y360364D01*
X67159D01*
X68756Y358767D01*
X69115Y358527D01*
X69537Y358443D01*
X75000D01*
Y357453D01*
X68720D01*
Y357530D01*
X68644Y357914D01*
X68426Y358240D01*
X68101Y358457D01*
X67716Y358533D01*
X64567D01*
X64183Y358457D01*
X63857Y358240D01*
X63640Y357914D01*
X63098Y357754D01*
X62521Y358331D01*
Y366866D01*
X65024Y369369D01*
X94375D01*
X94666Y369078D01*
Y367684D01*
X94166Y367585D01*
X94022Y367933D01*
X93523Y368431D01*
X92872Y368701D01*
X92167D01*
X91516Y368431D01*
X91018Y367933D01*
X90748Y367282D01*
Y366577D01*
X90889Y366236D01*
Y364696D01*
X90579Y364489D01*
X90362Y364163D01*
X90285Y363779D01*
Y361631D01*
X90284Y361624D01*
X90284Y361624D01*
Y358937D01*
X90000D01*
Y351772D01*
X93465D01*
Y355357D01*
X93495Y355512D01*
X93495Y355512D01*
Y359626D01*
X93651D01*
X94035Y359703D01*
X94361Y359920D01*
X94376Y359943D01*
X94960Y359970D01*
X94984Y359953D01*
X95285Y359752D01*
X95628Y359684D01*
Y358937D01*
X95000D01*
Y351772D01*
X95628D01*
Y349724D01*
X95712Y349302D01*
X95952Y348944D01*
X97660Y347235D01*
X97469Y346773D01*
X88583D01*
X88160Y346689D01*
X87802Y346450D01*
X80952Y339599D01*
X80712Y339241D01*
X80628Y338819D01*
Y337205D01*
X80000D01*
Y330039D01*
X80904D01*
Y325492D01*
X80748D01*
Y322539D01*
X84252D01*
Y323062D01*
X84597Y323204D01*
X84752Y323237D01*
X85049Y323039D01*
X85433Y322963D01*
X88583D01*
X88967Y323039D01*
X89292Y323257D01*
X89508Y323580D01*
X89520Y323582D01*
X90008Y323582D01*
X90019Y323580D01*
X90235Y323256D01*
X90561Y323039D01*
X90945Y322963D01*
X94095D01*
X94478Y323039D01*
X94804Y323256D01*
X95022Y323582D01*
X95098Y323966D01*
Y325771D01*
X97513Y328186D01*
X97752Y328544D01*
X97836Y328966D01*
Y330039D01*
X98465D01*
Y337205D01*
X95000D01*
Y330039D01*
X95628D01*
Y329423D01*
X93537Y327332D01*
X90945D01*
X90561Y327256D01*
X90235Y327038D01*
X90019Y326714D01*
X90008Y326712D01*
X89520Y326712D01*
X89508Y326714D01*
X89292Y327038D01*
X88967Y327256D01*
X88583Y327332D01*
X85433D01*
X85049Y327256D01*
X84724Y327038D01*
X84506Y326712D01*
X84430Y326328D01*
Y325919D01*
X84252Y325492D01*
X83930Y325492D01*
X83112D01*
Y330039D01*
X83465D01*
Y337205D01*
X82836D01*
Y338362D01*
X89040Y344565D01*
X106578D01*
X117744Y333399D01*
Y328956D01*
X117667D01*
X117283Y328880D01*
X116957Y328662D01*
X116740Y328337D01*
X116663Y327953D01*
Y324803D01*
X116740Y324419D01*
X116957Y324094D01*
X117283Y323876D01*
X117667Y323800D01*
X117941D01*
Y317909D01*
X117677Y317856D01*
X117351Y317639D01*
X117133Y317313D01*
X117057Y316929D01*
Y313779D01*
X117133Y313396D01*
X117351Y313070D01*
X117677Y312852D01*
X118061Y312776D01*
X120423D01*
X120807Y312852D01*
X121132Y313070D01*
X121350Y313396D01*
X121426Y313779D01*
Y316929D01*
X121350Y317313D01*
X121132Y317639D01*
X120807Y317856D01*
X120423Y317933D01*
X120149D01*
Y323823D01*
X120413Y323876D01*
X120739Y324094D01*
X120956Y324419D01*
X121033Y324803D01*
Y327953D01*
X120956Y328337D01*
X120739Y328662D01*
X120413Y328880D01*
X120029Y328956D01*
X119952D01*
Y332765D01*
X120414Y332956D01*
X126727Y326643D01*
X126579Y326084D01*
X126162Y325911D01*
X125663Y325413D01*
X125394Y324762D01*
Y324057D01*
X125663Y323406D01*
X126061Y323008D01*
Y293553D01*
X126146Y293131D01*
X126385Y292773D01*
X130097Y289060D01*
Y259744D01*
X124803D01*
Y252067D01*
X137598D01*
Y259744D01*
X132305D01*
Y289518D01*
X132221Y289940D01*
X131981Y290298D01*
X128269Y294010D01*
Y323008D01*
X128667Y323406D01*
X128840Y323823D01*
X129399Y323971D01*
X130786Y322584D01*
Y309449D01*
X130870Y309026D01*
X131109Y308668D01*
X137500Y302277D01*
Y291142D01*
X145177D01*
Y291366D01*
X161595D01*
Y291289D01*
X161671Y290905D01*
X161889Y290579D01*
X162214Y290362D01*
X162598Y290285D01*
X165748D01*
X166132Y290362D01*
X166458Y290579D01*
X166675Y290905D01*
X166752Y291289D01*
Y293651D01*
X166675Y294035D01*
X166458Y294361D01*
X166132Y294578D01*
X165748Y294655D01*
X162598D01*
X162214Y294578D01*
X161889Y294361D01*
X161671Y294035D01*
X161595Y293651D01*
Y293574D01*
X145177D01*
Y303937D01*
X138963D01*
X132994Y309906D01*
Y323041D01*
X132910Y323464D01*
X132670Y323822D01*
X116585Y339907D01*
X116703Y340497D01*
X117010Y340624D01*
X117509Y341122D01*
X117778Y341774D01*
Y342478D01*
X117509Y343129D01*
X117010Y343628D01*
X116359Y343898D01*
X115796D01*
X110094Y349599D01*
X109736Y349839D01*
X109314Y349923D01*
X106875D01*
X105488Y351310D01*
X105679Y351772D01*
X108465D01*
Y357376D01*
X114895Y363806D01*
X115134Y364164D01*
X115218Y364587D01*
Y365453D01*
X116535D01*
Y368406D01*
X113031D01*
Y366642D01*
X113010Y366535D01*
Y365044D01*
X106903Y358937D01*
X105000D01*
Y352451D01*
X104538Y352259D01*
X103465Y353333D01*
Y358937D01*
X102836D01*
Y363086D01*
X105182Y365432D01*
X106083D01*
X106189Y365453D01*
X108228D01*
Y368406D01*
X104724D01*
Y367639D01*
X104302Y367555D01*
X103944Y367316D01*
X100952Y364324D01*
X100712Y363966D01*
X100628Y363543D01*
Y358937D01*
X100000D01*
Y351772D01*
X101903D01*
X104865Y348810D01*
X104674Y348348D01*
X99670D01*
X97836Y350182D01*
Y351772D01*
X98465D01*
Y358937D01*
X97836D01*
Y359676D01*
X98819D01*
X99203Y359752D01*
X99528Y359970D01*
X99746Y360296D01*
X99822Y360680D01*
Y363042D01*
X99746Y363426D01*
X99528Y363751D01*
X99203Y363969D01*
X98819Y364045D01*
X95669D01*
X95285Y363969D01*
X95145Y363875D01*
X94629Y364038D01*
X94598Y364065D01*
X94578Y364163D01*
X94361Y364489D01*
X94100Y364663D01*
Y366116D01*
X94241Y366454D01*
X94645Y366488D01*
X94753Y366479D01*
X94960Y366170D01*
X95285Y365952D01*
X95669Y365876D01*
X98819D01*
X99203Y365952D01*
X99528Y366170D01*
X99746Y366495D01*
X99822Y366880D01*
Y369242D01*
X99746Y369626D01*
X99528Y369951D01*
X99203Y370169D01*
X98819Y370245D01*
X96597D01*
X96548Y370318D01*
X95613Y371253D01*
X95255Y371492D01*
X94832Y371576D01*
D02*
G37*
G36*
X87451Y365200D02*
X86770D01*
Y362705D01*
X88872D01*
Y363779D01*
X88764Y364323D01*
X88456Y364784D01*
X87995Y365092D01*
X87451Y365200D01*
D02*
G37*
G36*
X83121Y366852D02*
X83071D01*
X82648Y366768D01*
X82290Y366529D01*
X82051Y366171D01*
X81967Y365748D01*
X82051Y365326D01*
X82290Y364967D01*
X82440Y364868D01*
X83668Y363639D01*
Y362705D01*
X85770D01*
Y365200D01*
X85229D01*
X83901Y366529D01*
X83543Y366768D01*
X83121Y366852D01*
D02*
G37*
G36*
X88872Y361705D02*
X86270D01*
X83668D01*
Y360630D01*
X83776Y360086D01*
X84084Y359625D01*
X84545Y359317D01*
X84591Y359308D01*
Y355854D01*
X88874D01*
Y359347D01*
X88870D01*
X88604Y359846D01*
X88764Y360086D01*
X88872Y360630D01*
Y361705D01*
D02*
G37*
G36*
X171367Y362204D02*
Y354832D01*
X176443D01*
Y356694D01*
X176253Y358137D01*
X175696Y359482D01*
X174810Y360636D01*
X173655Y361522D01*
X172310Y362079D01*
X171367Y362204D01*
D02*
G37*
G36*
X47745Y362204D02*
Y354832D01*
X52821D01*
Y356694D01*
X52631Y358137D01*
X52074Y359482D01*
X51188Y360636D01*
X50033Y361522D01*
X48688Y362079D01*
X47745Y362204D01*
D02*
G37*
G36*
X46745Y362204D02*
X45802Y362079D01*
X44458Y361522D01*
X43303Y360636D01*
X42417Y359482D01*
X41860Y358137D01*
X41670Y356694D01*
Y354832D01*
X46745D01*
Y362204D01*
D02*
G37*
G36*
X170367D02*
X169424Y362079D01*
X168080Y361522D01*
X166925Y360636D01*
X166039Y359482D01*
X165482Y358137D01*
X165292Y356694D01*
Y354832D01*
X170367D01*
Y362204D01*
D02*
G37*
G36*
X130422D02*
Y354832D01*
X135498D01*
Y356694D01*
X135308Y358137D01*
X134751Y359482D01*
X133865Y360636D01*
X132710Y361522D01*
X131366Y362079D01*
X130422Y362204D01*
D02*
G37*
G36*
X129422D02*
X128480Y362079D01*
X127135Y361522D01*
X125980Y360636D01*
X125094Y359482D01*
X124537Y358137D01*
X124347Y356694D01*
Y354832D01*
X129422D01*
Y362204D01*
D02*
G37*
G36*
X6801D02*
Y354832D01*
X11876D01*
Y356694D01*
X11686Y358137D01*
X11129Y359482D01*
X10243Y360636D01*
X9088Y361522D01*
X7744Y362079D01*
X6801Y362204D01*
D02*
G37*
G36*
X5801D02*
X4857Y362079D01*
X3513Y361522D01*
X2358Y360636D01*
X1472Y359482D01*
X915Y358137D01*
X725Y356694D01*
Y354832D01*
X5801D01*
Y362204D01*
D02*
G37*
G36*
X88874Y354854D02*
X87232D01*
Y351362D01*
X88874D01*
Y354854D01*
D02*
G37*
G36*
X86232D02*
X84591D01*
Y351362D01*
X86232D01*
Y354854D01*
D02*
G37*
G36*
X46745Y353832D02*
X41670D01*
Y351970D01*
X41860Y350527D01*
X42417Y349182D01*
X43303Y348027D01*
X44458Y347141D01*
X45802Y346584D01*
X46745Y346460D01*
Y353832D01*
D02*
G37*
G36*
X176443D02*
X171367D01*
Y346460D01*
X172310Y346584D01*
X173655Y347141D01*
X174810Y348027D01*
X175696Y349182D01*
X176253Y350527D01*
X176443Y351970D01*
Y353832D01*
D02*
G37*
G36*
X135498Y353832D02*
X130422D01*
Y346460D01*
X131366Y346584D01*
X132710Y347141D01*
X133865Y348027D01*
X134751Y349182D01*
X135308Y350527D01*
X135498Y351970D01*
Y353832D01*
D02*
G37*
G36*
X129422D02*
X124347D01*
Y351970D01*
X124537Y350527D01*
X125094Y349182D01*
X125980Y348027D01*
X127135Y347141D01*
X128480Y346584D01*
X129422Y346460D01*
Y353832D01*
D02*
G37*
G36*
X11876D02*
X6801D01*
Y346460D01*
X7744Y346584D01*
X9088Y347141D01*
X10243Y348027D01*
X11129Y349182D01*
X11686Y350527D01*
X11876Y351970D01*
Y353832D01*
D02*
G37*
G36*
X5801D02*
X725D01*
Y351970D01*
X915Y350527D01*
X1472Y349182D01*
X2358Y348027D01*
X3513Y347141D01*
X4857Y346584D01*
X5801Y346460D01*
Y353832D01*
D02*
G37*
G36*
X170367Y353832D02*
X165292D01*
Y351970D01*
X165482Y350527D01*
X166039Y349182D01*
X166925Y348027D01*
X168080Y347141D01*
X169424Y346584D01*
X170367Y346460D01*
Y353832D01*
D02*
G37*
G36*
X52821D02*
X47745D01*
Y346460D01*
X48688Y346584D01*
X50033Y347141D01*
X51188Y348027D01*
X52074Y349182D01*
X52631Y350527D01*
X52821Y351970D01*
Y353832D01*
D02*
G37*
G36*
X65354Y345048D02*
X62205D01*
X61821Y344972D01*
X61495Y344755D01*
X61278Y344429D01*
X61201Y344045D01*
Y343968D01*
X60113D01*
X59715Y344366D01*
X59063Y344635D01*
X58359D01*
X57708Y344366D01*
X57209Y343867D01*
X56939Y343216D01*
Y342511D01*
X57209Y341860D01*
X57708Y341362D01*
X58359Y341092D01*
X59063D01*
X59715Y341362D01*
X60113Y341760D01*
X61201D01*
Y341683D01*
X61278Y341299D01*
X61495Y340973D01*
X61821Y340756D01*
X62205Y340679D01*
X65354D01*
X65738Y340756D01*
X66064Y340973D01*
X66281Y341299D01*
X66282Y341302D01*
X68209D01*
Y340197D01*
X71161D01*
Y343701D01*
X68209D01*
Y343510D01*
X66358D01*
Y344045D01*
X66281Y344429D01*
X66064Y344755D01*
X65738Y344972D01*
X65354Y345048D01*
D02*
G37*
G36*
X78465Y337205D02*
X75000D01*
Y334746D01*
X71161D01*
Y335394D01*
X68209D01*
Y331890D01*
X71161D01*
Y332538D01*
X75000D01*
Y330039D01*
X75628D01*
Y326737D01*
X74384Y325492D01*
X72441D01*
Y322539D01*
X75945D01*
Y323931D01*
X77513Y325499D01*
X77752Y325857D01*
X77836Y326279D01*
Y330039D01*
X78465D01*
Y337205D01*
D02*
G37*
G36*
X86614Y340474D02*
X86192Y340390D01*
X85834Y340151D01*
X85594Y339792D01*
X85510Y339370D01*
X85569Y339073D01*
Y337614D01*
X84591D01*
Y334122D01*
X88874D01*
Y337614D01*
X87777D01*
Y339311D01*
X87693Y339734D01*
X87454Y340092D01*
X87395Y340151D01*
X87037Y340390D01*
X86614Y340474D01*
D02*
G37*
G36*
X92085Y341142D02*
X91380D01*
X90729Y340872D01*
X90230Y340374D01*
X89961Y339722D01*
Y339018D01*
X90127Y338617D01*
Y337205D01*
X90000D01*
Y330039D01*
X93465D01*
Y337205D01*
X93338D01*
Y338617D01*
X93504Y339018D01*
Y339722D01*
X93234Y340374D01*
X92736Y340872D01*
X92085Y341142D01*
D02*
G37*
G36*
X88874Y333122D02*
X87232D01*
Y329630D01*
X88874D01*
Y333122D01*
D02*
G37*
G36*
X86232D02*
X84591D01*
Y329630D01*
X86232D01*
Y333122D01*
D02*
G37*
G36*
X54480Y331322D02*
X31399D01*
X30977Y331238D01*
X30618Y330998D01*
X28833Y329213D01*
X27852Y329619D01*
X26773Y329761D01*
X25694Y329619D01*
X24688Y329203D01*
X23825Y328540D01*
X23162Y327677D01*
X22746Y326671D01*
X22603Y325592D01*
Y324017D01*
X22746Y322938D01*
X23162Y321932D01*
X23825Y321069D01*
X24688Y320406D01*
X25694Y319989D01*
X26773Y319847D01*
X27852Y319989D01*
X28858Y320406D01*
X29721Y321069D01*
X30384Y321932D01*
X30800Y322938D01*
X30942Y324017D01*
Y325592D01*
X30800Y326671D01*
X30394Y327652D01*
X31856Y329114D01*
X33637D01*
X33798Y328640D01*
X33667Y328540D01*
X33005Y327677D01*
X32588Y326671D01*
X32446Y325592D01*
Y324017D01*
X32588Y322938D01*
X33005Y321932D01*
X33667Y321069D01*
X34531Y320406D01*
X35512Y320000D01*
Y276377D01*
X35596Y275954D01*
X35835Y275596D01*
X57557Y253873D01*
Y234252D01*
X57642Y233829D01*
X57881Y233471D01*
X82754Y208598D01*
Y206607D01*
Y200851D01*
X65565Y183661D01*
X65002D01*
X64351Y183392D01*
X63852Y182893D01*
X63583Y182242D01*
Y181537D01*
X63852Y180886D01*
X64201Y180537D01*
X63955Y180077D01*
X63779Y180112D01*
X62705D01*
Y177509D01*
Y174907D01*
X63779D01*
X64323Y175015D01*
X64784Y175324D01*
X65092Y175785D01*
X65111Y175880D01*
X65502Y175931D01*
X65628Y175915D01*
X65826Y175619D01*
X66151Y175401D01*
X66535Y175325D01*
X69685D01*
X70069Y175401D01*
X70395Y175619D01*
X70612Y175944D01*
X70689Y176328D01*
Y176406D01*
X78130D01*
Y174213D01*
X80915D01*
X81107Y173751D01*
X79322Y171966D01*
X70689D01*
Y172491D01*
X70612Y172875D01*
X70395Y173200D01*
X70069Y173418D01*
X69685Y173494D01*
X66535D01*
X66151Y173418D01*
X65826Y173200D01*
X65608Y172875D01*
X65532Y172491D01*
Y172413D01*
X64783D01*
Y172491D01*
X64707Y172875D01*
X64489Y173200D01*
X64164Y173418D01*
X63779Y173494D01*
X60630D01*
X60246Y173418D01*
X59920Y173200D01*
X59703Y172875D01*
X59626Y172491D01*
Y170128D01*
X59703Y169744D01*
X59920Y169419D01*
X60246Y169201D01*
X60630Y169125D01*
X63779D01*
X64164Y169201D01*
X64489Y169419D01*
X64707Y169744D01*
X64783Y170128D01*
Y170206D01*
X65532D01*
Y170128D01*
X65608Y169744D01*
X65826Y169419D01*
X66151Y169201D01*
X66535Y169125D01*
X69685D01*
X70069Y169201D01*
X70395Y169419D01*
X70612Y169744D01*
X70615Y169758D01*
X79779D01*
X80202Y169842D01*
X80560Y170082D01*
X84691Y174213D01*
X86673D01*
Y181217D01*
X87052Y181644D01*
X87061Y181650D01*
X87743D01*
X88130Y181378D01*
X88130Y181150D01*
Y174213D01*
X90112D01*
X92271Y172054D01*
X92629Y171815D01*
X93051Y171731D01*
X99213D01*
X99635Y171815D01*
X99993Y172054D01*
X102749Y174810D01*
X102988Y175168D01*
X103072Y175591D01*
Y183401D01*
X114954Y195282D01*
X115193Y195641D01*
X115277Y196063D01*
Y208992D01*
X118174Y211888D01*
X125984D01*
X126407Y211972D01*
X126765Y212212D01*
X144580Y230027D01*
X144819Y230385D01*
X144903Y230807D01*
Y252067D01*
X155512D01*
Y256327D01*
X160808D01*
Y256250D01*
X160884Y255866D01*
X161101Y255540D01*
X161427Y255323D01*
X161811Y255246D01*
X164961D01*
X165345Y255323D01*
X165670Y255540D01*
X165888Y255866D01*
X165964Y256250D01*
Y258612D01*
X165888Y258996D01*
X165670Y259321D01*
X165345Y259539D01*
X164961Y259615D01*
X161811D01*
X161427Y259539D01*
X161101Y259321D01*
X160884Y258996D01*
X160808Y258612D01*
Y258535D01*
X155512D01*
Y259744D01*
X142717D01*
Y253256D01*
X142695Y253150D01*
Y231264D01*
X125527Y214096D01*
X117717D01*
X117294Y214012D01*
X116936Y213773D01*
X113393Y210229D01*
X113153Y209871D01*
X113069Y209449D01*
Y196520D01*
X101188Y184639D01*
X100949Y184281D01*
X100865Y183858D01*
Y176048D01*
X98755Y173939D01*
X97060D01*
X96673Y174213D01*
Y181378D01*
X96310D01*
Y182349D01*
X96329Y182361D01*
X96547Y182687D01*
X96623Y183071D01*
Y183778D01*
X97434D01*
X97653Y183687D01*
X98358D01*
X99009Y183957D01*
X99507Y184455D01*
X99777Y185107D01*
Y185811D01*
X99507Y186463D01*
X99009Y186961D01*
X98358Y187231D01*
X97653D01*
X97071Y186989D01*
X96241D01*
X96004Y187148D01*
X95620Y187224D01*
X93257D01*
X92874Y187148D01*
X92548Y186930D01*
X92330Y186604D01*
X92254Y186221D01*
Y183071D01*
X92330Y182687D01*
X92548Y182361D01*
X92874Y182144D01*
X93099Y182099D01*
Y177992D01*
X93099Y177992D01*
X93130Y177837D01*
Y174970D01*
X92668Y174779D01*
X91673Y175774D01*
Y178378D01*
X91694Y178484D01*
X91673Y178591D01*
Y181378D01*
X90295D01*
X90143Y181878D01*
X90425Y182066D01*
X90733Y182527D01*
X90841Y183071D01*
Y184146D01*
X88239D01*
X85637D01*
Y183071D01*
X85745Y182527D01*
X86053Y182066D01*
X86334Y181878D01*
X86183Y181378D01*
X83130D01*
Y175774D01*
X82135Y174779D01*
X81673Y174970D01*
Y181378D01*
X81005D01*
Y189287D01*
X90098Y198379D01*
X91119D01*
X91268Y198157D01*
X91650Y197902D01*
X92101Y197812D01*
X96875D01*
X97326Y197902D01*
X97709Y198157D01*
X97964Y198540D01*
X98054Y198991D01*
Y202387D01*
X97964Y202838D01*
X97709Y203221D01*
X97326Y203476D01*
X96875Y203566D01*
X92101D01*
X91650Y203476D01*
X91268Y203221D01*
X91012Y202838D01*
X90922Y202387D01*
Y200587D01*
X89641D01*
X89218Y200503D01*
X88860Y200264D01*
X79121Y190525D01*
X78882Y190166D01*
X78798Y189744D01*
Y181378D01*
X78130D01*
Y178613D01*
X70689D01*
Y178691D01*
X70612Y179075D01*
X70395Y179400D01*
X70069Y179618D01*
X69685Y179694D01*
X66535D01*
X66151Y179618D01*
X65826Y179400D01*
X65628Y179104D01*
X65502Y179088D01*
X65111Y179139D01*
X65092Y179234D01*
X64811Y179656D01*
X64872Y179866D01*
X64918Y179954D01*
X65052Y180118D01*
X65707D01*
X66358Y180388D01*
X66856Y180886D01*
X67126Y181537D01*
Y182100D01*
X84639Y199613D01*
X84878Y199971D01*
X84962Y200394D01*
Y204792D01*
X85462Y205039D01*
X85954Y204836D01*
X86659D01*
X87310Y205105D01*
X87808Y205604D01*
X88078Y206255D01*
Y206960D01*
X87808Y207611D01*
X87310Y208109D01*
X86659Y208379D01*
X85954D01*
X85462Y208175D01*
X84962Y208422D01*
Y209055D01*
X84878Y209478D01*
X84639Y209836D01*
X59765Y234709D01*
Y254331D01*
X59681Y254753D01*
X59442Y255111D01*
X37719Y276834D01*
Y320000D01*
X38700Y320406D01*
X39564Y321069D01*
X40226Y321932D01*
X40643Y322938D01*
X40785Y324017D01*
Y325592D01*
X40643Y326671D01*
X40226Y327677D01*
X39564Y328540D01*
X39433Y328640D01*
X39594Y329114D01*
X54023D01*
X64970Y318167D01*
X65328Y317927D01*
X65751Y317843D01*
X84035D01*
X84250Y317517D01*
X84026Y317015D01*
X83642Y316856D01*
X83244Y316458D01*
X70866D01*
X70444Y316374D01*
X70086Y316135D01*
X68321Y314370D01*
X67758D01*
X67107Y314100D01*
X66608Y313602D01*
X66339Y312951D01*
Y312649D01*
X65839Y312442D01*
X62972Y315309D01*
Y317660D01*
X62888Y318082D01*
X62648Y318440D01*
X54528Y326561D01*
Y327124D01*
X54258Y327775D01*
X53759Y328274D01*
X53108Y328543D01*
X52403D01*
X51752Y328274D01*
X51254Y327775D01*
X50984Y327124D01*
Y326419D01*
X51254Y325768D01*
X51752Y325270D01*
X52403Y325000D01*
X52966D01*
X58016Y319950D01*
X57897Y319649D01*
X57771Y319488D01*
X57128D01*
X56477Y319218D01*
X55978Y318720D01*
X55709Y318069D01*
Y317364D01*
X55978Y316713D01*
X56376Y316315D01*
Y309055D01*
X56460Y308633D01*
X56700Y308275D01*
X61938Y303036D01*
Y301746D01*
X61540Y301348D01*
X61270Y300696D01*
Y299992D01*
X61540Y299341D01*
X62038Y298842D01*
X62689Y298572D01*
X63394D01*
X64045Y298842D01*
X64544Y299341D01*
X64813Y299992D01*
Y300696D01*
X64544Y301348D01*
X64146Y301746D01*
Y303494D01*
X64062Y303916D01*
X63822Y304274D01*
X58584Y309512D01*
Y316315D01*
X58982Y316713D01*
X59252Y317364D01*
Y318007D01*
X59413Y318133D01*
X59714Y318252D01*
X60764Y317203D01*
Y314852D01*
X60848Y314430D01*
X61087Y314071D01*
X74364Y300794D01*
X74723Y300555D01*
X75145Y300471D01*
X106299D01*
X106722Y300555D01*
X107080Y300794D01*
X113822Y307537D01*
X114062Y307895D01*
X114146Y308317D01*
Y312776D01*
X114223D01*
X114607Y312852D01*
X114932Y313070D01*
X115150Y313396D01*
X115226Y313779D01*
Y316929D01*
X115150Y317313D01*
X114932Y317639D01*
X114607Y317856D01*
X114223Y317933D01*
X111861D01*
X111477Y317856D01*
X111151Y317639D01*
X111148Y317638D01*
X110575Y317677D01*
X110404Y317934D01*
X109943Y318242D01*
X109399Y318350D01*
X108718D01*
Y315354D01*
X108218D01*
Y314854D01*
X105616D01*
Y313779D01*
X105724Y313236D01*
X106032Y312775D01*
X106493Y312467D01*
X107037Y312358D01*
X107114D01*
Y311368D01*
X107198Y310945D01*
X107438Y310587D01*
X107796Y310348D01*
X108218Y310264D01*
X108641Y310348D01*
X108999Y310587D01*
X109238Y310945D01*
X109322Y311368D01*
Y312358D01*
X109399D01*
X109943Y312467D01*
X110404Y312775D01*
X110575Y313031D01*
X111148Y313071D01*
X111151Y313070D01*
X111477Y312852D01*
X111861Y312776D01*
X111938D01*
Y308775D01*
X105842Y302679D01*
X75602D01*
X67954Y310327D01*
X68161Y310827D01*
X68463D01*
X69114Y311097D01*
X69612Y311595D01*
X69882Y312246D01*
Y312809D01*
X71323Y314250D01*
X83244D01*
X83642Y313852D01*
X84293Y313583D01*
X84998D01*
X85649Y313852D01*
X86148Y314351D01*
X86417Y315002D01*
Y315707D01*
X86187Y316263D01*
X86396Y316763D01*
X88583D01*
X88967Y316839D01*
X89206Y316999D01*
X89525Y317007D01*
X89818Y316944D01*
X89940Y316761D01*
X90401Y316453D01*
X90945Y316345D01*
X91416D01*
Y314961D01*
X91500Y314538D01*
X91739Y314180D01*
X92097Y313941D01*
X92520Y313857D01*
X92942Y313941D01*
X93300Y314180D01*
X93540Y314538D01*
X93624Y314961D01*
Y316345D01*
X94095D01*
X94638Y316453D01*
X95099Y316761D01*
X95407Y317222D01*
X95516Y317766D01*
Y318447D01*
X92520D01*
Y318947D01*
X92020D01*
Y321549D01*
X90945D01*
X90401Y321441D01*
X89940Y321133D01*
X89818Y320951D01*
X89525Y320888D01*
X89206Y320896D01*
X88967Y321056D01*
X88583Y321132D01*
X85433D01*
X85049Y321056D01*
X84724Y320838D01*
X84506Y320512D01*
X84430Y320128D01*
Y320051D01*
X66208D01*
X55261Y330998D01*
X54903Y331238D01*
X54480Y331322D01*
D02*
G37*
G36*
X103465Y337205D02*
X100000D01*
Y330039D01*
X100796D01*
Y328938D01*
X100503Y328880D01*
X100177Y328662D01*
X99959Y328337D01*
X99883Y327953D01*
Y327291D01*
X99383Y327111D01*
X98778Y327362D01*
X98073D01*
X97422Y327093D01*
X96923Y326594D01*
X96653Y325943D01*
Y325238D01*
X96923Y324587D01*
X97422Y324089D01*
X98073Y323819D01*
X98778D01*
X99429Y324089D01*
X99533Y324193D01*
X100162Y324115D01*
X100177Y324094D01*
X100503Y323876D01*
X100887Y323800D01*
X100939D01*
Y317933D01*
X100837D01*
X100453Y317856D01*
X100127Y317639D01*
X99910Y317313D01*
X99834Y316929D01*
Y313779D01*
X99910Y313396D01*
X100127Y313070D01*
X100453Y312852D01*
X100837Y312776D01*
X103199D01*
X103583Y312852D01*
X103909Y313070D01*
X104126Y313396D01*
X104203Y313779D01*
Y316929D01*
X104126Y317313D01*
X103909Y317639D01*
X103583Y317856D01*
X103199Y317933D01*
X103147D01*
Y323800D01*
X103249D01*
X103633Y323876D01*
X103958Y324094D01*
X104176Y324419D01*
X104252Y324803D01*
Y327953D01*
X104176Y328337D01*
X103958Y328662D01*
X103633Y328880D01*
X103249Y328956D01*
X103004D01*
Y330039D01*
X103465D01*
Y337205D01*
D02*
G37*
G36*
X64919Y330512D02*
X64214D01*
X63563Y330242D01*
X63065Y329744D01*
X62795Y329093D01*
Y328388D01*
X63065Y327737D01*
X63563Y327238D01*
X64214Y326969D01*
X64919D01*
X65570Y327238D01*
X66069Y327737D01*
X66339Y328388D01*
Y329093D01*
X66069Y329744D01*
X65570Y330242D01*
X64919Y330512D01*
D02*
G37*
G36*
X21474Y330135D02*
X17430D01*
Y325304D01*
X21474D01*
Y330135D01*
D02*
G37*
G36*
X16430D02*
X12387D01*
Y325304D01*
X16430D01*
Y330135D01*
D02*
G37*
G36*
X107085Y341102D02*
X106380D01*
X105729Y340833D01*
X105230Y340334D01*
X104961Y339683D01*
Y338978D01*
X105230Y338327D01*
X105628Y337929D01*
Y337205D01*
X105000D01*
Y330039D01*
X105628D01*
Y328307D01*
X105712Y327885D01*
X105952Y327526D01*
X106083Y327395D01*
Y324803D01*
X106159Y324419D01*
X106377Y324094D01*
X106703Y323876D01*
X107087Y323800D01*
X109449D01*
X109833Y323876D01*
X110158Y324094D01*
X110757D01*
X111083Y323876D01*
X111467Y323800D01*
X113829D01*
X114213Y323876D01*
X114539Y324094D01*
X114756Y324419D01*
X114833Y324803D01*
Y327953D01*
X114756Y328337D01*
X114539Y328662D01*
X114213Y328880D01*
X113829Y328956D01*
X111467D01*
X111083Y328880D01*
X110757Y328662D01*
X110158D01*
X109833Y328880D01*
X109449Y328956D01*
X107836D01*
Y330039D01*
X108465D01*
Y337205D01*
X107836D01*
Y337929D01*
X108234Y338327D01*
X108504Y338978D01*
Y339683D01*
X108234Y340334D01*
X107736Y340833D01*
X107085Y341102D01*
D02*
G37*
G36*
X144686Y329726D02*
X136419D01*
Y319883D01*
X144686D01*
Y329726D01*
D02*
G37*
G36*
X160238Y329761D02*
X159158Y329619D01*
X158153Y329203D01*
X157289Y328540D01*
X156627Y327677D01*
X156210Y326671D01*
X156068Y325592D01*
Y324017D01*
X156210Y322938D01*
X156627Y321932D01*
X157289Y321069D01*
X158153Y320406D01*
X159158Y319989D01*
X160238Y319847D01*
X161317Y319989D01*
X162322Y320406D01*
X163186Y321069D01*
X163848Y321932D01*
X164265Y322938D01*
X164407Y324017D01*
Y325592D01*
X164265Y326671D01*
X163848Y327677D01*
X163186Y328540D01*
X162322Y329203D01*
X161317Y329619D01*
X160238Y329761D01*
D02*
G37*
G36*
X150395D02*
X149316Y329619D01*
X148310Y329203D01*
X147447Y328540D01*
X146784Y327677D01*
X146368Y326671D01*
X146226Y325592D01*
Y324017D01*
X146368Y322938D01*
X146784Y321932D01*
X147447Y321069D01*
X148310Y320406D01*
X149316Y319989D01*
X150395Y319847D01*
X151474Y319989D01*
X152480Y320406D01*
X153343Y321069D01*
X154006Y321932D01*
X154422Y322938D01*
X154564Y324017D01*
Y325592D01*
X154422Y326671D01*
X154006Y327677D01*
X153343Y328540D01*
X152480Y329203D01*
X151474Y329619D01*
X150395Y329761D01*
D02*
G37*
G36*
X21474Y324304D02*
X17430D01*
Y319474D01*
X21474D01*
Y324304D01*
D02*
G37*
G36*
X16430D02*
X12387D01*
Y319474D01*
X16430D01*
Y324304D01*
D02*
G37*
G36*
X94095Y321549D02*
X93020D01*
Y319447D01*
X95516D01*
Y320128D01*
X95407Y320672D01*
X95099Y321133D01*
X94638Y321441D01*
X94095Y321549D01*
D02*
G37*
G36*
X107718Y318350D02*
X107037D01*
X106493Y318242D01*
X106032Y317934D01*
X105724Y317473D01*
X105616Y316929D01*
Y315854D01*
X107718D01*
Y318350D01*
D02*
G37*
G36*
X12252Y303748D02*
X5071D01*
Y296567D01*
X12252D01*
Y303748D01*
D02*
G37*
G36*
X9188Y294158D02*
X9161D01*
Y290657D01*
X12661D01*
Y290684D01*
X12389Y291701D01*
X11862Y292614D01*
X11118Y293358D01*
X10205Y293885D01*
X9188Y294158D01*
D02*
G37*
G36*
X8161D02*
X8135D01*
X7118Y293885D01*
X6205Y293358D01*
X5461Y292614D01*
X4934Y291701D01*
X4661Y290684D01*
Y290657D01*
X8161D01*
Y294158D01*
D02*
G37*
G36*
X163673Y288872D02*
X162598D01*
X162055Y288764D01*
X161594Y288456D01*
X161286Y287995D01*
X161177Y287451D01*
Y286770D01*
X163673D01*
Y288872D01*
D02*
G37*
G36*
X12661Y289657D02*
X9161D01*
Y286157D01*
X9188D01*
X10205Y286430D01*
X11118Y286957D01*
X11862Y287701D01*
X12389Y288614D01*
X12661Y289631D01*
Y289657D01*
D02*
G37*
G36*
X8161D02*
X4661D01*
Y289631D01*
X4934Y288614D01*
X5461Y287701D01*
X6205Y286957D01*
X7118Y286430D01*
X8135Y286157D01*
X8161D01*
Y289657D01*
D02*
G37*
G36*
X165748Y288872D02*
X164673D01*
Y286270D01*
Y283668D01*
X165748D01*
X166292Y283776D01*
X166753Y284084D01*
X167061Y284545D01*
X167169Y285089D01*
Y285166D01*
X168061D01*
X168483Y285250D01*
X168841Y285490D01*
X169080Y285848D01*
X169165Y286270D01*
X169080Y286693D01*
X168841Y287051D01*
X168483Y287290D01*
X168061Y287374D01*
X167169D01*
Y287451D01*
X167061Y287995D01*
X166753Y288456D01*
X166292Y288764D01*
X165748Y288872D01*
D02*
G37*
G36*
X163673Y285770D02*
X161177D01*
Y285089D01*
X161286Y284545D01*
X161594Y284084D01*
X162055Y283776D01*
X162598Y283668D01*
X163673D01*
Y285770D01*
D02*
G37*
G36*
X145587Y286433D02*
X141839D01*
Y280126D01*
X145587D01*
Y286433D01*
D02*
G37*
G36*
X140839D02*
X137091D01*
Y280126D01*
X140839D01*
Y286433D01*
D02*
G37*
G36*
X9134Y283748D02*
X8189D01*
X7276Y283503D01*
X6457Y283031D01*
X5788Y282362D01*
X5316Y281543D01*
X5071Y280630D01*
Y279685D01*
X5316Y278772D01*
X5788Y277953D01*
X6457Y277284D01*
X7276Y276812D01*
X8189Y276567D01*
X9134D01*
X10047Y276812D01*
X10866Y277284D01*
X11535Y277953D01*
X12007Y278772D01*
X12252Y279685D01*
Y280630D01*
X12007Y281543D01*
X11535Y282362D01*
X10866Y283031D01*
X10047Y283503D01*
X9134Y283748D01*
D02*
G37*
G36*
X84083Y279345D02*
Y276091D01*
X87337D01*
X87083Y277040D01*
X86588Y277897D01*
X85889Y278596D01*
X85032Y279090D01*
X84083Y279345D01*
D02*
G37*
G36*
X83083D02*
X82133Y279090D01*
X81277Y278596D01*
X80577Y277897D01*
X80083Y277040D01*
X79828Y276091D01*
X83083D01*
Y279345D01*
D02*
G37*
G36*
X96929Y278937D02*
X90236D01*
Y272244D01*
X96929D01*
Y278937D01*
D02*
G37*
G36*
X87337Y275091D02*
X84083D01*
Y271836D01*
X85032Y272091D01*
X85889Y272585D01*
X86588Y273284D01*
X87083Y274141D01*
X87337Y275091D01*
D02*
G37*
G36*
X83083D02*
X79828D01*
X80083Y274141D01*
X80577Y273284D01*
X81277Y272585D01*
X82133Y272091D01*
X83083Y271836D01*
Y275091D01*
D02*
G37*
G36*
X145587Y279126D02*
X141339D01*
X137091D01*
Y272819D01*
X140235D01*
Y271260D01*
X140319Y270837D01*
X140558Y270479D01*
X140916Y270240D01*
X141339Y270156D01*
X141761Y270240D01*
X142119Y270479D01*
X142358Y270837D01*
X142443Y271260D01*
Y272819D01*
X145587D01*
Y279126D01*
D02*
G37*
G36*
X37402Y260075D02*
X35827D01*
X34748Y259933D01*
X33742Y259516D01*
X32879Y258854D01*
X32216Y257990D01*
X31799Y256985D01*
X31657Y255906D01*
X31799Y254826D01*
X32216Y253821D01*
X32879Y252957D01*
X33742Y252295D01*
X34748Y251878D01*
X35827Y251736D01*
X37402D01*
X38481Y251878D01*
X39486Y252295D01*
X40350Y252957D01*
X41012Y253821D01*
X41429Y254826D01*
X41571Y255906D01*
X41429Y256985D01*
X41012Y257990D01*
X40350Y258854D01*
X39486Y259516D01*
X38481Y259933D01*
X37402Y260075D01*
D02*
G37*
G36*
X17717D02*
X16142D01*
X15063Y259933D01*
X14057Y259516D01*
X13193Y258854D01*
X12531Y257990D01*
X12114Y256985D01*
X11972Y255906D01*
X12114Y254826D01*
X12531Y253821D01*
X13193Y252957D01*
X14057Y252295D01*
X15063Y251878D01*
X16142Y251736D01*
X17717D01*
X18796Y251878D01*
X19801Y252295D01*
X20665Y252957D01*
X21327Y253821D01*
X21744Y254826D01*
X21886Y255906D01*
X21744Y256985D01*
X21327Y257990D01*
X20665Y258854D01*
X19801Y259516D01*
X18796Y259933D01*
X17717Y260075D01*
D02*
G37*
G36*
X164961Y253833D02*
X163886D01*
Y251731D01*
X166382D01*
Y252412D01*
X166273Y252956D01*
X165965Y253417D01*
X165504Y253725D01*
X164961Y253833D01*
D02*
G37*
G36*
X162886D02*
X161811D01*
X161267Y253725D01*
X160806Y253417D01*
X160498Y252956D01*
X160390Y252412D01*
Y251731D01*
X162886D01*
Y253833D01*
D02*
G37*
G36*
X166382Y250731D02*
X163386D01*
X160390D01*
Y250050D01*
X160498Y249506D01*
X160806Y249045D01*
X161267Y248737D01*
X161811Y248629D01*
X162282D01*
Y247244D01*
X162366Y246822D01*
X162605Y246463D01*
X162963Y246224D01*
X163386Y246140D01*
X163808Y246224D01*
X164166Y246463D01*
X164406Y246822D01*
X164490Y247244D01*
Y248629D01*
X164961D01*
X165504Y248737D01*
X165965Y249045D01*
X166273Y249506D01*
X166382Y250050D01*
Y250731D01*
D02*
G37*
G36*
X24368Y272244D02*
X23663D01*
X23012Y271974D01*
X22514Y271476D01*
X22244Y270825D01*
Y270120D01*
X22514Y269469D01*
X22912Y269071D01*
Y257874D01*
X22996Y257452D01*
X23235Y257094D01*
X35834Y244495D01*
X36192Y244256D01*
X36614Y244172D01*
X48205D01*
X48603Y243774D01*
X49254Y243504D01*
X49959D01*
X50610Y243774D01*
X51108Y244272D01*
X51378Y244923D01*
Y245628D01*
X51108Y246279D01*
X50610Y246778D01*
X49959Y247047D01*
X49254D01*
X48603Y246778D01*
X48205Y246379D01*
X37071D01*
X25120Y258331D01*
Y269071D01*
X25518Y269469D01*
X25787Y270120D01*
Y270825D01*
X25518Y271476D01*
X25019Y271974D01*
X24368Y272244D01*
D02*
G37*
G36*
X120118Y241705D02*
X119094D01*
X118105Y241440D01*
X117218Y240928D01*
X116493Y240204D01*
X115981Y239317D01*
X115716Y238327D01*
Y237303D01*
X115981Y236313D01*
X116187Y235957D01*
X93708Y213477D01*
X93468Y213119D01*
X93384Y212697D01*
Y211637D01*
X92101D01*
X91650Y211547D01*
X91268Y211292D01*
X91012Y210909D01*
X90922Y210458D01*
Y207062D01*
X91012Y206611D01*
X91268Y206228D01*
X91650Y205973D01*
X92101Y205883D01*
X96875D01*
X97326Y205973D01*
X97709Y206228D01*
X97964Y206611D01*
X98054Y207062D01*
Y210458D01*
X97964Y210909D01*
X97709Y211292D01*
X97326Y211547D01*
X96875Y211637D01*
X95592D01*
Y212240D01*
X117748Y234396D01*
X118105Y234190D01*
X119094Y233924D01*
X120118D01*
X121108Y234190D01*
X121995Y234702D01*
X122720Y235426D01*
X123232Y236313D01*
X123497Y237303D01*
Y238327D01*
X123232Y239317D01*
X122720Y240204D01*
X121995Y240928D01*
X121108Y241440D01*
X120118Y241705D01*
D02*
G37*
G36*
X43413Y240156D02*
Y232785D01*
X48489D01*
Y234647D01*
X48299Y236090D01*
X47742Y237435D01*
X46856Y238589D01*
X45701Y239475D01*
X44356Y240032D01*
X43413Y240156D01*
D02*
G37*
G36*
X171367D02*
Y232785D01*
X176443D01*
Y234647D01*
X176253Y236090D01*
X175696Y237435D01*
X174810Y238589D01*
X173655Y239475D01*
X172310Y240032D01*
X171367Y240156D01*
D02*
G37*
G36*
X42413D02*
X41470Y240032D01*
X40126Y239475D01*
X38971Y238589D01*
X38085Y237435D01*
X37528Y236090D01*
X37338Y234647D01*
Y232785D01*
X42413D01*
Y240156D01*
D02*
G37*
G36*
X170367D02*
X169424Y240032D01*
X168080Y239475D01*
X166925Y238589D01*
X166039Y237435D01*
X165482Y236090D01*
X165292Y234647D01*
Y232785D01*
X170367D01*
Y240156D01*
D02*
G37*
G36*
X130422D02*
Y232785D01*
X135498D01*
Y234647D01*
X135308Y236090D01*
X134751Y237435D01*
X133865Y238589D01*
X132710Y239475D01*
X131366Y240032D01*
X130422Y240156D01*
D02*
G37*
G36*
X129422D02*
X128480Y240032D01*
X127135Y239475D01*
X125980Y238589D01*
X125094Y237435D01*
X124537Y236090D01*
X124347Y234647D01*
Y232785D01*
X129422D01*
Y240156D01*
D02*
G37*
G36*
X11130D02*
Y232785D01*
X16205D01*
Y234647D01*
X16015Y236090D01*
X15458Y237435D01*
X14572Y238589D01*
X13418Y239475D01*
X12073Y240032D01*
X11130Y240156D01*
D02*
G37*
G36*
X10130D02*
X9187Y240032D01*
X7842Y239475D01*
X6688Y238589D01*
X5802Y237435D01*
X5245Y236090D01*
X5055Y234647D01*
Y232785D01*
X10130D01*
Y240156D01*
D02*
G37*
G36*
X80119Y239206D02*
X79094D01*
X78105Y238940D01*
X77217Y238428D01*
X76493Y237704D01*
X75981Y236817D01*
X75716Y235827D01*
Y234803D01*
X75981Y233813D01*
X76493Y232926D01*
X77217Y232202D01*
X78105Y231690D01*
X79094Y231424D01*
X80119D01*
X81108Y231690D01*
X81995Y232202D01*
X82719Y232926D01*
X83232Y233813D01*
X83497Y234803D01*
Y235827D01*
X83232Y236817D01*
X82719Y237704D01*
X81995Y238428D01*
X81108Y238940D01*
X80119Y239206D01*
D02*
G37*
G36*
X176443Y231785D02*
X171367D01*
Y224413D01*
X172310Y224537D01*
X173655Y225094D01*
X174810Y225980D01*
X175696Y227135D01*
X176253Y228479D01*
X176443Y229922D01*
Y231785D01*
D02*
G37*
G36*
X48489D02*
X43413D01*
Y224413D01*
X44356Y224537D01*
X45701Y225094D01*
X46856Y225980D01*
X47742Y227135D01*
X48299Y228479D01*
X48489Y229922D01*
Y231785D01*
D02*
G37*
G36*
X135498Y231785D02*
X130422D01*
Y224413D01*
X131366Y224537D01*
X132710Y225094D01*
X133865Y225980D01*
X134751Y227135D01*
X135308Y228479D01*
X135498Y229922D01*
Y231785D01*
D02*
G37*
G36*
X129422D02*
X124347D01*
Y229922D01*
X124537Y228479D01*
X125094Y227135D01*
X125980Y225980D01*
X127135Y225094D01*
X128480Y224537D01*
X129422Y224413D01*
Y231785D01*
D02*
G37*
G36*
X16205D02*
X11130D01*
Y224413D01*
X12073Y224537D01*
X13418Y225094D01*
X14572Y225980D01*
X15458Y227135D01*
X16015Y228479D01*
X16205Y229922D01*
Y231785D01*
D02*
G37*
G36*
X10130D02*
X5055D01*
Y229922D01*
X5245Y228479D01*
X5802Y227135D01*
X6688Y225980D01*
X7842Y225094D01*
X9187Y224537D01*
X10130Y224413D01*
Y231785D01*
D02*
G37*
G36*
X170367Y231785D02*
X165292D01*
Y229922D01*
X165482Y228479D01*
X166039Y227135D01*
X166925Y225980D01*
X168080Y225094D01*
X169424Y224537D01*
X170367Y224413D01*
Y231785D01*
D02*
G37*
G36*
X42413D02*
X37338D01*
Y229922D01*
X37528Y228479D01*
X38085Y227135D01*
X38971Y225980D01*
X40126Y225094D01*
X41470Y224537D01*
X42413Y224413D01*
Y231785D01*
D02*
G37*
G36*
X120172Y227115D02*
X120106D01*
Y223315D01*
X123906D01*
Y223381D01*
X123613Y224475D01*
X123047Y225455D01*
X122247Y226256D01*
X121266Y226822D01*
X120172Y227115D01*
D02*
G37*
G36*
X119106D02*
X119040D01*
X117947Y226822D01*
X116966Y226256D01*
X116165Y225455D01*
X115599Y224475D01*
X115306Y223381D01*
Y223315D01*
X119106D01*
Y227115D01*
D02*
G37*
G36*
X80119Y229205D02*
X79094D01*
X78105Y228940D01*
X77217Y228428D01*
X76493Y227704D01*
X75981Y226817D01*
X75716Y225827D01*
Y224803D01*
X75981Y223813D01*
X76493Y222926D01*
X77217Y222202D01*
X78105Y221690D01*
X79094Y221424D01*
X80119D01*
X81108Y221690D01*
X81995Y222202D01*
X82719Y222926D01*
X83232Y223813D01*
X83497Y224803D01*
Y225827D01*
X83232Y226817D01*
X82719Y227704D01*
X81995Y228428D01*
X81108Y228940D01*
X80119Y229205D01*
D02*
G37*
G36*
X56258Y222638D02*
X55553D01*
X54902Y222368D01*
X54404Y221870D01*
X54134Y221218D01*
Y220514D01*
X54404Y219863D01*
X54902Y219364D01*
X55553Y219094D01*
X56258D01*
X56909Y219364D01*
X57407Y219863D01*
X57677Y220514D01*
Y221218D01*
X57407Y221870D01*
X56909Y222368D01*
X56258Y222638D01*
D02*
G37*
G36*
X123906Y222315D02*
X120106D01*
Y218515D01*
X120172D01*
X121266Y218808D01*
X122247Y219374D01*
X123047Y220175D01*
X123613Y221155D01*
X123906Y222249D01*
Y222315D01*
D02*
G37*
G36*
X119106D02*
X115306D01*
Y222249D01*
X115599Y221155D01*
X116165Y220175D01*
X116966Y219374D01*
X117947Y218808D01*
X119040Y218515D01*
X119106D01*
Y222315D01*
D02*
G37*
G36*
X55077Y231299D02*
X54372D01*
X53721Y231030D01*
X53223Y230531D01*
X52953Y229880D01*
Y229175D01*
X53223Y228524D01*
X53721Y228026D01*
X54372Y227756D01*
X54935D01*
X59782Y222909D01*
Y210988D01*
X59384Y210590D01*
X59114Y209939D01*
Y209234D01*
X59384Y208583D01*
X59882Y208085D01*
X60533Y207815D01*
X61238D01*
X61889Y208085D01*
X62388Y208583D01*
X62657Y209234D01*
Y209939D01*
X62388Y210590D01*
X61990Y210988D01*
Y223366D01*
X61906Y223789D01*
X61666Y224147D01*
X56496Y229317D01*
Y229880D01*
X56226Y230531D01*
X55728Y231030D01*
X55077Y231299D01*
D02*
G37*
G36*
X21064Y213583D02*
X12797D01*
Y203740D01*
X21064D01*
Y213583D01*
D02*
G37*
G36*
X36615Y213618D02*
X35536Y213476D01*
X34531Y213060D01*
X33667Y212397D01*
X33005Y211534D01*
X32588Y210528D01*
X32446Y209449D01*
Y207874D01*
X32588Y206795D01*
X33005Y205789D01*
X33667Y204926D01*
X34531Y204263D01*
X35536Y203847D01*
X36615Y203705D01*
X37695Y203847D01*
X38700Y204263D01*
X39564Y204926D01*
X40226Y205789D01*
X40643Y206795D01*
X40785Y207874D01*
Y209449D01*
X40643Y210528D01*
X40226Y211534D01*
X39564Y212397D01*
X38700Y213060D01*
X37695Y213476D01*
X36615Y213618D01*
D02*
G37*
G36*
X26772D02*
X25692Y213476D01*
X24687Y213060D01*
X23823Y212397D01*
X23161Y211534D01*
X22744Y210528D01*
X22602Y209449D01*
Y207874D01*
X22744Y206795D01*
X23161Y205789D01*
X23823Y204926D01*
X24687Y204263D01*
X25692Y203847D01*
X26772Y203705D01*
X27851Y203847D01*
X28856Y204263D01*
X29720Y204926D01*
X30383Y205789D01*
X30799Y206795D01*
X30941Y207874D01*
Y209449D01*
X30799Y210528D01*
X30383Y211534D01*
X29720Y212397D01*
X28856Y213060D01*
X27851Y213476D01*
X26772Y213618D01*
D02*
G37*
G36*
X160238Y207714D02*
X159158Y207572D01*
X158153Y207155D01*
X157289Y206493D01*
X156627Y205629D01*
X156210Y204624D01*
X156068Y203544D01*
Y201970D01*
X156210Y200890D01*
X156627Y199885D01*
X157289Y199021D01*
X158153Y198359D01*
X159158Y197942D01*
X160238Y197800D01*
X161317Y197942D01*
X162322Y198359D01*
X163186Y199021D01*
X163848Y199885D01*
X164265Y200890D01*
X164407Y201970D01*
Y203544D01*
X164265Y204624D01*
X163848Y205629D01*
X163186Y206493D01*
X162322Y207155D01*
X161317Y207572D01*
X160238Y207714D01*
D02*
G37*
G36*
X150395D02*
X149316Y207572D01*
X148310Y207155D01*
X147447Y206493D01*
X146784Y205629D01*
X146368Y204624D01*
X146226Y203544D01*
Y201970D01*
X146368Y200890D01*
X146784Y199885D01*
X147447Y199021D01*
X148310Y198359D01*
X149316Y197942D01*
X150395Y197800D01*
X151474Y197942D01*
X152480Y198359D01*
X153343Y199021D01*
X154006Y199885D01*
X154422Y200890D01*
X154564Y201970D01*
Y203544D01*
X154422Y204624D01*
X154006Y205629D01*
X153343Y206493D01*
X152480Y207155D01*
X151474Y207572D01*
X150395Y207714D01*
D02*
G37*
G36*
X34604Y197047D02*
X33900D01*
X33248Y196777D01*
X32750Y196279D01*
X32480Y195628D01*
Y194923D01*
X32750Y194272D01*
X33248Y193774D01*
X33900Y193504D01*
X34604D01*
X35256Y193774D01*
X35754Y194272D01*
X36024Y194923D01*
Y195628D01*
X35754Y196279D01*
X35256Y196777D01*
X34604Y197047D01*
D02*
G37*
G36*
X89420Y187642D02*
X88739D01*
Y185146D01*
X90841D01*
Y186221D01*
X90733Y186764D01*
X90425Y187225D01*
X89964Y187533D01*
X89420Y187642D01*
D02*
G37*
G36*
X85039Y188949D02*
X84617Y188865D01*
X84259Y188625D01*
X84020Y188267D01*
X83935Y187845D01*
X84020Y187423D01*
X84259Y187064D01*
X84522Y186801D01*
X84881Y186561D01*
X85224Y186493D01*
X85637Y186080D01*
Y185146D01*
X87739D01*
Y187642D01*
X87198D01*
X86477Y188362D01*
X86119Y188601D01*
X85745Y188675D01*
X85462Y188865D01*
X85039Y188949D01*
D02*
G37*
G36*
X61024Y187718D02*
X60601Y187634D01*
X60243Y187395D01*
X60004Y187037D01*
X59920Y186614D01*
Y186241D01*
X60004Y185819D01*
X60243Y185461D01*
X60601Y185222D01*
X61024Y185137D01*
X61446Y185222D01*
X61804Y185461D01*
X62043Y185819D01*
X62128Y186241D01*
Y186614D01*
X62043Y187037D01*
X61804Y187395D01*
X61446Y187634D01*
X61024Y187718D01*
D02*
G37*
G36*
X173638Y186689D02*
X167232D01*
Y182252D01*
X173638D01*
Y186689D01*
D02*
G37*
G36*
X166232D02*
X159827D01*
Y182252D01*
X166232D01*
Y186689D01*
D02*
G37*
G36*
X145669Y186732D02*
X142232D01*
Y182252D01*
X150583D01*
X150479Y183041D01*
X149982Y184242D01*
X149190Y185273D01*
X148159Y186064D01*
X146958Y186562D01*
X145669Y186732D01*
D02*
G37*
G36*
X141232D02*
X137795D01*
X136506Y186562D01*
X135306Y186064D01*
X134274Y185273D01*
X133483Y184242D01*
X132985Y183041D01*
X132881Y182252D01*
X141232D01*
Y186732D01*
D02*
G37*
G36*
X74762Y184449D02*
X74057D01*
X73406Y184179D01*
X72908Y183681D01*
X72638Y183030D01*
Y182325D01*
X72908Y181674D01*
X73406Y181175D01*
X74057Y180905D01*
X74762D01*
X75413Y181175D01*
X75911Y181674D01*
X76181Y182325D01*
Y183030D01*
X75911Y183681D01*
X75413Y184179D01*
X74762Y184449D01*
D02*
G37*
G36*
X120669Y186319D02*
X112795D01*
X111613Y186163D01*
X110512Y185707D01*
X109566Y184981D01*
X108841Y184035D01*
X108384Y182934D01*
X108229Y181752D01*
X108384Y180570D01*
X108841Y179469D01*
X109566Y178523D01*
X110512Y177797D01*
X111613Y177341D01*
X112795Y177185D01*
X120669D01*
X121851Y177341D01*
X122953Y177797D01*
X123898Y178523D01*
X124624Y179469D01*
X125080Y180570D01*
X125236Y181752D01*
X125080Y182934D01*
X124624Y184035D01*
X123898Y184981D01*
X122953Y185707D01*
X121851Y186163D01*
X120669Y186319D01*
D02*
G37*
G36*
X173638Y181252D02*
X167232D01*
Y176815D01*
X173638D01*
Y181252D01*
D02*
G37*
G36*
X166232D02*
X159827D01*
Y176815D01*
X166232D01*
Y181252D01*
D02*
G37*
G36*
X150583D02*
X142232D01*
Y176772D01*
X145669D01*
X146958Y176942D01*
X148159Y177439D01*
X149190Y178231D01*
X149982Y179262D01*
X150479Y180463D01*
X150583Y181252D01*
D02*
G37*
G36*
X141232D02*
X132881D01*
X132985Y180463D01*
X133483Y179262D01*
X134274Y178231D01*
X135306Y177439D01*
X136506Y176942D01*
X137795Y176772D01*
X141232D01*
Y181252D01*
D02*
G37*
G36*
X61705Y180112D02*
X60630D01*
X60086Y180003D01*
X59625Y179695D01*
X59317Y179234D01*
X59209Y178691D01*
Y178613D01*
X57530D01*
X57108Y178529D01*
X56749Y178290D01*
X56510Y177932D01*
X56426Y177509D01*
X56510Y177087D01*
X56749Y176729D01*
X57108Y176490D01*
X57530Y176406D01*
X59209D01*
Y176328D01*
X59317Y175785D01*
X59625Y175324D01*
X60086Y175015D01*
X60630Y174907D01*
X61705D01*
Y177509D01*
Y180112D01*
D02*
G37*
G36*
X119644Y209646D02*
X118939D01*
X118288Y209376D01*
X117789Y208878D01*
X117520Y208226D01*
Y207522D01*
X117789Y206871D01*
X118187Y206472D01*
Y195089D01*
X118272Y194667D01*
X118511Y194309D01*
X127243Y185577D01*
Y175024D01*
X126845Y174626D01*
X126575Y173975D01*
Y173270D01*
X126845Y172618D01*
X127343Y172120D01*
X127994Y171850D01*
X128699D01*
X129350Y172120D01*
X129848Y172618D01*
X130118Y173270D01*
Y173975D01*
X129848Y174626D01*
X129450Y175024D01*
Y186034D01*
X129366Y186457D01*
X129127Y186815D01*
X120395Y195546D01*
Y206472D01*
X120793Y206871D01*
X121063Y207522D01*
Y208226D01*
X120793Y208878D01*
X120295Y209376D01*
X119644Y209646D01*
D02*
G37*
G36*
X352Y171850D02*
X-352D01*
X-1004Y171581D01*
X-1502Y171082D01*
X-1772Y170431D01*
Y169726D01*
X-1502Y169075D01*
X-1004Y168577D01*
X-352Y168307D01*
X352D01*
X1004Y168577D01*
X1502Y169075D01*
X1772Y169726D01*
Y170431D01*
X1502Y171082D01*
X1004Y171581D01*
X352Y171850D01*
D02*
G37*
G36*
X169095Y169685D02*
X158465D01*
Y163386D01*
X169095D01*
Y169685D01*
D02*
G37*
G36*
X42085Y162899D02*
X41380D01*
X40729Y162629D01*
X40230Y162131D01*
X39961Y161480D01*
Y160775D01*
X40230Y160124D01*
X40729Y159625D01*
X41380Y159356D01*
X42085D01*
X42736Y159625D01*
X43234Y160124D01*
X43504Y160775D01*
Y161480D01*
X43234Y162131D01*
X42736Y162629D01*
X42085Y162899D01*
D02*
G37*
G36*
X91673Y159646D02*
X88130D01*
Y157669D01*
X86673D01*
Y159646D01*
X83130D01*
Y152480D01*
X86673D01*
Y154457D01*
X88130D01*
Y152480D01*
X91673D01*
Y159646D01*
D02*
G37*
G36*
X69549Y161476D02*
X69453D01*
X69030Y161392D01*
X68672Y161153D01*
X68616Y161097D01*
X68377Y160739D01*
X68293Y160316D01*
Y159295D01*
X68160D01*
X67616Y159187D01*
X67155Y158879D01*
X66847Y158418D01*
X66739Y157874D01*
Y156799D01*
X69341D01*
X71943D01*
Y157874D01*
X71835Y158418D01*
X71527Y158879D01*
X71066Y159187D01*
X70522Y159295D01*
X70501D01*
Y159847D01*
X70569Y159950D01*
X70653Y160372D01*
X70569Y160794D01*
X70330Y161153D01*
X69972Y161392D01*
X69549Y161476D01*
D02*
G37*
G36*
X71943Y155799D02*
X69841D01*
Y153303D01*
X70522D01*
X71066Y153412D01*
X71527Y153720D01*
X71835Y154181D01*
X71943Y154724D01*
Y155799D01*
D02*
G37*
G36*
X68841D02*
X66739D01*
Y154724D01*
X66847Y154181D01*
X67155Y153720D01*
X67616Y153412D01*
X68160Y153303D01*
X68841D01*
Y155799D01*
D02*
G37*
G36*
X97083Y155563D02*
X95402D01*
Y152071D01*
X97083D01*
Y155563D01*
D02*
G37*
G36*
X94402D02*
X92721D01*
Y152071D01*
X94402D01*
Y155563D01*
D02*
G37*
G36*
X127953Y162795D02*
X121063D01*
Y160441D01*
X121042Y160335D01*
Y159119D01*
X115460Y153536D01*
X115398Y153445D01*
X113819D01*
Y150492D01*
X117323D01*
Y152256D01*
X117328Y152283D01*
X122926Y157881D01*
X123166Y158239D01*
X123249Y158661D01*
Y159252D01*
X127953D01*
Y162795D01*
D02*
G37*
G36*
X97638Y148616D02*
X96563D01*
Y146513D01*
X99059D01*
Y147195D01*
X98951Y147738D01*
X98643Y148199D01*
X98182Y148507D01*
X97638Y148616D01*
D02*
G37*
G36*
X109016Y153445D02*
X105512D01*
Y150492D01*
X106160D01*
Y145910D01*
X104267Y144017D01*
X99325D01*
X98996Y144517D01*
X99059Y144832D01*
Y145513D01*
X96063D01*
Y146013D01*
X95563D01*
Y148616D01*
X94488D01*
X93944Y148507D01*
X93483Y148199D01*
X93175Y147738D01*
X93168Y147703D01*
X92659D01*
X92651Y147738D01*
X92343Y148199D01*
X91882Y148507D01*
X91339Y148616D01*
X90264D01*
Y146013D01*
Y143411D01*
X91339D01*
X91524Y143448D01*
X91770Y142987D01*
X90781Y141998D01*
X88189D01*
X87805Y141922D01*
X87479Y141704D01*
X87262Y141378D01*
X87186Y140995D01*
Y138632D01*
X87262Y138248D01*
X87479Y137923D01*
X87805Y137705D01*
X88189Y137629D01*
X88660D01*
Y134418D01*
X88189D01*
X87805Y134342D01*
X87479Y134125D01*
X87262Y133799D01*
X87186Y133415D01*
Y131053D01*
X87262Y130669D01*
X87479Y130343D01*
X87805Y130126D01*
X88189Y130049D01*
X91339D01*
X91723Y130126D01*
X92048Y130343D01*
X92266Y130669D01*
X92342Y131053D01*
Y133415D01*
X92266Y133799D01*
X92048Y134125D01*
X91723Y134342D01*
X91339Y134418D01*
X90868D01*
Y137629D01*
X91339D01*
X91723Y137705D01*
X92048Y137923D01*
X92266Y138248D01*
X92342Y138632D01*
Y140437D01*
X92995Y141090D01*
X93189Y141052D01*
X93485Y140872D01*
Y138632D01*
X93561Y138248D01*
X93779Y137923D01*
X94104Y137705D01*
X94488Y137629D01*
X94959D01*
Y134418D01*
X94488D01*
X94104Y134342D01*
X93779Y134125D01*
X93561Y133799D01*
X93485Y133415D01*
Y131053D01*
X93561Y130669D01*
X93779Y130343D01*
X94104Y130126D01*
X94488Y130049D01*
X97638D01*
X98022Y130126D01*
X98347Y130343D01*
X98565Y130669D01*
X98641Y131053D01*
Y133415D01*
X98565Y133799D01*
X98347Y134125D01*
X98022Y134342D01*
X97638Y134418D01*
X97167D01*
Y137629D01*
X97638D01*
X98022Y137705D01*
X98347Y137923D01*
X98565Y138248D01*
X98641Y138632D01*
Y138709D01*
X104906D01*
X105512Y138104D01*
Y136713D01*
X109016D01*
Y139665D01*
X107073D01*
X106144Y140594D01*
X105786Y140833D01*
X105364Y140917D01*
X98844D01*
X98615Y141406D01*
X98647Y141491D01*
X98878Y141809D01*
X104724D01*
X105147Y141893D01*
X105505Y142133D01*
X108044Y144672D01*
X108284Y145030D01*
X108368Y145453D01*
Y150492D01*
X109016D01*
Y153445D01*
D02*
G37*
G36*
X89264Y148616D02*
X88189D01*
X87645Y148507D01*
X87184Y148199D01*
X86876Y147738D01*
X86768Y147195D01*
Y147117D01*
X84302D01*
X83879Y147033D01*
X83521Y146794D01*
X83282Y146436D01*
X83198Y146013D01*
X83282Y145591D01*
X83521Y145233D01*
X83879Y144993D01*
X84302Y144910D01*
X86768D01*
Y144832D01*
X86876Y144289D01*
X87184Y143827D01*
X87645Y143519D01*
X88189Y143411D01*
X89264D01*
Y146013D01*
Y148616D01*
D02*
G37*
G36*
X127953Y143110D02*
X121063D01*
Y141128D01*
X119228Y139293D01*
X117323D01*
Y139665D01*
X113819D01*
Y136713D01*
X117323D01*
Y137085D01*
X119685D01*
X120107Y137169D01*
X120466Y137408D01*
X122624Y139567D01*
X127953D01*
Y143110D01*
D02*
G37*
G36*
X143856Y139370D02*
X143151D01*
X142500Y139100D01*
X142102Y138702D01*
X137205D01*
Y139370D01*
X130315D01*
Y135827D01*
X137205D01*
Y136495D01*
X142102D01*
X142500Y136097D01*
X143151Y135827D01*
X143856D01*
X144508Y136097D01*
X145006Y136595D01*
X145276Y137246D01*
Y137951D01*
X145006Y138602D01*
X144508Y139100D01*
X143856Y139370D01*
D02*
G37*
G36*
X68882Y143131D02*
X61713D01*
X61290Y143047D01*
X60932Y142808D01*
X59659Y141535D01*
X59096D01*
X58445Y141266D01*
X57947Y140767D01*
X57677Y140116D01*
Y139411D01*
X57947Y138760D01*
X58445Y138262D01*
X59096Y137992D01*
X59801D01*
X60452Y138262D01*
X60951Y138760D01*
X61221Y139411D01*
Y139974D01*
X62170Y140924D01*
X68425D01*
X70759Y138590D01*
X71117Y138350D01*
X71540Y138266D01*
X76551D01*
X76949Y137868D01*
X77600Y137598D01*
X78305D01*
X78956Y137868D01*
X79455Y138366D01*
X79724Y139018D01*
Y139723D01*
X79455Y140374D01*
X78956Y140872D01*
X78305Y141142D01*
X77600D01*
X76949Y140872D01*
X76551Y140474D01*
X71997D01*
X69663Y142808D01*
X69305Y143047D01*
X68882Y143131D01*
D02*
G37*
G36*
X6258Y140354D02*
X5553D01*
X4902Y140085D01*
X4404Y139586D01*
X4134Y138935D01*
Y138230D01*
X4404Y137579D01*
X4902Y137081D01*
X5553Y136811D01*
X6258D01*
X6909Y137081D01*
X7407Y137579D01*
X7677Y138230D01*
Y138935D01*
X7407Y139586D01*
X6909Y140085D01*
X6258Y140354D01*
D02*
G37*
G36*
X64370Y134960D02*
X60933D01*
Y130480D01*
X69284D01*
X69180Y131269D01*
X68682Y132470D01*
X67891Y133501D01*
X66860Y134293D01*
X65659Y134790D01*
X64370Y134960D01*
D02*
G37*
G36*
X39370D02*
X35933D01*
Y130480D01*
X44284D01*
X44180Y131269D01*
X43683Y132470D01*
X42891Y133501D01*
X41860Y134293D01*
X40659Y134790D01*
X39370Y134960D01*
D02*
G37*
G36*
X14370D02*
X10933D01*
Y130480D01*
X19284D01*
X19180Y131269D01*
X18683Y132470D01*
X17891Y133501D01*
X16860Y134293D01*
X15659Y134790D01*
X14370Y134960D01*
D02*
G37*
G36*
X59933D02*
X56496D01*
X55207Y134790D01*
X54006Y134293D01*
X52975Y133501D01*
X52184Y132470D01*
X51686Y131269D01*
X51582Y130480D01*
X59933D01*
Y134960D01*
D02*
G37*
G36*
X34933D02*
X31496D01*
X30207Y134790D01*
X29006Y134293D01*
X27975Y133501D01*
X27184Y132470D01*
X26686Y131269D01*
X26582Y130480D01*
X34933D01*
Y134960D01*
D02*
G37*
G36*
X9933D02*
X6496D01*
X5207Y134790D01*
X4006Y134293D01*
X2975Y133501D01*
X2184Y132470D01*
X1686Y131269D01*
X1582Y130480D01*
X9933D01*
Y134960D01*
D02*
G37*
G36*
X169095Y136221D02*
X158465D01*
Y129921D01*
X169095D01*
Y136221D01*
D02*
G37*
G36*
X69284Y129480D02*
X60933D01*
Y125001D01*
X64370D01*
X65659Y125170D01*
X66860Y125668D01*
X67891Y126459D01*
X68682Y127490D01*
X69180Y128691D01*
X69284Y129480D01*
D02*
G37*
G36*
X59933D02*
X51582D01*
X51686Y128691D01*
X52184Y127490D01*
X52975Y126459D01*
X54006Y125668D01*
X55207Y125170D01*
X56496Y125001D01*
X59933D01*
Y129480D01*
D02*
G37*
G36*
X44284D02*
X35933D01*
Y125001D01*
X39370D01*
X40659Y125170D01*
X41860Y125668D01*
X42891Y126459D01*
X43683Y127490D01*
X44180Y128691D01*
X44284Y129480D01*
D02*
G37*
G36*
X34933D02*
X26582D01*
X26686Y128691D01*
X27184Y127490D01*
X27975Y126459D01*
X29006Y125668D01*
X30207Y125170D01*
X31496Y125001D01*
X34933D01*
Y129480D01*
D02*
G37*
G36*
X19284D02*
X10933D01*
Y125001D01*
X14370D01*
X15659Y125170D01*
X16860Y125668D01*
X17891Y126459D01*
X18683Y127490D01*
X19180Y128691D01*
X19284Y129480D01*
D02*
G37*
G36*
X9933D02*
X1582D01*
X1686Y128691D01*
X2184Y127490D01*
X2975Y126459D01*
X4006Y125668D01*
X5207Y125170D01*
X6496Y125001D01*
X9933D01*
Y129480D01*
D02*
G37*
G36*
X170669Y122834D02*
X167232D01*
Y118354D01*
X175583D01*
X175479Y119143D01*
X174982Y120344D01*
X174190Y121376D01*
X173159Y122167D01*
X171958Y122664D01*
X170669Y122834D01*
D02*
G37*
G36*
X166232D02*
X162795D01*
X161506Y122664D01*
X160306Y122167D01*
X159274Y121376D01*
X158483Y120344D01*
X157985Y119143D01*
X157881Y118354D01*
X166232D01*
Y122834D01*
D02*
G37*
G36*
X175583Y117354D02*
X167232D01*
Y112875D01*
X170669D01*
X171958Y113044D01*
X173159Y113542D01*
X174190Y114333D01*
X174982Y115365D01*
X175479Y116566D01*
X175583Y117354D01*
D02*
G37*
G36*
X166232D02*
X157881D01*
X157985Y116566D01*
X158483Y115365D01*
X159274Y114333D01*
X160306Y113542D01*
X161506Y113044D01*
X162795Y112875D01*
X166232D01*
Y117354D01*
D02*
G37*
G36*
X150583D02*
X142232D01*
Y112875D01*
X145669D01*
X146958Y113044D01*
X148159Y113542D01*
X149190Y114333D01*
X149982Y115365D01*
X150479Y116566D01*
X150583Y117354D01*
D02*
G37*
G36*
X141232D02*
X132881D01*
X132985Y116566D01*
X133483Y115365D01*
X134274Y114333D01*
X135306Y113542D01*
X136506Y113044D01*
X137795Y112875D01*
X141232D01*
Y117354D01*
D02*
G37*
G36*
X18701Y117913D02*
X8071D01*
Y111614D01*
X18701D01*
Y117913D01*
D02*
G37*
G36*
X36531Y101886D02*
X30224D01*
Y98138D01*
X36531D01*
Y101886D01*
D02*
G37*
G36*
X99171Y100984D02*
X98466D01*
X97815Y100715D01*
X97317Y100216D01*
X97047Y99565D01*
Y98860D01*
X97317Y98209D01*
X97815Y97711D01*
X98466Y97441D01*
X99171D01*
X99822Y97711D01*
X100321Y98209D01*
X100591Y98860D01*
Y99565D01*
X100321Y100216D01*
X99822Y100715D01*
X99171Y100984D01*
D02*
G37*
G36*
X159843Y106299D02*
X141732D01*
Y96063D01*
X159843D01*
Y106299D01*
D02*
G37*
G36*
X47638Y112424D02*
X46970Y112336D01*
X46347Y112078D01*
X45813Y111668D01*
X45403Y111133D01*
X45145Y110511D01*
X45057Y109843D01*
Y101476D01*
X41240D01*
Y93799D01*
X54035D01*
Y98750D01*
X54042Y98798D01*
X54852Y99608D01*
X58708D01*
Y98598D01*
X66489D01*
Y99608D01*
X68888D01*
X70056Y98439D01*
Y96826D01*
X70146Y96374D01*
X70402Y95992D01*
X70784Y95736D01*
X71235Y95647D01*
X76009D01*
X76460Y95736D01*
X76843Y95992D01*
X77098Y96374D01*
X77188Y96826D01*
Y100222D01*
X77098Y100673D01*
X76843Y101055D01*
X76460Y101311D01*
X76009Y101401D01*
X74395D01*
X71782Y104014D01*
X71247Y104424D01*
X70625Y104682D01*
X69957Y104770D01*
X66489D01*
Y105780D01*
X58708D01*
Y104770D01*
X53783D01*
X53115Y104682D01*
X52492Y104424D01*
X51957Y104014D01*
X50681Y102737D01*
X50219Y102929D01*
Y109843D01*
X50131Y110511D01*
X49873Y111133D01*
X49463Y111668D01*
X48928Y112078D01*
X48306Y112336D01*
X47638Y112424D01*
D02*
G37*
G36*
X36531Y97138D02*
X30224D01*
Y93390D01*
X36531D01*
Y97138D01*
D02*
G37*
G36*
X29224Y101886D02*
X22917D01*
Y98742D01*
X20079D01*
X19656Y98658D01*
X19298Y98418D01*
X19059Y98060D01*
X18975Y97638D01*
X19059Y97215D01*
X19298Y96857D01*
X19656Y96618D01*
X20079Y96534D01*
X22917D01*
Y93390D01*
X29224D01*
Y97638D01*
Y101886D01*
D02*
G37*
G36*
X66898Y92189D02*
X63098D01*
Y88689D01*
X66898D01*
Y92189D01*
D02*
G37*
G36*
X62098D02*
X58298D01*
Y88689D01*
X62098D01*
Y92189D01*
D02*
G37*
G36*
Y87689D02*
X58298D01*
Y84189D01*
X62098D01*
Y87689D01*
D02*
G37*
G36*
X144504Y93126D02*
X139476D01*
Y83177D01*
X144504D01*
Y93126D01*
D02*
G37*
G36*
X138476D02*
X133449D01*
Y83177D01*
X138476D01*
Y93126D01*
D02*
G37*
G36*
X66898Y87689D02*
X63098D01*
Y84189D01*
X65337D01*
X66652Y82875D01*
X66697Y82648D01*
X66936Y82290D01*
X67294Y82051D01*
X67716Y81967D01*
X68139Y82051D01*
X68497Y82290D01*
X68736Y82648D01*
X68820Y83071D01*
Y83371D01*
X68736Y83793D01*
X68497Y84151D01*
X66898Y85750D01*
Y87689D01*
D02*
G37*
G36*
X76009Y93330D02*
X71235D01*
X70784Y93240D01*
X70402Y92984D01*
X70146Y92602D01*
X70056Y92151D01*
Y88755D01*
X70146Y88304D01*
X70402Y87921D01*
X70784Y87665D01*
X71041Y87614D01*
Y84252D01*
X71129Y83584D01*
X71387Y82961D01*
X71797Y82427D01*
X72332Y82017D01*
X72954Y81759D01*
X73622Y81671D01*
X74290Y81759D01*
X74913Y82017D01*
X75447Y82427D01*
X75857Y82961D01*
X76115Y83584D01*
X76203Y84252D01*
Y87614D01*
X76460Y87665D01*
X76843Y87921D01*
X77098Y88304D01*
X77188Y88755D01*
Y92151D01*
X77098Y92602D01*
X76843Y92984D01*
X76460Y93240D01*
X76009Y93330D01*
D02*
G37*
G36*
X126337Y83268D02*
X125632D01*
X124981Y82998D01*
X124482Y82500D01*
X124213Y81849D01*
Y81144D01*
X124482Y80493D01*
X124981Y79994D01*
X125632Y79724D01*
X126337D01*
X126988Y79994D01*
X127486Y80493D01*
X127756Y81144D01*
Y81849D01*
X127486Y82500D01*
X126988Y82998D01*
X126337Y83268D01*
D02*
G37*
G36*
X18701Y84449D02*
X8071D01*
Y78150D01*
X18701D01*
Y84449D01*
D02*
G37*
G36*
X126337Y78150D02*
X125632D01*
X124981Y77880D01*
X124482Y77381D01*
X124213Y76730D01*
Y76025D01*
X124482Y75374D01*
X124981Y74876D01*
X125632Y74606D01*
X126337D01*
X126988Y74876D01*
X127486Y75374D01*
X127756Y76025D01*
Y76730D01*
X127486Y77381D01*
X126988Y77880D01*
X126337Y78150D01*
D02*
G37*
G36*
X167717Y91732D02*
X157480D01*
Y73622D01*
X167717D01*
Y91732D01*
D02*
G37*
G36*
X144504Y82177D02*
X139476D01*
Y72228D01*
X144504D01*
Y82177D01*
D02*
G37*
G36*
X138476D02*
X133449D01*
Y72228D01*
X138476D01*
Y82177D01*
D02*
G37*
G36*
X39370Y71062D02*
X35933D01*
Y66583D01*
X44284D01*
X44180Y67371D01*
X43683Y68572D01*
X42891Y69604D01*
X41860Y70395D01*
X40659Y70893D01*
X39370Y71062D01*
D02*
G37*
G36*
X17339Y71020D02*
X10933D01*
Y66583D01*
X17339D01*
Y71020D01*
D02*
G37*
G36*
X9933D02*
X3528D01*
Y66583D01*
X9933D01*
Y71020D01*
D02*
G37*
G36*
X34933Y71062D02*
X31496D01*
X30207Y70893D01*
X29006Y70395D01*
X27975Y69604D01*
X27184Y68572D01*
X26686Y67371D01*
X26582Y66583D01*
X34933D01*
Y71062D01*
D02*
G37*
G36*
X91339Y128218D02*
X88189D01*
X87805Y128142D01*
X87479Y127925D01*
X87262Y127599D01*
X87186Y127215D01*
Y124853D01*
X87262Y124469D01*
X87479Y124143D01*
X87805Y123926D01*
X88189Y123849D01*
X89841D01*
Y82347D01*
X69661Y62167D01*
X67482D01*
X67321Y62640D01*
X67599Y62854D01*
X68325Y63799D01*
X68781Y64901D01*
X68937Y66083D01*
X68781Y67265D01*
X68325Y68366D01*
X67599Y69312D01*
X66653Y70038D01*
X65552Y70494D01*
X64370Y70649D01*
X56496D01*
X55314Y70494D01*
X54213Y70038D01*
X53267Y69312D01*
X52541Y68366D01*
X52085Y67265D01*
X51929Y66083D01*
X52085Y64901D01*
X52541Y63799D01*
X53267Y62854D01*
X53545Y62640D01*
X53384Y62167D01*
X44291D01*
X43869Y62083D01*
X43511Y61844D01*
X32337Y50669D01*
X30433D01*
Y43504D01*
X31120D01*
Y42287D01*
X30781Y41948D01*
X30512Y41297D01*
Y40593D01*
X30781Y39941D01*
X31280Y39443D01*
X31931Y39173D01*
X32636D01*
X33287Y39443D01*
X33785Y39941D01*
X34055Y40593D01*
Y41297D01*
X33785Y41948D01*
X33328Y42406D01*
Y43504D01*
X33898D01*
Y49108D01*
X34562Y49772D01*
X35024Y49581D01*
Y47587D01*
X36665D01*
Y51079D01*
X36522D01*
X36330Y51541D01*
X44749Y59959D01*
X70118D01*
X70540Y60043D01*
X70899Y60282D01*
X91725Y81109D01*
X91965Y81467D01*
X92049Y81890D01*
Y124144D01*
X92266Y124469D01*
X92342Y124853D01*
Y127215D01*
X92266Y127599D01*
X92048Y127925D01*
X91723Y128142D01*
X91339Y128218D01*
D02*
G37*
G36*
X17339Y65583D02*
X10933D01*
Y61146D01*
X17339D01*
Y65583D01*
D02*
G37*
G36*
X9933D02*
X3528D01*
Y61146D01*
X9933D01*
Y65583D01*
D02*
G37*
G36*
X44284D02*
X35933D01*
Y61103D01*
X39370D01*
X40659Y61273D01*
X41860Y61770D01*
X42891Y62562D01*
X43683Y63593D01*
X44180Y64794D01*
X44284Y65583D01*
D02*
G37*
G36*
X34933D02*
X26582D01*
X26686Y64794D01*
X27184Y63593D01*
X27975Y62562D01*
X29006Y61770D01*
X30207Y61273D01*
X31496Y61103D01*
X34933D01*
Y65583D01*
D02*
G37*
G36*
X41665Y51079D02*
X40024D01*
Y48191D01*
X39307D01*
Y51079D01*
X37665D01*
Y47087D01*
Y43095D01*
X39307D01*
Y45983D01*
X40024D01*
Y43095D01*
X41061D01*
Y41674D01*
X41022Y41476D01*
X41106Y41054D01*
X41345Y40696D01*
X41385Y40657D01*
X41743Y40417D01*
X42165Y40333D01*
X42588Y40417D01*
X42946Y40657D01*
X43185Y41015D01*
X43269Y41437D01*
Y43095D01*
X44307D01*
Y46587D01*
X42165D01*
Y47087D01*
X41665D01*
Y51079D01*
D02*
G37*
G36*
X44307D02*
X42665D01*
Y47587D01*
X44307D01*
Y51079D01*
D02*
G37*
G36*
X2602Y46694D02*
X106D01*
Y44592D01*
X1181D01*
X1725Y44701D01*
X2186Y45009D01*
X2494Y45470D01*
X2602Y46013D01*
Y46694D01*
D02*
G37*
G36*
X21772Y55435D02*
X7874D01*
X7452Y55351D01*
X7094Y55111D01*
X5715Y53733D01*
X5476Y53375D01*
X5392Y52953D01*
Y49526D01*
X4921D01*
X4537Y49450D01*
X4212Y49232D01*
X3994Y48907D01*
X3918Y48523D01*
Y46161D01*
X3994Y45777D01*
X4212Y45451D01*
X4537Y45234D01*
X4921Y45157D01*
X8071D01*
X8455Y45234D01*
X8781Y45451D01*
X8998Y45777D01*
X9074Y46161D01*
Y48523D01*
X8998Y48907D01*
X8781Y49232D01*
X8455Y49450D01*
X8071Y49526D01*
X7600D01*
Y52495D01*
X8331Y53227D01*
X21314D01*
X23410Y51131D01*
X23219Y50669D01*
X20433D01*
Y43504D01*
X21061D01*
Y39945D01*
X16385Y35269D01*
X16146Y34911D01*
X16061Y34488D01*
Y28937D01*
X15433D01*
Y21772D01*
X16061D01*
Y19105D01*
X16146Y18682D01*
X16385Y18324D01*
X18731Y15978D01*
Y13386D01*
X18808Y13002D01*
X18810Y12998D01*
X18543Y12498D01*
X16708D01*
X16097Y12376D01*
X15579Y12030D01*
X15233Y11512D01*
X15111Y10901D01*
Y9618D01*
X12746D01*
X12323Y9534D01*
X11965Y9295D01*
X11726Y8937D01*
X11642Y8514D01*
X11726Y8092D01*
X11965Y7734D01*
X12323Y7494D01*
X12746Y7410D01*
X15111D01*
Y6127D01*
X15233Y5516D01*
X15579Y4998D01*
X16097Y4652D01*
X16708Y4531D01*
X17906D01*
Y8514D01*
X18406D01*
Y9014D01*
X21700D01*
Y10901D01*
X21578Y11512D01*
X21331Y11882D01*
X21523Y12350D01*
X21553Y12382D01*
X22097D01*
X22481Y12459D01*
X22806Y12676D01*
X23024Y13002D01*
X23100Y13386D01*
Y16535D01*
X23024Y16919D01*
X22806Y17245D01*
X22481Y17463D01*
X22097Y17539D01*
X20292D01*
X18269Y19562D01*
Y21772D01*
X18898D01*
Y28937D01*
X18269D01*
Y34031D01*
X22946Y38708D01*
X23185Y39066D01*
X23269Y39488D01*
Y43504D01*
X23898D01*
Y49990D01*
X24360Y50182D01*
X25433Y49108D01*
Y43504D01*
X28898D01*
Y50669D01*
X26994D01*
X22552Y55111D01*
X22194Y55351D01*
X21772Y55435D01*
D02*
G37*
G36*
X36665Y46587D02*
X35024D01*
Y43095D01*
X36665D01*
Y46587D01*
D02*
G37*
G36*
X13898Y50669D02*
X10433D01*
Y43504D01*
X10962D01*
X10996Y43004D01*
X10582Y42590D01*
X10312Y41938D01*
Y41234D01*
X10582Y40582D01*
X11080Y40084D01*
X11732Y39814D01*
X12436D01*
X13088Y40084D01*
X13586Y40582D01*
X13856Y41234D01*
Y41938D01*
X13586Y42590D01*
X13229Y42947D01*
Y43504D01*
X13898D01*
Y50669D01*
D02*
G37*
G36*
X112998Y48228D02*
X111805D01*
X110654Y47920D01*
X109622Y47324D01*
X108779Y46481D01*
X108183Y45448D01*
X107874Y44297D01*
Y43105D01*
X108183Y41953D01*
X108779Y40921D01*
X109622Y40078D01*
X110654Y39482D01*
X111805Y39173D01*
X112998D01*
X114149Y39482D01*
X115182Y40078D01*
X116024Y40921D01*
X116621Y41953D01*
X116929Y43105D01*
Y44297D01*
X116621Y45448D01*
X116024Y46481D01*
X115182Y47324D01*
X114149Y47920D01*
X112998Y48228D01*
D02*
G37*
G36*
X63785D02*
X62593D01*
X61441Y47920D01*
X60409Y47324D01*
X59566Y46481D01*
X58970Y45448D01*
X58661Y44297D01*
Y43105D01*
X58970Y41953D01*
X59566Y40921D01*
X60409Y40078D01*
X61441Y39482D01*
X62593Y39173D01*
X63785D01*
X64937Y39482D01*
X65969Y40078D01*
X66812Y40921D01*
X67408Y41953D01*
X67716Y43105D01*
Y44297D01*
X67408Y45448D01*
X66812Y46481D01*
X65969Y47324D01*
X64937Y47920D01*
X63785Y48228D01*
D02*
G37*
G36*
X18898Y50669D02*
X15433D01*
Y43504D01*
X16140D01*
Y42268D01*
X15821Y41948D01*
X15551Y41297D01*
Y40593D01*
X15821Y39941D01*
X16319Y39443D01*
X16970Y39173D01*
X17675D01*
X18326Y39443D01*
X18825Y39941D01*
X19094Y40593D01*
Y41297D01*
X18825Y41948D01*
X18348Y42425D01*
Y43504D01*
X18898D01*
Y50669D01*
D02*
G37*
G36*
X90395Y36067D02*
X89714D01*
X89170Y35958D01*
X88709Y35651D01*
X88401Y35190D01*
X88293Y34646D01*
Y33571D01*
X90395D01*
Y36067D01*
D02*
G37*
G36*
X85876Y35649D02*
X83514D01*
X83130Y35573D01*
X82805Y35355D01*
X82587Y35030D01*
X82511Y34646D01*
Y31496D01*
X82587Y31112D01*
X82805Y30786D01*
X83130Y30569D01*
X83514Y30492D01*
X83567D01*
Y29744D01*
X83465D01*
X83081Y29667D01*
X82755Y29450D01*
X82537Y29124D01*
X82461Y28740D01*
Y28269D01*
X67695D01*
X67273Y28185D01*
X66914Y27946D01*
X66288Y27320D01*
X65969Y27639D01*
X64937Y28235D01*
X63785Y28543D01*
X62593D01*
X61441Y28235D01*
X60409Y27639D01*
X59566Y26796D01*
X58970Y25763D01*
X58661Y24612D01*
Y23420D01*
X58970Y22268D01*
X59566Y21236D01*
X60409Y20393D01*
X61441Y19797D01*
X62593Y19488D01*
X63785D01*
X64937Y19797D01*
X65969Y20393D01*
X66812Y21236D01*
X67408Y22268D01*
X67716Y23420D01*
Y24612D01*
X67502Y25411D01*
X68152Y26061D01*
X82461D01*
Y25591D01*
X82537Y25207D01*
X82755Y24881D01*
X83081Y24663D01*
X83465Y24587D01*
X85827D01*
X86211Y24663D01*
X86536Y24881D01*
X86754Y25207D01*
X86830Y25591D01*
Y28740D01*
X86754Y29124D01*
X86536Y29450D01*
X86211Y29667D01*
X85827Y29744D01*
X85774D01*
Y30492D01*
X85876D01*
X86260Y30569D01*
X86586Y30786D01*
X86804Y31112D01*
X86880Y31496D01*
Y34646D01*
X86804Y35030D01*
X86586Y35355D01*
X86260Y35573D01*
X85876Y35649D01*
D02*
G37*
G36*
X13898Y28937D02*
X10433D01*
Y26960D01*
X8470D01*
X8069Y27126D01*
X7364D01*
X6713Y26856D01*
X6215Y26358D01*
X5945Y25707D01*
Y25002D01*
X6215Y24351D01*
X6713Y23852D01*
X7364Y23583D01*
X8069D01*
X8470Y23749D01*
X10433D01*
Y21772D01*
X13898D01*
Y28937D01*
D02*
G37*
G36*
X27165Y31419D02*
X26743Y31335D01*
X26385Y31095D01*
X26145Y30737D01*
X26061Y30315D01*
Y29346D01*
X25024D01*
Y25854D01*
X27165D01*
X29307D01*
Y29346D01*
X28269D01*
Y30315D01*
X28185Y30737D01*
X27946Y31095D01*
X27588Y31335D01*
X27165Y31419D01*
D02*
G37*
G36*
X37165Y31576D02*
X36743Y31492D01*
X36385Y31253D01*
X36145Y30895D01*
X36061Y30472D01*
Y29346D01*
X35024D01*
Y25854D01*
X37165D01*
X39307D01*
Y29346D01*
X38269D01*
Y30472D01*
X38185Y30895D01*
X37946Y31253D01*
X37588Y31492D01*
X37165Y31576D01*
D02*
G37*
G36*
X23898Y28937D02*
X20433D01*
Y21772D01*
X23898D01*
Y28937D01*
D02*
G37*
G36*
X39307Y24854D02*
X37665D01*
Y21362D01*
X39307D01*
Y24854D01*
D02*
G37*
G36*
X36665D02*
X35024D01*
Y21362D01*
X36665D01*
Y24854D01*
D02*
G37*
G36*
X29307D02*
X27665D01*
Y21362D01*
X29307D01*
Y24854D01*
D02*
G37*
G36*
X26665D02*
X25024D01*
Y21362D01*
X26665D01*
Y24854D01*
D02*
G37*
G36*
X92076Y36067D02*
X91395D01*
Y33071D01*
X90895D01*
Y32571D01*
X88293D01*
Y31496D01*
X88401Y30952D01*
X88709Y30491D01*
X89170Y30183D01*
X89241Y30169D01*
X89275Y29737D01*
X89262Y29655D01*
X88955Y29450D01*
X88737Y29124D01*
X88661Y28740D01*
Y25591D01*
X88737Y25207D01*
X88955Y24881D01*
X89281Y24663D01*
X89665Y24587D01*
X91469D01*
X93384Y22672D01*
Y21820D01*
X92913D01*
X92529Y21744D01*
X92204Y21526D01*
X91986Y21201D01*
X91910Y20817D01*
Y20739D01*
X91023D01*
X90410Y21351D01*
X90052Y21591D01*
X89630Y21675D01*
X85961D01*
X85538Y21591D01*
X85180Y21351D01*
X84568Y20739D01*
X83287D01*
Y20817D01*
X83211Y21201D01*
X82993Y21526D01*
X82667Y21744D01*
X82284Y21820D01*
X79134D01*
X78750Y21744D01*
X78424Y21526D01*
X78207Y21201D01*
X78130Y20817D01*
Y18454D01*
X78207Y18070D01*
X78424Y17745D01*
X78750Y17527D01*
X79134Y17451D01*
X82284D01*
X82667Y17527D01*
X82993Y17745D01*
X83211Y18070D01*
X83287Y18454D01*
Y18531D01*
X84129D01*
X84379Y18099D01*
X84127Y17661D01*
X83858Y16660D01*
Y15623D01*
X84127Y14622D01*
X84645Y13724D01*
X85378Y12991D01*
X86276Y12473D01*
X87277Y12205D01*
X88314D01*
X89315Y12473D01*
X90213Y12991D01*
X90946Y13724D01*
X90992Y13805D01*
X91492Y13671D01*
Y12254D01*
X91601Y11710D01*
X91909Y11249D01*
X92370Y10942D01*
X92913Y10833D01*
X93988D01*
Y13435D01*
Y16037D01*
X92913D01*
X92370Y15929D01*
X92232Y15838D01*
X91732Y16105D01*
Y16660D01*
X91464Y17661D01*
X91263Y18010D01*
X91514Y18449D01*
X91794Y18453D01*
X91914Y18432D01*
X91986Y18070D01*
X92204Y17745D01*
X92529Y17527D01*
X92913Y17451D01*
X96063D01*
X96447Y17527D01*
X96773Y17745D01*
X96990Y18070D01*
X97066Y18454D01*
Y20817D01*
X96990Y21201D01*
X96773Y21526D01*
X96447Y21744D01*
X96063Y21820D01*
X95592D01*
Y23129D01*
X95508Y23552D01*
X95269Y23910D01*
X93030Y26148D01*
Y28740D01*
X92954Y29124D01*
X92736Y29450D01*
X92452Y29640D01*
X92436Y29804D01*
X92500Y30159D01*
X92620Y30183D01*
X93081Y30491D01*
X93389Y30952D01*
X93497Y31496D01*
Y31967D01*
X94882D01*
X95304Y32051D01*
X95662Y32290D01*
X95902Y32648D01*
X95986Y33071D01*
X95902Y33493D01*
X95662Y33851D01*
X95304Y34091D01*
X94882Y34175D01*
X93497D01*
Y34646D01*
X93389Y35190D01*
X93081Y35651D01*
X92620Y35958D01*
X92076Y36067D01*
D02*
G37*
G36*
X112998Y28543D02*
X111805D01*
X110654Y28235D01*
X109622Y27639D01*
X108779Y26796D01*
X108183Y25763D01*
X107874Y24612D01*
Y23420D01*
X108183Y22268D01*
X108779Y21236D01*
X109622Y20393D01*
X110654Y19797D01*
X111805Y19488D01*
X112998D01*
X114149Y19797D01*
X115182Y20393D01*
X116024Y21236D01*
X116621Y22268D01*
X116929Y23420D01*
Y24612D01*
X116621Y25763D01*
X116024Y26796D01*
X115182Y27639D01*
X114149Y28235D01*
X112998Y28543D01*
D02*
G37*
G36*
X33898Y28937D02*
X30433D01*
Y21772D01*
X31711D01*
Y21072D01*
X31795Y20650D01*
X32034Y20292D01*
X37732Y14594D01*
X37449Y14170D01*
X36967Y14370D01*
X36262D01*
X35611Y14100D01*
X35112Y13602D01*
X34843Y12951D01*
Y12246D01*
X35112Y11595D01*
X35611Y11096D01*
X36262Y10827D01*
X36967D01*
X37618Y11096D01*
X38025Y11504D01*
X38459Y11534D01*
X38620Y11506D01*
X38660Y11445D01*
X38986Y11228D01*
X39370Y11152D01*
X42520D01*
X42904Y11228D01*
X43229Y11445D01*
X43447Y11771D01*
X43523Y12155D01*
Y14517D01*
X43447Y14901D01*
X43229Y15227D01*
X42904Y15445D01*
X42520Y15521D01*
X39928D01*
X33919Y21530D01*
Y24705D01*
X33898Y24811D01*
Y28937D01*
D02*
G37*
G36*
X43898D02*
X40433D01*
Y21772D01*
X42336D01*
X51453Y12655D01*
X51811Y12416D01*
X52234Y12332D01*
X78130D01*
Y12254D01*
X78207Y11870D01*
X78424Y11545D01*
X78750Y11327D01*
X79134Y11251D01*
X82284D01*
X82667Y11327D01*
X82993Y11545D01*
X83211Y11870D01*
X83287Y12254D01*
Y14616D01*
X83211Y15001D01*
X82993Y15326D01*
X82667Y15544D01*
X82284Y15620D01*
X79134D01*
X78750Y15544D01*
X78424Y15326D01*
X78207Y15001D01*
X78130Y14616D01*
Y14539D01*
X52691D01*
X43898Y23333D01*
Y28937D01*
D02*
G37*
G36*
X96063Y16037D02*
X94988D01*
Y13435D01*
Y10833D01*
X96063D01*
X96607Y10942D01*
X97068Y11249D01*
X97376Y11710D01*
X97484Y12254D01*
Y12332D01*
X98769D01*
X99192Y12416D01*
X99550Y12655D01*
X99789Y13013D01*
X99873Y13435D01*
X99789Y13858D01*
X99550Y14216D01*
X99192Y14455D01*
X98769Y14539D01*
X97484D01*
Y14616D01*
X97376Y15160D01*
X97068Y15621D01*
X96607Y15929D01*
X96063Y16037D01*
D02*
G37*
G36*
X28297Y17539D02*
X25935D01*
X25551Y17463D01*
X25225Y17245D01*
X25008Y16919D01*
X24931Y16535D01*
Y13386D01*
X25008Y13002D01*
X25225Y12676D01*
X25369Y12580D01*
X25217Y12080D01*
X24779D01*
X24327Y11990D01*
X23945Y11735D01*
X23689Y11352D01*
X23599Y10901D01*
Y6127D01*
X23689Y5676D01*
X23945Y5294D01*
X24327Y5038D01*
X24779Y4948D01*
X28174D01*
X28626Y5038D01*
X29008Y5294D01*
X29264Y5676D01*
X29335Y6032D01*
X38367D01*
Y5955D01*
X38443Y5571D01*
X38660Y5246D01*
X38986Y5028D01*
X39370Y4952D01*
X42520D01*
X42904Y5028D01*
X43229Y5246D01*
X43447Y5571D01*
X43523Y5955D01*
Y8317D01*
X43447Y8701D01*
X43229Y9027D01*
X42904Y9245D01*
X42520Y9321D01*
X39370D01*
X38986Y9245D01*
X38660Y9027D01*
X38443Y8701D01*
X38367Y8317D01*
Y8240D01*
X29353D01*
Y10901D01*
X29264Y11352D01*
X29008Y11735D01*
X28686Y11950D01*
X28671Y12238D01*
X28716Y12482D01*
X29006Y12676D01*
X29224Y13002D01*
X29300Y13386D01*
Y16535D01*
X29224Y16919D01*
X29006Y17245D01*
X28681Y17463D01*
X28297Y17539D01*
D02*
G37*
G36*
X21700Y8014D02*
X18905D01*
Y4531D01*
X20103D01*
X20714Y4652D01*
X21232Y4998D01*
X21578Y5516D01*
X21700Y6127D01*
Y8014D01*
D02*
G37*
G36*
X149237Y20495D02*
X145842D01*
X145390Y20405D01*
X145008Y20150D01*
X144752Y19767D01*
X144662Y19316D01*
Y18393D01*
X144162Y18186D01*
X143917Y18431D01*
X143266Y18701D01*
X142561D01*
X141910Y18431D01*
X141411Y17933D01*
X141142Y17281D01*
Y16577D01*
X141411Y15926D01*
X141910Y15427D01*
X142561Y15157D01*
X143266D01*
X143917Y15427D01*
X144162Y15673D01*
X144662Y15465D01*
Y14542D01*
X144752Y14091D01*
X145008Y13709D01*
X145390Y13453D01*
X145842Y13363D01*
X149237D01*
X149688Y13453D01*
X150071Y13709D01*
X150327Y14091D01*
X150416Y14542D01*
Y19316D01*
X150327Y19767D01*
X150071Y20150D01*
X149688Y20405D01*
X149237Y20495D01*
D02*
G37*
%LPD*%
D19*
X94488Y200689D02*
D03*
Y208760D02*
D03*
X138189Y31594D02*
D03*
Y23524D02*
D03*
X131102Y23524D02*
D03*
Y31594D02*
D03*
X73622Y90453D02*
D03*
Y98524D02*
D03*
D20*
X62598Y88189D02*
D03*
Y102189D02*
D03*
D23*
X94902Y156063D02*
D03*
X89902D02*
D03*
X84902D02*
D03*
X79902D02*
D03*
X94902Y177795D02*
D03*
X89902D02*
D03*
X84902D02*
D03*
X79902D02*
D03*
D25*
X168011Y42913D02*
D03*
X161811D02*
D03*
X113042Y315354D02*
D03*
X119242D02*
D03*
X118848Y326378D02*
D03*
X112648D02*
D03*
X78690Y362598D02*
D03*
X72491D02*
D03*
X108268Y326378D02*
D03*
X102068D02*
D03*
X102018Y315354D02*
D03*
X108218D02*
D03*
X90895Y33071D02*
D03*
X84695D02*
D03*
X20916Y14961D02*
D03*
X27116D02*
D03*
X90846Y27165D02*
D03*
X84646D02*
D03*
X75541Y156299D02*
D03*
X69341D02*
D03*
X88239Y184646D02*
D03*
X94439D02*
D03*
X86270Y362205D02*
D03*
X92470D02*
D03*
D26*
X66142Y356349D02*
D03*
Y362549D02*
D03*
X63779Y336664D02*
D03*
Y342864D02*
D03*
X62205Y171309D02*
D03*
Y177509D02*
D03*
X87008Y325147D02*
D03*
Y318947D02*
D03*
X97244Y361861D02*
D03*
Y368061D02*
D03*
X163386Y251231D02*
D03*
Y257431D02*
D03*
X164173Y292470D02*
D03*
Y286270D02*
D03*
X96063Y132234D02*
D03*
Y126034D02*
D03*
X68110Y177509D02*
D03*
Y171309D02*
D03*
X89764Y132234D02*
D03*
Y126034D02*
D03*
X80709Y19635D02*
D03*
Y13435D02*
D03*
X40945Y13336D02*
D03*
Y7136D02*
D03*
X94488Y19635D02*
D03*
Y13435D02*
D03*
X6496Y41142D02*
D03*
Y47342D02*
D03*
X-394Y40995D02*
D03*
Y47194D02*
D03*
X92520Y318947D02*
D03*
Y325147D02*
D03*
X96063Y139813D02*
D03*
Y146013D02*
D03*
X89764D02*
D03*
Y139813D02*
D03*
X144488Y32234D02*
D03*
Y26034D02*
D03*
D27*
X170571Y51181D02*
D03*
X162500D02*
D03*
X172933Y34646D02*
D03*
X164862D02*
D03*
X147539Y16929D02*
D03*
X155610D02*
D03*
X18406Y8514D02*
D03*
X26476D02*
D03*
D28*
X133760Y145079D02*
D03*
Y137598D02*
D03*
X124508Y141339D02*
D03*
X133760Y164764D02*
D03*
Y157283D02*
D03*
X124508Y161024D02*
D03*
D30*
X82500Y324016D02*
D03*
X74193D02*
D03*
X106476Y366929D02*
D03*
X114784D02*
D03*
X107264Y138189D02*
D03*
X115571D02*
D03*
X107264Y151969D02*
D03*
X115571D02*
D03*
D34*
X131201Y255906D02*
D03*
X149114D02*
D03*
X47638Y97638D02*
D03*
X29724D02*
D03*
D69*
X124648Y114794D02*
G03*
X124685Y114843I-3979J3060D01*
G01*
X123681Y113839D02*
G03*
X124648Y114794I-3012J4016D01*
G01*
X84898Y54925D02*
G03*
X84445Y54472I2897J-3350D01*
G01*
X108218Y311368D02*
Y315354D01*
X113042Y308317D02*
Y315354D01*
X176378Y54331D02*
Y58268D01*
X170571Y51266D02*
X172337Y53031D01*
X170571Y51181D02*
Y51266D01*
X172337Y53031D02*
X175079D01*
X176378Y54331D01*
X168011Y47892D02*
X170571Y50452D01*
X168011Y42913D02*
Y47892D01*
X170571Y50452D02*
Y51181D01*
X153150Y25984D02*
Y31594D01*
X126476Y23524D02*
X131102D01*
X142913Y16929D02*
X147539D01*
X117717Y212992D02*
X125984D01*
X114173Y196063D02*
Y209449D01*
X117717Y212992D01*
X101969Y183858D02*
X114173Y196063D01*
X101969Y175591D02*
Y183858D01*
X99213Y172835D02*
X101969Y175591D01*
X93051Y172835D02*
X99213D01*
X89902Y175984D02*
X93051Y172835D01*
X89902Y175984D02*
Y177795D01*
X97349Y87507D02*
X123681Y113839D01*
X97349Y78110D02*
Y87507D01*
X95794Y126034D02*
X96063D01*
X94711Y124951D02*
X95794Y126034D01*
X94711Y64738D02*
Y124951D01*
X84898Y54925D02*
X94711Y64738D01*
X-161Y191339D02*
X787D01*
X-197Y191374D02*
X-161Y191339D01*
X787D02*
X47244Y144882D01*
X59449Y139764D02*
X61713Y142028D01*
X124685Y114843D02*
X132717Y122874D01*
X142113D01*
X153150Y133911D01*
X68110Y171309D02*
X68558Y170862D01*
X79779D01*
X62205Y171309D02*
X68110D01*
X21260Y198425D02*
X54921Y164764D01*
X132087D01*
X94902Y156063D02*
Y162500D01*
X89764Y139813D02*
X90158D01*
X93257Y142913D01*
X104724D01*
X107264Y145453D01*
Y151969D01*
X105364Y139813D02*
X106988Y138189D01*
X96063Y139813D02*
X105364D01*
X106988Y138189D02*
X107264D01*
X96063Y132234D02*
Y139813D01*
X89764Y132234D02*
Y139813D01*
X68110Y312598D02*
X70866Y315354D01*
X84646D01*
X122491Y126034D02*
X125984Y129528D01*
X96063Y126034D02*
X122491D01*
X128347Y173622D02*
Y186034D01*
X119291Y195089D02*
Y207874D01*
Y195089D02*
X128347Y186034D01*
X125984Y212992D02*
X143799Y230807D01*
X85697Y187581D02*
X88239Y185039D01*
X85039Y187845D02*
X85303Y187581D01*
X85697D01*
X79902Y177795D02*
Y189744D01*
X88239Y184646D02*
Y185039D01*
X79902Y189744D02*
X89641Y199483D01*
X89902Y177795D02*
X90591Y178484D01*
X79779Y170862D02*
X84902Y175984D01*
X133681Y164842D02*
X133760Y164764D01*
X132087Y164842D02*
X133681D01*
X13150Y162362D02*
Y166772D01*
X17244Y41024D02*
Y47008D01*
Y41024D02*
X17323Y40945D01*
X17165Y47087D02*
X17244Y47008D01*
X37165Y25354D02*
Y30472D01*
X27165Y25354D02*
Y30315D01*
X42165Y41437D02*
Y47087D01*
X42126Y41476D02*
X42165Y41437D01*
X32224Y41004D02*
X32283Y40945D01*
X32224Y41004D02*
Y47028D01*
X32165Y47087D02*
X32224Y47028D01*
X0Y198425D02*
X21260D01*
X-2461Y195965D02*
X0Y198425D01*
X-2461Y182382D02*
Y195965D01*
Y182382D02*
X13150Y166772D01*
X133760Y137598D02*
X143504D01*
X129528Y158618D02*
X131398Y160488D01*
X129528Y151181D02*
Y158618D01*
Y151181D02*
X131398Y149311D01*
Y160488D02*
Y164075D01*
X132087Y164764D01*
X131398Y145768D02*
X132087Y145079D01*
X133760D01*
X131398Y145768D02*
Y149311D01*
X153150Y157087D02*
Y190160D01*
Y133911D02*
Y157087D01*
X133760Y157283D02*
X152953D01*
X153150Y157087D01*
X122835Y141339D02*
X124508D01*
X115571Y138189D02*
X119685D01*
X122835Y141339D01*
X116240Y152756D02*
X122146Y158661D01*
Y160335D02*
X122835Y161024D01*
X124508D01*
X115571Y151969D02*
X115847D01*
X116240Y152362D01*
Y152756D01*
X122146Y158661D02*
Y160335D01*
X152861Y190448D02*
X153150Y190160D01*
X140552Y202757D02*
X152861Y190448D01*
X84302Y146013D02*
X89764D01*
X96063D01*
X62992Y33465D02*
X63438D01*
X84445Y54472D01*
X90551Y126034D02*
X90945Y125640D01*
Y81890D02*
Y125640D01*
X70118Y61063D02*
X90945Y81890D01*
X12125Y41627D02*
X12205Y41707D01*
X12084Y41586D02*
X12125Y41627D01*
Y47046D01*
X12165Y47087D01*
X44291Y61063D02*
X70118D01*
X32165Y48937D02*
X44291Y61063D01*
X32165Y47087D02*
Y48937D01*
X12746Y8514D02*
X18406D01*
X17165Y19105D02*
Y25354D01*
X20916Y14961D02*
Y15354D01*
X17165Y19105D02*
X20916Y15354D01*
X26476Y8514D02*
X27116Y9154D01*
Y14961D01*
X26476Y8514D02*
X27854Y7136D01*
X40945D01*
X32815Y21072D02*
Y24705D01*
X40551Y13336D02*
X40945D01*
X32815Y21072D02*
X40551Y13336D01*
X32165Y25354D02*
X32815Y24705D01*
X84671Y27190D02*
Y33046D01*
X84695Y33071D01*
X84646Y27165D02*
X84671Y27190D01*
X42165Y23504D02*
X52234Y13435D01*
X80709D01*
X42165Y23504D02*
Y25354D01*
X94488Y13435D02*
X98769D01*
X90895Y33071D02*
X94882D01*
X90846Y26772D02*
X94488Y23129D01*
Y19635D02*
Y23129D01*
X90846Y26772D02*
Y27165D01*
X89630Y20571D02*
X90565Y19635D01*
X85961Y20571D02*
X89630D01*
X90565Y19635D02*
X94488D01*
X85025D02*
X85961Y20571D01*
X80709Y19635D02*
X85025D01*
X64545Y24016D02*
X67695Y27165D01*
X63189Y24016D02*
X64545D01*
X67695Y27165D02*
X84646D01*
X-394Y47194D02*
Y50394D01*
X21772Y54331D02*
X27165Y48937D01*
X7874Y54331D02*
X21772D01*
X27165Y47087D02*
Y48937D01*
X6496Y52953D02*
X7874Y54331D01*
X6496Y47342D02*
Y52953D01*
X-320Y41068D02*
X6423D01*
X6496Y41142D01*
X-394Y40995D02*
X-320Y41068D01*
X-394Y40995D02*
X394Y40207D01*
Y35827D02*
Y40207D01*
X37165Y47087D02*
X42165D01*
X22165Y39488D02*
Y47087D01*
X17165Y34488D02*
X22165Y39488D01*
X17165Y25354D02*
Y34488D01*
X20079Y97638D02*
X29724D01*
X67716Y83071D02*
Y83371D01*
X62898Y88189D02*
X67716Y83371D01*
X62598Y88189D02*
X62898D01*
X106732Y328307D02*
X108268Y326772D01*
Y326378D02*
X108562Y326672D01*
X106732Y333622D02*
Y339331D01*
Y328307D02*
Y333622D01*
X83858Y206607D02*
Y209055D01*
Y206607D02*
X86306D01*
X83858Y200394D02*
Y206607D01*
X58661Y234252D02*
X83858Y209055D01*
X54724Y229528D02*
X60886Y223366D01*
X94488Y212697D02*
X119606Y237815D01*
X94488Y208760D02*
Y212697D01*
X89641Y199483D02*
X93283D01*
X94488Y200689D01*
X61868Y314852D02*
Y317660D01*
Y314852D02*
X75145Y301575D01*
X106299D01*
X52756Y326772D02*
X61868Y317660D01*
X92520Y318947D02*
X92520Y318947D01*
X92520Y314961D02*
Y318947D01*
X64862Y337747D02*
X65784D01*
X65833Y337795D01*
X72047D01*
X81693Y347441D01*
X63779Y336664D02*
X64862Y337747D01*
X81693Y355315D02*
X81732Y355354D01*
X81693Y347441D02*
Y355315D01*
X58711Y342864D02*
X63779D01*
X69291Y342406D02*
X69685Y342013D01*
Y341949D02*
Y342013D01*
X64237Y342406D02*
X69291D01*
X63779Y342864D02*
X64237Y342406D01*
X57480Y309055D02*
Y317717D01*
X106299Y301575D02*
X113042Y308317D01*
X118848Y326378D02*
X119045Y326181D01*
Y315551D02*
X119242Y315354D01*
X119045Y315551D02*
Y326181D01*
X143799Y230807D02*
Y253150D01*
X146555Y255906D02*
X149114D01*
X143799Y253150D02*
X146555Y255906D01*
X57530Y177509D02*
X62205D01*
X61024Y186241D02*
Y186614D01*
X79616Y177509D02*
X79902Y177795D01*
X68110Y177509D02*
X79616D01*
X84902Y175984D02*
Y177795D01*
X69453Y160372D02*
X69549D01*
X69397Y160316D02*
X69453Y160372D01*
X69397Y156355D02*
Y160316D01*
X69341Y156299D02*
X69397Y156355D01*
X109314Y348819D02*
X116007Y342126D01*
X107035Y345669D02*
X118848Y333856D01*
X88583Y345669D02*
X107035D01*
X118848Y326378D02*
Y333856D01*
X107687Y347244D02*
X131890Y323041D01*
X99213Y347244D02*
X107687D01*
X131890Y309449D02*
Y323041D01*
X106417Y348819D02*
X109314D01*
X101732Y353504D02*
Y355354D01*
Y353504D02*
X106417Y348819D01*
X81732Y338819D02*
X88583Y345669D01*
X96732Y349724D02*
X99213Y347244D01*
X127165Y293553D02*
Y324410D01*
X131201Y255906D02*
Y289518D01*
X127165Y293553D02*
X131201Y289518D01*
X163386Y247244D02*
Y251231D01*
X149114Y255906D02*
X150639Y257431D01*
X163386D01*
X114114Y366535D02*
X114508Y366929D01*
X114784D01*
X106732Y355354D02*
Y357205D01*
X114114Y364587D01*
Y366535D01*
X106083D02*
X106476Y366929D01*
X104724Y366535D02*
X106083D01*
X101732Y363543D02*
X104724Y366535D01*
X101732Y355354D02*
Y363543D01*
X95768Y369143D02*
X96850Y368061D01*
X94832Y370472D02*
X95768Y369537D01*
X61417Y367323D02*
X64567Y370472D01*
X96850Y368061D02*
X97244D01*
X64567Y370472D02*
X94832D01*
X95768Y369143D02*
Y369537D01*
X62942Y356349D02*
X66142D01*
X61417Y357874D02*
X62942Y356349D01*
X61417Y357874D02*
Y367323D01*
X76083Y356349D02*
X76732Y355699D01*
X66142Y356349D02*
X76083D01*
X76732Y355354D02*
Y355699D01*
X66535Y362549D02*
X69537Y359547D01*
X76033D01*
X164173Y286270D02*
X168061D01*
X141339Y295226D02*
Y297539D01*
X144095Y292470D02*
X164173D01*
X141339Y295226D02*
X144095Y292470D01*
X96732Y355354D02*
Y361349D01*
X97244Y361861D01*
X76033Y359547D02*
X78690Y362205D01*
X66142Y362549D02*
X66535D01*
X78690Y362205D02*
Y362598D01*
X72441Y366929D02*
X72466Y366904D01*
Y362623D02*
X72491Y362598D01*
X72466Y362623D02*
Y366904D01*
X80167Y361122D02*
X81732Y359557D01*
X78690Y362205D02*
X79773Y361122D01*
X81732Y355354D02*
Y359557D01*
X79773Y361122D02*
X80167D01*
X82008Y324410D02*
X82402Y324016D01*
X82500D01*
X82008Y324410D02*
Y333347D01*
X81732Y333622D02*
X82008Y333347D01*
X81732Y333622D02*
Y338819D01*
X76713Y333642D02*
X76732Y333622D01*
X69685Y333642D02*
X76713D01*
X76732Y326279D02*
Y333622D01*
X74468Y324016D02*
X76732Y326279D01*
X74193Y324016D02*
X74468D01*
X26773Y324804D02*
Y325592D01*
X31399Y330218D01*
X54480D01*
X65751Y318947D01*
X87008D01*
Y325147D02*
X87008Y325147D01*
X92520D01*
X92913D02*
X96732Y328966D01*
Y333622D01*
X92520Y325147D02*
X92913D01*
X96732Y349724D02*
Y355354D01*
X86673Y333681D02*
Y339311D01*
X86614Y339370D02*
X86673Y339311D01*
Y333681D02*
X86732Y333622D01*
X108268Y326378D02*
X112648D01*
X138583Y302854D02*
X141339Y300098D01*
X131890Y309449D02*
X138484Y302854D01*
X141339Y297539D02*
Y300098D01*
X138484Y302854D02*
X138583D01*
X102043Y326353D02*
X102068Y326378D01*
X102043Y315379D02*
Y326353D01*
X102018Y315354D02*
X102043Y315379D01*
X101900Y326546D02*
Y333454D01*
Y326546D02*
X102068Y326378D01*
X101732Y333622D02*
X101900Y333454D01*
X83071Y365748D02*
X83121D01*
X86270Y362598D01*
Y362205D02*
Y362598D01*
X86501Y355585D02*
X86732Y355354D01*
X86501Y355585D02*
Y361974D01*
X86270Y362205D02*
X86501Y361974D01*
X141339Y271260D02*
Y279626D01*
X60886Y209587D02*
Y223366D01*
X24016Y257874D02*
Y270472D01*
Y257874D02*
X36614Y245276D01*
X49606D01*
X36615Y276377D02*
X58661Y254331D01*
Y234252D02*
Y254331D01*
X36615Y276377D02*
Y324804D01*
X57480Y309055D02*
X63042Y303494D01*
Y300344D02*
Y303494D01*
X47244Y124016D02*
Y144882D01*
X55118Y116142D02*
X75197D01*
X47244Y124016D02*
X55118Y116142D01*
X75197D02*
X87008Y104331D01*
Y83071D02*
Y104331D01*
X71540Y139370D02*
X77953D01*
X68882Y142028D02*
X71540Y139370D01*
X61713Y142028D02*
X68882D01*
X65354Y181890D02*
X83858Y200394D01*
D70*
X162429Y32283D02*
X162823Y32677D01*
X157087Y32283D02*
X162429D01*
X162823Y32677D02*
X163583D01*
X164862Y33957D02*
Y34646D01*
X163583Y32677D02*
X164862Y33957D01*
X156890Y31594D02*
Y36248D01*
X155737Y37402D02*
X156890Y36248D01*
X142520Y37402D02*
X155737D01*
X139764Y40157D02*
X142520Y37402D01*
X139764Y40157D02*
Y54232D01*
X139665Y54331D02*
X139764Y54232D01*
X95029Y185384D02*
X97930D01*
X80715Y161659D02*
Y161765D01*
X80098Y161042D02*
X80715Y161659D01*
X80098Y156299D02*
Y161042D01*
X79902Y156102D02*
X80098Y156299D01*
X94439Y184793D02*
X95029Y185384D01*
X97930D02*
X98006Y185459D01*
X94439Y184646D02*
Y184793D01*
X7717Y25354D02*
X12165D01*
X92470Y362205D02*
X92495Y362229D01*
X91890Y361624D02*
X92470Y362205D01*
X94705Y177992D02*
Y184379D01*
Y177992D02*
X94902Y177795D01*
X94439Y184646D02*
X94705Y184379D01*
X79902Y156063D02*
Y156102D01*
X75541Y156299D02*
X79705D01*
X79902Y156102D01*
X84902Y156063D02*
X89902D01*
X91732Y333622D02*
Y339370D01*
X92495Y362229D02*
Y366904D01*
X92520Y366929D01*
X91732Y355354D02*
X91890Y355512D01*
Y361624D01*
D71*
X73622Y84252D02*
Y90453D01*
X72638Y98819D02*
X72933Y98524D01*
X62898Y102189D02*
X69957D01*
X72638Y99508D01*
X72933Y98524D02*
X73622D01*
X72638Y98819D02*
Y99508D01*
X50197Y97638D02*
X51476Y98917D01*
X47638Y97638D02*
X50197D01*
X51476Y99883D02*
X53783Y102189D01*
X51476Y98917D02*
Y99883D01*
X53783Y102189D02*
X62598D01*
X47638Y97638D02*
Y109843D01*
D72*
X36614Y255906D02*
D03*
X16929D02*
D03*
D73*
X10630Y232285D02*
D03*
X42913D02*
D03*
X47245Y354332D02*
D03*
X6301D02*
D03*
X170867D02*
D03*
X129922D02*
D03*
Y232285D02*
D03*
X170867D02*
D03*
D74*
X36615Y208661D02*
D03*
X26772D02*
D03*
X26773Y324804D02*
D03*
X36615D02*
D03*
X150395D02*
D03*
X160238D02*
D03*
Y202757D02*
D03*
X150395D02*
D03*
D75*
X16930Y208661D02*
D03*
Y324804D02*
D03*
X140552D02*
D03*
Y202757D02*
D03*
D76*
X63189Y43701D02*
D03*
Y24016D02*
D03*
X112402D02*
D03*
Y43701D02*
D03*
D77*
X79606Y225315D02*
D03*
Y235315D02*
D03*
X119606Y237815D02*
D03*
Y222815D02*
D03*
D78*
X93583Y275590D02*
D03*
D79*
X83583D02*
D03*
D80*
X116732Y117854D02*
D03*
X166732D02*
D03*
X141732D02*
D03*
Y181752D02*
D03*
X116732D02*
D03*
X60433Y129980D02*
D03*
X10433D02*
D03*
X35433D02*
D03*
Y66083D02*
D03*
X60433D02*
D03*
D81*
X166732Y181752D02*
D03*
X10433Y66083D02*
D03*
D82*
X163779Y166535D02*
D03*
Y133071D02*
D03*
X13386Y81299D02*
D03*
Y114764D02*
D03*
D83*
X138976Y82677D02*
D03*
D84*
X150787Y101181D02*
D03*
D85*
X162598Y82677D02*
D03*
D86*
X8661Y280157D02*
D03*
Y290158D02*
D03*
D87*
Y300157D02*
D03*
D88*
X153543Y244094D02*
D03*
X161417Y228346D02*
D03*
X98425Y70866D02*
D03*
X27559Y307087D02*
D03*
X122047Y149606D02*
D03*
X169291Y212598D02*
D03*
X74803Y55118D02*
D03*
X11811Y86614D02*
D03*
X145669Y165354D02*
D03*
X169291Y307087D02*
D03*
X126411Y67356D02*
D03*
X153543Y212598D02*
D03*
X137795Y149606D02*
D03*
X145669Y133858D02*
D03*
X106299Y181102D02*
D03*
X59055Y275590D02*
D03*
X169291Y149606D02*
D03*
X98425Y259842D02*
D03*
X122047Y244094D02*
D03*
X35433Y354331D02*
D03*
X82677Y7874D02*
D03*
X19685Y291338D02*
D03*
Y102362D02*
D03*
X98425Y39370D02*
D03*
X82677D02*
D03*
X11811Y244094D02*
D03*
X3937Y102362D02*
D03*
X114173Y228346D02*
D03*
X145669Y354331D02*
D03*
X11811Y307087D02*
D03*
X145669Y228346D02*
D03*
X153543Y275590D02*
D03*
X114173Y259842D02*
D03*
X19685Y70866D02*
D03*
X114173Y7874D02*
D03*
X106299Y212598D02*
D03*
X43307Y86614D02*
D03*
X137795Y244094D02*
D03*
X43307Y307087D02*
D03*
Y55118D02*
D03*
X51181Y7874D02*
D03*
X145669D02*
D03*
X27559Y275590D02*
D03*
X98425Y7874D02*
D03*
X114173Y354331D02*
D03*
X19685Y228346D02*
D03*
X27559Y149606D02*
D03*
X153543Y118110D02*
D03*
X51181Y228346D02*
D03*
X122047Y338583D02*
D03*
X106299Y55118D02*
D03*
X90551Y244094D02*
D03*
X74803Y212598D02*
D03*
X11811Y275590D02*
D03*
X145669Y70866D02*
D03*
X66929Y7874D02*
D03*
X169291Y338583D02*
D03*
X43307Y118110D02*
D03*
X161417Y354331D02*
D03*
X169291Y275590D02*
D03*
X66929Y322835D02*
D03*
X59055Y55118D02*
D03*
X27559Y118110D02*
D03*
X169291Y244094D02*
D03*
X161417Y102362D02*
D03*
X153543Y338583D02*
D03*
X169291Y86614D02*
D03*
X114173Y291338D02*
D03*
X106299Y118110D02*
D03*
X51181Y291338D02*
D03*
X43307Y275590D02*
D03*
X19685Y354331D02*
D03*
X137795Y307087D02*
D03*
X153543Y86614D02*
D03*
X27559D02*
D03*
X82677Y133858D02*
D03*
X129921Y102362D02*
D03*
X27559Y244094D02*
D03*
Y55118D02*
D03*
X62205Y262992D02*
D03*
X108218Y311368D02*
D03*
X176378Y58268D02*
D03*
X144923Y41750D02*
D03*
X153150Y25984D02*
D03*
X126476Y23524D02*
D03*
X142913Y16929D02*
D03*
X154724Y9449D02*
D03*
X120079Y70079D02*
D03*
X97349Y78110D02*
D03*
X-197Y191374D02*
D03*
X41732Y161127D02*
D03*
X50681Y150787D02*
D03*
X98425Y325590D02*
D03*
X59449Y139764D02*
D03*
X77362Y105118D02*
D03*
X125984Y76378D02*
D03*
X94902Y162500D02*
D03*
X68110Y312598D02*
D03*
X125984Y9055D02*
D03*
X73622Y84252D02*
D03*
X125984Y129528D02*
D03*
X128347Y173622D02*
D03*
X119291Y207874D02*
D03*
X80715Y161765D02*
D03*
X98006Y185459D02*
D03*
X85039Y187845D02*
D03*
X98819Y99213D02*
D03*
X106693Y104724D02*
D03*
X64567Y328740D02*
D03*
X13150Y162362D02*
D03*
X17323Y40945D02*
D03*
X37165Y30472D02*
D03*
X27165Y30315D02*
D03*
X42165Y41437D02*
D03*
X32283Y40945D02*
D03*
X143504Y137598D02*
D03*
X123622Y109055D02*
D03*
X84302Y146013D02*
D03*
X62992Y33465D02*
D03*
X12084Y41586D02*
D03*
X12746Y8514D02*
D03*
X98769Y13435D02*
D03*
X94882Y33071D02*
D03*
X-394Y50394D02*
D03*
X394Y35827D02*
D03*
X7717Y25354D02*
D03*
X20079Y97638D02*
D03*
X47638Y109843D02*
D03*
X67716Y83071D02*
D03*
X106732Y339331D02*
D03*
X86306Y206607D02*
D03*
X76378Y287402D02*
D03*
X84646Y315354D02*
D03*
X92126Y305512D02*
D03*
Y295669D02*
D03*
X54724Y229528D02*
D03*
X125984Y81496D02*
D03*
X92520Y314961D02*
D03*
X58711Y342864D02*
D03*
X52756Y326772D02*
D03*
X57480Y317717D02*
D03*
X57530Y177509D02*
D03*
X69453Y160372D02*
D03*
X116007Y342126D02*
D03*
X127165Y324410D02*
D03*
X163386Y247244D02*
D03*
X168061Y286270D02*
D03*
X72441Y366929D02*
D03*
X86614Y339370D02*
D03*
X91732D02*
D03*
X92520Y366929D02*
D03*
X83071Y365748D02*
D03*
X141339Y271260D02*
D03*
X156299Y287795D02*
D03*
X55905Y220866D02*
D03*
X60886Y209587D02*
D03*
X24016Y270472D02*
D03*
X49606Y245276D02*
D03*
X40502Y195226D02*
D03*
X63042Y300344D02*
D03*
X0Y185039D02*
D03*
X68504Y290551D02*
D03*
X130709Y301181D02*
D03*
X32283Y270472D02*
D03*
X43701Y281890D02*
D03*
X87008Y83071D02*
D03*
X109449Y64567D02*
D03*
X36614Y12598D02*
D03*
X63779Y139764D02*
D03*
X77953Y139370D02*
D03*
X65354Y181890D02*
D03*
X34252Y195276D02*
D03*
X74410Y182677D02*
D03*
X2165Y153150D02*
D03*
X48031Y160630D02*
D03*
X61024Y186614D02*
D03*
X49213Y202756D02*
D03*
X87402Y60630D02*
D03*
X91732Y70472D02*
D03*
X0Y170079D02*
D03*
X5906Y138583D02*
D03*
D89*
X156890Y43209D02*
D03*
X149409D02*
D03*
Y31594D02*
D03*
X153150D02*
D03*
X156890D02*
D03*
D90*
X139665Y54331D02*
D03*
X149311D02*
D03*
D91*
X42165Y25354D02*
D03*
X37165D02*
D03*
X32165D02*
D03*
X27165D02*
D03*
X22165D02*
D03*
X17165D02*
D03*
X12165D02*
D03*
X42165Y47087D02*
D03*
X37165D02*
D03*
X32165D02*
D03*
X27165D02*
D03*
X22165D02*
D03*
X17165D02*
D03*
X12165D02*
D03*
X106732Y333622D02*
D03*
X101732D02*
D03*
X96732D02*
D03*
X91732D02*
D03*
X86732D02*
D03*
X81732D02*
D03*
X76732D02*
D03*
X106732Y355354D02*
D03*
X101732D02*
D03*
X96732D02*
D03*
X91732D02*
D03*
X86732D02*
D03*
X81732D02*
D03*
X76732D02*
D03*
D92*
X165748Y16831D02*
D03*
Y26476D02*
D03*
D93*
X69685Y333642D02*
D03*
Y341949D02*
D03*
D94*
X176378Y54331D02*
D03*
Y41732D02*
D03*
D95*
X141339Y297539D02*
D03*
Y279626D02*
D03*
M02*
