G04*
G04 #@! TF.GenerationSoftware,Altium Limited,Altium Designer,23.4.1 (23)*
G04*
G04 Layer_Color=65535*
%FSLAX25Y25*%
%MOIN*%
G70*
G04*
G04 #@! TF.SameCoordinates,B679403E-95BF-4892-A0A7-9FFFC668BED6*
G04*
G04*
G04 #@! TF.FilePolarity,Positive*
G04*
G01*
G75*
%ADD10C,0.01000*%
%ADD11C,0.00787*%
%ADD12C,0.01575*%
%ADD13C,0.00591*%
%ADD14C,0.01181*%
%ADD15C,0.00800*%
%ADD16C,0.00748*%
D10*
X8071Y208661D02*
G03*
X10039Y206693I1969J0D01*
G01*
X45474Y249214D02*
G03*
X43505Y251182I-1969J0D01*
G01*
X43504Y206693D02*
G03*
X45472Y208661I0J1969D01*
G01*
X10041Y251182D02*
G03*
X8072Y249214I-0J-1969D01*
G01*
X40968Y354332D02*
G03*
X40968Y354332I-14195J0D01*
G01*
X37777D02*
G03*
X37777Y354332I-11004J0D01*
G01*
X10041Y374017D02*
G03*
X8072Y372048I-0J-1969D01*
G01*
X43505Y331300D02*
G03*
X45474Y333269I0J1969D01*
G01*
Y372048D02*
G03*
X43505Y374017I-1969J0D01*
G01*
X8072Y333269D02*
G03*
X10041Y331300I1969J0D01*
G01*
X164590Y354332D02*
G03*
X164590Y354332I-14195J0D01*
G01*
X161399D02*
G03*
X161399Y354332I-11004J0D01*
G01*
X133663Y373230D02*
G03*
X131694Y371261I-0J-1969D01*
G01*
X167126Y328740D02*
G03*
X169095Y330709I0J1969D01*
G01*
X169096Y371261D02*
G03*
X167127Y373230I-1969J0D01*
G01*
X131693Y330709D02*
G03*
X133661Y328740I1969J0D01*
G01*
X131694Y211222D02*
G03*
X133663Y209253I1969J0D01*
G01*
X169096Y250001D02*
G03*
X167127Y251970I-1969J0D01*
G01*
Y209253D02*
G03*
X169096Y211222I0J1969D01*
G01*
X133663Y251970D02*
G03*
X131694Y250001I-0J-1969D01*
G01*
X161399Y232285D02*
G03*
X161399Y232285I-11004J0D01*
G01*
X164590D02*
G03*
X164590Y232285I-14195J0D01*
G01*
X4470Y299798D02*
G03*
X820Y283156I4191J-9640D01*
G01*
X16330Y282968D02*
G03*
X12853Y299798I-7669J7190D01*
G01*
X182480Y130803D02*
X191732D01*
Y168803D01*
X182480D02*
X191732D01*
X182480Y112854D02*
Y181752D01*
Y185295D01*
X101378Y112854D02*
X182480D01*
X101181Y186870D02*
X182480D01*
Y185295D02*
Y186870D01*
X101181D02*
X102362D01*
X-14567Y117032D02*
X-5315D01*
X-14567Y79031D02*
Y117032D01*
Y79031D02*
X-5315D01*
Y66083D02*
Y134980D01*
Y62539D02*
Y66083D01*
Y134980D02*
X75787D01*
X-5315Y60965D02*
X75984D01*
X-5315D02*
Y62539D01*
X74803Y60965D02*
X75984D01*
X8071Y208661D02*
Y224409D01*
X10039Y206693D02*
X12205D01*
X45472Y208661D02*
Y224409D01*
X45474Y249214D02*
X45474Y240158D01*
X10041Y251182D02*
X43505D01*
X8072Y240158D02*
Y249214D01*
X40157Y206693D02*
X43602D01*
X30315D02*
X32972D01*
X21654D02*
X23228D01*
X18161Y347688D02*
X33318Y362846D01*
X20031Y345621D02*
X35434Y361025D01*
X8072Y362206D02*
Y372048D01*
X10041Y374017D02*
X43505D01*
X45474Y372048D02*
X45474Y362206D01*
Y333269D02*
Y348033D01*
X10041Y331300D02*
X43505D01*
X8072Y333269D02*
Y348033D01*
X145276Y328740D02*
X146850D01*
X153937D02*
X156595D01*
X163779D02*
X167224D01*
X141783Y347688D02*
X156940Y362846D01*
X143653Y345621D02*
X159056Y361025D01*
X131694Y362205D02*
Y371261D01*
X133663Y373230D02*
X167127D01*
X169096Y371261D02*
X169096Y362205D01*
X169095Y330709D02*
Y346457D01*
X133661Y328740D02*
X135827D01*
X131693Y330709D02*
Y346457D01*
X131694Y211222D02*
Y225985D01*
X133663Y209253D02*
X167127D01*
X169096Y211222D02*
Y225985D01*
X169096Y250001D02*
X169096Y240159D01*
X133663Y251970D02*
X167127D01*
X131694Y240159D02*
Y250001D01*
X143653Y223574D02*
X159056Y238978D01*
X141783Y225641D02*
X156940Y240798D01*
X1083Y282874D02*
X4724D01*
X12598D02*
X16142D01*
D11*
X24409Y241339D02*
G03*
X35851Y234553I2363J-9054D01*
G01*
X93137Y279943D02*
G03*
X84029Y279943I-4554J-4352D01*
G01*
Y271238D02*
G03*
X93137Y271238I4554J4352D01*
G01*
X47491Y301673D02*
X48278D01*
X47491Y298721D02*
X48278D01*
X59252Y290354D02*
X62402D01*
X59252D02*
Y293504D01*
Y302165D02*
X62402D01*
X59252Y299016D02*
Y302165D01*
X47491Y303642D02*
X48278D01*
X47491Y306594D02*
X48278D01*
X43898Y308465D02*
X50591D01*
X43898Y313583D02*
X50591D01*
X59252Y305315D02*
X62402D01*
X59252D02*
Y308465D01*
Y317126D02*
X62402D01*
X59252Y313976D02*
Y317126D01*
X47244Y318799D02*
X48031D01*
X47244Y315846D02*
X48031D01*
X43898Y279921D02*
X50591D01*
X43898Y285039D02*
X50591D01*
X47491Y277067D02*
X48278D01*
X47491Y274114D02*
X48278D01*
X47491Y272146D02*
X48278D01*
X47491Y269193D02*
X48278D01*
X47491Y286910D02*
X48278D01*
X47491Y289862D02*
X48278D01*
X76279Y276772D02*
Y281102D01*
X70177Y276772D02*
Y281102D01*
X119685Y148622D02*
Y152953D01*
X101378Y112854D02*
Y186909D01*
X57480Y94882D02*
Y99213D01*
X75787Y60925D02*
Y134980D01*
X128937Y49803D02*
X129331D01*
X128937Y54921D02*
X129331D01*
X141732Y11811D02*
Y33514D01*
Y11811D02*
X150689D01*
X159547D02*
X168504D01*
Y33514D01*
X146801Y38583D02*
X150689D01*
X141732Y33514D02*
X146801Y38583D01*
X163435D02*
X168504Y33514D01*
X159547Y38583D02*
X163435D01*
X128150Y36024D02*
Y36417D01*
X123031Y36024D02*
Y36417D01*
X144144Y57726D02*
X161368D01*
X144144Y46998D02*
X161368D01*
X14173Y29134D02*
X35876D01*
X14173Y20177D02*
Y29134D01*
Y2362D02*
Y11319D01*
Y2362D02*
X35876D01*
X40945Y20177D02*
Y24065D01*
X35876Y29134D02*
X40945Y24065D01*
X35876Y2362D02*
X40945Y7431D01*
Y11319D01*
X14173Y58661D02*
X35876D01*
X14173Y49705D02*
Y58661D01*
Y31890D02*
Y40846D01*
Y31890D02*
X35876D01*
X40945Y49705D02*
Y53592D01*
X35876Y58661D02*
X40945Y53592D01*
X35876Y31890D02*
X40945Y36959D01*
Y40846D01*
X24409Y241339D02*
X35827Y234646D01*
X12009Y370867D02*
Y372737D01*
Y370867D02*
X19982D01*
Y374804D01*
X12009D02*
X19982D01*
X12009Y372737D02*
Y374804D01*
X41635Y370867D02*
Y372836D01*
X33860Y370867D02*
X40552D01*
X33860D02*
Y374804D01*
X41635D01*
Y372836D02*
Y374804D01*
X40454Y331300D02*
X40552D01*
X33761Y334056D02*
Y337993D01*
X12009Y333958D02*
Y337895D01*
X19883D01*
Y333958D02*
Y337895D01*
X12009Y333958D02*
X19883D01*
X40552Y370867D02*
X41635D01*
X33761Y337993D02*
X41537D01*
Y336025D02*
Y337993D01*
X33761Y334056D02*
X41537D01*
Y335237D02*
X41537Y335237D01*
Y334056D02*
Y336025D01*
X156695Y374016D02*
X164569D01*
X156695Y370472D02*
Y374016D01*
Y370472D02*
X164569D01*
Y374016D01*
X136221Y334648D02*
X144095D01*
Y338191D01*
X136221D02*
X144095D01*
X136221Y334648D02*
Y338191D01*
X156695Y334648D02*
X164569D01*
X156695D02*
Y338191D01*
X164569D01*
Y334648D02*
Y338191D01*
X136221Y374016D02*
X144095D01*
Y370472D02*
Y374016D01*
X136221Y370472D02*
X144095D01*
X136221D02*
Y374016D01*
X165159Y212009D02*
Y213978D01*
X165159Y213190D02*
X165159Y213190D01*
X157383Y212009D02*
X165159D01*
X165159Y213978D02*
Y215946D01*
X157383D02*
X165159D01*
X164174Y248820D02*
X165257D01*
X135631Y211911D02*
X143505D01*
Y215848D01*
X135631D02*
X143505D01*
X135631Y211911D02*
Y215848D01*
X157383Y212009D02*
Y215946D01*
X164076Y209253D02*
X164174D01*
X165257Y250789D02*
Y252757D01*
X157482D02*
X165257D01*
X157482Y248820D02*
Y252757D01*
Y248820D02*
X164174D01*
X165257D02*
Y250789D01*
X135631Y250690D02*
Y252757D01*
X143604D01*
Y248820D02*
Y252757D01*
X135631Y248820D02*
X143604D01*
X135631D02*
Y250690D01*
X112295Y49358D02*
Y58858D01*
Y8358D02*
Y18358D01*
X63295Y49358D02*
Y58858D01*
Y8358D02*
Y18358D01*
Y8358D02*
X112295D01*
X63295Y58858D02*
X112295D01*
X104429Y272047D02*
Y272835D01*
X107382Y272047D02*
Y272835D01*
X99913Y273590D02*
Y274590D01*
Y276590D02*
Y277590D01*
X97913Y275590D02*
X101913D01*
X99913Y274590D02*
Y276590D01*
X154823Y314272D02*
X158711D01*
X163779Y309203D01*
X137008D02*
X142077Y314272D01*
X145965D01*
X163779Y287500D02*
Y309203D01*
X154823Y287500D02*
X163779D01*
X137008D02*
X145965D01*
X137008D02*
Y309203D01*
X175067Y266676D02*
X175254Y266301D01*
X175629Y265926D01*
X176004Y265739D01*
X176566Y265551D01*
X177503D01*
X178066Y265739D01*
X178441Y265926D01*
X178815Y266301D01*
X179003Y266676D01*
Y267426D01*
X178815Y267800D01*
X178441Y268175D01*
X178066Y268363D01*
X177503Y268550D01*
X176566D01*
X176004Y268363D01*
X175629Y268175D01*
X175254Y267800D01*
X175067Y267426D01*
Y266676D01*
X176379Y269469D02*
X180315D01*
X176941D02*
X176566Y269844D01*
X176379Y270218D01*
Y270781D01*
X176566Y271156D01*
X176941Y271530D01*
X177503Y271718D01*
X177878D01*
X178441Y271530D01*
X178815Y271156D01*
X179003Y270781D01*
Y270218D01*
X178815Y269844D01*
X178441Y269469D01*
X175067Y273124D02*
X178253D01*
X178815Y273311D01*
X179003Y273686D01*
Y274061D01*
X176379Y272561D02*
Y273873D01*
X175067Y274998D02*
X175254Y275185D01*
X175067Y275373D01*
X174879Y275185D01*
X175067Y274998D01*
X176379Y275185D02*
X179003D01*
X176941Y278316D02*
X176566Y277941D01*
X176379Y277566D01*
Y277004D01*
X176566Y276629D01*
X176941Y276254D01*
X177503Y276066D01*
X177878D01*
X178441Y276254D01*
X178815Y276629D01*
X179003Y277004D01*
Y277566D01*
X178815Y277941D01*
X178441Y278316D01*
X176379Y281408D02*
X179003D01*
X176941D02*
X176566Y281033D01*
X176379Y280659D01*
Y280096D01*
X176566Y279721D01*
X176941Y279346D01*
X177503Y279159D01*
X177878D01*
X178441Y279346D01*
X178815Y279721D01*
X179003Y280096D01*
Y280659D01*
X178815Y281033D01*
X178441Y281408D01*
X175067Y282458D02*
X179003D01*
X176004Y289187D02*
X175629Y289000D01*
X175254Y288625D01*
X175067Y288250D01*
Y287500D01*
X175254Y287125D01*
X175629Y286750D01*
X176004Y286563D01*
X176566Y286375D01*
X177503D01*
X178066Y286563D01*
X178441Y286750D01*
X178815Y287125D01*
X179003Y287500D01*
Y288250D01*
X178815Y288625D01*
X178441Y289000D01*
X178066Y289187D01*
X176379Y291230D02*
X176566Y290855D01*
X176941Y290480D01*
X177503Y290293D01*
X177878D01*
X178441Y290480D01*
X178815Y290855D01*
X179003Y291230D01*
Y291792D01*
X178815Y292167D01*
X178441Y292542D01*
X177878Y292729D01*
X177503D01*
X176941Y292542D01*
X176566Y292167D01*
X176379Y291792D01*
Y291230D01*
Y293592D02*
X179003D01*
X177129D02*
X176566Y294154D01*
X176379Y294529D01*
Y295091D01*
X176566Y295466D01*
X177129Y295654D01*
X179003D01*
X177129D02*
X176566Y296216D01*
X176379Y296591D01*
Y297153D01*
X176566Y297528D01*
X177129Y297715D01*
X179003D01*
X176379Y298952D02*
X180315D01*
X176941D02*
X176566Y299327D01*
X176379Y299702D01*
Y300264D01*
X176566Y300639D01*
X176941Y301014D01*
X177503Y301202D01*
X177878D01*
X178441Y301014D01*
X178815Y300639D01*
X179003Y300264D01*
Y299702D01*
X178815Y299327D01*
X178441Y298952D01*
X176379Y302045D02*
X179003D01*
X177503D02*
X176941Y302233D01*
X176566Y302607D01*
X176379Y302982D01*
Y303544D01*
X177503Y303901D02*
Y306150D01*
X177129D01*
X176754Y305962D01*
X176566Y305775D01*
X176379Y305400D01*
Y304838D01*
X176566Y304463D01*
X176941Y304088D01*
X177503Y303901D01*
X177878D01*
X178441Y304088D01*
X178815Y304463D01*
X179003Y304838D01*
Y305400D01*
X178815Y305775D01*
X178441Y306150D01*
X176941Y309055D02*
X176566Y308868D01*
X176379Y308305D01*
Y307743D01*
X176566Y307181D01*
X176941Y306993D01*
X177316Y307181D01*
X177503Y307556D01*
X177691Y308493D01*
X177878Y308868D01*
X178253Y309055D01*
X178441D01*
X178815Y308868D01*
X179003Y308305D01*
Y307743D01*
X178815Y307181D01*
X178441Y306993D01*
X176941Y311942D02*
X176566Y311754D01*
X176379Y311192D01*
Y310630D01*
X176566Y310067D01*
X176941Y309880D01*
X177316Y310067D01*
X177503Y310442D01*
X177691Y311379D01*
X177878Y311754D01*
X178253Y311942D01*
X178441D01*
X178815Y311754D01*
X179003Y311192D01*
Y310630D01*
X178815Y310067D01*
X178441Y309880D01*
X176379Y313704D02*
X176566Y313329D01*
X176941Y312954D01*
X177503Y312766D01*
X177878D01*
X178441Y312954D01*
X178815Y313329D01*
X179003Y313704D01*
Y314266D01*
X178815Y314641D01*
X178441Y315016D01*
X177878Y315203D01*
X177503D01*
X176941Y315016D01*
X176566Y314641D01*
X176379Y314266D01*
Y313704D01*
Y316065D02*
X179003D01*
X177503D02*
X176941Y316253D01*
X176566Y316628D01*
X176379Y317003D01*
Y317565D01*
Y321014D02*
X179003Y322138D01*
X176379Y323263D02*
X179003Y322138D01*
X176004Y324088D02*
X175817D01*
X175442Y324275D01*
X175254Y324462D01*
X175067Y324837D01*
Y325587D01*
X175254Y325962D01*
X175442Y326149D01*
X175817Y326337D01*
X176191D01*
X176566Y326149D01*
X177129Y325775D01*
X179003Y323900D01*
Y326524D01*
X33114Y289960D02*
Y286811D01*
Y289960D02*
X34463D01*
X34913Y289810D01*
X35063Y289660D01*
X35213Y289360D01*
Y289061D01*
X35063Y288761D01*
X34913Y288611D01*
X34463Y288461D01*
X33114D01*
X34163D02*
X35213Y286811D01*
X37717Y289960D02*
X36218D01*
X36068Y288611D01*
X36218Y288761D01*
X36668Y288911D01*
X37117D01*
X37567Y288761D01*
X37867Y288461D01*
X38017Y288011D01*
Y287711D01*
X37867Y287261D01*
X37567Y286961D01*
X37117Y286811D01*
X36668D01*
X36218Y286961D01*
X36068Y287111D01*
X35918Y287411D01*
X39472Y289960D02*
X39022Y289810D01*
X38872Y289510D01*
Y289211D01*
X39022Y288911D01*
X39322Y288761D01*
X39922Y288611D01*
X40371Y288461D01*
X40671Y288161D01*
X40821Y287861D01*
Y287411D01*
X40671Y287111D01*
X40521Y286961D01*
X40071Y286811D01*
X39472D01*
X39022Y286961D01*
X38872Y287111D01*
X38722Y287411D01*
Y287861D01*
X38872Y288161D01*
X39172Y288461D01*
X39622Y288611D01*
X40221Y288761D01*
X40521Y288911D01*
X40671Y289211D01*
Y289510D01*
X40521Y289810D01*
X40071Y289960D01*
X39472D01*
X33114Y317913D02*
Y314764D01*
Y317913D02*
X34463D01*
X34913Y317763D01*
X35063Y317613D01*
X35213Y317313D01*
Y317013D01*
X35063Y316713D01*
X34913Y316564D01*
X34463Y316413D01*
X33114D01*
X34163D02*
X35213Y314764D01*
X37717Y317913D02*
X36218D01*
X36068Y316564D01*
X36218Y316713D01*
X36668Y316863D01*
X37117D01*
X37567Y316713D01*
X37867Y316413D01*
X38017Y315964D01*
Y315664D01*
X37867Y315214D01*
X37567Y314914D01*
X37117Y314764D01*
X36668D01*
X36218Y314914D01*
X36068Y315064D01*
X35918Y315364D01*
X40521Y317463D02*
X40371Y317763D01*
X39922Y317913D01*
X39622D01*
X39172Y317763D01*
X38872Y317313D01*
X38722Y316564D01*
Y315814D01*
X38872Y315214D01*
X39172Y314914D01*
X39622Y314764D01*
X39772D01*
X40221Y314914D01*
X40521Y315214D01*
X40671Y315664D01*
Y315814D01*
X40521Y316264D01*
X40221Y316564D01*
X39772Y316713D01*
X39622D01*
X39172Y316564D01*
X38872Y316264D01*
X38722Y315814D01*
X65908Y277266D02*
X65608Y277116D01*
X65308Y276816D01*
X65158Y276516D01*
Y275917D01*
X65308Y275617D01*
X65608Y275317D01*
X65908Y275167D01*
X66357Y275017D01*
X67107D01*
X67557Y275167D01*
X67857Y275317D01*
X68157Y275617D01*
X68307Y275917D01*
Y276516D01*
X68157Y276816D01*
X67857Y277116D01*
X67557Y277266D01*
X65158Y279650D02*
X67257Y278151D01*
Y280400D01*
X65158Y279650D02*
X68307D01*
X65908Y281105D02*
X65758D01*
X65458Y281255D01*
X65308Y281405D01*
X65158Y281704D01*
Y282304D01*
X65308Y282604D01*
X65458Y282754D01*
X65758Y282904D01*
X66057D01*
X66357Y282754D01*
X66807Y282454D01*
X68307Y280955D01*
Y283054D01*
X117323Y50634D02*
X120472D01*
Y52434D01*
X117323Y53078D02*
Y54728D01*
X118523Y53828D01*
Y54278D01*
X118673Y54578D01*
X118823Y54728D01*
X119272Y54878D01*
X119572D01*
X120022Y54728D01*
X120322Y54428D01*
X120472Y53978D01*
Y53528D01*
X120322Y53078D01*
X120172Y52928D01*
X119872Y52778D01*
X2362Y208670D02*
X5511Y209869D01*
X2362Y211069D02*
X5511Y209869D01*
X2362Y211474D02*
X5511D01*
X2362D02*
Y212823D01*
X2513Y213273D01*
X2662Y213423D01*
X2962Y213573D01*
X3262D01*
X3562Y213423D01*
X3712Y213273D01*
X3862Y212823D01*
Y211474D01*
Y212524D02*
X5511Y213573D01*
X2362Y215777D02*
X4462Y214278D01*
Y216527D01*
X2362Y215777D02*
X5511D01*
X2362Y333154D02*
X5511Y334354D01*
X2362Y335553D02*
X5511Y334354D01*
X2362Y335958D02*
X5511D01*
X2362D02*
Y337308D01*
X2513Y337758D01*
X2662Y337908D01*
X2962Y338057D01*
X3262D01*
X3562Y337908D01*
X3712Y337758D01*
X3862Y337308D01*
Y335958D01*
Y337008D02*
X5511Y338057D01*
X2362Y339062D02*
Y340712D01*
X3562Y339812D01*
Y340262D01*
X3712Y340562D01*
X3862Y340712D01*
X4312Y340862D01*
X4612D01*
X5062Y340712D01*
X5362Y340412D01*
X5511Y339962D01*
Y339512D01*
X5362Y339062D01*
X5212Y338912D01*
X4912Y338762D01*
X125985Y330005D02*
X129133Y331204D01*
X125985Y332404D02*
X129133Y331204D01*
X125985Y332809D02*
X129133D01*
X125985D02*
Y334158D01*
X126135Y334608D01*
X126285Y334758D01*
X126584Y334908D01*
X126884D01*
X127184Y334758D01*
X127334Y334608D01*
X127484Y334158D01*
Y332809D01*
Y333858D02*
X129133Y334908D01*
X126734Y335763D02*
X126584D01*
X126285Y335913D01*
X126135Y336063D01*
X125985Y336362D01*
Y336962D01*
X126135Y337262D01*
X126285Y337412D01*
X126584Y337562D01*
X126884D01*
X127184Y337412D01*
X127634Y337112D01*
X129133Y335613D01*
Y337712D01*
X126378Y211388D02*
X129527Y212588D01*
X126378Y213787D02*
X129527Y212588D01*
X126378Y214192D02*
X129527D01*
X126378D02*
Y215542D01*
X126528Y215991D01*
X126678Y216141D01*
X126978Y216291D01*
X127278D01*
X127578Y216141D01*
X127728Y215991D01*
X127878Y215542D01*
Y214192D01*
Y215242D02*
X129527Y216291D01*
X126978Y216996D02*
X126828Y217296D01*
X126378Y217746D01*
X129527D01*
X58324Y10952D02*
X58024Y10652D01*
X57874Y10203D01*
Y9603D01*
X58024Y9153D01*
X58324Y8853D01*
X58624D01*
X58924Y9003D01*
X59074Y9153D01*
X59224Y9453D01*
X59524Y10352D01*
X59674Y10652D01*
X59824Y10802D01*
X60124Y10952D01*
X60573D01*
X60873Y10652D01*
X61023Y10203D01*
Y9603D01*
X60873Y9153D01*
X60573Y8853D01*
X58474Y11657D02*
X58324Y11957D01*
X57874Y12407D01*
X61023D01*
X33114Y278149D02*
Y275000D01*
Y278149D02*
X34463D01*
X34913Y277999D01*
X35063Y277849D01*
X35213Y277550D01*
Y277250D01*
X35063Y276950D01*
X34913Y276800D01*
X34463Y276650D01*
X33114D01*
X34163D02*
X35213Y275000D01*
X36068Y277399D02*
Y277550D01*
X36218Y277849D01*
X36368Y277999D01*
X36668Y278149D01*
X37267D01*
X37567Y277999D01*
X37717Y277849D01*
X37867Y277550D01*
Y277250D01*
X37717Y276950D01*
X37417Y276500D01*
X35918Y275000D01*
X38017D01*
X40821Y278149D02*
X39322Y275000D01*
X38722Y278149D02*
X40821D01*
X33114Y306693D02*
Y303544D01*
Y306693D02*
X34463D01*
X34913Y306543D01*
X35063Y306393D01*
X35213Y306093D01*
Y305793D01*
X35063Y305493D01*
X34913Y305343D01*
X34463Y305193D01*
X33114D01*
X34163D02*
X35213Y303544D01*
X36068Y305943D02*
Y306093D01*
X36218Y306393D01*
X36368Y306543D01*
X36668Y306693D01*
X37267D01*
X37567Y306543D01*
X37717Y306393D01*
X37867Y306093D01*
Y305793D01*
X37717Y305493D01*
X37417Y305043D01*
X35918Y303544D01*
X38017D01*
X40221Y306693D02*
X38722Y304593D01*
X40971D01*
X40221Y306693D02*
Y303544D01*
X109646Y269768D02*
X112795D01*
X109646D02*
Y271118D01*
X109796Y271568D01*
X109946Y271718D01*
X110246Y271868D01*
X110546D01*
X110846Y271718D01*
X110995Y271568D01*
X111145Y271118D01*
Y269768D01*
Y270818D02*
X112795Y271868D01*
X110396Y272722D02*
X110246D01*
X109946Y272872D01*
X109796Y273022D01*
X109646Y273322D01*
Y273922D01*
X109796Y274222D01*
X109946Y274372D01*
X110246Y274522D01*
X110546D01*
X110846Y274372D01*
X111295Y274072D01*
X112795Y272572D01*
Y274672D01*
X109646Y276276D02*
X109796Y275826D01*
X110246Y275526D01*
X110995Y275377D01*
X111445D01*
X112195Y275526D01*
X112645Y275826D01*
X112795Y276276D01*
Y276576D01*
X112645Y277026D01*
X112195Y277326D01*
X111445Y277476D01*
X110995D01*
X110246Y277326D01*
X109796Y277026D01*
X109646Y276576D01*
Y276276D01*
X117323Y31827D02*
X120472D01*
X117323D02*
Y33176D01*
X117473Y33626D01*
X117623Y33776D01*
X117923Y33926D01*
X118223D01*
X118523Y33776D01*
X118673Y33626D01*
X118823Y33176D01*
Y31827D01*
Y32876D02*
X120472Y33926D01*
X117923Y34631D02*
X117773Y34931D01*
X117323Y35381D01*
X120472D01*
X117323Y37690D02*
X117473Y37240D01*
X117773Y37090D01*
X118073D01*
X118373Y37240D01*
X118523Y37540D01*
X118673Y38140D01*
X118823Y38590D01*
X119123Y38889D01*
X119422Y39039D01*
X119872D01*
X120172Y38889D01*
X120322Y38739D01*
X120472Y38290D01*
Y37690D01*
X120322Y37240D01*
X120172Y37090D01*
X119872Y36940D01*
X119422D01*
X119123Y37090D01*
X118823Y37390D01*
X118673Y37840D01*
X118523Y38440D01*
X118373Y38739D01*
X118073Y38889D01*
X117773D01*
X117473Y38739D01*
X117323Y38290D01*
Y37690D01*
X59588Y288142D02*
X59288Y287992D01*
X58988Y287692D01*
X58838Y287392D01*
X58688Y286942D01*
Y286192D01*
X58838Y285742D01*
X58988Y285443D01*
X59288Y285143D01*
X59588Y284993D01*
X60188D01*
X60488Y285143D01*
X60787Y285443D01*
X60937Y285742D01*
X61087Y286192D01*
Y286942D01*
X60937Y287392D01*
X60787Y287692D01*
X60488Y287992D01*
X60188Y288142D01*
X59588D01*
X60038Y285593D02*
X60937Y284693D01*
X62122Y288142D02*
X63771D01*
X62872Y286942D01*
X63322D01*
X63621Y286792D01*
X63771Y286642D01*
X63921Y286192D01*
Y285893D01*
X63771Y285443D01*
X63472Y285143D01*
X63022Y284993D01*
X62572D01*
X62122Y285143D01*
X61972Y285293D01*
X61822Y285593D01*
X59588Y322492D02*
X59288Y322342D01*
X58988Y322042D01*
X58838Y321742D01*
X58688Y321292D01*
Y320543D01*
X58838Y320093D01*
X58988Y319793D01*
X59288Y319493D01*
X59588Y319343D01*
X60188D01*
X60488Y319493D01*
X60787Y319793D01*
X60937Y320093D01*
X61087Y320543D01*
Y321292D01*
X60937Y321742D01*
X60787Y322042D01*
X60488Y322342D01*
X60188Y322492D01*
X59588D01*
X60038Y319943D02*
X60937Y319043D01*
X61822Y321892D02*
X62122Y322042D01*
X62572Y322492D01*
Y319343D01*
X85481Y267322D02*
Y264174D01*
X87280D01*
X89574Y267322D02*
X87625D01*
Y264174D01*
X89574D01*
X87625Y265823D02*
X88825D01*
X90099Y267322D02*
Y264174D01*
Y267322D02*
X91149D01*
X91599Y267173D01*
X91899Y266873D01*
X92049Y266573D01*
X92198Y266123D01*
Y265373D01*
X92049Y264923D01*
X91899Y264623D01*
X91599Y264323D01*
X91149Y264174D01*
X90099D01*
X92903Y266723D02*
X93203Y266873D01*
X93653Y267322D01*
Y264174D01*
X175673Y193307D02*
Y190908D01*
X175523Y190458D01*
X175373Y190308D01*
X175073Y190158D01*
X174774D01*
X174474Y190308D01*
X174324Y190458D01*
X174174Y190908D01*
Y191208D01*
X176783Y193307D02*
X178432D01*
X177533Y192107D01*
X177982D01*
X178282Y191957D01*
X178432Y191807D01*
X178582Y191357D01*
Y191058D01*
X178432Y190608D01*
X178132Y190308D01*
X177682Y190158D01*
X177233D01*
X176783Y190308D01*
X176633Y190458D01*
X176483Y190758D01*
X-311Y58661D02*
Y56262D01*
X-461Y55812D01*
X-611Y55662D01*
X-911Y55512D01*
X-1211D01*
X-1511Y55662D01*
X-1661Y55812D01*
X-1811Y56262D01*
Y56562D01*
X649Y57911D02*
Y58061D01*
X799Y58361D01*
X948Y58511D01*
X1248Y58661D01*
X1848D01*
X2148Y58511D01*
X2298Y58361D01*
X2448Y58061D01*
Y57761D01*
X2298Y57462D01*
X1998Y57012D01*
X499Y55512D01*
X2598D01*
X175561Y107086D02*
Y104687D01*
X175411Y104237D01*
X175261Y104087D01*
X174961Y103937D01*
X174661D01*
X174361Y104087D01*
X174211Y104237D01*
X174061Y104687D01*
Y104987D01*
X176370Y106486D02*
X176670Y106636D01*
X177120Y107086D01*
Y103937D01*
X33114Y284055D02*
Y280906D01*
Y284055D02*
X34163D01*
X34613Y283905D01*
X34913Y283605D01*
X35063Y283305D01*
X35213Y282855D01*
Y282105D01*
X35063Y281656D01*
X34913Y281356D01*
X34613Y281056D01*
X34163Y280906D01*
X33114D01*
X36668Y284055D02*
X36218Y283905D01*
X36068Y283605D01*
Y283305D01*
X36218Y283005D01*
X36518Y282855D01*
X37117Y282705D01*
X37567Y282555D01*
X37867Y282255D01*
X38017Y281956D01*
Y281506D01*
X37867Y281206D01*
X37717Y281056D01*
X37267Y280906D01*
X36668D01*
X36218Y281056D01*
X36068Y281206D01*
X35918Y281506D01*
Y281956D01*
X36068Y282255D01*
X36368Y282555D01*
X36818Y282705D01*
X37417Y282855D01*
X37717Y283005D01*
X37867Y283305D01*
Y283605D01*
X37717Y283905D01*
X37267Y284055D01*
X36668D01*
X33114Y312598D02*
Y309449D01*
Y312598D02*
X34163D01*
X34613Y312448D01*
X34913Y312148D01*
X35063Y311848D01*
X35213Y311399D01*
Y310649D01*
X35063Y310199D01*
X34913Y309899D01*
X34613Y309599D01*
X34163Y309449D01*
X33114D01*
X37717Y312148D02*
X37567Y312448D01*
X37117Y312598D01*
X36818D01*
X36368Y312448D01*
X36068Y311998D01*
X35918Y311248D01*
Y310499D01*
X36068Y309899D01*
X36368Y309599D01*
X36818Y309449D01*
X36968D01*
X37417Y309599D01*
X37717Y309899D01*
X37867Y310349D01*
Y310499D01*
X37717Y310949D01*
X37417Y311248D01*
X36968Y311399D01*
X36818D01*
X36368Y311248D01*
X36068Y310949D01*
X35918Y310499D01*
X-483Y277165D02*
Y274016D01*
Y277165D02*
X567D01*
X1016Y277015D01*
X1316Y276715D01*
X1466Y276415D01*
X1616Y275965D01*
Y275216D01*
X1466Y274766D01*
X1316Y274466D01*
X1016Y274166D01*
X567Y274016D01*
X-483D01*
X4120Y277165D02*
X2621D01*
X2471Y275816D01*
X2621Y275965D01*
X3071Y276115D01*
X3520D01*
X3970Y275965D01*
X4270Y275665D01*
X4420Y275216D01*
Y274916D01*
X4270Y274466D01*
X3970Y274166D01*
X3520Y274016D01*
X3071D01*
X2621Y274166D01*
X2471Y274316D01*
X2321Y274616D01*
X169718Y53740D02*
Y50591D01*
Y53740D02*
X170767D01*
X171217Y53590D01*
X171517Y53290D01*
X171667Y52990D01*
X171817Y52540D01*
Y51790D01*
X171667Y51341D01*
X171517Y51041D01*
X171217Y50741D01*
X170767Y50591D01*
X169718D01*
X174021Y53740D02*
X172521Y51640D01*
X174771D01*
X174021Y53740D02*
Y50591D01*
X133268Y13304D02*
X136417D01*
X133268D02*
Y14354D01*
X133418Y14804D01*
X133718Y15104D01*
X134018Y15254D01*
X134468Y15404D01*
X135217D01*
X135667Y15254D01*
X135967Y15104D01*
X136267Y14804D01*
X136417Y14354D01*
Y13304D01*
X133268Y16408D02*
Y18058D01*
X134468Y17158D01*
Y17608D01*
X134618Y17908D01*
X134767Y18058D01*
X135217Y18207D01*
X135517D01*
X135967Y18058D01*
X136267Y17758D01*
X136417Y17308D01*
Y16858D01*
X136267Y16408D01*
X136117Y16258D01*
X135817Y16108D01*
X166892Y290849D02*
X166592Y290699D01*
X166292Y290399D01*
X166142Y290099D01*
Y289499D01*
X166292Y289199D01*
X166592Y288899D01*
X166892Y288749D01*
X167342Y288599D01*
X168091D01*
X168541Y288749D01*
X168841Y288899D01*
X169141Y289199D01*
X169291Y289499D01*
Y290099D01*
X169141Y290399D01*
X168841Y290699D01*
X168541Y290849D01*
X166142Y292033D02*
Y293683D01*
X167342Y292783D01*
Y293233D01*
X167492Y293533D01*
X167642Y293683D01*
X168091Y293833D01*
X168391D01*
X168841Y293683D01*
X169141Y293383D01*
X169291Y292933D01*
Y292483D01*
X169141Y292033D01*
X168991Y291883D01*
X168691Y291733D01*
X166142Y296337D02*
Y294837D01*
X167492Y294687D01*
X167342Y294837D01*
X167192Y295287D01*
Y295737D01*
X167342Y296187D01*
X167642Y296487D01*
X168091Y296637D01*
X168391D01*
X168841Y296487D01*
X169141Y296187D01*
X169291Y295737D01*
Y295287D01*
X169141Y294837D01*
X168991Y294687D01*
X168691Y294537D01*
X35363Y271494D02*
X35213Y271794D01*
X34913Y272094D01*
X34613Y272244D01*
X34014D01*
X33714Y272094D01*
X33414Y271794D01*
X33264Y271494D01*
X33114Y271044D01*
Y270294D01*
X33264Y269845D01*
X33414Y269545D01*
X33714Y269245D01*
X34014Y269095D01*
X34613D01*
X34913Y269245D01*
X35213Y269545D01*
X35363Y269845D01*
X36398Y271494D02*
Y271644D01*
X36548Y271944D01*
X36698Y272094D01*
X36998Y272244D01*
X37597D01*
X37897Y272094D01*
X38047Y271944D01*
X38197Y271644D01*
Y271344D01*
X38047Y271044D01*
X37747Y270594D01*
X36248Y269095D01*
X38347D01*
X41001Y271194D02*
X40851Y270744D01*
X40551Y270444D01*
X40101Y270294D01*
X39952D01*
X39502Y270444D01*
X39202Y270744D01*
X39052Y271194D01*
Y271344D01*
X39202Y271794D01*
X39502Y272094D01*
X39952Y272244D01*
X40101D01*
X40551Y272094D01*
X40851Y271794D01*
X41001Y271194D01*
Y270444D01*
X40851Y269695D01*
X40551Y269245D01*
X40101Y269095D01*
X39801D01*
X39352Y269245D01*
X39202Y269545D01*
X35363Y300037D02*
X35213Y300337D01*
X34913Y300637D01*
X34613Y300787D01*
X34014D01*
X33714Y300637D01*
X33414Y300337D01*
X33264Y300037D01*
X33114Y299587D01*
Y298838D01*
X33264Y298388D01*
X33414Y298088D01*
X33714Y297788D01*
X34014Y297638D01*
X34613D01*
X34913Y297788D01*
X35213Y298088D01*
X35363Y298388D01*
X36398Y300037D02*
Y300187D01*
X36548Y300487D01*
X36698Y300637D01*
X36998Y300787D01*
X37597D01*
X37897Y300637D01*
X38047Y300487D01*
X38197Y300187D01*
Y299887D01*
X38047Y299587D01*
X37747Y299138D01*
X36248Y297638D01*
X38347D01*
X40851Y300337D02*
X40701Y300637D01*
X40251Y300787D01*
X39952D01*
X39502Y300637D01*
X39202Y300187D01*
X39052Y299437D01*
Y298688D01*
X39202Y298088D01*
X39502Y297788D01*
X39952Y297638D01*
X40101D01*
X40551Y297788D01*
X40851Y298088D01*
X41001Y298538D01*
Y298688D01*
X40851Y299138D01*
X40551Y299437D01*
X40101Y299587D01*
X39952D01*
X39502Y299437D01*
X39202Y299138D01*
X39052Y298688D01*
X171616Y15553D02*
X171316Y15404D01*
X171016Y15104D01*
X170867Y14804D01*
Y14204D01*
X171016Y13904D01*
X171316Y13604D01*
X171616Y13454D01*
X172066Y13304D01*
X172816D01*
X173266Y13454D01*
X173566Y13604D01*
X173865Y13904D01*
X174015Y14204D01*
Y14804D01*
X173865Y15104D01*
X173566Y15404D01*
X173266Y15553D01*
X171616Y16588D02*
X171466D01*
X171166Y16738D01*
X171016Y16888D01*
X170867Y17188D01*
Y17788D01*
X171016Y18088D01*
X171166Y18237D01*
X171466Y18387D01*
X171766D01*
X172066Y18237D01*
X172516Y17938D01*
X174015Y16438D01*
Y18537D01*
X170867Y20142D02*
X171016Y19692D01*
X171466Y19392D01*
X172216Y19242D01*
X172666D01*
X173416Y19392D01*
X173865Y19692D01*
X174015Y20142D01*
Y20442D01*
X173865Y20892D01*
X173416Y21192D01*
X172666Y21341D01*
X172216D01*
X171466Y21192D01*
X171016Y20892D01*
X170867Y20442D01*
Y20142D01*
X46813Y14301D02*
X46513Y14151D01*
X46213Y13851D01*
X46063Y13551D01*
Y12952D01*
X46213Y12652D01*
X46513Y12352D01*
X46813Y12202D01*
X47263Y12052D01*
X48013D01*
X48463Y12202D01*
X48762Y12352D01*
X49062Y12652D01*
X49212Y12952D01*
Y13551D01*
X49062Y13851D01*
X48762Y14151D01*
X48463Y14301D01*
X46663Y15186D02*
X46513Y15486D01*
X46063Y15935D01*
X49212D01*
X46513Y19294D02*
X46213Y19144D01*
X46063Y18695D01*
Y18395D01*
X46213Y17945D01*
X46663Y17645D01*
X47413Y17495D01*
X48163D01*
X48762Y17645D01*
X49062Y17945D01*
X49212Y18395D01*
Y18545D01*
X49062Y18994D01*
X48762Y19294D01*
X48313Y19444D01*
X48163D01*
X47713Y19294D01*
X47413Y18994D01*
X47263Y18545D01*
Y18395D01*
X47413Y17945D01*
X47713Y17645D01*
X48163Y17495D01*
X46813Y47616D02*
X46513Y47466D01*
X46213Y47166D01*
X46063Y46866D01*
Y46266D01*
X46213Y45966D01*
X46513Y45666D01*
X46813Y45516D01*
X47263Y45366D01*
X48013D01*
X48463Y45516D01*
X48762Y45666D01*
X49062Y45966D01*
X49212Y46266D01*
Y46866D01*
X49062Y47166D01*
X48762Y47466D01*
X48463Y47616D01*
X46663Y48500D02*
X46513Y48800D01*
X46063Y49250D01*
X49212D01*
X46063Y52309D02*
X48163Y50810D01*
Y53059D01*
X46063Y52309D02*
X49212D01*
D12*
X45472Y308957D02*
Y313090D01*
Y280413D02*
Y284547D01*
X137106Y46998D02*
Y57726D01*
D13*
X120484Y7055D02*
Y25055D01*
X131484Y7055D02*
Y25055D01*
D14*
X120984Y18555D02*
X130984D01*
D15*
X130976Y64677D02*
X188976D01*
X130976D02*
Y110177D01*
X188976D01*
D16*
X167978Y128674D02*
X167322Y129329D01*
X166010D01*
X165354Y128674D01*
Y128017D01*
X166010Y127362D01*
X167322D01*
X167978Y126706D01*
Y126050D01*
X167322Y125394D01*
X166010D01*
X165354Y126050D01*
X167978Y173949D02*
X167322Y174605D01*
X166010D01*
X165354Y173949D01*
Y173293D01*
X166010Y172637D01*
X167322D01*
X167978Y171981D01*
Y171325D01*
X167322Y170669D01*
X166010D01*
X165354Y171325D01*
X140551Y171063D02*
Y174999D01*
X142519D01*
X143175Y174343D01*
Y173031D01*
X142519Y172375D01*
X140551D01*
X141863D02*
X143175Y171063D01*
X136614Y124606D02*
Y128542D01*
X138582D01*
X139238Y127886D01*
Y126574D01*
X138582Y125918D01*
X136614D01*
X137926D02*
X139238Y124606D01*
X140550D02*
X143174Y127230D01*
X147109Y127886D02*
X146453Y128542D01*
X145142D01*
X144486Y127886D01*
Y125262D01*
X145142Y124606D01*
X146453D01*
X147109Y125262D01*
X110630Y128542D02*
X113254D01*
X111942D01*
Y124606D01*
X114566D02*
X117190Y127230D01*
X121125Y127886D02*
X120469Y128542D01*
X119157D01*
X118501Y127886D01*
Y125262D01*
X119157Y124606D01*
X120469D01*
X121125Y125262D01*
X115354Y174605D02*
X117978D01*
X116666D01*
Y170669D01*
X9187Y119161D02*
X9843Y118505D01*
X11155D01*
X11811Y119161D01*
Y119817D01*
X11155Y120473D01*
X9843D01*
X9187Y121129D01*
Y121785D01*
X9843Y122441D01*
X11155D01*
X11811Y121785D01*
X9187Y73886D02*
X9843Y73230D01*
X11155D01*
X11811Y73886D01*
Y74541D01*
X11155Y75197D01*
X9843D01*
X9187Y75853D01*
Y76509D01*
X9843Y77165D01*
X11155D01*
X11811Y76509D01*
X36614Y76772D02*
Y72836D01*
X34646D01*
X33990Y73492D01*
Y74804D01*
X34646Y75460D01*
X36614D01*
X35302D02*
X33990Y76772D01*
X40551Y123228D02*
Y119293D01*
X38583D01*
X37927Y119949D01*
Y121260D01*
X38583Y121916D01*
X40551D01*
X39239D02*
X37927Y123228D01*
X36615D02*
X33992Y120605D01*
X30056Y119949D02*
X30712Y119293D01*
X32024D01*
X32680Y119949D01*
Y122572D01*
X32024Y123228D01*
X30712D01*
X30056Y122572D01*
X66535Y119293D02*
X63912D01*
X65223D01*
Y123228D01*
X62600D02*
X59976Y120605D01*
X56040Y119949D02*
X56696Y119293D01*
X58008D01*
X58664Y119949D01*
Y122572D01*
X58008Y123228D01*
X56696D01*
X56040Y122572D01*
X61811Y73230D02*
X59187D01*
X60499D01*
Y77165D01*
M02*
