G04*
G04 #@! TF.GenerationSoftware,Altium Limited,Altium Designer,23.1.1 (15)*
G04*
G04 Layer_Color=2752767*
%FSLAX25Y25*%
%MOIN*%
G70*
G04*
G04 #@! TF.SameCoordinates,434D1FB9-1166-4A3C-A543-B38E0AA6253E*
G04*
G04*
G04 #@! TF.FilePolarity,Positive*
G04*
G01*
G75*
%ADD105C,0.00200*%
%ADD106C,0.00267*%
%ADD107C,0.00133*%
D105*
X35814Y255105D02*
Y256705D01*
X37414D01*
Y255105D01*
X35814D01*
X16129D02*
Y256705D01*
X17729D01*
Y255105D01*
X16129D01*
X35816Y207861D02*
Y209461D01*
X37416D01*
Y207861D01*
X35816D01*
X25972D02*
Y209461D01*
X27572D01*
Y207861D01*
X25972D01*
X16130D02*
Y209461D01*
X17730D01*
Y207861D01*
X16130D01*
X46845Y353932D02*
Y353532D01*
X47645D01*
Y353932D01*
X48045D01*
Y354732D01*
X47645D01*
Y355132D01*
X46845D01*
Y354732D01*
X46445D01*
Y353932D01*
X46845D01*
X16130Y324004D02*
Y325604D01*
X17730D01*
Y324004D01*
X16130D01*
X25973D02*
Y325604D01*
X27573D01*
Y324004D01*
X25973D01*
X35816D02*
Y325604D01*
X37416D01*
Y324004D01*
X35816D01*
X5900Y353932D02*
Y353532D01*
X6701D01*
Y353932D01*
X7101D01*
Y354732D01*
X6701D01*
Y355132D01*
X5900D01*
Y354732D01*
X5500D01*
Y353932D01*
X5900D01*
X170467D02*
Y353532D01*
X171267D01*
Y353932D01*
X171667D01*
Y354732D01*
X171267D01*
Y355132D01*
X170467D01*
Y354732D01*
X170067D01*
Y353932D01*
X170467D01*
X139752Y324004D02*
Y325604D01*
X141352D01*
Y324004D01*
X139752D01*
X149595D02*
Y325604D01*
X151195D01*
Y324004D01*
X149595D01*
X159438D02*
Y325604D01*
X161038D01*
Y324004D01*
X159438D01*
X129523Y353932D02*
Y353532D01*
X130323D01*
Y353932D01*
X130722D01*
Y354732D01*
X130323D01*
Y355132D01*
X129523D01*
Y354732D01*
X129122D01*
Y353932D01*
X129523D01*
Y231885D02*
Y231485D01*
X130323D01*
Y231885D01*
X130722D01*
Y232685D01*
X130323D01*
Y233085D01*
X129523D01*
Y232685D01*
X129122D01*
Y231885D01*
X129523D01*
X159438Y201957D02*
Y203557D01*
X161038D01*
Y201957D01*
X159438D01*
X149595D02*
Y203557D01*
X151195D01*
Y201957D01*
X149595D01*
X139752D02*
Y203557D01*
X141352D01*
Y201957D01*
X139752D01*
X170467Y231885D02*
Y231485D01*
X171267D01*
Y231885D01*
X171667D01*
Y232685D01*
X171267D01*
Y233085D01*
X170467D01*
Y232685D01*
X170067D01*
Y231885D01*
X170467D01*
X87795Y50775D02*
X86995Y52375D01*
X88595D01*
X87795Y50775D01*
Y51175D02*
X87395Y51975D01*
X88195D01*
X87795Y51175D01*
Y15342D02*
X86995Y16942D01*
X88595D01*
X87795Y15342D01*
Y15742D02*
X87395Y16542D01*
X88195D01*
X87795Y15742D01*
X78806Y224515D02*
X79206Y225315D01*
X78806Y226115D01*
X79606Y225715D01*
X80406Y226115D01*
X80006Y225315D01*
X80406Y224515D01*
X79606Y224915D01*
X78806Y224515D01*
Y234515D02*
X79206Y235315D01*
X78806Y236115D01*
X79606Y235715D01*
X80406Y236115D01*
X80006Y235315D01*
X80406Y234515D01*
X79606Y234915D01*
X78806Y234515D01*
X118806Y237015D02*
X119206Y237815D01*
X118806Y238615D01*
X119606Y238215D01*
X120406Y238615D01*
X120006Y237815D01*
X120406Y237015D01*
X119606Y237415D01*
X118806Y237015D01*
Y222015D02*
X119206Y222815D01*
X118806Y223615D01*
X119606Y223215D01*
X120406Y223615D01*
X120006Y222815D01*
X120406Y222015D01*
X119606Y222415D01*
X118806Y222015D01*
X92783Y274791D02*
X93183D01*
X93583Y275190D01*
X93983Y274791D01*
X94383D01*
Y275190D01*
X93983Y275590D01*
X94383Y275991D01*
Y276391D01*
X93983D01*
X93583Y275991D01*
X93183Y276391D01*
X92783D01*
Y275991D01*
X93183Y275590D01*
X92783Y275190D01*
Y274791D01*
X82783D02*
X83183D01*
X83583Y275190D01*
X83983Y274791D01*
X84383D01*
Y275190D01*
X83983Y275590D01*
X84383Y275991D01*
Y276391D01*
X83983D01*
X83583Y275991D01*
X83183Y276391D01*
X82783D01*
Y275991D01*
X83183Y275590D01*
X82783Y275190D01*
Y274791D01*
X116732Y117054D02*
X115932Y118654D01*
X117532D01*
X116732Y117054D01*
X166732D02*
X165932Y118654D01*
X167532D01*
X166732Y117054D01*
X141732D02*
X140932Y118654D01*
X142532D01*
X141732Y117054D01*
Y180952D02*
X140932Y182552D01*
X142532D01*
X141732Y180952D01*
X166732D02*
X165932Y182552D01*
X167532D01*
X166732Y180952D01*
X116732D02*
X115932Y182552D01*
X117532D01*
X116732Y180952D01*
X163779Y165735D02*
X164180Y166135D01*
X164579D01*
X164180Y166535D01*
X164579Y166935D01*
X164180D01*
X163779Y167335D01*
X163380Y166935D01*
X162979D01*
X163380Y166535D01*
X162979Y166135D01*
X163380D01*
X163779Y165735D01*
Y132271D02*
X164180Y132671D01*
X164579D01*
X164180Y133071D01*
X164579Y133471D01*
X164180D01*
X163779Y133871D01*
X163380Y133471D01*
X162979D01*
X163380Y133071D01*
X162979Y132671D01*
X163380D01*
X163779Y132271D01*
X60433Y129180D02*
X59633Y130780D01*
X61233D01*
X60433Y129180D01*
X10433D02*
X9633Y130780D01*
X11233D01*
X10433Y129180D01*
X35433D02*
X34633Y130780D01*
X36233D01*
X35433Y129180D01*
Y65283D02*
X34633Y66883D01*
X36233D01*
X35433Y65283D01*
X10433D02*
X9633Y66883D01*
X11233D01*
X10433Y65283D01*
X60433D02*
X59633Y66883D01*
X61233D01*
X60433Y65283D01*
X13386Y80499D02*
X13786Y80899D01*
X14186D01*
X13786Y81299D01*
X14186Y81699D01*
X13786D01*
X13386Y82099D01*
X12986Y81699D01*
X12586D01*
X12986Y81299D01*
X12586Y80899D01*
X12986D01*
X13386Y80499D01*
Y113964D02*
X13786Y114364D01*
X14186D01*
X13786Y114764D01*
X14186Y115164D01*
X13786D01*
X13386Y115564D01*
X12986Y115164D01*
X12586D01*
X12986Y114764D01*
X12586Y114364D01*
X12986D01*
X13386Y113964D01*
X138176Y82677D02*
X138976Y83477D01*
X139776Y82677D01*
X138976Y81877D01*
X138176Y82677D01*
X149987Y100381D02*
Y101981D01*
X151587D01*
Y100381D01*
X149987D01*
X150387Y100781D02*
Y101581D01*
X151187D01*
Y100781D01*
X150387D01*
X161798Y81877D02*
Y83477D01*
X163398D01*
Y81877D01*
X161798D01*
X162198Y82277D02*
Y83077D01*
X162998D01*
Y82277D01*
X162198D01*
X7861Y279358D02*
X8261Y280157D01*
X7861Y280958D01*
X8661Y280557D01*
X9461Y280958D01*
X9061Y280157D01*
X9461Y279358D01*
X8661Y279757D01*
X7861Y279358D01*
Y289357D02*
X8261Y290158D01*
X7861Y290957D01*
X8661Y290558D01*
X9461Y290957D01*
X9061Y290158D01*
X9461Y289357D01*
X8661Y289757D01*
X7861Y289357D01*
Y299358D02*
X8261Y300157D01*
X7861Y300957D01*
X8661Y300557D01*
X9461Y300957D01*
X9061Y300157D01*
X9461Y299358D01*
X8661Y299758D01*
X7861Y299358D01*
X153543Y243295D02*
X153943Y243694D01*
X154343D01*
X153943Y244094D01*
X154343Y244495D01*
X153943D01*
X153543Y244895D01*
X153143Y244495D01*
X152743D01*
X153143Y244094D01*
X152743Y243694D01*
X153143D01*
X153543Y243295D01*
Y243694D02*
X153743Y243895D01*
X153943D01*
X153743Y244094D01*
X153943Y244295D01*
X153743D01*
X153543Y244495D01*
X153343Y244295D01*
X153143D01*
X153343Y244094D01*
X153143Y243895D01*
X153343D01*
X153543Y243694D01*
X161417Y227546D02*
X161817Y227946D01*
X162217D01*
X161817Y228346D01*
X162217Y228746D01*
X161817D01*
X161417Y229146D01*
X161017Y228746D01*
X160617D01*
X161017Y228346D01*
X160617Y227946D01*
X161017D01*
X161417Y227546D01*
Y227946D02*
X161617Y228146D01*
X161817D01*
X161617Y228346D01*
X161817Y228546D01*
X161617D01*
X161417Y228746D01*
X161217Y228546D01*
X161017D01*
X161217Y228346D01*
X161017Y228146D01*
X161217D01*
X161417Y227946D01*
X98425Y70066D02*
X98825Y70466D01*
X99225D01*
X98825Y70866D01*
X99225Y71266D01*
X98825D01*
X98425Y71666D01*
X98025Y71266D01*
X97625D01*
X98025Y70866D01*
X97625Y70466D01*
X98025D01*
X98425Y70066D01*
Y70466D02*
X98625Y70666D01*
X98825D01*
X98625Y70866D01*
X98825Y71066D01*
X98625D01*
X98425Y71266D01*
X98225Y71066D01*
X98025D01*
X98225Y70866D01*
X98025Y70666D01*
X98225D01*
X98425Y70466D01*
X27559Y306287D02*
X27959Y306687D01*
X28359D01*
X27959Y307087D01*
X28359Y307487D01*
X27959D01*
X27559Y307887D01*
X27159Y307487D01*
X26759D01*
X27159Y307087D01*
X26759Y306687D01*
X27159D01*
X27559Y306287D01*
Y306687D02*
X27759Y306887D01*
X27959D01*
X27759Y307087D01*
X27959Y307287D01*
X27759D01*
X27559Y307487D01*
X27359Y307287D01*
X27159D01*
X27359Y307087D01*
X27159Y306887D01*
X27359D01*
X27559Y306687D01*
X122047Y148806D02*
X122447Y149206D01*
X122847D01*
X122447Y149606D01*
X122847Y150006D01*
X122447D01*
X122047Y150406D01*
X121647Y150006D01*
X121247D01*
X121647Y149606D01*
X121247Y149206D01*
X121647D01*
X122047Y148806D01*
Y149206D02*
X122247Y149406D01*
X122447D01*
X122247Y149606D01*
X122447Y149806D01*
X122247D01*
X122047Y150006D01*
X121847Y149806D01*
X121647D01*
X121847Y149606D01*
X121647Y149406D01*
X121847D01*
X122047Y149206D01*
X169291Y211798D02*
X169691Y212198D01*
X170091D01*
X169691Y212598D01*
X170091Y212998D01*
X169691D01*
X169291Y213398D01*
X168891Y212998D01*
X168491D01*
X168891Y212598D01*
X168491Y212198D01*
X168891D01*
X169291Y211798D01*
Y212198D02*
X169491Y212398D01*
X169691D01*
X169491Y212598D01*
X169691Y212798D01*
X169491D01*
X169291Y212998D01*
X169091Y212798D01*
X168891D01*
X169091Y212598D01*
X168891Y212398D01*
X169091D01*
X169291Y212198D01*
X74803Y54318D02*
X75203Y54718D01*
X75603D01*
X75203Y55118D01*
X75603Y55518D01*
X75203D01*
X74803Y55918D01*
X74403Y55518D01*
X74003D01*
X74403Y55118D01*
X74003Y54718D01*
X74403D01*
X74803Y54318D01*
Y54718D02*
X75003Y54918D01*
X75203D01*
X75003Y55118D01*
X75203Y55318D01*
X75003D01*
X74803Y55518D01*
X74603Y55318D01*
X74403D01*
X74603Y55118D01*
X74403Y54918D01*
X74603D01*
X74803Y54718D01*
X11811Y85814D02*
X12211Y86214D01*
X12611D01*
X12211Y86614D01*
X12611Y87014D01*
X12211D01*
X11811Y87414D01*
X11411Y87014D01*
X11011D01*
X11411Y86614D01*
X11011Y86214D01*
X11411D01*
X11811Y85814D01*
Y86214D02*
X12011Y86414D01*
X12211D01*
X12011Y86614D01*
X12211Y86814D01*
X12011D01*
X11811Y87014D01*
X11611Y86814D01*
X11411D01*
X11611Y86614D01*
X11411Y86414D01*
X11611D01*
X11811Y86214D01*
X145669Y164554D02*
X146069Y164954D01*
X146469D01*
X146069Y165354D01*
X146469Y165754D01*
X146069D01*
X145669Y166154D01*
X145269Y165754D01*
X144869D01*
X145269Y165354D01*
X144869Y164954D01*
X145269D01*
X145669Y164554D01*
Y164954D02*
X145869Y165154D01*
X146069D01*
X145869Y165354D01*
X146069Y165554D01*
X145869D01*
X145669Y165754D01*
X145469Y165554D01*
X145269D01*
X145469Y165354D01*
X145269Y165154D01*
X145469D01*
X145669Y164954D01*
X169291Y306287D02*
X169691Y306687D01*
X170091D01*
X169691Y307087D01*
X170091Y307487D01*
X169691D01*
X169291Y307887D01*
X168891Y307487D01*
X168491D01*
X168891Y307087D01*
X168491Y306687D01*
X168891D01*
X169291Y306287D01*
Y306687D02*
X169491Y306887D01*
X169691D01*
X169491Y307087D01*
X169691Y307287D01*
X169491D01*
X169291Y307487D01*
X169091Y307287D01*
X168891D01*
X169091Y307087D01*
X168891Y306887D01*
X169091D01*
X169291Y306687D01*
X126411Y66556D02*
X126811Y66956D01*
X127211D01*
X126811Y67356D01*
X127211Y67756D01*
X126811D01*
X126411Y68156D01*
X126011Y67756D01*
X125611D01*
X126011Y67356D01*
X125611Y66956D01*
X126011D01*
X126411Y66556D01*
Y66956D02*
X126611Y67156D01*
X126811D01*
X126611Y67356D01*
X126811Y67556D01*
X126611D01*
X126411Y67756D01*
X126211Y67556D01*
X126011D01*
X126211Y67356D01*
X126011Y67156D01*
X126211D01*
X126411Y66956D01*
X153543Y211798D02*
X153943Y212198D01*
X154343D01*
X153943Y212598D01*
X154343Y212998D01*
X153943D01*
X153543Y213398D01*
X153143Y212998D01*
X152743D01*
X153143Y212598D01*
X152743Y212198D01*
X153143D01*
X153543Y211798D01*
Y212198D02*
X153743Y212398D01*
X153943D01*
X153743Y212598D01*
X153943Y212798D01*
X153743D01*
X153543Y212998D01*
X153343Y212798D01*
X153143D01*
X153343Y212598D01*
X153143Y212398D01*
X153343D01*
X153543Y212198D01*
X137795Y148806D02*
X138195Y149206D01*
X138595D01*
X138195Y149606D01*
X138595Y150006D01*
X138195D01*
X137795Y150406D01*
X137395Y150006D01*
X136995D01*
X137395Y149606D01*
X136995Y149206D01*
X137395D01*
X137795Y148806D01*
Y149206D02*
X137995Y149406D01*
X138195D01*
X137995Y149606D01*
X138195Y149806D01*
X137995D01*
X137795Y150006D01*
X137595Y149806D01*
X137395D01*
X137595Y149606D01*
X137395Y149406D01*
X137595D01*
X137795Y149206D01*
X145669Y133058D02*
X146069Y133458D01*
X146469D01*
X146069Y133858D01*
X146469Y134258D01*
X146069D01*
X145669Y134658D01*
X145269Y134258D01*
X144869D01*
X145269Y133858D01*
X144869Y133458D01*
X145269D01*
X145669Y133058D01*
Y133458D02*
X145869Y133658D01*
X146069D01*
X145869Y133858D01*
X146069Y134058D01*
X145869D01*
X145669Y134258D01*
X145469Y134058D01*
X145269D01*
X145469Y133858D01*
X145269Y133658D01*
X145469D01*
X145669Y133458D01*
X106299Y180302D02*
X106699Y180702D01*
X107099D01*
X106699Y181102D01*
X107099Y181502D01*
X106699D01*
X106299Y181902D01*
X105899Y181502D01*
X105499D01*
X105899Y181102D01*
X105499Y180702D01*
X105899D01*
X106299Y180302D01*
Y180702D02*
X106499Y180902D01*
X106699D01*
X106499Y181102D01*
X106699Y181302D01*
X106499D01*
X106299Y181502D01*
X106099Y181302D01*
X105899D01*
X106099Y181102D01*
X105899Y180902D01*
X106099D01*
X106299Y180702D01*
X59055Y274791D02*
X59455Y275190D01*
X59855D01*
X59455Y275590D01*
X59855Y275991D01*
X59455D01*
X59055Y276391D01*
X58655Y275991D01*
X58255D01*
X58655Y275590D01*
X58255Y275190D01*
X58655D01*
X59055Y274791D01*
Y275190D02*
X59255Y275391D01*
X59455D01*
X59255Y275590D01*
X59455Y275791D01*
X59255D01*
X59055Y275991D01*
X58855Y275791D01*
X58655D01*
X58855Y275590D01*
X58655Y275391D01*
X58855D01*
X59055Y275190D01*
X169291Y148806D02*
X169691Y149206D01*
X170091D01*
X169691Y149606D01*
X170091Y150006D01*
X169691D01*
X169291Y150406D01*
X168891Y150006D01*
X168491D01*
X168891Y149606D01*
X168491Y149206D01*
X168891D01*
X169291Y148806D01*
Y149206D02*
X169491Y149406D01*
X169691D01*
X169491Y149606D01*
X169691Y149806D01*
X169491D01*
X169291Y150006D01*
X169091Y149806D01*
X168891D01*
X169091Y149606D01*
X168891Y149406D01*
X169091D01*
X169291Y149206D01*
X98425Y259043D02*
X98825Y259442D01*
X99225D01*
X98825Y259842D01*
X99225Y260243D01*
X98825D01*
X98425Y260643D01*
X98025Y260243D01*
X97625D01*
X98025Y259842D01*
X97625Y259442D01*
X98025D01*
X98425Y259043D01*
Y259442D02*
X98625Y259643D01*
X98825D01*
X98625Y259842D01*
X98825Y260043D01*
X98625D01*
X98425Y260243D01*
X98225Y260043D01*
X98025D01*
X98225Y259842D01*
X98025Y259643D01*
X98225D01*
X98425Y259442D01*
X122047Y243295D02*
X122447Y243694D01*
X122847D01*
X122447Y244094D01*
X122847Y244495D01*
X122447D01*
X122047Y244895D01*
X121647Y244495D01*
X121247D01*
X121647Y244094D01*
X121247Y243694D01*
X121647D01*
X122047Y243295D01*
Y243694D02*
X122247Y243895D01*
X122447D01*
X122247Y244094D01*
X122447Y244295D01*
X122247D01*
X122047Y244495D01*
X121847Y244295D01*
X121647D01*
X121847Y244094D01*
X121647Y243895D01*
X121847D01*
X122047Y243694D01*
X35433Y353531D02*
X35833Y353931D01*
X36233D01*
X35833Y354331D01*
X36233Y354731D01*
X35833D01*
X35433Y355131D01*
X35033Y354731D01*
X34633D01*
X35033Y354331D01*
X34633Y353931D01*
X35033D01*
X35433Y353531D01*
Y353931D02*
X35633Y354131D01*
X35833D01*
X35633Y354331D01*
X35833Y354531D01*
X35633D01*
X35433Y354731D01*
X35233Y354531D01*
X35033D01*
X35233Y354331D01*
X35033Y354131D01*
X35233D01*
X35433Y353931D01*
X82677Y7074D02*
X83077Y7474D01*
X83477D01*
X83077Y7874D01*
X83477Y8274D01*
X83077D01*
X82677Y8674D01*
X82277Y8274D01*
X81877D01*
X82277Y7874D01*
X81877Y7474D01*
X82277D01*
X82677Y7074D01*
Y7474D02*
X82877Y7674D01*
X83077D01*
X82877Y7874D01*
X83077Y8074D01*
X82877D01*
X82677Y8274D01*
X82477Y8074D01*
X82277D01*
X82477Y7874D01*
X82277Y7674D01*
X82477D01*
X82677Y7474D01*
X19685Y290539D02*
X20085Y290938D01*
X20485D01*
X20085Y291338D01*
X20485Y291739D01*
X20085D01*
X19685Y292139D01*
X19285Y291739D01*
X18885D01*
X19285Y291338D01*
X18885Y290938D01*
X19285D01*
X19685Y290539D01*
Y290938D02*
X19885Y291139D01*
X20085D01*
X19885Y291338D01*
X20085Y291539D01*
X19885D01*
X19685Y291739D01*
X19485Y291539D01*
X19285D01*
X19485Y291338D01*
X19285Y291139D01*
X19485D01*
X19685Y290938D01*
Y101562D02*
X20085Y101962D01*
X20485D01*
X20085Y102362D01*
X20485Y102762D01*
X20085D01*
X19685Y103162D01*
X19285Y102762D01*
X18885D01*
X19285Y102362D01*
X18885Y101962D01*
X19285D01*
X19685Y101562D01*
Y101962D02*
X19885Y102162D01*
X20085D01*
X19885Y102362D01*
X20085Y102562D01*
X19885D01*
X19685Y102762D01*
X19485Y102562D01*
X19285D01*
X19485Y102362D01*
X19285Y102162D01*
X19485D01*
X19685Y101962D01*
X98425Y38570D02*
X98825Y38970D01*
X99225D01*
X98825Y39370D01*
X99225Y39770D01*
X98825D01*
X98425Y40170D01*
X98025Y39770D01*
X97625D01*
X98025Y39370D01*
X97625Y38970D01*
X98025D01*
X98425Y38570D01*
Y38970D02*
X98625Y39170D01*
X98825D01*
X98625Y39370D01*
X98825Y39570D01*
X98625D01*
X98425Y39770D01*
X98225Y39570D01*
X98025D01*
X98225Y39370D01*
X98025Y39170D01*
X98225D01*
X98425Y38970D01*
X82677Y38570D02*
X83077Y38970D01*
X83477D01*
X83077Y39370D01*
X83477Y39770D01*
X83077D01*
X82677Y40170D01*
X82277Y39770D01*
X81877D01*
X82277Y39370D01*
X81877Y38970D01*
X82277D01*
X82677Y38570D01*
Y38970D02*
X82877Y39170D01*
X83077D01*
X82877Y39370D01*
X83077Y39570D01*
X82877D01*
X82677Y39770D01*
X82477Y39570D01*
X82277D01*
X82477Y39370D01*
X82277Y39170D01*
X82477D01*
X82677Y38970D01*
X11811Y243295D02*
X12211Y243694D01*
X12611D01*
X12211Y244094D01*
X12611Y244495D01*
X12211D01*
X11811Y244895D01*
X11411Y244495D01*
X11011D01*
X11411Y244094D01*
X11011Y243694D01*
X11411D01*
X11811Y243295D01*
Y243694D02*
X12011Y243895D01*
X12211D01*
X12011Y244094D01*
X12211Y244295D01*
X12011D01*
X11811Y244495D01*
X11611Y244295D01*
X11411D01*
X11611Y244094D01*
X11411Y243895D01*
X11611D01*
X11811Y243694D01*
X3937Y101562D02*
X4337Y101962D01*
X4737D01*
X4337Y102362D01*
X4737Y102762D01*
X4337D01*
X3937Y103162D01*
X3537Y102762D01*
X3137D01*
X3537Y102362D01*
X3137Y101962D01*
X3537D01*
X3937Y101562D01*
Y101962D02*
X4137Y102162D01*
X4337D01*
X4137Y102362D01*
X4337Y102562D01*
X4137D01*
X3937Y102762D01*
X3737Y102562D01*
X3537D01*
X3737Y102362D01*
X3537Y102162D01*
X3737D01*
X3937Y101962D01*
X114173Y227546D02*
X114573Y227946D01*
X114973D01*
X114573Y228346D01*
X114973Y228746D01*
X114573D01*
X114173Y229146D01*
X113773Y228746D01*
X113373D01*
X113773Y228346D01*
X113373Y227946D01*
X113773D01*
X114173Y227546D01*
Y227946D02*
X114373Y228146D01*
X114573D01*
X114373Y228346D01*
X114573Y228546D01*
X114373D01*
X114173Y228746D01*
X113973Y228546D01*
X113773D01*
X113973Y228346D01*
X113773Y228146D01*
X113973D01*
X114173Y227946D01*
X145669Y353531D02*
X146069Y353931D01*
X146469D01*
X146069Y354331D01*
X146469Y354731D01*
X146069D01*
X145669Y355131D01*
X145269Y354731D01*
X144869D01*
X145269Y354331D01*
X144869Y353931D01*
X145269D01*
X145669Y353531D01*
Y353931D02*
X145869Y354131D01*
X146069D01*
X145869Y354331D01*
X146069Y354531D01*
X145869D01*
X145669Y354731D01*
X145469Y354531D01*
X145269D01*
X145469Y354331D01*
X145269Y354131D01*
X145469D01*
X145669Y353931D01*
X11811Y306287D02*
X12211Y306687D01*
X12611D01*
X12211Y307087D01*
X12611Y307487D01*
X12211D01*
X11811Y307887D01*
X11411Y307487D01*
X11011D01*
X11411Y307087D01*
X11011Y306687D01*
X11411D01*
X11811Y306287D01*
Y306687D02*
X12011Y306887D01*
X12211D01*
X12011Y307087D01*
X12211Y307287D01*
X12011D01*
X11811Y307487D01*
X11611Y307287D01*
X11411D01*
X11611Y307087D01*
X11411Y306887D01*
X11611D01*
X11811Y306687D01*
X145669Y227546D02*
X146069Y227946D01*
X146469D01*
X146069Y228346D01*
X146469Y228746D01*
X146069D01*
X145669Y229146D01*
X145269Y228746D01*
X144869D01*
X145269Y228346D01*
X144869Y227946D01*
X145269D01*
X145669Y227546D01*
Y227946D02*
X145869Y228146D01*
X146069D01*
X145869Y228346D01*
X146069Y228546D01*
X145869D01*
X145669Y228746D01*
X145469Y228546D01*
X145269D01*
X145469Y228346D01*
X145269Y228146D01*
X145469D01*
X145669Y227946D01*
X153543Y274791D02*
X153943Y275190D01*
X154343D01*
X153943Y275590D01*
X154343Y275991D01*
X153943D01*
X153543Y276391D01*
X153143Y275991D01*
X152743D01*
X153143Y275590D01*
X152743Y275190D01*
X153143D01*
X153543Y274791D01*
Y275190D02*
X153743Y275391D01*
X153943D01*
X153743Y275590D01*
X153943Y275791D01*
X153743D01*
X153543Y275991D01*
X153343Y275791D01*
X153143D01*
X153343Y275590D01*
X153143Y275391D01*
X153343D01*
X153543Y275190D01*
X114173Y259043D02*
X114573Y259442D01*
X114973D01*
X114573Y259842D01*
X114973Y260243D01*
X114573D01*
X114173Y260643D01*
X113773Y260243D01*
X113373D01*
X113773Y259842D01*
X113373Y259442D01*
X113773D01*
X114173Y259043D01*
Y259442D02*
X114373Y259643D01*
X114573D01*
X114373Y259842D01*
X114573Y260043D01*
X114373D01*
X114173Y260243D01*
X113973Y260043D01*
X113773D01*
X113973Y259842D01*
X113773Y259643D01*
X113973D01*
X114173Y259442D01*
X19685Y70066D02*
X20085Y70466D01*
X20485D01*
X20085Y70866D01*
X20485Y71266D01*
X20085D01*
X19685Y71666D01*
X19285Y71266D01*
X18885D01*
X19285Y70866D01*
X18885Y70466D01*
X19285D01*
X19685Y70066D01*
Y70466D02*
X19885Y70666D01*
X20085D01*
X19885Y70866D01*
X20085Y71066D01*
X19885D01*
X19685Y71266D01*
X19485Y71066D01*
X19285D01*
X19485Y70866D01*
X19285Y70666D01*
X19485D01*
X19685Y70466D01*
X114173Y7074D02*
X114573Y7474D01*
X114973D01*
X114573Y7874D01*
X114973Y8274D01*
X114573D01*
X114173Y8674D01*
X113773Y8274D01*
X113373D01*
X113773Y7874D01*
X113373Y7474D01*
X113773D01*
X114173Y7074D01*
Y7474D02*
X114373Y7674D01*
X114573D01*
X114373Y7874D01*
X114573Y8074D01*
X114373D01*
X114173Y8274D01*
X113973Y8074D01*
X113773D01*
X113973Y7874D01*
X113773Y7674D01*
X113973D01*
X114173Y7474D01*
X106299Y211798D02*
X106699Y212198D01*
X107099D01*
X106699Y212598D01*
X107099Y212998D01*
X106699D01*
X106299Y213398D01*
X105899Y212998D01*
X105499D01*
X105899Y212598D01*
X105499Y212198D01*
X105899D01*
X106299Y211798D01*
Y212198D02*
X106499Y212398D01*
X106699D01*
X106499Y212598D01*
X106699Y212798D01*
X106499D01*
X106299Y212998D01*
X106099Y212798D01*
X105899D01*
X106099Y212598D01*
X105899Y212398D01*
X106099D01*
X106299Y212198D01*
X43307Y85814D02*
X43707Y86214D01*
X44107D01*
X43707Y86614D01*
X44107Y87014D01*
X43707D01*
X43307Y87414D01*
X42907Y87014D01*
X42507D01*
X42907Y86614D01*
X42507Y86214D01*
X42907D01*
X43307Y85814D01*
Y86214D02*
X43507Y86414D01*
X43707D01*
X43507Y86614D01*
X43707Y86814D01*
X43507D01*
X43307Y87014D01*
X43107Y86814D01*
X42907D01*
X43107Y86614D01*
X42907Y86414D01*
X43107D01*
X43307Y86214D01*
X137795Y243295D02*
X138195Y243694D01*
X138595D01*
X138195Y244094D01*
X138595Y244495D01*
X138195D01*
X137795Y244895D01*
X137395Y244495D01*
X136995D01*
X137395Y244094D01*
X136995Y243694D01*
X137395D01*
X137795Y243295D01*
Y243694D02*
X137995Y243895D01*
X138195D01*
X137995Y244094D01*
X138195Y244295D01*
X137995D01*
X137795Y244495D01*
X137595Y244295D01*
X137395D01*
X137595Y244094D01*
X137395Y243895D01*
X137595D01*
X137795Y243694D01*
X43307Y306287D02*
X43707Y306687D01*
X44107D01*
X43707Y307087D01*
X44107Y307487D01*
X43707D01*
X43307Y307887D01*
X42907Y307487D01*
X42507D01*
X42907Y307087D01*
X42507Y306687D01*
X42907D01*
X43307Y306287D01*
Y306687D02*
X43507Y306887D01*
X43707D01*
X43507Y307087D01*
X43707Y307287D01*
X43507D01*
X43307Y307487D01*
X43107Y307287D01*
X42907D01*
X43107Y307087D01*
X42907Y306887D01*
X43107D01*
X43307Y306687D01*
Y54318D02*
X43707Y54718D01*
X44107D01*
X43707Y55118D01*
X44107Y55518D01*
X43707D01*
X43307Y55918D01*
X42907Y55518D01*
X42507D01*
X42907Y55118D01*
X42507Y54718D01*
X42907D01*
X43307Y54318D01*
Y54718D02*
X43507Y54918D01*
X43707D01*
X43507Y55118D01*
X43707Y55318D01*
X43507D01*
X43307Y55518D01*
X43107Y55318D01*
X42907D01*
X43107Y55118D01*
X42907Y54918D01*
X43107D01*
X43307Y54718D01*
X51181Y7074D02*
X51581Y7474D01*
X51981D01*
X51581Y7874D01*
X51981Y8274D01*
X51581D01*
X51181Y8674D01*
X50781Y8274D01*
X50381D01*
X50781Y7874D01*
X50381Y7474D01*
X50781D01*
X51181Y7074D01*
Y7474D02*
X51381Y7674D01*
X51581D01*
X51381Y7874D01*
X51581Y8074D01*
X51381D01*
X51181Y8274D01*
X50981Y8074D01*
X50781D01*
X50981Y7874D01*
X50781Y7674D01*
X50981D01*
X51181Y7474D01*
X145669Y7074D02*
X146069Y7474D01*
X146469D01*
X146069Y7874D01*
X146469Y8274D01*
X146069D01*
X145669Y8674D01*
X145269Y8274D01*
X144869D01*
X145269Y7874D01*
X144869Y7474D01*
X145269D01*
X145669Y7074D01*
Y7474D02*
X145869Y7674D01*
X146069D01*
X145869Y7874D01*
X146069Y8074D01*
X145869D01*
X145669Y8274D01*
X145469Y8074D01*
X145269D01*
X145469Y7874D01*
X145269Y7674D01*
X145469D01*
X145669Y7474D01*
X27559Y274791D02*
X27959Y275190D01*
X28359D01*
X27959Y275590D01*
X28359Y275991D01*
X27959D01*
X27559Y276391D01*
X27159Y275991D01*
X26759D01*
X27159Y275590D01*
X26759Y275190D01*
X27159D01*
X27559Y274791D01*
Y275190D02*
X27759Y275391D01*
X27959D01*
X27759Y275590D01*
X27959Y275791D01*
X27759D01*
X27559Y275991D01*
X27359Y275791D01*
X27159D01*
X27359Y275590D01*
X27159Y275391D01*
X27359D01*
X27559Y275190D01*
X98425Y7074D02*
X98825Y7474D01*
X99225D01*
X98825Y7874D01*
X99225Y8274D01*
X98825D01*
X98425Y8674D01*
X98025Y8274D01*
X97625D01*
X98025Y7874D01*
X97625Y7474D01*
X98025D01*
X98425Y7074D01*
Y7474D02*
X98625Y7674D01*
X98825D01*
X98625Y7874D01*
X98825Y8074D01*
X98625D01*
X98425Y8274D01*
X98225Y8074D01*
X98025D01*
X98225Y7874D01*
X98025Y7674D01*
X98225D01*
X98425Y7474D01*
X114173Y353531D02*
X114573Y353931D01*
X114973D01*
X114573Y354331D01*
X114973Y354731D01*
X114573D01*
X114173Y355131D01*
X113773Y354731D01*
X113373D01*
X113773Y354331D01*
X113373Y353931D01*
X113773D01*
X114173Y353531D01*
Y353931D02*
X114373Y354131D01*
X114573D01*
X114373Y354331D01*
X114573Y354531D01*
X114373D01*
X114173Y354731D01*
X113973Y354531D01*
X113773D01*
X113973Y354331D01*
X113773Y354131D01*
X113973D01*
X114173Y353931D01*
X19685Y227546D02*
X20085Y227946D01*
X20485D01*
X20085Y228346D01*
X20485Y228746D01*
X20085D01*
X19685Y229146D01*
X19285Y228746D01*
X18885D01*
X19285Y228346D01*
X18885Y227946D01*
X19285D01*
X19685Y227546D01*
Y227946D02*
X19885Y228146D01*
X20085D01*
X19885Y228346D01*
X20085Y228546D01*
X19885D01*
X19685Y228746D01*
X19485Y228546D01*
X19285D01*
X19485Y228346D01*
X19285Y228146D01*
X19485D01*
X19685Y227946D01*
X27559Y148806D02*
X27959Y149206D01*
X28359D01*
X27959Y149606D01*
X28359Y150006D01*
X27959D01*
X27559Y150406D01*
X27159Y150006D01*
X26759D01*
X27159Y149606D01*
X26759Y149206D01*
X27159D01*
X27559Y148806D01*
Y149206D02*
X27759Y149406D01*
X27959D01*
X27759Y149606D01*
X27959Y149806D01*
X27759D01*
X27559Y150006D01*
X27359Y149806D01*
X27159D01*
X27359Y149606D01*
X27159Y149406D01*
X27359D01*
X27559Y149206D01*
X153543Y117310D02*
X153943Y117710D01*
X154343D01*
X153943Y118110D01*
X154343Y118510D01*
X153943D01*
X153543Y118910D01*
X153143Y118510D01*
X152743D01*
X153143Y118110D01*
X152743Y117710D01*
X153143D01*
X153543Y117310D01*
Y117710D02*
X153743Y117910D01*
X153943D01*
X153743Y118110D01*
X153943Y118310D01*
X153743D01*
X153543Y118510D01*
X153343Y118310D01*
X153143D01*
X153343Y118110D01*
X153143Y117910D01*
X153343D01*
X153543Y117710D01*
X51181Y227546D02*
X51581Y227946D01*
X51981D01*
X51581Y228346D01*
X51981Y228746D01*
X51581D01*
X51181Y229146D01*
X50781Y228746D01*
X50381D01*
X50781Y228346D01*
X50381Y227946D01*
X50781D01*
X51181Y227546D01*
Y227946D02*
X51381Y228146D01*
X51581D01*
X51381Y228346D01*
X51581Y228546D01*
X51381D01*
X51181Y228746D01*
X50981Y228546D01*
X50781D01*
X50981Y228346D01*
X50781Y228146D01*
X50981D01*
X51181Y227946D01*
X122047Y337783D02*
X122447Y338183D01*
X122847D01*
X122447Y338583D01*
X122847Y338983D01*
X122447D01*
X122047Y339383D01*
X121647Y338983D01*
X121247D01*
X121647Y338583D01*
X121247Y338183D01*
X121647D01*
X122047Y337783D01*
Y338183D02*
X122247Y338383D01*
X122447D01*
X122247Y338583D01*
X122447Y338783D01*
X122247D01*
X122047Y338983D01*
X121847Y338783D01*
X121647D01*
X121847Y338583D01*
X121647Y338383D01*
X121847D01*
X122047Y338183D01*
X106299Y54318D02*
X106699Y54718D01*
X107099D01*
X106699Y55118D01*
X107099Y55518D01*
X106699D01*
X106299Y55918D01*
X105899Y55518D01*
X105499D01*
X105899Y55118D01*
X105499Y54718D01*
X105899D01*
X106299Y54318D01*
Y54718D02*
X106499Y54918D01*
X106699D01*
X106499Y55118D01*
X106699Y55318D01*
X106499D01*
X106299Y55518D01*
X106099Y55318D01*
X105899D01*
X106099Y55118D01*
X105899Y54918D01*
X106099D01*
X106299Y54718D01*
X90551Y243295D02*
X90951Y243694D01*
X91351D01*
X90951Y244094D01*
X91351Y244495D01*
X90951D01*
X90551Y244895D01*
X90151Y244495D01*
X89751D01*
X90151Y244094D01*
X89751Y243694D01*
X90151D01*
X90551Y243295D01*
Y243694D02*
X90751Y243895D01*
X90951D01*
X90751Y244094D01*
X90951Y244295D01*
X90751D01*
X90551Y244495D01*
X90351Y244295D01*
X90151D01*
X90351Y244094D01*
X90151Y243895D01*
X90351D01*
X90551Y243694D01*
X74803Y211798D02*
X75203Y212198D01*
X75603D01*
X75203Y212598D01*
X75603Y212998D01*
X75203D01*
X74803Y213398D01*
X74403Y212998D01*
X74003D01*
X74403Y212598D01*
X74003Y212198D01*
X74403D01*
X74803Y211798D01*
Y212198D02*
X75003Y212398D01*
X75203D01*
X75003Y212598D01*
X75203Y212798D01*
X75003D01*
X74803Y212998D01*
X74603Y212798D01*
X74403D01*
X74603Y212598D01*
X74403Y212398D01*
X74603D01*
X74803Y212198D01*
X11811Y274791D02*
X12211Y275190D01*
X12611D01*
X12211Y275590D01*
X12611Y275991D01*
X12211D01*
X11811Y276391D01*
X11411Y275991D01*
X11011D01*
X11411Y275590D01*
X11011Y275190D01*
X11411D01*
X11811Y274791D01*
Y275190D02*
X12011Y275391D01*
X12211D01*
X12011Y275590D01*
X12211Y275791D01*
X12011D01*
X11811Y275991D01*
X11611Y275791D01*
X11411D01*
X11611Y275590D01*
X11411Y275391D01*
X11611D01*
X11811Y275190D01*
X145669Y70066D02*
X146069Y70466D01*
X146469D01*
X146069Y70866D01*
X146469Y71266D01*
X146069D01*
X145669Y71666D01*
X145269Y71266D01*
X144869D01*
X145269Y70866D01*
X144869Y70466D01*
X145269D01*
X145669Y70066D01*
Y70466D02*
X145869Y70666D01*
X146069D01*
X145869Y70866D01*
X146069Y71066D01*
X145869D01*
X145669Y71266D01*
X145469Y71066D01*
X145269D01*
X145469Y70866D01*
X145269Y70666D01*
X145469D01*
X145669Y70466D01*
X66929Y7074D02*
X67329Y7474D01*
X67729D01*
X67329Y7874D01*
X67729Y8274D01*
X67329D01*
X66929Y8674D01*
X66529Y8274D01*
X66129D01*
X66529Y7874D01*
X66129Y7474D01*
X66529D01*
X66929Y7074D01*
Y7474D02*
X67129Y7674D01*
X67329D01*
X67129Y7874D01*
X67329Y8074D01*
X67129D01*
X66929Y8274D01*
X66729Y8074D01*
X66529D01*
X66729Y7874D01*
X66529Y7674D01*
X66729D01*
X66929Y7474D01*
X169291Y337783D02*
X169691Y338183D01*
X170091D01*
X169691Y338583D01*
X170091Y338983D01*
X169691D01*
X169291Y339383D01*
X168891Y338983D01*
X168491D01*
X168891Y338583D01*
X168491Y338183D01*
X168891D01*
X169291Y337783D01*
Y338183D02*
X169491Y338383D01*
X169691D01*
X169491Y338583D01*
X169691Y338783D01*
X169491D01*
X169291Y338983D01*
X169091Y338783D01*
X168891D01*
X169091Y338583D01*
X168891Y338383D01*
X169091D01*
X169291Y338183D01*
X43307Y117310D02*
X43707Y117710D01*
X44107D01*
X43707Y118110D01*
X44107Y118510D01*
X43707D01*
X43307Y118910D01*
X42907Y118510D01*
X42507D01*
X42907Y118110D01*
X42507Y117710D01*
X42907D01*
X43307Y117310D01*
Y117710D02*
X43507Y117910D01*
X43707D01*
X43507Y118110D01*
X43707Y118310D01*
X43507D01*
X43307Y118510D01*
X43107Y118310D01*
X42907D01*
X43107Y118110D01*
X42907Y117910D01*
X43107D01*
X43307Y117710D01*
X161417Y353531D02*
X161817Y353931D01*
X162217D01*
X161817Y354331D01*
X162217Y354731D01*
X161817D01*
X161417Y355131D01*
X161017Y354731D01*
X160617D01*
X161017Y354331D01*
X160617Y353931D01*
X161017D01*
X161417Y353531D01*
Y353931D02*
X161617Y354131D01*
X161817D01*
X161617Y354331D01*
X161817Y354531D01*
X161617D01*
X161417Y354731D01*
X161217Y354531D01*
X161017D01*
X161217Y354331D01*
X161017Y354131D01*
X161217D01*
X161417Y353931D01*
X169291Y274791D02*
X169691Y275190D01*
X170091D01*
X169691Y275590D01*
X170091Y275991D01*
X169691D01*
X169291Y276391D01*
X168891Y275991D01*
X168491D01*
X168891Y275590D01*
X168491Y275190D01*
X168891D01*
X169291Y274791D01*
Y275190D02*
X169491Y275391D01*
X169691D01*
X169491Y275590D01*
X169691Y275791D01*
X169491D01*
X169291Y275991D01*
X169091Y275791D01*
X168891D01*
X169091Y275590D01*
X168891Y275391D01*
X169091D01*
X169291Y275190D01*
X66929Y322035D02*
X67329Y322435D01*
X67729D01*
X67329Y322835D01*
X67729Y323235D01*
X67329D01*
X66929Y323635D01*
X66529Y323235D01*
X66129D01*
X66529Y322835D01*
X66129Y322435D01*
X66529D01*
X66929Y322035D01*
Y322435D02*
X67129Y322635D01*
X67329D01*
X67129Y322835D01*
X67329Y323035D01*
X67129D01*
X66929Y323235D01*
X66729Y323035D01*
X66529D01*
X66729Y322835D01*
X66529Y322635D01*
X66729D01*
X66929Y322435D01*
X59055Y54318D02*
X59455Y54718D01*
X59855D01*
X59455Y55118D01*
X59855Y55518D01*
X59455D01*
X59055Y55918D01*
X58655Y55518D01*
X58255D01*
X58655Y55118D01*
X58255Y54718D01*
X58655D01*
X59055Y54318D01*
Y54718D02*
X59255Y54918D01*
X59455D01*
X59255Y55118D01*
X59455Y55318D01*
X59255D01*
X59055Y55518D01*
X58855Y55318D01*
X58655D01*
X58855Y55118D01*
X58655Y54918D01*
X58855D01*
X59055Y54718D01*
X27559Y117310D02*
X27959Y117710D01*
X28359D01*
X27959Y118110D01*
X28359Y118510D01*
X27959D01*
X27559Y118910D01*
X27159Y118510D01*
X26759D01*
X27159Y118110D01*
X26759Y117710D01*
X27159D01*
X27559Y117310D01*
Y117710D02*
X27759Y117910D01*
X27959D01*
X27759Y118110D01*
X27959Y118310D01*
X27759D01*
X27559Y118510D01*
X27359Y118310D01*
X27159D01*
X27359Y118110D01*
X27159Y117910D01*
X27359D01*
X27559Y117710D01*
X169291Y243295D02*
X169691Y243694D01*
X170091D01*
X169691Y244094D01*
X170091Y244495D01*
X169691D01*
X169291Y244895D01*
X168891Y244495D01*
X168491D01*
X168891Y244094D01*
X168491Y243694D01*
X168891D01*
X169291Y243295D01*
Y243694D02*
X169491Y243895D01*
X169691D01*
X169491Y244094D01*
X169691Y244295D01*
X169491D01*
X169291Y244495D01*
X169091Y244295D01*
X168891D01*
X169091Y244094D01*
X168891Y243895D01*
X169091D01*
X169291Y243694D01*
X161417Y101562D02*
X161817Y101962D01*
X162217D01*
X161817Y102362D01*
X162217Y102762D01*
X161817D01*
X161417Y103162D01*
X161017Y102762D01*
X160617D01*
X161017Y102362D01*
X160617Y101962D01*
X161017D01*
X161417Y101562D01*
Y101962D02*
X161617Y102162D01*
X161817D01*
X161617Y102362D01*
X161817Y102562D01*
X161617D01*
X161417Y102762D01*
X161217Y102562D01*
X161017D01*
X161217Y102362D01*
X161017Y102162D01*
X161217D01*
X161417Y101962D01*
X153543Y337783D02*
X153943Y338183D01*
X154343D01*
X153943Y338583D01*
X154343Y338983D01*
X153943D01*
X153543Y339383D01*
X153143Y338983D01*
X152743D01*
X153143Y338583D01*
X152743Y338183D01*
X153143D01*
X153543Y337783D01*
Y338183D02*
X153743Y338383D01*
X153943D01*
X153743Y338583D01*
X153943Y338783D01*
X153743D01*
X153543Y338983D01*
X153343Y338783D01*
X153143D01*
X153343Y338583D01*
X153143Y338383D01*
X153343D01*
X153543Y338183D01*
X169291Y85814D02*
X169691Y86214D01*
X170091D01*
X169691Y86614D01*
X170091Y87014D01*
X169691D01*
X169291Y87414D01*
X168891Y87014D01*
X168491D01*
X168891Y86614D01*
X168491Y86214D01*
X168891D01*
X169291Y85814D01*
Y86214D02*
X169491Y86414D01*
X169691D01*
X169491Y86614D01*
X169691Y86814D01*
X169491D01*
X169291Y87014D01*
X169091Y86814D01*
X168891D01*
X169091Y86614D01*
X168891Y86414D01*
X169091D01*
X169291Y86214D01*
X114173Y290539D02*
X114573Y290938D01*
X114973D01*
X114573Y291338D01*
X114973Y291739D01*
X114573D01*
X114173Y292139D01*
X113773Y291739D01*
X113373D01*
X113773Y291338D01*
X113373Y290938D01*
X113773D01*
X114173Y290539D01*
Y290938D02*
X114373Y291139D01*
X114573D01*
X114373Y291338D01*
X114573Y291539D01*
X114373D01*
X114173Y291739D01*
X113973Y291539D01*
X113773D01*
X113973Y291338D01*
X113773Y291139D01*
X113973D01*
X114173Y290938D01*
X106299Y117310D02*
X106699Y117710D01*
X107099D01*
X106699Y118110D01*
X107099Y118510D01*
X106699D01*
X106299Y118910D01*
X105899Y118510D01*
X105499D01*
X105899Y118110D01*
X105499Y117710D01*
X105899D01*
X106299Y117310D01*
Y117710D02*
X106499Y117910D01*
X106699D01*
X106499Y118110D01*
X106699Y118310D01*
X106499D01*
X106299Y118510D01*
X106099Y118310D01*
X105899D01*
X106099Y118110D01*
X105899Y117910D01*
X106099D01*
X106299Y117710D01*
X51181Y290539D02*
X51581Y290938D01*
X51981D01*
X51581Y291338D01*
X51981Y291739D01*
X51581D01*
X51181Y292139D01*
X50781Y291739D01*
X50381D01*
X50781Y291338D01*
X50381Y290938D01*
X50781D01*
X51181Y290539D01*
Y290938D02*
X51381Y291139D01*
X51581D01*
X51381Y291338D01*
X51581Y291539D01*
X51381D01*
X51181Y291739D01*
X50981Y291539D01*
X50781D01*
X50981Y291338D01*
X50781Y291139D01*
X50981D01*
X51181Y290938D01*
X43307Y274791D02*
X43707Y275190D01*
X44107D01*
X43707Y275590D01*
X44107Y275991D01*
X43707D01*
X43307Y276391D01*
X42907Y275991D01*
X42507D01*
X42907Y275590D01*
X42507Y275190D01*
X42907D01*
X43307Y274791D01*
Y275190D02*
X43507Y275391D01*
X43707D01*
X43507Y275590D01*
X43707Y275791D01*
X43507D01*
X43307Y275991D01*
X43107Y275791D01*
X42907D01*
X43107Y275590D01*
X42907Y275391D01*
X43107D01*
X43307Y275190D01*
X19685Y353531D02*
X20085Y353931D01*
X20485D01*
X20085Y354331D01*
X20485Y354731D01*
X20085D01*
X19685Y355131D01*
X19285Y354731D01*
X18885D01*
X19285Y354331D01*
X18885Y353931D01*
X19285D01*
X19685Y353531D01*
Y353931D02*
X19885Y354131D01*
X20085D01*
X19885Y354331D01*
X20085Y354531D01*
X19885D01*
X19685Y354731D01*
X19485Y354531D01*
X19285D01*
X19485Y354331D01*
X19285Y354131D01*
X19485D01*
X19685Y353931D01*
X137795Y306287D02*
X138195Y306687D01*
X138595D01*
X138195Y307087D01*
X138595Y307487D01*
X138195D01*
X137795Y307887D01*
X137395Y307487D01*
X136995D01*
X137395Y307087D01*
X136995Y306687D01*
X137395D01*
X137795Y306287D01*
Y306687D02*
X137995Y306887D01*
X138195D01*
X137995Y307087D01*
X138195Y307287D01*
X137995D01*
X137795Y307487D01*
X137595Y307287D01*
X137395D01*
X137595Y307087D01*
X137395Y306887D01*
X137595D01*
X137795Y306687D01*
X153543Y85814D02*
X153943Y86214D01*
X154343D01*
X153943Y86614D01*
X154343Y87014D01*
X153943D01*
X153543Y87414D01*
X153143Y87014D01*
X152743D01*
X153143Y86614D01*
X152743Y86214D01*
X153143D01*
X153543Y85814D01*
Y86214D02*
X153743Y86414D01*
X153943D01*
X153743Y86614D01*
X153943Y86814D01*
X153743D01*
X153543Y87014D01*
X153343Y86814D01*
X153143D01*
X153343Y86614D01*
X153143Y86414D01*
X153343D01*
X153543Y86214D01*
X27559Y85814D02*
X27959Y86214D01*
X28359D01*
X27959Y86614D01*
X28359Y87014D01*
X27959D01*
X27559Y87414D01*
X27159Y87014D01*
X26759D01*
X27159Y86614D01*
X26759Y86214D01*
X27159D01*
X27559Y85814D01*
Y86214D02*
X27759Y86414D01*
X27959D01*
X27759Y86614D01*
X27959Y86814D01*
X27759D01*
X27559Y87014D01*
X27359Y86814D01*
X27159D01*
X27359Y86614D01*
X27159Y86414D01*
X27359D01*
X27559Y86214D01*
X82677Y133058D02*
X83077Y133458D01*
X83477D01*
X83077Y133858D01*
X83477Y134258D01*
X83077D01*
X82677Y134658D01*
X82277Y134258D01*
X81877D01*
X82277Y133858D01*
X81877Y133458D01*
X82277D01*
X82677Y133058D01*
Y133458D02*
X82877Y133658D01*
X83077D01*
X82877Y133858D01*
X83077Y134058D01*
X82877D01*
X82677Y134258D01*
X82477Y134058D01*
X82277D01*
X82477Y133858D01*
X82277Y133658D01*
X82477D01*
X82677Y133458D01*
X129921Y101562D02*
X130321Y101962D01*
X130721D01*
X130321Y102362D01*
X130721Y102762D01*
X130321D01*
X129921Y103162D01*
X129521Y102762D01*
X129121D01*
X129521Y102362D01*
X129121Y101962D01*
X129521D01*
X129921Y101562D01*
Y101962D02*
X130121Y102162D01*
X130321D01*
X130121Y102362D01*
X130321Y102562D01*
X130121D01*
X129921Y102762D01*
X129721Y102562D01*
X129521D01*
X129721Y102362D01*
X129521Y102162D01*
X129721D01*
X129921Y101962D01*
X27559Y243295D02*
X27959Y243694D01*
X28359D01*
X27959Y244094D01*
X28359Y244495D01*
X27959D01*
X27559Y244895D01*
X27159Y244495D01*
X26759D01*
X27159Y244094D01*
X26759Y243694D01*
X27159D01*
X27559Y243295D01*
Y243694D02*
X27759Y243895D01*
X27959D01*
X27759Y244094D01*
X27959Y244295D01*
X27759D01*
X27559Y244495D01*
X27359Y244295D01*
X27159D01*
X27359Y244094D01*
X27159Y243895D01*
X27359D01*
X27559Y243694D01*
Y54318D02*
X27959Y54718D01*
X28359D01*
X27959Y55118D01*
X28359Y55518D01*
X27959D01*
X27559Y55918D01*
X27159Y55518D01*
X26759D01*
X27159Y55118D01*
X26759Y54718D01*
X27159D01*
X27559Y54318D01*
Y54718D02*
X27759Y54918D01*
X27959D01*
X27759Y55118D01*
X27959Y55318D01*
X27759D01*
X27559Y55518D01*
X27359Y55318D01*
X27159D01*
X27359Y55118D01*
X27159Y54918D01*
X27359D01*
X27559Y54718D01*
X62205Y262192D02*
X62605Y262592D01*
X63005D01*
X62605Y262992D01*
X63005Y263392D01*
X62605D01*
X62205Y263792D01*
X61805Y263392D01*
X61405D01*
X61805Y262992D01*
X61405Y262592D01*
X61805D01*
X62205Y262192D01*
Y262592D02*
X62405Y262792D01*
X62605D01*
X62405Y262992D01*
X62605Y263192D01*
X62405D01*
X62205Y263392D01*
X62005Y263192D01*
X61805D01*
X62005Y262992D01*
X61805Y262792D01*
X62005D01*
X62205Y262592D01*
X108218Y310568D02*
X108618Y310968D01*
X109018D01*
X108618Y311368D01*
X109018Y311768D01*
X108618D01*
X108218Y312168D01*
X107818Y311768D01*
X107418D01*
X107818Y311368D01*
X107418Y310968D01*
X107818D01*
X108218Y310568D01*
Y310968D02*
X108418Y311168D01*
X108618D01*
X108418Y311368D01*
X108618Y311568D01*
X108418D01*
X108218Y311768D01*
X108018Y311568D01*
X107818D01*
X108018Y311368D01*
X107818Y311168D01*
X108018D01*
X108218Y310968D01*
X176378Y57468D02*
X176778Y57868D01*
X177178D01*
X176778Y58268D01*
X177178Y58668D01*
X176778D01*
X176378Y59068D01*
X175978Y58668D01*
X175578D01*
X175978Y58268D01*
X175578Y57868D01*
X175978D01*
X176378Y57468D01*
Y57868D02*
X176578Y58068D01*
X176778D01*
X176578Y58268D01*
X176778Y58468D01*
X176578D01*
X176378Y58668D01*
X176178Y58468D01*
X175978D01*
X176178Y58268D01*
X175978Y58068D01*
X176178D01*
X176378Y57868D01*
X144923Y40950D02*
X145323Y41350D01*
X145723D01*
X145323Y41750D01*
X145723Y42150D01*
X145323D01*
X144923Y42550D01*
X144523Y42150D01*
X144123D01*
X144523Y41750D01*
X144123Y41350D01*
X144523D01*
X144923Y40950D01*
Y41350D02*
X145123Y41550D01*
X145323D01*
X145123Y41750D01*
X145323Y41950D01*
X145123D01*
X144923Y42150D01*
X144723Y41950D01*
X144523D01*
X144723Y41750D01*
X144523Y41550D01*
X144723D01*
X144923Y41350D01*
X153150Y25184D02*
X153550Y25584D01*
X153950D01*
X153550Y25984D01*
X153950Y26384D01*
X153550D01*
X153150Y26784D01*
X152750Y26384D01*
X152350D01*
X152750Y25984D01*
X152350Y25584D01*
X152750D01*
X153150Y25184D01*
Y25584D02*
X153350Y25784D01*
X153550D01*
X153350Y25984D01*
X153550Y26184D01*
X153350D01*
X153150Y26384D01*
X152950Y26184D01*
X152750D01*
X152950Y25984D01*
X152750Y25784D01*
X152950D01*
X153150Y25584D01*
X126476Y22724D02*
X126876Y23124D01*
X127276D01*
X126876Y23524D01*
X127276Y23924D01*
X126876D01*
X126476Y24324D01*
X126076Y23924D01*
X125676D01*
X126076Y23524D01*
X125676Y23124D01*
X126076D01*
X126476Y22724D01*
Y23124D02*
X126676Y23324D01*
X126876D01*
X126676Y23524D01*
X126876Y23724D01*
X126676D01*
X126476Y23924D01*
X126276Y23724D01*
X126076D01*
X126276Y23524D01*
X126076Y23324D01*
X126276D01*
X126476Y23124D01*
X142913Y16129D02*
X143313Y16529D01*
X143713D01*
X143313Y16929D01*
X143713Y17329D01*
X143313D01*
X142913Y17729D01*
X142513Y17329D01*
X142113D01*
X142513Y16929D01*
X142113Y16529D01*
X142513D01*
X142913Y16129D01*
Y16529D02*
X143113Y16729D01*
X143313D01*
X143113Y16929D01*
X143313Y17129D01*
X143113D01*
X142913Y17329D01*
X142713Y17129D01*
X142513D01*
X142713Y16929D01*
X142513Y16729D01*
X142713D01*
X142913Y16529D01*
X154724Y8649D02*
X155124Y9049D01*
X155524D01*
X155124Y9449D01*
X155524Y9849D01*
X155124D01*
X154724Y10249D01*
X154324Y9849D01*
X153924D01*
X154324Y9449D01*
X153924Y9049D01*
X154324D01*
X154724Y8649D01*
Y9049D02*
X154924Y9249D01*
X155124D01*
X154924Y9449D01*
X155124Y9649D01*
X154924D01*
X154724Y9849D01*
X154524Y9649D01*
X154324D01*
X154524Y9449D01*
X154324Y9249D01*
X154524D01*
X154724Y9049D01*
X120079Y69279D02*
X120479Y69679D01*
X120879D01*
X120479Y70079D01*
X120879Y70479D01*
X120479D01*
X120079Y70879D01*
X119679Y70479D01*
X119279D01*
X119679Y70079D01*
X119279Y69679D01*
X119679D01*
X120079Y69279D01*
Y69679D02*
X120279Y69879D01*
X120479D01*
X120279Y70079D01*
X120479Y70279D01*
X120279D01*
X120079Y70479D01*
X119879Y70279D01*
X119679D01*
X119879Y70079D01*
X119679Y69879D01*
X119879D01*
X120079Y69679D01*
X97349Y77310D02*
X97749Y77710D01*
X98149D01*
X97749Y78110D01*
X98149Y78510D01*
X97749D01*
X97349Y78910D01*
X96949Y78510D01*
X96549D01*
X96949Y78110D01*
X96549Y77710D01*
X96949D01*
X97349Y77310D01*
Y77710D02*
X97549Y77910D01*
X97749D01*
X97549Y78110D01*
X97749Y78310D01*
X97549D01*
X97349Y78510D01*
X97149Y78310D01*
X96949D01*
X97149Y78110D01*
X96949Y77910D01*
X97149D01*
X97349Y77710D01*
X-197Y190574D02*
X203Y190974D01*
X603D01*
X203Y191374D01*
X603Y191774D01*
X203D01*
X-197Y192174D01*
X-597Y191774D01*
X-997D01*
X-597Y191374D01*
X-997Y190974D01*
X-597D01*
X-197Y190574D01*
Y190974D02*
X3Y191174D01*
X203D01*
X3Y191374D01*
X203Y191574D01*
X3D01*
X-197Y191774D01*
X-397Y191574D01*
X-597D01*
X-397Y191374D01*
X-597Y191174D01*
X-397D01*
X-197Y190974D01*
X41732Y160327D02*
X42132Y160727D01*
X42532D01*
X42132Y161127D01*
X42532Y161527D01*
X42132D01*
X41732Y161927D01*
X41332Y161527D01*
X40932D01*
X41332Y161127D01*
X40932Y160727D01*
X41332D01*
X41732Y160327D01*
Y160727D02*
X41932Y160927D01*
X42132D01*
X41932Y161127D01*
X42132Y161327D01*
X41932D01*
X41732Y161527D01*
X41532Y161327D01*
X41332D01*
X41532Y161127D01*
X41332Y160927D01*
X41532D01*
X41732Y160727D01*
X50681Y149987D02*
X51081Y150387D01*
X51481D01*
X51081Y150787D01*
X51481Y151187D01*
X51081D01*
X50681Y151587D01*
X50281Y151187D01*
X49881D01*
X50281Y150787D01*
X49881Y150387D01*
X50281D01*
X50681Y149987D01*
Y150387D02*
X50881Y150587D01*
X51081D01*
X50881Y150787D01*
X51081Y150987D01*
X50881D01*
X50681Y151187D01*
X50481Y150987D01*
X50281D01*
X50481Y150787D01*
X50281Y150587D01*
X50481D01*
X50681Y150387D01*
X98425Y324791D02*
X98825Y325190D01*
X99225D01*
X98825Y325590D01*
X99225Y325991D01*
X98825D01*
X98425Y326391D01*
X98025Y325991D01*
X97625D01*
X98025Y325590D01*
X97625Y325190D01*
X98025D01*
X98425Y324791D01*
Y325190D02*
X98625Y325391D01*
X98825D01*
X98625Y325590D01*
X98825Y325791D01*
X98625D01*
X98425Y325991D01*
X98225Y325791D01*
X98025D01*
X98225Y325590D01*
X98025Y325391D01*
X98225D01*
X98425Y325190D01*
X59449Y138964D02*
X59849Y139364D01*
X60249D01*
X59849Y139764D01*
X60249Y140164D01*
X59849D01*
X59449Y140564D01*
X59049Y140164D01*
X58649D01*
X59049Y139764D01*
X58649Y139364D01*
X59049D01*
X59449Y138964D01*
Y139364D02*
X59649Y139564D01*
X59849D01*
X59649Y139764D01*
X59849Y139964D01*
X59649D01*
X59449Y140164D01*
X59249Y139964D01*
X59049D01*
X59249Y139764D01*
X59049Y139564D01*
X59249D01*
X59449Y139364D01*
X77362Y104318D02*
X77762Y104718D01*
X78162D01*
X77762Y105118D01*
X78162Y105518D01*
X77762D01*
X77362Y105918D01*
X76962Y105518D01*
X76562D01*
X76962Y105118D01*
X76562Y104718D01*
X76962D01*
X77362Y104318D01*
Y104718D02*
X77562Y104918D01*
X77762D01*
X77562Y105118D01*
X77762Y105318D01*
X77562D01*
X77362Y105518D01*
X77162Y105318D01*
X76962D01*
X77162Y105118D01*
X76962Y104918D01*
X77162D01*
X77362Y104718D01*
X125984Y75578D02*
X126384Y75978D01*
X126784D01*
X126384Y76378D01*
X126784Y76778D01*
X126384D01*
X125984Y77178D01*
X125584Y76778D01*
X125184D01*
X125584Y76378D01*
X125184Y75978D01*
X125584D01*
X125984Y75578D01*
Y75978D02*
X126184Y76178D01*
X126384D01*
X126184Y76378D01*
X126384Y76578D01*
X126184D01*
X125984Y76778D01*
X125784Y76578D01*
X125584D01*
X125784Y76378D01*
X125584Y76178D01*
X125784D01*
X125984Y75978D01*
X94902Y161700D02*
X95302Y162100D01*
X95702D01*
X95302Y162500D01*
X95702Y162900D01*
X95302D01*
X94902Y163300D01*
X94502Y162900D01*
X94102D01*
X94502Y162500D01*
X94102Y162100D01*
X94502D01*
X94902Y161700D01*
Y162100D02*
X95102Y162300D01*
X95302D01*
X95102Y162500D01*
X95302Y162700D01*
X95102D01*
X94902Y162900D01*
X94702Y162700D01*
X94502D01*
X94702Y162500D01*
X94502Y162300D01*
X94702D01*
X94902Y162100D01*
X68110Y311798D02*
X68510Y312198D01*
X68910D01*
X68510Y312598D01*
X68910Y312998D01*
X68510D01*
X68110Y313398D01*
X67710Y312998D01*
X67310D01*
X67710Y312598D01*
X67310Y312198D01*
X67710D01*
X68110Y311798D01*
Y312198D02*
X68310Y312398D01*
X68510D01*
X68310Y312598D01*
X68510Y312798D01*
X68310D01*
X68110Y312998D01*
X67910Y312798D01*
X67710D01*
X67910Y312598D01*
X67710Y312398D01*
X67910D01*
X68110Y312198D01*
X125984Y8255D02*
X126384Y8655D01*
X126784D01*
X126384Y9055D01*
X126784Y9455D01*
X126384D01*
X125984Y9855D01*
X125584Y9455D01*
X125184D01*
X125584Y9055D01*
X125184Y8655D01*
X125584D01*
X125984Y8255D01*
Y8655D02*
X126184Y8855D01*
X126384D01*
X126184Y9055D01*
X126384Y9255D01*
X126184D01*
X125984Y9455D01*
X125784Y9255D01*
X125584D01*
X125784Y9055D01*
X125584Y8855D01*
X125784D01*
X125984Y8655D01*
X73622Y83452D02*
X74022Y83852D01*
X74422D01*
X74022Y84252D01*
X74422Y84652D01*
X74022D01*
X73622Y85052D01*
X73222Y84652D01*
X72822D01*
X73222Y84252D01*
X72822Y83852D01*
X73222D01*
X73622Y83452D01*
Y83852D02*
X73822Y84052D01*
X74022D01*
X73822Y84252D01*
X74022Y84452D01*
X73822D01*
X73622Y84652D01*
X73422Y84452D01*
X73222D01*
X73422Y84252D01*
X73222Y84052D01*
X73422D01*
X73622Y83852D01*
X125984Y128728D02*
X126384Y129128D01*
X126784D01*
X126384Y129528D01*
X126784Y129928D01*
X126384D01*
X125984Y130328D01*
X125584Y129928D01*
X125184D01*
X125584Y129528D01*
X125184Y129128D01*
X125584D01*
X125984Y128728D01*
Y129128D02*
X126184Y129328D01*
X126384D01*
X126184Y129528D01*
X126384Y129728D01*
X126184D01*
X125984Y129928D01*
X125784Y129728D01*
X125584D01*
X125784Y129528D01*
X125584Y129328D01*
X125784D01*
X125984Y129128D01*
X128347Y172822D02*
X128746Y173222D01*
X129147D01*
X128746Y173622D01*
X129147Y174022D01*
X128746D01*
X128347Y174422D01*
X127946Y174022D01*
X127547D01*
X127946Y173622D01*
X127547Y173222D01*
X127946D01*
X128347Y172822D01*
Y173222D02*
X128547Y173422D01*
X128746D01*
X128547Y173622D01*
X128746Y173822D01*
X128547D01*
X128347Y174022D01*
X128147Y173822D01*
X127946D01*
X128147Y173622D01*
X127946Y173422D01*
X128147D01*
X128347Y173222D01*
X119291Y207074D02*
X119691Y207474D01*
X120091D01*
X119691Y207874D01*
X120091Y208274D01*
X119691D01*
X119291Y208674D01*
X118891Y208274D01*
X118491D01*
X118891Y207874D01*
X118491Y207474D01*
X118891D01*
X119291Y207074D01*
Y207474D02*
X119491Y207674D01*
X119691D01*
X119491Y207874D01*
X119691Y208074D01*
X119491D01*
X119291Y208274D01*
X119091Y208074D01*
X118891D01*
X119091Y207874D01*
X118891Y207674D01*
X119091D01*
X119291Y207474D01*
X80715Y160965D02*
X81115Y161365D01*
X81515D01*
X81115Y161765D01*
X81515Y162165D01*
X81115D01*
X80715Y162565D01*
X80315Y162165D01*
X79915D01*
X80315Y161765D01*
X79915Y161365D01*
X80315D01*
X80715Y160965D01*
Y161365D02*
X80915Y161565D01*
X81115D01*
X80915Y161765D01*
X81115Y161965D01*
X80915D01*
X80715Y162165D01*
X80515Y161965D01*
X80315D01*
X80515Y161765D01*
X80315Y161565D01*
X80515D01*
X80715Y161365D01*
X98006Y184659D02*
X98406Y185059D01*
X98806D01*
X98406Y185459D01*
X98806Y185859D01*
X98406D01*
X98006Y186259D01*
X97606Y185859D01*
X97206D01*
X97606Y185459D01*
X97206Y185059D01*
X97606D01*
X98006Y184659D01*
Y185059D02*
X98206Y185259D01*
X98406D01*
X98206Y185459D01*
X98406Y185659D01*
X98206D01*
X98006Y185859D01*
X97806Y185659D01*
X97606D01*
X97806Y185459D01*
X97606Y185259D01*
X97806D01*
X98006Y185059D01*
X85039Y187045D02*
X85439Y187445D01*
X85839D01*
X85439Y187845D01*
X85839Y188245D01*
X85439D01*
X85039Y188645D01*
X84639Y188245D01*
X84239D01*
X84639Y187845D01*
X84239Y187445D01*
X84639D01*
X85039Y187045D01*
Y187445D02*
X85239Y187645D01*
X85439D01*
X85239Y187845D01*
X85439Y188045D01*
X85239D01*
X85039Y188245D01*
X84839Y188045D01*
X84639D01*
X84839Y187845D01*
X84639Y187645D01*
X84839D01*
X85039Y187445D01*
X98819Y98413D02*
X99219Y98813D01*
X99619D01*
X99219Y99213D01*
X99619Y99613D01*
X99219D01*
X98819Y100013D01*
X98419Y99613D01*
X98019D01*
X98419Y99213D01*
X98019Y98813D01*
X98419D01*
X98819Y98413D01*
Y98813D02*
X99019Y99013D01*
X99219D01*
X99019Y99213D01*
X99219Y99413D01*
X99019D01*
X98819Y99613D01*
X98619Y99413D01*
X98419D01*
X98619Y99213D01*
X98419Y99013D01*
X98619D01*
X98819Y98813D01*
X106693Y103924D02*
X107093Y104324D01*
X107493D01*
X107093Y104724D01*
X107493Y105124D01*
X107093D01*
X106693Y105524D01*
X106293Y105124D01*
X105893D01*
X106293Y104724D01*
X105893Y104324D01*
X106293D01*
X106693Y103924D01*
Y104324D02*
X106893Y104524D01*
X107093D01*
X106893Y104724D01*
X107093Y104924D01*
X106893D01*
X106693Y105124D01*
X106493Y104924D01*
X106293D01*
X106493Y104724D01*
X106293Y104524D01*
X106493D01*
X106693Y104324D01*
X64567Y327940D02*
X64967Y328340D01*
X65367D01*
X64967Y328740D01*
X65367Y329140D01*
X64967D01*
X64567Y329540D01*
X64167Y329140D01*
X63767D01*
X64167Y328740D01*
X63767Y328340D01*
X64167D01*
X64567Y327940D01*
Y328340D02*
X64767Y328540D01*
X64967D01*
X64767Y328740D01*
X64967Y328940D01*
X64767D01*
X64567Y329140D01*
X64367Y328940D01*
X64167D01*
X64367Y328740D01*
X64167Y328540D01*
X64367D01*
X64567Y328340D01*
X13150Y161562D02*
X13550Y161962D01*
X13950D01*
X13550Y162362D01*
X13950Y162762D01*
X13550D01*
X13150Y163162D01*
X12750Y162762D01*
X12350D01*
X12750Y162362D01*
X12350Y161962D01*
X12750D01*
X13150Y161562D01*
Y161962D02*
X13350Y162162D01*
X13550D01*
X13350Y162362D01*
X13550Y162562D01*
X13350D01*
X13150Y162762D01*
X12950Y162562D01*
X12750D01*
X12950Y162362D01*
X12750Y162162D01*
X12950D01*
X13150Y161962D01*
X17323Y40145D02*
X17723Y40545D01*
X18123D01*
X17723Y40945D01*
X18123Y41345D01*
X17723D01*
X17323Y41745D01*
X16923Y41345D01*
X16523D01*
X16923Y40945D01*
X16523Y40545D01*
X16923D01*
X17323Y40145D01*
Y40545D02*
X17523Y40745D01*
X17723D01*
X17523Y40945D01*
X17723Y41145D01*
X17523D01*
X17323Y41345D01*
X17123Y41145D01*
X16923D01*
X17123Y40945D01*
X16923Y40745D01*
X17123D01*
X17323Y40545D01*
X37165Y29672D02*
X37565Y30072D01*
X37965D01*
X37565Y30472D01*
X37965Y30872D01*
X37565D01*
X37165Y31272D01*
X36765Y30872D01*
X36365D01*
X36765Y30472D01*
X36365Y30072D01*
X36765D01*
X37165Y29672D01*
Y30072D02*
X37365Y30272D01*
X37565D01*
X37365Y30472D01*
X37565Y30672D01*
X37365D01*
X37165Y30872D01*
X36965Y30672D01*
X36765D01*
X36965Y30472D01*
X36765Y30272D01*
X36965D01*
X37165Y30072D01*
X27165Y29515D02*
X27565Y29915D01*
X27965D01*
X27565Y30315D01*
X27965Y30715D01*
X27565D01*
X27165Y31115D01*
X26765Y30715D01*
X26365D01*
X26765Y30315D01*
X26365Y29915D01*
X26765D01*
X27165Y29515D01*
Y29915D02*
X27365Y30115D01*
X27565D01*
X27365Y30315D01*
X27565Y30515D01*
X27365D01*
X27165Y30715D01*
X26965Y30515D01*
X26765D01*
X26965Y30315D01*
X26765Y30115D01*
X26965D01*
X27165Y29915D01*
X42165Y40637D02*
X42565Y41037D01*
X42965D01*
X42565Y41437D01*
X42965Y41837D01*
X42565D01*
X42165Y42237D01*
X41765Y41837D01*
X41365D01*
X41765Y41437D01*
X41365Y41037D01*
X41765D01*
X42165Y40637D01*
Y41037D02*
X42365Y41237D01*
X42565D01*
X42365Y41437D01*
X42565Y41637D01*
X42365D01*
X42165Y41837D01*
X41965Y41637D01*
X41765D01*
X41965Y41437D01*
X41765Y41237D01*
X41965D01*
X42165Y41037D01*
X32283Y40145D02*
X32684Y40545D01*
X33084D01*
X32684Y40945D01*
X33084Y41345D01*
X32684D01*
X32283Y41745D01*
X31883Y41345D01*
X31484D01*
X31883Y40945D01*
X31484Y40545D01*
X31883D01*
X32283Y40145D01*
Y40545D02*
X32484Y40745D01*
X32684D01*
X32484Y40945D01*
X32684Y41145D01*
X32484D01*
X32283Y41345D01*
X32083Y41145D01*
X31883D01*
X32083Y40945D01*
X31883Y40745D01*
X32083D01*
X32283Y40545D01*
X143504Y136798D02*
X143904Y137198D01*
X144304D01*
X143904Y137598D01*
X144304Y137998D01*
X143904D01*
X143504Y138398D01*
X143104Y137998D01*
X142704D01*
X143104Y137598D01*
X142704Y137198D01*
X143104D01*
X143504Y136798D01*
Y137198D02*
X143704Y137398D01*
X143904D01*
X143704Y137598D01*
X143904Y137798D01*
X143704D01*
X143504Y137998D01*
X143304Y137798D01*
X143104D01*
X143304Y137598D01*
X143104Y137398D01*
X143304D01*
X143504Y137198D01*
X123622Y108255D02*
X124022Y108655D01*
X124422D01*
X124022Y109055D01*
X124422Y109455D01*
X124022D01*
X123622Y109855D01*
X123222Y109455D01*
X122822D01*
X123222Y109055D01*
X122822Y108655D01*
X123222D01*
X123622Y108255D01*
Y108655D02*
X123822Y108855D01*
X124022D01*
X123822Y109055D01*
X124022Y109255D01*
X123822D01*
X123622Y109455D01*
X123422Y109255D01*
X123222D01*
X123422Y109055D01*
X123222Y108855D01*
X123422D01*
X123622Y108655D01*
X84302Y145213D02*
X84702Y145613D01*
X85102D01*
X84702Y146013D01*
X85102Y146413D01*
X84702D01*
X84302Y146813D01*
X83902Y146413D01*
X83502D01*
X83902Y146013D01*
X83502Y145613D01*
X83902D01*
X84302Y145213D01*
Y145613D02*
X84502Y145813D01*
X84702D01*
X84502Y146013D01*
X84702Y146213D01*
X84502D01*
X84302Y146413D01*
X84102Y146213D01*
X83902D01*
X84102Y146013D01*
X83902Y145813D01*
X84102D01*
X84302Y145613D01*
X62992Y32665D02*
X63392Y33065D01*
X63792D01*
X63392Y33465D01*
X63792Y33865D01*
X63392D01*
X62992Y34265D01*
X62592Y33865D01*
X62192D01*
X62592Y33465D01*
X62192Y33065D01*
X62592D01*
X62992Y32665D01*
Y33065D02*
X63192Y33265D01*
X63392D01*
X63192Y33465D01*
X63392Y33665D01*
X63192D01*
X62992Y33865D01*
X62792Y33665D01*
X62592D01*
X62792Y33465D01*
X62592Y33265D01*
X62792D01*
X62992Y33065D01*
X12084Y40786D02*
X12484Y41186D01*
X12884D01*
X12484Y41586D01*
X12884Y41986D01*
X12484D01*
X12084Y42386D01*
X11684Y41986D01*
X11284D01*
X11684Y41586D01*
X11284Y41186D01*
X11684D01*
X12084Y40786D01*
Y41186D02*
X12284Y41386D01*
X12484D01*
X12284Y41586D01*
X12484Y41786D01*
X12284D01*
X12084Y41986D01*
X11884Y41786D01*
X11684D01*
X11884Y41586D01*
X11684Y41386D01*
X11884D01*
X12084Y41186D01*
X12746Y7714D02*
X13146Y8114D01*
X13546D01*
X13146Y8514D01*
X13546Y8914D01*
X13146D01*
X12746Y9314D01*
X12346Y8914D01*
X11946D01*
X12346Y8514D01*
X11946Y8114D01*
X12346D01*
X12746Y7714D01*
Y8114D02*
X12946Y8314D01*
X13146D01*
X12946Y8514D01*
X13146Y8714D01*
X12946D01*
X12746Y8914D01*
X12546Y8714D01*
X12346D01*
X12546Y8514D01*
X12346Y8314D01*
X12546D01*
X12746Y8114D01*
X98769Y12635D02*
X99169Y13035D01*
X99569D01*
X99169Y13435D01*
X99569Y13835D01*
X99169D01*
X98769Y14235D01*
X98369Y13835D01*
X97969D01*
X98369Y13435D01*
X97969Y13035D01*
X98369D01*
X98769Y12635D01*
Y13035D02*
X98969Y13235D01*
X99169D01*
X98969Y13435D01*
X99169Y13635D01*
X98969D01*
X98769Y13835D01*
X98569Y13635D01*
X98369D01*
X98569Y13435D01*
X98369Y13235D01*
X98569D01*
X98769Y13035D01*
X94882Y32271D02*
X95282Y32671D01*
X95682D01*
X95282Y33071D01*
X95682Y33471D01*
X95282D01*
X94882Y33871D01*
X94482Y33471D01*
X94082D01*
X94482Y33071D01*
X94082Y32671D01*
X94482D01*
X94882Y32271D01*
Y32671D02*
X95082Y32871D01*
X95282D01*
X95082Y33071D01*
X95282Y33271D01*
X95082D01*
X94882Y33471D01*
X94682Y33271D01*
X94482D01*
X94682Y33071D01*
X94482Y32871D01*
X94682D01*
X94882Y32671D01*
X-394Y49594D02*
X6Y49994D01*
X406D01*
X6Y50394D01*
X406Y50794D01*
X6D01*
X-394Y51194D01*
X-794Y50794D01*
X-1194D01*
X-794Y50394D01*
X-1194Y49994D01*
X-794D01*
X-394Y49594D01*
Y49994D02*
X-194Y50194D01*
X6D01*
X-194Y50394D01*
X6Y50594D01*
X-194D01*
X-394Y50794D01*
X-594Y50594D01*
X-794D01*
X-594Y50394D01*
X-794Y50194D01*
X-594D01*
X-394Y49994D01*
X394Y35027D02*
X794Y35427D01*
X1194D01*
X794Y35827D01*
X1194Y36227D01*
X794D01*
X394Y36627D01*
X-6Y36227D01*
X-406D01*
X-6Y35827D01*
X-406Y35427D01*
X-6D01*
X394Y35027D01*
Y35427D02*
X594Y35627D01*
X794D01*
X594Y35827D01*
X794Y36027D01*
X594D01*
X394Y36227D01*
X194Y36027D01*
X-6D01*
X194Y35827D01*
X-6Y35627D01*
X194D01*
X394Y35427D01*
X7717Y24554D02*
X8117Y24954D01*
X8517D01*
X8117Y25354D01*
X8517Y25754D01*
X8117D01*
X7717Y26154D01*
X7316Y25754D01*
X6916D01*
X7316Y25354D01*
X6916Y24954D01*
X7316D01*
X7717Y24554D01*
Y24954D02*
X7916Y25154D01*
X8117D01*
X7916Y25354D01*
X8117Y25554D01*
X7916D01*
X7717Y25754D01*
X7517Y25554D01*
X7316D01*
X7517Y25354D01*
X7316Y25154D01*
X7517D01*
X7717Y24954D01*
X20079Y96838D02*
X20479Y97238D01*
X20879D01*
X20479Y97638D01*
X20879Y98038D01*
X20479D01*
X20079Y98438D01*
X19679Y98038D01*
X19279D01*
X19679Y97638D01*
X19279Y97238D01*
X19679D01*
X20079Y96838D01*
Y97238D02*
X20279Y97438D01*
X20479D01*
X20279Y97638D01*
X20479Y97838D01*
X20279D01*
X20079Y98038D01*
X19879Y97838D01*
X19679D01*
X19879Y97638D01*
X19679Y97438D01*
X19879D01*
X20079Y97238D01*
X47638Y109043D02*
X48038Y109442D01*
X48438D01*
X48038Y109843D01*
X48438Y110242D01*
X48038D01*
X47638Y110643D01*
X47238Y110242D01*
X46838D01*
X47238Y109843D01*
X46838Y109442D01*
X47238D01*
X47638Y109043D01*
Y109442D02*
X47838Y109643D01*
X48038D01*
X47838Y109843D01*
X48038Y110043D01*
X47838D01*
X47638Y110242D01*
X47438Y110043D01*
X47238D01*
X47438Y109843D01*
X47238Y109643D01*
X47438D01*
X47638Y109442D01*
X67716Y82271D02*
X68116Y82671D01*
X68516D01*
X68116Y83071D01*
X68516Y83471D01*
X68116D01*
X67716Y83871D01*
X67317Y83471D01*
X66917D01*
X67317Y83071D01*
X66917Y82671D01*
X67317D01*
X67716Y82271D01*
Y82671D02*
X67917Y82871D01*
X68116D01*
X67917Y83071D01*
X68116Y83271D01*
X67917D01*
X67716Y83471D01*
X67516Y83271D01*
X67317D01*
X67516Y83071D01*
X67317Y82871D01*
X67516D01*
X67716Y82671D01*
X106732Y338531D02*
X107132Y338931D01*
X107532D01*
X107132Y339331D01*
X107532Y339731D01*
X107132D01*
X106732Y340131D01*
X106332Y339731D01*
X105932D01*
X106332Y339331D01*
X105932Y338931D01*
X106332D01*
X106732Y338531D01*
Y338931D02*
X106932Y339131D01*
X107132D01*
X106932Y339331D01*
X107132Y339531D01*
X106932D01*
X106732Y339731D01*
X106532Y339531D01*
X106332D01*
X106532Y339331D01*
X106332Y339131D01*
X106532D01*
X106732Y338931D01*
X86306Y205807D02*
X86706Y206207D01*
X87106D01*
X86706Y206607D01*
X87106Y207007D01*
X86706D01*
X86306Y207407D01*
X85906Y207007D01*
X85506D01*
X85906Y206607D01*
X85506Y206207D01*
X85906D01*
X86306Y205807D01*
Y206207D02*
X86506Y206407D01*
X86706D01*
X86506Y206607D01*
X86706Y206807D01*
X86506D01*
X86306Y207007D01*
X86106Y206807D01*
X85906D01*
X86106Y206607D01*
X85906Y206407D01*
X86106D01*
X86306Y206207D01*
X76378Y286602D02*
X76778Y287002D01*
X77178D01*
X76778Y287402D01*
X77178Y287802D01*
X76778D01*
X76378Y288202D01*
X75978Y287802D01*
X75578D01*
X75978Y287402D01*
X75578Y287002D01*
X75978D01*
X76378Y286602D01*
Y287002D02*
X76578Y287202D01*
X76778D01*
X76578Y287402D01*
X76778Y287602D01*
X76578D01*
X76378Y287802D01*
X76178Y287602D01*
X75978D01*
X76178Y287402D01*
X75978Y287202D01*
X76178D01*
X76378Y287002D01*
X84646Y314554D02*
X85046Y314954D01*
X85446D01*
X85046Y315354D01*
X85446Y315754D01*
X85046D01*
X84646Y316154D01*
X84246Y315754D01*
X83846D01*
X84246Y315354D01*
X83846Y314954D01*
X84246D01*
X84646Y314554D01*
Y314954D02*
X84846Y315154D01*
X85046D01*
X84846Y315354D01*
X85046Y315554D01*
X84846D01*
X84646Y315754D01*
X84446Y315554D01*
X84246D01*
X84446Y315354D01*
X84246Y315154D01*
X84446D01*
X84646Y314954D01*
X92126Y304712D02*
X92526Y305112D01*
X92926D01*
X92526Y305512D01*
X92926Y305912D01*
X92526D01*
X92126Y306312D01*
X91726Y305912D01*
X91326D01*
X91726Y305512D01*
X91326Y305112D01*
X91726D01*
X92126Y304712D01*
Y305112D02*
X92326Y305312D01*
X92526D01*
X92326Y305512D01*
X92526Y305712D01*
X92326D01*
X92126Y305912D01*
X91926Y305712D01*
X91726D01*
X91926Y305512D01*
X91726Y305312D01*
X91926D01*
X92126Y305112D01*
Y294869D02*
X92526Y295269D01*
X92926D01*
X92526Y295669D01*
X92926Y296069D01*
X92526D01*
X92126Y296469D01*
X91726Y296069D01*
X91326D01*
X91726Y295669D01*
X91326Y295269D01*
X91726D01*
X92126Y294869D01*
Y295269D02*
X92326Y295469D01*
X92526D01*
X92326Y295669D01*
X92526Y295869D01*
X92326D01*
X92126Y296069D01*
X91926Y295869D01*
X91726D01*
X91926Y295669D01*
X91726Y295469D01*
X91926D01*
X92126Y295269D01*
X54724Y228728D02*
X55124Y229128D01*
X55524D01*
X55124Y229528D01*
X55524Y229928D01*
X55124D01*
X54724Y230328D01*
X54324Y229928D01*
X53924D01*
X54324Y229528D01*
X53924Y229128D01*
X54324D01*
X54724Y228728D01*
Y229128D02*
X54924Y229328D01*
X55124D01*
X54924Y229528D01*
X55124Y229728D01*
X54924D01*
X54724Y229928D01*
X54524Y229728D01*
X54324D01*
X54524Y229528D01*
X54324Y229328D01*
X54524D01*
X54724Y229128D01*
X125984Y80696D02*
X126384Y81096D01*
X126784D01*
X126384Y81496D01*
X126784Y81896D01*
X126384D01*
X125984Y82296D01*
X125584Y81896D01*
X125184D01*
X125584Y81496D01*
X125184Y81096D01*
X125584D01*
X125984Y80696D01*
Y81096D02*
X126184Y81296D01*
X126384D01*
X126184Y81496D01*
X126384Y81696D01*
X126184D01*
X125984Y81896D01*
X125784Y81696D01*
X125584D01*
X125784Y81496D01*
X125584Y81296D01*
X125784D01*
X125984Y81096D01*
X92520Y314161D02*
X92920Y314561D01*
X93320D01*
X92920Y314961D01*
X93320Y315361D01*
X92920D01*
X92520Y315761D01*
X92120Y315361D01*
X91720D01*
X92120Y314961D01*
X91720Y314561D01*
X92120D01*
X92520Y314161D01*
Y314561D02*
X92720Y314761D01*
X92920D01*
X92720Y314961D01*
X92920Y315161D01*
X92720D01*
X92520Y315361D01*
X92320Y315161D01*
X92120D01*
X92320Y314961D01*
X92120Y314761D01*
X92320D01*
X92520Y314561D01*
X58711Y342064D02*
X59111Y342464D01*
X59511D01*
X59111Y342864D01*
X59511Y343264D01*
X59111D01*
X58711Y343664D01*
X58311Y343264D01*
X57911D01*
X58311Y342864D01*
X57911Y342464D01*
X58311D01*
X58711Y342064D01*
Y342464D02*
X58911Y342664D01*
X59111D01*
X58911Y342864D01*
X59111Y343064D01*
X58911D01*
X58711Y343264D01*
X58511Y343064D01*
X58311D01*
X58511Y342864D01*
X58311Y342664D01*
X58511D01*
X58711Y342464D01*
X52756Y325972D02*
X53156Y326372D01*
X53556D01*
X53156Y326772D01*
X53556Y327172D01*
X53156D01*
X52756Y327572D01*
X52356Y327172D01*
X51956D01*
X52356Y326772D01*
X51956Y326372D01*
X52356D01*
X52756Y325972D01*
Y326372D02*
X52956Y326572D01*
X53156D01*
X52956Y326772D01*
X53156Y326972D01*
X52956D01*
X52756Y327172D01*
X52556Y326972D01*
X52356D01*
X52556Y326772D01*
X52356Y326572D01*
X52556D01*
X52756Y326372D01*
X57480Y316916D02*
X57880Y317317D01*
X58280D01*
X57880Y317717D01*
X58280Y318116D01*
X57880D01*
X57480Y318516D01*
X57080Y318116D01*
X56680D01*
X57080Y317717D01*
X56680Y317317D01*
X57080D01*
X57480Y316916D01*
Y317317D02*
X57680Y317516D01*
X57880D01*
X57680Y317717D01*
X57880Y317916D01*
X57680D01*
X57480Y318116D01*
X57280Y317916D01*
X57080D01*
X57280Y317717D01*
X57080Y317516D01*
X57280D01*
X57480Y317317D01*
X57530Y176709D02*
X57930Y177109D01*
X58330D01*
X57930Y177509D01*
X58330Y177909D01*
X57930D01*
X57530Y178309D01*
X57130Y177909D01*
X56730D01*
X57130Y177509D01*
X56730Y177109D01*
X57130D01*
X57530Y176709D01*
Y177109D02*
X57730Y177309D01*
X57930D01*
X57730Y177509D01*
X57930Y177709D01*
X57730D01*
X57530Y177909D01*
X57330Y177709D01*
X57130D01*
X57330Y177509D01*
X57130Y177309D01*
X57330D01*
X57530Y177109D01*
X69453Y159572D02*
X69853Y159972D01*
X70253D01*
X69853Y160372D01*
X70253Y160772D01*
X69853D01*
X69453Y161172D01*
X69053Y160772D01*
X68653D01*
X69053Y160372D01*
X68653Y159972D01*
X69053D01*
X69453Y159572D01*
Y159972D02*
X69653Y160172D01*
X69853D01*
X69653Y160372D01*
X69853Y160572D01*
X69653D01*
X69453Y160772D01*
X69253Y160572D01*
X69053D01*
X69253Y160372D01*
X69053Y160172D01*
X69253D01*
X69453Y159972D01*
X116007Y341326D02*
X116407Y341726D01*
X116807D01*
X116407Y342126D01*
X116807Y342526D01*
X116407D01*
X116007Y342926D01*
X115607Y342526D01*
X115207D01*
X115607Y342126D01*
X115207Y341726D01*
X115607D01*
X116007Y341326D01*
Y341726D02*
X116207Y341926D01*
X116407D01*
X116207Y342126D01*
X116407Y342326D01*
X116207D01*
X116007Y342526D01*
X115807Y342326D01*
X115607D01*
X115807Y342126D01*
X115607Y341926D01*
X115807D01*
X116007Y341726D01*
X127165Y323609D02*
X127565Y324009D01*
X127965D01*
X127565Y324410D01*
X127965Y324810D01*
X127565D01*
X127165Y325209D01*
X126765Y324810D01*
X126365D01*
X126765Y324410D01*
X126365Y324009D01*
X126765D01*
X127165Y323609D01*
Y324009D02*
X127365Y324209D01*
X127565D01*
X127365Y324410D01*
X127565Y324609D01*
X127365D01*
X127165Y324810D01*
X126965Y324609D01*
X126765D01*
X126965Y324410D01*
X126765Y324209D01*
X126965D01*
X127165Y324009D01*
X163386Y246444D02*
X163786Y246844D01*
X164186D01*
X163786Y247244D01*
X164186Y247644D01*
X163786D01*
X163386Y248044D01*
X162986Y247644D01*
X162586D01*
X162986Y247244D01*
X162586Y246844D01*
X162986D01*
X163386Y246444D01*
Y246844D02*
X163586Y247044D01*
X163786D01*
X163586Y247244D01*
X163786Y247444D01*
X163586D01*
X163386Y247644D01*
X163186Y247444D01*
X162986D01*
X163186Y247244D01*
X162986Y247044D01*
X163186D01*
X163386Y246844D01*
X168061Y285470D02*
X168461Y285870D01*
X168861D01*
X168461Y286270D01*
X168861Y286670D01*
X168461D01*
X168061Y287070D01*
X167661Y286670D01*
X167261D01*
X167661Y286270D01*
X167261Y285870D01*
X167661D01*
X168061Y285470D01*
Y285870D02*
X168261Y286070D01*
X168461D01*
X168261Y286270D01*
X168461Y286470D01*
X168261D01*
X168061Y286670D01*
X167861Y286470D01*
X167661D01*
X167861Y286270D01*
X167661Y286070D01*
X167861D01*
X168061Y285870D01*
X72441Y366129D02*
X72841Y366529D01*
X73241D01*
X72841Y366929D01*
X73241Y367329D01*
X72841D01*
X72441Y367729D01*
X72041Y367329D01*
X71641D01*
X72041Y366929D01*
X71641Y366529D01*
X72041D01*
X72441Y366129D01*
Y366529D02*
X72641Y366729D01*
X72841D01*
X72641Y366929D01*
X72841Y367129D01*
X72641D01*
X72441Y367329D01*
X72241Y367129D01*
X72041D01*
X72241Y366929D01*
X72041Y366729D01*
X72241D01*
X72441Y366529D01*
X86614Y338570D02*
X87014Y338970D01*
X87414D01*
X87014Y339370D01*
X87414Y339770D01*
X87014D01*
X86614Y340170D01*
X86214Y339770D01*
X85814D01*
X86214Y339370D01*
X85814Y338970D01*
X86214D01*
X86614Y338570D01*
Y338970D02*
X86814Y339170D01*
X87014D01*
X86814Y339370D01*
X87014Y339570D01*
X86814D01*
X86614Y339770D01*
X86414Y339570D01*
X86214D01*
X86414Y339370D01*
X86214Y339170D01*
X86414D01*
X86614Y338970D01*
X91732Y338570D02*
X92132Y338970D01*
X92532D01*
X92132Y339370D01*
X92532Y339770D01*
X92132D01*
X91732Y340170D01*
X91332Y339770D01*
X90932D01*
X91332Y339370D01*
X90932Y338970D01*
X91332D01*
X91732Y338570D01*
Y338970D02*
X91932Y339170D01*
X92132D01*
X91932Y339370D01*
X92132Y339570D01*
X91932D01*
X91732Y339770D01*
X91532Y339570D01*
X91332D01*
X91532Y339370D01*
X91332Y339170D01*
X91532D01*
X91732Y338970D01*
X92520Y366129D02*
X92920Y366529D01*
X93320D01*
X92920Y366929D01*
X93320Y367329D01*
X92920D01*
X92520Y367729D01*
X92120Y367329D01*
X91720D01*
X92120Y366929D01*
X91720Y366529D01*
X92120D01*
X92520Y366129D01*
Y366529D02*
X92720Y366729D01*
X92920D01*
X92720Y366929D01*
X92920Y367129D01*
X92720D01*
X92520Y367329D01*
X92320Y367129D01*
X92120D01*
X92320Y366929D01*
X92120Y366729D01*
X92320D01*
X92520Y366529D01*
X83071Y364948D02*
X83471Y365348D01*
X83871D01*
X83471Y365748D01*
X83871Y366148D01*
X83471D01*
X83071Y366548D01*
X82671Y366148D01*
X82271D01*
X82671Y365748D01*
X82271Y365348D01*
X82671D01*
X83071Y364948D01*
Y365348D02*
X83271Y365548D01*
X83471D01*
X83271Y365748D01*
X83471Y365948D01*
X83271D01*
X83071Y366148D01*
X82871Y365948D01*
X82671D01*
X82871Y365748D01*
X82671Y365548D01*
X82871D01*
X83071Y365348D01*
X141339Y270460D02*
X141739Y270860D01*
X142139D01*
X141739Y271260D01*
X142139Y271660D01*
X141739D01*
X141339Y272060D01*
X140939Y271660D01*
X140539D01*
X140939Y271260D01*
X140539Y270860D01*
X140939D01*
X141339Y270460D01*
Y270860D02*
X141539Y271060D01*
X141739D01*
X141539Y271260D01*
X141739Y271460D01*
X141539D01*
X141339Y271660D01*
X141139Y271460D01*
X140939D01*
X141139Y271260D01*
X140939Y271060D01*
X141139D01*
X141339Y270860D01*
X156299Y286995D02*
X156699Y287395D01*
X157099D01*
X156699Y287795D01*
X157099Y288195D01*
X156699D01*
X156299Y288595D01*
X155899Y288195D01*
X155499D01*
X155899Y287795D01*
X155499Y287395D01*
X155899D01*
X156299Y286995D01*
Y287395D02*
X156499Y287595D01*
X156699D01*
X156499Y287795D01*
X156699Y287995D01*
X156499D01*
X156299Y288195D01*
X156099Y287995D01*
X155899D01*
X156099Y287795D01*
X155899Y287595D01*
X156099D01*
X156299Y287395D01*
X55905Y220066D02*
X56305Y220466D01*
X56705D01*
X56305Y220866D01*
X56705Y221266D01*
X56305D01*
X55905Y221666D01*
X55506Y221266D01*
X55106D01*
X55506Y220866D01*
X55106Y220466D01*
X55506D01*
X55905Y220066D01*
Y220466D02*
X56106Y220666D01*
X56305D01*
X56106Y220866D01*
X56305Y221066D01*
X56106D01*
X55905Y221266D01*
X55705Y221066D01*
X55506D01*
X55705Y220866D01*
X55506Y220666D01*
X55705D01*
X55905Y220466D01*
X60886Y208787D02*
X61286Y209187D01*
X61686D01*
X61286Y209587D01*
X61686Y209987D01*
X61286D01*
X60886Y210387D01*
X60486Y209987D01*
X60086D01*
X60486Y209587D01*
X60086Y209187D01*
X60486D01*
X60886Y208787D01*
Y209187D02*
X61086Y209387D01*
X61286D01*
X61086Y209587D01*
X61286Y209787D01*
X61086D01*
X60886Y209987D01*
X60686Y209787D01*
X60486D01*
X60686Y209587D01*
X60486Y209387D01*
X60686D01*
X60886Y209187D01*
X24016Y269672D02*
X24416Y270072D01*
X24816D01*
X24416Y270472D01*
X24816Y270872D01*
X24416D01*
X24016Y271272D01*
X23616Y270872D01*
X23216D01*
X23616Y270472D01*
X23216Y270072D01*
X23616D01*
X24016Y269672D01*
Y270072D02*
X24216Y270272D01*
X24416D01*
X24216Y270472D01*
X24416Y270672D01*
X24216D01*
X24016Y270872D01*
X23816Y270672D01*
X23616D01*
X23816Y270472D01*
X23616Y270272D01*
X23816D01*
X24016Y270072D01*
X49606Y244476D02*
X50006Y244876D01*
X50406D01*
X50006Y245276D01*
X50406Y245676D01*
X50006D01*
X49606Y246076D01*
X49206Y245676D01*
X48806D01*
X49206Y245276D01*
X48806Y244876D01*
X49206D01*
X49606Y244476D01*
Y244876D02*
X49806Y245076D01*
X50006D01*
X49806Y245276D01*
X50006Y245476D01*
X49806D01*
X49606Y245676D01*
X49406Y245476D01*
X49206D01*
X49406Y245276D01*
X49206Y245076D01*
X49406D01*
X49606Y244876D01*
X40502Y194426D02*
X40902Y194826D01*
X41302D01*
X40902Y195226D01*
X41302Y195626D01*
X40902D01*
X40502Y196026D01*
X40102Y195626D01*
X39702D01*
X40102Y195226D01*
X39702Y194826D01*
X40102D01*
X40502Y194426D01*
Y194826D02*
X40702Y195026D01*
X40902D01*
X40702Y195226D01*
X40902Y195426D01*
X40702D01*
X40502Y195626D01*
X40302Y195426D01*
X40102D01*
X40302Y195226D01*
X40102Y195026D01*
X40302D01*
X40502Y194826D01*
X63042Y299544D02*
X63442Y299944D01*
X63842D01*
X63442Y300344D01*
X63842Y300744D01*
X63442D01*
X63042Y301144D01*
X62642Y300744D01*
X62242D01*
X62642Y300344D01*
X62242Y299944D01*
X62642D01*
X63042Y299544D01*
Y299944D02*
X63242Y300144D01*
X63442D01*
X63242Y300344D01*
X63442Y300544D01*
X63242D01*
X63042Y300744D01*
X62842Y300544D01*
X62642D01*
X62842Y300344D01*
X62642Y300144D01*
X62842D01*
X63042Y299944D01*
X0Y184239D02*
X400Y184639D01*
X800D01*
X400Y185039D01*
X800Y185439D01*
X400D01*
X0Y185839D01*
X-400Y185439D01*
X-800D01*
X-400Y185039D01*
X-800Y184639D01*
X-400D01*
X0Y184239D01*
Y184639D02*
X200Y184839D01*
X400D01*
X200Y185039D01*
X400Y185239D01*
X200D01*
X0Y185439D01*
X-200Y185239D01*
X-400D01*
X-200Y185039D01*
X-400Y184839D01*
X-200D01*
X0Y184639D01*
X68504Y289751D02*
X68904Y290151D01*
X69304D01*
X68904Y290551D01*
X69304Y290951D01*
X68904D01*
X68504Y291351D01*
X68104Y290951D01*
X67704D01*
X68104Y290551D01*
X67704Y290151D01*
X68104D01*
X68504Y289751D01*
Y290151D02*
X68704Y290351D01*
X68904D01*
X68704Y290551D01*
X68904Y290751D01*
X68704D01*
X68504Y290951D01*
X68304Y290751D01*
X68104D01*
X68304Y290551D01*
X68104Y290351D01*
X68304D01*
X68504Y290151D01*
X130709Y300381D02*
X131109Y300781D01*
X131509D01*
X131109Y301181D01*
X131509Y301581D01*
X131109D01*
X130709Y301981D01*
X130309Y301581D01*
X129909D01*
X130309Y301181D01*
X129909Y300781D01*
X130309D01*
X130709Y300381D01*
Y300781D02*
X130909Y300981D01*
X131109D01*
X130909Y301181D01*
X131109Y301381D01*
X130909D01*
X130709Y301581D01*
X130509Y301381D01*
X130309D01*
X130509Y301181D01*
X130309Y300981D01*
X130509D01*
X130709Y300781D01*
X32283Y269672D02*
X32684Y270072D01*
X33084D01*
X32684Y270472D01*
X33084Y270872D01*
X32684D01*
X32283Y271272D01*
X31883Y270872D01*
X31484D01*
X31883Y270472D01*
X31484Y270072D01*
X31883D01*
X32283Y269672D01*
Y270072D02*
X32484Y270272D01*
X32684D01*
X32484Y270472D01*
X32684Y270672D01*
X32484D01*
X32283Y270872D01*
X32083Y270672D01*
X31883D01*
X32083Y270472D01*
X31883Y270272D01*
X32083D01*
X32283Y270072D01*
X43701Y281090D02*
X44101Y281490D01*
X44501D01*
X44101Y281890D01*
X44501Y282290D01*
X44101D01*
X43701Y282690D01*
X43301Y282290D01*
X42901D01*
X43301Y281890D01*
X42901Y281490D01*
X43301D01*
X43701Y281090D01*
Y281490D02*
X43901Y281690D01*
X44101D01*
X43901Y281890D01*
X44101Y282090D01*
X43901D01*
X43701Y282290D01*
X43501Y282090D01*
X43301D01*
X43501Y281890D01*
X43301Y281690D01*
X43501D01*
X43701Y281490D01*
X87008Y82271D02*
X87408Y82671D01*
X87808D01*
X87408Y83071D01*
X87808Y83471D01*
X87408D01*
X87008Y83871D01*
X86608Y83471D01*
X86208D01*
X86608Y83071D01*
X86208Y82671D01*
X86608D01*
X87008Y82271D01*
Y82671D02*
X87208Y82871D01*
X87408D01*
X87208Y83071D01*
X87408Y83271D01*
X87208D01*
X87008Y83471D01*
X86808Y83271D01*
X86608D01*
X86808Y83071D01*
X86608Y82871D01*
X86808D01*
X87008Y82671D01*
X109449Y63767D02*
X109849Y64167D01*
X110249D01*
X109849Y64567D01*
X110249Y64967D01*
X109849D01*
X109449Y65367D01*
X109049Y64967D01*
X108649D01*
X109049Y64567D01*
X108649Y64167D01*
X109049D01*
X109449Y63767D01*
Y64167D02*
X109649Y64367D01*
X109849D01*
X109649Y64567D01*
X109849Y64767D01*
X109649D01*
X109449Y64967D01*
X109249Y64767D01*
X109049D01*
X109249Y64567D01*
X109049Y64367D01*
X109249D01*
X109449Y64167D01*
X36614Y11798D02*
X37014Y12198D01*
X37414D01*
X37014Y12598D01*
X37414Y12998D01*
X37014D01*
X36614Y13398D01*
X36214Y12998D01*
X35814D01*
X36214Y12598D01*
X35814Y12198D01*
X36214D01*
X36614Y11798D01*
Y12198D02*
X36814Y12398D01*
X37014D01*
X36814Y12598D01*
X37014Y12798D01*
X36814D01*
X36614Y12998D01*
X36414Y12798D01*
X36214D01*
X36414Y12598D01*
X36214Y12398D01*
X36414D01*
X36614Y12198D01*
X63779Y138964D02*
X64179Y139364D01*
X64579D01*
X64179Y139764D01*
X64579Y140164D01*
X64179D01*
X63779Y140564D01*
X63380Y140164D01*
X62980D01*
X63380Y139764D01*
X62980Y139364D01*
X63380D01*
X63779Y138964D01*
Y139364D02*
X63980Y139564D01*
X64179D01*
X63980Y139764D01*
X64179Y139964D01*
X63980D01*
X63779Y140164D01*
X63579Y139964D01*
X63380D01*
X63579Y139764D01*
X63380Y139564D01*
X63579D01*
X63779Y139364D01*
X77953Y138570D02*
X78353Y138970D01*
X78753D01*
X78353Y139370D01*
X78753Y139770D01*
X78353D01*
X77953Y140170D01*
X77553Y139770D01*
X77153D01*
X77553Y139370D01*
X77153Y138970D01*
X77553D01*
X77953Y138570D01*
Y138970D02*
X78153Y139170D01*
X78353D01*
X78153Y139370D01*
X78353Y139570D01*
X78153D01*
X77953Y139770D01*
X77753Y139570D01*
X77553D01*
X77753Y139370D01*
X77553Y139170D01*
X77753D01*
X77953Y138970D01*
X65354Y181090D02*
X65754Y181490D01*
X66154D01*
X65754Y181890D01*
X66154Y182290D01*
X65754D01*
X65354Y182690D01*
X64954Y182290D01*
X64554D01*
X64954Y181890D01*
X64554Y181490D01*
X64954D01*
X65354Y181090D01*
Y181490D02*
X65554Y181690D01*
X65754D01*
X65554Y181890D01*
X65754Y182090D01*
X65554D01*
X65354Y182290D01*
X65154Y182090D01*
X64954D01*
X65154Y181890D01*
X64954Y181690D01*
X65154D01*
X65354Y181490D01*
X34252Y194476D02*
X34652Y194876D01*
X35052D01*
X34652Y195276D01*
X35052Y195676D01*
X34652D01*
X34252Y196076D01*
X33852Y195676D01*
X33452D01*
X33852Y195276D01*
X33452Y194876D01*
X33852D01*
X34252Y194476D01*
Y194876D02*
X34452Y195076D01*
X34652D01*
X34452Y195276D01*
X34652Y195476D01*
X34452D01*
X34252Y195676D01*
X34052Y195476D01*
X33852D01*
X34052Y195276D01*
X33852Y195076D01*
X34052D01*
X34252Y194876D01*
X74410Y181877D02*
X74809Y182277D01*
X75209D01*
X74809Y182677D01*
X75209Y183077D01*
X74809D01*
X74410Y183477D01*
X74010Y183077D01*
X73610D01*
X74010Y182677D01*
X73610Y182277D01*
X74010D01*
X74410Y181877D01*
Y182277D02*
X74610Y182477D01*
X74809D01*
X74610Y182677D01*
X74809Y182877D01*
X74610D01*
X74410Y183077D01*
X74209Y182877D01*
X74010D01*
X74209Y182677D01*
X74010Y182477D01*
X74209D01*
X74410Y182277D01*
X2165Y152350D02*
X2565Y152750D01*
X2965D01*
X2565Y153150D01*
X2965Y153550D01*
X2565D01*
X2165Y153950D01*
X1765Y153550D01*
X1365D01*
X1765Y153150D01*
X1365Y152750D01*
X1765D01*
X2165Y152350D01*
Y152750D02*
X2365Y152950D01*
X2565D01*
X2365Y153150D01*
X2565Y153350D01*
X2365D01*
X2165Y153550D01*
X1965Y153350D01*
X1765D01*
X1965Y153150D01*
X1765Y152950D01*
X1965D01*
X2165Y152750D01*
X48031Y159830D02*
X48432Y160230D01*
X48831D01*
X48432Y160630D01*
X48831Y161030D01*
X48432D01*
X48031Y161430D01*
X47631Y161030D01*
X47232D01*
X47631Y160630D01*
X47232Y160230D01*
X47631D01*
X48031Y159830D01*
Y160230D02*
X48232Y160430D01*
X48432D01*
X48232Y160630D01*
X48432Y160830D01*
X48232D01*
X48031Y161030D01*
X47831Y160830D01*
X47631D01*
X47831Y160630D01*
X47631Y160430D01*
X47831D01*
X48031Y160230D01*
X61024Y185814D02*
X61424Y186214D01*
X61824D01*
X61424Y186614D01*
X61824Y187014D01*
X61424D01*
X61024Y187414D01*
X60624Y187014D01*
X60224D01*
X60624Y186614D01*
X60224Y186214D01*
X60624D01*
X61024Y185814D01*
Y186214D02*
X61224Y186414D01*
X61424D01*
X61224Y186614D01*
X61424Y186814D01*
X61224D01*
X61024Y187014D01*
X60824Y186814D01*
X60624D01*
X60824Y186614D01*
X60624Y186414D01*
X60824D01*
X61024Y186214D01*
X49213Y201956D02*
X49613Y202356D01*
X50013D01*
X49613Y202756D01*
X50013Y203156D01*
X49613D01*
X49213Y203556D01*
X48813Y203156D01*
X48413D01*
X48813Y202756D01*
X48413Y202356D01*
X48813D01*
X49213Y201956D01*
Y202356D02*
X49413Y202556D01*
X49613D01*
X49413Y202756D01*
X49613Y202956D01*
X49413D01*
X49213Y203156D01*
X49013Y202956D01*
X48813D01*
X49013Y202756D01*
X48813Y202556D01*
X49013D01*
X49213Y202356D01*
X87402Y59830D02*
X87802Y60230D01*
X88202D01*
X87802Y60630D01*
X88202Y61030D01*
X87802D01*
X87402Y61430D01*
X87002Y61030D01*
X86602D01*
X87002Y60630D01*
X86602Y60230D01*
X87002D01*
X87402Y59830D01*
Y60230D02*
X87602Y60430D01*
X87802D01*
X87602Y60630D01*
X87802Y60830D01*
X87602D01*
X87402Y61030D01*
X87202Y60830D01*
X87002D01*
X87202Y60630D01*
X87002Y60430D01*
X87202D01*
X87402Y60230D01*
X91732Y69672D02*
X92132Y70072D01*
X92532D01*
X92132Y70472D01*
X92532Y70872D01*
X92132D01*
X91732Y71272D01*
X91332Y70872D01*
X90932D01*
X91332Y70472D01*
X90932Y70072D01*
X91332D01*
X91732Y69672D01*
Y70072D02*
X91932Y70272D01*
X92132D01*
X91932Y70472D01*
X92132Y70672D01*
X91932D01*
X91732Y70872D01*
X91532Y70672D01*
X91332D01*
X91532Y70472D01*
X91332Y70272D01*
X91532D01*
X91732Y70072D01*
X0Y169279D02*
X400Y169679D01*
X800D01*
X400Y170079D01*
X800Y170479D01*
X400D01*
X0Y170879D01*
X-400Y170479D01*
X-800D01*
X-400Y170079D01*
X-800Y169679D01*
X-400D01*
X0Y169279D01*
Y169679D02*
X200Y169879D01*
X400D01*
X200Y170079D01*
X400Y170279D01*
X200D01*
X0Y170479D01*
X-200Y170279D01*
X-400D01*
X-200Y170079D01*
X-400Y169879D01*
X-200D01*
X0Y169679D01*
X5906Y137783D02*
X6306Y138183D01*
X6706D01*
X6306Y138583D01*
X6706Y138983D01*
X6306D01*
X5906Y139383D01*
X5505Y138983D01*
X5105D01*
X5505Y138583D01*
X5105Y138183D01*
X5505D01*
X5906Y137783D01*
Y138183D02*
X6106Y138383D01*
X6306D01*
X6106Y138583D01*
X6306Y138783D01*
X6106D01*
X5906Y138983D01*
X5706Y138783D01*
X5505D01*
X5706Y138583D01*
X5505Y138383D01*
X5706D01*
X5906Y138183D01*
D106*
X11430Y232285D02*
G03*
X11430Y232285I-800J0D01*
G01*
X43713D02*
G03*
X43713Y232285I-800J0D01*
G01*
X63989Y43701D02*
G03*
X63989Y43701I-800J0D01*
G01*
Y24016D02*
G03*
X63989Y24016I-800J0D01*
G01*
X113202D02*
G03*
X113202Y24016I-800J0D01*
G01*
Y43701D02*
G03*
X113202Y43701I-800J0D01*
G01*
D107*
X63589D02*
G03*
X63589Y43701I-400J0D01*
G01*
Y24016D02*
G03*
X63589Y24016I-400J0D01*
G01*
X112802D02*
G03*
X112802Y24016I-400J0D01*
G01*
Y43701D02*
G03*
X112802Y43701I-400J0D01*
G01*
M02*
