G04*
G04 #@! TF.GenerationSoftware,Altium Limited,Altium Designer,23.4.1 (23)*
G04*
G04 Layer_Physical_Order=3*
G04 Layer_Color=16440176*
%FSLAX25Y25*%
%MOIN*%
G70*
G04*
G04 #@! TF.SameCoordinates,B679403E-95BF-4892-A0A7-9FFFC668BED6*
G04*
G04*
G04 #@! TF.FilePolarity,Positive*
G04*
G01*
G75*
%ADD57C,0.03937*%
%ADD60C,0.06600*%
%ADD62O,0.15748X0.07874*%
%ADD63R,0.11811X0.07874*%
%ADD65O,0.09055X0.13780*%
%ADD67R,0.07087X0.08661*%
%ADD70C,0.05512*%
%ADD71R,0.09055X0.18898*%
%ADD74C,0.06000*%
%ADD76C,0.02362*%
G36*
X180099Y357852D02*
Y16164D01*
X164939Y1003D01*
X12227Y1003D01*
X-2933Y16164D01*
Y357852D01*
X12227Y373012D01*
X164939Y373012D01*
X180099Y357852D01*
D02*
G37*
%LPC*%
G36*
X171367Y362204D02*
Y354832D01*
X176443D01*
Y356694D01*
X176253Y358137D01*
X175696Y359482D01*
X174810Y360636D01*
X173655Y361522D01*
X172310Y362079D01*
X171367Y362204D01*
D02*
G37*
G36*
X47745Y362204D02*
Y354832D01*
X52821D01*
Y356694D01*
X52631Y358137D01*
X52074Y359482D01*
X51188Y360636D01*
X50033Y361522D01*
X48688Y362079D01*
X47745Y362204D01*
D02*
G37*
G36*
X46745Y362204D02*
X45802Y362079D01*
X44458Y361522D01*
X43303Y360636D01*
X42417Y359482D01*
X41860Y358137D01*
X41670Y356694D01*
Y354832D01*
X46745D01*
Y362204D01*
D02*
G37*
G36*
X170367D02*
X169424Y362079D01*
X168080Y361522D01*
X166925Y360636D01*
X166039Y359482D01*
X165482Y358137D01*
X165292Y356694D01*
Y354832D01*
X170367D01*
Y362204D01*
D02*
G37*
G36*
X130422D02*
Y354832D01*
X135498D01*
Y356694D01*
X135308Y358137D01*
X134751Y359482D01*
X133865Y360636D01*
X132710Y361522D01*
X131366Y362079D01*
X130422Y362204D01*
D02*
G37*
G36*
X129422D02*
X128480Y362079D01*
X127135Y361522D01*
X125980Y360636D01*
X125094Y359482D01*
X124537Y358137D01*
X124347Y356694D01*
Y354832D01*
X129422D01*
Y362204D01*
D02*
G37*
G36*
X6801D02*
Y354832D01*
X11876D01*
Y356694D01*
X11686Y358137D01*
X11129Y359482D01*
X10243Y360636D01*
X9088Y361522D01*
X7744Y362079D01*
X6801Y362204D01*
D02*
G37*
G36*
X5801D02*
X4857Y362079D01*
X3513Y361522D01*
X2358Y360636D01*
X1472Y359482D01*
X915Y358137D01*
X725Y356694D01*
Y354832D01*
X5801D01*
Y362204D01*
D02*
G37*
G36*
X67872Y358268D02*
X67167D01*
X66516Y357998D01*
X66018Y357500D01*
X65748Y356849D01*
Y356144D01*
X66018Y355492D01*
X66516Y354994D01*
X67167Y354724D01*
X67872D01*
X68523Y354994D01*
X69022Y355492D01*
X69291Y356144D01*
Y356849D01*
X69022Y357500D01*
X68523Y357998D01*
X67872Y358268D01*
D02*
G37*
G36*
X46745Y353832D02*
X41670D01*
Y351970D01*
X41860Y350527D01*
X42417Y349182D01*
X43303Y348027D01*
X44458Y347141D01*
X45802Y346584D01*
X46745Y346460D01*
Y353832D01*
D02*
G37*
G36*
X176443D02*
X171367D01*
Y346460D01*
X172310Y346584D01*
X173655Y347141D01*
X174810Y348027D01*
X175696Y349182D01*
X176253Y350527D01*
X176443Y351970D01*
Y353832D01*
D02*
G37*
G36*
X135498Y353832D02*
X130422D01*
Y346460D01*
X131366Y346584D01*
X132710Y347141D01*
X133865Y348027D01*
X134751Y349182D01*
X135308Y350527D01*
X135498Y351970D01*
Y353832D01*
D02*
G37*
G36*
X129422D02*
X124347D01*
Y351970D01*
X124537Y350527D01*
X125094Y349182D01*
X125980Y348027D01*
X127135Y347141D01*
X128480Y346584D01*
X129422Y346460D01*
Y353832D01*
D02*
G37*
G36*
X11876D02*
X6801D01*
Y346460D01*
X7744Y346584D01*
X9088Y347141D01*
X10243Y348027D01*
X11129Y349182D01*
X11686Y350527D01*
X11876Y351970D01*
Y353832D01*
D02*
G37*
G36*
X5801D02*
X725D01*
Y351970D01*
X915Y350527D01*
X1472Y349182D01*
X2358Y348027D01*
X3513Y347141D01*
X4857Y346584D01*
X5801Y346460D01*
Y353832D01*
D02*
G37*
G36*
X170367Y353832D02*
X165292D01*
Y351970D01*
X165482Y350527D01*
X166039Y349182D01*
X166925Y348027D01*
X168080Y347141D01*
X169424Y346584D01*
X170367Y346460D01*
Y353832D01*
D02*
G37*
G36*
X52821D02*
X47745D01*
Y346460D01*
X48688Y346584D01*
X50033Y347141D01*
X51188Y348027D01*
X52074Y349182D01*
X52631Y350527D01*
X52821Y351970D01*
Y353832D01*
D02*
G37*
G36*
X61770Y349016D02*
X61065D01*
X60414Y348746D01*
X59915Y348248D01*
X59646Y347597D01*
Y346892D01*
X59915Y346240D01*
X60414Y345742D01*
X61065Y345472D01*
X61770D01*
X62421Y345742D01*
X62919Y346240D01*
X63189Y346892D01*
Y347597D01*
X62919Y348248D01*
X62421Y348746D01*
X61770Y349016D01*
D02*
G37*
G36*
X83719Y339075D02*
X83014D01*
X82363Y338805D01*
X81864Y338307D01*
X81595Y337655D01*
Y336951D01*
X81864Y336300D01*
X82363Y335801D01*
X83014Y335531D01*
X83719D01*
X84370Y335801D01*
X84868Y336300D01*
X85138Y336951D01*
Y337655D01*
X84868Y338307D01*
X84370Y338805D01*
X83719Y339075D01*
D02*
G37*
G36*
X21474Y330135D02*
X17430D01*
Y325304D01*
X21474D01*
Y330135D01*
D02*
G37*
G36*
X16430D02*
X12387D01*
Y325304D01*
X16430D01*
Y330135D01*
D02*
G37*
G36*
X144686Y329726D02*
X136419D01*
Y319883D01*
X144686D01*
Y329726D01*
D02*
G37*
G36*
X160238Y329761D02*
X159158Y329619D01*
X158153Y329203D01*
X157289Y328540D01*
X156627Y327677D01*
X156210Y326671D01*
X156068Y325592D01*
Y324017D01*
X156210Y322938D01*
X156627Y321932D01*
X157289Y321069D01*
X158153Y320406D01*
X159158Y319989D01*
X160238Y319847D01*
X161317Y319989D01*
X162322Y320406D01*
X163186Y321069D01*
X163848Y321932D01*
X164265Y322938D01*
X164407Y324017D01*
Y325592D01*
X164265Y326671D01*
X163848Y327677D01*
X163186Y328540D01*
X162322Y329203D01*
X161317Y329619D01*
X160238Y329761D01*
D02*
G37*
G36*
X150395D02*
X149316Y329619D01*
X148310Y329203D01*
X147447Y328540D01*
X146784Y327677D01*
X146368Y326671D01*
X146226Y325592D01*
Y324017D01*
X146368Y322938D01*
X146784Y321932D01*
X147447Y321069D01*
X148310Y320406D01*
X149316Y319989D01*
X150395Y319847D01*
X151474Y319989D01*
X152480Y320406D01*
X153343Y321069D01*
X154006Y321932D01*
X154422Y322938D01*
X154564Y324017D01*
Y325592D01*
X154422Y326671D01*
X154006Y327677D01*
X153343Y328540D01*
X152480Y329203D01*
X151474Y329619D01*
X150395Y329761D01*
D02*
G37*
G36*
X36615D02*
X35536Y329619D01*
X34531Y329203D01*
X33667Y328540D01*
X33005Y327677D01*
X32588Y326671D01*
X32446Y325592D01*
Y324017D01*
X32588Y322938D01*
X33005Y321932D01*
X33667Y321069D01*
X34531Y320406D01*
X35536Y319989D01*
X36615Y319847D01*
X37695Y319989D01*
X38700Y320406D01*
X39564Y321069D01*
X40226Y321932D01*
X40643Y322938D01*
X40785Y324017D01*
Y325592D01*
X40643Y326671D01*
X40226Y327677D01*
X39564Y328540D01*
X38700Y329203D01*
X37695Y329619D01*
X36615Y329761D01*
D02*
G37*
G36*
X26773D02*
X25694Y329619D01*
X24688Y329203D01*
X23825Y328540D01*
X23162Y327677D01*
X22746Y326671D01*
X22603Y325592D01*
Y324017D01*
X22746Y322938D01*
X23162Y321932D01*
X23825Y321069D01*
X24688Y320406D01*
X25694Y319989D01*
X26773Y319847D01*
X27852Y319989D01*
X28858Y320406D01*
X29721Y321069D01*
X30384Y321932D01*
X30800Y322938D01*
X30942Y324017D01*
Y325592D01*
X30800Y326671D01*
X30384Y327677D01*
X29721Y328540D01*
X28858Y329203D01*
X27852Y329619D01*
X26773Y329761D01*
D02*
G37*
G36*
X21474Y324304D02*
X17430D01*
Y319474D01*
X21474D01*
Y324304D01*
D02*
G37*
G36*
X16430D02*
X12387D01*
Y319474D01*
X16430D01*
Y324304D01*
D02*
G37*
G36*
X82144Y313484D02*
X81439D01*
X80788Y313214D01*
X80289Y312716D01*
X80020Y312065D01*
Y311360D01*
X80289Y310709D01*
X80788Y310211D01*
X81439Y309941D01*
X82144D01*
X82795Y310211D01*
X83293Y310709D01*
X83563Y311360D01*
Y312065D01*
X83293Y312716D01*
X82795Y313214D01*
X82144Y313484D01*
D02*
G37*
G36*
X89624Y313287D02*
X88919D01*
X88268Y313018D01*
X87770Y312519D01*
X87500Y311868D01*
Y311163D01*
X87770Y310512D01*
X88268Y310014D01*
X88919Y309744D01*
X89597D01*
X89640Y309731D01*
X90059Y309383D01*
Y308900D01*
X90329Y308248D01*
X90827Y307750D01*
X91478Y307480D01*
X92183D01*
X92834Y307750D01*
X93333Y308248D01*
X93602Y308900D01*
Y309604D01*
X93333Y310256D01*
X92834Y310754D01*
X92183Y311024D01*
X91505D01*
X91463Y311036D01*
X91043Y311385D01*
Y311868D01*
X90774Y312519D01*
X90275Y313018D01*
X89624Y313287D01*
D02*
G37*
G36*
X22006Y306890D02*
X21301D01*
X20650Y306620D01*
X20152Y306122D01*
X19882Y305470D01*
Y304766D01*
X20152Y304115D01*
X20650Y303616D01*
X21301Y303346D01*
X22006D01*
X22657Y303616D01*
X23155Y304115D01*
X23425Y304766D01*
Y305470D01*
X23155Y306122D01*
X22657Y306620D01*
X22006Y306890D01*
D02*
G37*
G36*
X177813Y304921D02*
X177108D01*
X176457Y304651D01*
X175959Y304153D01*
X175689Y303502D01*
Y302797D01*
X175959Y302146D01*
X176457Y301648D01*
X177108Y301378D01*
X177813D01*
X178464Y301648D01*
X178963Y302146D01*
X179232Y302797D01*
Y303502D01*
X178963Y304153D01*
X178464Y304651D01*
X177813Y304921D01*
D02*
G37*
G36*
X118561Y301279D02*
X117856D01*
X117205Y301010D01*
X116707Y300511D01*
X116437Y299860D01*
Y299155D01*
X116707Y298504D01*
X117205Y298006D01*
X117856Y297736D01*
X118561D01*
X119212Y298006D01*
X119711Y298504D01*
X119980Y299155D01*
Y299860D01*
X119711Y300511D01*
X119212Y301010D01*
X118561Y301279D01*
D02*
G37*
G36*
X12252Y303748D02*
X5071D01*
Y296567D01*
X12252D01*
Y303748D01*
D02*
G37*
G36*
X52321Y297638D02*
X51616D01*
X50965Y297368D01*
X50467Y296870D01*
X50197Y296218D01*
Y295514D01*
X50467Y294863D01*
X50965Y294364D01*
X51616Y294094D01*
X52321D01*
X52972Y294364D01*
X53470Y294863D01*
X53740Y295514D01*
Y296218D01*
X53470Y296870D01*
X52972Y297368D01*
X52321Y297638D01*
D02*
G37*
G36*
X42675Y297297D02*
X41970D01*
X41319Y297027D01*
X40821Y296528D01*
X40551Y295877D01*
Y295172D01*
X40821Y294521D01*
X41319Y294023D01*
X41970Y293753D01*
X42675D01*
X43326Y294023D01*
X43825Y294521D01*
X44094Y295172D01*
Y295877D01*
X43825Y296528D01*
X43326Y297027D01*
X42675Y297297D01*
D02*
G37*
G36*
X37718D02*
X37013D01*
X36362Y297027D01*
X35864Y296528D01*
X35594Y295877D01*
Y295172D01*
X35864Y294521D01*
X36362Y294023D01*
X37013Y293753D01*
X37718D01*
X38369Y294023D01*
X38868Y294521D01*
X39138Y295172D01*
Y295877D01*
X38868Y296528D01*
X38369Y297027D01*
X37718Y297297D01*
D02*
G37*
G36*
X130569Y295472D02*
X129864D01*
X129213Y295203D01*
X128715Y294704D01*
X128445Y294053D01*
Y293348D01*
X128715Y292697D01*
X129213Y292199D01*
X129864Y291929D01*
X130569D01*
X131220Y292199D01*
X131719Y292697D01*
X131988Y293348D01*
Y294053D01*
X131719Y294704D01*
X131220Y295203D01*
X130569Y295472D01*
D02*
G37*
G36*
X31848Y294969D02*
X31144D01*
X30492Y294699D01*
X29994Y294201D01*
X29724Y293550D01*
Y292845D01*
X29994Y292194D01*
X30492Y291696D01*
X31144Y291426D01*
X31848D01*
X32500Y291696D01*
X32998Y292194D01*
X33268Y292845D01*
Y293550D01*
X32998Y294201D01*
X32500Y294699D01*
X31848Y294969D01*
D02*
G37*
G36*
X9188Y294158D02*
X9161D01*
Y290657D01*
X12661D01*
Y290684D01*
X12389Y291701D01*
X11862Y292614D01*
X11118Y293358D01*
X10205Y293885D01*
X9188Y294158D01*
D02*
G37*
G36*
X8161D02*
X8135D01*
X7118Y293885D01*
X6205Y293358D01*
X5461Y292614D01*
X4934Y291701D01*
X4661Y290684D01*
Y290657D01*
X8161D01*
Y294158D01*
D02*
G37*
G36*
X19545Y293504D02*
X18841D01*
X18189Y293234D01*
X17691Y292736D01*
X17421Y292085D01*
Y291380D01*
X17691Y290729D01*
X18189Y290230D01*
X18841Y289961D01*
X19545D01*
X20197Y290230D01*
X20695Y290729D01*
X20965Y291380D01*
Y292085D01*
X20695Y292736D01*
X20197Y293234D01*
X19545Y293504D01*
D02*
G37*
G36*
X160589Y289469D02*
X159884D01*
X159233Y289199D01*
X158734Y288700D01*
X158547Y288248D01*
X158006D01*
X157900Y288504D01*
X157401Y289002D01*
X156750Y289272D01*
X156045D01*
X155394Y289002D01*
X154896Y288504D01*
X154626Y287852D01*
Y287148D01*
X154896Y286496D01*
X155394Y285998D01*
X156045Y285728D01*
X156750D01*
X157401Y285998D01*
X157900Y286496D01*
X158087Y286949D01*
X158628D01*
X158734Y286693D01*
X159233Y286195D01*
X159884Y285925D01*
X160589D01*
X161240Y286195D01*
X161738Y286693D01*
X162008Y287345D01*
Y288049D01*
X161738Y288700D01*
X161240Y289199D01*
X160589Y289469D01*
D02*
G37*
G36*
X12661Y289657D02*
X9161D01*
Y286157D01*
X9188D01*
X10205Y286430D01*
X11118Y286957D01*
X11862Y287701D01*
X12389Y288614D01*
X12661Y289631D01*
Y289657D01*
D02*
G37*
G36*
X8161D02*
X4661D01*
Y289631D01*
X4934Y288614D01*
X5461Y287701D01*
X6205Y286957D01*
X7118Y286430D01*
X8135Y286157D01*
X8161D01*
Y289657D01*
D02*
G37*
G36*
X130618Y280695D02*
X129913D01*
X129262Y280425D01*
X128764Y279927D01*
X128494Y279275D01*
Y278571D01*
X128764Y277920D01*
X129262Y277421D01*
X129913Y277151D01*
X130618D01*
X131269Y277421D01*
X131768Y277920D01*
X132037Y278571D01*
Y279275D01*
X131768Y279927D01*
X131269Y280425D01*
X130618Y280695D01*
D02*
G37*
G36*
X9134Y283748D02*
X8189D01*
X7276Y283503D01*
X6457Y283031D01*
X5788Y282362D01*
X5316Y281543D01*
X5071Y280630D01*
Y279685D01*
X5316Y278772D01*
X5788Y277953D01*
X6457Y277284D01*
X7276Y276812D01*
X8189Y276567D01*
X9134D01*
X10047Y276812D01*
X10866Y277284D01*
X11535Y277953D01*
X12007Y278772D01*
X12252Y279685D01*
Y280630D01*
X12007Y281543D01*
X11535Y282362D01*
X10866Y283031D01*
X10047Y283503D01*
X9134Y283748D01*
D02*
G37*
G36*
X119152Y280020D02*
X118447D01*
X117796Y279750D01*
X117297Y279252D01*
X117028Y278600D01*
Y277896D01*
X117297Y277244D01*
X117796Y276746D01*
X118447Y276476D01*
X119152D01*
X119803Y276746D01*
X120301Y277244D01*
X120571Y277896D01*
Y278600D01*
X120301Y279252D01*
X119803Y279750D01*
X119152Y280020D01*
D02*
G37*
G36*
X84083Y279345D02*
Y276091D01*
X87337D01*
X87083Y277040D01*
X86588Y277897D01*
X85889Y278596D01*
X85032Y279090D01*
X84083Y279345D01*
D02*
G37*
G36*
X83083D02*
X82133Y279090D01*
X81277Y278596D01*
X80577Y277897D01*
X80083Y277040D01*
X79828Y276091D01*
X83083D01*
Y279345D01*
D02*
G37*
G36*
X96929Y278937D02*
X90236D01*
Y272244D01*
X96929D01*
Y278937D01*
D02*
G37*
G36*
X130372Y275590D02*
X129667D01*
X129016Y275321D01*
X128518Y274822D01*
X128248Y274171D01*
Y273466D01*
X128518Y272815D01*
X129016Y272317D01*
X129667Y272047D01*
X130372D01*
X131023Y272317D01*
X131522Y272815D01*
X131791Y273466D01*
Y274171D01*
X131522Y274822D01*
X131023Y275321D01*
X130372Y275590D01*
D02*
G37*
G36*
X87337Y275091D02*
X84083D01*
Y271836D01*
X85032Y272091D01*
X85889Y272585D01*
X86588Y273284D01*
X87083Y274141D01*
X87337Y275091D01*
D02*
G37*
G36*
X83083D02*
X79828D01*
X80083Y274141D01*
X80577Y273284D01*
X81277Y272585D01*
X82133Y272091D01*
X83083Y271836D01*
Y275091D01*
D02*
G37*
G36*
X168659Y273425D02*
X167955D01*
X167304Y273155D01*
X166805Y272657D01*
X166535Y272006D01*
Y271301D01*
X166805Y270650D01*
X167304Y270152D01*
X167955Y269882D01*
X168659D01*
X169311Y270152D01*
X169809Y270650D01*
X170079Y271301D01*
Y272006D01*
X169809Y272657D01*
X169311Y273155D01*
X168659Y273425D01*
D02*
G37*
G36*
X39722Y271457D02*
X39018D01*
X38366Y271187D01*
X37868Y270689D01*
X37598Y270037D01*
Y269333D01*
X37868Y268682D01*
X38366Y268183D01*
X39018Y267913D01*
X39722D01*
X40374Y268183D01*
X40872Y268682D01*
X41142Y269333D01*
Y270037D01*
X40872Y270689D01*
X40374Y271187D01*
X39722Y271457D01*
D02*
G37*
G36*
X15903Y269586D02*
X15199D01*
X14547Y269317D01*
X14049Y268818D01*
X13779Y268167D01*
Y267462D01*
X14049Y266811D01*
X14547Y266313D01*
X15199Y266043D01*
X15903D01*
X16555Y266313D01*
X17053Y266811D01*
X17323Y267462D01*
Y268167D01*
X17053Y268818D01*
X16555Y269317D01*
X15903Y269586D01*
D02*
G37*
G36*
X69936Y258158D02*
X69870D01*
Y254358D01*
X73670D01*
Y254424D01*
X73377Y255518D01*
X72811Y256499D01*
X72010Y257299D01*
X71030Y257865D01*
X69936Y258158D01*
D02*
G37*
G36*
X68870D02*
X68804D01*
X67710Y257865D01*
X66730Y257299D01*
X65929Y256499D01*
X65363Y255518D01*
X65070Y254424D01*
Y254358D01*
X68870D01*
Y258158D01*
D02*
G37*
G36*
X172203Y256890D02*
X171498D01*
X170847Y256620D01*
X170349Y256122D01*
X170079Y255470D01*
Y254766D01*
X170349Y254115D01*
X170847Y253616D01*
X171498Y253346D01*
X172203D01*
X172854Y253616D01*
X173352Y254115D01*
X173622Y254766D01*
Y255470D01*
X173352Y256122D01*
X172854Y256620D01*
X172203Y256890D01*
D02*
G37*
G36*
X37402Y260075D02*
X35827D01*
X34748Y259933D01*
X33742Y259516D01*
X32879Y258854D01*
X32216Y257990D01*
X31799Y256985D01*
X31657Y255906D01*
X31799Y254826D01*
X32216Y253821D01*
X32879Y252957D01*
X33742Y252295D01*
X34748Y251878D01*
X35827Y251736D01*
X37402D01*
X38481Y251878D01*
X39486Y252295D01*
X40350Y252957D01*
X41012Y253821D01*
X41429Y254826D01*
X41571Y255906D01*
X41429Y256985D01*
X41012Y257990D01*
X40350Y258854D01*
X39486Y259516D01*
X38481Y259933D01*
X37402Y260075D01*
D02*
G37*
G36*
X17717D02*
X16142D01*
X15063Y259933D01*
X14057Y259516D01*
X13193Y258854D01*
X12531Y257990D01*
X12114Y256985D01*
X11972Y255906D01*
X12114Y254826D01*
X12531Y253821D01*
X13193Y252957D01*
X14057Y252295D01*
X15063Y251878D01*
X16142Y251736D01*
X17717D01*
X18796Y251878D01*
X19801Y252295D01*
X20665Y252957D01*
X21327Y253821D01*
X21744Y254826D01*
X21886Y255906D01*
X21744Y256985D01*
X21327Y257990D01*
X20665Y258854D01*
X19801Y259516D01*
X18796Y259933D01*
X17717Y260075D01*
D02*
G37*
G36*
X84882Y257749D02*
X83858D01*
X82868Y257484D01*
X81981Y256972D01*
X81257Y256247D01*
X80745Y255360D01*
X80480Y254370D01*
Y253346D01*
X80745Y252357D01*
X81257Y251469D01*
X81981Y250745D01*
X82868Y250233D01*
X83858Y249968D01*
X84882D01*
X85872Y250233D01*
X86759Y250745D01*
X87483Y251469D01*
X87995Y252357D01*
X88261Y253346D01*
Y254370D01*
X87995Y255360D01*
X87483Y256247D01*
X86759Y256972D01*
X85872Y257484D01*
X84882Y257749D01*
D02*
G37*
G36*
X73670Y253358D02*
X69870D01*
Y249558D01*
X69936D01*
X71030Y249851D01*
X72010Y250417D01*
X72811Y251218D01*
X73377Y252199D01*
X73670Y253292D01*
Y253358D01*
D02*
G37*
G36*
X68870D02*
X65070D01*
Y253292D01*
X65363Y252199D01*
X65929Y251218D01*
X66730Y250417D01*
X67710Y249851D01*
X68804Y249558D01*
X68870D01*
Y253358D01*
D02*
G37*
G36*
X84998Y241929D02*
X84293D01*
X83642Y241659D01*
X83144Y241161D01*
X82874Y240510D01*
Y239805D01*
X83144Y239154D01*
X83642Y238655D01*
X84293Y238386D01*
X84998D01*
X85649Y238655D01*
X86148Y239154D01*
X86417Y239805D01*
Y240510D01*
X86148Y241161D01*
X85649Y241659D01*
X84998Y241929D01*
D02*
G37*
G36*
X43413Y240156D02*
Y232785D01*
X48489D01*
Y234647D01*
X48299Y236090D01*
X47742Y237435D01*
X46856Y238589D01*
X45701Y239475D01*
X44356Y240032D01*
X43413Y240156D01*
D02*
G37*
G36*
X171367D02*
Y232785D01*
X176443D01*
Y234647D01*
X176253Y236090D01*
X175696Y237435D01*
X174810Y238589D01*
X173655Y239475D01*
X172310Y240032D01*
X171367Y240156D01*
D02*
G37*
G36*
X42413D02*
X41470Y240032D01*
X40126Y239475D01*
X38971Y238589D01*
X38085Y237435D01*
X37528Y236090D01*
X37338Y234647D01*
Y232785D01*
X42413D01*
Y240156D01*
D02*
G37*
G36*
X170367D02*
X169424Y240032D01*
X168080Y239475D01*
X166925Y238589D01*
X166039Y237435D01*
X165482Y236090D01*
X165292Y234647D01*
Y232785D01*
X170367D01*
Y240156D01*
D02*
G37*
G36*
X130422D02*
Y232785D01*
X135498D01*
Y234647D01*
X135308Y236090D01*
X134751Y237435D01*
X133865Y238589D01*
X132710Y239475D01*
X131366Y240032D01*
X130422Y240156D01*
D02*
G37*
G36*
X129422D02*
X128480Y240032D01*
X127135Y239475D01*
X125980Y238589D01*
X125094Y237435D01*
X124537Y236090D01*
X124347Y234647D01*
Y232785D01*
X129422D01*
Y240156D01*
D02*
G37*
G36*
X11130D02*
Y232785D01*
X16205D01*
Y234647D01*
X16015Y236090D01*
X15458Y237435D01*
X14572Y238589D01*
X13418Y239475D01*
X12073Y240032D01*
X11130Y240156D01*
D02*
G37*
G36*
X10130D02*
X9187Y240032D01*
X7842Y239475D01*
X6688Y238589D01*
X5802Y237435D01*
X5245Y236090D01*
X5055Y234647D01*
Y232785D01*
X10130D01*
Y240156D01*
D02*
G37*
G36*
X139173Y275908D02*
X138505Y275820D01*
X137883Y275562D01*
X137348Y275152D01*
X136938Y274617D01*
X136817Y274326D01*
X96600Y234109D01*
X96190Y233574D01*
X95932Y232951D01*
X95844Y232283D01*
X95932Y231615D01*
X96190Y230993D01*
X96600Y230458D01*
X97135Y230048D01*
X97757Y229790D01*
X98425Y229702D01*
X99093Y229790D01*
X99716Y230048D01*
X100250Y230458D01*
X140998Y271206D01*
X141409Y271741D01*
X141666Y272363D01*
X141754Y273031D01*
Y273327D01*
X141666Y273995D01*
X141409Y274617D01*
X140998Y275152D01*
X140464Y275562D01*
X139841Y275820D01*
X139173Y275908D01*
D02*
G37*
G36*
X176443Y231785D02*
X171367D01*
Y224413D01*
X172310Y224537D01*
X173655Y225094D01*
X174810Y225980D01*
X175696Y227135D01*
X176253Y228479D01*
X176443Y229922D01*
Y231785D01*
D02*
G37*
G36*
X48489D02*
X43413D01*
Y224413D01*
X44356Y224537D01*
X45701Y225094D01*
X46856Y225980D01*
X47742Y227135D01*
X48299Y228479D01*
X48489Y229922D01*
Y231785D01*
D02*
G37*
G36*
X135498Y231785D02*
X130422D01*
Y224413D01*
X131366Y224537D01*
X132710Y225094D01*
X133865Y225980D01*
X134751Y227135D01*
X135308Y228479D01*
X135498Y229922D01*
Y231785D01*
D02*
G37*
G36*
X129422D02*
X124347D01*
Y229922D01*
X124537Y228479D01*
X125094Y227135D01*
X125980Y225980D01*
X127135Y225094D01*
X128480Y224537D01*
X129422Y224413D01*
Y231785D01*
D02*
G37*
G36*
X16205D02*
X11130D01*
Y224413D01*
X12073Y224537D01*
X13418Y225094D01*
X14572Y225980D01*
X15458Y227135D01*
X16015Y228479D01*
X16205Y229922D01*
Y231785D01*
D02*
G37*
G36*
X10130D02*
X5055D01*
Y229922D01*
X5245Y228479D01*
X5802Y227135D01*
X6688Y225980D01*
X7842Y225094D01*
X9187Y224537D01*
X10130Y224413D01*
Y231785D01*
D02*
G37*
G36*
X170367Y231785D02*
X165292D01*
Y229922D01*
X165482Y228479D01*
X166039Y227135D01*
X166925Y225980D01*
X168080Y225094D01*
X169424Y224537D01*
X170367Y224413D01*
Y231785D01*
D02*
G37*
G36*
X42413D02*
X37338D01*
Y229922D01*
X37528Y228479D01*
X38085Y227135D01*
X38971Y225980D01*
X40126Y225094D01*
X41470Y224537D01*
X42413Y224413D01*
Y231785D01*
D02*
G37*
G36*
X82382Y217749D02*
X81358D01*
X80368Y217484D01*
X79481Y216971D01*
X78757Y216247D01*
X78245Y215360D01*
X77979Y214370D01*
Y213346D01*
X78245Y212357D01*
X78757Y211469D01*
X79481Y210745D01*
X80368Y210233D01*
X81358Y209968D01*
X82382D01*
X83372Y210233D01*
X84259Y210745D01*
X84983Y211469D01*
X85496Y212357D01*
X85761Y213346D01*
Y214370D01*
X85496Y215360D01*
X84983Y216247D01*
X84259Y216971D01*
X83372Y217484D01*
X82382Y217749D01*
D02*
G37*
G36*
X72382D02*
X71358D01*
X70368Y217484D01*
X69481Y216971D01*
X68757Y216247D01*
X68245Y215360D01*
X67980Y214370D01*
Y213346D01*
X68245Y212357D01*
X68757Y211469D01*
X69481Y210745D01*
X70368Y210233D01*
X71358Y209968D01*
X72382D01*
X73372Y210233D01*
X74259Y210745D01*
X74983Y211469D01*
X75495Y212357D01*
X75761Y213346D01*
Y214370D01*
X75495Y215360D01*
X74983Y216247D01*
X74259Y216971D01*
X73372Y217484D01*
X72382Y217749D01*
D02*
G37*
G36*
X21064Y213583D02*
X12797D01*
Y203740D01*
X21064D01*
Y213583D01*
D02*
G37*
G36*
X36615Y213618D02*
X35536Y213476D01*
X34531Y213060D01*
X33667Y212397D01*
X33005Y211534D01*
X32588Y210528D01*
X32446Y209449D01*
Y207874D01*
X32588Y206795D01*
X33005Y205789D01*
X33667Y204926D01*
X34531Y204263D01*
X35536Y203847D01*
X36615Y203705D01*
X37695Y203847D01*
X38700Y204263D01*
X39564Y204926D01*
X40226Y205789D01*
X40643Y206795D01*
X40785Y207874D01*
Y209449D01*
X40643Y210528D01*
X40226Y211534D01*
X39564Y212397D01*
X38700Y213060D01*
X37695Y213476D01*
X36615Y213618D01*
D02*
G37*
G36*
X26772D02*
X25692Y213476D01*
X24687Y213060D01*
X23823Y212397D01*
X23161Y211534D01*
X22744Y210528D01*
X22602Y209449D01*
Y207874D01*
X22744Y206795D01*
X23161Y205789D01*
X23823Y204926D01*
X24687Y204263D01*
X25692Y203847D01*
X26772Y203705D01*
X27851Y203847D01*
X28856Y204263D01*
X29720Y204926D01*
X30383Y205789D01*
X30799Y206795D01*
X30941Y207874D01*
Y209449D01*
X30799Y210528D01*
X30383Y211534D01*
X29720Y212397D01*
X28856Y213060D01*
X27851Y213476D01*
X26772Y213618D01*
D02*
G37*
G36*
X144686Y207678D02*
X136419D01*
Y197836D01*
X144686D01*
Y207678D01*
D02*
G37*
G36*
X160238Y207714D02*
X159158Y207572D01*
X158153Y207155D01*
X157289Y206493D01*
X156627Y205629D01*
X156210Y204624D01*
X156068Y203544D01*
Y201970D01*
X156210Y200890D01*
X156627Y199885D01*
X157289Y199021D01*
X158153Y198359D01*
X159158Y197942D01*
X160238Y197800D01*
X161317Y197942D01*
X162322Y198359D01*
X163186Y199021D01*
X163848Y199885D01*
X164265Y200890D01*
X164407Y201970D01*
Y203544D01*
X164265Y204624D01*
X163848Y205629D01*
X163186Y206493D01*
X162322Y207155D01*
X161317Y207572D01*
X160238Y207714D01*
D02*
G37*
G36*
X150395D02*
X149316Y207572D01*
X148310Y207155D01*
X147447Y206493D01*
X146784Y205629D01*
X146368Y204624D01*
X146226Y203544D01*
Y201970D01*
X146368Y200890D01*
X146784Y199885D01*
X147447Y199021D01*
X148310Y198359D01*
X149316Y197942D01*
X150395Y197800D01*
X151474Y197942D01*
X152480Y198359D01*
X153343Y199021D01*
X154006Y199885D01*
X154422Y200890D01*
X154564Y201970D01*
Y203544D01*
X154422Y204624D01*
X154006Y205629D01*
X153343Y206493D01*
X152480Y207155D01*
X151474Y207572D01*
X150395Y207714D01*
D02*
G37*
G36*
X173638Y186689D02*
X167232D01*
Y182252D01*
X173638D01*
Y186689D01*
D02*
G37*
G36*
X166232D02*
X159827D01*
Y182252D01*
X166232D01*
Y186689D01*
D02*
G37*
G36*
X145669Y186732D02*
X142232D01*
Y182252D01*
X150583D01*
X150479Y183041D01*
X149982Y184242D01*
X149190Y185273D01*
X148159Y186064D01*
X146958Y186562D01*
X145669Y186732D01*
D02*
G37*
G36*
X141232D02*
X137795D01*
X136506Y186562D01*
X135306Y186064D01*
X134274Y185273D01*
X133483Y184242D01*
X132985Y183041D01*
X132881Y182252D01*
X141232D01*
Y186732D01*
D02*
G37*
G36*
X30398Y182408D02*
X29693D01*
X29042Y182138D01*
X28821Y181917D01*
X28520Y181657D01*
X28168Y181917D01*
X27972Y182112D01*
X27321Y182382D01*
X26616D01*
X25965Y182112D01*
X25467Y181614D01*
X25197Y180963D01*
Y180258D01*
X25467Y179607D01*
X25965Y179108D01*
X26616Y178839D01*
X27321D01*
X27972Y179108D01*
X28193Y179330D01*
X28494Y179589D01*
X28847Y179330D01*
X29042Y179134D01*
X29693Y178865D01*
X30398D01*
X31049Y179134D01*
X31547Y179633D01*
X31817Y180284D01*
Y180989D01*
X31547Y181640D01*
X31049Y182138D01*
X30398Y182408D01*
D02*
G37*
G36*
X84408Y181004D02*
X83703D01*
X83052Y180734D01*
X82553Y180236D01*
X82284Y179585D01*
Y178880D01*
X82553Y178229D01*
X83052Y177730D01*
X83703Y177461D01*
X84408D01*
X85059Y177730D01*
X85557Y178229D01*
X85827Y178880D01*
Y179585D01*
X85557Y180236D01*
X85059Y180734D01*
X84408Y181004D01*
D02*
G37*
G36*
X120669Y186319D02*
X112795D01*
X111613Y186163D01*
X110512Y185707D01*
X109566Y184981D01*
X108841Y184035D01*
X108384Y182934D01*
X108229Y181752D01*
X108384Y180570D01*
X108841Y179469D01*
X109566Y178523D01*
X110512Y177797D01*
X111613Y177341D01*
X112795Y177185D01*
X120669D01*
X121851Y177341D01*
X122953Y177797D01*
X123898Y178523D01*
X124624Y179469D01*
X125080Y180570D01*
X125236Y181752D01*
X125080Y182934D01*
X124624Y184035D01*
X123898Y184981D01*
X122953Y185707D01*
X121851Y186163D01*
X120669Y186319D01*
D02*
G37*
G36*
X173638Y181252D02*
X167232D01*
Y176815D01*
X173638D01*
Y181252D01*
D02*
G37*
G36*
X166232D02*
X159827D01*
Y176815D01*
X166232D01*
Y181252D01*
D02*
G37*
G36*
X150583D02*
X142232D01*
Y176772D01*
X145669D01*
X146958Y176942D01*
X148159Y177439D01*
X149190Y178231D01*
X149982Y179262D01*
X150479Y180463D01*
X150583Y181252D01*
D02*
G37*
G36*
X141232D02*
X132881D01*
X132985Y180463D01*
X133483Y179262D01*
X134274Y178231D01*
X135306Y177439D01*
X136506Y176942D01*
X137795Y176772D01*
X141232D01*
Y181252D01*
D02*
G37*
G36*
X15412Y177362D02*
X14707D01*
X14055Y177093D01*
X13557Y176594D01*
X13287Y175943D01*
Y175238D01*
X13557Y174587D01*
X14055Y174089D01*
X14707Y173819D01*
X15412D01*
X16063Y174089D01*
X16561Y174587D01*
X16831Y175238D01*
Y175943D01*
X16561Y176594D01*
X16063Y177093D01*
X15412Y177362D01*
D02*
G37*
G36*
X67675Y176378D02*
X66970D01*
X66319Y176108D01*
X65821Y175610D01*
X65551Y174959D01*
Y174254D01*
X65821Y173603D01*
X66319Y173104D01*
X66970Y172835D01*
X67675D01*
X68326Y173104D01*
X68825Y173603D01*
X69095Y174254D01*
Y174959D01*
X68825Y175610D01*
X68326Y176108D01*
X67675Y176378D01*
D02*
G37*
G36*
X19447Y170472D02*
X18742D01*
X18091Y170203D01*
X17593Y169704D01*
X17323Y169053D01*
Y168348D01*
X17593Y167697D01*
X18091Y167199D01*
X18742Y166929D01*
X19447D01*
X20098Y167199D01*
X20596Y167697D01*
X20866Y168348D01*
Y169053D01*
X20596Y169704D01*
X20098Y170203D01*
X19447Y170472D01*
D02*
G37*
G36*
X108620Y167126D02*
X107915D01*
X107264Y166856D01*
X106766Y166358D01*
X106496Y165707D01*
Y165002D01*
X106766Y164351D01*
X107264Y163852D01*
X107915Y163583D01*
X108620D01*
X109271Y163852D01*
X109770Y164351D01*
X110039Y165002D01*
Y165707D01*
X109770Y166358D01*
X109271Y166856D01*
X108620Y167126D01*
D02*
G37*
G36*
X169095Y169685D02*
X158465D01*
Y163386D01*
X169095D01*
Y169685D01*
D02*
G37*
G36*
X72835Y339835D02*
X72167Y339747D01*
X71544Y339489D01*
X71009Y339079D01*
X70599Y338545D01*
X70341Y337922D01*
X70253Y337254D01*
X70341Y336586D01*
X70599Y335963D01*
X71009Y335429D01*
X102242Y304197D01*
Y254022D01*
X89191Y240972D01*
X88781Y240437D01*
X88523Y239814D01*
X88435Y239146D01*
Y192542D01*
X9941D01*
X9273Y192454D01*
X8650Y192196D01*
X8116Y191786D01*
X-349Y183321D01*
X-759Y182787D01*
X-1017Y182164D01*
X-1105Y181496D01*
X-1017Y180828D01*
X-759Y180206D01*
X-349Y179671D01*
X186Y179261D01*
X808Y179003D01*
X1476Y178915D01*
X2144Y179003D01*
X2767Y179261D01*
X3302Y179671D01*
X11010Y187380D01*
X88435D01*
Y169636D01*
X88413Y169466D01*
Y156885D01*
X87913Y156785D01*
X87821Y157008D01*
X87322Y157506D01*
X86671Y157776D01*
X85966D01*
X85315Y157506D01*
X84817Y157008D01*
X84547Y156356D01*
Y155651D01*
X84817Y155000D01*
X85315Y154502D01*
X85966Y154232D01*
X86671D01*
X87322Y154502D01*
X87821Y155000D01*
X87913Y155223D01*
X88413Y155123D01*
Y137126D01*
X88217Y136871D01*
X87960Y136249D01*
X87872Y135581D01*
Y122057D01*
X87372Y121723D01*
X87065Y121850D01*
X86360D01*
X85709Y121581D01*
X85211Y121082D01*
X84941Y120431D01*
Y119726D01*
X85211Y119075D01*
X85709Y118577D01*
X86360Y118307D01*
X87065D01*
X87372Y118434D01*
X87872Y118100D01*
Y102461D01*
X87960Y101793D01*
X88217Y101170D01*
X88628Y100636D01*
X98543Y90720D01*
X98543Y90720D01*
X117202Y72061D01*
Y45177D01*
X116709Y45120D01*
X116621Y45448D01*
X116024Y46481D01*
X115182Y47324D01*
X114149Y47920D01*
X112998Y48228D01*
X111805D01*
X110654Y47920D01*
X109622Y47324D01*
X108779Y46481D01*
X108183Y45448D01*
X107874Y44297D01*
Y43105D01*
X108183Y41953D01*
X108779Y40921D01*
X109622Y40078D01*
X110654Y39482D01*
X111805Y39173D01*
X112998D01*
X114149Y39482D01*
X115182Y40078D01*
X116024Y40921D01*
X116621Y41953D01*
X116929Y43105D01*
Y44074D01*
X117429Y44174D01*
X117548Y43887D01*
X117958Y43352D01*
X118383Y42927D01*
Y34632D01*
X117178Y33426D01*
X117007Y33497D01*
X116339Y33585D01*
X46640D01*
X46313Y33912D01*
X45779Y34322D01*
X45156Y34580D01*
X44488Y34668D01*
X43820Y34580D01*
X43198Y34322D01*
X42663Y33912D01*
X42253Y33377D01*
X41995Y32755D01*
X41907Y32087D01*
X41995Y31419D01*
X42253Y30796D01*
X42663Y30261D01*
X43746Y29179D01*
X44280Y28769D01*
X44903Y28511D01*
X45571Y28423D01*
X60767D01*
X60901Y27923D01*
X60409Y27639D01*
X59566Y26796D01*
X58970Y25763D01*
X58661Y24612D01*
Y23420D01*
X58970Y22268D01*
X59566Y21236D01*
X60409Y20393D01*
X61441Y19797D01*
X62593Y19488D01*
X63785D01*
X64937Y19797D01*
X65969Y20393D01*
X66812Y21236D01*
X67408Y22268D01*
X67716Y23420D01*
Y24612D01*
X67408Y25763D01*
X66812Y26796D01*
X65969Y27639D01*
X65477Y27923D01*
X65611Y28423D01*
X109980D01*
X110114Y27923D01*
X109622Y27639D01*
X108779Y26796D01*
X108183Y25763D01*
X107874Y24612D01*
Y23420D01*
X108183Y22268D01*
X108779Y21236D01*
X109622Y20393D01*
X110654Y19797D01*
X111805Y19488D01*
X112998D01*
X114149Y19797D01*
X115113Y20353D01*
X115353Y20262D01*
X115582Y20086D01*
X115529Y19685D01*
X115617Y19017D01*
X115875Y18395D01*
X116285Y17860D01*
X116820Y17450D01*
X117442Y17192D01*
X118110Y17104D01*
X118778Y17192D01*
X119401Y17450D01*
X119935Y17860D01*
X120920Y18844D01*
X121330Y19379D01*
X121588Y20001D01*
X121676Y20669D01*
Y28248D01*
X121588Y28916D01*
X121330Y29539D01*
X121009Y29957D01*
X122790Y31738D01*
X123200Y32272D01*
X123458Y32895D01*
X123546Y33563D01*
Y42596D01*
X147651D01*
X147781Y42466D01*
X148316Y42056D01*
X148938Y41798D01*
X149606Y41710D01*
X150274Y41798D01*
X150897Y42056D01*
X151431Y42466D01*
X151842Y43001D01*
X152100Y43623D01*
X152187Y44291D01*
X152100Y44959D01*
X151842Y45582D01*
X151431Y46117D01*
X150546Y47002D01*
X150011Y47412D01*
X149389Y47670D01*
X148721Y47758D01*
X122365D01*
Y73130D01*
X122277Y73798D01*
X122019Y74420D01*
X121609Y74955D01*
X102193Y94371D01*
X102193Y94371D01*
X93034Y103530D01*
Y132458D01*
X137303D01*
X137971Y132546D01*
X138594Y132804D01*
X139128Y133214D01*
X139539Y133749D01*
X139796Y134371D01*
X139884Y135039D01*
X139796Y135707D01*
X139539Y136330D01*
X139128Y136864D01*
X138594Y137275D01*
X137971Y137532D01*
X137303Y137620D01*
X127668D01*
X127334Y138120D01*
X127461Y138427D01*
Y139132D01*
X127191Y139783D01*
X126692Y140281D01*
X126041Y140551D01*
X125337D01*
X124685Y140281D01*
X124187Y139783D01*
X123917Y139132D01*
Y138427D01*
X124044Y138120D01*
X123710Y137620D01*
X93575D01*
Y169318D01*
X93598Y169488D01*
Y189961D01*
Y238077D01*
X106648Y251128D01*
X107058Y251662D01*
X107316Y252285D01*
X107404Y252953D01*
Y305266D01*
X107316Y305934D01*
X107058Y306556D01*
X106648Y307091D01*
X74660Y339079D01*
X74125Y339489D01*
X73503Y339747D01*
X72835Y339835D01*
D02*
G37*
G36*
X26730Y145276D02*
X26026D01*
X25374Y145006D01*
X24876Y144508D01*
X24606Y143856D01*
Y143151D01*
X24876Y142500D01*
X25374Y142002D01*
X26026Y141732D01*
X26730D01*
X27382Y142002D01*
X27880Y142500D01*
X28150Y143151D01*
Y143856D01*
X27880Y144508D01*
X27382Y145006D01*
X26730Y145276D01*
D02*
G37*
G36*
X49213Y167936D02*
X48544Y167848D01*
X47922Y167590D01*
X47387Y167180D01*
X46977Y166645D01*
X46719Y166022D01*
X46632Y165354D01*
Y143701D01*
X46719Y143033D01*
X46977Y142410D01*
X47387Y141876D01*
X47922Y141465D01*
X48544Y141208D01*
X49213Y141120D01*
X49881Y141208D01*
X50503Y141465D01*
X51038Y141876D01*
X51448Y142410D01*
X51706Y143033D01*
X51794Y143701D01*
Y165354D01*
X51706Y166022D01*
X51448Y166645D01*
X51038Y167180D01*
X50503Y167590D01*
X49881Y167848D01*
X49213Y167936D01*
D02*
G37*
G36*
X64370Y134960D02*
X60933D01*
Y130480D01*
X69284D01*
X69180Y131269D01*
X68682Y132470D01*
X67891Y133501D01*
X66860Y134293D01*
X65659Y134790D01*
X64370Y134960D01*
D02*
G37*
G36*
X39370D02*
X35933D01*
Y130480D01*
X44284D01*
X44180Y131269D01*
X43683Y132470D01*
X42891Y133501D01*
X41860Y134293D01*
X40659Y134790D01*
X39370Y134960D01*
D02*
G37*
G36*
X14370D02*
X10933D01*
Y130480D01*
X19284D01*
X19180Y131269D01*
X18683Y132470D01*
X17891Y133501D01*
X16860Y134293D01*
X15659Y134790D01*
X14370Y134960D01*
D02*
G37*
G36*
X59933D02*
X56496D01*
X55207Y134790D01*
X54006Y134293D01*
X52975Y133501D01*
X52184Y132470D01*
X51686Y131269D01*
X51582Y130480D01*
X59933D01*
Y134960D01*
D02*
G37*
G36*
X9933D02*
X6496D01*
X5207Y134790D01*
X4006Y134293D01*
X2975Y133501D01*
X2184Y132470D01*
X1686Y131269D01*
X1582Y130480D01*
X9933D01*
Y134960D01*
D02*
G37*
G36*
X34933D02*
X31496D01*
X30207Y134790D01*
X29006Y134293D01*
X27975Y133501D01*
X27184Y132470D01*
X26686Y131269D01*
X26582Y130480D01*
X34933D01*
Y134960D01*
D02*
G37*
G36*
X169095Y136221D02*
X158465D01*
Y129921D01*
X169095D01*
Y136221D01*
D02*
G37*
G36*
X69284Y129480D02*
X60933D01*
Y125001D01*
X64370D01*
X65659Y125170D01*
X66860Y125668D01*
X67891Y126459D01*
X68682Y127490D01*
X69180Y128691D01*
X69284Y129480D01*
D02*
G37*
G36*
X59933D02*
X51582D01*
X51686Y128691D01*
X52184Y127490D01*
X52975Y126459D01*
X54006Y125668D01*
X55207Y125170D01*
X56496Y125001D01*
X59933D01*
Y129480D01*
D02*
G37*
G36*
X44284D02*
X35933D01*
Y125001D01*
X39370D01*
X40659Y125170D01*
X41860Y125668D01*
X42891Y126459D01*
X43683Y127490D01*
X44180Y128691D01*
X44284Y129480D01*
D02*
G37*
G36*
X34933D02*
X26582D01*
X26686Y128691D01*
X27184Y127490D01*
X27975Y126459D01*
X29006Y125668D01*
X30207Y125170D01*
X31496Y125001D01*
X34933D01*
Y129480D01*
D02*
G37*
G36*
X19284D02*
X10933D01*
Y125001D01*
X14370D01*
X15659Y125170D01*
X16860Y125668D01*
X17891Y126459D01*
X18683Y127490D01*
X19180Y128691D01*
X19284Y129480D01*
D02*
G37*
G36*
X9933D02*
X1582D01*
X1686Y128691D01*
X2184Y127490D01*
X2975Y126459D01*
X4006Y125668D01*
X5207Y125170D01*
X6496Y125001D01*
X9933D01*
Y129480D01*
D02*
G37*
G36*
X170669Y122834D02*
X167232D01*
Y118354D01*
X175583D01*
X175479Y119143D01*
X174982Y120344D01*
X174190Y121376D01*
X173159Y122167D01*
X171958Y122664D01*
X170669Y122834D01*
D02*
G37*
G36*
X166232D02*
X162795D01*
X161506Y122664D01*
X160306Y122167D01*
X159274Y121376D01*
X158483Y120344D01*
X157985Y119143D01*
X157881Y118354D01*
X166232D01*
Y122834D01*
D02*
G37*
G36*
X145669D02*
X142232D01*
Y118354D01*
X150583D01*
X150479Y119143D01*
X149982Y120344D01*
X149190Y121376D01*
X148159Y122167D01*
X146958Y122664D01*
X145669Y122834D01*
D02*
G37*
G36*
X141232D02*
X137795D01*
X136506Y122664D01*
X135306Y122167D01*
X134274Y121376D01*
X133483Y120344D01*
X132985Y119143D01*
X132881Y118354D01*
X141232D01*
Y122834D01*
D02*
G37*
G36*
X97793Y121850D02*
X97088D01*
X96437Y121581D01*
X95939Y121082D01*
X95669Y120431D01*
Y119726D01*
X95939Y119075D01*
X96437Y118577D01*
X97088Y118307D01*
X97793D01*
X98444Y118577D01*
X98943Y119075D01*
X99213Y119726D01*
Y120431D01*
X98943Y121082D01*
X98444Y121581D01*
X97793Y121850D01*
D02*
G37*
G36*
X120669Y122421D02*
X112795D01*
X111613Y122265D01*
X110512Y121809D01*
X109566Y121083D01*
X108841Y120138D01*
X108384Y119036D01*
X108229Y117854D01*
X108384Y116672D01*
X108841Y115571D01*
X109566Y114625D01*
X110512Y113900D01*
X111613Y113443D01*
X112795Y113288D01*
X120669D01*
X121851Y113443D01*
X122953Y113900D01*
X123898Y114625D01*
X124624Y115571D01*
X125080Y116672D01*
X125236Y117854D01*
X125080Y119036D01*
X124624Y120138D01*
X123898Y121083D01*
X122953Y121809D01*
X121851Y122265D01*
X120669Y122421D01*
D02*
G37*
G36*
X175583Y117354D02*
X167232D01*
Y112875D01*
X170669D01*
X171958Y113044D01*
X173159Y113542D01*
X174190Y114333D01*
X174982Y115365D01*
X175479Y116566D01*
X175583Y117354D01*
D02*
G37*
G36*
X166232D02*
X157881D01*
X157985Y116566D01*
X158483Y115365D01*
X159274Y114333D01*
X160306Y113542D01*
X161506Y113044D01*
X162795Y112875D01*
X166232D01*
Y117354D01*
D02*
G37*
G36*
X150583D02*
X142232D01*
Y112875D01*
X145669D01*
X146958Y113044D01*
X148159Y113542D01*
X149190Y114333D01*
X149982Y115365D01*
X150479Y116566D01*
X150583Y117354D01*
D02*
G37*
G36*
X141232D02*
X132881D01*
X132985Y116566D01*
X133483Y115365D01*
X134274Y114333D01*
X135306Y113542D01*
X136506Y113044D01*
X137795Y112875D01*
X141232D01*
Y117354D01*
D02*
G37*
G36*
X97892Y115256D02*
X97187D01*
X96536Y114986D01*
X96037Y114488D01*
X95768Y113837D01*
Y113132D01*
X96037Y112481D01*
X96536Y111982D01*
X97187Y111713D01*
X97892D01*
X98543Y111982D01*
X99041Y112481D01*
X99311Y113132D01*
Y113837D01*
X99041Y114488D01*
X98543Y114986D01*
X97892Y115256D01*
D02*
G37*
G36*
X18701Y117913D02*
X8071D01*
Y111614D01*
X18701D01*
Y117913D01*
D02*
G37*
G36*
X77321Y109252D02*
X76616D01*
X75965Y108982D01*
X75467Y108484D01*
X75197Y107833D01*
Y107128D01*
X75467Y106477D01*
X75965Y105978D01*
X76616Y105709D01*
X77321D01*
X77972Y105978D01*
X78470Y106477D01*
X78740Y107128D01*
Y107833D01*
X78470Y108484D01*
X77972Y108982D01*
X77321Y109252D01*
D02*
G37*
G36*
X159843Y106299D02*
X141732D01*
Y96063D01*
X159843D01*
Y106299D01*
D02*
G37*
G36*
X83915Y94291D02*
X83211D01*
X82559Y94022D01*
X82061Y93523D01*
X81791Y92872D01*
Y92167D01*
X82061Y91516D01*
X82559Y91018D01*
X83211Y90748D01*
X83915D01*
X84566Y91018D01*
X85065Y91516D01*
X85335Y92167D01*
Y92872D01*
X85065Y93523D01*
X84566Y94022D01*
X83915Y94291D01*
D02*
G37*
G36*
X48482Y91929D02*
X47778D01*
X47126Y91659D01*
X46628Y91161D01*
X46358Y90510D01*
Y89805D01*
X46628Y89154D01*
X47126Y88656D01*
X47778Y88386D01*
X48482D01*
X49134Y88656D01*
X49632Y89154D01*
X49902Y89805D01*
Y90510D01*
X49632Y91161D01*
X49134Y91659D01*
X48482Y91929D01*
D02*
G37*
G36*
X144504Y93126D02*
X139476D01*
Y83177D01*
X144504D01*
Y93126D01*
D02*
G37*
G36*
X138476D02*
X133449D01*
Y83177D01*
X138476D01*
Y93126D01*
D02*
G37*
G36*
X18701Y84449D02*
X8071D01*
Y78150D01*
X18701D01*
Y84449D01*
D02*
G37*
G36*
X167717Y91732D02*
X157480D01*
Y73622D01*
X167717D01*
Y91732D01*
D02*
G37*
G36*
X144504Y82177D02*
X139476D01*
Y72228D01*
X144504D01*
Y82177D01*
D02*
G37*
G36*
X138476D02*
X133449D01*
Y72228D01*
X138476D01*
Y82177D01*
D02*
G37*
G36*
X39370Y71062D02*
X35933D01*
Y66583D01*
X44284D01*
X44180Y67371D01*
X43683Y68572D01*
X42891Y69604D01*
X41860Y70395D01*
X40659Y70893D01*
X39370Y71062D01*
D02*
G37*
G36*
X17339Y71020D02*
X10933D01*
Y66583D01*
X17339D01*
Y71020D01*
D02*
G37*
G36*
X9933D02*
X3528D01*
Y66583D01*
X9933D01*
Y71020D01*
D02*
G37*
G36*
X34933Y71062D02*
X31496D01*
X30207Y70893D01*
X29006Y70395D01*
X27975Y69604D01*
X27184Y68572D01*
X26686Y67371D01*
X26582Y66583D01*
X34933D01*
Y71062D01*
D02*
G37*
G36*
X64370Y70649D02*
X56496D01*
X55314Y70494D01*
X54213Y70038D01*
X53267Y69312D01*
X52541Y68366D01*
X52085Y67265D01*
X51929Y66083D01*
X52085Y64901D01*
X52541Y63799D01*
X53267Y62854D01*
X54213Y62128D01*
X55314Y61672D01*
X56496Y61516D01*
X64370D01*
X65552Y61672D01*
X66653Y62128D01*
X67599Y62854D01*
X68325Y63799D01*
X68781Y64901D01*
X68937Y66083D01*
X68781Y67265D01*
X68325Y68366D01*
X67599Y69312D01*
X66653Y70038D01*
X65552Y70494D01*
X64370Y70649D01*
D02*
G37*
G36*
X17339Y65583D02*
X10933D01*
Y61146D01*
X17339D01*
Y65583D01*
D02*
G37*
G36*
X9933D02*
X3528D01*
Y61146D01*
X9933D01*
Y65583D01*
D02*
G37*
G36*
X44284D02*
X35933D01*
Y61103D01*
X39370D01*
X40659Y61273D01*
X41860Y61770D01*
X42891Y62562D01*
X43683Y63593D01*
X44180Y64794D01*
X44284Y65583D01*
D02*
G37*
G36*
X34933D02*
X26582D01*
X26686Y64794D01*
X27184Y63593D01*
X27975Y62562D01*
X29006Y61770D01*
X30207Y61273D01*
X31496Y61103D01*
X34933D01*
Y65583D01*
D02*
G37*
G36*
X88314Y55512D02*
X87277D01*
X86276Y55243D01*
X85378Y54725D01*
X84645Y53992D01*
X84127Y53094D01*
X83858Y52093D01*
Y51056D01*
X84127Y50055D01*
X84645Y49157D01*
X85378Y48424D01*
X86276Y47906D01*
X87277Y47638D01*
X88314D01*
X89315Y47906D01*
X90213Y48424D01*
X90946Y49157D01*
X91464Y50055D01*
X91732Y51056D01*
Y52093D01*
X91464Y53094D01*
X90946Y53992D01*
X90213Y54725D01*
X89315Y55243D01*
X88314Y55512D01*
D02*
G37*
G36*
X3699Y50000D02*
X2994D01*
X2343Y49730D01*
X1845Y49232D01*
X1575Y48581D01*
Y47876D01*
X1845Y47225D01*
X2343Y46726D01*
X2994Y46457D01*
X3699D01*
X4350Y46726D01*
X4848Y47225D01*
X5118Y47876D01*
Y48581D01*
X4848Y49232D01*
X4350Y49730D01*
X3699Y50000D01*
D02*
G37*
G36*
X63785Y48228D02*
X62593D01*
X61441Y47920D01*
X60409Y47324D01*
X59566Y46481D01*
X58970Y45448D01*
X58661Y44297D01*
Y43105D01*
X58970Y41953D01*
X59566Y40921D01*
X60409Y40078D01*
X61441Y39482D01*
X62593Y39173D01*
X63785D01*
X64937Y39482D01*
X65969Y40078D01*
X66812Y40921D01*
X67408Y41953D01*
X67716Y43105D01*
Y44297D01*
X67408Y45448D01*
X66812Y46481D01*
X65969Y47324D01*
X64937Y47920D01*
X63785Y48228D01*
D02*
G37*
G36*
X88314Y20079D02*
X87277D01*
X86276Y19810D01*
X85378Y19292D01*
X84645Y18559D01*
X84127Y17661D01*
X83858Y16660D01*
Y15623D01*
X84127Y14622D01*
X84645Y13724D01*
X85378Y12991D01*
X86276Y12473D01*
X87277Y12205D01*
X88314D01*
X89315Y12473D01*
X90213Y12991D01*
X90946Y13724D01*
X91464Y14622D01*
X91732Y15623D01*
Y16660D01*
X91464Y17661D01*
X90946Y18559D01*
X90213Y19292D01*
X89315Y19810D01*
X88314Y20079D01*
D02*
G37*
G36*
X150451Y14567D02*
X149746D01*
X149095Y14297D01*
X148597Y13799D01*
X148327Y13148D01*
Y12443D01*
X148597Y11792D01*
X149095Y11293D01*
X149746Y11024D01*
X150451D01*
X151102Y11293D01*
X151600Y11792D01*
X151870Y12443D01*
Y13148D01*
X151600Y13799D01*
X151102Y14297D01*
X150451Y14567D01*
D02*
G37*
G36*
X170628Y13583D02*
X169923D01*
X169272Y13313D01*
X168774Y12815D01*
X168504Y12163D01*
Y11459D01*
X168774Y10808D01*
X169272Y10309D01*
X169923Y10039D01*
X170628D01*
X171279Y10309D01*
X171777Y10808D01*
X172047Y11459D01*
Y12163D01*
X171777Y12815D01*
X171279Y13313D01*
X170628Y13583D01*
D02*
G37*
G36*
X166396D02*
X165691D01*
X165040Y13313D01*
X164541Y12815D01*
X164272Y12163D01*
Y11459D01*
X164541Y10808D01*
X165040Y10309D01*
X165691Y10039D01*
X166396D01*
X167047Y10309D01*
X167545Y10808D01*
X167815Y11459D01*
Y12163D01*
X167545Y12815D01*
X167047Y13313D01*
X166396Y13583D01*
D02*
G37*
%LPD*%
D57*
X91017Y189961D02*
Y239146D01*
Y169488D02*
Y189961D01*
X9941D02*
X91017D01*
Y239146D02*
X104823Y252953D01*
X90994Y135039D02*
Y169466D01*
X90453Y102461D02*
X100368Y92546D01*
X90453Y102461D02*
Y135581D01*
X118110Y19685D02*
X119095Y20669D01*
Y28248D01*
X118110Y29232D02*
X119095Y28248D01*
X148721Y45177D02*
X149606Y44291D01*
X119783Y45177D02*
X148721D01*
X139173Y273031D02*
Y273327D01*
X98425Y232283D02*
X139173Y273031D01*
X119783Y45177D02*
X120965Y43996D01*
X44488Y32087D02*
X45571Y31004D01*
X118110Y30709D02*
X120965Y33563D01*
Y43996D01*
X118110Y29232D02*
Y30709D01*
X45571Y31004D02*
X116339D01*
X118110Y29232D01*
X49213Y143701D02*
Y165354D01*
X1476Y181496D02*
X9941Y189961D01*
X104823Y252953D02*
Y305266D01*
X72835Y337254D02*
X104823Y305266D01*
X90994Y135039D02*
X137303D01*
X90453Y135581D02*
X90994Y135039D01*
X119783Y45177D02*
Y73130D01*
X100368Y92546D02*
X119783Y73130D01*
D60*
X69370Y253858D02*
D03*
D62*
X141732Y181752D02*
D03*
Y117854D02*
D03*
X166732D02*
D03*
X35433Y66083D02*
D03*
Y129980D02*
D03*
X10433D02*
D03*
X60433D02*
D03*
D63*
X166732Y181752D02*
D03*
X10433Y66083D02*
D03*
D65*
X10630Y232285D02*
D03*
X42913D02*
D03*
X47245Y354332D02*
D03*
X6301D02*
D03*
X170867D02*
D03*
X129922D02*
D03*
Y232285D02*
D03*
X170867D02*
D03*
D67*
X16930Y324804D02*
D03*
D70*
X83583Y275590D02*
D03*
D71*
X138976Y82677D02*
D03*
D74*
X8661Y290158D02*
D03*
D76*
X67126Y228346D02*
D03*
Y259842D02*
D03*
X27559Y19685D02*
D03*
Y74803D02*
D03*
X55118D02*
D03*
X82677Y129921D02*
D03*
X0Y295276D02*
D03*
X27559Y240158D02*
D03*
Y350394D02*
D03*
X55118D02*
D03*
X82677Y295276D02*
D03*
X96457Y47244D02*
D03*
X110236Y129921D02*
D03*
X96457Y212598D02*
D03*
X124016Y157480D02*
D03*
X137795Y350394D02*
D03*
X161417Y354331D02*
D03*
X169291Y338583D02*
D03*
Y307087D02*
D03*
X161417Y228346D02*
D03*
X169291Y212598D02*
D03*
Y149606D02*
D03*
X161417Y102362D02*
D03*
X169291Y86614D02*
D03*
Y55118D02*
D03*
X153543Y338583D02*
D03*
Y244094D02*
D03*
X145669Y228346D02*
D03*
X153543Y212598D02*
D03*
Y181102D02*
D03*
X145669Y165354D02*
D03*
X153543Y149606D02*
D03*
Y118110D02*
D03*
Y86614D02*
D03*
X145669Y70866D02*
D03*
X129921Y322835D02*
D03*
X137795Y307087D02*
D03*
Y244094D02*
D03*
X129921Y196850D02*
D03*
Y102362D02*
D03*
Y70866D02*
D03*
X114173Y354331D02*
D03*
X122047Y338583D02*
D03*
X114173Y322835D02*
D03*
X122047Y307087D02*
D03*
X114173Y259842D02*
D03*
X122047Y244094D02*
D03*
X114173Y228346D02*
D03*
X122047Y212598D02*
D03*
X114173Y196850D02*
D03*
X122047Y149606D02*
D03*
X114173Y102362D02*
D03*
X122047Y86614D02*
D03*
X114173Y7874D02*
D03*
X98425Y259842D02*
D03*
Y228346D02*
D03*
Y196850D02*
D03*
X106299Y181102D02*
D03*
Y118110D02*
D03*
X98425Y102362D02*
D03*
Y70866D02*
D03*
Y39370D02*
D03*
Y7874D02*
D03*
X82677Y291338D02*
D03*
Y259842D02*
D03*
Y228346D02*
D03*
Y165354D02*
D03*
Y133858D02*
D03*
Y39370D02*
D03*
Y7874D02*
D03*
X74803Y307087D02*
D03*
X66929Y196850D02*
D03*
Y7874D02*
D03*
X59055Y307087D02*
D03*
X51181Y259842D02*
D03*
Y228346D02*
D03*
X59055Y118110D02*
D03*
Y86614D02*
D03*
X51181Y70866D02*
D03*
X59055Y55118D02*
D03*
X51181Y39370D02*
D03*
Y7874D02*
D03*
X35433Y354331D02*
D03*
X43307Y338583D02*
D03*
Y244094D02*
D03*
X35433Y228346D02*
D03*
X43307Y212598D02*
D03*
Y149606D02*
D03*
Y118110D02*
D03*
X35433Y102362D02*
D03*
X43307Y86614D02*
D03*
Y55118D02*
D03*
Y23622D02*
D03*
X35433Y7874D02*
D03*
X19685Y354331D02*
D03*
X27559Y338583D02*
D03*
Y244094D02*
D03*
X19685Y196850D02*
D03*
Y133858D02*
D03*
X27559Y118110D02*
D03*
X19685Y102362D02*
D03*
X27559Y86614D02*
D03*
X19685Y70866D02*
D03*
X27559Y55118D02*
D03*
X19685Y39370D02*
D03*
X27559Y23622D02*
D03*
X19685Y7874D02*
D03*
X11811Y338583D02*
D03*
X3937Y322835D02*
D03*
X11811Y307087D02*
D03*
Y244094D02*
D03*
X3937Y228346D02*
D03*
Y196850D02*
D03*
X11811Y181102D02*
D03*
Y149606D02*
D03*
X3937Y102362D02*
D03*
X11811Y86614D02*
D03*
Y55118D02*
D03*
X137795Y295276D02*
D03*
Y240158D02*
D03*
X151575Y157480D02*
D03*
X110236Y350394D02*
D03*
X124016Y322835D02*
D03*
Y212598D02*
D03*
X82677Y19685D02*
D03*
X55118D02*
D03*
X41339Y212598D02*
D03*
Y102362D02*
D03*
X13780Y157480D02*
D03*
Y102362D02*
D03*
X0Y19685D02*
D03*
X137795Y57087D02*
D03*
X146653Y10827D02*
D03*
X153543Y27165D02*
D03*
X130905Y58661D02*
D03*
X118110Y19685D02*
D03*
X149606Y44291D02*
D03*
X91017Y169488D02*
D03*
X98425Y232283D02*
D03*
X118110Y29232D02*
D03*
X139173Y273327D02*
D03*
X49213Y165354D02*
D03*
Y143701D02*
D03*
X57579Y189961D02*
D03*
X1476Y181496D02*
D03*
X119783Y45177D02*
D03*
X72835Y337254D02*
D03*
X157087Y3839D02*
D03*
X118602Y9055D02*
D03*
X100368Y92546D02*
D03*
X44488Y32087D02*
D03*
X137303Y135039D02*
D03*
M02*
