G04*
G04 #@! TF.GenerationSoftware,Altium Limited,Altium Designer,23.1.1 (15)*
G04*
G04 Layer_Color=32896*
%FSLAX25Y25*%
%MOIN*%
G70*
G04*
G04 #@! TF.SameCoordinates,434D1FB9-1166-4A3C-A543-B38E0AA6253E*
G04*
G04*
G04 #@! TF.FilePolarity,Positive*
G04*
G01*
G75*
%ADD10C,0.01000*%
%ADD11C,0.00787*%
%ADD12C,0.02362*%
%ADD14C,0.01181*%
%ADD15C,0.00591*%
%ADD17C,0.01575*%
%ADD69C,0.00984*%
%ADD103C,0.02953*%
%ADD104C,0.00394*%
D10*
X97244Y294094D02*
X124803D01*
X122047Y311024D02*
Y329134D01*
X109843Y311024D02*
X122047D01*
X97244Y294094D02*
Y300394D01*
X99213Y311024D02*
Y329134D01*
Y311024D02*
X109843D01*
X110039Y310827D01*
Y307874D02*
Y310827D01*
X124803Y294094D02*
Y307874D01*
X97244D02*
X124803D01*
X97244Y300394D02*
Y307874D01*
X164961Y56299D02*
Y57480D01*
X167717Y57874D02*
Y71850D01*
X179921Y57480D02*
Y72441D01*
X179921Y72441D02*
X179921Y72441D01*
X153543Y72441D02*
X179921D01*
X153543Y57874D02*
Y72441D01*
Y57874D02*
X173228D01*
X179528D01*
X180315Y57087D01*
Y22047D02*
Y57087D01*
X179921Y21654D02*
X180315Y22047D01*
X174016Y21654D02*
X179921D01*
X131890Y52756D02*
X134646D01*
Y67716D01*
X126378Y52756D02*
X131890D01*
X107874Y67716D02*
X134646D01*
X107874Y66535D02*
Y67716D01*
Y52756D02*
Y66535D01*
Y52756D02*
X126378D01*
Y51181D02*
Y52756D01*
Y44488D02*
Y51181D01*
Y44488D02*
X146063D01*
X126378Y37008D02*
Y44488D01*
X157087Y22047D02*
Y27165D01*
X143307Y22047D02*
X157087D01*
X143307Y17717D02*
Y22047D01*
X126378Y17717D02*
X143307D01*
X126378Y17717D02*
X126378Y17717D01*
X126378Y17717D02*
Y20079D01*
Y37008D01*
D11*
X164517Y44390D02*
X165305D01*
X164517Y41437D02*
X165305D01*
X147047Y39370D02*
X159252D01*
X147047Y35433D02*
X159252D01*
X147047D02*
Y39370D01*
X159252Y35433D02*
Y39370D01*
X143898Y48031D02*
X145079D01*
X143898Y60630D02*
X145079D01*
X166339Y53740D02*
X166732D01*
X166339Y48622D02*
X166732D01*
X44488Y29921D02*
Y42520D01*
X9843Y29921D02*
Y42520D01*
Y29921D02*
X44488D01*
X9843Y42520D02*
X44488D01*
X74410Y338189D02*
X109055D01*
X74410Y350787D02*
X109055D01*
Y338189D02*
Y350787D01*
X74410Y338189D02*
Y350787D01*
X97244Y160630D02*
Y173228D01*
X77559Y160630D02*
Y173228D01*
Y160630D02*
X97244D01*
X77559Y173228D02*
X97244D01*
X115748Y313878D02*
X116535D01*
X115748Y316831D02*
X116535D01*
X115354Y327854D02*
X116142D01*
X115354Y324902D02*
X116142D01*
X67618Y359055D02*
Y359842D01*
X64665Y359055D02*
Y359842D01*
X65256Y339370D02*
Y340158D01*
X62303Y339370D02*
Y340158D01*
X63681Y174016D02*
Y174803D01*
X60728Y174016D02*
Y174803D01*
X85532Y321654D02*
Y322441D01*
X88484Y321654D02*
Y322441D01*
X97047Y204528D02*
Y204921D01*
X91929Y204528D02*
Y204921D01*
X75197Y364075D02*
X75984D01*
X75197Y361122D02*
X75984D01*
X104774Y327854D02*
X105561D01*
X104774Y324902D02*
X105561D01*
X104724Y313878D02*
X105512D01*
X104724Y316831D02*
X105512D01*
X98721Y364567D02*
Y365354D01*
X95768Y364567D02*
Y365354D01*
X164862Y253937D02*
Y254724D01*
X161909Y253937D02*
Y254724D01*
X162697Y288976D02*
Y289764D01*
X165650Y288976D02*
Y289764D01*
X94587Y128740D02*
Y129528D01*
X97539Y128740D02*
Y129528D01*
X66634Y174016D02*
Y174803D01*
X69587Y174016D02*
Y174803D01*
X88287Y128740D02*
Y129528D01*
X91240Y128740D02*
Y129528D01*
X135630Y27362D02*
Y27756D01*
X140748Y27362D02*
Y27756D01*
X79232Y16142D02*
Y16929D01*
X82185Y16142D02*
Y16929D01*
X87402Y34547D02*
X88189D01*
X87402Y31594D02*
X88189D01*
X39469Y9843D02*
Y10630D01*
X42421Y9843D02*
Y10630D01*
X133661Y27362D02*
Y27756D01*
X128543Y27362D02*
Y27756D01*
X93012Y16142D02*
Y16929D01*
X95965Y16142D02*
Y16929D01*
X23622Y13484D02*
X24409D01*
X23622Y16437D02*
X24409D01*
X7972Y43848D02*
Y44635D01*
X5020Y43848D02*
Y44635D01*
X76181Y94291D02*
Y94685D01*
X71063Y94291D02*
Y94685D01*
X1083Y43701D02*
Y44488D01*
X-1870Y43701D02*
Y44488D01*
X126378Y147244D02*
X129528D01*
X126378Y144095D02*
Y147244D01*
Y135433D02*
X129528D01*
X126378D02*
Y138583D01*
Y166929D02*
X129528D01*
X126378Y163779D02*
Y166929D01*
Y155118D02*
X129528D01*
X126378D02*
Y158268D01*
X172047Y21063D02*
Y22244D01*
X159449Y21063D02*
Y22244D01*
X75000Y321457D02*
X81693D01*
X75000Y326575D02*
X81693D01*
X67126Y334449D02*
Y341142D01*
X72244Y334449D02*
Y341142D01*
X107283Y369488D02*
X113976D01*
X107283Y364370D02*
X113976D01*
X108071Y140748D02*
X114764D01*
X108071Y135630D02*
X114764D01*
X108071Y154528D02*
X114764D01*
X108071Y149409D02*
X114764D01*
X93996Y321654D02*
Y322441D01*
X91043Y321654D02*
Y322441D01*
X129331Y248868D02*
Y251476D01*
Y248868D02*
X133120Y245079D01*
X129331Y262943D02*
X133120Y266732D01*
X129331Y260335D02*
Y262943D01*
X133120Y245079D02*
X150984D01*
Y251476D01*
Y260335D02*
Y266732D01*
X133120D02*
X150984D01*
X134301Y299410D02*
X136909D01*
X130512Y295620D02*
X134301Y299410D01*
X148376D02*
X152165Y295620D01*
X145768Y299410D02*
X148376D01*
X130512Y277756D02*
Y295620D01*
Y277756D02*
X136909D01*
X145768D02*
X152165D01*
Y295620D01*
X97539Y142520D02*
Y143307D01*
X94587Y142520D02*
Y143307D01*
X88287Y142520D02*
Y143307D01*
X91240Y142520D02*
Y143307D01*
X168701Y37205D02*
X169095D01*
X168701Y32087D02*
X169095D01*
X87352Y28642D02*
X88139D01*
X87352Y25689D02*
X88139D01*
X143012Y28740D02*
Y29528D01*
X145965Y28740D02*
Y29528D01*
X151378Y14370D02*
X151772D01*
X151378Y19488D02*
X151772D01*
X22244Y5955D02*
X22638D01*
X22244Y11073D02*
X22638D01*
X72047Y157776D02*
X72835D01*
X72047Y154823D02*
X72835D01*
X90945Y183169D02*
X91732D01*
X90945Y186122D02*
X91732D01*
X88976Y360728D02*
X89764D01*
X88976Y363681D02*
X89764D01*
X49508Y102067D02*
Y104675D01*
X45719Y108465D02*
X49508Y104675D01*
X45719Y86811D02*
X49508Y90600D01*
Y93209D01*
X27854Y108465D02*
X45719D01*
X27854Y102067D02*
Y108465D01*
Y86811D02*
Y93209D01*
Y86811D02*
X45719D01*
X163598Y63123D02*
X164254Y63779D01*
X165566D01*
X166222Y63123D01*
Y60499D01*
X165566Y59843D01*
X164254D01*
X163598Y60499D01*
X162286Y63123D02*
X161630Y63779D01*
X160318D01*
X159662Y63123D01*
Y62467D01*
X160318Y61811D01*
X160974D01*
X160318D01*
X159662Y61155D01*
Y60499D01*
X160318Y59843D01*
X161630D01*
X162286Y60499D01*
X158350Y63123D02*
X157694Y63779D01*
X156382D01*
X155726Y63123D01*
Y62467D01*
X156382Y61811D01*
X155726Y61155D01*
Y60499D01*
X156382Y59843D01*
X157694D01*
X158350Y60499D01*
Y61155D01*
X157694Y61811D01*
X158350Y62467D01*
Y63123D01*
X157694Y61811D02*
X156382D01*
X65222Y114566D02*
Y110631D01*
X63254D01*
X62598Y111286D01*
Y113910D01*
X63254Y114566D01*
X65222D01*
X61286Y110631D02*
X59975D01*
X60631D01*
Y114566D01*
X61286Y113910D01*
X78741Y90027D02*
X82677D01*
Y91995D01*
X82021Y92651D01*
X80709D01*
X80053Y91995D01*
Y90027D01*
Y91339D02*
X78741Y92651D01*
Y95931D02*
X82677D01*
X80709Y93963D01*
Y96587D01*
X37795Y113910D02*
X38451Y114566D01*
X39763D01*
X40419Y113910D01*
Y111286D01*
X39763Y110631D01*
X38451D01*
X37795Y111286D01*
X36483Y110631D02*
X35171D01*
X35827D01*
Y114566D01*
X36483Y113910D01*
X68240Y366536D02*
Y370472D01*
X66272D01*
X65616Y369816D01*
Y368504D01*
X66272Y367848D01*
X68240D01*
X66928D02*
X65616Y366536D01*
X62336D02*
Y370472D01*
X64304Y368504D01*
X61680D01*
X60368Y369816D02*
X59712Y370472D01*
X58400D01*
X57744Y369816D01*
Y367192D01*
X58400Y366536D01*
X59712D01*
X60368Y367192D01*
Y369816D01*
X56300Y334910D02*
X60236D01*
Y336878D01*
X59580Y337534D01*
X58268D01*
X57612Y336878D01*
Y334910D01*
Y336222D02*
X56300Y337534D01*
X59580Y338846D02*
X60236Y339502D01*
Y340813D01*
X59580Y341469D01*
X58924D01*
X58268Y340813D01*
Y340158D01*
Y340813D01*
X57612Y341469D01*
X56956D01*
X56300Y340813D01*
Y339502D01*
X56956Y338846D01*
Y342781D02*
X56300Y343437D01*
Y344749D01*
X56956Y345405D01*
X59580D01*
X60236Y344749D01*
Y343437D01*
X59580Y342781D01*
X58924D01*
X58268Y343437D01*
Y345405D01*
X132283Y54988D02*
X129003D01*
X128347Y55644D01*
Y56956D01*
X129003Y57612D01*
X132283D01*
X129003Y58924D02*
X128347Y59580D01*
Y60891D01*
X129003Y61547D01*
X131627D01*
X132283Y60891D01*
Y59580D01*
X131627Y58924D01*
X130971D01*
X130315Y59580D01*
Y61547D01*
X25276Y39540D02*
X28556D01*
X29212Y38884D01*
Y37572D01*
X28556Y36916D01*
X25276D01*
X25932Y35604D02*
X25276Y34948D01*
Y33636D01*
X25932Y32980D01*
X26588D01*
X27244Y33636D01*
X27900Y32980D01*
X28556D01*
X29212Y33636D01*
Y34948D01*
X28556Y35604D01*
X27900D01*
X27244Y34948D01*
X26588Y35604D01*
X25932D01*
X27244Y34948D02*
Y33636D01*
X94488Y341208D02*
X91208D01*
X90552Y341864D01*
Y343176D01*
X91208Y343832D01*
X94488D01*
Y347768D02*
X93832Y346456D01*
X92520Y345144D01*
X91208D01*
X90552Y345800D01*
Y347112D01*
X91208Y347768D01*
X91864D01*
X92520Y347112D01*
Y345144D01*
X86064Y169835D02*
X89343D01*
X89999Y169179D01*
Y167867D01*
X89343Y167211D01*
X86064D01*
X86720Y165899D02*
X86064Y165243D01*
Y163931D01*
X86720Y163275D01*
X87375D01*
X88032Y163931D01*
Y164587D01*
Y163931D01*
X88687Y163275D01*
X89343D01*
X89999Y163931D01*
Y165243D01*
X89343Y165899D01*
X123358Y296064D02*
Y299999D01*
X121390D01*
X120734Y299343D01*
Y298031D01*
X121390Y297375D01*
X123358D01*
X122046D02*
X120734Y296064D01*
X117454D02*
Y299999D01*
X119422Y298031D01*
X116798D01*
X113519Y296064D02*
Y299999D01*
X115486Y298031D01*
X112863D01*
X123358Y301969D02*
Y305905D01*
X121390D01*
X120734Y305249D01*
Y303937D01*
X121390Y303281D01*
X123358D01*
X122046D02*
X120734Y301969D01*
X117454D02*
Y305905D01*
X119422Y303937D01*
X116798D01*
X115486Y305249D02*
X114830Y305905D01*
X113519D01*
X112863Y305249D01*
Y304593D01*
X113519Y303937D01*
X114174D01*
X113519D01*
X112863Y303281D01*
Y302625D01*
X113519Y301969D01*
X114830D01*
X115486Y302625D01*
X59843Y182417D02*
X63779D01*
Y184385D01*
X63123Y185041D01*
X61811D01*
X61155Y184385D01*
Y182417D01*
Y183729D02*
X59843Y185041D01*
X63123Y186353D02*
X63779Y187009D01*
Y188321D01*
X63123Y188977D01*
X62467D01*
X61811Y188321D01*
Y187665D01*
Y188321D01*
X61155Y188977D01*
X60499D01*
X59843Y188321D01*
Y187009D01*
X60499Y186353D01*
X63779Y190289D02*
Y192913D01*
X63123D01*
X60499Y190289D01*
X59843D01*
X84646Y304989D02*
X88582D01*
Y306956D01*
X87926Y307612D01*
X86614D01*
X85958Y306956D01*
Y304989D01*
Y306300D02*
X84646Y307612D01*
X87926Y308924D02*
X88582Y309580D01*
Y310892D01*
X87926Y311548D01*
X87270D01*
X86614Y310892D01*
Y310236D01*
Y310892D01*
X85958Y311548D01*
X85302D01*
X84646Y310892D01*
Y309580D01*
X85302Y308924D01*
X88582Y315484D02*
X87926Y314172D01*
X86614Y312860D01*
X85302D01*
X84646Y313516D01*
Y314828D01*
X85302Y315484D01*
X85958D01*
X86614Y314828D01*
Y312860D01*
X99607Y199477D02*
X103543D01*
Y201445D01*
X102887Y202101D01*
X101575D01*
X100919Y201445D01*
Y199477D01*
Y200789D02*
X99607Y202101D01*
X102887Y203413D02*
X103543Y204068D01*
Y205380D01*
X102887Y206036D01*
X102231D01*
X101575Y205380D01*
Y204724D01*
Y205380D01*
X100919Y206036D01*
X100263D01*
X99607Y205380D01*
Y204068D01*
X100263Y203413D01*
X103543Y209972D02*
Y207348D01*
X101575D01*
X102231Y208660D01*
Y209316D01*
X101575Y209972D01*
X100263D01*
X99607Y209316D01*
Y208004D01*
X100263Y207348D01*
X81232Y366536D02*
Y370472D01*
X79264D01*
X78608Y369816D01*
Y368504D01*
X79264Y367848D01*
X81232D01*
X79920D02*
X78608Y366536D01*
X77296Y369816D02*
X76640Y370472D01*
X75328D01*
X74672Y369816D01*
Y369160D01*
X75328Y368504D01*
X75984D01*
X75328D01*
X74672Y367848D01*
Y367192D01*
X75328Y366536D01*
X76640D01*
X77296Y367192D01*
X71393Y366536D02*
Y370472D01*
X73360Y368504D01*
X70737D01*
X109578Y301969D02*
Y305905D01*
X107610D01*
X106955Y305249D01*
Y303937D01*
X107610Y303281D01*
X109578D01*
X108266D02*
X106955Y301969D01*
X105643Y305249D02*
X104987Y305905D01*
X103675D01*
X103019Y305249D01*
Y304593D01*
X103675Y303937D01*
X104331D01*
X103675D01*
X103019Y303281D01*
Y302625D01*
X103675Y301969D01*
X104987D01*
X105643Y302625D01*
X101707Y305249D02*
X101051Y305905D01*
X99739D01*
X99083Y305249D01*
Y304593D01*
X99739Y303937D01*
X100395D01*
X99739D01*
X99083Y303281D01*
Y302625D01*
X99739Y301969D01*
X101051D01*
X101707Y302625D01*
X109578Y296064D02*
Y299999D01*
X107610D01*
X106955Y299343D01*
Y298031D01*
X107610Y297375D01*
X109578D01*
X108266D02*
X106955Y296064D01*
X105643Y299343D02*
X104987Y299999D01*
X103675D01*
X103019Y299343D01*
Y298687D01*
X103675Y298031D01*
X104331D01*
X103675D01*
X103019Y297375D01*
Y296720D01*
X103675Y296064D01*
X104987D01*
X105643Y296720D01*
X99083Y296064D02*
X101707D01*
X99083Y298687D01*
Y299343D01*
X99739Y299999D01*
X101051D01*
X101707Y299343D01*
X100394Y361288D02*
X104330D01*
Y363256D01*
X103674Y363912D01*
X102362D01*
X101706Y363256D01*
Y361288D01*
Y362600D02*
X100394Y363912D01*
X103674Y365224D02*
X104330Y365880D01*
Y367192D01*
X103674Y367848D01*
X103018D01*
X102362Y367192D01*
Y366536D01*
Y367192D01*
X101706Y367848D01*
X101050D01*
X100394Y367192D01*
Y365880D01*
X101050Y365224D01*
X100394Y369160D02*
Y370472D01*
Y369816D01*
X104330D01*
X103674Y369160D01*
X166930Y248689D02*
X170865D01*
Y250657D01*
X170210Y251313D01*
X168898D01*
X168242Y250657D01*
Y248689D01*
Y250001D02*
X166930Y251313D01*
X170210Y252625D02*
X170865Y253281D01*
Y254593D01*
X170210Y255249D01*
X169554D01*
X168898Y254593D01*
Y253937D01*
Y254593D01*
X168242Y255249D01*
X167586D01*
X166930Y254593D01*
Y253281D01*
X167586Y252625D01*
X170210Y256561D02*
X170865Y257217D01*
Y258529D01*
X170210Y259185D01*
X167586D01*
X166930Y258529D01*
Y257217D01*
X167586Y256561D01*
X170210D01*
X169421Y279134D02*
Y283070D01*
X167453D01*
X166797Y282414D01*
Y281102D01*
X167453Y280446D01*
X169421D01*
X168109D02*
X166797Y279134D01*
X162861D02*
X165485D01*
X162861Y281758D01*
Y282414D01*
X163517Y283070D01*
X164829D01*
X165485Y282414D01*
X161549Y279790D02*
X160893Y279134D01*
X159581D01*
X158926Y279790D01*
Y282414D01*
X159581Y283070D01*
X160893D01*
X161549Y282414D01*
Y281758D01*
X160893Y281102D01*
X158926D01*
X99607Y123886D02*
X103543D01*
Y125854D01*
X102887Y126510D01*
X101575D01*
X100919Y125854D01*
Y123886D01*
Y125198D02*
X99607Y126510D01*
Y130446D02*
Y127822D01*
X102231Y130446D01*
X102887D01*
X103543Y129790D01*
Y128478D01*
X102887Y127822D01*
Y131758D02*
X103543Y132414D01*
Y133726D01*
X102887Y134381D01*
X102231D01*
X101575Y133726D01*
X100919Y134381D01*
X100263D01*
X99607Y133726D01*
Y132414D01*
X100263Y131758D01*
X100919D01*
X101575Y132414D01*
X102231Y131758D01*
X102887D01*
X101575Y132414D02*
Y133726D01*
X66142Y182417D02*
X70078D01*
Y184385D01*
X69422Y185041D01*
X68110D01*
X67454Y184385D01*
Y182417D01*
Y183729D02*
X66142Y185041D01*
Y188977D02*
Y186353D01*
X68766Y188977D01*
X69422D01*
X70078Y188321D01*
Y187009D01*
X69422Y186353D01*
X70078Y192913D02*
X69422Y191601D01*
X68110Y190289D01*
X66798D01*
X66142Y190945D01*
Y192257D01*
X66798Y192913D01*
X67454D01*
X68110Y192257D01*
Y190289D01*
X81890Y123886D02*
X85826D01*
Y125854D01*
X85170Y126510D01*
X83858D01*
X83202Y125854D01*
Y123886D01*
Y125198D02*
X81890Y126510D01*
Y130446D02*
Y127822D01*
X84514Y130446D01*
X85170D01*
X85826Y129790D01*
Y128478D01*
X85170Y127822D01*
X85826Y134381D02*
Y131758D01*
X83858D01*
X84514Y133070D01*
Y133726D01*
X83858Y134381D01*
X82546D01*
X81890Y133726D01*
Y132414D01*
X82546Y131758D01*
X116536Y54988D02*
X120472D01*
Y56956D01*
X119816Y57612D01*
X118504D01*
X117848Y56956D01*
Y54988D01*
Y56300D02*
X116536Y57612D01*
Y58924D02*
Y60236D01*
Y59580D01*
X120472D01*
X119816Y58924D01*
X120472Y62204D02*
Y64827D01*
X119816D01*
X117192Y62204D01*
X116536D01*
X86022Y6300D02*
Y10236D01*
X84054D01*
X83398Y9580D01*
Y8268D01*
X84054Y7612D01*
X86022D01*
X84710D02*
X83398Y6300D01*
X82086D02*
X80774D01*
X81430D01*
Y10236D01*
X82086Y9580D01*
X76183Y10236D02*
X77495Y9580D01*
X78807Y8268D01*
Y6956D01*
X78150Y6300D01*
X76839D01*
X76183Y6956D01*
Y7612D01*
X76839Y8268D01*
X78807D01*
X81691Y30709D02*
Y34645D01*
X79724D01*
X79067Y33989D01*
Y32677D01*
X79724Y32021D01*
X81691D01*
X80379D02*
X79067Y30709D01*
X77756D02*
X76444D01*
X77100D01*
Y34645D01*
X77756Y33989D01*
X71852Y34645D02*
X74476D01*
Y32677D01*
X73164Y33333D01*
X72508D01*
X71852Y32677D01*
Y31365D01*
X72508Y30709D01*
X73820D01*
X74476Y31365D01*
X54920Y6300D02*
Y10236D01*
X52952D01*
X52296Y9580D01*
Y8268D01*
X52952Y7612D01*
X54920D01*
X53608D02*
X52296Y6300D01*
X50984D02*
X49672D01*
X50328D01*
Y10236D01*
X50984Y9580D01*
X45080Y6300D02*
X47704D01*
X45080Y8924D01*
Y9580D01*
X45736Y10236D01*
X47048D01*
X47704Y9580D01*
X110631Y54988D02*
X114566D01*
Y56956D01*
X113910Y57612D01*
X112599D01*
X111943Y56956D01*
Y54988D01*
Y56300D02*
X110631Y57612D01*
Y58924D02*
Y60236D01*
Y59580D01*
X114566D01*
X113910Y58924D01*
X110631Y62203D02*
Y63515D01*
Y62859D01*
X114566D01*
X113910Y62203D01*
X97374Y6300D02*
Y10236D01*
X95406D01*
X94750Y9580D01*
Y8268D01*
X95406Y7612D01*
X97374D01*
X96062D02*
X94750Y6300D01*
X93439Y6956D02*
X92783Y6300D01*
X91471D01*
X90815Y6956D01*
Y9580D01*
X91471Y10236D01*
X92783D01*
X93439Y9580D01*
Y8924D01*
X92783Y8268D01*
X90815D01*
X36351Y12993D02*
Y16928D01*
X34383D01*
X33727Y16273D01*
Y14961D01*
X34383Y14305D01*
X36351D01*
X35039D02*
X33727Y12993D01*
X32415Y16928D02*
X29791D01*
Y16273D01*
X32415Y13649D01*
Y12993D01*
X4331Y50264D02*
X8267D01*
Y52231D01*
X7611Y52887D01*
X6299D01*
X5643Y52231D01*
Y50264D01*
Y51575D02*
X4331Y52887D01*
X8267Y56823D02*
Y54199D01*
X6299D01*
X6955Y55511D01*
Y56167D01*
X6299Y56823D01*
X4987D01*
X4331Y56167D01*
Y54855D01*
X4987Y54199D01*
X-2362Y50264D02*
X1574D01*
Y52231D01*
X918Y52887D01*
X-394D01*
X-1050Y52231D01*
Y50264D01*
Y51575D02*
X-2362Y52887D01*
Y56823D02*
Y54199D01*
X262Y56823D01*
X918D01*
X1574Y56167D01*
Y54855D01*
X918Y54199D01*
X132939Y129790D02*
Y132414D01*
X133595Y133070D01*
X134907D01*
X135563Y132414D01*
Y129790D01*
X134907Y129135D01*
X133595D01*
X134251Y130446D02*
X132939Y129135D01*
X133595D02*
X132939Y129790D01*
X129660Y129135D02*
Y133070D01*
X131628Y131102D01*
X129004D01*
X132939Y169948D02*
Y172572D01*
X133595Y173228D01*
X134907D01*
X135563Y172572D01*
Y169948D01*
X134907Y169292D01*
X133595D01*
X134251Y170604D02*
X132939Y169292D01*
X133595D02*
X132939Y169948D01*
X129004Y169292D02*
X131628D01*
X129004Y171916D01*
Y172572D01*
X129660Y173228D01*
X130972D01*
X131628Y172572D01*
X169028Y12204D02*
Y8268D01*
X166404D01*
X162468D02*
X165092D01*
X162468Y10892D01*
Y11548D01*
X163124Y12204D01*
X164436D01*
X165092Y11548D01*
X151443Y66535D02*
Y62599D01*
X148819D01*
X147507D02*
X146195D01*
X146851D01*
Y66535D01*
X147507Y65879D01*
X71259Y319883D02*
X67323D01*
Y321851D01*
X67979Y322507D01*
X70603D01*
X71259Y321851D01*
Y319883D01*
X67323Y323819D02*
Y325131D01*
Y324475D01*
X71259D01*
X70603Y323819D01*
X67323Y329723D02*
Y327099D01*
X69947Y329723D01*
X70603D01*
X71259Y329067D01*
Y327755D01*
X70603Y327099D01*
X71259Y344949D02*
X67323D01*
Y346917D01*
X67979Y347573D01*
X70603D01*
X71259Y346917D01*
Y344949D01*
X67323Y348885D02*
Y350197D01*
Y349541D01*
X71259D01*
X70603Y348885D01*
X67323Y352164D02*
Y353476D01*
Y352820D01*
X71259D01*
X70603Y352164D01*
X128148Y370472D02*
Y366536D01*
X126180D01*
X125524Y367192D01*
Y369816D01*
X126180Y370472D01*
X128148D01*
X124212Y366536D02*
X122900D01*
X123556D01*
Y370472D01*
X124212Y369816D01*
X120932D02*
X120276Y370472D01*
X118965D01*
X118309Y369816D01*
Y367192D01*
X118965Y366536D01*
X120276D01*
X120932Y367192D01*
Y369816D01*
X113910Y146850D02*
Y142914D01*
X111942D01*
X111286Y143570D01*
Y146194D01*
X111942Y146850D01*
X113910D01*
X109974Y143570D02*
X109318Y142914D01*
X108006D01*
X107350Y143570D01*
Y146194D01*
X108006Y146850D01*
X109318D01*
X109974Y146194D01*
Y145538D01*
X109318Y144882D01*
X107350D01*
X113910Y161023D02*
Y157087D01*
X111942D01*
X111286Y157743D01*
Y160367D01*
X111942Y161023D01*
X113910D01*
X109974D02*
X107350D01*
Y160367D01*
X109974Y157743D01*
Y157087D01*
X178346Y60106D02*
X174410D01*
Y62074D01*
X175066Y62730D01*
X177690D01*
X178346Y62074D01*
Y60106D01*
X174410Y66666D02*
Y64042D01*
X177034Y66666D01*
X177690D01*
X178346Y66010D01*
Y64698D01*
X177690Y64042D01*
X93832Y307612D02*
X94488Y306956D01*
Y305644D01*
X93832Y304989D01*
X91208D01*
X90552Y305644D01*
Y306956D01*
X91208Y307612D01*
X93832Y308924D02*
X94488Y309580D01*
Y310892D01*
X93832Y311548D01*
X93176D01*
X92520Y310892D01*
Y310236D01*
Y310892D01*
X91864Y311548D01*
X91208D01*
X90552Y310892D01*
Y309580D01*
X91208Y308924D01*
X93832Y312860D02*
X94488Y313516D01*
Y314828D01*
X93832Y315484D01*
X93176D01*
X92520Y314828D01*
Y314172D01*
Y314828D01*
X91864Y315484D01*
X91208D01*
X90552Y314828D01*
Y313516D01*
X91208Y312860D01*
X127296Y267061D02*
X127952Y266405D01*
Y265093D01*
X127296Y264437D01*
X124672D01*
X124016Y265093D01*
Y266405D01*
X124672Y267061D01*
X127296Y268373D02*
X127952Y269029D01*
Y270341D01*
X127296Y270997D01*
X126640D01*
X125984Y270341D01*
Y269685D01*
Y270341D01*
X125328Y270997D01*
X124672D01*
X124016Y270341D01*
Y269029D01*
X124672Y268373D01*
X124016Y274933D02*
Y272309D01*
X126640Y274933D01*
X127296D01*
X127952Y274277D01*
Y272965D01*
X127296Y272309D01*
X127296Y284745D02*
X127952Y284089D01*
Y282777D01*
X127296Y282121D01*
X124672D01*
X124016Y282777D01*
Y284089D01*
X124672Y284745D01*
X127296Y286057D02*
X127952Y286713D01*
Y288024D01*
X127296Y288681D01*
X126640D01*
X125984Y288024D01*
Y287369D01*
Y288024D01*
X125328Y288681D01*
X124672D01*
X124016Y288024D01*
Y286713D01*
X124672Y286057D01*
X124016Y289992D02*
Y291304D01*
Y290648D01*
X127952D01*
X127296Y289992D01*
X103280Y140290D02*
X103936Y139634D01*
Y138322D01*
X103280Y137666D01*
X100657D01*
X100001Y138322D01*
Y139634D01*
X100657Y140290D01*
X103280Y141602D02*
X103936Y142257D01*
Y143569D01*
X103280Y144225D01*
X102624D01*
X101969Y143569D01*
Y142913D01*
Y143569D01*
X101312Y144225D01*
X100657D01*
X100001Y143569D01*
Y142257D01*
X100657Y141602D01*
X103280Y145537D02*
X103936Y146193D01*
Y147505D01*
X103280Y148161D01*
X100657D01*
X100001Y147505D01*
Y146193D01*
X100657Y145537D01*
X103280D01*
X85170Y140290D02*
X85826Y139634D01*
Y138322D01*
X85170Y137666D01*
X82546D01*
X81890Y138322D01*
Y139634D01*
X82546Y140290D01*
X81890Y144225D02*
Y141602D01*
X84514Y144225D01*
X85170D01*
X85826Y143569D01*
Y142257D01*
X85170Y141602D01*
X85826Y145537D02*
Y148161D01*
X85170D01*
X82546Y145537D01*
X81890D01*
X172572Y62730D02*
X173228Y62074D01*
Y60762D01*
X172572Y60106D01*
X169948D01*
X169292Y60762D01*
Y62074D01*
X169948Y62730D01*
X169292Y66666D02*
Y64042D01*
X171916Y66666D01*
X172572D01*
X173228Y66010D01*
Y64698D01*
X172572Y64042D01*
X173228Y70601D02*
Y67977D01*
X171260D01*
X171916Y69289D01*
Y69945D01*
X171260Y70601D01*
X169948D01*
X169292Y69945D01*
Y68634D01*
X169948Y67977D01*
X79396Y28477D02*
X80051Y29133D01*
X81363D01*
X82019Y28477D01*
Y25853D01*
X81363Y25197D01*
X80051D01*
X79396Y25853D01*
X75460Y25197D02*
X78084D01*
X75460Y27821D01*
Y28477D01*
X76116Y29133D01*
X77428D01*
X78084Y28477D01*
X72180Y25197D02*
Y29133D01*
X74148Y27165D01*
X71524D01*
X125721Y57612D02*
X126377Y56956D01*
Y55644D01*
X125721Y54988D01*
X123098D01*
X122442Y55644D01*
Y56956D01*
X123098Y57612D01*
X122442Y61547D02*
Y58924D01*
X125065Y61547D01*
X125721D01*
X126377Y60891D01*
Y59580D01*
X125721Y58924D01*
X122442Y65483D02*
Y62859D01*
X125065Y65483D01*
X125721D01*
X126377Y64827D01*
Y63515D01*
X125721Y62859D01*
X162991Y69422D02*
X163647Y70078D01*
X164959D01*
X165615Y69422D01*
Y66798D01*
X164959Y66142D01*
X163647D01*
X162991Y66798D01*
X159056Y66142D02*
X161680D01*
X159056Y68766D01*
Y69422D01*
X159712Y70078D01*
X161024D01*
X161680Y69422D01*
X157744Y66142D02*
X156432D01*
X157088D01*
Y70078D01*
X157744Y69422D01*
X149673Y8924D02*
X149017Y8268D01*
X147705D01*
X147049Y8924D01*
Y11548D01*
X147705Y12204D01*
X149017D01*
X149673Y11548D01*
X150985Y12204D02*
X152296D01*
X151640D01*
Y8268D01*
X150985Y8924D01*
X154264D02*
X154920Y8268D01*
X156232D01*
X156888Y8924D01*
Y9580D01*
X156232Y10236D01*
X156888Y10892D01*
Y11548D01*
X156232Y12204D01*
X154920D01*
X154264Y11548D01*
Y10892D01*
X154920Y10236D01*
X154264Y9580D01*
Y8924D01*
X154920Y10236D02*
X156232D01*
X14304Y8728D02*
X14960Y8072D01*
Y6760D01*
X14304Y6104D01*
X11680D01*
X11024Y6760D01*
Y8072D01*
X11680Y8728D01*
X11024Y10040D02*
Y11352D01*
Y10696D01*
X14960D01*
X14304Y10040D01*
X14960Y13319D02*
Y15943D01*
X14304D01*
X11680Y13319D01*
X11024D01*
X74737Y152099D02*
X75393Y152755D01*
X76705D01*
X77361Y152099D01*
Y149476D01*
X76705Y148819D01*
X75393D01*
X74737Y149476D01*
X73425Y148819D02*
X72113D01*
X72769D01*
Y152755D01*
X73425Y152099D01*
X70145D02*
X69489Y152755D01*
X68177D01*
X67521Y152099D01*
Y149476D01*
X68177Y148819D01*
X69489D01*
X70145Y149476D01*
Y152099D01*
X92388Y192257D02*
X93044Y192913D01*
X94356D01*
X95012Y192257D01*
Y189633D01*
X94356Y188977D01*
X93044D01*
X92388Y189633D01*
X88453Y192913D02*
X89764Y192257D01*
X91076Y190945D01*
Y189633D01*
X90420Y188977D01*
X89109D01*
X88453Y189633D01*
Y190289D01*
X89109Y190945D01*
X91076D01*
X89632Y369816D02*
X90288Y370472D01*
X91600D01*
X92256Y369816D01*
Y367192D01*
X91600Y366536D01*
X90288D01*
X89632Y367192D01*
X86352Y366536D02*
Y370472D01*
X88320Y368504D01*
X85697D01*
D12*
X14961Y38583D02*
G03*
X14961Y38583I-1181J0D01*
G01*
X106299Y342126D02*
G03*
X106299Y342126I-1181J0D01*
G01*
X82677Y169291D02*
G03*
X82677Y169291I-1181J0D01*
G01*
D14*
X57598Y97689D02*
X67598D01*
D15*
X57098Y86189D02*
Y104189D01*
X68098Y86189D02*
Y104189D01*
D17*
X80118Y321949D02*
Y326083D01*
X67618Y336024D02*
X71752D01*
X108858Y364862D02*
Y368996D01*
X109646Y136122D02*
Y140256D01*
Y149902D02*
Y154035D01*
D69*
X160827Y31594D02*
G03*
X160827Y31594I-492J0D01*
G01*
D103*
X112697Y334744D02*
G03*
X112697Y334744I-492J0D01*
G01*
D104*
X172992Y55728D02*
G03*
X172992Y55728I-197J0D01*
G01*
M02*
