G04*
G04 #@! TF.GenerationSoftware,Altium Limited,Altium Designer,23.1.1 (15)*
G04*
G04 Layer_Color=8388736*
%FSLAX25Y25*%
%MOIN*%
G70*
G04*
G04 #@! TF.SameCoordinates,434D1FB9-1166-4A3C-A543-B38E0AA6253E*
G04*
G04*
G04 #@! TF.FilePolarity,Negative*
G04*
G01*
G75*
G04:AMPARAMS|DCode=35|XSize=67.06mil|YSize=53.28mil|CornerRadius=9.66mil|HoleSize=0mil|Usage=FLASHONLY|Rotation=0.000|XOffset=0mil|YOffset=0mil|HoleType=Round|Shape=RoundedRectangle|*
%AMROUNDEDRECTD35*
21,1,0.06706,0.03396,0,0,0.0*
21,1,0.04774,0.05328,0,0,0.0*
1,1,0.01932,0.02387,-0.01698*
1,1,0.01932,-0.02387,-0.01698*
1,1,0.01932,-0.02387,0.01698*
1,1,0.01932,0.02387,0.01698*
%
%ADD35ROUNDEDRECTD35*%
%ADD36R,0.07400X0.06800*%
%ADD37R,0.03162X0.03162*%
%ADD38R,0.06784X0.03084*%
%ADD39R,0.03162X0.06784*%
%ADD40R,0.06784X0.03162*%
G04:AMPARAMS|DCode=41|XSize=47.37mil|YSize=39.5mil|CornerRadius=7.94mil|HoleSize=0mil|Usage=FLASHONLY|Rotation=90.000|XOffset=0mil|YOffset=0mil|HoleType=Round|Shape=RoundedRectangle|*
%AMROUNDEDRECTD41*
21,1,0.04737,0.02362,0,0,90.0*
21,1,0.03150,0.03950,0,0,90.0*
1,1,0.01587,0.01181,0.01575*
1,1,0.01587,0.01181,-0.01575*
1,1,0.01587,-0.01181,-0.01575*
1,1,0.01587,-0.01181,0.01575*
%
%ADD41ROUNDEDRECTD41*%
G04:AMPARAMS|DCode=42|XSize=47.37mil|YSize=39.5mil|CornerRadius=7.94mil|HoleSize=0mil|Usage=FLASHONLY|Rotation=180.000|XOffset=0mil|YOffset=0mil|HoleType=Round|Shape=RoundedRectangle|*
%AMROUNDEDRECTD42*
21,1,0.04737,0.02362,0,0,180.0*
21,1,0.03150,0.03950,0,0,180.0*
1,1,0.01587,-0.01575,0.01181*
1,1,0.01587,0.01575,0.01181*
1,1,0.01587,0.01575,-0.01181*
1,1,0.01587,-0.01575,-0.01181*
%
%ADD42ROUNDEDRECTD42*%
G04:AMPARAMS|DCode=43|XSize=67.06mil|YSize=53.28mil|CornerRadius=9.66mil|HoleSize=0mil|Usage=FLASHONLY|Rotation=90.000|XOffset=0mil|YOffset=0mil|HoleType=Round|Shape=RoundedRectangle|*
%AMROUNDEDRECTD43*
21,1,0.06706,0.03396,0,0,90.0*
21,1,0.04774,0.05328,0,0,90.0*
1,1,0.01932,0.01698,0.02387*
1,1,0.01932,0.01698,-0.02387*
1,1,0.01932,-0.01698,-0.02387*
1,1,0.01932,-0.01698,0.02387*
%
%ADD43ROUNDEDRECTD43*%
%ADD44R,0.06509X0.03162*%
%ADD45R,0.04343X0.03556*%
%ADD46R,0.03123X0.02572*%
%ADD47R,0.11233X0.07690*%
%ADD48R,0.07296X0.14383*%
G04:AMPARAMS|DCode=49|XSize=76.9mil|YSize=51.31mil|CornerRadius=9.41mil|HoleSize=0mil|Usage=FLASHONLY|Rotation=0.000|XOffset=0mil|YOffset=0mil|HoleType=Round|Shape=RoundedRectangle|*
%AMROUNDEDRECTD49*
21,1,0.07690,0.03248,0,0,0.0*
21,1,0.05807,0.05131,0,0,0.0*
1,1,0.01883,0.02904,-0.01624*
1,1,0.01883,-0.02904,-0.01624*
1,1,0.01883,-0.02904,0.01624*
1,1,0.01883,0.02904,0.01624*
%
%ADD49ROUNDEDRECTD49*%
%ADD50R,0.12414X0.07296*%
%ADD51O,0.09461X0.07887*%
%ADD52O,0.09855X0.14580*%
%ADD53O,0.07887X0.09461*%
%ADD54R,0.07887X0.09461*%
%ADD55C,0.08674*%
%ADD56C,0.00800*%
%ADD57C,0.07400*%
%ADD58R,0.06312X0.06312*%
%ADD59C,0.06312*%
%ADD60O,0.16548X0.08674*%
%ADD61R,0.12611X0.08674*%
%ADD62R,0.10249X0.05918*%
%ADD63R,0.09855X0.19698*%
%ADD64R,0.17729X0.09855*%
%ADD65R,0.09855X0.17729*%
%ADD66C,0.06800*%
%ADD67R,0.06800X0.06800*%
%ADD68C,0.03162*%
D35*
X125984Y41240D02*
D03*
Y49311D02*
D03*
X120866Y88878D02*
D03*
Y96949D02*
D03*
X66535Y148327D02*
D03*
Y156398D02*
D03*
D36*
X125984Y14567D02*
D03*
Y28567D02*
D03*
D37*
X116929Y109055D02*
D03*
X120866D02*
D03*
X67716Y142520D02*
D03*
X63779D02*
D03*
X120866Y102756D02*
D03*
X116929D02*
D03*
D38*
X98110Y290551D02*
D03*
Y295551D02*
D03*
Y300551D02*
D03*
Y305551D02*
D03*
Y310551D02*
D03*
Y315551D02*
D03*
Y320551D02*
D03*
X76378Y290551D02*
D03*
Y295551D02*
D03*
Y300551D02*
D03*
Y305551D02*
D03*
Y310551D02*
D03*
Y315551D02*
D03*
Y320551D02*
D03*
D39*
X70886Y215197D02*
D03*
X65886D02*
D03*
X60886D02*
D03*
X55886D02*
D03*
X70886Y193465D02*
D03*
X65886D02*
D03*
X60886D02*
D03*
X55886D02*
D03*
D40*
X27795Y170059D02*
D03*
Y175059D02*
D03*
Y180059D02*
D03*
Y185059D02*
D03*
X6063Y170059D02*
D03*
Y175059D02*
D03*
Y180059D02*
D03*
Y185059D02*
D03*
X102598Y78327D02*
D03*
Y83327D02*
D03*
Y88327D02*
D03*
Y93327D02*
D03*
X80866Y78327D02*
D03*
Y83327D02*
D03*
Y88327D02*
D03*
Y93327D02*
D03*
X34882Y142106D02*
D03*
Y147106D02*
D03*
Y152106D02*
D03*
Y157106D02*
D03*
X13150Y142106D02*
D03*
Y147106D02*
D03*
Y152106D02*
D03*
Y157106D02*
D03*
D41*
X83809Y203543D02*
D03*
X77609D02*
D03*
X115010Y255118D02*
D03*
X121210D02*
D03*
X63336Y245276D02*
D03*
X57136D02*
D03*
X23966Y300394D02*
D03*
X17766D02*
D03*
X23966Y279921D02*
D03*
X17766D02*
D03*
X59105Y271260D02*
D03*
X65305D02*
D03*
X35876Y270866D02*
D03*
X42076D02*
D03*
X105561Y300787D02*
D03*
X111761D02*
D03*
X53494Y281890D02*
D03*
X47294D02*
D03*
X105561Y315748D02*
D03*
X111761D02*
D03*
X62698Y306299D02*
D03*
X68898D02*
D03*
X40502Y179528D02*
D03*
X34302D02*
D03*
X115747Y70079D02*
D03*
X109547D02*
D03*
X115010Y249213D02*
D03*
X121210D02*
D03*
X66635Y262992D02*
D03*
X72835D02*
D03*
X53543Y271260D02*
D03*
X47343D02*
D03*
X85089Y333858D02*
D03*
X91289D02*
D03*
X70816Y186614D02*
D03*
X64617D02*
D03*
X40502Y190551D02*
D03*
X34302D02*
D03*
X47982Y156693D02*
D03*
X41782D02*
D03*
D42*
X77953Y196850D02*
D03*
Y190650D02*
D03*
X81102Y64223D02*
D03*
Y70423D02*
D03*
X80709Y98869D02*
D03*
Y105069D02*
D03*
X65748Y229478D02*
D03*
Y223278D02*
D03*
X104331Y64272D02*
D03*
Y70472D02*
D03*
X89764Y196850D02*
D03*
Y190650D02*
D03*
X53937Y139420D02*
D03*
Y145620D02*
D03*
X78347Y151231D02*
D03*
Y157431D02*
D03*
X53937Y150837D02*
D03*
Y157037D02*
D03*
X110630Y269341D02*
D03*
Y275541D02*
D03*
X68504Y300344D02*
D03*
Y294144D02*
D03*
X42520Y139420D02*
D03*
Y145620D02*
D03*
X5906Y164861D02*
D03*
Y158661D02*
D03*
Y142176D02*
D03*
Y148376D02*
D03*
X87402Y64272D02*
D03*
Y70472D02*
D03*
X49213Y206349D02*
D03*
Y212549D02*
D03*
X102756Y105069D02*
D03*
Y98869D02*
D03*
D43*
X13484Y191535D02*
D03*
X5413D02*
D03*
X125098Y57874D02*
D03*
X133169D02*
D03*
X126870Y301181D02*
D03*
X118799D02*
D03*
D44*
X83169Y258858D02*
D03*
Y251378D02*
D03*
X92421Y255118D02*
D03*
X49311Y258858D02*
D03*
Y251378D02*
D03*
X58563Y255118D02*
D03*
D45*
X113189Y78740D02*
D03*
X120669Y81299D02*
D03*
Y76181D02*
D03*
D46*
X108484Y255118D02*
D03*
X100177D02*
D03*
X73051D02*
D03*
X64744D02*
D03*
D47*
X161221Y57874D02*
D03*
X144291D02*
D03*
D48*
X150787Y308563D02*
D03*
Y287500D02*
D03*
X155118Y41240D02*
D03*
Y20177D02*
D03*
D49*
X111417Y85827D02*
D03*
Y97638D02*
D03*
D50*
X49705Y172047D02*
D03*
X67618D02*
D03*
X36516Y20866D02*
D03*
X18602D02*
D03*
X36516Y46457D02*
D03*
X18602D02*
D03*
D51*
X36614Y255906D02*
D03*
X16929D02*
D03*
D52*
X10630Y232285D02*
D03*
X42913D02*
D03*
X47245Y354332D02*
D03*
X6301D02*
D03*
X170867D02*
D03*
X129922D02*
D03*
Y232285D02*
D03*
X170867D02*
D03*
D53*
X36615Y208661D02*
D03*
X26772D02*
D03*
X26773Y324804D02*
D03*
X36615D02*
D03*
X150395D02*
D03*
X160238D02*
D03*
Y202757D02*
D03*
X150395D02*
D03*
D54*
X16930Y208661D02*
D03*
Y324804D02*
D03*
X140552D02*
D03*
Y202757D02*
D03*
D55*
X63189Y43701D02*
D03*
Y24016D02*
D03*
X112402D02*
D03*
Y43701D02*
D03*
D56*
X87795Y51575D02*
D03*
Y16142D02*
D03*
D57*
X79606Y225315D02*
D03*
Y235315D02*
D03*
X119606Y237815D02*
D03*
Y222815D02*
D03*
D58*
X93583Y275590D02*
D03*
D59*
X83583D02*
D03*
D60*
X116732Y117854D02*
D03*
X166732D02*
D03*
X141732D02*
D03*
Y181752D02*
D03*
X116732D02*
D03*
X60433Y129980D02*
D03*
X10433D02*
D03*
X35433D02*
D03*
Y66083D02*
D03*
X60433D02*
D03*
D61*
X166732Y181752D02*
D03*
X10433Y66083D02*
D03*
D62*
X163779Y166535D02*
D03*
Y133071D02*
D03*
X13386Y81299D02*
D03*
Y114764D02*
D03*
D63*
X138976Y82677D02*
D03*
D64*
X150787Y101181D02*
D03*
D65*
X162598Y82677D02*
D03*
D66*
X8661Y280157D02*
D03*
Y290158D02*
D03*
D67*
Y300157D02*
D03*
D68*
X62205Y262992D02*
D03*
X108218Y311368D02*
D03*
X176378Y58268D02*
D03*
X144923Y41750D02*
D03*
X153150Y25984D02*
D03*
X126476Y23524D02*
D03*
X142913Y16929D02*
D03*
X154724Y9449D02*
D03*
X120079Y70079D02*
D03*
X97349Y78110D02*
D03*
X-197Y191374D02*
D03*
X41732Y161127D02*
D03*
X50681Y150787D02*
D03*
X98425Y325590D02*
D03*
X59449Y139764D02*
D03*
X77362Y105118D02*
D03*
X125984Y76378D02*
D03*
X94902Y162500D02*
D03*
X68110Y312598D02*
D03*
X125984Y9055D02*
D03*
X73622Y84252D02*
D03*
X125984Y129528D02*
D03*
X128347Y173622D02*
D03*
X119291Y207874D02*
D03*
X80715Y161765D02*
D03*
X98006Y185459D02*
D03*
X85039Y187845D02*
D03*
X98819Y99213D02*
D03*
X106693Y104724D02*
D03*
X64567Y328740D02*
D03*
X13150Y162362D02*
D03*
X17323Y40945D02*
D03*
X37165Y30472D02*
D03*
X27165Y30315D02*
D03*
X42165Y41437D02*
D03*
X32283Y40945D02*
D03*
X143504Y137598D02*
D03*
X123622Y109055D02*
D03*
X84302Y146013D02*
D03*
X62992Y33465D02*
D03*
X12084Y41586D02*
D03*
X12746Y8514D02*
D03*
X98769Y13435D02*
D03*
X94882Y33071D02*
D03*
X-394Y50394D02*
D03*
X394Y35827D02*
D03*
X7717Y25354D02*
D03*
X20079Y97638D02*
D03*
X47638Y109843D02*
D03*
X67716Y83071D02*
D03*
X106732Y339331D02*
D03*
X86306Y206607D02*
D03*
X76378Y287402D02*
D03*
X84646Y315354D02*
D03*
X92126Y305512D02*
D03*
Y295669D02*
D03*
X54724Y229528D02*
D03*
X125984Y81496D02*
D03*
X92520Y314961D02*
D03*
X58711Y342864D02*
D03*
X52756Y326772D02*
D03*
X57480Y317717D02*
D03*
X57530Y177509D02*
D03*
X69453Y160372D02*
D03*
X116007Y342126D02*
D03*
X127165Y324410D02*
D03*
X163386Y247244D02*
D03*
X168061Y286270D02*
D03*
X72441Y366929D02*
D03*
X86614Y339370D02*
D03*
X91732D02*
D03*
X92520Y366929D02*
D03*
X83071Y365748D02*
D03*
X141339Y271260D02*
D03*
X156299Y287795D02*
D03*
X55905Y220866D02*
D03*
X60886Y209587D02*
D03*
X24016Y270472D02*
D03*
X49606Y245276D02*
D03*
X40502Y195226D02*
D03*
X63042Y300344D02*
D03*
X0Y185039D02*
D03*
X68504Y290551D02*
D03*
X130709Y301181D02*
D03*
X32283Y270472D02*
D03*
X43701Y281890D02*
D03*
X87008Y83071D02*
D03*
X109449Y64567D02*
D03*
X36614Y12598D02*
D03*
X63779Y139764D02*
D03*
X77953Y139370D02*
D03*
X65354Y181890D02*
D03*
X34252Y195276D02*
D03*
X74410Y182677D02*
D03*
X2165Y153150D02*
D03*
X48031Y160630D02*
D03*
X61024Y186614D02*
D03*
X49213Y202756D02*
D03*
X87402Y60630D02*
D03*
X91732Y70472D02*
D03*
X0Y170079D02*
D03*
X5906Y138583D02*
D03*
M02*
