G04*
G04 #@! TF.GenerationSoftware,Altium Limited,Altium Designer,23.1.1 (15)*
G04*
G04 Layer_Color=8421504*
%FSLAX25Y25*%
%MOIN*%
G70*
G04*
G04 #@! TF.SameCoordinates,434D1FB9-1166-4A3C-A543-B38E0AA6253E*
G04*
G04*
G04 #@! TF.FilePolarity,Positive*
G04*
G01*
G75*
G04:AMPARAMS|DCode=19|XSize=59.06mil|YSize=45.28mil|CornerRadius=5.66mil|HoleSize=0mil|Usage=FLASHONLY|Rotation=0.000|XOffset=0mil|YOffset=0mil|HoleType=Round|Shape=RoundedRectangle|*
%AMROUNDEDRECTD19*
21,1,0.05906,0.03396,0,0,0.0*
21,1,0.04774,0.04528,0,0,0.0*
1,1,0.01132,0.02387,-0.01698*
1,1,0.01132,-0.02387,-0.01698*
1,1,0.01132,-0.02387,0.01698*
1,1,0.01132,0.02387,0.01698*
%
%ADD19ROUNDEDRECTD19*%
%ADD20R,0.06600X0.06000*%
%ADD21R,0.02362X0.02362*%
%ADD22R,0.05984X0.02284*%
%ADD23R,0.02362X0.05984*%
%ADD24R,0.05984X0.02362*%
G04:AMPARAMS|DCode=25|XSize=39.37mil|YSize=31.5mil|CornerRadius=3.94mil|HoleSize=0mil|Usage=FLASHONLY|Rotation=90.000|XOffset=0mil|YOffset=0mil|HoleType=Round|Shape=RoundedRectangle|*
%AMROUNDEDRECTD25*
21,1,0.03937,0.02362,0,0,90.0*
21,1,0.03150,0.03150,0,0,90.0*
1,1,0.00787,0.01181,0.01575*
1,1,0.00787,0.01181,-0.01575*
1,1,0.00787,-0.01181,-0.01575*
1,1,0.00787,-0.01181,0.01575*
%
%ADD25ROUNDEDRECTD25*%
G04:AMPARAMS|DCode=26|XSize=39.37mil|YSize=31.5mil|CornerRadius=3.94mil|HoleSize=0mil|Usage=FLASHONLY|Rotation=180.000|XOffset=0mil|YOffset=0mil|HoleType=Round|Shape=RoundedRectangle|*
%AMROUNDEDRECTD26*
21,1,0.03937,0.02362,0,0,180.0*
21,1,0.03150,0.03150,0,0,180.0*
1,1,0.00787,-0.01575,0.01181*
1,1,0.00787,0.01575,0.01181*
1,1,0.00787,0.01575,-0.01181*
1,1,0.00787,-0.01575,-0.01181*
%
%ADD26ROUNDEDRECTD26*%
G04:AMPARAMS|DCode=27|XSize=59.06mil|YSize=45.28mil|CornerRadius=5.66mil|HoleSize=0mil|Usage=FLASHONLY|Rotation=90.000|XOffset=0mil|YOffset=0mil|HoleType=Round|Shape=RoundedRectangle|*
%AMROUNDEDRECTD27*
21,1,0.05906,0.03396,0,0,90.0*
21,1,0.04774,0.04528,0,0,90.0*
1,1,0.01132,0.01698,0.02387*
1,1,0.01132,0.01698,-0.02387*
1,1,0.01132,-0.01698,-0.02387*
1,1,0.01132,-0.01698,0.02387*
%
%ADD27ROUNDEDRECTD27*%
%ADD28R,0.05709X0.02362*%
%ADD29R,0.03543X0.02756*%
%ADD30R,0.02323X0.01772*%
%ADD31R,0.10433X0.06890*%
%ADD32R,0.06496X0.13583*%
G04:AMPARAMS|DCode=33|XSize=68.9mil|YSize=43.31mil|CornerRadius=5.41mil|HoleSize=0mil|Usage=FLASHONLY|Rotation=0.000|XOffset=0mil|YOffset=0mil|HoleType=Round|Shape=RoundedRectangle|*
%AMROUNDEDRECTD33*
21,1,0.06890,0.03248,0,0,0.0*
21,1,0.05807,0.04331,0,0,0.0*
1,1,0.01083,0.02904,-0.01624*
1,1,0.01083,-0.02904,-0.01624*
1,1,0.01083,-0.02904,0.01624*
1,1,0.01083,0.02904,0.01624*
%
%ADD33ROUNDEDRECTD33*%
%ADD34R,0.11614X0.06496*%
D19*
X125984Y41240D02*
D03*
Y49311D02*
D03*
X120866Y88878D02*
D03*
Y96949D02*
D03*
X66535Y148327D02*
D03*
Y156398D02*
D03*
D20*
X125984Y14567D02*
D03*
Y28567D02*
D03*
D21*
X116929Y109055D02*
D03*
X120866D02*
D03*
X67716Y142520D02*
D03*
X63779D02*
D03*
X120866Y102756D02*
D03*
X116929D02*
D03*
D22*
X98110Y290551D02*
D03*
Y295551D02*
D03*
Y300551D02*
D03*
Y305551D02*
D03*
Y310551D02*
D03*
Y315551D02*
D03*
Y320551D02*
D03*
X76378Y290551D02*
D03*
Y295551D02*
D03*
Y300551D02*
D03*
Y305551D02*
D03*
Y310551D02*
D03*
Y315551D02*
D03*
Y320551D02*
D03*
D23*
X70886Y215197D02*
D03*
X65886D02*
D03*
X60886D02*
D03*
X55886D02*
D03*
X70886Y193465D02*
D03*
X65886D02*
D03*
X60886D02*
D03*
X55886D02*
D03*
D24*
X27795Y170059D02*
D03*
Y175059D02*
D03*
Y180059D02*
D03*
Y185059D02*
D03*
X6063Y170059D02*
D03*
Y175059D02*
D03*
Y180059D02*
D03*
Y185059D02*
D03*
X102598Y78327D02*
D03*
Y83327D02*
D03*
Y88327D02*
D03*
Y93327D02*
D03*
X80866Y78327D02*
D03*
Y83327D02*
D03*
Y88327D02*
D03*
Y93327D02*
D03*
X34882Y142106D02*
D03*
Y147106D02*
D03*
Y152106D02*
D03*
Y157106D02*
D03*
X13150Y142106D02*
D03*
Y147106D02*
D03*
Y152106D02*
D03*
Y157106D02*
D03*
D25*
X83809Y203543D02*
D03*
X77609D02*
D03*
X115010Y255118D02*
D03*
X121210D02*
D03*
X63336Y245276D02*
D03*
X57136D02*
D03*
X23966Y300394D02*
D03*
X17766D02*
D03*
X23966Y279921D02*
D03*
X17766D02*
D03*
X59105Y271260D02*
D03*
X65305D02*
D03*
X35876Y270866D02*
D03*
X42076D02*
D03*
X105561Y300787D02*
D03*
X111761D02*
D03*
X53494Y281890D02*
D03*
X47294D02*
D03*
X105561Y315748D02*
D03*
X111761D02*
D03*
X62698Y306299D02*
D03*
X68898D02*
D03*
X40502Y179528D02*
D03*
X34302D02*
D03*
X115747Y70079D02*
D03*
X109547D02*
D03*
X115010Y249213D02*
D03*
X121210D02*
D03*
X66635Y262992D02*
D03*
X72835D02*
D03*
X53543Y271260D02*
D03*
X47343D02*
D03*
X85089Y333858D02*
D03*
X91289D02*
D03*
X70816Y186614D02*
D03*
X64617D02*
D03*
X40502Y190551D02*
D03*
X34302D02*
D03*
X47982Y156693D02*
D03*
X41782D02*
D03*
D26*
X77953Y196850D02*
D03*
Y190650D02*
D03*
X81102Y64223D02*
D03*
Y70423D02*
D03*
X80709Y98869D02*
D03*
Y105069D02*
D03*
X65748Y229478D02*
D03*
Y223278D02*
D03*
X104331Y64272D02*
D03*
Y70472D02*
D03*
X89764Y196850D02*
D03*
Y190650D02*
D03*
X53937Y139420D02*
D03*
Y145620D02*
D03*
X78347Y151231D02*
D03*
Y157431D02*
D03*
X53937Y150837D02*
D03*
Y157037D02*
D03*
X110630Y269341D02*
D03*
Y275541D02*
D03*
X68504Y300344D02*
D03*
Y294144D02*
D03*
X42520Y139420D02*
D03*
Y145620D02*
D03*
X5906Y164861D02*
D03*
Y158661D02*
D03*
Y142176D02*
D03*
Y148376D02*
D03*
X87402Y64272D02*
D03*
Y70472D02*
D03*
X49213Y206349D02*
D03*
Y212549D02*
D03*
X102756Y105069D02*
D03*
Y98869D02*
D03*
D27*
X13484Y191535D02*
D03*
X5413D02*
D03*
X125098Y57874D02*
D03*
X133169D02*
D03*
X126870Y301181D02*
D03*
X118799D02*
D03*
D28*
X83169Y258858D02*
D03*
Y251378D02*
D03*
X92421Y255118D02*
D03*
X49311Y258858D02*
D03*
Y251378D02*
D03*
X58563Y255118D02*
D03*
D29*
X113189Y78740D02*
D03*
X120669Y81299D02*
D03*
Y76181D02*
D03*
D30*
X108484Y255118D02*
D03*
X100177D02*
D03*
X73051D02*
D03*
X64744D02*
D03*
D31*
X161221Y57874D02*
D03*
X144291D02*
D03*
D32*
X150787Y308563D02*
D03*
Y287500D02*
D03*
X155118Y41240D02*
D03*
Y20177D02*
D03*
D33*
X111417Y85827D02*
D03*
Y97638D02*
D03*
D34*
X49705Y172047D02*
D03*
X67618D02*
D03*
X36516Y20866D02*
D03*
X18602D02*
D03*
X36516Y46457D02*
D03*
X18602D02*
D03*
M02*
