G04*
G04 #@! TF.GenerationSoftware,Altium Limited,Altium Designer,23.4.1 (23)*
G04*
G04 Layer_Physical_Order=4*
G04 Layer_Color=16711680*
%FSLAX25Y25*%
%MOIN*%
G70*
G04*
G04 #@! TF.SameCoordinates,B679403E-95BF-4892-A0A7-9FFFC668BED6*
G04*
G04*
G04 #@! TF.FilePolarity,Positive*
G04*
G01*
G75*
G04:AMPARAMS|DCode=17|XSize=39.37mil|YSize=31.5mil|CornerRadius=3.94mil|HoleSize=0mil|Usage=FLASHONLY|Rotation=270.000|XOffset=0mil|YOffset=0mil|HoleType=Round|Shape=RoundedRectangle|*
%AMROUNDEDRECTD17*
21,1,0.03937,0.02362,0,0,270.0*
21,1,0.03150,0.03150,0,0,270.0*
1,1,0.00787,-0.01181,-0.01575*
1,1,0.00787,-0.01181,0.01575*
1,1,0.00787,0.01181,0.01575*
1,1,0.00787,0.01181,-0.01575*
%
%ADD17ROUNDEDRECTD17*%
%ADD18R,0.05709X0.02362*%
%ADD19R,0.02323X0.01772*%
G04:AMPARAMS|DCode=20|XSize=68.9mil|YSize=43.31mil|CornerRadius=5.41mil|HoleSize=0mil|Usage=FLASHONLY|Rotation=0.000|XOffset=0mil|YOffset=0mil|HoleType=Round|Shape=RoundedRectangle|*
%AMROUNDEDRECTD20*
21,1,0.06890,0.03248,0,0,0.0*
21,1,0.05807,0.04331,0,0,0.0*
1,1,0.01083,0.02904,-0.01624*
1,1,0.01083,-0.02904,-0.01624*
1,1,0.01083,-0.02904,0.01624*
1,1,0.01083,0.02904,0.01624*
%
%ADD20ROUNDEDRECTD20*%
G04:AMPARAMS|DCode=21|XSize=59.06mil|YSize=45.28mil|CornerRadius=5.66mil|HoleSize=0mil|Usage=FLASHONLY|Rotation=270.000|XOffset=0mil|YOffset=0mil|HoleType=Round|Shape=RoundedRectangle|*
%AMROUNDEDRECTD21*
21,1,0.05906,0.03396,0,0,270.0*
21,1,0.04774,0.04528,0,0,270.0*
1,1,0.01132,-0.01698,-0.02387*
1,1,0.01132,-0.01698,0.02387*
1,1,0.01132,0.01698,0.02387*
1,1,0.01132,0.01698,-0.02387*
%
%ADD21ROUNDEDRECTD21*%
G04:AMPARAMS|DCode=23|XSize=59.06mil|YSize=45.28mil|CornerRadius=5.66mil|HoleSize=0mil|Usage=FLASHONLY|Rotation=0.000|XOffset=0mil|YOffset=0mil|HoleType=Round|Shape=RoundedRectangle|*
%AMROUNDEDRECTD23*
21,1,0.05906,0.03396,0,0,0.0*
21,1,0.04774,0.04528,0,0,0.0*
1,1,0.01132,0.02387,-0.01698*
1,1,0.01132,-0.02387,-0.01698*
1,1,0.01132,-0.02387,0.01698*
1,1,0.01132,0.02387,0.01698*
%
%ADD23ROUNDEDRECTD23*%
%ADD24R,0.06600X0.06000*%
G04:AMPARAMS|DCode=27|XSize=39.37mil|YSize=31.5mil|CornerRadius=3.94mil|HoleSize=0mil|Usage=FLASHONLY|Rotation=0.000|XOffset=0mil|YOffset=0mil|HoleType=Round|Shape=RoundedRectangle|*
%AMROUNDEDRECTD27*
21,1,0.03937,0.02362,0,0,0.0*
21,1,0.03150,0.03150,0,0,0.0*
1,1,0.00787,0.01575,-0.01181*
1,1,0.00787,-0.01575,-0.01181*
1,1,0.00787,-0.01575,0.01181*
1,1,0.00787,0.01575,0.01181*
%
%ADD27ROUNDEDRECTD27*%
%ADD56C,0.00984*%
%ADD57C,0.03937*%
%ADD58C,0.02953*%
%ADD59C,0.01968*%
%ADD60C,0.06600*%
%ADD61R,0.09449X0.05118*%
%ADD62O,0.15748X0.07874*%
%ADD63R,0.11811X0.07874*%
%ADD64O,0.08661X0.07087*%
%ADD65O,0.09055X0.13780*%
%ADD66O,0.07087X0.08661*%
%ADD67R,0.07087X0.08661*%
%ADD68C,0.07874*%
%ADD69R,0.05512X0.05512*%
%ADD70C,0.05512*%
%ADD71R,0.09055X0.18898*%
%ADD72R,0.16929X0.09055*%
%ADD73R,0.09055X0.16929*%
%ADD74C,0.06000*%
%ADD75R,0.06000X0.06000*%
%ADD76C,0.02362*%
G04:AMPARAMS|DCode=77|XSize=68.9mil|YSize=43.31mil|CornerRadius=5.41mil|HoleSize=0mil|Usage=FLASHONLY|Rotation=270.000|XOffset=0mil|YOffset=0mil|HoleType=Round|Shape=RoundedRectangle|*
%AMROUNDEDRECTD77*
21,1,0.06890,0.03248,0,0,270.0*
21,1,0.05807,0.04331,0,0,270.0*
1,1,0.01083,-0.01624,-0.02904*
1,1,0.01083,-0.01624,0.02904*
1,1,0.01083,0.01624,0.02904*
1,1,0.01083,0.01624,-0.02904*
%
%ADD77ROUNDEDRECTD77*%
%ADD78R,0.02284X0.05984*%
%ADD79R,0.01772X0.02323*%
%ADD80R,0.05984X0.02284*%
%ADD81R,0.05984X0.02362*%
%ADD82R,0.03543X0.02756*%
%ADD83R,0.02362X0.02362*%
%ADD84R,0.02362X0.05709*%
G04:AMPARAMS|DCode=85|XSize=25.59mil|YSize=47.24mil|CornerRadius=1.92mil|HoleSize=0mil|Usage=FLASHONLY|Rotation=90.000|XOffset=0mil|YOffset=0mil|HoleType=Round|Shape=RoundedRectangle|*
%AMROUNDEDRECTD85*
21,1,0.02559,0.04341,0,0,90.0*
21,1,0.02175,0.04724,0,0,90.0*
1,1,0.00384,0.02170,0.01088*
1,1,0.00384,0.02170,-0.01088*
1,1,0.00384,-0.02170,-0.01088*
1,1,0.00384,-0.02170,0.01088*
%
%ADD85ROUNDEDRECTD85*%
%ADD86R,0.16299X0.04921*%
%ADD87R,0.04803X0.03583*%
%ADD88R,0.06496X0.11614*%
%ADD89R,0.04921X0.16299*%
G36*
X180099Y357852D02*
Y47883D01*
X158386D01*
Y57165D01*
X153100D01*
Y62598D01*
X152913Y63050D01*
X152461Y63238D01*
X117548D01*
X117096Y63050D01*
X116909Y62598D01*
Y45949D01*
X116409Y45815D01*
X116024Y46481D01*
X115182Y47324D01*
X114149Y47920D01*
X112998Y48228D01*
X111805D01*
X110654Y47920D01*
X109622Y47324D01*
X108779Y46481D01*
X108390Y45808D01*
X67200D01*
X66812Y46481D01*
X65969Y47324D01*
X64937Y47920D01*
X63785Y48228D01*
X62593D01*
X61441Y47920D01*
X60409Y47324D01*
X59566Y46481D01*
X59178Y45808D01*
X56619D01*
X53792Y48636D01*
X53108Y49093D01*
X52301Y49253D01*
X47973D01*
X47964Y49295D01*
X47709Y49677D01*
X47326Y49933D01*
X46875Y50023D01*
X42101D01*
X41650Y49933D01*
X41268Y49677D01*
X41012Y49295D01*
X41004Y49253D01*
X36568D01*
Y50000D01*
X28787D01*
Y48517D01*
X16437D01*
Y50000D01*
X8760D01*
Y37205D01*
X16437D01*
Y44302D01*
X28787D01*
Y42819D01*
X36568D01*
Y45038D01*
X41004D01*
X41012Y44997D01*
X41268Y44614D01*
X41650Y44358D01*
X42101Y44269D01*
X46875D01*
X47326Y44358D01*
X47709Y44614D01*
X47964Y44997D01*
X47973Y45038D01*
X51429D01*
X54256Y42211D01*
X54940Y41754D01*
X55746Y41593D01*
X59178D01*
X59566Y40921D01*
X60409Y40078D01*
X61441Y39482D01*
X62593Y39173D01*
X63785D01*
X64937Y39482D01*
X65969Y40078D01*
X66812Y40921D01*
X67200Y41593D01*
X108390D01*
X108779Y40921D01*
X109622Y40078D01*
X110654Y39482D01*
X111805Y39173D01*
X112998D01*
X114149Y39482D01*
X115182Y40078D01*
X116024Y40921D01*
X116409Y41587D01*
X116909Y41453D01*
Y32480D01*
X117096Y32028D01*
X117548Y31841D01*
X127724D01*
X127786Y31766D01*
X127946Y31341D01*
X127813Y31142D01*
X127737Y30758D01*
Y28396D01*
X127813Y28012D01*
X128031Y27687D01*
X128208Y27568D01*
Y25188D01*
X128031Y25069D01*
X127813Y24744D01*
X127737Y24360D01*
Y21998D01*
X127656Y21899D01*
X125000D01*
X124548Y21712D01*
X124361Y21260D01*
Y9108D01*
X124548Y8656D01*
X125000Y8469D01*
X145160D01*
X145277Y8517D01*
X145404D01*
X145494Y8607D01*
X145612Y8656D01*
X145660Y8773D01*
X145750Y8863D01*
X145958Y9363D01*
Y9390D01*
X146032Y9504D01*
X146219Y9678D01*
X146468Y9760D01*
X146653Y9723D01*
X146839Y9760D01*
X147089Y9678D01*
X147275Y9504D01*
X147350Y9390D01*
Y9363D01*
X147557Y8863D01*
X147647Y8773D01*
X147695Y8656D01*
X147813Y8607D01*
X147903Y8517D01*
X148030D01*
X148147Y8469D01*
X150273D01*
Y7456D01*
X150362Y7005D01*
X150618Y6622D01*
X151000Y6366D01*
X151452Y6277D01*
X154848D01*
X155299Y6366D01*
X155681Y6622D01*
X155937Y7005D01*
X156027Y7456D01*
Y8469D01*
X157926D01*
Y7456D01*
X158048Y6845D01*
X158394Y6327D01*
X158912Y5981D01*
X159523Y5859D01*
X160721D01*
Y9843D01*
X161721D01*
Y5859D01*
X162918D01*
X163529Y5981D01*
X164047Y6327D01*
X164393Y6845D01*
X164515Y7456D01*
Y8469D01*
X171750D01*
X171942Y8007D01*
X164939Y1003D01*
X12227Y1003D01*
X-2933Y16164D01*
Y52240D01*
X-2434Y52447D01*
X1575Y48439D01*
Y47876D01*
X1845Y47225D01*
X2343Y46726D01*
X2994Y46457D01*
X3699D01*
X4350Y46726D01*
X4848Y47225D01*
X5118Y47876D01*
Y48581D01*
X4848Y49232D01*
X4350Y49730D01*
X3699Y50000D01*
X3136D01*
X-865Y54001D01*
Y151171D01*
X-783Y151638D01*
X-365Y151638D01*
X2709D01*
Y153819D01*
Y156000D01*
X-365D01*
X-783Y156000D01*
X-865Y156466D01*
Y157025D01*
X-374Y157047D01*
X-365Y157047D01*
X6791D01*
Y160591D01*
X4313D01*
Y162047D01*
X6791D01*
Y165591D01*
X-365D01*
X-374Y165591D01*
X-865Y165613D01*
Y167025D01*
X-374Y167047D01*
X-365Y167047D01*
X6791D01*
Y170591D01*
X2630D01*
Y173012D01*
X2707D01*
X3091Y173089D01*
X3417Y173306D01*
X3634Y173632D01*
X3711Y174016D01*
Y177165D01*
X3634Y177549D01*
X3417Y177875D01*
X3091Y178093D01*
X2707Y178169D01*
X2605D01*
Y180119D01*
X2978Y180492D01*
X3248Y181144D01*
Y181849D01*
X2978Y182500D01*
X2480Y182998D01*
X1829Y183268D01*
X1124D01*
X473Y182998D01*
X-26Y182500D01*
X-295Y181849D01*
Y181144D01*
X-26Y180492D01*
X397Y180070D01*
Y178169D01*
X345D01*
X-39Y178093D01*
X-365Y177875D01*
X-865Y178027D01*
Y256174D01*
X9359Y266398D01*
X9821Y266207D01*
Y252658D01*
X9905Y252235D01*
X10145Y251877D01*
X20845Y241177D01*
Y213583D01*
X12797D01*
Y203740D01*
X15826D01*
Y180166D01*
X15911Y179744D01*
X16150Y179386D01*
X18928Y176608D01*
Y174016D01*
X19004Y173632D01*
X19222Y173306D01*
X19547Y173089D01*
X19931Y173012D01*
X22294D01*
X22678Y173089D01*
X23003Y173306D01*
X23221Y173632D01*
X23297Y174016D01*
Y177165D01*
X23221Y177549D01*
X23003Y177875D01*
X22678Y178093D01*
X22294Y178169D01*
X20489D01*
X18034Y180624D01*
Y203740D01*
X20845D01*
Y184744D01*
X20929Y184322D01*
X21168Y183964D01*
X25038Y180093D01*
X25352Y179884D01*
X25467Y179607D01*
X25965Y179108D01*
X26037Y179079D01*
Y178150D01*
X25747Y178093D01*
X25422Y177875D01*
X25204Y177549D01*
X25128Y177165D01*
Y174016D01*
X25204Y173632D01*
X25422Y173306D01*
X25747Y173089D01*
X26131Y173012D01*
X28494D01*
X28878Y173089D01*
X29203Y173306D01*
X29421Y173632D01*
X29497Y174016D01*
Y177165D01*
X29421Y177549D01*
X29203Y177875D01*
X28878Y178093D01*
X28494Y178169D01*
X28244D01*
Y179225D01*
X28679Y179453D01*
X28847Y179330D01*
X29042Y179134D01*
X29693Y178865D01*
X30398D01*
X30680Y178981D01*
X31180Y178647D01*
Y178165D01*
X30817Y178093D01*
X30492Y177875D01*
X30274Y177549D01*
X30198Y177165D01*
Y174016D01*
X30274Y173632D01*
X30492Y173306D01*
X30817Y173089D01*
X31202Y173012D01*
X33564D01*
X33948Y173089D01*
X34273Y173306D01*
X34491Y173632D01*
X34567Y174016D01*
Y177165D01*
X34491Y177549D01*
X34273Y177875D01*
X33948Y178093D01*
X33564Y178169D01*
X33388D01*
Y179956D01*
X37308Y183876D01*
X41615D01*
X41869Y183376D01*
X41699Y183122D01*
X41591Y182578D01*
Y181897D01*
X44587D01*
Y181397D01*
X45087D01*
Y178795D01*
X46161D01*
X46347Y178832D01*
X46593Y178371D01*
X45604Y177382D01*
X43012D01*
X42628Y177305D01*
X42302Y177088D01*
X42085Y176762D01*
X42008Y176378D01*
Y176301D01*
X40767D01*
Y177165D01*
X40691Y177549D01*
X40473Y177875D01*
X40148Y178093D01*
X39764Y178169D01*
X37402D01*
X37018Y178093D01*
X36692Y177875D01*
X36474Y177549D01*
X36398Y177165D01*
Y174016D01*
X36474Y173632D01*
X36692Y173306D01*
X37018Y173089D01*
X37402Y173012D01*
X39764D01*
X40148Y173089D01*
X40473Y173306D01*
X40691Y173632D01*
X40767Y174016D01*
Y174093D01*
X42008D01*
Y174016D01*
X42085Y173632D01*
X42302Y173306D01*
X42628Y173089D01*
X43012Y173012D01*
X46161D01*
X46545Y173089D01*
X46871Y173306D01*
X47089Y173632D01*
X47165Y174016D01*
Y175819D01*
X47517Y176109D01*
X47953Y175923D01*
Y173209D01*
X55118D01*
Y175191D01*
X63108Y183181D01*
X63348Y183539D01*
X63432Y183962D01*
Y186231D01*
X71080Y193878D01*
X72884D01*
X73268Y193955D01*
X73594Y194172D01*
X73811Y194498D01*
X73888Y194882D01*
Y198031D01*
X73811Y198416D01*
X73594Y198741D01*
X73268Y198959D01*
X72891Y199034D01*
Y210104D01*
X73372Y210233D01*
X74259Y210745D01*
X74983Y211469D01*
X75495Y212357D01*
X75761Y213346D01*
Y214370D01*
X75495Y215360D01*
X74983Y216247D01*
X74259Y216971D01*
X73372Y217484D01*
X72382Y217749D01*
X71358D01*
X70368Y217484D01*
X69481Y216971D01*
X68757Y216247D01*
X68245Y215360D01*
X67980Y214370D01*
Y213346D01*
X68245Y212357D01*
X68757Y211469D01*
X69481Y210745D01*
X70368Y210233D01*
X70683Y210149D01*
Y199035D01*
X70522D01*
X70138Y198959D01*
X69813Y198741D01*
X69595Y198416D01*
X69519Y198031D01*
Y195440D01*
X61547Y187468D01*
X61308Y187110D01*
X61224Y186688D01*
Y184419D01*
X55580Y178775D01*
X55118Y178966D01*
Y181752D01*
X48082D01*
X47953Y181752D01*
X47582Y182065D01*
Y182578D01*
X47474Y183122D01*
X47452Y183155D01*
X47759Y183596D01*
X47953Y183549D01*
Y183209D01*
X55118D01*
Y186752D01*
X47953D01*
Y186084D01*
X36850D01*
X36428Y186000D01*
X36070Y185761D01*
X32048Y181739D01*
X31547Y181640D01*
X31049Y182138D01*
X30398Y182408D01*
X29693D01*
X29042Y182138D01*
X28821Y181917D01*
X28520Y181657D01*
X28168Y181917D01*
X27972Y182112D01*
X27321Y182382D01*
X26616D01*
X26090Y182164D01*
X23053Y185201D01*
Y205109D01*
X23553Y205278D01*
X23823Y204926D01*
X24687Y204263D01*
X25692Y203847D01*
X26772Y203705D01*
X27851Y203847D01*
X28856Y204263D01*
X29720Y204926D01*
X30383Y205789D01*
X30799Y206795D01*
X30900Y207558D01*
X32488D01*
X32588Y206795D01*
X33005Y205789D01*
X33667Y204926D01*
X34531Y204263D01*
X35536Y203847D01*
X36615Y203705D01*
X37695Y203847D01*
X38700Y204263D01*
X39564Y204926D01*
X40226Y205789D01*
X40643Y206795D01*
X40785Y207874D01*
Y209449D01*
X40643Y210528D01*
X40226Y211534D01*
X39564Y212397D01*
X38700Y213060D01*
X37695Y213476D01*
X36615Y213618D01*
X35536Y213476D01*
X34531Y213060D01*
X33667Y212397D01*
X33005Y211534D01*
X32588Y210528D01*
X32488Y209765D01*
X30900D01*
X30799Y210528D01*
X30383Y211534D01*
X29720Y212397D01*
X28856Y213060D01*
X27851Y213476D01*
X26772Y213618D01*
X25692Y213476D01*
X24687Y213060D01*
X23823Y212397D01*
X23553Y212044D01*
X23053Y212214D01*
Y241634D01*
X22969Y242056D01*
X22729Y242414D01*
X12029Y253115D01*
Y253726D01*
X12529Y253825D01*
X12531Y253821D01*
X13193Y252957D01*
X14057Y252295D01*
X15063Y251878D01*
X16142Y251736D01*
X17717D01*
X18796Y251878D01*
X19801Y252295D01*
X20665Y252957D01*
X21327Y253821D01*
X21744Y254826D01*
X21886Y255906D01*
X21744Y256985D01*
X21327Y257990D01*
X20665Y258854D01*
X19801Y259516D01*
X18796Y259933D01*
X17717Y260075D01*
X16142D01*
X15063Y259933D01*
X14057Y259516D01*
X13193Y258854D01*
X12531Y257990D01*
X12529Y257986D01*
X12029Y258086D01*
Y271736D01*
X18497Y278204D01*
X18736Y278562D01*
X18820Y278985D01*
Y289799D01*
X18982Y289961D01*
X19545D01*
X20197Y290230D01*
X20695Y290729D01*
X20965Y291380D01*
Y292085D01*
X20695Y292736D01*
X20197Y293234D01*
X19545Y293504D01*
X19050D01*
X18843Y294004D01*
X23352Y298513D01*
X23813Y298267D01*
X23776Y298081D01*
Y297400D01*
X26272D01*
Y299502D01*
X25197D01*
X25011Y299465D01*
X24765Y299926D01*
X25754Y300915D01*
X28346D01*
X28730Y300992D01*
X28748Y301003D01*
X29134Y301175D01*
X29520Y301003D01*
X29537Y300992D01*
X29921Y300915D01*
X33071D01*
X33455Y300992D01*
X33781Y301209D01*
X33998Y301535D01*
X34074Y301919D01*
Y304281D01*
X33998Y304665D01*
X33781Y304991D01*
X33455Y305208D01*
X33071Y305285D01*
X29921D01*
X29537Y305208D01*
X29520Y305197D01*
X29134Y305025D01*
X28748Y305197D01*
X28730Y305208D01*
X28346Y305285D01*
X25197D01*
X24813Y305208D01*
X24487Y304991D01*
X24270Y304665D01*
X24193Y304281D01*
Y302477D01*
X23257Y301541D01*
X22757Y301748D01*
Y303716D01*
X23155Y304115D01*
X23425Y304766D01*
Y305470D01*
X23155Y306122D01*
X22657Y306620D01*
X22006Y306890D01*
X21301D01*
X20650Y306620D01*
X20152Y306122D01*
X19882Y305470D01*
Y304766D01*
X20152Y304115D01*
X20550Y303716D01*
Y301638D01*
X13786Y294875D01*
X13547Y294517D01*
X13463Y294094D01*
Y280747D01*
X12752Y280035D01*
X12252Y280242D01*
Y280630D01*
X12007Y281543D01*
X11535Y282362D01*
X10866Y283031D01*
X10047Y283503D01*
X9134Y283748D01*
X8189D01*
X7276Y283503D01*
X6457Y283031D01*
X5788Y282362D01*
X5316Y281543D01*
X5071Y280630D01*
Y279685D01*
X5250Y279017D01*
X2734Y276501D01*
X2734Y276501D01*
X-742Y273025D01*
X-1090Y272504D01*
X-1212Y271890D01*
X-1697Y271820D01*
X-2165D01*
X-2434Y271767D01*
X-2801Y271970D01*
X-2933Y272088D01*
Y308551D01*
X-2434Y308873D01*
X-2264Y308839D01*
X-381D01*
X5040Y303418D01*
Y302173D01*
X5040Y302173D01*
X5071Y302018D01*
Y296567D01*
X12252D01*
Y303748D01*
X8583D01*
X8251Y304083D01*
X8129Y304697D01*
X7781Y305218D01*
X7781Y305218D01*
X1889Y311110D01*
Y312205D01*
X1813Y312589D01*
X1595Y312914D01*
X1270Y313132D01*
X886Y313208D01*
X-2264D01*
X-2434Y313175D01*
X-2933Y313497D01*
Y314751D01*
X-2434Y315073D01*
X-2264Y315039D01*
X886D01*
X1270Y315115D01*
X1595Y315333D01*
X1813Y315658D01*
X1889Y316042D01*
Y316120D01*
X26118D01*
X36081Y306157D01*
Y305098D01*
X35433D01*
Y297933D01*
X36162D01*
Y296826D01*
X35864Y296528D01*
X35594Y295877D01*
Y295172D01*
X35864Y294521D01*
X36362Y294023D01*
X37013Y293753D01*
X37718D01*
X38026Y293881D01*
X38526Y293546D01*
Y292990D01*
X32218Y286682D01*
X29626D01*
X29242Y286606D01*
X28916Y286388D01*
X28851Y286290D01*
X28564D01*
X28238Y286508D01*
X27854Y286584D01*
X24705D01*
X24321Y286508D01*
X23995Y286290D01*
X23778Y285964D01*
X23701Y285580D01*
Y283218D01*
X23778Y282834D01*
X23995Y282508D01*
X24321Y282291D01*
X24705Y282215D01*
X27854D01*
X28238Y282291D01*
X28564Y282508D01*
X28630Y282607D01*
X28916D01*
X29242Y282389D01*
X29626Y282313D01*
X32776D01*
X33160Y282389D01*
X33485Y282607D01*
X33703Y282932D01*
X33779Y283316D01*
Y285121D01*
X40410Y291752D01*
X40649Y292110D01*
X40734Y292533D01*
Y293902D01*
X41234Y294109D01*
X41319Y294023D01*
X41970Y293753D01*
X42675D01*
X43326Y294023D01*
X43825Y294521D01*
X44094Y295172D01*
Y295877D01*
X43825Y296528D01*
X43348Y297005D01*
Y297933D01*
X43898D01*
Y305098D01*
X43898Y305098D01*
X43898D01*
X44091Y305522D01*
X45339Y306770D01*
X54562D01*
X55734Y305598D01*
X55527Y305098D01*
X55433D01*
Y297933D01*
X58898D01*
Y305098D01*
X58269D01*
Y305728D01*
X58185Y306151D01*
X57946Y306509D01*
X56572Y307883D01*
X56763Y308345D01*
X67013D01*
X69380Y305978D01*
X69143Y305508D01*
X67665D01*
Y301516D01*
Y297524D01*
X68927D01*
X69134Y297024D01*
X56567Y284456D01*
X56327Y284098D01*
X56243Y283675D01*
Y283366D01*
X55433D01*
Y276201D01*
X57033D01*
X57225Y275739D01*
X56826Y275341D01*
X56092D01*
X56075Y275366D01*
X55692Y275622D01*
X55241Y275712D01*
X54774D01*
X54307Y275791D01*
X54307Y276212D01*
Y279283D01*
X52165D01*
X50024D01*
Y276263D01*
X49753Y275807D01*
X49569Y275807D01*
X49153D01*
X48898Y276201D01*
X48898Y276307D01*
Y283366D01*
X45433D01*
Y276201D01*
X46638D01*
X46696Y276119D01*
X46682Y275513D01*
X46464Y275187D01*
X46388Y274803D01*
Y271654D01*
X46464Y271269D01*
X46682Y270944D01*
X47007Y270726D01*
X47391Y270650D01*
X49753D01*
X50138Y270726D01*
X50166Y270746D01*
X50666Y270478D01*
Y269759D01*
X50756Y269308D01*
X51012Y268925D01*
X51394Y268670D01*
X51846Y268580D01*
X55241D01*
X55692Y268670D01*
X56075Y268925D01*
X56331Y269308D01*
X56420Y269759D01*
Y273133D01*
X57284D01*
X57706Y273217D01*
X57820Y273293D01*
X58320Y273025D01*
Y272646D01*
X61614D01*
X64909D01*
Y274533D01*
X64787Y275144D01*
X64596Y275430D01*
X64441Y275661D01*
X64396Y275705D01*
X64307Y275791D01*
X64307D01*
X64307Y275791D01*
Y279283D01*
X62165D01*
Y280283D01*
X64307D01*
Y283776D01*
X62707D01*
X62515Y284238D01*
X69842Y291564D01*
X70355D01*
Y291487D01*
X70431Y291103D01*
X70649Y290777D01*
X70974Y290560D01*
X71358Y290483D01*
X73800D01*
X73992Y290021D01*
X67336Y283366D01*
X65433D01*
Y276201D01*
X68898D01*
Y281805D01*
X77576Y290483D01*
X80020D01*
X80404Y290560D01*
X80729Y290777D01*
X80947Y291103D01*
X81023Y291487D01*
Y293849D01*
X80947Y294233D01*
X80729Y294558D01*
X80404Y294776D01*
X80020Y294852D01*
X76870D01*
X76486Y294776D01*
X76161Y294558D01*
X75944Y294235D01*
X75933Y294233D01*
X75445D01*
X75434Y294235D01*
X75217Y294558D01*
X74892Y294776D01*
X74508Y294852D01*
X71358D01*
X70974Y294776D01*
X70649Y294558D01*
X70431Y294233D01*
X70355Y293849D01*
Y293772D01*
X69712D01*
X69504Y294272D01*
X71916Y296683D01*
X74508D01*
X74892Y296760D01*
X75217Y296977D01*
X75434Y297300D01*
X75445Y297303D01*
X75933D01*
X75944Y297300D01*
X76161Y296977D01*
X76486Y296760D01*
X76870Y296683D01*
X80020D01*
X80404Y296760D01*
X80729Y296977D01*
X80947Y297303D01*
X81023Y297687D01*
Y300049D01*
X80947Y300433D01*
X80729Y300758D01*
X80404Y300976D01*
X80020Y301052D01*
X77428D01*
X68251Y310229D01*
X67892Y310469D01*
X67470Y310553D01*
X44230D01*
X43807Y310469D01*
X43449Y310229D01*
X38849Y305629D01*
X38789Y305539D01*
X38289Y305691D01*
Y306496D01*
X38309Y306594D01*
X38225Y307017D01*
X37985Y307375D01*
X27356Y318004D01*
X26998Y318244D01*
X26576Y318327D01*
X1889D01*
Y318405D01*
X1813Y318789D01*
X1595Y319114D01*
X1270Y319332D01*
X886Y319408D01*
X-2264D01*
X-2434Y319374D01*
X-2933Y319697D01*
Y357852D01*
X12227Y373012D01*
X164939Y373012D01*
X180099Y357852D01*
D02*
G37*
G36*
X152461Y57165D02*
X152284D01*
Y39685D01*
X152461D01*
Y38613D01*
X152233Y38271D01*
X152143Y37820D01*
Y37737D01*
X147933D01*
X147127Y37577D01*
X147034Y37515D01*
X145763D01*
X145457Y37455D01*
X145199Y37282D01*
X145026Y37023D01*
X144965Y36718D01*
Y34542D01*
X145026Y34237D01*
X145199Y33978D01*
Y33542D01*
X145026Y33283D01*
X144965Y32977D01*
Y32480D01*
X117548D01*
Y62598D01*
X152461D01*
Y57165D01*
D02*
G37*
G36*
X150794Y29731D02*
X150794Y29731D01*
X152176Y28350D01*
Y28303D01*
X152041Y28169D01*
X151772Y27518D01*
Y26813D01*
X152041Y26162D01*
X152540Y25663D01*
X153191Y25394D01*
X153896D01*
X154547Y25663D01*
X154688Y25804D01*
X155188Y25597D01*
Y22441D01*
X155205Y22399D01*
X154872Y21899D01*
X154744Y21846D01*
X154739Y21847D01*
X154729Y21840D01*
X154700Y21828D01*
X154517Y21791D01*
X154481Y21737D01*
X154420Y21712D01*
X154375Y21603D01*
X154333Y21575D01*
X154186Y21355D01*
X154072Y21279D01*
X153874Y21240D01*
X150850D01*
X150653Y21279D01*
X150539Y21355D01*
X150392Y21575D01*
X150349Y21603D01*
X150304Y21712D01*
X150244Y21737D01*
X150207Y21791D01*
X150025Y21828D01*
X149996Y21840D01*
X149985Y21847D01*
X149980Y21846D01*
X149852Y21899D01*
X149360D01*
X149232Y21846D01*
X149228Y21847D01*
X149217Y21840D01*
X149188Y21828D01*
X149005Y21791D01*
X148969Y21737D01*
X148908Y21712D01*
X148863Y21603D01*
X148821Y21575D01*
X148674Y21355D01*
X148560Y21279D01*
X148362Y21240D01*
X145339D01*
X145141Y21279D01*
X145027Y21355D01*
X144880Y21575D01*
X144837Y21603D01*
X144792Y21712D01*
X144732Y21737D01*
X144696Y21791D01*
X144513Y21828D01*
X144484Y21840D01*
X144473Y21847D01*
X144469Y21846D01*
X144341Y21899D01*
X143330D01*
X142878Y21712D01*
X142691Y21260D01*
Y20511D01*
X142638Y20246D01*
X142524Y20075D01*
X142352Y19961D01*
X142088Y19908D01*
X137440D01*
X137175Y19961D01*
X137004Y20075D01*
X136890Y20246D01*
X136837Y20511D01*
Y21260D01*
X136650Y21712D01*
X136198Y21899D01*
X136171D01*
Y26264D01*
X138489D01*
X138795Y26325D01*
X139053Y26498D01*
X139226Y26757D01*
X139287Y27062D01*
Y29237D01*
X139231Y29520D01*
X139229Y29547D01*
X139509Y30020D01*
X145686D01*
X145763Y30004D01*
X150103D01*
X150180Y30020D01*
X150506D01*
X150794Y29731D01*
D02*
G37*
G36*
X180099Y22441D02*
X155827D01*
Y31867D01*
X156718D01*
X157169Y31957D01*
X157551Y32212D01*
X157807Y32595D01*
X157897Y33046D01*
Y37820D01*
X157807Y38271D01*
X157758Y38344D01*
Y39685D01*
X158386D01*
Y47244D01*
X180099D01*
Y22441D01*
D02*
G37*
G36*
Y16164D02*
X173043Y9108D01*
X164097D01*
Y12229D01*
X164008Y12681D01*
X163752Y13063D01*
X163370Y13319D01*
X162918Y13408D01*
X159523D01*
X159071Y13319D01*
X158689Y13063D01*
X158433Y12681D01*
X158344Y12229D01*
Y9108D01*
X148147D01*
X147940Y9608D01*
X148155Y9823D01*
X148425Y10474D01*
Y11179D01*
X148155Y11830D01*
X147757Y12228D01*
Y14400D01*
X148425D01*
X148809Y14477D01*
X149135Y14694D01*
X149352Y15020D01*
X149429Y15404D01*
Y17766D01*
X149352Y18150D01*
X149135Y18476D01*
X148809Y18693D01*
X148425Y18770D01*
X145276D01*
X144892Y18693D01*
X144566Y18476D01*
X144349Y18150D01*
X144272Y17766D01*
Y15404D01*
X144349Y15020D01*
X144566Y14694D01*
X144892Y14477D01*
X145276Y14400D01*
X145550D01*
Y12228D01*
X145152Y11830D01*
X144882Y11179D01*
Y10474D01*
X145152Y9823D01*
X145367Y9608D01*
X145160Y9108D01*
X125000D01*
Y21260D01*
X128073D01*
X128356Y21070D01*
X128740Y20994D01*
X131890D01*
X132274Y21070D01*
X132557Y21260D01*
X136198D01*
Y20448D01*
X136288Y19997D01*
X136543Y19614D01*
X136926Y19358D01*
X137377Y19269D01*
X142151D01*
X142602Y19358D01*
X142984Y19614D01*
X143240Y19997D01*
X143330Y20448D01*
Y21260D01*
X144341D01*
X144349Y21220D01*
X144566Y20894D01*
X144892Y20677D01*
X145276Y20600D01*
X148425D01*
X148809Y20677D01*
X149135Y20894D01*
X149352Y21220D01*
X149360Y21260D01*
X149852D01*
X149860Y21220D01*
X150078Y20894D01*
X150403Y20677D01*
X150787Y20600D01*
X153937D01*
X154321Y20677D01*
X154647Y20894D01*
X154864Y21220D01*
X154872Y21260D01*
X180099D01*
Y16164D01*
D02*
G37*
%LPC*%
G36*
X154823Y371949D02*
X147146D01*
Y367147D01*
X130709D01*
X130286Y367063D01*
X129928Y366824D01*
X110986Y347882D01*
X107598D01*
Y347959D01*
X107522Y348343D01*
X107304Y348668D01*
X106978Y348886D01*
X106595Y348962D01*
X103445D01*
X103061Y348886D01*
X103043Y348874D01*
X102657Y348703D01*
X102271Y348874D01*
X102254Y348886D01*
X101870Y348962D01*
X98721D01*
X98336Y348886D01*
X98319Y348874D01*
X97933Y348703D01*
X97547Y348874D01*
X97530Y348886D01*
X97146Y348962D01*
X93996D01*
X93612Y348886D01*
X93287Y348668D01*
X92681Y348654D01*
X92598Y348712D01*
Y349035D01*
X86994D01*
X85959Y350071D01*
X86166Y350571D01*
X92598D01*
Y351043D01*
X92681Y351101D01*
X93287Y351087D01*
X93612Y350869D01*
X93996Y350793D01*
X97146D01*
X97530Y350869D01*
X97547Y350881D01*
X97933Y351052D01*
X98319Y350881D01*
X98336Y350869D01*
X98721Y350793D01*
X101870D01*
X102254Y350869D01*
X102409Y350839D01*
X102440Y350792D01*
X102901Y350484D01*
X103445Y350376D01*
X104520D01*
Y352978D01*
Y355580D01*
X103445D01*
X102901Y355471D01*
X102440Y355164D01*
X102409Y355117D01*
X102254Y355086D01*
X101870Y355162D01*
X98721D01*
X98336Y355086D01*
X98319Y355074D01*
X97933Y354903D01*
X97547Y355074D01*
X97530Y355086D01*
X97146Y355162D01*
X93996D01*
X93612Y355086D01*
X93287Y354868D01*
X93069Y354543D01*
X93010Y354248D01*
X92598Y354035D01*
X86323D01*
X86116Y354535D01*
X88253Y356672D01*
X89350D01*
X89360Y356674D01*
X91614D01*
X91998Y356750D01*
X92324Y356968D01*
X92541Y357293D01*
X92618Y357677D01*
Y360827D01*
X92541Y361211D01*
X92324Y361536D01*
X91998Y361754D01*
X91614Y361830D01*
X89252D01*
X88868Y361754D01*
X88542Y361536D01*
X88325Y361211D01*
X88248Y360827D01*
Y358879D01*
X87795D01*
X87373Y358795D01*
X87015Y358556D01*
X86880Y358421D01*
X86418Y358612D01*
Y360827D01*
X86341Y361211D01*
X86124Y361536D01*
X85798Y361754D01*
X85414Y361830D01*
X83052D01*
X82668Y361754D01*
X82342Y361536D01*
X82125Y361211D01*
X82048Y360827D01*
Y358235D01*
X77960Y354146D01*
X77720Y353788D01*
X77636Y353365D01*
Y331166D01*
X70506Y324035D01*
X65472D01*
X65281Y324497D01*
X65564Y324781D01*
X65803Y325139D01*
X65887Y325561D01*
Y325571D01*
X70866D01*
Y329035D01*
X63749D01*
X63673Y329419D01*
X63455Y329745D01*
X63239Y329889D01*
X63201Y330059D01*
Y330276D01*
X63239Y330445D01*
X63250Y330452D01*
X63701Y330571D01*
X63701Y330571D01*
Y330571D01*
X63701Y330571D01*
X70866D01*
Y334035D01*
X63749D01*
Y334449D01*
X63673Y334833D01*
X63455Y335158D01*
X63451Y335188D01*
X63791Y335571D01*
X70866D01*
Y336175D01*
X71408D01*
X71831Y335752D01*
X72482Y335482D01*
X73187D01*
X73838Y335752D01*
X74337Y336250D01*
X74606Y336901D01*
Y337606D01*
X74337Y338258D01*
X73838Y338756D01*
X73187Y339026D01*
X72482D01*
X71831Y338756D01*
X71458Y338382D01*
X70866D01*
Y339035D01*
X63749D01*
Y339961D01*
X63914Y340161D01*
X66783D01*
Y341803D01*
X63291D01*
Y341335D01*
X62791Y340955D01*
X62746Y340964D01*
X60383D01*
X59999Y340888D01*
X59674Y340670D01*
X59456Y340345D01*
X59380Y339961D01*
Y336811D01*
X59456Y336427D01*
X59674Y336101D01*
X59997Y335885D01*
X59999Y335874D01*
Y335386D01*
X59997Y335374D01*
X59674Y335158D01*
X59456Y334833D01*
X59380Y334449D01*
Y331299D01*
X59456Y330915D01*
X59674Y330590D01*
X59890Y330445D01*
X59929Y330276D01*
Y330059D01*
X59890Y329889D01*
X59674Y329745D01*
X59456Y329419D01*
X59380Y329035D01*
Y325886D01*
X59456Y325502D01*
X59674Y325176D01*
X59997Y324960D01*
X59999Y324949D01*
Y324460D01*
X59997Y324449D01*
X59674Y324233D01*
X59456Y323908D01*
X59380Y323524D01*
Y321878D01*
X59308D01*
X58885Y321794D01*
X58527Y321554D01*
X58429Y321456D01*
X57967Y321647D01*
Y323524D01*
X57859Y324067D01*
X57665Y324357D01*
X57589Y324705D01*
X57665Y325053D01*
X57859Y325342D01*
X57967Y325886D01*
Y326961D01*
X55365D01*
X52763D01*
Y325886D01*
X52871Y325342D01*
X53064Y325053D01*
X53140Y324705D01*
X53064Y324357D01*
X52871Y324067D01*
X52763Y323524D01*
Y322449D01*
X55365D01*
Y321449D01*
X52763D01*
Y320374D01*
X52871Y319830D01*
X53179Y319369D01*
X53361Y319247D01*
X53424Y318954D01*
X53416Y318635D01*
X53256Y318396D01*
X53180Y318012D01*
Y314862D01*
X53256Y314478D01*
X53474Y314153D01*
X53799Y313935D01*
X54184Y313859D01*
X56546D01*
X56930Y313935D01*
X57255Y314153D01*
X57473Y314478D01*
X57549Y314862D01*
Y317454D01*
X59499Y319404D01*
X59683Y319329D01*
X59738Y318764D01*
X59674Y318721D01*
X59456Y318396D01*
X59380Y318012D01*
Y314862D01*
X59456Y314478D01*
X59674Y314153D01*
X59999Y313935D01*
X60383Y313859D01*
X62746D01*
X63130Y313935D01*
X63216Y313993D01*
X63583Y314111D01*
X63950Y313993D01*
X64036Y313935D01*
X64420Y313859D01*
X66782D01*
X67166Y313935D01*
X67492Y314153D01*
X67709Y314478D01*
X67785Y314862D01*
Y318012D01*
X67709Y318396D01*
X67492Y318721D01*
X67166Y318939D01*
X66782Y319015D01*
X66705D01*
Y320571D01*
X70866D01*
Y321800D01*
X70936D01*
X71358Y321884D01*
X71716Y322124D01*
X79521Y329928D01*
X79760Y330286D01*
X79844Y330709D01*
Y352908D01*
X83610Y356674D01*
X84479D01*
X84670Y356212D01*
X83865Y355406D01*
X83626Y355048D01*
X83542Y354626D01*
Y349823D01*
X83626Y349400D01*
X83865Y349042D01*
X85433Y347474D01*
Y345571D01*
X92598D01*
X92598Y345571D01*
X93030Y345407D01*
X93069Y345212D01*
X93273Y344908D01*
X93249Y344812D01*
X93191Y344696D01*
X92844Y344445D01*
X89516D01*
Y342303D01*
Y340161D01*
X93008D01*
X93008Y340161D01*
X93069Y339970D01*
X93101Y339922D01*
X93177Y339727D01*
X93245Y339518D01*
X93126Y339151D01*
X93080Y339081D01*
X92598Y339035D01*
X92598Y339036D01*
X92598Y339035D01*
X85433D01*
Y338407D01*
X84768D01*
X84370Y338805D01*
X83719Y339075D01*
X83014D01*
X82363Y338805D01*
X81864Y338307D01*
X81595Y337655D01*
Y336951D01*
X81864Y336300D01*
X82363Y335801D01*
X83014Y335531D01*
X83719D01*
X84370Y335801D01*
X84768Y336199D01*
X85433D01*
Y335571D01*
X92598D01*
X92598Y335571D01*
X93022Y335385D01*
X93069Y335148D01*
X93287Y334822D01*
X93612Y334604D01*
X93996Y334528D01*
X95228D01*
X95420Y334066D01*
X94761Y333407D01*
X92598D01*
Y334035D01*
X85433D01*
Y330571D01*
X92598D01*
Y331199D01*
X95218D01*
X95640Y331283D01*
X95998Y331523D01*
X98755Y334279D01*
X99191Y334527D01*
X99652Y334219D01*
X100196Y334110D01*
X100877D01*
Y337106D01*
X101877D01*
Y334110D01*
X102558D01*
X102825Y334164D01*
X103325Y333812D01*
Y330459D01*
X102825Y330177D01*
X102411Y330260D01*
X101730D01*
Y327264D01*
X101230D01*
Y326764D01*
X98628D01*
Y326421D01*
X98166Y326230D01*
X97828Y326568D01*
X97470Y326807D01*
X97215Y326858D01*
Y328839D01*
X97138Y329223D01*
X96921Y329548D01*
X96595Y329766D01*
X96211Y329842D01*
X93849D01*
X93465Y329766D01*
X93139Y329548D01*
X92983Y329314D01*
X92598Y329035D01*
X85433D01*
Y325571D01*
X92598D01*
X92963Y325243D01*
X93139Y324979D01*
Y324627D01*
X92963Y324363D01*
X92598Y324035D01*
X85433D01*
Y320571D01*
X85609D01*
Y310138D01*
X85693Y309715D01*
X85932Y309357D01*
X90135Y305154D01*
Y300763D01*
X90225Y300312D01*
X90480Y299929D01*
X90863Y299673D01*
X91314Y299584D01*
X94710D01*
X95161Y299673D01*
X95543Y299929D01*
X95799Y300312D01*
X95889Y300763D01*
Y305536D01*
X95799Y305988D01*
X95543Y306370D01*
X95543Y306370D01*
X95695Y306871D01*
X96605D01*
X96989Y306947D01*
X97314Y307164D01*
X97532Y307490D01*
X97608Y307874D01*
Y311024D01*
X97532Y311408D01*
X97314Y311733D01*
X96989Y311951D01*
X96605Y312027D01*
X94243D01*
X93858Y311951D01*
X93533Y311733D01*
X93315Y311408D01*
X93244Y311051D01*
X93094Y310942D01*
X92739Y310793D01*
X92183Y311024D01*
X91505D01*
X91463Y311036D01*
X91043Y311385D01*
Y311868D01*
X91027Y311907D01*
X91121Y312001D01*
X91360Y312359D01*
X91444Y312781D01*
Y314061D01*
X91444Y314061D01*
Y314370D01*
X91949D01*
Y314743D01*
X92716D01*
Y314370D01*
X96220D01*
Y317323D01*
X92716D01*
Y316950D01*
X91949D01*
Y317323D01*
X88445D01*
Y314370D01*
X88888D01*
X89236Y314061D01*
Y313287D01*
X88919D01*
X88317Y313038D01*
X87817Y313219D01*
Y320571D01*
X92598D01*
X92983Y320292D01*
X93139Y320058D01*
X93465Y319841D01*
X93849Y319764D01*
X96211D01*
X96595Y319841D01*
X96921Y320058D01*
X97138Y320384D01*
X97215Y320768D01*
Y323352D01*
X97715Y323559D01*
X98235Y323038D01*
X98593Y322799D01*
X99016Y322715D01*
X99045D01*
Y320768D01*
X99122Y320384D01*
X99339Y320058D01*
X99665Y319841D01*
X100049Y319764D01*
X102411D01*
X102795Y319841D01*
X102825Y319861D01*
X103325Y319594D01*
Y317957D01*
X102691Y317323D01*
X101024D01*
Y315931D01*
X100843Y315751D01*
X100604Y315392D01*
X100520Y314970D01*
Y312027D01*
X100443D01*
X100058Y311951D01*
X99733Y311733D01*
X99515Y311408D01*
X99439Y311024D01*
Y307874D01*
X99515Y307490D01*
X99699Y307216D01*
X99640Y306982D01*
X99505Y306716D01*
X99385D01*
X98934Y306626D01*
X98551Y306370D01*
X98295Y305988D01*
X98206Y305536D01*
Y300763D01*
X98295Y300312D01*
X98551Y299929D01*
X98934Y299673D01*
X99385Y299584D01*
X99477D01*
Y271236D01*
X85756Y257515D01*
X84882Y257749D01*
X83858D01*
X82868Y257484D01*
X81981Y256972D01*
X81257Y256247D01*
X80745Y255360D01*
X80480Y254370D01*
Y253346D01*
X80745Y252357D01*
X81257Y251469D01*
X81981Y250745D01*
X82868Y250233D01*
X83858Y249968D01*
X84882D01*
X85872Y250233D01*
X86759Y250745D01*
X87483Y251469D01*
X87995Y252357D01*
X88261Y253346D01*
Y254370D01*
X88027Y255244D01*
X102218Y269436D01*
X102218Y269436D01*
X102566Y269956D01*
X102628Y270270D01*
X103128Y270220D01*
Y261186D01*
X91177Y249234D01*
X70657D01*
X70591Y249734D01*
X71030Y249851D01*
X72010Y250417D01*
X72811Y251218D01*
X73377Y252199D01*
X73670Y253292D01*
Y253358D01*
X69370D01*
X65070D01*
Y253292D01*
X65363Y252199D01*
X65929Y251218D01*
X66730Y250417D01*
X67710Y249851D01*
X68149Y249734D01*
X68083Y249234D01*
X35693D01*
X17323Y267604D01*
Y268167D01*
X17053Y268818D01*
X16555Y269317D01*
X15903Y269586D01*
X15199D01*
X14547Y269317D01*
X14049Y268818D01*
X13779Y268167D01*
Y267462D01*
X14049Y266811D01*
X14547Y266313D01*
X15199Y266043D01*
X15761D01*
X34455Y247349D01*
X34813Y247110D01*
X35236Y247026D01*
X91634D01*
X92056Y247110D01*
X92414Y247349D01*
X105013Y259948D01*
X105252Y260306D01*
X105336Y260728D01*
Y280497D01*
X109411Y284572D01*
X109873Y284381D01*
Y282087D01*
X109949Y281703D01*
X110167Y281377D01*
X110492Y281159D01*
X110643Y281129D01*
X110712Y280801D01*
X110696Y280609D01*
X110362Y280386D01*
X110107Y280003D01*
X110017Y279552D01*
Y276156D01*
X110107Y275705D01*
X110362Y275323D01*
X110745Y275067D01*
X111196Y274977D01*
X115970D01*
X116421Y275067D01*
X116803Y275323D01*
X117059Y275705D01*
X117149Y276156D01*
Y276686D01*
X117649Y276893D01*
X117796Y276746D01*
X118447Y276476D01*
X119152D01*
X119803Y276746D01*
X120287Y277231D01*
X120362Y277228D01*
X120787Y277112D01*
Y276654D01*
X127953D01*
Y277555D01*
X129128D01*
X129262Y277421D01*
X129913Y277151D01*
X130618D01*
X131269Y277421D01*
X131768Y277920D01*
X132037Y278571D01*
Y279275D01*
X131768Y279927D01*
X131269Y280425D01*
X130618Y280695D01*
X129913D01*
X129262Y280425D01*
X128764Y279927D01*
X128696Y279763D01*
X127953D01*
Y280118D01*
X120787D01*
Y279384D01*
X120362Y279268D01*
X120287Y279265D01*
X119803Y279750D01*
X119152Y280020D01*
X118447D01*
X117796Y279750D01*
X117634Y279588D01*
X117606Y279586D01*
X117106Y279767D01*
X117059Y280003D01*
X116803Y280386D01*
X116421Y280642D01*
X115970Y280731D01*
X113838D01*
X113730Y281231D01*
X113948Y281377D01*
X114166Y281703D01*
X114242Y282087D01*
Y285236D01*
X114166Y285620D01*
X113948Y285946D01*
X113625Y286162D01*
X113623Y286173D01*
Y286662D01*
X113625Y286673D01*
X113948Y286889D01*
X114166Y287214D01*
X114242Y287598D01*
Y290190D01*
X116550Y292498D01*
X117175D01*
X117184Y292500D01*
X119439D01*
X119823Y292577D01*
X120148Y292794D01*
X120287Y293003D01*
X120787Y292872D01*
Y291653D01*
X127953D01*
Y292439D01*
X128972D01*
X129213Y292199D01*
X129864Y291929D01*
X130569D01*
X131220Y292199D01*
X131719Y292697D01*
X131988Y293348D01*
Y294053D01*
X131719Y294704D01*
X131220Y295203D01*
X130569Y295472D01*
X129864D01*
X129213Y295203D01*
X128715Y294704D01*
X128691Y294647D01*
X127953D01*
Y295118D01*
X120942D01*
X120787Y295118D01*
X120442Y295475D01*
Y296244D01*
X123870D01*
Y298386D01*
Y300528D01*
X120378D01*
Y300207D01*
X119878Y300107D01*
X119711Y300511D01*
X119212Y301010D01*
X118561Y301279D01*
X117856D01*
X117205Y301010D01*
X116707Y300511D01*
X116437Y299860D01*
Y299155D01*
X116707Y298504D01*
X117060Y298150D01*
X117065Y298024D01*
X116989Y297640D01*
X116692Y297581D01*
X116367Y297363D01*
X116149Y297038D01*
X116073Y296654D01*
Y294702D01*
X115671Y294622D01*
X115312Y294383D01*
X115121Y294192D01*
X114660Y294383D01*
Y294579D01*
X112057D01*
X109455D01*
Y293504D01*
X109564Y292960D01*
X109872Y292499D01*
X110333Y292191D01*
X110428Y292172D01*
X110479Y291781D01*
X110463Y291655D01*
X110167Y291458D01*
X109949Y291132D01*
X109873Y290748D01*
Y288156D01*
X103452Y281735D01*
X103212Y281377D01*
X103188Y281256D01*
X102688Y281305D01*
Y299584D01*
X102780D01*
X103232Y299673D01*
X103614Y299929D01*
X103870Y300312D01*
X103960Y300763D01*
Y305536D01*
X103870Y305988D01*
X103614Y306370D01*
X103395Y306517D01*
X103373Y307040D01*
X103386Y307079D01*
X103514Y307164D01*
X103732Y307490D01*
X103808Y307874D01*
Y311024D01*
X103732Y311408D01*
X103514Y311733D01*
X103189Y311951D01*
X102805Y312027D01*
X102727D01*
Y314370D01*
X104527D01*
Y316037D01*
X105210Y316719D01*
X105449Y317078D01*
X105533Y317500D01*
Y338898D01*
X105449Y339321D01*
X105210Y339679D01*
X103655Y341233D01*
X103562Y341296D01*
Y343504D01*
X103485Y343888D01*
X103341Y344104D01*
X103380Y344286D01*
X103469Y344465D01*
X103570Y344593D01*
X106595D01*
X106978Y344669D01*
X107304Y344887D01*
X107522Y345212D01*
X107598Y345597D01*
Y345674D01*
X111443D01*
X111865Y345758D01*
X112223Y345997D01*
X123983Y357756D01*
X124456Y357523D01*
X124347Y356694D01*
Y354832D01*
X129422D01*
Y362204D01*
X129094Y362160D01*
X128860Y362634D01*
X131166Y364939D01*
X147146D01*
Y359154D01*
X154823D01*
Y371949D01*
D02*
G37*
G36*
X171367Y362204D02*
Y354832D01*
X176443D01*
Y356694D01*
X176253Y358137D01*
X175696Y359482D01*
X174810Y360636D01*
X173655Y361522D01*
X172310Y362079D01*
X171367Y362204D01*
D02*
G37*
G36*
X47745Y362204D02*
Y354832D01*
X52821D01*
Y356694D01*
X52631Y358137D01*
X52074Y359482D01*
X51188Y360636D01*
X50033Y361522D01*
X48688Y362079D01*
X47745Y362204D01*
D02*
G37*
G36*
X46745Y362204D02*
X45802Y362079D01*
X44458Y361522D01*
X43303Y360636D01*
X42417Y359482D01*
X41860Y358137D01*
X41670Y356694D01*
Y354832D01*
X46745D01*
Y362204D01*
D02*
G37*
G36*
X170367D02*
X169424Y362079D01*
X168080Y361522D01*
X166925Y360636D01*
X166039Y359482D01*
X165482Y358137D01*
X165292Y356694D01*
Y354832D01*
X170367D01*
Y362204D01*
D02*
G37*
G36*
X130422D02*
Y354832D01*
X135498D01*
Y356694D01*
X135308Y358137D01*
X134751Y359482D01*
X133865Y360636D01*
X132710Y361522D01*
X131366Y362079D01*
X130422Y362204D01*
D02*
G37*
G36*
X6801D02*
Y354832D01*
X11876D01*
Y356694D01*
X11686Y358137D01*
X11129Y359482D01*
X10243Y360636D01*
X9088Y361522D01*
X7744Y362079D01*
X6801Y362204D01*
D02*
G37*
G36*
X5801D02*
X4857Y362079D01*
X3513Y361522D01*
X2358Y360636D01*
X1472Y359482D01*
X915Y358137D01*
X725Y356694D01*
Y354832D01*
X5801D01*
Y362204D01*
D02*
G37*
G36*
X106595Y355580D02*
X105520D01*
Y353478D01*
X108016D01*
Y354159D01*
X107907Y354702D01*
X107599Y355164D01*
X107138Y355471D01*
X106595Y355580D01*
D02*
G37*
G36*
X67872Y358268D02*
X67167D01*
X66516Y357998D01*
X66018Y357500D01*
X65748Y356849D01*
Y356144D01*
X66018Y355492D01*
X66416Y355095D01*
Y354035D01*
X63701D01*
Y350571D01*
X70866D01*
Y354035D01*
X68624D01*
Y355095D01*
X69022Y355492D01*
X69291Y356144D01*
Y356849D01*
X69022Y357500D01*
X68523Y357998D01*
X67872Y358268D01*
D02*
G37*
G36*
X108016Y352478D02*
X105520D01*
Y350376D01*
X106595D01*
X107138Y350484D01*
X107599Y350792D01*
X107907Y351253D01*
X108016Y351797D01*
Y352478D01*
D02*
G37*
G36*
X70866Y349035D02*
X63701D01*
Y348377D01*
X62789D01*
X62421Y348746D01*
X61770Y349016D01*
X61065D01*
X60414Y348746D01*
X59915Y348248D01*
X59646Y347597D01*
Y346892D01*
X59915Y346240D01*
X60414Y345742D01*
X61065Y345472D01*
X61770D01*
X62421Y345742D01*
X62849Y346170D01*
X63701D01*
Y345571D01*
X70866D01*
Y349035D01*
D02*
G37*
G36*
X155232Y354445D02*
X151484D01*
Y348138D01*
X155232D01*
Y354445D01*
D02*
G37*
G36*
X150484D02*
X146736D01*
Y348138D01*
X150484D01*
Y354445D01*
D02*
G37*
G36*
X46745Y353832D02*
X41670D01*
Y351970D01*
X41860Y350527D01*
X42417Y349182D01*
X43303Y348027D01*
X44458Y347141D01*
X45802Y346584D01*
X46745Y346460D01*
Y353832D01*
D02*
G37*
G36*
X176443D02*
X171367D01*
Y346460D01*
X172310Y346584D01*
X173655Y347141D01*
X174810Y348027D01*
X175696Y349182D01*
X176253Y350527D01*
X176443Y351970D01*
Y353832D01*
D02*
G37*
G36*
X135498Y353832D02*
X130422D01*
Y346460D01*
X131366Y346584D01*
X132710Y347141D01*
X133865Y348027D01*
X134751Y349182D01*
X135308Y350527D01*
X135498Y351970D01*
Y353832D01*
D02*
G37*
G36*
X129422D02*
X124347D01*
Y351970D01*
X124537Y350527D01*
X125094Y349182D01*
X125980Y348027D01*
X127135Y347141D01*
X128480Y346584D01*
X129422Y346460D01*
Y353832D01*
D02*
G37*
G36*
X11876D02*
X6801D01*
Y346460D01*
X7744Y346584D01*
X9088Y347141D01*
X10243Y348027D01*
X11129Y349182D01*
X11686Y350527D01*
X11876Y351970D01*
Y353832D01*
D02*
G37*
G36*
X5801D02*
X725D01*
Y351970D01*
X915Y350527D01*
X1472Y349182D01*
X2358Y348027D01*
X3513Y347141D01*
X4857Y346584D01*
X5801Y346460D01*
Y353832D01*
D02*
G37*
G36*
X170367Y353832D02*
X165292D01*
Y351970D01*
X165482Y350527D01*
X166039Y349182D01*
X166925Y348027D01*
X168080Y347141D01*
X169424Y346584D01*
X170367Y346460D01*
Y353832D01*
D02*
G37*
G36*
X52821D02*
X47745D01*
Y346460D01*
X48688Y346584D01*
X50033Y347141D01*
X51188Y348027D01*
X52074Y349182D01*
X52631Y350527D01*
X52821Y351970D01*
Y353832D01*
D02*
G37*
G36*
X71276Y344445D02*
X67783D01*
Y342803D01*
X71276D01*
Y344445D01*
D02*
G37*
G36*
X88516D02*
X85024D01*
Y342803D01*
X88516D01*
Y344445D01*
D02*
G37*
G36*
X66783D02*
X63291D01*
Y342803D01*
X66783D01*
Y344445D01*
D02*
G37*
G36*
X155232Y347138D02*
X151484D01*
Y340831D01*
X155232D01*
Y347138D01*
D02*
G37*
G36*
X150484D02*
X146736D01*
Y340831D01*
X150484D01*
Y347138D01*
D02*
G37*
G36*
X88516Y341803D02*
X85024D01*
Y340161D01*
X88516D01*
Y341803D01*
D02*
G37*
G36*
X71276D02*
X67783D01*
Y340161D01*
X71276D01*
Y341803D01*
D02*
G37*
G36*
X56546Y341382D02*
X55865D01*
Y338886D01*
X57967D01*
Y339961D01*
X57859Y340504D01*
X57551Y340965D01*
X57090Y341273D01*
X56546Y341382D01*
D02*
G37*
G36*
X54865D02*
X54184D01*
X53640Y341273D01*
X53179Y340965D01*
X52871Y340504D01*
X52763Y339961D01*
Y338886D01*
X54865D01*
Y341382D01*
D02*
G37*
G36*
X57967Y337886D02*
X55365D01*
X52763D01*
Y336811D01*
X52871Y336267D01*
X53179Y335806D01*
X53361Y335684D01*
X53424Y335391D01*
X53416Y335072D01*
X53256Y334833D01*
X53180Y334449D01*
Y333486D01*
X33563D01*
X33141Y333402D01*
X32783Y333162D01*
X28833Y329213D01*
X27852Y329619D01*
X26773Y329761D01*
X25694Y329619D01*
X24688Y329203D01*
X23825Y328540D01*
X23162Y327677D01*
X22746Y326671D01*
X22603Y325592D01*
Y324017D01*
X22746Y322938D01*
X23162Y321932D01*
X23825Y321069D01*
X24688Y320406D01*
X25694Y319989D01*
X26773Y319847D01*
X27852Y319989D01*
X28858Y320406D01*
X29721Y321069D01*
X30384Y321932D01*
X30800Y322938D01*
X30942Y324017D01*
Y325592D01*
X30800Y326671D01*
X30394Y327652D01*
X34020Y331278D01*
X53184D01*
X53256Y330915D01*
X53359Y330762D01*
X53326Y330212D01*
X53287Y330113D01*
X53179Y330040D01*
X52871Y329579D01*
X52763Y329035D01*
Y327961D01*
X55365D01*
X57967D01*
Y329035D01*
X57859Y329579D01*
X57551Y330040D01*
X57442Y330113D01*
X57403Y330212D01*
X57370Y330762D01*
X57473Y330915D01*
X57549Y331299D01*
Y334449D01*
X57473Y334833D01*
X57313Y335072D01*
X57305Y335391D01*
X57368Y335684D01*
X57551Y335806D01*
X57859Y336267D01*
X57967Y336811D01*
Y337886D01*
D02*
G37*
G36*
X100730Y330260D02*
X100049D01*
X99505Y330151D01*
X99044Y329843D01*
X98736Y329382D01*
X98628Y328839D01*
Y327764D01*
X100730D01*
Y330260D01*
D02*
G37*
G36*
X21474Y330135D02*
X17430D01*
Y325304D01*
X21474D01*
Y330135D01*
D02*
G37*
G36*
X16430D02*
X12387D01*
Y325304D01*
X16430D01*
Y330135D01*
D02*
G37*
G36*
X144686Y329726D02*
X136419D01*
Y319883D01*
X144686D01*
Y329726D01*
D02*
G37*
G36*
X160238Y329761D02*
X159158Y329619D01*
X158153Y329203D01*
X157289Y328540D01*
X156627Y327677D01*
X156210Y326671D01*
X156068Y325592D01*
Y324017D01*
X156210Y322938D01*
X156627Y321932D01*
X157289Y321069D01*
X158153Y320406D01*
X159158Y319989D01*
X160238Y319847D01*
X161317Y319989D01*
X162322Y320406D01*
X163186Y321069D01*
X163848Y321932D01*
X164265Y322938D01*
X164407Y324017D01*
Y325592D01*
X164265Y326671D01*
X163848Y327677D01*
X163186Y328540D01*
X162322Y329203D01*
X161317Y329619D01*
X160238Y329761D01*
D02*
G37*
G36*
X150395D02*
X149316Y329619D01*
X148310Y329203D01*
X147447Y328540D01*
X146784Y327677D01*
X146368Y326671D01*
X146226Y325592D01*
Y324017D01*
X146368Y322938D01*
X146784Y321932D01*
X147447Y321069D01*
X148310Y320406D01*
X149316Y319989D01*
X150395Y319847D01*
X151474Y319989D01*
X152480Y320406D01*
X153343Y321069D01*
X154006Y321932D01*
X154422Y322938D01*
X154564Y324017D01*
Y325592D01*
X154422Y326671D01*
X154006Y327677D01*
X153343Y328540D01*
X152480Y329203D01*
X151474Y329619D01*
X150395Y329761D01*
D02*
G37*
G36*
X36615D02*
X35536Y329619D01*
X34531Y329203D01*
X33667Y328540D01*
X33005Y327677D01*
X32588Y326671D01*
X32446Y325592D01*
Y324017D01*
X32588Y322938D01*
X33005Y321932D01*
X33667Y321069D01*
X34531Y320406D01*
X35536Y319989D01*
X36615Y319847D01*
X37695Y319989D01*
X38700Y320406D01*
X39564Y321069D01*
X40226Y321932D01*
X40643Y322938D01*
X40785Y324017D01*
Y325592D01*
X40643Y326671D01*
X40226Y327677D01*
X39564Y328540D01*
X38700Y329203D01*
X37695Y329619D01*
X36615Y329761D01*
D02*
G37*
G36*
X21474Y324304D02*
X17430D01*
Y319474D01*
X21474D01*
Y324304D01*
D02*
G37*
G36*
X16430D02*
X12387D01*
Y319474D01*
X16430D01*
Y324304D01*
D02*
G37*
G36*
X72982Y319015D02*
X70620D01*
X70236Y318939D01*
X69910Y318721D01*
X69693Y318396D01*
X69616Y318012D01*
Y314862D01*
X69693Y314478D01*
X69910Y314153D01*
X70236Y313935D01*
X70620Y313859D01*
X72982D01*
X73366Y313935D01*
X73691Y314153D01*
X73909Y314478D01*
X73962Y314743D01*
X80138D01*
Y314370D01*
X80737D01*
Y313163D01*
X80289Y312716D01*
X80020Y312065D01*
Y311360D01*
X80289Y310709D01*
X80788Y310211D01*
X81439Y309941D01*
X82144D01*
X82795Y310211D01*
X83293Y310709D01*
X83563Y311360D01*
Y312065D01*
X83293Y312716D01*
X82944Y313065D01*
Y314370D01*
X83642D01*
Y317323D01*
X80138D01*
Y316950D01*
X73985D01*
Y318012D01*
X73909Y318396D01*
X73691Y318721D01*
X73366Y318939D01*
X72982Y319015D01*
D02*
G37*
G36*
X159146Y305899D02*
X158071D01*
X157527Y305791D01*
X157066Y305483D01*
X156944Y305300D01*
X156650Y305237D01*
X156332Y305245D01*
X156093Y305405D01*
X155709Y305482D01*
X152559D01*
X152175Y305405D01*
X151849Y305188D01*
X151632Y304862D01*
X151556Y304478D01*
Y304445D01*
X149685D01*
Y305118D01*
X142520D01*
Y301654D01*
X149685D01*
Y302237D01*
X151556D01*
Y302116D01*
X151632Y301732D01*
X151849Y301406D01*
X152175Y301189D01*
X152559Y301112D01*
X155709D01*
X156093Y301189D01*
X156332Y301348D01*
X156650Y301356D01*
X156944Y301293D01*
X157066Y301111D01*
X157527Y300803D01*
X158071Y300695D01*
X159146D01*
Y303297D01*
Y305899D01*
D02*
G37*
G36*
X128362Y305528D02*
X124870D01*
Y303886D01*
X128362D01*
Y305528D01*
D02*
G37*
G36*
X123870D02*
X120378D01*
Y303886D01*
X123870D01*
Y305528D01*
D02*
G37*
G36*
X64307Y305508D02*
X62665D01*
Y302016D01*
X64307D01*
Y305508D01*
D02*
G37*
G36*
X66665D02*
X65024D01*
Y302016D01*
X66665D01*
Y305508D01*
D02*
G37*
G36*
X61665D02*
X60024D01*
Y302016D01*
X61665D01*
Y305508D01*
D02*
G37*
G36*
X161221Y305899D02*
X160146D01*
Y303297D01*
Y300695D01*
X161221D01*
X161764Y300803D01*
X162225Y301111D01*
X162347Y301293D01*
X162641Y301356D01*
X162960Y301348D01*
X163199Y301189D01*
X163583Y301112D01*
X166732D01*
X167116Y301189D01*
X167442Y301406D01*
X167659Y301732D01*
X167736Y302116D01*
Y302193D01*
X168485D01*
Y302116D01*
X168561Y301732D01*
X168779Y301406D01*
X169104Y301189D01*
X169488Y301112D01*
X172638D01*
X173022Y301189D01*
X173347Y301406D01*
X173565Y301732D01*
X173641Y302116D01*
Y302119D01*
X175985D01*
X176457Y301648D01*
X177108Y301378D01*
X177813D01*
X178464Y301648D01*
X178963Y302146D01*
X179232Y302797D01*
Y303502D01*
X178963Y304153D01*
X178464Y304651D01*
X177813Y304921D01*
X177108D01*
X176457Y304651D01*
X176133Y304327D01*
X173641D01*
Y304478D01*
X173565Y304862D01*
X173347Y305188D01*
X173022Y305405D01*
X172638Y305482D01*
X169488D01*
X169104Y305405D01*
X168779Y305188D01*
X168561Y304862D01*
X168485Y304478D01*
Y304401D01*
X167736D01*
Y304478D01*
X167659Y304862D01*
X167442Y305188D01*
X167116Y305405D01*
X166732Y305482D01*
X163583D01*
X163199Y305405D01*
X162960Y305245D01*
X162641Y305237D01*
X162347Y305300D01*
X162225Y305483D01*
X161764Y305791D01*
X161221Y305899D01*
D02*
G37*
G36*
X128362Y302886D02*
X124870D01*
Y301244D01*
X128362D01*
Y302886D01*
D02*
G37*
G36*
X123870D02*
X120378D01*
Y301244D01*
X123870D01*
Y302886D01*
D02*
G37*
G36*
X150094Y300528D02*
X146602D01*
Y298886D01*
X150094D01*
Y300528D01*
D02*
G37*
G36*
X128362D02*
X124870D01*
Y298886D01*
X128362D01*
Y300528D01*
D02*
G37*
G36*
X145602D02*
X142110D01*
Y298886D01*
X145602D01*
Y300528D01*
D02*
G37*
G36*
X170563Y299699D02*
X169488D01*
X168944Y299591D01*
X168483Y299283D01*
X168175Y298822D01*
X168156Y298726D01*
X167765Y298676D01*
X167640Y298692D01*
X167442Y298988D01*
X167116Y299205D01*
X166732Y299282D01*
X163583D01*
X163199Y299205D01*
X162873Y298988D01*
X162657Y298664D01*
X162646Y298662D01*
X162157D01*
X162146Y298664D01*
X161930Y298988D01*
X161604Y299205D01*
X161221Y299282D01*
X158071D01*
X157687Y299205D01*
X157361Y298988D01*
X157145Y298664D01*
X157134Y298662D01*
X156646D01*
X156634Y298664D01*
X156418Y298988D01*
X156093Y299205D01*
X155709Y299282D01*
X152559D01*
X152175Y299205D01*
X151849Y298988D01*
X151632Y298662D01*
X151556Y298278D01*
Y295916D01*
X151632Y295532D01*
X151849Y295206D01*
X152175Y294989D01*
X152295Y294965D01*
Y294455D01*
X152175Y294431D01*
X151849Y294214D01*
X151632Y293888D01*
X151556Y293504D01*
Y293033D01*
X149867D01*
X149685Y293215D01*
Y295118D01*
X142520D01*
Y291653D01*
X148124D01*
X148629Y291149D01*
X148810Y291028D01*
X148658Y290528D01*
X146602D01*
Y288886D01*
X150094D01*
Y290325D01*
X150094Y290528D01*
X150471Y290825D01*
X151556D01*
Y290354D01*
X151632Y289970D01*
X151849Y289645D01*
X152175Y289427D01*
X152559Y289351D01*
X154921D01*
X155129Y289392D01*
X155311Y288918D01*
X154896Y288504D01*
X154626Y287852D01*
Y287148D01*
X154896Y286496D01*
X154980Y286413D01*
X154315Y285748D01*
X152165D01*
X151781Y285671D01*
X151456Y285454D01*
X151238Y285128D01*
X151162Y284744D01*
Y281594D01*
X151238Y281210D01*
X151456Y280885D01*
X151664Y280746D01*
X151781Y280667D01*
X152067Y280303D01*
X152067Y277008D01*
X155020D01*
Y278031D01*
X155905D01*
X156328Y278115D01*
X156686Y278354D01*
X157376Y279044D01*
X157685Y278943D01*
X157855Y278816D01*
Y277083D01*
X153156Y272385D01*
X153036Y272205D01*
X152067D01*
Y270353D01*
X151909Y270223D01*
X151567Y270041D01*
X151279Y270098D01*
X148917D01*
X148533Y270022D01*
X148208Y269804D01*
X147990Y269479D01*
X147914Y269094D01*
Y265945D01*
X147990Y265561D01*
X148208Y265235D01*
X148533Y265018D01*
X148917Y264941D01*
X148995D01*
Y262598D01*
X145472D01*
Y260715D01*
X143610Y258852D01*
X143110Y258858D01*
X143110Y258858D01*
X143110Y258858D01*
X140769D01*
Y262829D01*
X142881Y264941D01*
X145080D01*
X145464Y265018D01*
X145789Y265235D01*
X146007Y265561D01*
X146083Y265945D01*
Y269094D01*
X146007Y269479D01*
X145789Y269804D01*
X145464Y270022D01*
X145080Y270098D01*
X142717D01*
X142333Y270022D01*
X142008Y269804D01*
X141790Y269479D01*
X141714Y269094D01*
Y266872D01*
X141641Y266824D01*
X138885Y264067D01*
X138646Y263709D01*
X138561Y263287D01*
Y258858D01*
X136221D01*
Y258190D01*
X135398D01*
X133760Y259829D01*
Y261772D01*
X130807D01*
Y258268D01*
X132199D01*
X134160Y256306D01*
X134519Y256067D01*
X134941Y255983D01*
X136221D01*
Y255315D01*
X142991D01*
Y245768D01*
X143075Y245345D01*
X143314Y244987D01*
X149093Y239208D01*
Y236046D01*
X147293D01*
X146852Y235958D01*
X146477Y235708D01*
X146227Y235333D01*
X146139Y234892D01*
Y231644D01*
X146227Y231202D01*
X146477Y230828D01*
X146852Y230577D01*
X147293Y230490D01*
X153100D01*
X153542Y230577D01*
X153916Y230828D01*
X154167Y231202D01*
X154254Y231644D01*
Y234892D01*
X154167Y235333D01*
X153916Y235708D01*
X153542Y235958D01*
X153100Y236046D01*
X151301D01*
Y239665D01*
X151217Y240088D01*
X150977Y240446D01*
X145198Y246225D01*
Y251188D01*
X145473Y251575D01*
X152362D01*
Y252014D01*
X152862Y252063D01*
X152920Y251773D01*
X153170Y251398D01*
X153545Y251148D01*
X153986Y251061D01*
X157234D01*
X157676Y251148D01*
X158050Y251398D01*
X158300Y251773D01*
X158388Y252215D01*
Y257588D01*
X161507Y260707D01*
X171616D01*
X172039Y260791D01*
X172397Y261031D01*
X176371Y265005D01*
X176610Y265363D01*
X176694Y265785D01*
Y273419D01*
X177362D01*
Y280309D01*
X173819D01*
Y273419D01*
X174487D01*
Y266243D01*
X174084Y265840D01*
X173622Y266031D01*
Y271057D01*
X170519D01*
X170079Y271301D01*
X170079Y271557D01*
Y272006D01*
X169809Y272657D01*
X169547Y272919D01*
X169754Y273419D01*
X169882D01*
Y280173D01*
X169923D01*
Y282669D01*
X167821D01*
Y281594D01*
X167929Y281051D01*
X168091Y280809D01*
X167826Y280309D01*
X166339D01*
Y273419D01*
X166667D01*
X166886Y272919D01*
X166669Y272684D01*
X163011D01*
Y272687D01*
X162935Y273071D01*
X162717Y273397D01*
X162392Y273615D01*
X162008Y273691D01*
X158858D01*
X158474Y273615D01*
X158149Y273397D01*
X157931Y273071D01*
X157855Y272687D01*
Y270325D01*
X157931Y269941D01*
X158149Y269616D01*
X158474Y269398D01*
X158858Y269322D01*
X162008D01*
X162392Y269398D01*
X162717Y269616D01*
X162935Y269941D01*
X163011Y270325D01*
Y270476D01*
X166979D01*
X167304Y270152D01*
X167955Y269882D01*
X168659D01*
X169311Y270152D01*
X169579Y270420D01*
X170079Y270213D01*
Y267836D01*
X157721D01*
X155020Y270537D01*
Y270740D01*
X155041Y270847D01*
Y271147D01*
X159416Y275522D01*
X162008D01*
X162392Y275598D01*
X162717Y275816D01*
X162935Y276141D01*
X163011Y276525D01*
Y278887D01*
X162935Y279271D01*
X162717Y279597D01*
X162392Y279815D01*
X162008Y279891D01*
X159203D01*
X158961Y280391D01*
X159120Y280591D01*
X160728D01*
X161112Y280667D01*
X161437Y280885D01*
X161616Y281153D01*
X161885Y281184D01*
X162153Y281153D01*
X162332Y280885D01*
X162658Y280667D01*
X163042Y280591D01*
X165404D01*
X165788Y280667D01*
X166113Y280885D01*
X166331Y281210D01*
X166408Y281594D01*
Y284744D01*
X166331Y285128D01*
X166113Y285454D01*
X165788Y285671D01*
X165404Y285748D01*
X163042D01*
X162658Y285671D01*
X162332Y285454D01*
X162153Y285186D01*
X161885Y285155D01*
X161616Y285186D01*
X161437Y285454D01*
X161177Y285628D01*
X161142Y285906D01*
X161176Y286168D01*
X161240Y286195D01*
X161738Y286693D01*
X162008Y287345D01*
Y288049D01*
X161738Y288700D01*
X161519Y288920D01*
X161515Y289062D01*
X161633Y289513D01*
X161831Y289645D01*
X162048Y289970D01*
X162125Y290354D01*
Y293504D01*
X162048Y293888D01*
X161831Y294214D01*
X161505Y294431D01*
X161435Y294445D01*
Y294955D01*
X161604Y294989D01*
X161930Y295206D01*
X162146Y295530D01*
X162157Y295532D01*
X162646D01*
X162657Y295530D01*
X162873Y295206D01*
X163199Y294989D01*
X163583Y294912D01*
X166732D01*
X167116Y294989D01*
X167442Y295206D01*
X167640Y295502D01*
X167765Y295518D01*
X168156Y295467D01*
X168175Y295372D01*
X168483Y294911D01*
X168944Y294603D01*
X169488Y294495D01*
X170563D01*
Y297097D01*
Y299699D01*
D02*
G37*
G36*
X172638D02*
X171563D01*
Y297597D01*
X174059D01*
Y298278D01*
X173951Y298822D01*
X173643Y299283D01*
X173182Y299591D01*
X172638Y299699D01*
D02*
G37*
G36*
X66665Y301016D02*
X65024D01*
Y297524D01*
X66665D01*
Y301016D01*
D02*
G37*
G36*
X64307D02*
X62665D01*
Y297524D01*
X64307D01*
Y301016D01*
D02*
G37*
G36*
X61665D02*
X60024D01*
Y297524D01*
X61665D01*
Y301016D01*
D02*
G37*
G36*
X150094Y297886D02*
X146602D01*
Y296244D01*
X150094D01*
Y297886D01*
D02*
G37*
G36*
X145602D02*
X142110D01*
Y296244D01*
X145602D01*
Y297886D01*
D02*
G37*
G36*
X128362D02*
X124870D01*
Y296244D01*
X128362D01*
Y297886D01*
D02*
G37*
G36*
X113239Y298075D02*
X112557D01*
Y295579D01*
X114660D01*
Y296654D01*
X114551Y297197D01*
X114243Y297658D01*
X113782Y297966D01*
X113239Y298075D01*
D02*
G37*
G36*
X111557D02*
X110876D01*
X110333Y297966D01*
X109872Y297658D01*
X109564Y297197D01*
X109455Y296654D01*
Y295579D01*
X111557D01*
Y298075D01*
D02*
G37*
G36*
X174059Y296597D02*
X171563D01*
Y294495D01*
X172638D01*
X173182Y294603D01*
X173643Y294911D01*
X173951Y295372D01*
X174059Y295916D01*
Y296597D01*
D02*
G37*
G36*
X26272Y296400D02*
X23776D01*
Y295719D01*
X23884Y295175D01*
X24192Y294714D01*
X24653Y294406D01*
X25197Y294298D01*
X26272D01*
Y296400D01*
D02*
G37*
G36*
X53898Y305098D02*
X50433D01*
Y297933D01*
X50963D01*
Y297366D01*
X50467Y296870D01*
X50197Y296218D01*
Y295514D01*
X50467Y294863D01*
X50965Y294364D01*
X51616Y294094D01*
X52321D01*
X52972Y294364D01*
X53470Y294863D01*
X53740Y295514D01*
Y296218D01*
X53470Y296870D01*
X53171Y297169D01*
Y297933D01*
X53898D01*
Y305098D01*
D02*
G37*
G36*
X28346Y299502D02*
X27272D01*
Y296900D01*
Y294298D01*
X28346D01*
X28890Y294406D01*
X29351Y294714D01*
X29358Y294724D01*
X29841Y294698D01*
X29965Y294464D01*
X30008Y294215D01*
X29994Y294201D01*
X29724Y293550D01*
Y292845D01*
X29994Y292194D01*
X30492Y291696D01*
X31144Y291426D01*
X31848D01*
X32500Y291696D01*
X32998Y292194D01*
X33268Y292845D01*
Y293550D01*
X32998Y294201D01*
X32984Y294215D01*
X33027Y294464D01*
X33171Y294735D01*
X33455Y294792D01*
X33781Y295009D01*
X33998Y295335D01*
X34074Y295719D01*
Y298081D01*
X33998Y298465D01*
X33781Y298791D01*
X33455Y299008D01*
X33071Y299085D01*
X29921D01*
X29537Y299008D01*
X29383Y299039D01*
X29351Y299086D01*
X28890Y299394D01*
X28346Y299502D01*
D02*
G37*
G36*
X9188Y294158D02*
X9161D01*
Y290657D01*
X12661D01*
Y290684D01*
X12389Y291701D01*
X11862Y292614D01*
X11118Y293358D01*
X10205Y293885D01*
X9188Y294158D01*
D02*
G37*
G36*
X8161D02*
X8135D01*
X7118Y293885D01*
X6205Y293358D01*
X5461Y292614D01*
X4934Y291701D01*
X4661Y290684D01*
Y290657D01*
X8161D01*
Y294158D01*
D02*
G37*
G36*
X145602Y290528D02*
X142110D01*
Y288886D01*
X145602D01*
Y290528D01*
D02*
G37*
G36*
X119439Y291752D02*
X117076D01*
X116692Y291675D01*
X116367Y291458D01*
X116149Y291132D01*
X116073Y290748D01*
Y287598D01*
X116149Y287214D01*
X116367Y286889D01*
X116690Y286673D01*
X116692Y286662D01*
Y286173D01*
X116690Y286162D01*
X116367Y285946D01*
X116149Y285620D01*
X116073Y285236D01*
Y282087D01*
X116149Y281703D01*
X116367Y281377D01*
X116692Y281159D01*
X117076Y281083D01*
X119439D01*
X119823Y281159D01*
X120148Y281377D01*
X120305Y281611D01*
X120787Y281653D01*
X120787Y281653D01*
X120787Y281653D01*
X127953D01*
Y282282D01*
X130822D01*
X135499Y277605D01*
X135857Y277366D01*
X136279Y277282D01*
X142520D01*
Y276654D01*
X149685D01*
Y280118D01*
X142520D01*
Y279490D01*
X136737D01*
X132060Y284166D01*
X131702Y284406D01*
X131280Y284490D01*
X127953D01*
Y285118D01*
X120787D01*
X120408Y285409D01*
X120366Y285620D01*
X120148Y285946D01*
X119825Y286162D01*
X119823Y286173D01*
Y286662D01*
X119825Y286673D01*
X120148Y286889D01*
X120287Y287097D01*
X120787Y286967D01*
Y286653D01*
X127953D01*
Y290118D01*
X120787D01*
X120442Y290475D01*
Y290748D01*
X120366Y291132D01*
X120148Y291458D01*
X119823Y291675D01*
X119439Y291752D01*
D02*
G37*
G36*
X150094Y287886D02*
X146602D01*
Y286244D01*
X150094D01*
Y287886D01*
D02*
G37*
G36*
X145602D02*
X142110D01*
Y286244D01*
X145602D01*
Y287886D01*
D02*
G37*
G36*
X12661Y289657D02*
X9161D01*
Y286157D01*
X9188D01*
X10205Y286430D01*
X11118Y286957D01*
X11862Y287701D01*
X12389Y288614D01*
X12661Y289631D01*
Y289657D01*
D02*
G37*
G36*
X8161D02*
X4661D01*
Y289631D01*
X4934Y288614D01*
X5461Y287701D01*
X6205Y286957D01*
X7118Y286430D01*
X8135Y286157D01*
X8161D01*
Y289657D01*
D02*
G37*
G36*
X171604Y286165D02*
X170923D01*
Y283669D01*
X173025D01*
Y284744D01*
X172917Y285288D01*
X172609Y285749D01*
X172148Y286057D01*
X171604Y286165D01*
D02*
G37*
G36*
X169923D02*
X169242D01*
X168698Y286057D01*
X168237Y285749D01*
X167929Y285288D01*
X167821Y284744D01*
Y283669D01*
X169923D01*
Y286165D01*
D02*
G37*
G36*
X149685Y285118D02*
X142520D01*
Y281653D01*
X149685D01*
Y285118D01*
D02*
G37*
G36*
X54307Y283776D02*
X52665D01*
Y280283D01*
X54307D01*
Y283776D01*
D02*
G37*
G36*
X51665D02*
X50024D01*
Y280283D01*
X51665D01*
Y283776D01*
D02*
G37*
G36*
X173025Y282669D02*
X170923D01*
Y280173D01*
X171604D01*
X172148Y280282D01*
X172609Y280590D01*
X172917Y281051D01*
X173025Y281594D01*
Y282669D01*
D02*
G37*
G36*
X25780Y280801D02*
X24705D01*
X24161Y280693D01*
X23700Y280385D01*
X23392Y279924D01*
X23284Y279380D01*
Y278699D01*
X25780D01*
Y280801D01*
D02*
G37*
G36*
X84083Y279345D02*
Y276091D01*
X87337D01*
X87083Y277040D01*
X86588Y277897D01*
X85889Y278596D01*
X85032Y279090D01*
X84083Y279345D01*
D02*
G37*
G36*
X83083D02*
X82133Y279090D01*
X81277Y278596D01*
X80577Y277897D01*
X80083Y277040D01*
X79828Y276091D01*
X83083D01*
Y279345D01*
D02*
G37*
G36*
X149685Y275118D02*
X142520D01*
Y274962D01*
X139855D01*
X139526Y275098D01*
X138821D01*
X138170Y274829D01*
X137671Y274330D01*
X137402Y273679D01*
Y272974D01*
X137671Y272323D01*
X138170Y271825D01*
X138821Y271555D01*
X139526D01*
X139998Y271751D01*
X142520D01*
Y271654D01*
X149685D01*
Y275118D01*
D02*
G37*
G36*
X130372Y275590D02*
X129667D01*
X129016Y275321D01*
X128518Y274822D01*
X128470Y274706D01*
X127953D01*
Y275118D01*
X120787D01*
Y271654D01*
X125176D01*
Y270098D01*
X124705D01*
X124321Y270022D01*
X124303Y270010D01*
X123643Y270099D01*
X123182Y270407D01*
X122638Y270515D01*
X121563D01*
Y267913D01*
Y265311D01*
X122638D01*
X123182Y265420D01*
X123643Y265727D01*
X124303Y265817D01*
X124321Y265805D01*
X124705Y265729D01*
X127854D01*
X128238Y265805D01*
X128564Y266023D01*
X128781Y266348D01*
X128858Y266732D01*
Y269094D01*
X128781Y269479D01*
X128564Y269804D01*
X128238Y270022D01*
X127854Y270098D01*
X127383D01*
Y271654D01*
X127953D01*
Y272498D01*
X128835D01*
X129016Y272317D01*
X129667Y272047D01*
X130372D01*
X131023Y272317D01*
X131522Y272815D01*
X131791Y273466D01*
Y274171D01*
X131522Y274822D01*
X131023Y275321D01*
X130372Y275590D01*
D02*
G37*
G36*
X96929Y278937D02*
X90236D01*
Y272244D01*
X96929D01*
Y278937D01*
D02*
G37*
G36*
X87337Y275091D02*
X84083D01*
Y271836D01*
X85032Y272091D01*
X85889Y272585D01*
X86588Y273284D01*
X87083Y274141D01*
X87337Y275091D01*
D02*
G37*
G36*
X83083D02*
X79828D01*
X80083Y274141D01*
X80577Y273284D01*
X81277Y272585D01*
X82133Y272091D01*
X83083Y271836D01*
Y275091D01*
D02*
G37*
G36*
X48898Y305098D02*
X45433D01*
Y297933D01*
X46062D01*
Y290144D01*
X41385Y285468D01*
X41146Y285109D01*
X41061Y284687D01*
Y283366D01*
X40433D01*
Y276201D01*
X40438D01*
X40496Y276119D01*
X40482Y275513D01*
X40264Y275187D01*
X40188Y274803D01*
Y271952D01*
X39688Y271745D01*
X38791Y272642D01*
Y276201D01*
X38898D01*
Y283366D01*
X35433D01*
Y276201D01*
X35579D01*
Y271977D01*
X35579Y271977D01*
X35702Y271362D01*
X35945Y270998D01*
X35556Y270680D01*
X33926Y272310D01*
Y274902D01*
X33850Y275286D01*
X33632Y275611D01*
X33400Y275766D01*
X33344Y276143D01*
X33365Y276327D01*
X33485Y276407D01*
X33703Y276732D01*
X33779Y277116D01*
Y279479D01*
X33703Y279863D01*
X33485Y280188D01*
X33160Y280406D01*
X32776Y280482D01*
X29626D01*
X29242Y280406D01*
X29130Y280331D01*
X28859Y280385D01*
X28398Y280693D01*
X27854Y280801D01*
X26779D01*
Y278199D01*
X26280D01*
Y277699D01*
X23284D01*
Y277018D01*
X23392Y276474D01*
X23643Y276098D01*
X23356Y275906D01*
X23048Y275445D01*
X22940Y274902D01*
Y273827D01*
X25542D01*
X28144D01*
Y274902D01*
X28036Y275445D01*
X28443Y275735D01*
X28859Y276013D01*
X28936Y276129D01*
X29242Y276189D01*
X29626Y276113D01*
X29702D01*
X29854Y275613D01*
X29851Y275611D01*
X29634Y275286D01*
X29557Y274902D01*
Y271752D01*
X29634Y271368D01*
X29851Y271042D01*
X30177Y270825D01*
X30561Y270748D01*
X32365D01*
X35510Y267603D01*
Y260033D01*
X34748Y259933D01*
X33742Y259516D01*
X32879Y258854D01*
X32216Y257990D01*
X31799Y256985D01*
X31657Y255906D01*
X31799Y254826D01*
X32216Y253821D01*
X32879Y252957D01*
X33742Y252295D01*
X34748Y251878D01*
X35827Y251736D01*
X37402D01*
X38481Y251878D01*
X39486Y252295D01*
X40350Y252957D01*
X41012Y253821D01*
X41429Y254826D01*
X41571Y255906D01*
X41429Y256985D01*
X41012Y257990D01*
X40350Y258854D01*
X39486Y259516D01*
X38481Y259933D01*
X37718Y260033D01*
Y268061D01*
X37702Y268140D01*
X38163Y268387D01*
X38366Y268183D01*
X39018Y267913D01*
X39722D01*
X40374Y268183D01*
X40872Y268682D01*
X41142Y269333D01*
Y270037D01*
X41091Y270160D01*
X41107Y270239D01*
X41429Y270650D01*
X43554D01*
X43938Y270726D01*
X44263Y270944D01*
X44481Y271269D01*
X44557Y271654D01*
Y274803D01*
X44481Y275187D01*
X44263Y275513D01*
X43949Y275722D01*
X43898Y276201D01*
X43898Y276201D01*
X43898Y276201D01*
Y283366D01*
X43269D01*
Y284230D01*
X47946Y288907D01*
X48185Y289265D01*
X48269Y289687D01*
Y297933D01*
X48898D01*
Y305098D01*
D02*
G37*
G36*
X28144Y272827D02*
X26042D01*
Y270331D01*
X26723D01*
X27267Y270439D01*
X27728Y270747D01*
X28036Y271208D01*
X28144Y271752D01*
Y272827D01*
D02*
G37*
G36*
X25042D02*
X22940D01*
Y271752D01*
X23048Y271208D01*
X23356Y270747D01*
X23817Y270439D01*
X24361Y270331D01*
X25042D01*
Y272827D01*
D02*
G37*
G36*
X115970Y273078D02*
X114083D01*
Y270283D01*
X117566D01*
Y271481D01*
X117445Y272092D01*
X117098Y272610D01*
X116580Y272956D01*
X115970Y273078D01*
D02*
G37*
G36*
X113083D02*
X111196D01*
X110585Y272956D01*
X110067Y272610D01*
X109721Y272092D01*
X109599Y271481D01*
Y270283D01*
X113083D01*
Y273078D01*
D02*
G37*
G36*
X120563Y270515D02*
X119488D01*
X118944Y270407D01*
X118483Y270099D01*
X118175Y269638D01*
X118067Y269094D01*
Y268413D01*
X120563D01*
Y270515D01*
D02*
G37*
G36*
X64909Y271646D02*
X62114D01*
Y268162D01*
X63312D01*
X63923Y268284D01*
X64441Y268630D01*
X64787Y269148D01*
X64909Y269759D01*
Y271646D01*
D02*
G37*
G36*
X61114D02*
X58320D01*
Y269759D01*
X58441Y269148D01*
X58787Y268630D01*
X59305Y268284D01*
X59916Y268162D01*
X61114D01*
Y271646D01*
D02*
G37*
G36*
X117566Y269283D02*
X114083D01*
Y266489D01*
X115970D01*
X116580Y266611D01*
X117098Y266957D01*
X117445Y267475D01*
X117566Y268086D01*
Y269283D01*
D02*
G37*
G36*
X113083D02*
X109599D01*
Y268086D01*
X109721Y267475D01*
X110067Y266957D01*
X110585Y266611D01*
X111196Y266489D01*
X113083D01*
Y269283D01*
D02*
G37*
G36*
X120563Y267413D02*
X118067D01*
Y266732D01*
X118175Y266189D01*
X118483Y265727D01*
X118944Y265420D01*
X119488Y265311D01*
X120563D01*
Y267413D01*
D02*
G37*
G36*
X133760Y270079D02*
X130807D01*
Y268040D01*
X130786Y267933D01*
Y267387D01*
X127297Y263898D01*
X124705D01*
X124321Y263822D01*
X123995Y263604D01*
X123972Y263569D01*
X123371D01*
X123347Y263604D01*
X123022Y263822D01*
X122638Y263898D01*
X119488D01*
X119104Y263822D01*
X118779Y263604D01*
X118561Y263279D01*
X118485Y262895D01*
Y260532D01*
X118561Y260148D01*
X118779Y259823D01*
X119104Y259605D01*
X119488Y259529D01*
X122638D01*
X123022Y259605D01*
X123347Y259823D01*
X123371Y259857D01*
X123972D01*
X123995Y259823D01*
X124321Y259605D01*
X124705Y259529D01*
X127854D01*
X128238Y259605D01*
X128564Y259823D01*
X128781Y260148D01*
X128858Y260532D01*
Y262337D01*
X132670Y266149D01*
X132910Y266508D01*
X132923Y266575D01*
X133760D01*
Y270079D01*
D02*
G37*
G36*
X69936Y258158D02*
X69870D01*
Y254358D01*
X73670D01*
Y254424D01*
X73377Y255518D01*
X72811Y256499D01*
X72010Y257299D01*
X71030Y257865D01*
X69936Y258158D01*
D02*
G37*
G36*
X68870D02*
X68804D01*
X67710Y257865D01*
X66730Y257299D01*
X65929Y256499D01*
X65363Y255518D01*
X65070Y254424D01*
Y254358D01*
X68870D01*
Y258158D01*
D02*
G37*
G36*
X169045Y259176D02*
X165797D01*
X165356Y259088D01*
X164981Y258838D01*
X164731Y258463D01*
X164643Y258022D01*
Y252215D01*
X164731Y251773D01*
X164981Y251398D01*
X165356Y251148D01*
X165797Y251061D01*
X169045D01*
X169487Y251148D01*
X169861Y251398D01*
X170112Y251773D01*
X170199Y252215D01*
Y253557D01*
X170699Y253764D01*
X170847Y253616D01*
X171498Y253346D01*
X172203D01*
X172854Y253616D01*
X173352Y254115D01*
X173622Y254766D01*
Y255470D01*
X173352Y256122D01*
X172854Y256620D01*
X172203Y256890D01*
X171498D01*
X170847Y256620D01*
X170699Y256473D01*
X170199Y256680D01*
Y258022D01*
X170112Y258463D01*
X169861Y258838D01*
X169487Y259088D01*
X169045Y259176D01*
D02*
G37*
G36*
X43413Y240156D02*
Y232785D01*
X48489D01*
Y234647D01*
X48299Y236090D01*
X47742Y237435D01*
X46856Y238589D01*
X45701Y239475D01*
X44356Y240032D01*
X43413Y240156D01*
D02*
G37*
G36*
X171367D02*
Y232785D01*
X176443D01*
Y234647D01*
X176253Y236090D01*
X175696Y237435D01*
X174810Y238589D01*
X173655Y239475D01*
X172310Y240032D01*
X171367Y240156D01*
D02*
G37*
G36*
X42413D02*
X41470Y240032D01*
X40126Y239475D01*
X38971Y238589D01*
X38085Y237435D01*
X37528Y236090D01*
X37338Y234647D01*
Y232785D01*
X42413D01*
Y240156D01*
D02*
G37*
G36*
X170367D02*
X169424Y240032D01*
X168080Y239475D01*
X166925Y238589D01*
X166039Y237435D01*
X165482Y236090D01*
X165292Y234647D01*
Y232785D01*
X170367D01*
Y240156D01*
D02*
G37*
G36*
X130422D02*
Y232785D01*
X135498D01*
Y234647D01*
X135308Y236090D01*
X134751Y237435D01*
X133865Y238589D01*
X132710Y239475D01*
X131366Y240032D01*
X130422Y240156D01*
D02*
G37*
G36*
X129422D02*
X128480Y240032D01*
X127135Y239475D01*
X125980Y238589D01*
X125094Y237435D01*
X124537Y236090D01*
X124347Y234647D01*
Y232785D01*
X129422D01*
Y240156D01*
D02*
G37*
G36*
X11130D02*
Y232785D01*
X16205D01*
Y234647D01*
X16015Y236090D01*
X15458Y237435D01*
X14572Y238589D01*
X13418Y239475D01*
X12073Y240032D01*
X11130Y240156D01*
D02*
G37*
G36*
X10130D02*
X9187Y240032D01*
X7842Y239475D01*
X6688Y238589D01*
X5802Y237435D01*
X5245Y236090D01*
X5055Y234647D01*
Y232785D01*
X10130D01*
Y240156D01*
D02*
G37*
G36*
X84646Y242739D02*
X83978Y242651D01*
X83355Y242393D01*
X82820Y241983D01*
X82410Y241448D01*
X82152Y240826D01*
X82064Y240158D01*
X82152Y239489D01*
X82410Y238867D01*
X82820Y238332D01*
X90695Y230458D01*
X91229Y230048D01*
X91852Y229790D01*
X92520Y229702D01*
X98425D01*
X99093Y229790D01*
X99716Y230048D01*
X100250Y230458D01*
X100661Y230993D01*
X100918Y231615D01*
X101006Y232283D01*
X100918Y232951D01*
X100661Y233574D01*
X100250Y234109D01*
X99716Y234519D01*
X99093Y234777D01*
X98425Y234865D01*
X93589D01*
X86471Y241983D01*
X85936Y242393D01*
X85314Y242651D01*
X84646Y242739D01*
D02*
G37*
G36*
X176443Y231785D02*
X171367D01*
Y224413D01*
X172310Y224537D01*
X173655Y225094D01*
X174810Y225980D01*
X175696Y227135D01*
X176253Y228479D01*
X176443Y229922D01*
Y231785D01*
D02*
G37*
G36*
X48489D02*
X43413D01*
Y224413D01*
X44356Y224537D01*
X45701Y225094D01*
X46856Y225980D01*
X47742Y227135D01*
X48299Y228479D01*
X48489Y229922D01*
Y231785D01*
D02*
G37*
G36*
X135498Y231785D02*
X130422D01*
Y224413D01*
X131366Y224537D01*
X132710Y225094D01*
X133865Y225980D01*
X134751Y227135D01*
X135308Y228479D01*
X135498Y229922D01*
Y231785D01*
D02*
G37*
G36*
X129422D02*
X124347D01*
Y229922D01*
X124537Y228479D01*
X125094Y227135D01*
X125980Y225980D01*
X127135Y225094D01*
X128480Y224537D01*
X129422Y224413D01*
Y231785D01*
D02*
G37*
G36*
X16205D02*
X11130D01*
Y224413D01*
X12073Y224537D01*
X13418Y225094D01*
X14572Y225980D01*
X15458Y227135D01*
X16015Y228479D01*
X16205Y229922D01*
Y231785D01*
D02*
G37*
G36*
X10130D02*
X5055D01*
Y229922D01*
X5245Y228479D01*
X5802Y227135D01*
X6688Y225980D01*
X7842Y225094D01*
X9187Y224537D01*
X10130Y224413D01*
Y231785D01*
D02*
G37*
G36*
X170367Y231785D02*
X165292D01*
Y229922D01*
X165482Y228479D01*
X166039Y227135D01*
X166925Y225980D01*
X168080Y225094D01*
X169424Y224537D01*
X170367Y224413D01*
Y231785D01*
D02*
G37*
G36*
X42413D02*
X37338D01*
Y229922D01*
X37528Y228479D01*
X38085Y227135D01*
X38971Y225980D01*
X40126Y225094D01*
X41470Y224537D01*
X42413Y224413D01*
Y231785D01*
D02*
G37*
G36*
X160238Y207714D02*
X159158Y207572D01*
X158153Y207155D01*
X157289Y206493D01*
X156627Y205629D01*
X156210Y204624D01*
X156068Y203544D01*
Y201970D01*
X156210Y200890D01*
X156627Y199885D01*
X157289Y199021D01*
X158153Y198359D01*
X159158Y197942D01*
X160238Y197800D01*
X161317Y197942D01*
X162322Y198359D01*
X163186Y199021D01*
X163848Y199885D01*
X164265Y200890D01*
X164407Y201970D01*
Y203544D01*
X164265Y204624D01*
X163848Y205629D01*
X163186Y206493D01*
X162322Y207155D01*
X161317Y207572D01*
X160238Y207714D01*
D02*
G37*
G36*
X153100Y224235D02*
X147293D01*
X146852Y224147D01*
X146477Y223897D01*
X146227Y223522D01*
X146139Y223081D01*
Y219833D01*
X146227Y219391D01*
X146477Y219017D01*
X146852Y218766D01*
X147293Y218679D01*
X149291D01*
Y207562D01*
X148310Y207155D01*
X147447Y206493D01*
X146784Y205629D01*
X146368Y204624D01*
X146226Y203544D01*
Y201970D01*
X146368Y200890D01*
X146784Y199885D01*
X147447Y199021D01*
X148310Y198359D01*
X149316Y197942D01*
X150395Y197800D01*
X151474Y197942D01*
X152480Y198359D01*
X153343Y199021D01*
X154006Y199885D01*
X154422Y200890D01*
X154564Y201970D01*
Y203544D01*
X154422Y204624D01*
X154006Y205629D01*
X153343Y206493D01*
X152480Y207155D01*
X151499Y207562D01*
Y218679D01*
X153100D01*
X153542Y218766D01*
X153916Y219017D01*
X154167Y219391D01*
X154254Y219833D01*
Y223081D01*
X154167Y223522D01*
X153916Y223897D01*
X153542Y224147D01*
X153100Y224235D01*
D02*
G37*
G36*
X57499Y199452D02*
X56818D01*
Y196957D01*
X58920D01*
Y198031D01*
X58812Y198575D01*
X58504Y199036D01*
X58043Y199344D01*
X57499Y199452D01*
D02*
G37*
G36*
X55818D02*
X55137D01*
X54593Y199344D01*
X54132Y199036D01*
X53824Y198575D01*
X53716Y198031D01*
Y196957D01*
X55818D01*
Y199452D01*
D02*
G37*
G36*
X58920Y195957D02*
X56818D01*
Y193461D01*
X57499D01*
X58043Y193569D01*
X58504Y193877D01*
X58812Y194338D01*
X58920Y194882D01*
Y195957D01*
D02*
G37*
G36*
X55818D02*
X53716D01*
Y194882D01*
X53824Y194338D01*
X54132Y193877D01*
X54593Y193569D01*
X55137Y193461D01*
X55818D01*
Y195957D01*
D02*
G37*
G36*
X82382Y217749D02*
X81358D01*
X80368Y217484D01*
X79481Y216971D01*
X78757Y216247D01*
X78245Y215360D01*
X77979Y214370D01*
Y213346D01*
X78245Y212357D01*
X78757Y211469D01*
X79481Y210745D01*
X80368Y210233D01*
X80766Y210126D01*
Y192415D01*
X80643Y192292D01*
X78051D01*
X77667Y192216D01*
X77342Y191999D01*
X77284Y191912D01*
X76850Y191752D01*
X76683Y191752D01*
X76183Y191879D01*
Y192781D01*
X77280Y193878D01*
X79084D01*
X79468Y193955D01*
X79794Y194172D01*
X80011Y194498D01*
X80088Y194882D01*
Y198031D01*
X80011Y198416D01*
X79794Y198741D01*
X79468Y198959D01*
X79084Y199035D01*
X76722D01*
X76338Y198959D01*
X76012Y198741D01*
X75795Y198416D01*
X75718Y198031D01*
Y195440D01*
X74298Y194019D01*
X74059Y193661D01*
X73975Y193239D01*
Y191752D01*
X69685D01*
Y188209D01*
X72164D01*
Y186752D01*
X69685D01*
Y183209D01*
X76630D01*
Y182727D01*
X76725Y182252D01*
X76657Y182071D01*
X76425Y181752D01*
X69685D01*
Y178209D01*
X76850D01*
X77223Y177913D01*
X77440Y177587D01*
X77766Y177370D01*
X78150Y177293D01*
X81299D01*
X81683Y177370D01*
X82009Y177587D01*
X82201Y177874D01*
X82263Y177920D01*
X82758Y178024D01*
X83052Y177730D01*
X83703Y177461D01*
X84408D01*
X85059Y177730D01*
X85557Y178229D01*
X85827Y178880D01*
Y179585D01*
X85557Y180236D01*
X85059Y180734D01*
X84408Y181004D01*
X83703D01*
X83052Y180734D01*
X82803Y180485D01*
X82303Y180523D01*
Y180659D01*
X82226Y181043D01*
X82184Y181106D01*
X82206Y181722D01*
X82514Y182183D01*
X82622Y182727D01*
Y183408D01*
X79626D01*
Y183908D01*
X79126D01*
Y186510D01*
X78051D01*
X77507Y186402D01*
X77350Y186297D01*
X76850Y186564D01*
Y186752D01*
X74372D01*
Y188209D01*
X76746D01*
X76850Y188209D01*
X77342Y188217D01*
X77667Y188000D01*
X78051Y187923D01*
X81201D01*
X81585Y188000D01*
X81910Y188217D01*
X82128Y188543D01*
X82204Y188927D01*
Y190731D01*
X82651Y191178D01*
X82890Y191536D01*
X82974Y191958D01*
Y210126D01*
X83372Y210233D01*
X84259Y210745D01*
X84983Y211469D01*
X85496Y212357D01*
X85761Y213346D01*
Y214370D01*
X85496Y215360D01*
X84983Y216247D01*
X84259Y216971D01*
X83372Y217484D01*
X82382Y217749D01*
D02*
G37*
G36*
X51299Y199035D02*
X48937D01*
X48553Y198959D01*
X48227Y198741D01*
X48010Y198416D01*
X47934Y198031D01*
Y194882D01*
X48010Y194498D01*
X48227Y194172D01*
X48553Y193955D01*
X48937Y193878D01*
X49014D01*
Y191752D01*
X47953D01*
Y188209D01*
X55118D01*
Y188867D01*
X56167D01*
X56575Y188459D01*
X57226Y188189D01*
X57931D01*
X58582Y188459D01*
X59081Y188957D01*
X59350Y189608D01*
Y190313D01*
X59081Y190964D01*
X58582Y191463D01*
X57931Y191732D01*
X57226D01*
X56575Y191463D01*
X56187Y191074D01*
X55118D01*
Y191752D01*
X51222D01*
Y193878D01*
X51299D01*
X51683Y193955D01*
X52009Y194172D01*
X52226Y194498D01*
X52303Y194882D01*
Y198031D01*
X52226Y198416D01*
X52009Y198741D01*
X51683Y198959D01*
X51299Y199035D01*
D02*
G37*
G36*
X81201Y186510D02*
X80126D01*
Y184408D01*
X82622D01*
Y185089D01*
X82514Y185633D01*
X82206Y186094D01*
X81745Y186402D01*
X81201Y186510D01*
D02*
G37*
G36*
X173638Y186689D02*
X167232D01*
Y182252D01*
X173638D01*
Y186689D01*
D02*
G37*
G36*
X166232D02*
X159827D01*
Y182252D01*
X166232D01*
Y186689D01*
D02*
G37*
G36*
X145669Y186732D02*
X142232D01*
Y182252D01*
X150583D01*
X150479Y183041D01*
X149982Y184242D01*
X149190Y185273D01*
X148159Y186064D01*
X146958Y186562D01*
X145669Y186732D01*
D02*
G37*
G36*
X44087Y180897D02*
X41591D01*
Y180216D01*
X41699Y179672D01*
X42007Y179211D01*
X42468Y178903D01*
X43012Y178795D01*
X44087D01*
Y180897D01*
D02*
G37*
G36*
X120669Y186319D02*
X112795D01*
X111613Y186163D01*
X110512Y185707D01*
X109566Y184981D01*
X108841Y184035D01*
X108384Y182934D01*
X108229Y181752D01*
X108384Y180570D01*
X108841Y179469D01*
X109566Y178523D01*
X110512Y177797D01*
X111613Y177341D01*
X112795Y177185D01*
X120669D01*
X121851Y177341D01*
X122953Y177797D01*
X123898Y178523D01*
X124624Y179469D01*
X125080Y180570D01*
X125236Y181752D01*
X125080Y182934D01*
X124624Y184035D01*
X123898Y184981D01*
X122953Y185707D01*
X121851Y186163D01*
X120669Y186319D01*
D02*
G37*
G36*
X173638Y181252D02*
X167232D01*
Y176815D01*
X173638D01*
Y181252D01*
D02*
G37*
G36*
X166232D02*
X159827D01*
Y176815D01*
X166232D01*
Y181252D01*
D02*
G37*
G36*
X150583D02*
X142232D01*
Y176772D01*
X145669D01*
X146958Y176942D01*
X148159Y177439D01*
X149190Y178231D01*
X149982Y179262D01*
X150479Y180463D01*
X150583Y181252D01*
D02*
G37*
G36*
X144686Y207678D02*
X136419D01*
Y199397D01*
X130656Y193635D01*
X130417Y193277D01*
X130333Y192854D01*
Y155138D01*
X127854D01*
Y153156D01*
X119169Y144470D01*
X113287D01*
Y145138D01*
X106122D01*
Y141595D01*
X108601D01*
Y140138D01*
X106122D01*
Y136594D01*
X113287D01*
Y140138D01*
X110809D01*
Y141595D01*
X113287D01*
Y142262D01*
X119626D01*
X120048Y142346D01*
X120406Y142586D01*
X127392Y149572D01*
X127854Y149380D01*
Y146595D01*
X134632Y146595D01*
X134645D01*
X134645D01*
X134775Y146595D01*
X135051Y146107D01*
X135048Y146103D01*
X134971Y145719D01*
Y145138D01*
X127854D01*
Y144470D01*
X126503D01*
X126080Y144386D01*
X125722Y144147D01*
X124819Y143244D01*
X124580Y142885D01*
X124496Y142463D01*
Y140092D01*
X124187Y139783D01*
X123917Y139132D01*
Y138427D01*
X124187Y137776D01*
X124685Y137278D01*
X125337Y137008D01*
X126041D01*
X126692Y137278D01*
X127191Y137776D01*
X127354Y138171D01*
X127854Y138071D01*
Y136594D01*
X135020D01*
Y136594D01*
X135331Y136733D01*
X135691Y136590D01*
X135813Y136055D01*
X135801Y136043D01*
X135531Y135392D01*
Y134687D01*
X135801Y134036D01*
X136300Y133537D01*
X136951Y133268D01*
X137655D01*
X138307Y133537D01*
X138805Y134036D01*
X139075Y134687D01*
Y135392D01*
X138805Y136043D01*
X138610Y136238D01*
X138713Y136733D01*
X138760Y136795D01*
X139047Y136987D01*
X139264Y137313D01*
X139340Y137697D01*
Y140847D01*
X139264Y141230D01*
X139047Y141556D01*
X138721Y141774D01*
X138337Y141850D01*
X135975D01*
X135847Y141825D01*
X135443Y142102D01*
X135847Y142378D01*
X135975Y142353D01*
X139124D01*
X139508Y142430D01*
X139661Y142532D01*
X140212Y142499D01*
X140310Y142460D01*
X140383Y142352D01*
X140844Y142044D01*
X140945Y141514D01*
X140862Y141390D01*
X140754Y140847D01*
Y139772D01*
X143356D01*
X145958D01*
Y140847D01*
X145850Y141390D01*
X145542Y141851D01*
X145541Y141852D01*
Y142352D01*
X145542Y142352D01*
X145850Y142813D01*
X145958Y143357D01*
Y144038D01*
X142962D01*
Y144538D01*
X142462D01*
Y147140D01*
X141387D01*
X140844Y147032D01*
X140383Y146724D01*
X140310Y146616D01*
X140212Y146577D01*
X139661Y146544D01*
X139508Y146646D01*
X139124Y146722D01*
X135975D01*
X135591Y146646D01*
X135520Y146598D01*
X135020Y146866D01*
X135020Y146989D01*
X135020Y146989D01*
X135020Y146993D01*
Y147951D01*
X135473D01*
X135896Y148035D01*
X136254Y148275D01*
X136532Y148553D01*
X139124D01*
X139508Y148630D01*
X139834Y148847D01*
X139978Y149063D01*
X140145Y149101D01*
X140367D01*
X140534Y149063D01*
X140678Y148847D01*
X141003Y148630D01*
X141387Y148553D01*
X144537D01*
X144921Y148630D01*
X145247Y148847D01*
X145464Y149173D01*
X145540Y149557D01*
Y151919D01*
X145464Y152303D01*
X145247Y152629D01*
X144921Y152846D01*
X144537Y152922D01*
X141387D01*
X141003Y152846D01*
X140678Y152629D01*
X140534Y152413D01*
X140367Y152375D01*
X140145D01*
X139978Y152413D01*
X139834Y152629D01*
X139508Y152846D01*
X139124Y152922D01*
X135975D01*
X135591Y152846D01*
X135520Y152798D01*
X135020Y153066D01*
Y155138D01*
X132541D01*
Y180230D01*
X133041Y180329D01*
X133483Y179262D01*
X134274Y178231D01*
X135306Y177439D01*
X136506Y176942D01*
X137795Y176772D01*
X141232D01*
Y181752D01*
Y186732D01*
X137795D01*
X136506Y186562D01*
X135306Y186064D01*
X134274Y185273D01*
X133483Y184242D01*
X133041Y183175D01*
X132541Y183274D01*
Y192397D01*
X137980Y197836D01*
X144686D01*
Y207678D01*
D02*
G37*
G36*
X8907Y178586D02*
X8226D01*
Y176091D01*
X10328D01*
Y177165D01*
X10220Y177709D01*
X9912Y178170D01*
X9451Y178478D01*
X8907Y178586D01*
D02*
G37*
G36*
X7226D02*
X6545D01*
X6001Y178478D01*
X5540Y178170D01*
X5232Y177709D01*
X5124Y177165D01*
Y176091D01*
X7226D01*
Y178586D01*
D02*
G37*
G36*
X76850Y176752D02*
X69685D01*
Y175897D01*
X68537D01*
X68326Y176108D01*
X67675Y176378D01*
X66970D01*
X66319Y176108D01*
X65821Y175610D01*
X65551Y174959D01*
Y174254D01*
X65821Y173603D01*
X66319Y173104D01*
X66970Y172835D01*
X67675D01*
X68326Y173104D01*
X68825Y173603D01*
X68861Y173689D01*
X69685D01*
Y173209D01*
X73581D01*
Y171181D01*
X73504D01*
X73120Y171104D01*
X72794Y170887D01*
X72577Y170561D01*
X72500Y170177D01*
Y167028D01*
X72577Y166644D01*
X72794Y166318D01*
X73120Y166100D01*
X73504Y166024D01*
X75866D01*
X76250Y166100D01*
X76576Y166318D01*
X76793Y166644D01*
X76870Y167028D01*
Y170177D01*
X76793Y170561D01*
X76576Y170887D01*
X76250Y171104D01*
X75866Y171181D01*
X75789D01*
Y173209D01*
X76729D01*
Y172097D01*
X76837Y171553D01*
X77145Y171092D01*
X77606Y170784D01*
X78150Y170676D01*
X79224D01*
Y173278D01*
Y175880D01*
X78150D01*
X77606Y175772D01*
X77350Y175601D01*
X76850Y175855D01*
Y176752D01*
D02*
G37*
G36*
X81299Y175880D02*
X80224D01*
Y173778D01*
X82720D01*
Y174459D01*
X82612Y175003D01*
X82304Y175464D01*
X81843Y175772D01*
X81299Y175880D01*
D02*
G37*
G36*
X10328Y175091D02*
X8226D01*
Y172595D01*
X8907D01*
X9451Y172703D01*
X9912Y173011D01*
X10220Y173472D01*
X10328Y174016D01*
Y175091D01*
D02*
G37*
G36*
X7226D02*
X5124D01*
Y174016D01*
X5232Y173472D01*
X5540Y173011D01*
X6001Y172703D01*
X6545Y172595D01*
X7226D01*
Y175091D01*
D02*
G37*
G36*
X37689Y171745D02*
X36614D01*
X36070Y171637D01*
X35609Y171329D01*
X35487Y171147D01*
X35194Y171084D01*
X34875Y171092D01*
X34636Y171251D01*
X34252Y171328D01*
X31102D01*
X30718Y171251D01*
X30393Y171034D01*
X30175Y170708D01*
X30099Y170324D01*
Y170085D01*
X28524D01*
Y170591D01*
X21358D01*
Y169864D01*
X20437D01*
X20098Y170203D01*
X19447Y170472D01*
X18742D01*
X18091Y170203D01*
X17593Y169704D01*
X17323Y169053D01*
Y168348D01*
X17593Y167697D01*
X18091Y167199D01*
X18742Y166929D01*
X19447D01*
X20098Y167199D01*
X20555Y167656D01*
X21358D01*
Y167047D01*
X28524D01*
Y167877D01*
X30116D01*
X30175Y167578D01*
X30393Y167253D01*
X30718Y167035D01*
X31102Y166959D01*
X34252D01*
X34636Y167035D01*
X34875Y167195D01*
X35194Y167203D01*
X35487Y167140D01*
X35609Y166957D01*
X36070Y166649D01*
X36614Y166541D01*
X37689D01*
Y169143D01*
Y171745D01*
D02*
G37*
G36*
X82720Y172778D02*
X80224D01*
Y170676D01*
X81299D01*
X81843Y170784D01*
X82304Y171092D01*
X82612Y171553D01*
X82720Y172097D01*
Y172778D01*
D02*
G37*
G36*
X39764Y171745D02*
X38689D01*
Y169643D01*
X41185D01*
Y170324D01*
X41077Y170868D01*
X40769Y171329D01*
X40308Y171637D01*
X39764Y171745D01*
D02*
G37*
G36*
X69666Y171598D02*
X68985D01*
Y169102D01*
X71087D01*
Y170177D01*
X70979Y170721D01*
X70671Y171182D01*
X70210Y171490D01*
X69666Y171598D01*
D02*
G37*
G36*
X67985D02*
X67304D01*
X66760Y171490D01*
X66299Y171182D01*
X65991Y170721D01*
X65883Y170177D01*
Y169102D01*
X67985D01*
Y171598D01*
D02*
G37*
G36*
X41185Y168643D02*
X38689D01*
Y166541D01*
X39764D01*
X40308Y166649D01*
X40769Y166957D01*
X41077Y167418D01*
X41185Y167962D01*
Y168643D01*
D02*
G37*
G36*
X102650Y168399D02*
X101575D01*
X101031Y168291D01*
X100570Y167983D01*
X100262Y167522D01*
X100154Y166978D01*
Y166297D01*
X102650D01*
Y168399D01*
D02*
G37*
G36*
X71087Y168102D02*
X68985D01*
Y165607D01*
X69666D01*
X70210Y165715D01*
X70671Y166023D01*
X70979Y166484D01*
X71087Y167028D01*
Y168102D01*
D02*
G37*
G36*
X67985D02*
X65883D01*
Y167028D01*
X65991Y166484D01*
X66299Y166023D01*
X66760Y165715D01*
X67304Y165607D01*
X67985D01*
Y168102D01*
D02*
G37*
G36*
X49565Y167126D02*
X48860D01*
X48209Y166856D01*
X47711Y166358D01*
X47441Y165707D01*
Y165002D01*
X47711Y164351D01*
X48209Y163852D01*
X48860Y163583D01*
X49565D01*
X50216Y163852D01*
X50714Y164351D01*
X50984Y165002D01*
Y165707D01*
X50714Y166358D01*
X50216Y166856D01*
X49565Y167126D01*
D02*
G37*
G36*
X169095Y169685D02*
X158465D01*
Y163386D01*
X169095D01*
Y169685D01*
D02*
G37*
G36*
X102650Y165297D02*
X100154D01*
Y164616D01*
X99907Y164315D01*
X95571D01*
Y160378D01*
X98712D01*
X98819Y160357D01*
X100435D01*
X100571Y160220D01*
Y158416D01*
X100648Y158032D01*
X100865Y157706D01*
X101191Y157489D01*
X101307Y157466D01*
X101309Y157461D01*
X101360Y156945D01*
X101161Y156812D01*
X100943Y156486D01*
X100866Y156102D01*
Y152953D01*
X100943Y152569D01*
X101161Y152243D01*
X101486Y152026D01*
X101870Y151949D01*
X101947D01*
Y150711D01*
X100738D01*
X100297Y150623D01*
X99922Y150373D01*
X99672Y149999D01*
X99584Y149557D01*
Y143750D01*
X99672Y143308D01*
X99922Y142934D01*
X100297Y142684D01*
X100738Y142596D01*
X100870D01*
Y141248D01*
X103051D01*
X105232D01*
Y142929D01*
X105232Y142929D01*
X105076Y143429D01*
X105140Y143750D01*
Y147262D01*
X106122D01*
Y146595D01*
X113287D01*
Y150138D01*
X106122D01*
Y149470D01*
X105140D01*
Y149557D01*
X105052Y149999D01*
X104802Y150373D01*
X104428Y150623D01*
X104155Y150678D01*
Y151949D01*
X104232D01*
X104616Y152026D01*
X104942Y152243D01*
X105159Y152569D01*
X105236Y152953D01*
Y156102D01*
X105159Y156486D01*
X104942Y156812D01*
X104766Y156930D01*
X104764Y156955D01*
X104892Y157446D01*
X105108Y157489D01*
X105434Y157706D01*
X105651Y158032D01*
X105728Y158416D01*
Y160778D01*
X105651Y161162D01*
X105434Y161488D01*
X105108Y161705D01*
X104724Y161782D01*
X102132D01*
X101673Y162241D01*
X101315Y162480D01*
X100892Y162565D01*
X100295D01*
Y163193D01*
X100795Y163460D01*
X101031Y163303D01*
X101575Y163195D01*
X102650D01*
Y165297D01*
D02*
G37*
G36*
X91369Y171260D02*
X90664D01*
X90013Y170990D01*
X89515Y170492D01*
X89245Y169841D01*
Y169136D01*
X89515Y168485D01*
X89913Y168087D01*
Y166874D01*
X88090D01*
Y162937D01*
X92815D01*
Y166874D01*
X92120D01*
Y168087D01*
X92519Y168485D01*
X92788Y169136D01*
Y169841D01*
X92519Y170492D01*
X92020Y170990D01*
X91369Y171260D01*
D02*
G37*
G36*
X15412Y177362D02*
X14707D01*
X14055Y177093D01*
X13557Y176594D01*
X13287Y175943D01*
Y175238D01*
X13557Y174587D01*
X13955Y174189D01*
Y166890D01*
X14039Y166467D01*
X14278Y166109D01*
X21358Y159029D01*
Y157047D01*
X28524D01*
Y157715D01*
X30099D01*
Y156545D01*
X30175Y156161D01*
X30393Y155835D01*
X30718Y155618D01*
X31102Y155541D01*
X34252D01*
X34636Y155618D01*
X34962Y155835D01*
X35179Y156161D01*
X35256Y156545D01*
Y158907D01*
X35179Y159291D01*
X34962Y159617D01*
X34636Y159834D01*
X34252Y159911D01*
X31252D01*
X31190Y159923D01*
X28524D01*
Y160591D01*
X22919D01*
X21925Y161585D01*
X22116Y162047D01*
X28524D01*
Y162277D01*
X30099D01*
Y161762D01*
X30175Y161378D01*
X30393Y161053D01*
X30718Y160835D01*
X31102Y160759D01*
X34252D01*
X34636Y160835D01*
X34962Y161053D01*
X35178Y161376D01*
X35189Y161378D01*
X35677Y161378D01*
X35688Y161376D01*
X35905Y161053D01*
X36230Y160835D01*
X36614Y160759D01*
X39764D01*
X40148Y160835D01*
X40473Y161053D01*
X40691Y161378D01*
X40767Y161762D01*
Y164124D01*
X40691Y164508D01*
X40473Y164834D01*
X40148Y165051D01*
X39764Y165128D01*
X36614D01*
X36230Y165051D01*
X35905Y164834D01*
X35688Y164511D01*
X35677Y164508D01*
X35189Y164508D01*
X35178Y164511D01*
X34962Y164834D01*
X34636Y165051D01*
X34252Y165128D01*
X31102D01*
X30718Y165051D01*
X30393Y164834D01*
X30175Y164508D01*
X30171Y164485D01*
X28524D01*
Y165591D01*
X21358D01*
Y162805D01*
X20896Y162614D01*
X16163Y167347D01*
Y174189D01*
X16561Y174587D01*
X16831Y175238D01*
Y175943D01*
X16561Y176594D01*
X16063Y177093D01*
X15412Y177362D01*
D02*
G37*
G36*
X115797Y162986D02*
X115116D01*
Y160491D01*
X117218D01*
Y161565D01*
X117110Y162109D01*
X116802Y162570D01*
X116341Y162878D01*
X115797Y162986D01*
D02*
G37*
G36*
X114116D02*
X113435D01*
X112891Y162878D01*
X112430Y162570D01*
X112122Y162109D01*
X112014Y161565D01*
Y160491D01*
X114116D01*
Y162986D01*
D02*
G37*
G36*
X92815Y161756D02*
X88090D01*
Y157819D01*
X88913D01*
X89143Y157319D01*
X88961Y157108D01*
X87721D01*
X87322Y157506D01*
X86671Y157776D01*
X85966D01*
X85315Y157506D01*
X84817Y157008D01*
X84547Y156356D01*
Y155651D01*
X84817Y155000D01*
X85315Y154502D01*
X85966Y154232D01*
X86671D01*
X87322Y154502D01*
X87721Y154900D01*
X89622D01*
X90044Y154984D01*
X90403Y155223D01*
X91332Y156152D01*
X91571Y156511D01*
X91655Y156933D01*
Y157819D01*
X92815D01*
Y161756D01*
D02*
G37*
G36*
X117218Y159491D02*
X115116D01*
Y156995D01*
X115797D01*
X116341Y157103D01*
X116802Y157411D01*
X117110Y157872D01*
X117218Y158416D01*
Y159491D01*
D02*
G37*
G36*
X114116D02*
X112014D01*
Y158416D01*
X112122Y157872D01*
X112430Y157411D01*
X112891Y157103D01*
X113435Y156995D01*
X114116D01*
Y159491D01*
D02*
G37*
G36*
X98032Y157523D02*
X97351D01*
Y155028D01*
X99453D01*
Y156102D01*
X99345Y156646D01*
X99037Y157107D01*
X98576Y157415D01*
X98032Y157523D01*
D02*
G37*
G36*
X96351D02*
X95670D01*
X95126Y157415D01*
X94665Y157107D01*
X94357Y156646D01*
X94249Y156102D01*
Y155028D01*
X96351D01*
Y157523D01*
D02*
G37*
G36*
X3709Y156000D02*
Y154319D01*
X7201D01*
Y156000D01*
X3709D01*
D02*
G37*
G36*
X34252Y154128D02*
X33177D01*
Y152026D01*
X35673D01*
Y152707D01*
X35565Y153251D01*
X35257Y153712D01*
X34796Y154020D01*
X34252Y154128D01*
D02*
G37*
G36*
X32177D02*
X31102D01*
X30559Y154020D01*
X30098Y153712D01*
X29790Y153251D01*
X29681Y152707D01*
Y152026D01*
X32177D01*
Y154128D01*
D02*
G37*
G36*
X7201Y153319D02*
X3709D01*
Y151638D01*
X7201D01*
Y153319D01*
D02*
G37*
G36*
X104724Y168399D02*
X103650D01*
Y165797D01*
Y163195D01*
X104724D01*
X105268Y163303D01*
X105729Y163611D01*
X106037Y164072D01*
X106047Y164122D01*
X106621Y164493D01*
X106716Y164471D01*
X106766Y164351D01*
X107238Y163879D01*
Y162569D01*
X107235D01*
X106851Y162493D01*
X106525Y162275D01*
X106307Y161949D01*
X106231Y161565D01*
Y158416D01*
X106307Y158032D01*
X106525Y157706D01*
X106851Y157489D01*
X107235Y157412D01*
X107312D01*
Y155138D01*
X106122D01*
Y151594D01*
X113287D01*
Y155138D01*
X109520D01*
Y157412D01*
X109597D01*
X109981Y157489D01*
X110306Y157706D01*
X110524Y158032D01*
X110600Y158416D01*
Y161565D01*
X110524Y161949D01*
X110306Y162275D01*
X109981Y162493D01*
X109597Y162569D01*
X109446D01*
Y164027D01*
X109770Y164351D01*
X110039Y165002D01*
Y165707D01*
X109770Y166358D01*
X109271Y166856D01*
X108620Y167126D01*
X107915D01*
X107264Y166856D01*
X106766Y166358D01*
X106645Y166067D01*
X106145Y166167D01*
Y166978D01*
X106037Y167522D01*
X105729Y167983D01*
X105268Y168291D01*
X104724Y168399D01*
D02*
G37*
G36*
X99453Y154028D02*
X97351D01*
Y151532D01*
X98032D01*
X98576Y151640D01*
X99037Y151948D01*
X99345Y152409D01*
X99453Y152953D01*
Y154028D01*
D02*
G37*
G36*
X96351D02*
X94249D01*
Y152953D01*
X94357Y152409D01*
X94665Y151948D01*
X95126Y151640D01*
X95670Y151532D01*
X96351D01*
Y154028D01*
D02*
G37*
G36*
X35673Y151026D02*
X33177D01*
Y148924D01*
X34252D01*
X34796Y149032D01*
X35257Y149340D01*
X35565Y149801D01*
X35673Y150345D01*
Y151026D01*
D02*
G37*
G36*
X32177D02*
X29681D01*
Y150345D01*
X29790Y149801D01*
X30098Y149340D01*
X30559Y149032D01*
X31102Y148924D01*
X32177D01*
Y151026D01*
D02*
G37*
G36*
X21309Y150535D02*
X20628D01*
Y148039D01*
X22730D01*
Y149114D01*
X22622Y149658D01*
X22314Y150119D01*
X21853Y150427D01*
X21309Y150535D01*
D02*
G37*
G36*
X19628D02*
X18947D01*
X18404Y150427D01*
X17942Y150119D01*
X17634Y149658D01*
X17526Y149114D01*
Y148039D01*
X19628D01*
Y150535D01*
D02*
G37*
G36*
X144537Y147140D02*
X143462D01*
Y145038D01*
X145958D01*
Y145719D01*
X145850Y146263D01*
X145542Y146724D01*
X145081Y147032D01*
X144537Y147140D01*
D02*
G37*
G36*
X22730Y147039D02*
X20628D01*
Y144544D01*
X21309D01*
X21853Y144652D01*
X22314Y144960D01*
X22622Y145421D01*
X22730Y145965D01*
Y147039D01*
D02*
G37*
G36*
X19628D02*
X17526D01*
Y145965D01*
X17634Y145421D01*
X17942Y144960D01*
X18404Y144652D01*
X18947Y144544D01*
X19628D01*
Y147039D01*
D02*
G37*
G36*
X49565Y145472D02*
X48860D01*
X48209Y145203D01*
X47711Y144704D01*
X47441Y144053D01*
Y143348D01*
X47711Y142697D01*
X48209Y142199D01*
X48860Y141929D01*
X49565D01*
X50216Y142199D01*
X50714Y142697D01*
X50984Y143348D01*
Y144053D01*
X50714Y144704D01*
X50216Y145203D01*
X49565Y145472D01*
D02*
G37*
G36*
X28524Y155591D02*
X21358D01*
Y152047D01*
X25225D01*
Y150118D01*
X25147D01*
X24763Y150041D01*
X24438Y149824D01*
X24220Y149498D01*
X24144Y149114D01*
Y145965D01*
X24220Y145580D01*
X24438Y145255D01*
X24725Y145063D01*
X24771Y145001D01*
X24876Y144508D01*
X24606Y143856D01*
Y143151D01*
X24876Y142500D01*
X25374Y142002D01*
X26026Y141732D01*
X26730D01*
X27382Y142002D01*
X27880Y142500D01*
X28150Y143151D01*
Y143856D01*
X27880Y144508D01*
X27865Y144522D01*
X27875Y144700D01*
X27992Y145103D01*
X28219Y145255D01*
X28437Y145580D01*
X28513Y145965D01*
Y149114D01*
X28437Y149498D01*
X28219Y149824D01*
X27893Y150041D01*
X27509Y150118D01*
X27432D01*
Y152047D01*
X28524D01*
Y155591D01*
D02*
G37*
G36*
X92175Y150711D02*
X88927D01*
X88485Y150623D01*
X88111Y150373D01*
X87861Y149999D01*
X87773Y149557D01*
Y143750D01*
X87861Y143308D01*
X88111Y142934D01*
X88216Y142864D01*
X88221Y142265D01*
X88118Y142197D01*
X87862Y141814D01*
X87773Y141363D01*
Y137968D01*
X87862Y137516D01*
X88118Y137134D01*
X88500Y136878D01*
X88952Y136788D01*
X93725D01*
X94177Y136878D01*
X94559Y137134D01*
X94815Y137516D01*
X94905Y137968D01*
Y141363D01*
X94815Y141814D01*
X94559Y142197D01*
X94177Y142453D01*
X93725Y142542D01*
X93285D01*
X93195Y142662D01*
X93064Y143042D01*
X93241Y143308D01*
X93329Y143750D01*
Y149557D01*
X93241Y149999D01*
X92991Y150373D01*
X92617Y150623D01*
X92175Y150711D01*
D02*
G37*
G36*
X145958Y138772D02*
X143856D01*
Y136276D01*
X144537D01*
X145081Y136384D01*
X145542Y136692D01*
X145850Y137153D01*
X145958Y137697D01*
Y138772D01*
D02*
G37*
G36*
X142856D02*
X140754D01*
Y137697D01*
X140862Y137153D01*
X141170Y136692D01*
X141631Y136384D01*
X142175Y136276D01*
X142856D01*
Y138772D01*
D02*
G37*
G36*
X64370Y134960D02*
X60933D01*
Y130480D01*
X69284D01*
X69180Y131269D01*
X68682Y132470D01*
X67891Y133501D01*
X66860Y134293D01*
X65659Y134790D01*
X64370Y134960D01*
D02*
G37*
G36*
X39370D02*
X35933D01*
Y130480D01*
X44284D01*
X44180Y131269D01*
X43683Y132470D01*
X42891Y133501D01*
X41860Y134293D01*
X40659Y134790D01*
X39370Y134960D01*
D02*
G37*
G36*
X14370D02*
X10933D01*
Y130480D01*
X19284D01*
X19180Y131269D01*
X18683Y132470D01*
X17891Y133501D01*
X16860Y134293D01*
X15659Y134790D01*
X14370Y134960D01*
D02*
G37*
G36*
X59933D02*
X56496D01*
X55207Y134790D01*
X54006Y134293D01*
X52975Y133501D01*
X52184Y132470D01*
X51686Y131269D01*
X51582Y130480D01*
X59933D01*
Y134960D01*
D02*
G37*
G36*
X34933D02*
X31496D01*
X30207Y134790D01*
X29006Y134293D01*
X27975Y133501D01*
X27184Y132470D01*
X26686Y131269D01*
X26582Y130480D01*
X34933D01*
Y134960D01*
D02*
G37*
G36*
X9933D02*
X6496D01*
X5207Y134790D01*
X4006Y134293D01*
X2975Y133501D01*
X2184Y132470D01*
X1686Y131269D01*
X1582Y130480D01*
X9933D01*
Y134960D01*
D02*
G37*
G36*
X169095Y136221D02*
X158465D01*
Y129921D01*
X169095D01*
Y136221D01*
D02*
G37*
G36*
X69284Y129480D02*
X60933D01*
Y125001D01*
X64370D01*
X65659Y125170D01*
X66860Y125668D01*
X67891Y126459D01*
X68682Y127490D01*
X69180Y128691D01*
X69284Y129480D01*
D02*
G37*
G36*
X59933D02*
X51582D01*
X51686Y128691D01*
X52184Y127490D01*
X52975Y126459D01*
X54006Y125668D01*
X55207Y125170D01*
X56496Y125001D01*
X59933D01*
Y129480D01*
D02*
G37*
G36*
X44284D02*
X35933D01*
Y125001D01*
X39370D01*
X40659Y125170D01*
X41860Y125668D01*
X42891Y126459D01*
X43683Y127490D01*
X44180Y128691D01*
X44284Y129480D01*
D02*
G37*
G36*
X34933D02*
X26582D01*
X26686Y128691D01*
X27184Y127490D01*
X27975Y126459D01*
X29006Y125668D01*
X30207Y125170D01*
X31496Y125001D01*
X34933D01*
Y129480D01*
D02*
G37*
G36*
X19284D02*
X10933D01*
Y125001D01*
X14370D01*
X15659Y125170D01*
X16860Y125668D01*
X17891Y126459D01*
X18683Y127490D01*
X19180Y128691D01*
X19284Y129480D01*
D02*
G37*
G36*
X9933D02*
X1582D01*
X1686Y128691D01*
X2184Y127490D01*
X2975Y126459D01*
X4006Y125668D01*
X5207Y125170D01*
X6496Y125001D01*
X9933D01*
Y129480D01*
D02*
G37*
G36*
X170669Y122834D02*
X167232D01*
Y118354D01*
X175583D01*
X175479Y119143D01*
X174982Y120344D01*
X174190Y121376D01*
X173159Y122167D01*
X171958Y122664D01*
X170669Y122834D01*
D02*
G37*
G36*
X166232D02*
X162795D01*
X161506Y122664D01*
X160306Y122167D01*
X159274Y121376D01*
X158483Y120344D01*
X157985Y119143D01*
X157881Y118354D01*
X166232D01*
Y122834D01*
D02*
G37*
G36*
X145669D02*
X142232D01*
Y118354D01*
X150583D01*
X150479Y119143D01*
X149982Y120344D01*
X149190Y121376D01*
X148159Y122167D01*
X146958Y122664D01*
X145669Y122834D01*
D02*
G37*
G36*
X141232D02*
X137795D01*
X136506Y122664D01*
X135306Y122167D01*
X134274Y121376D01*
X133483Y120344D01*
X132985Y119143D01*
X132881Y118354D01*
X141232D01*
Y122834D01*
D02*
G37*
G36*
X95128Y124136D02*
X91880D01*
X91438Y124048D01*
X91064Y123798D01*
X90814Y123424D01*
X90726Y122982D01*
Y117175D01*
X90814Y116734D01*
X91064Y116359D01*
X91256Y116231D01*
X91315Y115693D01*
X91301Y115645D01*
X91100Y115345D01*
X91023Y114961D01*
Y111811D01*
X91100Y111427D01*
X91317Y111101D01*
X91643Y110884D01*
X92027Y110808D01*
X92282D01*
Y109272D01*
X88386D01*
Y105728D01*
X95551D01*
Y109272D01*
X94490D01*
Y110828D01*
X94773Y110884D01*
X95099Y111101D01*
X95316Y111427D01*
X95393Y111811D01*
Y112380D01*
X96138D01*
X96536Y111982D01*
X97187Y111713D01*
X97892D01*
X98543Y111982D01*
X99041Y112481D01*
X99311Y113132D01*
Y113837D01*
X99041Y114488D01*
X98543Y114986D01*
X97892Y115256D01*
X97187D01*
X96536Y114986D01*
X96138Y114588D01*
X95393D01*
Y114961D01*
X95316Y115345D01*
X95187Y115539D01*
X95315Y115973D01*
X95385Y116072D01*
X95570Y116109D01*
X95944Y116359D01*
X96194Y116734D01*
X96282Y117175D01*
Y118100D01*
X96782Y118434D01*
X97088Y118307D01*
X97793D01*
X98444Y118577D01*
X98943Y119075D01*
X99213Y119726D01*
Y120431D01*
X98943Y121082D01*
X98444Y121581D01*
X97793Y121850D01*
X97088D01*
X96782Y121723D01*
X96282Y122057D01*
Y122982D01*
X96194Y123424D01*
X95944Y123798D01*
X95570Y124048D01*
X95128Y124136D01*
D02*
G37*
G36*
X83317D02*
X80069D01*
X79627Y124048D01*
X79253Y123798D01*
X79003Y123424D01*
X78915Y122982D01*
Y117175D01*
X79003Y116734D01*
X79253Y116359D01*
X79627Y116109D01*
X80069Y116021D01*
X80589D01*
Y106756D01*
X77437Y103604D01*
X73819D01*
Y104272D01*
X66654D01*
Y103604D01*
X65570D01*
Y103937D01*
X65494Y104321D01*
X65276Y104647D01*
Y105196D01*
X65494Y105522D01*
X65570Y105905D01*
Y106396D01*
X66654D01*
Y105728D01*
X73819D01*
Y106386D01*
X75557D01*
X75965Y105978D01*
X76616Y105709D01*
X77321D01*
X77972Y105978D01*
X78470Y106477D01*
X78740Y107128D01*
Y107833D01*
X78470Y108484D01*
X77972Y108982D01*
X77321Y109252D01*
X76616D01*
X75965Y108982D01*
X75577Y108594D01*
X73819D01*
Y109272D01*
X66654D01*
Y108604D01*
X65570D01*
Y109055D01*
X65494Y109439D01*
X65276Y109765D01*
X64951Y109982D01*
X64567Y110059D01*
X62205D01*
X61821Y109982D01*
X61495Y109765D01*
X61278Y109439D01*
X61201Y109055D01*
Y105905D01*
X61278Y105522D01*
X61495Y105196D01*
Y104647D01*
X61278Y104321D01*
X61201Y103937D01*
Y100787D01*
X61278Y100403D01*
X61495Y100078D01*
X61821Y99860D01*
X62205Y99784D01*
X64567D01*
X64951Y99860D01*
X65276Y100078D01*
X65494Y100403D01*
X65570Y100787D01*
Y101396D01*
X66654D01*
Y100728D01*
X73819D01*
Y101396D01*
X77894D01*
X78316Y101480D01*
X78674Y101719D01*
X82473Y105519D01*
X82713Y105877D01*
X82797Y106299D01*
Y116021D01*
X83317D01*
X83759Y116109D01*
X84133Y116359D01*
X84383Y116734D01*
X84471Y117175D01*
Y118975D01*
X85311D01*
X85709Y118577D01*
X86360Y118307D01*
X87065D01*
X87716Y118577D01*
X88214Y119075D01*
X88484Y119726D01*
Y120431D01*
X88214Y121082D01*
X87716Y121581D01*
X87065Y121850D01*
X86360D01*
X85709Y121581D01*
X85311Y121183D01*
X84471D01*
Y122982D01*
X84383Y123424D01*
X84133Y123798D01*
X83759Y124048D01*
X83317Y124136D01*
D02*
G37*
G36*
X88189Y116382D02*
X87508D01*
Y113886D01*
X89610D01*
Y114961D01*
X89502Y115504D01*
X89194Y115965D01*
X88733Y116273D01*
X88189Y116382D01*
D02*
G37*
G36*
X86508D02*
X85827D01*
X85283Y116273D01*
X84822Y115965D01*
X84514Y115504D01*
X84406Y114961D01*
Y113886D01*
X86508D01*
Y116382D01*
D02*
G37*
G36*
X99311Y142520D02*
X95768D01*
Y139083D01*
X95768Y138976D01*
X95768D01*
Y138583D01*
X95768D01*
Y136600D01*
X93639Y134471D01*
X88952D01*
X88500Y134382D01*
X88118Y134126D01*
X87862Y133744D01*
X87773Y133292D01*
Y129897D01*
X87862Y129445D01*
X88118Y129063D01*
X88500Y128807D01*
X88952Y128718D01*
X93725D01*
X94177Y128807D01*
X94559Y129063D01*
X94815Y129445D01*
X94905Y129897D01*
Y132615D01*
X97329Y135039D01*
X99311D01*
Y136762D01*
X99773Y136953D01*
X100007Y136719D01*
X100365Y136480D01*
X100787Y136396D01*
X100944D01*
Y127598D01*
X101104Y126792D01*
X101561Y126108D01*
X108457Y119212D01*
X108384Y119036D01*
X108229Y117854D01*
X108384Y116672D01*
X108841Y115571D01*
X109566Y114625D01*
X110512Y113900D01*
X111613Y113443D01*
X112795Y113288D01*
X120669D01*
X121851Y113443D01*
X122953Y113900D01*
X123898Y114625D01*
X124624Y115571D01*
X125080Y116672D01*
X125236Y117854D01*
X125080Y119036D01*
X124624Y120138D01*
X123898Y121083D01*
X122953Y121809D01*
X121851Y122265D01*
X120669Y122421D01*
X112795D01*
X111613Y122265D01*
X111437Y122193D01*
X105159Y128471D01*
Y136811D01*
X104998Y137618D01*
X104823Y137880D01*
Y138567D01*
X105232D01*
Y140248D01*
X103051D01*
X100870D01*
Y139632D01*
X100408Y139440D01*
X99311Y140538D01*
Y142520D01*
D02*
G37*
G36*
X175583Y117354D02*
X167232D01*
Y112875D01*
X170669D01*
X171958Y113044D01*
X173159Y113542D01*
X174190Y114333D01*
X174982Y115365D01*
X175479Y116566D01*
X175583Y117354D01*
D02*
G37*
G36*
X166232D02*
X157881D01*
X157985Y116566D01*
X158483Y115365D01*
X159274Y114333D01*
X160306Y113542D01*
X161506Y113044D01*
X162795Y112875D01*
X166232D01*
Y117354D01*
D02*
G37*
G36*
X150583D02*
X142232D01*
Y112875D01*
X145669D01*
X146958Y113044D01*
X148159Y113542D01*
X149190Y114333D01*
X149982Y115365D01*
X150479Y116566D01*
X150583Y117354D01*
D02*
G37*
G36*
X141232D02*
X132881D01*
X132985Y116566D01*
X133483Y115365D01*
X134274Y114333D01*
X135306Y113542D01*
X136506Y113044D01*
X137795Y112875D01*
X141232D01*
Y117354D01*
D02*
G37*
G36*
X18701Y117913D02*
X8071D01*
Y111614D01*
X18701D01*
Y117913D01*
D02*
G37*
G36*
X89610Y112886D02*
X87508D01*
Y110390D01*
X88189D01*
X88733Y110498D01*
X89194Y110806D01*
X89502Y111267D01*
X89610Y111811D01*
Y112886D01*
D02*
G37*
G36*
X86508D02*
X84406D01*
Y111811D01*
X84514Y111267D01*
X84822Y110806D01*
X85283Y110498D01*
X85827Y110390D01*
X86508D01*
Y112886D01*
D02*
G37*
G36*
X58367Y110476D02*
X57686D01*
Y107980D01*
X59788D01*
Y109055D01*
X59680Y109599D01*
X59372Y110060D01*
X58911Y110368D01*
X58367Y110476D01*
D02*
G37*
G36*
X56686D02*
X56005D01*
X55461Y110368D01*
X55000Y110060D01*
X54692Y109599D01*
X54584Y109055D01*
Y107980D01*
X56686D01*
Y110476D01*
D02*
G37*
G36*
X59788Y106980D02*
X57186D01*
X54584D01*
Y105905D01*
X54692Y105362D01*
X54986Y104921D01*
X54692Y104481D01*
X54584Y103937D01*
Y102862D01*
X57186D01*
X59788D01*
Y103937D01*
X59680Y104481D01*
X59386Y104921D01*
X59680Y105362D01*
X59788Y105905D01*
Y106980D01*
D02*
G37*
G36*
Y101862D02*
X57686D01*
Y99366D01*
X58367D01*
X58911Y99475D01*
X59372Y99783D01*
X59680Y100244D01*
X59788Y100787D01*
Y101862D01*
D02*
G37*
G36*
X56686D02*
X54584D01*
Y100787D01*
X54692Y100244D01*
X55000Y99783D01*
X55461Y99475D01*
X56005Y99366D01*
X56686D01*
Y101862D01*
D02*
G37*
G36*
X73819Y99272D02*
X66654D01*
Y98131D01*
X65486D01*
X65276Y98445D01*
X64951Y98663D01*
X64567Y98739D01*
X61417D01*
X61033Y98663D01*
X60708Y98445D01*
X60492Y98122D01*
X60480Y98119D01*
X59992D01*
X59981Y98122D01*
X59765Y98445D01*
X59439Y98663D01*
X59055Y98739D01*
X55905D01*
X55522Y98663D01*
X55196Y98445D01*
X54980Y98122D01*
X54969Y98119D01*
X54480D01*
X54469Y98122D01*
X54253Y98445D01*
X53927Y98663D01*
X53543Y98739D01*
X50394D01*
X50010Y98663D01*
X49684Y98445D01*
X49467Y98119D01*
X49390Y97735D01*
Y95373D01*
X49467Y94989D01*
X49684Y94664D01*
X50010Y94446D01*
X50394Y94370D01*
X53543D01*
X53927Y94446D01*
X54253Y94664D01*
X54469Y94987D01*
X54480Y94989D01*
X54969D01*
X54980Y94987D01*
X55196Y94664D01*
X55522Y94446D01*
X55905Y94370D01*
X59055D01*
X59439Y94446D01*
X59765Y94664D01*
X59981Y94987D01*
X59992Y94989D01*
X60480D01*
X60492Y94987D01*
X60708Y94664D01*
X61033Y94446D01*
X61417Y94370D01*
X64567D01*
X64951Y94446D01*
X65276Y94664D01*
X65494Y94989D01*
X65570Y95373D01*
Y95923D01*
X66654D01*
Y95728D01*
X73819D01*
Y99272D01*
D02*
G37*
G36*
X159843Y106299D02*
X141732D01*
Y96063D01*
X159843D01*
Y106299D01*
D02*
G37*
G36*
X100720Y94317D02*
X100015D01*
X99364Y94047D01*
X98943Y93627D01*
X95551D01*
Y94272D01*
X88386D01*
Y90728D01*
X92282D01*
Y89192D01*
X92205D01*
X91821Y89116D01*
X91495Y88899D01*
X91278Y88573D01*
X91201Y88189D01*
Y85039D01*
X91278Y84655D01*
X91495Y84330D01*
X91821Y84112D01*
X92205Y84036D01*
X94567D01*
X94951Y84112D01*
X95276Y84330D01*
X95494Y84655D01*
X95570Y85039D01*
Y88189D01*
X95494Y88573D01*
X95276Y88899D01*
X94951Y89116D01*
X94567Y89192D01*
X94490D01*
Y90728D01*
X95551D01*
Y91419D01*
X98989D01*
X99364Y91044D01*
X100015Y90774D01*
X100720D01*
X101371Y91044D01*
X101870Y91542D01*
X102139Y92193D01*
Y92898D01*
X101870Y93549D01*
X101371Y94047D01*
X100720Y94317D01*
D02*
G37*
G36*
X83915Y94291D02*
X83211D01*
X82559Y94022D01*
X82152Y93614D01*
X73819D01*
Y94272D01*
X66654D01*
Y93604D01*
X65531D01*
X65109Y93520D01*
X64751Y93281D01*
X64009Y92539D01*
X61417D01*
X61033Y92463D01*
X60708Y92245D01*
X60492Y91922D01*
X60480Y91919D01*
X59992D01*
X59981Y91922D01*
X59765Y92245D01*
X59439Y92463D01*
X59055Y92539D01*
X55905D01*
X55522Y92463D01*
X55196Y92245D01*
X54980Y91922D01*
X54969Y91919D01*
X54480D01*
X54469Y91922D01*
X54253Y92245D01*
X53927Y92463D01*
X53543Y92539D01*
X50394D01*
X50010Y92463D01*
X49684Y92245D01*
X49512Y91988D01*
X49414Y91903D01*
X48922Y91747D01*
X48482Y91929D01*
X47778D01*
X47126Y91659D01*
X46628Y91161D01*
X46358Y90510D01*
Y89805D01*
X46628Y89154D01*
X47126Y88656D01*
X47778Y88386D01*
X48482D01*
X49029Y88612D01*
X49135Y88655D01*
X49670Y88485D01*
X49684Y88464D01*
X50010Y88246D01*
X50394Y88170D01*
X53543D01*
X53927Y88246D01*
X54253Y88464D01*
X54469Y88787D01*
X54480Y88789D01*
X54969D01*
X54980Y88787D01*
X55196Y88464D01*
X55522Y88246D01*
X55905Y88170D01*
X59055D01*
X59439Y88246D01*
X59765Y88464D01*
X59981Y88787D01*
X59992Y88789D01*
X60480D01*
X60492Y88787D01*
X60708Y88464D01*
X61033Y88246D01*
X61417Y88170D01*
X64567D01*
X64951Y88246D01*
X65276Y88464D01*
X65494Y88789D01*
X65570Y89173D01*
Y90978D01*
X65989Y91396D01*
X66654D01*
Y90728D01*
X73819D01*
Y91406D01*
X82171D01*
X82559Y91018D01*
X83211Y90748D01*
X83915D01*
X84566Y91018D01*
X85065Y91516D01*
X85335Y92167D01*
Y92872D01*
X85065Y93523D01*
X84566Y94022D01*
X83915Y94291D01*
D02*
G37*
G36*
X95551Y104272D02*
X88386D01*
Y100728D01*
X90865D01*
Y99272D01*
X88386D01*
Y95728D01*
X95551D01*
Y96396D01*
X104823D01*
Y89567D01*
X112500D01*
Y102362D01*
X104823D01*
Y98604D01*
X95551D01*
Y99272D01*
X93072D01*
Y100728D01*
X95551D01*
Y104272D01*
D02*
G37*
G36*
X88367Y89610D02*
X87686D01*
Y87114D01*
X89788D01*
Y88189D01*
X89680Y88733D01*
X89372Y89194D01*
X88911Y89502D01*
X88367Y89610D01*
D02*
G37*
G36*
X86686D02*
X86005D01*
X85461Y89502D01*
X85000Y89194D01*
X84692Y88733D01*
X84584Y88189D01*
Y87114D01*
X86686D01*
Y89610D01*
D02*
G37*
G36*
X144504Y93126D02*
X139476D01*
Y83177D01*
X144504D01*
Y93126D01*
D02*
G37*
G36*
X138476D02*
X133449D01*
Y83177D01*
X138476D01*
Y93126D01*
D02*
G37*
G36*
X112500Y84449D02*
X104823D01*
Y79155D01*
X95574D01*
Y82308D01*
X95484Y82759D01*
X95228Y83142D01*
X94846Y83398D01*
X94395Y83487D01*
X90999D01*
X90548Y83398D01*
X90165Y83142D01*
X89910Y82759D01*
X89820Y82308D01*
Y77535D01*
X89910Y77083D01*
X90165Y76701D01*
X90548Y76445D01*
X90656Y76424D01*
X90762Y75893D01*
X90708Y75857D01*
X90490Y75531D01*
X90414Y75147D01*
Y72785D01*
X90490Y72401D01*
X90708Y72075D01*
X91033Y71858D01*
X91417Y71781D01*
X94567D01*
X94951Y71858D01*
X95276Y72075D01*
X95494Y72401D01*
X95570Y72785D01*
Y75147D01*
X95494Y75531D01*
X95276Y75857D01*
X95043Y76013D01*
X95002Y76390D01*
X95030Y76568D01*
X95228Y76701D01*
X95393Y76947D01*
X104823D01*
Y71653D01*
X112500D01*
Y84449D01*
D02*
G37*
G36*
X18701Y84449D02*
X8071D01*
Y78150D01*
X18701D01*
Y84449D01*
D02*
G37*
G36*
X167717Y91732D02*
X157480D01*
Y73622D01*
X167717D01*
Y91732D01*
D02*
G37*
G36*
X144504Y82177D02*
X139476D01*
Y72228D01*
X144504D01*
Y82177D01*
D02*
G37*
G36*
X138476D02*
X133449D01*
Y72228D01*
X138476D01*
Y82177D01*
D02*
G37*
G36*
X89788Y86114D02*
X87186D01*
X84584D01*
Y85039D01*
X84692Y84496D01*
X85000Y84035D01*
X85071Y83987D01*
X84919Y83487D01*
X82928D01*
X82477Y83398D01*
X82094Y83142D01*
X81839Y82759D01*
X81749Y82308D01*
Y82029D01*
X78209D01*
X77402Y81868D01*
X76718Y81411D01*
X65728Y70421D01*
X65552Y70494D01*
X64370Y70649D01*
X56496D01*
X55314Y70494D01*
X54213Y70038D01*
X53267Y69312D01*
X52541Y68366D01*
X52085Y67265D01*
X51929Y66083D01*
X52085Y64901D01*
X52541Y63799D01*
X53267Y62854D01*
X54213Y62128D01*
X55314Y61672D01*
X56496Y61516D01*
X64370D01*
X65552Y61672D01*
X66653Y62128D01*
X67599Y62854D01*
X68325Y63799D01*
X68781Y64901D01*
X68937Y66083D01*
X68781Y67265D01*
X68708Y67440D01*
X79082Y77814D01*
X81749D01*
Y77535D01*
X81839Y77083D01*
X82094Y76701D01*
X82477Y76445D01*
X82928Y76355D01*
X82974D01*
Y73271D01*
X83135Y72464D01*
X83268Y72266D01*
Y71472D01*
X82858D01*
Y69791D01*
X87221D01*
Y71472D01*
X86811D01*
Y72138D01*
X87029Y72464D01*
X87189Y73271D01*
Y76748D01*
X87413Y77083D01*
X87503Y77535D01*
Y82308D01*
X87413Y82759D01*
X87173Y83118D01*
X87201Y83252D01*
X87344Y83618D01*
X88367D01*
X88911Y83727D01*
X89372Y84035D01*
X89680Y84496D01*
X89788Y85039D01*
Y86114D01*
D02*
G37*
G36*
X94567Y70368D02*
X93492D01*
Y68266D01*
X95988D01*
Y68947D01*
X95880Y69491D01*
X95572Y69952D01*
X95111Y70260D01*
X94567Y70368D01*
D02*
G37*
G36*
X92492D02*
X91417D01*
X90873Y70260D01*
X90412Y69952D01*
X90105Y69491D01*
X89996Y68947D01*
Y68266D01*
X92492D01*
Y70368D01*
D02*
G37*
G36*
X87221Y68791D02*
X85539D01*
Y67110D01*
X87221D01*
Y68791D01*
D02*
G37*
G36*
X84539D02*
X82858D01*
Y67110D01*
X84539D01*
Y68791D01*
D02*
G37*
G36*
X39370Y71062D02*
X35933D01*
Y66583D01*
X44284D01*
X44180Y67371D01*
X43683Y68572D01*
X42891Y69604D01*
X41860Y70395D01*
X40659Y70893D01*
X39370Y71062D01*
D02*
G37*
G36*
X17339Y71020D02*
X10933D01*
Y66583D01*
X17339D01*
Y71020D01*
D02*
G37*
G36*
X9933D02*
X3528D01*
Y66583D01*
X9933D01*
Y71020D01*
D02*
G37*
G36*
X34933Y71062D02*
X31496D01*
X30207Y70893D01*
X29006Y70395D01*
X27975Y69604D01*
X27184Y68572D01*
X26686Y67371D01*
X26582Y66583D01*
X34933D01*
Y71062D01*
D02*
G37*
G36*
X95988Y67266D02*
X93492D01*
Y65164D01*
X94567D01*
X95111Y65272D01*
X95572Y65580D01*
X95880Y66041D01*
X95988Y66585D01*
Y67266D01*
D02*
G37*
G36*
X92492D02*
X89996D01*
Y66585D01*
X90105Y66041D01*
X90412Y65580D01*
X90873Y65272D01*
X91417Y65164D01*
X92492D01*
Y67266D01*
D02*
G37*
G36*
X17339Y65583D02*
X10933D01*
Y61146D01*
X17339D01*
Y65583D01*
D02*
G37*
G36*
X9933D02*
X3528D01*
Y61146D01*
X9933D01*
Y65583D01*
D02*
G37*
G36*
X44284D02*
X35933D01*
Y61103D01*
X39370D01*
X40659Y61273D01*
X41860Y61770D01*
X42891Y62562D01*
X43683Y63593D01*
X44180Y64794D01*
X44284Y65583D01*
D02*
G37*
G36*
X34933D02*
X26582D01*
X26686Y64794D01*
X27184Y63593D01*
X27975Y62562D01*
X29006Y61770D01*
X30207Y61273D01*
X31496Y61103D01*
X34933D01*
Y65583D01*
D02*
G37*
G36*
X167575Y58697D02*
X164673D01*
Y56406D01*
X167575D01*
Y58697D01*
D02*
G37*
G36*
X163673D02*
X160772D01*
Y56406D01*
X163673D01*
Y58697D01*
D02*
G37*
G36*
X167575Y55405D02*
X164673D01*
Y53114D01*
X167575D01*
Y55405D01*
D02*
G37*
G36*
X163673D02*
X160772D01*
Y53114D01*
X163673D01*
Y55405D01*
D02*
G37*
G36*
X88314Y55512D02*
X87277D01*
X86276Y55243D01*
X85378Y54725D01*
X84645Y53992D01*
X84127Y53094D01*
X83858Y52093D01*
Y51056D01*
X84127Y50055D01*
X84645Y49157D01*
X85378Y48424D01*
X86276Y47906D01*
X87277Y47638D01*
X88314D01*
X89315Y47906D01*
X90213Y48424D01*
X90946Y49157D01*
X91464Y50055D01*
X91732Y51056D01*
Y52093D01*
X91464Y53094D01*
X90946Y53992D01*
X90213Y54725D01*
X89315Y55243D01*
X88314Y55512D01*
D02*
G37*
G36*
X36977Y36409D02*
X33177D01*
Y32909D01*
X36977D01*
Y36409D01*
D02*
G37*
G36*
X32177D02*
X28377D01*
Y32909D01*
X32177D01*
Y36409D01*
D02*
G37*
G36*
X46875Y41952D02*
X42101D01*
X41650Y41862D01*
X41268Y41606D01*
X41012Y41224D01*
X40922Y40773D01*
Y37377D01*
X41012Y36926D01*
X41268Y36543D01*
X41650Y36288D01*
X41907Y36236D01*
Y32087D01*
X41995Y31419D01*
X42253Y30796D01*
X42663Y30261D01*
X43198Y29851D01*
X43820Y29593D01*
X44488Y29506D01*
X45156Y29593D01*
X45779Y29851D01*
X46313Y30261D01*
X46723Y30796D01*
X46981Y31419D01*
X47069Y32087D01*
Y36236D01*
X47326Y36288D01*
X47709Y36543D01*
X47964Y36926D01*
X48054Y37377D01*
Y40773D01*
X47964Y41224D01*
X47709Y41606D01*
X47326Y41862D01*
X46875Y41952D01*
D02*
G37*
G36*
X36977Y31909D02*
X33177D01*
Y28409D01*
X36977D01*
Y31909D01*
D02*
G37*
G36*
X32177D02*
X28377D01*
Y28409D01*
X32177D01*
Y31909D01*
D02*
G37*
G36*
X118463Y31004D02*
X117758D01*
X117107Y30734D01*
X116608Y30236D01*
X116339Y29585D01*
Y28880D01*
X116608Y28229D01*
X117107Y27730D01*
X117758Y27461D01*
X118463D01*
X119114Y27730D01*
X119612Y28229D01*
X119882Y28880D01*
Y29585D01*
X119612Y30236D01*
X119114Y30734D01*
X118463Y31004D01*
D02*
G37*
G36*
X16847Y32496D02*
X13098D01*
Y26189D01*
X16847D01*
Y32496D01*
D02*
G37*
G36*
X12098D02*
X8350D01*
Y26189D01*
X12098D01*
Y32496D01*
D02*
G37*
G36*
X112998Y28543D02*
X111805D01*
X110654Y28235D01*
X109622Y27639D01*
X108779Y26796D01*
X108183Y25763D01*
X108010Y25120D01*
X67580D01*
X67408Y25763D01*
X66812Y26796D01*
X65969Y27639D01*
X64937Y28235D01*
X63785Y28543D01*
X62593D01*
X61441Y28235D01*
X60409Y27639D01*
X59566Y26796D01*
X58970Y25763D01*
X58661Y24612D01*
Y23420D01*
X58970Y22268D01*
X59566Y21236D01*
X60409Y20393D01*
X61441Y19797D01*
X62593Y19488D01*
X63785D01*
X64937Y19797D01*
X65969Y20393D01*
X66812Y21236D01*
X67408Y22268D01*
X67580Y22912D01*
X108010D01*
X108183Y22268D01*
X108779Y21236D01*
X109622Y20393D01*
X110654Y19797D01*
X111805Y19488D01*
X112998D01*
X114149Y19797D01*
X115182Y20393D01*
X116024Y21236D01*
X116621Y22268D01*
X116929Y23420D01*
Y24612D01*
X116621Y25763D01*
X116024Y26796D01*
X115182Y27639D01*
X114149Y28235D01*
X112998Y28543D01*
D02*
G37*
G36*
X16847Y25189D02*
X13098D01*
Y18882D01*
X16847D01*
Y25189D01*
D02*
G37*
G36*
X12098D02*
X8350D01*
Y18882D01*
X12098D01*
Y25189D01*
D02*
G37*
G36*
X118463Y21457D02*
X117758D01*
X117107Y21187D01*
X116608Y20689D01*
X116339Y20037D01*
Y19333D01*
X116608Y18681D01*
X117107Y18183D01*
X117758Y17913D01*
X118463D01*
X119114Y18183D01*
X119612Y18681D01*
X119882Y19333D01*
Y20037D01*
X119612Y20689D01*
X119114Y21187D01*
X118463Y21457D01*
D02*
G37*
G36*
X88314Y20079D02*
X87277D01*
X86276Y19810D01*
X85378Y19292D01*
X84645Y18559D01*
X84127Y17661D01*
X83858Y16660D01*
Y15623D01*
X84127Y14622D01*
X84645Y13724D01*
X85378Y12991D01*
X86276Y12473D01*
X87277Y12205D01*
X88314D01*
X89315Y12473D01*
X90213Y12991D01*
X90946Y13724D01*
X91464Y14622D01*
X91732Y15623D01*
Y16660D01*
X91464Y17661D01*
X90946Y18559D01*
X90213Y19292D01*
X89315Y19810D01*
X88314Y20079D01*
D02*
G37*
G36*
X131258Y60433D02*
X130553D01*
X129902Y60163D01*
X129404Y59665D01*
X129134Y59014D01*
Y58309D01*
X129404Y57658D01*
X129802Y57260D01*
Y53369D01*
X128716D01*
X128264Y53279D01*
X127882Y53024D01*
X127626Y52641D01*
X127536Y52190D01*
Y48794D01*
X127626Y48343D01*
X127882Y47960D01*
X128264Y47705D01*
X128716Y47615D01*
X133489D01*
X133726Y47662D01*
X134823D01*
Y46801D01*
X134900Y46417D01*
X135117Y46091D01*
X135443Y45874D01*
X135827Y45797D01*
X138976D01*
X139360Y45874D01*
X139686Y46091D01*
X139903Y46417D01*
X139980Y46801D01*
Y49163D01*
X139903Y49547D01*
X139686Y49873D01*
X139360Y50090D01*
X138976Y50166D01*
X138899D01*
Y55685D01*
X139297Y56083D01*
X139567Y56734D01*
Y57439D01*
X139297Y58090D01*
X138799Y58588D01*
X138148Y58858D01*
X137443D01*
X136792Y58588D01*
X136293Y58090D01*
X136024Y57439D01*
Y56734D01*
X136293Y56083D01*
X136691Y55685D01*
Y50166D01*
X135827D01*
X135443Y50090D01*
X135168Y49907D01*
X134668Y50032D01*
Y52190D01*
X134579Y52641D01*
X134323Y53024D01*
X133940Y53279D01*
X133489Y53369D01*
X132009D01*
Y57260D01*
X132407Y57658D01*
X132677Y58309D01*
Y59014D01*
X132407Y59665D01*
X131909Y60163D01*
X131258Y60433D01*
D02*
G37*
%LPD*%
D17*
X150098Y267520D02*
D03*
X143898D02*
D03*
X48572Y273228D02*
D03*
X42372D02*
D03*
X25542Y273327D02*
D03*
X31742D02*
D03*
X159546Y283169D02*
D03*
X153347D02*
D03*
X170423D02*
D03*
X164223D02*
D03*
X55365Y338386D02*
D03*
X61565D02*
D03*
Y321949D02*
D03*
X55365D02*
D03*
Y316437D02*
D03*
X61565D02*
D03*
X65601D02*
D03*
X71801D02*
D03*
X55365Y327461D02*
D03*
X61565D02*
D03*
X55365Y332874D02*
D03*
X61565D02*
D03*
X56318Y196457D02*
D03*
X50118D02*
D03*
X108416Y159991D02*
D03*
X114616D02*
D03*
X137156Y139272D02*
D03*
X143356D02*
D03*
X103051Y154528D02*
D03*
X96851D02*
D03*
X63386Y102362D02*
D03*
X57186D02*
D03*
X63386Y107480D02*
D03*
X57186D02*
D03*
X159940Y291929D02*
D03*
X153740D02*
D03*
X118257Y289173D02*
D03*
X112057D02*
D03*
X95030Y322342D02*
D03*
X101230D02*
D03*
X27313Y175591D02*
D03*
X21113D02*
D03*
X32383D02*
D03*
X38583D02*
D03*
X1526D02*
D03*
X7726D02*
D03*
X20128Y147539D02*
D03*
X26328D02*
D03*
X93386Y86614D02*
D03*
X87186D02*
D03*
X77903Y196457D02*
D03*
X71703D02*
D03*
X74685Y168602D02*
D03*
X68485D02*
D03*
X101624Y309449D02*
D03*
X95424D02*
D03*
X95177Y341929D02*
D03*
X101377D02*
D03*
X95030Y327264D02*
D03*
X101230D02*
D03*
X90433Y359252D02*
D03*
X84233D02*
D03*
X87008Y113386D02*
D03*
X93208D02*
D03*
X118257Y283661D02*
D03*
X112057D02*
D03*
X118257Y295079D02*
D03*
X112057D02*
D03*
X101377Y337106D02*
D03*
X95177D02*
D03*
D18*
X148917Y260827D02*
D03*
Y253346D02*
D03*
X139665Y257087D02*
D03*
D19*
X81890Y315846D02*
D03*
X90197D02*
D03*
X94468D02*
D03*
X102776D02*
D03*
D20*
X150197Y221457D02*
D03*
Y233268D02*
D03*
D21*
X53543Y272146D02*
D03*
X61614D02*
D03*
X155020Y35433D02*
D03*
X163091D02*
D03*
X153150Y9843D02*
D03*
X161221D02*
D03*
X84626Y79921D02*
D03*
X92697D02*
D03*
X93012Y303150D02*
D03*
X101083D02*
D03*
D23*
X91339Y131595D02*
D03*
Y139665D02*
D03*
X139764Y14075D02*
D03*
Y22146D02*
D03*
X131102Y42421D02*
D03*
Y50492D02*
D03*
X44488Y39075D02*
D03*
Y47146D02*
D03*
X113583Y269783D02*
D03*
Y277854D02*
D03*
D24*
X32677Y32409D02*
D03*
Y46409D02*
D03*
D27*
X-591Y263435D02*
D03*
Y269635D02*
D03*
X-689Y311024D02*
D03*
Y317224D02*
D03*
X72933Y292668D02*
D03*
Y298868D02*
D03*
X26280Y284399D02*
D03*
Y278199D02*
D03*
X31201Y284498D02*
D03*
Y278298D02*
D03*
X78445Y298868D02*
D03*
Y292668D02*
D03*
X31496Y303100D02*
D03*
Y296900D02*
D03*
X26772Y303100D02*
D03*
Y296900D02*
D03*
X121063Y261713D02*
D03*
Y267913D02*
D03*
X126279Y261713D02*
D03*
Y267913D02*
D03*
X38189Y162943D02*
D03*
Y169143D02*
D03*
X103150Y159597D02*
D03*
Y165797D02*
D03*
X142962Y144538D02*
D03*
Y150738D02*
D03*
X137550Y144538D02*
D03*
Y150738D02*
D03*
X79626Y183908D02*
D03*
Y190108D02*
D03*
X154134Y303297D02*
D03*
Y297097D02*
D03*
X171063Y303297D02*
D03*
Y297097D02*
D03*
X160433Y277706D02*
D03*
Y271506D02*
D03*
X159646Y303297D02*
D03*
Y297097D02*
D03*
X165157Y303297D02*
D03*
Y297097D02*
D03*
X152362Y16585D02*
D03*
Y22785D02*
D03*
X146850D02*
D03*
Y16585D02*
D03*
X137402Y41782D02*
D03*
Y47982D02*
D03*
X130315Y23179D02*
D03*
Y16979D02*
D03*
Y35777D02*
D03*
Y29577D02*
D03*
X32677Y162943D02*
D03*
Y169143D02*
D03*
Y151526D02*
D03*
Y157726D02*
D03*
X57480Y90354D02*
D03*
Y96554D02*
D03*
X44587Y175197D02*
D03*
Y181397D02*
D03*
X79724Y173278D02*
D03*
Y179478D02*
D03*
X92992Y73966D02*
D03*
Y67766D02*
D03*
X62992Y96554D02*
D03*
Y90354D02*
D03*
X51968D02*
D03*
Y96554D02*
D03*
X95571Y352978D02*
D03*
Y346778D02*
D03*
X100295D02*
D03*
Y352978D02*
D03*
X105020Y346778D02*
D03*
Y352978D02*
D03*
D56*
X59744Y276697D02*
Y283027D01*
X57284Y274237D02*
X59744Y276697D01*
Y283027D02*
X69385Y292668D01*
X19154Y168760D02*
X24882D01*
X19094Y168701D02*
X19154Y168760D01*
X24882D02*
X25103Y168981D01*
X92736Y92461D02*
X92798Y92523D01*
X92736Y92461D02*
X93386Y91811D01*
X100345Y92523D02*
X100368Y92546D01*
X92008Y92461D02*
X92736D01*
X92798Y92523D02*
X100345D01*
X93386Y86614D02*
Y91811D01*
X91969Y92500D02*
X92008Y92461D01*
X7776Y268602D02*
Y273498D01*
X-1969Y256631D02*
X9350Y267950D01*
X-1969Y53543D02*
Y256631D01*
X-591Y263435D02*
X2609D01*
X7776Y268602D01*
X9350Y267950D02*
Y272846D01*
X7776Y273498D02*
X14567Y280289D01*
X21949Y184744D02*
Y241634D01*
X9350Y272846D02*
X16142Y279637D01*
X10925Y252658D02*
Y272193D01*
X17717Y278985D01*
X10925Y252658D02*
X21949Y241634D01*
Y184744D02*
X25819Y180874D01*
X168234Y271580D02*
X168307Y271654D01*
X168209Y271752D02*
Y276765D01*
Y271752D02*
X168307Y271654D01*
X160507Y271580D02*
X168234D01*
X168110Y276864D02*
X168209Y276765D01*
X160433Y271506D02*
X160507Y271580D01*
X93504Y120079D02*
X97441D01*
X82946D02*
X86713D01*
X81693Y118826D02*
X82946Y120079D01*
X15551Y267815D02*
X35236Y248130D01*
X137402Y47982D02*
X137795Y48376D01*
Y57087D01*
X146653Y16388D02*
X146850Y16585D01*
X146653Y10827D02*
Y16388D01*
X147933Y31890D02*
X148626Y31197D01*
X151575Y30512D02*
X153280Y28807D01*
X150889Y31197D02*
X151575Y30512D01*
X151575D01*
X148626Y31197D02*
X150889D01*
X153280Y27429D02*
Y28807D01*
Y27429D02*
X153543Y27165D01*
X136617Y48766D02*
X137402Y47982D01*
X132828Y48766D02*
X136617D01*
X131102Y50492D02*
X132828Y48766D01*
X130905Y50689D02*
X131102Y50492D01*
X130905Y50689D02*
Y58661D01*
X171137Y303223D02*
X177387D01*
X177461Y303150D01*
X165157Y303297D02*
X171063D01*
X171137Y303223D01*
X108416Y159302D02*
X109105Y159991D01*
X108416Y154055D02*
Y159991D01*
X108342Y160754D02*
Y165280D01*
X108268Y165354D02*
X108342Y165280D01*
Y160754D02*
X109105Y159991D01*
X108416Y154055D02*
Y159302D01*
Y154055D02*
X109105Y153366D01*
X108416Y154055D02*
X109105Y153366D01*
X97539Y140748D02*
X100787Y137500D01*
X102362D01*
X102471Y136702D02*
Y137391D01*
X102362Y137500D02*
X102471Y137391D01*
X25819Y180874D02*
X26705D01*
X27141Y180438D01*
X91017Y165469D02*
Y169488D01*
X90453Y164906D02*
X91017Y165469D01*
X79847Y179355D02*
X83932D01*
X84055Y179232D01*
X79473Y179729D02*
X79724Y179478D01*
X79847Y179355D01*
X86319Y156004D02*
X89622D01*
X90551Y156933D01*
X94390Y337303D02*
X95177Y336516D01*
X42165Y301516D02*
X42244Y301437D01*
Y295603D02*
Y301437D01*
Y295603D02*
X42323Y295525D01*
X42165Y279784D02*
Y284687D01*
X47165Y289687D02*
Y301516D01*
X42165Y284687D02*
X47165Y289687D01*
X37266Y295625D02*
Y301415D01*
Y295625D02*
X37366Y295525D01*
X31496Y293197D02*
Y296900D01*
X31545Y284448D02*
X39630Y292533D01*
Y304849D01*
X156134Y287236D02*
X156398Y287500D01*
X153691Y283563D02*
X156134Y286006D01*
X153691Y283169D02*
Y283563D01*
X156134Y286006D02*
Y287236D01*
X21654Y301181D02*
Y305118D01*
X14567Y294094D02*
X21654Y301181D01*
X14567Y280289D02*
Y294094D01*
X25295Y302017D02*
X26378Y303100D01*
X16142Y279637D02*
Y292864D01*
X25295Y302017D01*
Y302017D01*
X17717Y290256D02*
X19193Y291732D01*
X17717Y278985D02*
Y290256D01*
X37165Y301516D02*
X37266Y301415D01*
X37165Y301516D02*
X37185Y301535D01*
X-689Y317224D02*
X26576D01*
X98228Y335314D02*
Y343624D01*
X99123Y345900D02*
X100000Y346778D01*
X98228Y343624D02*
X99123Y344518D01*
Y345900D01*
X100000Y346778D02*
X105020D01*
X26378Y303100D02*
X31496D01*
X52067Y295965D02*
Y301417D01*
X51968Y295866D02*
X52067Y295965D01*
Y301417D02*
X52165Y301516D01*
X37185Y301535D02*
Y306575D01*
X42165Y301516D02*
X42416Y301766D01*
X153543Y270177D02*
Y270453D01*
X157264Y266732D02*
X171161D01*
X153543Y270177D02*
X153937Y269783D01*
X154213D01*
X157264Y266732D01*
X171850Y267421D02*
Y267612D01*
X171161Y266732D02*
X171850Y267421D01*
X153937Y271604D02*
X158957Y276624D01*
X153543Y270453D02*
X153937Y270847D01*
X158957Y276624D02*
Y276624D01*
X153937Y270847D02*
Y271604D01*
X158957Y276624D02*
X160039Y277706D01*
X160433D01*
X155610Y256371D02*
X161050Y261811D01*
X171616D01*
X155610Y255118D02*
Y256371D01*
X171616Y261811D02*
X175591Y265785D01*
Y276864D01*
X153941Y253346D02*
X155610Y255016D01*
Y255118D01*
X148917Y253346D02*
X153941D01*
X142422Y266043D02*
X142816D01*
X139665Y257087D02*
Y263287D01*
X143898Y267126D02*
Y267520D01*
X142816Y266043D02*
X143898Y267126D01*
X139665Y263287D02*
X142422Y266043D01*
X132283Y259744D02*
X134941Y257087D01*
X139665D01*
X132283Y259744D02*
Y260020D01*
X149409Y260827D02*
X150098Y261516D01*
Y267520D01*
X147146Y260827D02*
X149409D01*
X144095Y245768D02*
Y257776D01*
X146653Y260236D02*
Y260335D01*
X146457Y260138D02*
X146555D01*
X146653Y260335D02*
X147146Y260827D01*
X146555Y260138D02*
X146653Y260236D01*
X144095Y257776D02*
X146457Y260138D01*
X144095Y245768D02*
X150197Y239665D01*
Y233268D02*
Y239665D01*
X167421Y255118D02*
X171850D01*
X155905Y279135D02*
X159546Y282776D01*
X153918Y279135D02*
X155905D01*
X159546Y282776D02*
Y283169D01*
X164223D01*
X153543Y278760D02*
X153918Y279135D01*
X70936Y322904D02*
X78740Y330709D01*
Y353365D02*
X84233Y358858D01*
X78740Y330709D02*
Y353365D01*
X67283Y322303D02*
X67884Y322904D01*
X70936D01*
X66250Y322303D02*
X67283D01*
X77894Y102500D02*
X81693Y106299D01*
Y118826D01*
Y120079D01*
X70236Y102500D02*
X77894D01*
X63386Y102362D02*
X63524Y102500D01*
X70236D01*
X93208Y113386D02*
X93306Y113484D01*
X97539D01*
X35236Y248130D02*
X91634D01*
X104232Y260728D01*
Y280954D01*
X124587Y273602D02*
X129803D01*
X124370Y273386D02*
X124587Y273602D01*
X129803D02*
X130020Y273819D01*
X39630Y304849D02*
X44230Y309449D01*
X67470D02*
X78051Y298868D01*
X44230Y309449D02*
X67470D01*
X42416Y305408D02*
X44882Y307874D01*
X55020D01*
X57165Y305728D01*
X42416Y301766D02*
Y305408D01*
X26576Y317224D02*
X37205Y306594D01*
X37185Y306575D02*
X37205Y306594D01*
X67510Y174793D02*
X73081D01*
X67323Y174606D02*
X67510Y174793D01*
X57165Y301516D02*
Y305728D01*
X31742Y272933D02*
Y273327D01*
Y272933D02*
X36614Y268061D01*
Y255906D02*
Y268061D01*
X31742Y273327D02*
Y277757D01*
X73081Y174793D02*
X73268Y174980D01*
X51535Y189980D02*
X51545Y189971D01*
X57569D01*
X57579Y189961D01*
X78051Y298868D02*
X78445D01*
X91831Y309252D02*
X95227D01*
X104232Y280954D02*
X112057Y288779D01*
Y289567D01*
X-1969Y53543D02*
X3347Y48228D01*
X62165Y272697D02*
Y279784D01*
X61614Y272146D02*
X62165Y272697D01*
X69385Y292668D02*
X72933D01*
X55309Y274237D02*
X57284D01*
X53543Y272471D02*
X55309Y274237D01*
X53543Y272146D02*
Y272471D01*
X31201Y278298D02*
X31742Y277757D01*
X26280Y284399D02*
X26329Y284448D01*
X31545D01*
X42269Y273332D02*
Y279680D01*
X42165Y279784D02*
X42269Y279680D01*
Y273332D02*
X42372Y273228D01*
X48708Y273093D02*
X52596D01*
X53543Y272146D01*
X48572Y273228D02*
X48708Y273093D01*
X57347Y279965D02*
Y283675D01*
X72539Y298868D01*
X57165Y279784D02*
X57347Y279965D01*
X72539Y298868D02*
X72933D01*
X67165Y281634D02*
X76968Y291437D01*
Y291585D02*
X78051Y292668D01*
X78445D01*
X67165Y279784D02*
Y281634D01*
X76968Y291437D02*
Y291585D01*
X90340Y314061D02*
X90340Y314061D01*
X89272Y311518D02*
Y311713D01*
X90340Y312781D02*
Y314061D01*
X89272Y311713D02*
X90340Y312781D01*
X90340Y314061D02*
Y315703D01*
X90847Y315846D02*
X94468D01*
X90197D02*
X90340Y315703D01*
X86713Y310138D02*
X93012Y303839D01*
X86713Y310138D02*
Y321654D01*
X89016Y322303D02*
X94991D01*
X86713Y321654D02*
X87362Y322303D01*
X89016D01*
X81870Y191958D02*
Y213858D01*
X80117Y190205D02*
X81870Y191958D01*
X89961Y141043D02*
Y146063D01*
X90551Y146653D01*
X89961Y141043D02*
X91339Y139665D01*
X93386Y108189D02*
Y113386D01*
X126673Y261713D02*
X131890Y266930D01*
Y267933D01*
X132283Y268327D01*
X126279Y261713D02*
X126673D01*
X118233Y295103D02*
X118257Y295079D01*
X118233Y295103D02*
Y299483D01*
X118209Y299508D02*
X118233Y299483D01*
X130002Y278659D02*
X130266Y278923D01*
X124370Y278386D02*
X124644Y278659D01*
X130002D01*
X121063Y261713D02*
X126279D01*
X124370Y273386D02*
X125630D01*
X126279Y272736D01*
Y267913D02*
Y272736D01*
X30046Y180636D02*
X30309Y180373D01*
X32127D02*
X32185Y180315D01*
X30309Y180373D02*
X32127D01*
X27141Y175763D02*
X27313Y175591D01*
X27141Y175763D02*
Y180438D01*
X70236Y107500D02*
X70246Y107490D01*
X76959D01*
X76968Y107480D01*
X63406Y107500D02*
X70236D01*
X70246Y92510D02*
X83553D01*
X83563Y92520D01*
X70236Y92500D02*
X70246Y92510D01*
X1476Y181496D02*
X1501Y181471D01*
Y175615D02*
X1526Y175591D01*
X1501Y175615D02*
Y181471D01*
X15059Y166890D02*
Y175591D01*
X125600Y138869D02*
Y142463D01*
Y138869D02*
X125689Y138779D01*
X90551Y156933D02*
Y159689D01*
X160088Y287845D02*
Y291781D01*
Y287845D02*
X160236Y287697D01*
X159940Y291929D02*
X160088Y291781D01*
X113976Y278248D02*
X118799D01*
X113583Y277854D02*
X113976Y278248D01*
X112057Y279380D02*
Y283661D01*
Y279380D02*
X113583Y277854D01*
X117175Y293602D02*
X118257Y294685D01*
X112057Y289567D02*
X116093Y293602D01*
X117175D01*
X118257Y294685D02*
Y295079D01*
Y289173D02*
X119045Y288386D01*
X124370D01*
X130059Y293543D02*
X130217Y293701D01*
X124370Y293386D02*
X124528Y293543D01*
X130059D01*
X118533Y283386D02*
X124370D01*
X118257Y283661D02*
X118533Y283386D01*
X136279Y278386D02*
X146102D01*
X131280Y283386D02*
X136279Y278386D01*
X124370Y283386D02*
X131280D01*
X146102Y293386D02*
X147953D01*
X149409Y291929D02*
X153740D01*
X147953Y293386D02*
X149409Y291929D01*
X159646Y297097D02*
X165157D01*
X154134D02*
X159646D01*
X154089Y303341D02*
X154134Y303297D01*
X146102Y303386D02*
X146147Y303341D01*
X154089D01*
X81840Y311762D02*
Y315797D01*
X81791Y311713D02*
X81840Y311762D01*
Y315797D02*
X81890Y315846D01*
X72391D02*
X81890D01*
X32284Y175689D02*
Y180216D01*
X32185Y180315D02*
X36850Y184980D01*
X32185Y180315D02*
X32284Y180216D01*
X150492Y366043D02*
X150984Y365551D01*
X130709Y366043D02*
X150492D01*
X111443Y346778D02*
X130709Y366043D01*
X105020Y346778D02*
X111443D01*
X61447Y347274D02*
X67254D01*
X67283Y347303D01*
X61417Y347244D02*
X61447Y347274D01*
X67283Y352303D02*
X67520Y352539D01*
Y356496D01*
X95227Y309252D02*
X95424Y309449D01*
X93012Y303150D02*
Y303839D01*
X101624Y309449D02*
Y314970D01*
X102500Y315846D01*
X102776D01*
X101377Y341535D02*
X102460Y340453D01*
X104429Y317500D02*
Y338898D01*
X102875Y340453D02*
X104429Y338898D01*
X102460Y340453D02*
X102875D01*
X101377Y341535D02*
Y341929D01*
X102776Y315846D02*
X103051D01*
X103445Y316240D01*
Y316516D01*
X104429Y317500D01*
X71801Y316437D02*
X72391Y315846D01*
X94991Y322303D02*
X95030Y322342D01*
X97047Y325787D02*
X99016Y323819D01*
X100147D02*
X101230Y322736D01*
X99016Y323819D02*
X100147D01*
X101230Y322342D02*
Y322736D01*
X96113Y325787D02*
X97047D01*
X94990Y326909D02*
X96113Y325787D01*
X94990Y326909D02*
Y327303D01*
X95218Y332303D02*
X98228Y335314D01*
X89016Y327303D02*
X94990D01*
X89016Y332303D02*
X95218D01*
X89016Y337303D02*
X89016Y337303D01*
X83366Y337303D02*
X89016D01*
X89016Y337303D02*
X94390D01*
X95177Y341929D02*
Y346909D01*
X95308Y347040D01*
X84646Y349823D02*
Y354626D01*
X87795Y357776D02*
X89350D01*
X84646Y354626D02*
X87795Y357776D01*
X89350D02*
X90433Y358858D01*
X67283Y337303D02*
X67308Y337279D01*
X72810D02*
X72835Y337254D01*
X67308Y337279D02*
X72810D01*
X84233Y358858D02*
Y359252D01*
X84646Y349823D02*
X87165Y347303D01*
X90433Y358858D02*
Y359252D01*
X87165Y347303D02*
X89016D01*
X95571Y352978D02*
X100295D01*
X89016Y352303D02*
X89353Y352640D01*
X95234D01*
X95571Y352978D01*
X89016Y347303D02*
X89279Y347040D01*
X95308D01*
X150395Y202757D02*
Y220375D01*
X150591Y220571D01*
X59308Y320774D02*
X60482D01*
X61565Y321856D02*
Y321949D01*
X60482Y320774D02*
X61565Y321856D01*
X61909Y322687D02*
X64784Y325561D01*
X55365Y316831D02*
X59308Y320774D01*
X65601Y316437D02*
Y321654D01*
X66250Y322303D01*
X61565Y316437D02*
X65601D01*
X55365D02*
Y316831D01*
X64784Y325561D02*
Y326654D01*
X65433Y327303D01*
X67283D01*
X61565Y326969D02*
Y332382D01*
X61643Y332303D02*
X67283D01*
X61565Y332382D02*
X61643Y332303D01*
X61565Y337894D02*
X62155Y337303D01*
X67283D01*
X33563Y332382D02*
X55365D01*
X26773Y324804D02*
Y325592D01*
X33563Y332382D01*
X161221Y9843D02*
X161614Y9449D01*
X73268Y184980D02*
Y189980D01*
X133821Y143940D02*
X136951D01*
X137550Y144538D01*
X133248Y143366D02*
X133821Y143940D01*
X126503Y143366D02*
X133248D01*
X125600Y142463D02*
X126503Y143366D01*
X131437Y192854D02*
X140552Y201970D01*
Y202757D01*
X131437Y153366D02*
Y192854D01*
X90453Y159787D02*
X90551Y159689D01*
X71787Y213775D02*
X71870Y213858D01*
X71703Y196457D02*
X71787Y196540D01*
Y213775D01*
X75079Y190669D02*
Y193239D01*
X77903Y196063D01*
X74390Y189980D02*
X75079Y190669D01*
X73268Y189980D02*
X74390D01*
X77903Y196063D02*
Y196457D01*
X53347Y174980D02*
X62328Y183962D01*
Y186688D01*
X71703Y196063D01*
X51535Y174980D02*
X53347D01*
X71703Y196063D02*
Y196457D01*
X73519Y179729D02*
X79473D01*
X73268Y179980D02*
X73519Y179729D01*
X73996Y174980D02*
X74685Y174291D01*
Y168602D02*
Y174291D01*
X73268Y174980D02*
X73996D01*
X50118Y190669D02*
X50807Y189980D01*
X50118Y190669D02*
Y196457D01*
X50807Y189980D02*
X51535D01*
X36850Y184980D02*
X51535D01*
X44980Y175197D02*
X49035Y179252D01*
Y179291D01*
X49724Y179980D02*
X51535D01*
X44587Y175197D02*
X44980D01*
X49035Y179291D02*
X49724Y179980D01*
X38976Y175197D02*
X44587D01*
X38583Y175591D02*
X38976Y175197D01*
X63189Y24016D02*
X112402D01*
X32284Y175689D02*
X32383Y175591D01*
X15059Y166890D02*
X23130Y158819D01*
X31190D01*
X16930Y180166D02*
X21113Y175984D01*
X16930Y180166D02*
Y208661D01*
X26772D02*
X36615D01*
X21113Y175591D02*
Y175984D01*
X1526Y169508D02*
X2215Y168819D01*
X1526Y169508D02*
Y175591D01*
X2215Y168819D02*
X3209D01*
Y158819D02*
Y163819D01*
X26353Y143529D02*
X26378Y143504D01*
X26328Y147539D02*
X26353Y147515D01*
Y143529D02*
Y147515D01*
X26328Y147539D02*
Y153130D01*
X25639Y153819D02*
X26328Y153130D01*
X24941Y153819D02*
X25639D01*
X31190Y158819D02*
X32283Y157726D01*
X32677D01*
X25379Y163381D02*
X32239D01*
X32677Y162943D01*
X24941Y163819D02*
X25379Y163381D01*
X38189Y162943D02*
X38189Y162943D01*
X32677Y162943D02*
X38189D01*
X25103Y168981D02*
X32515D01*
X32677Y169143D01*
X137230Y135113D02*
Y139198D01*
Y135113D02*
X137303Y135039D01*
X137156Y139272D02*
X137230Y139198D01*
X131437Y138366D02*
X136250D01*
X137156Y139272D01*
X137550Y150738D02*
X142962D01*
X135473Y149055D02*
X137156Y150738D01*
X131437Y148366D02*
X132126Y149055D01*
X135473D01*
X137156Y150738D02*
X137550D01*
X119626Y143366D02*
X129626Y153366D01*
X109705Y143366D02*
X119626D01*
X129626Y153366D02*
X131437D01*
X102756Y159597D02*
X103150D01*
X97933Y162346D02*
X98819Y161461D01*
X100892D01*
X102756Y159597D01*
X103051Y159498D02*
X103150Y159597D01*
X103051Y154528D02*
Y159498D01*
X109705Y138366D02*
Y143366D01*
X103051Y147386D02*
Y154528D01*
Y147386D02*
X104032Y148366D01*
X102362Y146697D02*
X103051Y147386D01*
X102362Y146653D02*
Y146697D01*
X104032Y148366D02*
X109705D01*
X94049Y133321D02*
X97539Y136811D01*
X93065Y133321D02*
X94049D01*
X91339Y131595D02*
X93065Y133321D01*
X48228Y90256D02*
X51870D01*
X48130Y90158D02*
X48228Y90256D01*
X51870D02*
X51968Y90354D01*
X65531Y92500D02*
X70236D01*
X63386Y90354D02*
X65531Y92500D01*
X62992Y90354D02*
X63386D01*
X57480D02*
X62992D01*
X51968Y96554D02*
X57480D01*
X62992D01*
X63465Y97027D01*
X69763D02*
X70236Y97500D01*
X63465Y97027D02*
X69763D01*
X63386Y107480D02*
X63406Y107500D01*
X91969D02*
X92697D01*
X93386Y108189D01*
X91969Y97500D02*
Y102500D01*
X92906Y79608D02*
Y79712D01*
Y74052D02*
Y79608D01*
X94463Y78051D01*
X92906Y74052D02*
X92992Y73966D01*
X92697Y79921D02*
X92906Y79712D01*
X94463Y78051D02*
X108661D01*
X107126Y97500D02*
X108661Y95965D01*
X91969Y97500D02*
X107126D01*
D57*
X92520Y232283D02*
X98425D01*
X155177Y35590D02*
Y48268D01*
X155020Y35433D02*
X155177Y35590D01*
Y48268D02*
X155335Y48425D01*
X154724Y35728D02*
X155020Y35433D01*
Y35433D02*
Y35433D01*
X84646Y240158D02*
X92520Y232283D01*
X44488Y32087D02*
Y39075D01*
D58*
X78209Y79921D02*
X84626D01*
X64370Y66083D02*
X78209Y79921D01*
X85082Y73271D02*
Y79176D01*
X130315Y23179D02*
Y29577D01*
X147933Y35630D02*
X154724D01*
X63189Y43701D02*
X112402D01*
X52301Y47146D02*
X55746Y43701D01*
X63189D01*
X44488Y47146D02*
X52301D01*
X33413D02*
X44488D01*
X32677Y46409D02*
X33413Y47146D01*
X12598Y43602D02*
Y44146D01*
X14862Y46409D02*
X32677D01*
X12598Y44146D02*
X14862Y46409D01*
X103051Y127598D02*
Y136811D01*
X112795Y117854D02*
X116732D01*
X103051Y127598D02*
X112795Y117854D01*
X60433Y66083D02*
X64370D01*
D59*
X136171Y28002D02*
X136319Y28150D01*
X130315Y28002D02*
X136171D01*
X37185Y271977D02*
X39370Y269792D01*
X37165Y279784D02*
X37185Y279764D01*
X39370Y269685D02*
Y269792D01*
X37185Y271977D02*
Y279764D01*
X139173Y273327D02*
X139203Y273356D01*
X146073D01*
X295Y310433D02*
Y310433D01*
Y310433D02*
X6646Y304083D01*
Y302173D02*
X8661Y300157D01*
X6646Y302173D02*
Y304083D01*
X-295Y311024D02*
X295Y310433D01*
X-689Y311024D02*
X-295D01*
X-197Y269635D02*
X394Y270226D01*
X3869Y275365D02*
Y275365D01*
X-591Y269635D02*
X-197D01*
X394Y270226D02*
Y271890D01*
X3869Y275365D01*
Y275365D02*
X8661Y280157D01*
X146073Y273356D02*
X146102Y273386D01*
X101083Y270571D02*
Y303150D01*
X84370Y253858D02*
X101083Y270571D01*
D60*
X69370Y253858D02*
D03*
X84370D02*
D03*
X81870Y213858D02*
D03*
X71870D02*
D03*
D61*
X163779Y133071D02*
D03*
Y166535D02*
D03*
X13386Y114764D02*
D03*
Y81299D02*
D03*
D62*
X116732Y181752D02*
D03*
X141732D02*
D03*
Y117854D02*
D03*
X166732D02*
D03*
X116732D02*
D03*
X60433Y66083D02*
D03*
X35433D02*
D03*
Y129980D02*
D03*
X10433D02*
D03*
X60433D02*
D03*
D63*
X166732Y181752D02*
D03*
X10433Y66083D02*
D03*
D64*
X36614Y255906D02*
D03*
X16929D02*
D03*
D65*
X10630Y232285D02*
D03*
X42913D02*
D03*
X47245Y354332D02*
D03*
X6301D02*
D03*
X170867D02*
D03*
X129922D02*
D03*
Y232285D02*
D03*
X170867D02*
D03*
D66*
X36615Y208661D02*
D03*
X26772D02*
D03*
X26773Y324804D02*
D03*
X36615D02*
D03*
X150395D02*
D03*
X160238D02*
D03*
Y202757D02*
D03*
X150395D02*
D03*
D67*
X16930Y208661D02*
D03*
Y324804D02*
D03*
X140552D02*
D03*
Y202757D02*
D03*
D68*
X63189Y43701D02*
D03*
Y24016D02*
D03*
X112402D02*
D03*
Y43701D02*
D03*
D69*
X93583Y275590D02*
D03*
D70*
X83583D02*
D03*
D71*
X138976Y82677D02*
D03*
D72*
X150787Y101181D02*
D03*
D73*
X162598Y82677D02*
D03*
D74*
X8661Y280157D02*
D03*
Y290158D02*
D03*
D75*
Y300157D02*
D03*
D76*
X19094Y168701D02*
D03*
X67126Y228346D02*
D03*
Y259842D02*
D03*
X27559Y19685D02*
D03*
Y74803D02*
D03*
X55118D02*
D03*
X82677Y129921D02*
D03*
X0Y295276D02*
D03*
X27559Y240158D02*
D03*
Y350394D02*
D03*
X55118D02*
D03*
X82677Y295276D02*
D03*
X96457Y47244D02*
D03*
X110236Y129921D02*
D03*
X96457Y212598D02*
D03*
X124016Y157480D02*
D03*
X137795Y350394D02*
D03*
X161417Y354331D02*
D03*
X169291Y338583D02*
D03*
Y307087D02*
D03*
X161417Y228346D02*
D03*
X169291Y212598D02*
D03*
Y149606D02*
D03*
X161417Y102362D02*
D03*
X169291Y86614D02*
D03*
Y55118D02*
D03*
X153543Y338583D02*
D03*
Y244094D02*
D03*
X145669Y228346D02*
D03*
X153543Y212598D02*
D03*
Y181102D02*
D03*
X145669Y165354D02*
D03*
X153543Y149606D02*
D03*
Y118110D02*
D03*
Y86614D02*
D03*
X145669Y70866D02*
D03*
X129921Y322835D02*
D03*
X137795Y307087D02*
D03*
Y244094D02*
D03*
X129921Y196850D02*
D03*
Y102362D02*
D03*
Y70866D02*
D03*
X114173Y354331D02*
D03*
X122047Y338583D02*
D03*
X114173Y322835D02*
D03*
X122047Y307087D02*
D03*
X114173Y259842D02*
D03*
X122047Y244094D02*
D03*
X114173Y228346D02*
D03*
X122047Y212598D02*
D03*
X114173Y196850D02*
D03*
X122047Y149606D02*
D03*
X114173Y102362D02*
D03*
X122047Y86614D02*
D03*
X114173Y7874D02*
D03*
X98425Y259842D02*
D03*
Y228346D02*
D03*
Y196850D02*
D03*
X106299Y181102D02*
D03*
Y118110D02*
D03*
X98425Y102362D02*
D03*
Y70866D02*
D03*
Y39370D02*
D03*
Y7874D02*
D03*
X82677Y291338D02*
D03*
Y259842D02*
D03*
Y228346D02*
D03*
Y165354D02*
D03*
Y133858D02*
D03*
Y39370D02*
D03*
Y7874D02*
D03*
X74803Y307087D02*
D03*
X66929Y196850D02*
D03*
Y7874D02*
D03*
X59055Y307087D02*
D03*
X51181Y259842D02*
D03*
Y228346D02*
D03*
X59055Y118110D02*
D03*
Y86614D02*
D03*
X51181Y70866D02*
D03*
X59055Y55118D02*
D03*
X51181Y39370D02*
D03*
Y7874D02*
D03*
X35433Y354331D02*
D03*
X43307Y338583D02*
D03*
Y244094D02*
D03*
X35433Y228346D02*
D03*
X43307Y212598D02*
D03*
Y149606D02*
D03*
Y118110D02*
D03*
X35433Y102362D02*
D03*
X43307Y86614D02*
D03*
Y55118D02*
D03*
Y23622D02*
D03*
X35433Y7874D02*
D03*
X19685Y354331D02*
D03*
X27559Y338583D02*
D03*
Y244094D02*
D03*
X19685Y196850D02*
D03*
Y133858D02*
D03*
X27559Y118110D02*
D03*
X19685Y102362D02*
D03*
X27559Y86614D02*
D03*
X19685Y70866D02*
D03*
X27559Y55118D02*
D03*
X19685Y39370D02*
D03*
X27559Y23622D02*
D03*
X19685Y7874D02*
D03*
X11811Y338583D02*
D03*
X3937Y322835D02*
D03*
X11811Y307087D02*
D03*
Y244094D02*
D03*
X3937Y228346D02*
D03*
Y196850D02*
D03*
X11811Y181102D02*
D03*
Y149606D02*
D03*
X3937Y102362D02*
D03*
X11811Y86614D02*
D03*
Y55118D02*
D03*
X137795Y295276D02*
D03*
Y240158D02*
D03*
X151575Y157480D02*
D03*
X110236Y350394D02*
D03*
X124016Y322835D02*
D03*
Y212598D02*
D03*
X82677Y19685D02*
D03*
X55118D02*
D03*
X41339Y212598D02*
D03*
Y102362D02*
D03*
X13780Y157480D02*
D03*
Y102362D02*
D03*
X0Y19685D02*
D03*
X168307Y271654D02*
D03*
X97441Y120079D02*
D03*
X86713D02*
D03*
X15551Y267815D02*
D03*
X137795Y57087D02*
D03*
X146653Y10827D02*
D03*
X150098Y12795D02*
D03*
X153543Y27165D02*
D03*
X130905Y58661D02*
D03*
X118110Y19685D02*
D03*
X177461Y303150D02*
D03*
X108268Y165354D02*
D03*
X149606Y44291D02*
D03*
X91017Y169488D02*
D03*
X84055Y179232D02*
D03*
X86319Y156004D02*
D03*
X84646Y240158D02*
D03*
X98425Y232283D02*
D03*
X170276Y11811D02*
D03*
X42323Y295525D02*
D03*
X37366D02*
D03*
X31496Y293197D02*
D03*
X156398Y287500D02*
D03*
X19193Y291732D02*
D03*
X21654Y305118D02*
D03*
X51968Y295866D02*
D03*
X171850Y255118D02*
D03*
X97539Y113484D02*
D03*
X118110Y29232D02*
D03*
X39370Y269685D02*
D03*
X139173Y273327D02*
D03*
X130020Y273819D02*
D03*
X49213Y165354D02*
D03*
Y143701D02*
D03*
X67323Y174606D02*
D03*
X57579Y189961D02*
D03*
X91831Y309252D02*
D03*
X3347Y48228D02*
D03*
X89272Y311516D02*
D03*
X118209Y299508D02*
D03*
X130266Y278923D02*
D03*
X30046Y180636D02*
D03*
X26969Y180610D02*
D03*
X76968Y107480D02*
D03*
X83563Y92520D02*
D03*
X1476Y181496D02*
D03*
X15059Y175591D02*
D03*
X125689Y138779D02*
D03*
X119783Y45177D02*
D03*
X160236Y287697D02*
D03*
X118799Y278248D02*
D03*
X130217Y293701D02*
D03*
X81791Y311713D02*
D03*
X61417Y347244D02*
D03*
X67520Y356496D02*
D03*
X83366Y337303D02*
D03*
X72835Y337254D02*
D03*
X157087Y3839D02*
D03*
X166043Y11811D02*
D03*
X118602Y9055D02*
D03*
X100368Y92546D02*
D03*
X44488Y32087D02*
D03*
X26378Y143504D02*
D03*
X137303Y135039D02*
D03*
X48130Y90158D02*
D03*
D77*
X167421Y255118D02*
D03*
X155610D02*
D03*
X90551Y146653D02*
D03*
X102362D02*
D03*
X93504Y120079D02*
D03*
X81693D02*
D03*
D78*
X67165Y279784D02*
D03*
X62165D02*
D03*
X57165D02*
D03*
X52165D02*
D03*
X47165D02*
D03*
X42165D02*
D03*
X37165D02*
D03*
X67165Y301516D02*
D03*
X62165D02*
D03*
X57165D02*
D03*
X52165D02*
D03*
X47165D02*
D03*
X42165D02*
D03*
X37165D02*
D03*
D79*
X153543Y278760D02*
D03*
Y270453D02*
D03*
X132283Y268327D02*
D03*
Y260020D02*
D03*
D80*
X67283Y322303D02*
D03*
Y327303D02*
D03*
Y332303D02*
D03*
Y337303D02*
D03*
Y342303D02*
D03*
Y347303D02*
D03*
Y352303D02*
D03*
X89016Y322303D02*
D03*
Y327303D02*
D03*
Y332303D02*
D03*
Y337303D02*
D03*
Y342303D02*
D03*
Y347303D02*
D03*
Y352303D02*
D03*
X124370Y273386D02*
D03*
Y278386D02*
D03*
Y283386D02*
D03*
Y288386D02*
D03*
Y293386D02*
D03*
Y298386D02*
D03*
Y303386D02*
D03*
X146102Y273386D02*
D03*
Y278386D02*
D03*
Y283386D02*
D03*
Y288386D02*
D03*
Y293386D02*
D03*
Y298386D02*
D03*
Y303386D02*
D03*
D81*
X51535Y174980D02*
D03*
Y179980D02*
D03*
Y184980D02*
D03*
Y189980D02*
D03*
X73268Y174980D02*
D03*
Y179980D02*
D03*
Y184980D02*
D03*
Y189980D02*
D03*
X131437Y153366D02*
D03*
Y148366D02*
D03*
Y143366D02*
D03*
Y138366D02*
D03*
X109705Y153366D02*
D03*
Y148366D02*
D03*
Y143366D02*
D03*
Y138366D02*
D03*
X24941Y168819D02*
D03*
Y163819D02*
D03*
Y158819D02*
D03*
Y153819D02*
D03*
X3209Y168819D02*
D03*
Y163819D02*
D03*
Y158819D02*
D03*
Y153819D02*
D03*
X91969Y107500D02*
D03*
Y102500D02*
D03*
Y97500D02*
D03*
Y92500D02*
D03*
X70236Y107500D02*
D03*
Y102500D02*
D03*
Y97500D02*
D03*
Y92500D02*
D03*
D82*
X90453Y159787D02*
D03*
Y164906D02*
D03*
X97933Y162346D02*
D03*
D83*
X103051Y140748D02*
D03*
Y136811D02*
D03*
X97539Y140748D02*
D03*
Y136811D02*
D03*
X85039Y69291D02*
D03*
Y73228D02*
D03*
D84*
X171850Y267612D02*
D03*
X175591Y276864D02*
D03*
X168110D02*
D03*
D85*
X147933Y35630D02*
D03*
Y31890D02*
D03*
Y28150D02*
D03*
X136319D02*
D03*
Y35630D02*
D03*
D86*
X164567Y28169D02*
D03*
Y16713D02*
D03*
D87*
X164173Y43307D02*
D03*
Y55905D02*
D03*
D88*
X150984Y347638D02*
D03*
Y365551D02*
D03*
X108661Y78051D02*
D03*
Y95965D02*
D03*
X12598Y43602D02*
D03*
Y25689D02*
D03*
D89*
X155335Y48425D02*
D03*
X143878D02*
D03*
M02*
