G04*
G04 #@! TF.GenerationSoftware,Altium Limited,Altium Designer,23.1.1 (15)*
G04*
G04 Layer_Color=128*
%FSLAX25Y25*%
%MOIN*%
G70*
G04*
G04 #@! TF.SameCoordinates,434D1FB9-1166-4A3C-A543-B38E0AA6253E*
G04*
G04*
G04 #@! TF.FilePolarity,Positive*
G04*
G01*
G75*
%ADD105C,0.00200*%
D105*
X34449Y255906D02*
X38780D01*
X36614Y253740D02*
Y258071D01*
X14764Y255906D02*
X19094D01*
X16929Y253740D02*
Y258071D01*
X8071Y232285D02*
X13189D01*
X10630Y229726D02*
Y234844D01*
X34450Y208661D02*
X38781D01*
X36615Y206496D02*
Y210827D01*
X24606Y208661D02*
X28937D01*
X26772Y206496D02*
Y210827D01*
X14765Y208661D02*
X19096D01*
X16930Y206496D02*
Y210827D01*
X40354Y232285D02*
X45472D01*
X42913Y229726D02*
Y234844D01*
X44686Y354332D02*
X49804D01*
X47245Y351773D02*
Y356891D01*
X14765Y324804D02*
X19096D01*
X16930Y322639D02*
Y326970D01*
X24608Y324804D02*
X28938D01*
X26773Y322639D02*
Y326970D01*
X34450Y324804D02*
X38781D01*
X36615Y322639D02*
Y326970D01*
X3741Y354332D02*
X8860D01*
X6301Y351773D02*
Y356891D01*
X168308Y354332D02*
X173426D01*
X170867Y351773D02*
Y356891D01*
X138387Y324804D02*
X142718D01*
X140552Y322639D02*
Y326970D01*
X148230Y324804D02*
X152560D01*
X150395Y322639D02*
Y326970D01*
X158072Y324804D02*
X162403D01*
X160238Y322639D02*
Y326970D01*
X127364Y354332D02*
X132482D01*
X129922Y351773D02*
Y356891D01*
X127364Y232285D02*
X132482D01*
X129922Y229726D02*
Y234844D01*
X158072Y202757D02*
X162403D01*
X160238Y200592D02*
Y204922D01*
X148230Y202757D02*
X152560D01*
X150395Y200592D02*
Y204922D01*
X138387Y202757D02*
X142718D01*
X140552Y200592D02*
Y204922D01*
X168308Y232285D02*
X173426D01*
X170867Y229726D02*
Y234844D01*
X60827Y43701D02*
X65551D01*
X63189Y41339D02*
Y46063D01*
X60827Y24016D02*
X65551D01*
X63189Y21654D02*
Y26378D01*
X110039Y24016D02*
X114764D01*
X112402Y21654D02*
Y26378D01*
X110039Y43701D02*
X114764D01*
X112402Y41339D02*
Y46063D01*
X84449Y51575D02*
X91142D01*
X87795Y48228D02*
Y54921D01*
X84449Y16142D02*
X91142D01*
X87795Y12795D02*
Y19488D01*
X78006Y225315D02*
X81206D01*
X79606Y223715D02*
Y226915D01*
X78006Y235315D02*
X81206D01*
X79606Y233715D02*
Y236915D01*
X118006Y237815D02*
X121206D01*
X119606Y236215D02*
Y239415D01*
X118006Y222815D02*
X121206D01*
X119606Y221215D02*
Y224415D01*
X91833Y275590D02*
X95333D01*
X93583Y273840D02*
Y277341D01*
X81833Y275590D02*
X85333D01*
X83583Y273840D02*
Y277341D01*
X113779Y117854D02*
X119685D01*
X116732Y114902D02*
Y120807D01*
X163779Y117854D02*
X169685D01*
X166732Y114902D02*
Y120807D01*
X138779Y117854D02*
X144685D01*
X141732Y114902D02*
Y120807D01*
X138779Y181752D02*
X144685D01*
X141732Y178799D02*
Y184705D01*
X163779Y181752D02*
X169685D01*
X166732Y178799D02*
Y184705D01*
X113779Y181752D02*
X119685D01*
X116732Y178799D02*
Y184705D01*
X162795Y166535D02*
X164764D01*
X163779Y165551D02*
Y167520D01*
X162795Y133071D02*
X164764D01*
X163779Y132087D02*
Y134055D01*
X57480Y129980D02*
X63386D01*
X60433Y127028D02*
Y132933D01*
X7480Y129980D02*
X13386D01*
X10433Y127028D02*
Y132933D01*
X32480Y129980D02*
X38386D01*
X35433Y127028D02*
Y132933D01*
X32480Y66083D02*
X38386D01*
X35433Y63130D02*
Y69035D01*
X7480Y66083D02*
X13386D01*
X10433Y63130D02*
Y69035D01*
X57480Y66083D02*
X63386D01*
X60433Y63130D02*
Y69035D01*
X12402Y81299D02*
X14370D01*
X13386Y80315D02*
Y82284D01*
X12402Y114764D02*
X14370D01*
X13386Y113779D02*
Y115748D01*
X137008Y82677D02*
X140945D01*
X138976Y80709D02*
Y84646D01*
X148819Y101181D02*
X152756D01*
X150787Y99213D02*
Y103150D01*
X160630Y82677D02*
X164567D01*
X162598Y80709D02*
Y84646D01*
X7061Y280157D02*
X10261D01*
X8661Y278557D02*
Y281757D01*
X7061Y290158D02*
X10261D01*
X8661Y288558D02*
Y291757D01*
X7061Y300157D02*
X10261D01*
X8661Y298557D02*
Y301758D01*
X152953Y244094D02*
X154134D01*
X153543Y243504D02*
Y244685D01*
X160827Y228346D02*
X162008D01*
X161417Y227756D02*
Y228937D01*
X97835Y70866D02*
X99016D01*
X98425Y70276D02*
Y71457D01*
X26969Y307087D02*
X28150D01*
X27559Y306496D02*
Y307677D01*
X121457Y149606D02*
X122638D01*
X122047Y149016D02*
Y150197D01*
X168701Y212598D02*
X169882D01*
X169291Y212008D02*
Y213189D01*
X74213Y55118D02*
X75394D01*
X74803Y54527D02*
Y55709D01*
X11220Y86614D02*
X12402D01*
X11811Y86024D02*
Y87205D01*
X145079Y165354D02*
X146260D01*
X145669Y164764D02*
Y165945D01*
X168701Y307087D02*
X169882D01*
X169291Y306496D02*
Y307677D01*
X125821Y67356D02*
X127002D01*
X126411Y66766D02*
Y67947D01*
X152953Y212598D02*
X154134D01*
X153543Y212008D02*
Y213189D01*
X137205Y149606D02*
X138386D01*
X137795Y149016D02*
Y150197D01*
X145079Y133858D02*
X146260D01*
X145669Y133268D02*
Y134449D01*
X105709Y181102D02*
X106890D01*
X106299Y180512D02*
Y181693D01*
X58464Y275590D02*
X59646D01*
X59055Y275000D02*
Y276181D01*
X168701Y149606D02*
X169882D01*
X169291Y149016D02*
Y150197D01*
X97835Y259842D02*
X99016D01*
X98425Y259252D02*
Y260433D01*
X121457Y244094D02*
X122638D01*
X122047Y243504D02*
Y244685D01*
X34843Y354331D02*
X36024D01*
X35433Y353740D02*
Y354921D01*
X82087Y7874D02*
X83268D01*
X82677Y7283D02*
Y8465D01*
X19094Y291338D02*
X20276D01*
X19685Y290748D02*
Y291929D01*
X19094Y102362D02*
X20276D01*
X19685Y101772D02*
Y102953D01*
X97835Y39370D02*
X99016D01*
X98425Y38780D02*
Y39961D01*
X82087Y39370D02*
X83268D01*
X82677Y38780D02*
Y39961D01*
X11220Y244094D02*
X12402D01*
X11811Y243504D02*
Y244685D01*
X3346Y102362D02*
X4527D01*
X3937Y101772D02*
Y102953D01*
X113583Y228346D02*
X114764D01*
X114173Y227756D02*
Y228937D01*
X145079Y354331D02*
X146260D01*
X145669Y353740D02*
Y354921D01*
X11220Y307087D02*
X12402D01*
X11811Y306496D02*
Y307677D01*
X145079Y228346D02*
X146260D01*
X145669Y227756D02*
Y228937D01*
X152953Y275590D02*
X154134D01*
X153543Y275000D02*
Y276181D01*
X113583Y259842D02*
X114764D01*
X114173Y259252D02*
Y260433D01*
X19094Y70866D02*
X20276D01*
X19685Y70276D02*
Y71457D01*
X113583Y7874D02*
X114764D01*
X114173Y7283D02*
Y8465D01*
X105709Y212598D02*
X106890D01*
X106299Y212008D02*
Y213189D01*
X42717Y86614D02*
X43898D01*
X43307Y86024D02*
Y87205D01*
X137205Y244094D02*
X138386D01*
X137795Y243504D02*
Y244685D01*
X42717Y307087D02*
X43898D01*
X43307Y306496D02*
Y307677D01*
X42717Y55118D02*
X43898D01*
X43307Y54527D02*
Y55709D01*
X50590Y7874D02*
X51772D01*
X51181Y7283D02*
Y8465D01*
X145079Y7874D02*
X146260D01*
X145669Y7283D02*
Y8465D01*
X26969Y275590D02*
X28150D01*
X27559Y275000D02*
Y276181D01*
X97835Y7874D02*
X99016D01*
X98425Y7283D02*
Y8465D01*
X113583Y354331D02*
X114764D01*
X114173Y353740D02*
Y354921D01*
X19094Y228346D02*
X20276D01*
X19685Y227756D02*
Y228937D01*
X26969Y149606D02*
X28150D01*
X27559Y149016D02*
Y150197D01*
X152953Y118110D02*
X154134D01*
X153543Y117520D02*
Y118701D01*
X50590Y228346D02*
X51772D01*
X51181Y227756D02*
Y228937D01*
X121457Y338583D02*
X122638D01*
X122047Y337992D02*
Y339173D01*
X105709Y55118D02*
X106890D01*
X106299Y54527D02*
Y55709D01*
X89961Y244094D02*
X91142D01*
X90551Y243504D02*
Y244685D01*
X74213Y212598D02*
X75394D01*
X74803Y212008D02*
Y213189D01*
X11220Y275590D02*
X12402D01*
X11811Y275000D02*
Y276181D01*
X145079Y70866D02*
X146260D01*
X145669Y70276D02*
Y71457D01*
X66339Y7874D02*
X67520D01*
X66929Y7283D02*
Y8465D01*
X168701Y338583D02*
X169882D01*
X169291Y337992D02*
Y339173D01*
X42717Y118110D02*
X43898D01*
X43307Y117520D02*
Y118701D01*
X160827Y354331D02*
X162008D01*
X161417Y353740D02*
Y354921D01*
X168701Y275590D02*
X169882D01*
X169291Y275000D02*
Y276181D01*
X66339Y322835D02*
X67520D01*
X66929Y322244D02*
Y323425D01*
X58464Y55118D02*
X59646D01*
X59055Y54527D02*
Y55709D01*
X26969Y118110D02*
X28150D01*
X27559Y117520D02*
Y118701D01*
X168701Y244094D02*
X169882D01*
X169291Y243504D02*
Y244685D01*
X160827Y102362D02*
X162008D01*
X161417Y101772D02*
Y102953D01*
X152953Y338583D02*
X154134D01*
X153543Y337992D02*
Y339173D01*
X168701Y86614D02*
X169882D01*
X169291Y86024D02*
Y87205D01*
X113583Y291338D02*
X114764D01*
X114173Y290748D02*
Y291929D01*
X105709Y118110D02*
X106890D01*
X106299Y117520D02*
Y118701D01*
X50590Y291338D02*
X51772D01*
X51181Y290748D02*
Y291929D01*
X42717Y275590D02*
X43898D01*
X43307Y275000D02*
Y276181D01*
X19094Y354331D02*
X20276D01*
X19685Y353740D02*
Y354921D01*
X137205Y307087D02*
X138386D01*
X137795Y306496D02*
Y307677D01*
X152953Y86614D02*
X154134D01*
X153543Y86024D02*
Y87205D01*
X26969Y86614D02*
X28150D01*
X27559Y86024D02*
Y87205D01*
X82087Y133858D02*
X83268D01*
X82677Y133268D02*
Y134449D01*
X129331Y102362D02*
X130512D01*
X129921Y101772D02*
Y102953D01*
X26969Y244094D02*
X28150D01*
X27559Y243504D02*
Y244685D01*
X26969Y55118D02*
X28150D01*
X27559Y54527D02*
Y55709D01*
X61614Y262992D02*
X62795D01*
X62205Y262402D02*
Y263583D01*
X107628Y311368D02*
X108809D01*
X108218Y310777D02*
Y311958D01*
X175787Y58268D02*
X176969D01*
X176378Y57677D02*
Y58858D01*
X144332Y41750D02*
X145513D01*
X144923Y41160D02*
Y42341D01*
X152559Y25984D02*
X153740D01*
X153150Y25394D02*
Y26575D01*
X125886Y23524D02*
X127067D01*
X126476Y22933D02*
Y24114D01*
X142323Y16929D02*
X143504D01*
X142913Y16339D02*
Y17520D01*
X154134Y9449D02*
X155315D01*
X154724Y8858D02*
Y10039D01*
X119488Y70079D02*
X120669D01*
X120079Y69488D02*
Y70669D01*
X96759Y78110D02*
X97940D01*
X97349Y77520D02*
Y78701D01*
X-787Y191374D02*
X394D01*
X-197Y190784D02*
Y191965D01*
X41142Y161127D02*
X42323D01*
X41732Y160537D02*
Y161718D01*
X50091Y150787D02*
X51272D01*
X50681Y150197D02*
Y151378D01*
X97835Y325590D02*
X99016D01*
X98425Y325000D02*
Y326181D01*
X58858Y139764D02*
X60039D01*
X59449Y139173D02*
Y140354D01*
X76772Y105118D02*
X77953D01*
X77362Y104528D02*
Y105709D01*
X125394Y76378D02*
X126575D01*
X125984Y75787D02*
Y76968D01*
X94311Y162500D02*
X95492D01*
X94902Y161909D02*
Y163091D01*
X67520Y312598D02*
X68701D01*
X68110Y312008D02*
Y313189D01*
X125394Y9055D02*
X126575D01*
X125984Y8465D02*
Y9646D01*
X73032Y84252D02*
X74213D01*
X73622Y83661D02*
Y84842D01*
X125394Y129528D02*
X126575D01*
X125984Y128937D02*
Y130118D01*
X127756Y173622D02*
X128937D01*
X128347Y173031D02*
Y174213D01*
X118701Y207874D02*
X119882D01*
X119291Y207283D02*
Y208465D01*
X80124Y161765D02*
X81305D01*
X80715Y161175D02*
Y162356D01*
X97415Y185459D02*
X98596D01*
X98006Y184868D02*
Y186049D01*
X84449Y187845D02*
X85630D01*
X85039Y187254D02*
Y188435D01*
X98228Y99213D02*
X99410D01*
X98819Y98622D02*
Y99803D01*
X106102Y104724D02*
X107283D01*
X106693Y104134D02*
Y105315D01*
X63976Y328740D02*
X65158D01*
X64567Y328150D02*
Y329331D01*
X12559Y162362D02*
X13740D01*
X13150Y161772D02*
Y162953D01*
X16732Y40945D02*
X17913D01*
X17323Y40354D02*
Y41535D01*
X36575Y30472D02*
X37756D01*
X37165Y29882D02*
Y31063D01*
X26575Y30315D02*
X27756D01*
X27165Y29724D02*
Y30906D01*
X41575Y41437D02*
X42756D01*
X42165Y40846D02*
Y42028D01*
X31693Y40945D02*
X32874D01*
X32283Y40354D02*
Y41535D01*
X142913Y137598D02*
X144095D01*
X143504Y137008D02*
Y138189D01*
X123031Y109055D02*
X124213D01*
X123622Y108465D02*
Y109646D01*
X83711Y146013D02*
X84892D01*
X84302Y145423D02*
Y146604D01*
X62402Y33465D02*
X63583D01*
X62992Y32874D02*
Y34055D01*
X11493Y41586D02*
X12675D01*
X12084Y40995D02*
Y42177D01*
X12155Y8514D02*
X13336D01*
X12746Y7924D02*
Y9105D01*
X98179Y13435D02*
X99360D01*
X98769Y12845D02*
Y14026D01*
X94291Y33071D02*
X95472D01*
X94882Y32480D02*
Y33661D01*
X-984Y50394D02*
X197D01*
X-394Y49803D02*
Y50984D01*
X-197Y35827D02*
X984D01*
X394Y35236D02*
Y36417D01*
X7126Y25354D02*
X8307D01*
X7717Y24764D02*
Y25945D01*
X19488Y97638D02*
X20669D01*
X20079Y97047D02*
Y98228D01*
X47047Y109843D02*
X48228D01*
X47638Y109252D02*
Y110433D01*
X67126Y83071D02*
X68307D01*
X67716Y82480D02*
Y83661D01*
X106142Y339331D02*
X107323D01*
X106732Y338740D02*
Y339921D01*
X85716Y206607D02*
X86897D01*
X86306Y206017D02*
Y207198D01*
X75787Y287402D02*
X76968D01*
X76378Y286811D02*
Y287992D01*
X84055Y315354D02*
X85236D01*
X84646Y314764D02*
Y315945D01*
X91535Y305512D02*
X92716D01*
X92126Y304921D02*
Y306102D01*
X91535Y295669D02*
X92716D01*
X92126Y295079D02*
Y296260D01*
X54134Y229528D02*
X55315D01*
X54724Y228937D02*
Y230118D01*
X125394Y81496D02*
X126575D01*
X125984Y80905D02*
Y82087D01*
X91929Y314961D02*
X93110D01*
X92520Y314370D02*
Y315551D01*
X58121Y342864D02*
X59302D01*
X58711Y342273D02*
Y343454D01*
X52165Y326772D02*
X53347D01*
X52756Y326181D02*
Y327362D01*
X56890Y317717D02*
X58071D01*
X57480Y317126D02*
Y318307D01*
X56939Y177509D02*
X58121D01*
X57530Y176919D02*
Y178100D01*
X68862Y160372D02*
X70043D01*
X69453Y159782D02*
Y160963D01*
X115416Y342126D02*
X116597D01*
X116007Y341535D02*
Y342717D01*
X126575Y324410D02*
X127756D01*
X127165Y323819D02*
Y325000D01*
X162795Y247244D02*
X163976D01*
X163386Y246654D02*
Y247835D01*
X167470Y286270D02*
X168651D01*
X168061Y285680D02*
Y286861D01*
X71850Y366929D02*
X73032D01*
X72441Y366339D02*
Y367520D01*
X86024Y339370D02*
X87205D01*
X86614Y338779D02*
Y339961D01*
X91142Y339370D02*
X92323D01*
X91732Y338779D02*
Y339961D01*
X91929Y366929D02*
X93110D01*
X92520Y366339D02*
Y367520D01*
X82480Y365748D02*
X83661D01*
X83071Y365158D02*
Y366339D01*
X140748Y271260D02*
X141929D01*
X141339Y270669D02*
Y271850D01*
X155709Y287795D02*
X156890D01*
X156299Y287205D02*
Y288386D01*
X55315Y220866D02*
X56496D01*
X55905Y220276D02*
Y221457D01*
X60295Y209587D02*
X61476D01*
X60886Y208996D02*
Y210177D01*
X23425Y270472D02*
X24606D01*
X24016Y269882D02*
Y271063D01*
X49016Y245276D02*
X50197D01*
X49606Y244685D02*
Y245866D01*
X39911Y195226D02*
X41092D01*
X40502Y194635D02*
Y195817D01*
X62451Y300344D02*
X63632D01*
X63042Y299753D02*
Y300935D01*
X-591Y185039D02*
X591D01*
X0Y184449D02*
Y185630D01*
X67913Y290551D02*
X69095D01*
X68504Y289961D02*
Y291142D01*
X130118Y301181D02*
X131299D01*
X130709Y300590D02*
Y301772D01*
X31693Y270472D02*
X32874D01*
X32283Y269882D02*
Y271063D01*
X43110Y281890D02*
X44291D01*
X43701Y281299D02*
Y282480D01*
X86417Y83071D02*
X87598D01*
X87008Y82480D02*
Y83661D01*
X108858Y64567D02*
X110039D01*
X109449Y63976D02*
Y65158D01*
X36024Y12598D02*
X37205D01*
X36614Y12008D02*
Y13189D01*
X63189Y139764D02*
X64370D01*
X63779Y139173D02*
Y140354D01*
X77362Y139370D02*
X78543D01*
X77953Y138779D02*
Y139961D01*
X64764Y181890D02*
X65945D01*
X65354Y181299D02*
Y182480D01*
X33661Y195276D02*
X34843D01*
X34252Y194685D02*
Y195866D01*
X73819Y182677D02*
X75000D01*
X74410Y182087D02*
Y183268D01*
X1575Y153150D02*
X2756D01*
X2165Y152559D02*
Y153740D01*
X47441Y160630D02*
X48622D01*
X48031Y160039D02*
Y161221D01*
X60433Y186614D02*
X61614D01*
X61024Y186024D02*
Y187205D01*
X48622Y202756D02*
X49803D01*
X49213Y202165D02*
Y203346D01*
X86811Y60630D02*
X87992D01*
X87402Y60039D02*
Y61221D01*
X91142Y70472D02*
X92323D01*
X91732Y69882D02*
Y71063D01*
X-591Y170079D02*
X591D01*
X0Y169488D02*
Y170669D01*
X5315Y138583D02*
X6496D01*
X5906Y137992D02*
Y139173D01*
M02*
