G04*
G04 #@! TF.GenerationSoftware,Altium Limited,Altium Designer,23.1.1 (15)*
G04*
G04 Layer_Physical_Order=1*
G04 Layer_Color=255*
%FSLAX25Y25*%
%MOIN*%
G70*
G04*
G04 #@! TF.SameCoordinates,434D1FB9-1166-4A3C-A543-B38E0AA6253E*
G04*
G04*
G04 #@! TF.FilePolarity,Positive*
G04*
G01*
G75*
G04:AMPARAMS|DCode=19|XSize=59.06mil|YSize=45.28mil|CornerRadius=5.66mil|HoleSize=0mil|Usage=FLASHONLY|Rotation=0.000|XOffset=0mil|YOffset=0mil|HoleType=Round|Shape=RoundedRectangle|*
%AMROUNDEDRECTD19*
21,1,0.05906,0.03396,0,0,0.0*
21,1,0.04774,0.04528,0,0,0.0*
1,1,0.01132,0.02387,-0.01698*
1,1,0.01132,-0.02387,-0.01698*
1,1,0.01132,-0.02387,0.01698*
1,1,0.01132,0.02387,0.01698*
%
%ADD19ROUNDEDRECTD19*%
%ADD20R,0.06600X0.06000*%
%ADD21R,0.02362X0.02362*%
%ADD22R,0.05984X0.02284*%
%ADD23R,0.02362X0.05984*%
%ADD24R,0.05984X0.02362*%
G04:AMPARAMS|DCode=25|XSize=39.37mil|YSize=31.5mil|CornerRadius=3.94mil|HoleSize=0mil|Usage=FLASHONLY|Rotation=90.000|XOffset=0mil|YOffset=0mil|HoleType=Round|Shape=RoundedRectangle|*
%AMROUNDEDRECTD25*
21,1,0.03937,0.02362,0,0,90.0*
21,1,0.03150,0.03150,0,0,90.0*
1,1,0.00787,0.01181,0.01575*
1,1,0.00787,0.01181,-0.01575*
1,1,0.00787,-0.01181,-0.01575*
1,1,0.00787,-0.01181,0.01575*
%
%ADD25ROUNDEDRECTD25*%
G04:AMPARAMS|DCode=26|XSize=39.37mil|YSize=31.5mil|CornerRadius=3.94mil|HoleSize=0mil|Usage=FLASHONLY|Rotation=180.000|XOffset=0mil|YOffset=0mil|HoleType=Round|Shape=RoundedRectangle|*
%AMROUNDEDRECTD26*
21,1,0.03937,0.02362,0,0,180.0*
21,1,0.03150,0.03150,0,0,180.0*
1,1,0.00787,-0.01575,0.01181*
1,1,0.00787,0.01575,0.01181*
1,1,0.00787,0.01575,-0.01181*
1,1,0.00787,-0.01575,-0.01181*
%
%ADD26ROUNDEDRECTD26*%
G04:AMPARAMS|DCode=27|XSize=59.06mil|YSize=45.28mil|CornerRadius=5.66mil|HoleSize=0mil|Usage=FLASHONLY|Rotation=90.000|XOffset=0mil|YOffset=0mil|HoleType=Round|Shape=RoundedRectangle|*
%AMROUNDEDRECTD27*
21,1,0.05906,0.03396,0,0,90.0*
21,1,0.04774,0.04528,0,0,90.0*
1,1,0.01132,0.01698,0.02387*
1,1,0.01132,0.01698,-0.02387*
1,1,0.01132,-0.01698,-0.02387*
1,1,0.01132,-0.01698,0.02387*
%
%ADD27ROUNDEDRECTD27*%
%ADD28R,0.05709X0.02362*%
%ADD29R,0.03543X0.02756*%
%ADD30R,0.02323X0.01772*%
%ADD31R,0.10433X0.06890*%
%ADD32R,0.06496X0.13583*%
G04:AMPARAMS|DCode=33|XSize=68.9mil|YSize=43.31mil|CornerRadius=5.41mil|HoleSize=0mil|Usage=FLASHONLY|Rotation=0.000|XOffset=0mil|YOffset=0mil|HoleType=Round|Shape=RoundedRectangle|*
%AMROUNDEDRECTD33*
21,1,0.06890,0.03248,0,0,0.0*
21,1,0.05807,0.04331,0,0,0.0*
1,1,0.01083,0.02904,-0.01624*
1,1,0.01083,-0.02904,-0.01624*
1,1,0.01083,-0.02904,0.01624*
1,1,0.01083,0.02904,0.01624*
%
%ADD33ROUNDEDRECTD33*%
%ADD34R,0.11614X0.06496*%
%ADD69C,0.00984*%
%ADD70C,0.01968*%
%ADD71C,0.03937*%
%ADD72O,0.08661X0.07087*%
%ADD73O,0.09055X0.13780*%
%ADD74O,0.07087X0.08661*%
%ADD75R,0.07087X0.08661*%
%ADD76C,0.07874*%
%ADD77C,0.06600*%
%ADD78R,0.05512X0.05512*%
%ADD79C,0.05512*%
%ADD80O,0.15748X0.07874*%
%ADD81R,0.11811X0.07874*%
%ADD82R,0.09449X0.05118*%
%ADD83R,0.09055X0.18898*%
%ADD84R,0.16929X0.09055*%
%ADD85R,0.09055X0.16929*%
%ADD86C,0.06000*%
%ADD87R,0.06000X0.06000*%
%ADD88C,0.02362*%
G36*
X156647Y370866D02*
X156834Y370414D01*
X157286Y370227D01*
X163979D01*
X164431Y370414D01*
X164618Y370866D01*
Y372626D01*
X165118Y372833D01*
X180099Y357852D01*
Y16164D01*
X164939Y1003D01*
X12227Y1003D01*
X-2933Y16164D01*
Y63318D01*
X-2472Y63509D01*
X12205Y48833D01*
Y43358D01*
X11732D01*
X11080Y43088D01*
X10582Y42590D01*
X10312Y41938D01*
Y41234D01*
X10582Y40582D01*
X10980Y40185D01*
Y38703D01*
X11064Y38281D01*
X11303Y37923D01*
X24060Y25167D01*
X23868Y24705D01*
X12205D01*
Y21970D01*
X7150D01*
X1498Y27623D01*
Y34425D01*
X1896Y34823D01*
X2165Y35474D01*
Y36179D01*
X1896Y36830D01*
X1397Y37329D01*
X746Y37598D01*
X41D01*
X-610Y37329D01*
X-1108Y36830D01*
X-1378Y36179D01*
Y35474D01*
X-1108Y34823D01*
X-710Y34425D01*
Y27165D01*
X-626Y26743D01*
X-387Y26385D01*
X5912Y20086D01*
X6271Y19846D01*
X6693Y19762D01*
X12205D01*
Y17028D01*
X25000D01*
Y23573D01*
X25462Y23764D01*
X26061Y23165D01*
Y16325D01*
X26145Y15902D01*
X26385Y15544D01*
X32375Y9554D01*
X32733Y9315D01*
X33155Y9231D01*
X46949D01*
X47371Y9315D01*
X47729Y9554D01*
X55751Y17576D01*
X55990Y17934D01*
X56074Y18356D01*
Y24986D01*
X62782Y31693D01*
X63345D01*
X63996Y31963D01*
X64494Y32461D01*
X64764Y33112D01*
Y33817D01*
X64494Y34468D01*
X63996Y34966D01*
X63345Y35236D01*
X62640D01*
X61989Y34966D01*
X61490Y34468D01*
X61221Y33817D01*
Y33254D01*
X54190Y26223D01*
X53951Y25865D01*
X53867Y25443D01*
Y18814D01*
X46492Y11439D01*
X38592D01*
X38258Y11938D01*
X38386Y12246D01*
Y12951D01*
X38220Y13352D01*
Y17028D01*
X42913D01*
Y24705D01*
X38121D01*
Y27225D01*
X37999Y27839D01*
X37651Y28360D01*
X37651Y28360D01*
X36015Y29996D01*
Y35044D01*
X37651Y36680D01*
X37651Y36680D01*
X37999Y37201D01*
X38121Y37815D01*
Y42618D01*
X42913D01*
Y44851D01*
X58170D01*
X58675Y44346D01*
X58661Y44297D01*
Y43105D01*
X58970Y41953D01*
X59566Y40921D01*
X60409Y40078D01*
X61441Y39482D01*
X62593Y39173D01*
X63785D01*
X64937Y39482D01*
X65969Y40078D01*
X66812Y40921D01*
X67408Y41953D01*
X67446Y42095D01*
X108144D01*
X108183Y41953D01*
X108779Y40921D01*
X109622Y40078D01*
X110654Y39482D01*
X111805Y39173D01*
X112998D01*
X114149Y39482D01*
X115182Y40078D01*
X116024Y40921D01*
X116621Y41953D01*
X116929Y43105D01*
Y44297D01*
X116621Y45448D01*
X116024Y46481D01*
X115182Y47324D01*
X114149Y47920D01*
X112998Y48228D01*
X111805D01*
X110654Y47920D01*
X109622Y47324D01*
X108779Y46481D01*
X108183Y45448D01*
X108144Y45306D01*
X67446D01*
X67408Y45448D01*
X66812Y46481D01*
X65969Y47324D01*
X64937Y47920D01*
X63785Y48228D01*
X62593D01*
X61441Y47920D01*
X60409Y47324D01*
X60324Y47239D01*
X59970Y47592D01*
X59449Y47940D01*
X58835Y48062D01*
X58835Y48062D01*
X42913D01*
Y50295D01*
X30118D01*
Y42618D01*
X30218D01*
X30485Y42118D01*
X30439Y42049D01*
X19168D01*
X19121Y42118D01*
X19388Y42618D01*
X25000D01*
Y50295D01*
X13864D01*
X3504Y60655D01*
X3721Y61146D01*
X3947Y61146D01*
X9933D01*
Y65583D01*
X3528D01*
Y61600D01*
X3528Y61339D01*
X3037Y61122D01*
X-1357Y65516D01*
Y168277D01*
X-857Y168516D01*
X-352Y168307D01*
X352D01*
X729Y168463D01*
X2480D01*
Y168287D01*
X4300D01*
Y167040D01*
X3947Y166970D01*
X3621Y166752D01*
X3404Y166427D01*
X3327Y166042D01*
Y163680D01*
X3404Y163296D01*
X3621Y162971D01*
X3947Y162753D01*
X4331Y162677D01*
X7480D01*
X7864Y162753D01*
X8190Y162971D01*
X8407Y163296D01*
X8484Y163680D01*
Y166042D01*
X8407Y166427D01*
X8190Y166752D01*
X7864Y166970D01*
X7511Y167040D01*
Y168287D01*
X9646D01*
Y171831D01*
X2480D01*
Y171675D01*
X777D01*
X352Y171850D01*
X-352D01*
X-857Y171642D01*
X-1357Y171881D01*
Y184221D01*
X-857Y184373D01*
X-781Y184259D01*
X-422Y184019D01*
X0Y183935D01*
X49Y183945D01*
X2071D01*
Y182878D01*
X5563D01*
Y185059D01*
Y187240D01*
X2071D01*
Y186153D01*
X10D01*
X-413Y186069D01*
X-771Y185830D01*
X-781Y185820D01*
X-857Y185706D01*
X-1357Y185858D01*
Y189396D01*
X-857Y189730D01*
X-549Y189602D01*
X156D01*
X807Y189872D01*
X1205Y190270D01*
X2536D01*
Y189149D01*
X2626Y188697D01*
X2882Y188315D01*
X3264Y188059D01*
X3716Y187970D01*
X7111D01*
X7563Y188059D01*
X7945Y188315D01*
X8201Y188697D01*
X8290Y189149D01*
Y193922D01*
X8201Y194374D01*
X7945Y194756D01*
X7563Y195012D01*
X7111Y195101D01*
X6517D01*
Y209681D01*
X46443Y249606D01*
X52756D01*
Y253150D01*
X45866D01*
Y251852D01*
X45641Y251807D01*
X45282Y251568D01*
X4633Y210918D01*
X4394Y210560D01*
X4310Y210138D01*
Y195101D01*
X3716D01*
X3264Y195012D01*
X2882Y194756D01*
X2626Y194374D01*
X2536Y193922D01*
Y192478D01*
X1205D01*
X807Y192876D01*
X156Y193146D01*
X-549D01*
X-857Y193018D01*
X-1357Y193352D01*
Y318342D01*
X11875Y331573D01*
X42062D01*
X55709Y317927D01*
Y317364D01*
X55978Y316713D01*
X56477Y316215D01*
X57128Y315945D01*
X57771D01*
X57897Y315784D01*
X58016Y315483D01*
X44031Y301498D01*
X26151D01*
Y301969D01*
X26074Y302352D01*
X25857Y302678D01*
X25531Y302896D01*
X25147Y302972D01*
X22785D01*
X22401Y302896D01*
X22075Y302678D01*
X21858Y302352D01*
X21781Y301969D01*
Y298819D01*
X21858Y298435D01*
X22075Y298109D01*
X22401Y297892D01*
X22785Y297815D01*
X25147D01*
X25531Y297892D01*
X25857Y298109D01*
X26074Y298435D01*
X26151Y298819D01*
Y299290D01*
X43872D01*
X44079Y298790D01*
X26651Y281362D01*
X26313Y281452D01*
X26139Y281557D01*
X26074Y281880D01*
X25857Y282206D01*
X25531Y282423D01*
X25147Y282500D01*
X22785D01*
X22401Y282423D01*
X22075Y282206D01*
X21858Y281880D01*
X21781Y281496D01*
Y278346D01*
X21858Y277962D01*
X22075Y277637D01*
X22401Y277419D01*
X22785Y277343D01*
X22887D01*
Y271849D01*
X22514Y271476D01*
X22244Y270825D01*
Y270120D01*
X22514Y269469D01*
X23012Y268970D01*
X23663Y268701D01*
X24368D01*
X25019Y268970D01*
X25518Y269469D01*
X25787Y270120D01*
Y270825D01*
X25518Y271476D01*
X25095Y271899D01*
Y277343D01*
X25147D01*
X25531Y277419D01*
X25857Y277637D01*
X26074Y277962D01*
X26151Y278346D01*
Y278817D01*
X26772D01*
X27194Y278901D01*
X27552Y279141D01*
X62859Y314447D01*
X66746D01*
X66954Y313947D01*
X66608Y313602D01*
X66339Y312951D01*
Y312246D01*
X66608Y311595D01*
X67107Y311097D01*
X67758Y310827D01*
X68321D01*
X69377Y309771D01*
X69735Y309531D01*
X70157Y309447D01*
X72795D01*
Y308819D01*
X79961D01*
Y311604D01*
X80423Y311796D01*
X81180Y311039D01*
Y305064D01*
X80423Y304307D01*
X79961Y304498D01*
Y307283D01*
X72795D01*
Y306655D01*
X71082D01*
Y307874D01*
X71006Y308258D01*
X70788Y308584D01*
X70463Y308801D01*
X70079Y308877D01*
X67716D01*
X67333Y308801D01*
X67007Y308584D01*
X66789Y308258D01*
X66713Y307874D01*
Y304724D01*
X66789Y304340D01*
X67007Y304015D01*
X67333Y303797D01*
X67716Y303721D01*
X70079D01*
X70463Y303797D01*
X70788Y304015D01*
X71006Y304340D01*
X71027Y304447D01*
X72795D01*
Y303819D01*
X79282D01*
X79473Y303357D01*
X78399Y302284D01*
X72795D01*
Y298819D01*
X79961D01*
Y300722D01*
X83064Y303826D01*
X83303Y304184D01*
X83387Y304606D01*
Y311496D01*
X83303Y311918D01*
X83064Y312277D01*
X79961Y315380D01*
Y317284D01*
X72795D01*
Y316655D01*
X63018D01*
X62811Y317155D01*
X65103Y319447D01*
X72795D01*
Y318819D01*
X79961D01*
Y320722D01*
X87268Y328030D01*
X111748D01*
X132754Y307023D01*
Y283134D01*
X120430Y270810D01*
X120190Y270452D01*
X120106Y270029D01*
Y257696D01*
X120029D01*
X119645Y257620D01*
X119319Y257402D01*
X119102Y257077D01*
X119026Y256693D01*
Y253543D01*
X119102Y253159D01*
X119319Y252834D01*
X119615Y252636D01*
X119631Y252510D01*
X119581Y252119D01*
X119485Y252100D01*
X119024Y251792D01*
X118716Y251331D01*
X118608Y250787D01*
Y249713D01*
X121210D01*
X123812D01*
Y250787D01*
X123704Y251331D01*
X123396Y251792D01*
X122935Y252100D01*
X122840Y252119D01*
X122789Y252510D01*
X122805Y252636D01*
X123101Y252834D01*
X123319Y253159D01*
X123395Y253543D01*
Y256693D01*
X123319Y257077D01*
X123101Y257402D01*
X122775Y257620D01*
X122391Y257696D01*
X122314D01*
Y269572D01*
X134639Y281897D01*
X134878Y282255D01*
X134962Y282677D01*
Y307480D01*
X134878Y307903D01*
X134639Y308261D01*
X112985Y329914D01*
X112627Y330154D01*
X112205Y330238D01*
X86811D01*
X86389Y330154D01*
X86031Y329914D01*
X78399Y322284D01*
X72795D01*
Y321655D01*
X64646D01*
X64223Y321571D01*
X63865Y321332D01*
X59714Y317180D01*
X59413Y317300D01*
X59252Y317426D01*
Y318069D01*
X58982Y318720D01*
X58484Y319218D01*
X57833Y319488D01*
X57270D01*
X52220Y324538D01*
X52340Y324839D01*
X52465Y325000D01*
X53108D01*
X53759Y325270D01*
X54258Y325768D01*
X54528Y326419D01*
Y326982D01*
X59492Y331946D01*
X59731Y332304D01*
X59815Y332727D01*
Y341462D01*
X60213Y341860D01*
X60483Y342511D01*
Y343216D01*
X60213Y343867D01*
X59715Y344366D01*
X59063Y344635D01*
X58359D01*
X57708Y344366D01*
X57209Y343867D01*
X56939Y343216D01*
Y342511D01*
X57209Y341860D01*
X57607Y341462D01*
Y333184D01*
X52966Y328543D01*
X52403D01*
X51752Y328274D01*
X51254Y327775D01*
X50984Y327124D01*
Y326481D01*
X50824Y326355D01*
X50522Y326236D01*
X43300Y333458D01*
X42942Y333697D01*
X42520Y333781D01*
X19113D01*
X19014Y334281D01*
X19252Y334380D01*
X19440Y334832D01*
Y337009D01*
X19252Y337461D01*
X18801Y337648D01*
X13092D01*
X12640Y337461D01*
X12453Y337009D01*
Y334832D01*
X12640Y334380D01*
X12878Y334281D01*
X12779Y333781D01*
X11417D01*
X10995Y333697D01*
X10637Y333458D01*
X-2472Y320349D01*
X-2933Y320541D01*
Y357852D01*
X11854Y372640D01*
X12354Y372433D01*
Y371655D01*
X12541Y371203D01*
X12993Y371016D01*
X18899D01*
X19351Y371203D01*
X19538Y371655D01*
Y373012D01*
X34106D01*
Y371655D01*
X34293Y371203D01*
X34745Y371016D01*
X40651D01*
X41103Y371203D01*
X41290Y371655D01*
Y373012D01*
X136172Y373012D01*
Y370866D01*
X136359Y370414D01*
X136811Y370227D01*
X143504D01*
X143956Y370414D01*
X144143Y370866D01*
Y373012D01*
X156647D01*
Y370866D01*
D02*
G37*
G36*
X34910Y38480D02*
X33274Y36844D01*
X32926Y36323D01*
X32804Y35709D01*
X32804Y35709D01*
Y29331D01*
X32804Y29331D01*
X32926Y28716D01*
X33274Y28196D01*
X34910Y26559D01*
Y24705D01*
X30118D01*
Y17028D01*
X35008D01*
Y13352D01*
X34843Y12951D01*
Y12246D01*
X34970Y11938D01*
X34636Y11439D01*
X33612D01*
X28269Y16782D01*
Y23622D01*
X28185Y24045D01*
X27946Y24403D01*
X13188Y39161D01*
Y40185D01*
X13586Y40582D01*
X13856Y41234D01*
Y41938D01*
X13781Y42118D01*
X14115Y42618D01*
X15784D01*
X15991Y42118D01*
X15821Y41948D01*
X15551Y41297D01*
Y40593D01*
X15821Y39941D01*
X16319Y39443D01*
X16970Y39173D01*
X17675D01*
X18326Y39443D01*
X18724Y39841D01*
X30882D01*
X31280Y39443D01*
X31931Y39173D01*
X32636D01*
X33287Y39443D01*
X33785Y39941D01*
X34055Y40593D01*
Y41297D01*
X33785Y41948D01*
X33616Y42118D01*
X33823Y42618D01*
X34910D01*
Y38480D01*
D02*
G37*
%LPC*%
G36*
X92872Y368701D02*
X92167D01*
X91516Y368431D01*
X91018Y367933D01*
X90748Y367282D01*
Y366577D01*
X91018Y365926D01*
X91516Y365427D01*
X92167Y365158D01*
X92872D01*
X93523Y365427D01*
X94022Y365926D01*
X94291Y366577D01*
Y367282D01*
X94022Y367933D01*
X93523Y368431D01*
X92872Y368701D01*
D02*
G37*
G36*
X171367Y362204D02*
Y354832D01*
X176443D01*
Y356694D01*
X176253Y358137D01*
X175696Y359482D01*
X174810Y360636D01*
X173655Y361522D01*
X172310Y362079D01*
X171367Y362204D01*
D02*
G37*
G36*
X47745Y362204D02*
Y354832D01*
X52821D01*
Y356694D01*
X52631Y358137D01*
X52074Y359482D01*
X51188Y360636D01*
X50033Y361522D01*
X48688Y362079D01*
X47745Y362204D01*
D02*
G37*
G36*
X46745Y362204D02*
X45802Y362079D01*
X44458Y361522D01*
X43303Y360636D01*
X42417Y359482D01*
X41860Y358137D01*
X41670Y356694D01*
Y354832D01*
X46745D01*
Y362204D01*
D02*
G37*
G36*
X170367D02*
X169424Y362079D01*
X168080Y361522D01*
X166925Y360636D01*
X166039Y359482D01*
X165482Y358137D01*
X165292Y356694D01*
Y354832D01*
X170367D01*
Y362204D01*
D02*
G37*
G36*
X130422D02*
Y354832D01*
X135498D01*
Y356694D01*
X135308Y358137D01*
X134751Y359482D01*
X133865Y360636D01*
X132710Y361522D01*
X131366Y362079D01*
X130422Y362204D01*
D02*
G37*
G36*
X129422D02*
X128480Y362079D01*
X127135Y361522D01*
X125980Y360636D01*
X125094Y359482D01*
X124537Y358137D01*
X124347Y356694D01*
Y354832D01*
X129422D01*
Y362204D01*
D02*
G37*
G36*
X6801D02*
Y354832D01*
X11876D01*
Y356694D01*
X11686Y358137D01*
X11129Y359482D01*
X10243Y360636D01*
X9088Y361522D01*
X7744Y362079D01*
X6801Y362204D01*
D02*
G37*
G36*
X5801D02*
X4857Y362079D01*
X3513Y361522D01*
X2358Y360636D01*
X1472Y359482D01*
X915Y358137D01*
X725Y356694D01*
Y354832D01*
X5801D01*
Y362204D01*
D02*
G37*
G36*
X46745Y353832D02*
X41670D01*
Y351970D01*
X41860Y350527D01*
X42417Y349182D01*
X43303Y348027D01*
X44458Y347141D01*
X45802Y346584D01*
X46745Y346460D01*
Y353832D01*
D02*
G37*
G36*
X176443D02*
X171367D01*
Y346460D01*
X172310Y346584D01*
X173655Y347141D01*
X174810Y348027D01*
X175696Y349182D01*
X176253Y350527D01*
X176443Y351970D01*
Y353832D01*
D02*
G37*
G36*
X135498Y353832D02*
X130422D01*
Y346460D01*
X131366Y346584D01*
X132710Y347141D01*
X133865Y348027D01*
X134751Y349182D01*
X135308Y350527D01*
X135498Y351970D01*
Y353832D01*
D02*
G37*
G36*
X129422D02*
X124347D01*
Y351970D01*
X124537Y350527D01*
X125094Y349182D01*
X125980Y348027D01*
X127135Y347141D01*
X128480Y346584D01*
X129422Y346460D01*
Y353832D01*
D02*
G37*
G36*
X11876D02*
X6801D01*
Y346460D01*
X7744Y346584D01*
X9088Y347141D01*
X10243Y348027D01*
X11129Y349182D01*
X11686Y350527D01*
X11876Y351970D01*
Y353832D01*
D02*
G37*
G36*
X5801D02*
X725D01*
Y351970D01*
X915Y350527D01*
X1472Y349182D01*
X2358Y348027D01*
X3513Y347141D01*
X4857Y346584D01*
X5801Y346460D01*
Y353832D01*
D02*
G37*
G36*
X170367Y353832D02*
X165292D01*
Y351970D01*
X165482Y350527D01*
X166039Y349182D01*
X166925Y348027D01*
X168080Y347141D01*
X169424Y346584D01*
X170367Y346460D01*
Y353832D01*
D02*
G37*
G36*
X52821D02*
X47745D01*
Y346460D01*
X48688Y346584D01*
X50033Y347141D01*
X51188Y348027D01*
X52074Y349182D01*
X52631Y350527D01*
X52821Y351970D01*
Y353832D01*
D02*
G37*
G36*
X72793Y368701D02*
X72088D01*
X71437Y368431D01*
X70939Y367933D01*
X70669Y367282D01*
Y366577D01*
X70939Y365926D01*
X71437Y365427D01*
X72088Y365158D01*
X72651D01*
X85460Y352349D01*
X85818Y352110D01*
X86240Y352026D01*
X92476D01*
X104961Y339541D01*
Y338978D01*
X105230Y338327D01*
X105729Y337829D01*
X106380Y337559D01*
X107085D01*
X107736Y337829D01*
X108234Y338327D01*
X108504Y338978D01*
Y339683D01*
X108234Y340334D01*
X107736Y340833D01*
X107085Y341102D01*
X106522D01*
X93714Y353910D01*
X93356Y354150D01*
X92933Y354234D01*
X86697D01*
X74213Y366719D01*
Y367282D01*
X73943Y367933D01*
X73444Y368431D01*
X72793Y368701D01*
D02*
G37*
G36*
X163979Y338437D02*
X157286D01*
X156834Y338250D01*
X156647Y337798D01*
Y335042D01*
X156834Y334590D01*
X157286Y334402D01*
X163979D01*
X164431Y334590D01*
X164618Y335042D01*
Y337798D01*
X164431Y338250D01*
X163979Y338437D01*
D02*
G37*
G36*
X143504Y338437D02*
X136811D01*
X136359Y338250D01*
X136172Y337798D01*
Y335042D01*
X136359Y334590D01*
X136811Y334402D01*
X143504D01*
X143956Y334590D01*
X144143Y335042D01*
Y337798D01*
X143956Y338250D01*
X143504Y338437D01*
D02*
G37*
G36*
X40454Y337747D02*
X34647D01*
X34195Y337560D01*
X34008Y337107D01*
Y335040D01*
X34195Y334589D01*
X34647Y334401D01*
X40454D01*
X40906Y334589D01*
X41093Y335040D01*
Y337107D01*
X40906Y337560D01*
X40454Y337747D01*
D02*
G37*
G36*
X86614Y340474D02*
X86192Y340390D01*
X85834Y340151D01*
X85594Y339792D01*
X85531Y339475D01*
X84308Y338253D01*
X84069Y337895D01*
X83985Y337472D01*
Y336854D01*
X83908D01*
X83364Y336746D01*
X82903Y336438D01*
X82595Y335977D01*
X82487Y335433D01*
Y334358D01*
X85089D01*
X87691D01*
Y335433D01*
X87583Y335977D01*
X87275Y336438D01*
X86814Y336746D01*
X86661Y336776D01*
X86497Y337319D01*
X87395Y338217D01*
X87634Y338575D01*
X87718Y338997D01*
Y339370D01*
X87634Y339792D01*
X87395Y340151D01*
X87037Y340390D01*
X86614Y340474D01*
D02*
G37*
G36*
X92085Y341142D02*
X91380D01*
X90729Y340872D01*
X90230Y340374D01*
X89961Y339722D01*
Y339667D01*
X89806Y339435D01*
X89683Y338820D01*
X89683Y338820D01*
Y336333D01*
X89398Y336143D01*
X89181Y335817D01*
X89104Y335433D01*
Y332283D01*
X89181Y331899D01*
X89398Y331574D01*
X89724Y331356D01*
X90108Y331280D01*
X92470D01*
X92854Y331356D01*
X93180Y331574D01*
X93397Y331899D01*
X93474Y332283D01*
Y335433D01*
X93397Y335817D01*
X93180Y336143D01*
X92895Y336333D01*
Y338027D01*
X93234Y338367D01*
X93504Y339018D01*
Y339722D01*
X93234Y340374D01*
X92736Y340872D01*
X92085Y341142D01*
D02*
G37*
G36*
X87691Y333358D02*
X85589D01*
Y330862D01*
X86270D01*
X86814Y330971D01*
X87275Y331279D01*
X87583Y331740D01*
X87691Y332283D01*
Y333358D01*
D02*
G37*
G36*
X84589D02*
X82487D01*
Y332283D01*
X82595Y331740D01*
X82903Y331279D01*
X83364Y330971D01*
X83908Y330862D01*
X84589D01*
Y333358D01*
D02*
G37*
G36*
X64919Y330512D02*
X64214D01*
X63563Y330242D01*
X63065Y329744D01*
X62795Y329093D01*
Y328388D01*
X63065Y327737D01*
X63563Y327238D01*
X64214Y326969D01*
X64919D01*
X65570Y327238D01*
X66069Y327737D01*
X66339Y328388D01*
Y329093D01*
X66069Y329744D01*
X65570Y330242D01*
X64919Y330512D01*
D02*
G37*
G36*
X150395Y329761D02*
X149316Y329619D01*
X148310Y329203D01*
X147447Y328540D01*
X146784Y327677D01*
X146368Y326671D01*
X146267Y325908D01*
X144686D01*
Y329726D01*
X136419D01*
Y319883D01*
X144686D01*
Y323700D01*
X146267D01*
X146368Y322938D01*
X146784Y321932D01*
X147447Y321069D01*
X148310Y320406D01*
X149291Y320000D01*
Y315945D01*
X146949D01*
Y301181D01*
X154626D01*
Y315945D01*
X151499D01*
Y320000D01*
X152480Y320406D01*
X153343Y321069D01*
X154006Y321932D01*
X154422Y322938D01*
X154564Y324017D01*
Y325592D01*
X154422Y326671D01*
X154006Y327677D01*
X153343Y328540D01*
X152480Y329203D01*
X151474Y329619D01*
X150395Y329761D01*
D02*
G37*
G36*
X21474Y330135D02*
X17430D01*
Y325304D01*
X21474D01*
Y330135D01*
D02*
G37*
G36*
X16430D02*
X12387D01*
Y325304D01*
X16430D01*
Y330135D01*
D02*
G37*
G36*
X116359Y343898D02*
X115654D01*
X115003Y343628D01*
X114505Y343129D01*
X114235Y342478D01*
Y341774D01*
X114505Y341122D01*
X114903Y340724D01*
Y335568D01*
X114987Y335146D01*
X115226Y334788D01*
X125394Y324620D01*
Y324057D01*
X125663Y323406D01*
X126162Y322907D01*
X126813Y322638D01*
X127518D01*
X128169Y322907D01*
X128667Y323406D01*
X128937Y324057D01*
Y324762D01*
X128667Y325413D01*
X128169Y325911D01*
X127518Y326181D01*
X126955D01*
X117111Y336025D01*
Y340724D01*
X117509Y341122D01*
X117778Y341774D01*
Y342478D01*
X117509Y343129D01*
X117010Y343628D01*
X116359Y343898D01*
D02*
G37*
G36*
X36615Y329761D02*
X35536Y329619D01*
X34531Y329203D01*
X33667Y328540D01*
X33005Y327677D01*
X32588Y326671D01*
X32446Y325592D01*
Y324017D01*
X32588Y322938D01*
X33005Y321932D01*
X33667Y321069D01*
X34531Y320406D01*
X35536Y319989D01*
X36615Y319847D01*
X37695Y319989D01*
X38700Y320406D01*
X39564Y321069D01*
X40226Y321932D01*
X40643Y322938D01*
X40785Y324017D01*
Y325592D01*
X40643Y326671D01*
X40226Y327677D01*
X39564Y328540D01*
X38700Y329203D01*
X37695Y329619D01*
X36615Y329761D01*
D02*
G37*
G36*
X26773D02*
X25694Y329619D01*
X24688Y329203D01*
X23825Y328540D01*
X23162Y327677D01*
X22746Y326671D01*
X22603Y325592D01*
Y324017D01*
X22746Y322938D01*
X23162Y321932D01*
X23825Y321069D01*
X24688Y320406D01*
X25694Y319989D01*
X26773Y319847D01*
X27852Y319989D01*
X28858Y320406D01*
X29721Y321069D01*
X30384Y321932D01*
X30800Y322938D01*
X30942Y324017D01*
Y325592D01*
X30800Y326671D01*
X30384Y327677D01*
X29721Y328540D01*
X28858Y329203D01*
X27852Y329619D01*
X26773Y329761D01*
D02*
G37*
G36*
X21474Y324304D02*
X17430D01*
Y319474D01*
X21474D01*
Y324304D01*
D02*
G37*
G36*
X16430D02*
X12387D01*
Y319474D01*
X16430D01*
Y324304D01*
D02*
G37*
G36*
X98778Y327362D02*
X98073D01*
X97422Y327093D01*
X96923Y326594D01*
X96653Y325943D01*
Y325238D01*
X96820Y324837D01*
Y322284D01*
X94528D01*
Y319285D01*
X94528Y318828D01*
X94528Y318819D01*
X94505Y318328D01*
X94095Y318328D01*
X86516D01*
X86093Y318244D01*
X85735Y318005D01*
X84856Y317126D01*
X84293D01*
X83642Y316856D01*
X83144Y316358D01*
X82874Y315707D01*
Y315002D01*
X83144Y314351D01*
X83642Y313852D01*
X84293Y313583D01*
X84998D01*
X85649Y313852D01*
X86148Y314351D01*
X86417Y315002D01*
Y315565D01*
X86973Y316121D01*
X94129D01*
X94528Y315722D01*
Y313819D01*
X101693D01*
Y314447D01*
X103377D01*
Y314173D01*
X103453Y313789D01*
X103671Y313464D01*
X103996Y313246D01*
X104380Y313170D01*
X106743D01*
X107126Y313246D01*
X107452Y313464D01*
X107670Y313789D01*
X107746Y314173D01*
Y317323D01*
X107670Y317707D01*
X107452Y318032D01*
X107126Y318250D01*
X106743Y318326D01*
X104380D01*
X103996Y318250D01*
X103671Y318032D01*
X103453Y317707D01*
X103377Y317323D01*
Y316655D01*
X101693D01*
Y317284D01*
X96089D01*
X95367Y318005D01*
X95009Y318244D01*
X94587Y318328D01*
X94609Y318819D01*
X95024Y318819D01*
X95028Y318819D01*
X101693D01*
Y322284D01*
X100031D01*
Y324837D01*
X100197Y325238D01*
Y325943D01*
X99927Y326594D01*
X99429Y327093D01*
X98778Y327362D01*
D02*
G37*
G36*
X101693Y312283D02*
X94528D01*
Y308819D01*
X101693D01*
Y312283D01*
D02*
G37*
G36*
X102102Y307693D02*
X98610D01*
Y306051D01*
X102102D01*
Y307693D01*
D02*
G37*
G36*
Y305051D02*
X98610D01*
Y303410D01*
X102102D01*
Y305051D01*
D02*
G37*
G36*
X97610Y307693D02*
X94118D01*
Y306635D01*
X92146D01*
X91723Y306551D01*
X91365Y306312D01*
X91345Y306292D01*
X91106Y305934D01*
X91022Y305512D01*
X91106Y305089D01*
X91345Y304731D01*
X91703Y304492D01*
X92126Y304408D01*
X92225Y304428D01*
X94118D01*
Y303410D01*
X97610D01*
Y305551D01*
Y307693D01*
D02*
G37*
G36*
X126370Y305165D02*
X125172D01*
X124561Y305043D01*
X124043Y304697D01*
X123697Y304179D01*
X123576Y303568D01*
Y301681D01*
X126370D01*
Y305165D01*
D02*
G37*
G36*
X106743Y303366D02*
X104380D01*
X103996Y303289D01*
X103671Y303072D01*
X103453Y302746D01*
X103377Y302362D01*
Y301655D01*
X101693D01*
Y302284D01*
X94528D01*
Y298819D01*
X101693D01*
Y299447D01*
X103377D01*
Y299213D01*
X103453Y298829D01*
X103671Y298503D01*
X103996Y298286D01*
X104380Y298209D01*
X106743D01*
X107126Y298286D01*
X107452Y298503D01*
X107670Y298829D01*
X107746Y299213D01*
Y302362D01*
X107670Y302746D01*
X107452Y303072D01*
X107126Y303289D01*
X106743Y303366D01*
D02*
G37*
G36*
X63879Y308877D02*
X61516D01*
X61133Y308801D01*
X60807Y308584D01*
X60589Y308258D01*
X60513Y307874D01*
Y304724D01*
X60589Y304340D01*
X60807Y304015D01*
X61133Y303797D01*
X61516Y303721D01*
X61766D01*
Y301574D01*
X61540Y301348D01*
X61270Y300696D01*
Y299992D01*
X61540Y299341D01*
X62038Y298842D01*
X62689Y298572D01*
X63394D01*
X64045Y298842D01*
X64443Y299240D01*
X65926D01*
Y299163D01*
X66002Y298779D01*
X66220Y298453D01*
X66545Y298236D01*
X66929Y298160D01*
X70079D01*
X70463Y298236D01*
X70788Y298453D01*
X71006Y298779D01*
X71082Y299163D01*
Y301525D01*
X71006Y301909D01*
X70788Y302235D01*
X70463Y302452D01*
X70079Y302529D01*
X66929D01*
X66545Y302452D01*
X66220Y302235D01*
X66002Y301909D01*
X65926Y301525D01*
Y301448D01*
X64443D01*
X64045Y301846D01*
X63974Y301876D01*
Y303740D01*
X64263Y303797D01*
X64588Y304015D01*
X64806Y304340D01*
X64882Y304724D01*
Y307874D01*
X64806Y308258D01*
X64588Y308584D01*
X64263Y308801D01*
X63879Y308877D01*
D02*
G37*
G36*
X12252Y303748D02*
X5071D01*
Y296567D01*
X12252D01*
Y298394D01*
X15685D01*
X15875Y298109D01*
X16201Y297892D01*
X16585Y297815D01*
X18947D01*
X19331Y297892D01*
X19657Y298109D01*
X19874Y298435D01*
X19951Y298819D01*
Y301969D01*
X19874Y302352D01*
X19657Y302678D01*
X19331Y302896D01*
X18947Y302972D01*
X16585D01*
X16201Y302896D01*
X15875Y302678D01*
X15658Y302352D01*
X15582Y301969D01*
Y301606D01*
X12252D01*
Y303748D01*
D02*
G37*
G36*
X112943Y318326D02*
X110580D01*
X110196Y318250D01*
X109871Y318032D01*
X109653Y317707D01*
X109577Y317323D01*
Y314173D01*
X109653Y313789D01*
X109871Y313464D01*
X110196Y313246D01*
X110580Y313170D01*
X110658D01*
Y303366D01*
X110580D01*
X110196Y303289D01*
X109871Y303072D01*
X109653Y302746D01*
X109577Y302362D01*
Y299213D01*
X109653Y298829D01*
X109871Y298503D01*
X110196Y298286D01*
X110580Y298209D01*
X112943D01*
X113327Y298286D01*
X113652Y298503D01*
X113870Y298829D01*
X113946Y299213D01*
Y299683D01*
X115922D01*
Y298794D01*
X116012Y298343D01*
X116268Y297960D01*
X116650Y297705D01*
X117101Y297615D01*
X120497D01*
X120948Y297705D01*
X121331Y297960D01*
X121586Y298343D01*
X121676Y298794D01*
Y303568D01*
X121586Y304019D01*
X121331Y304402D01*
X120948Y304657D01*
X120497Y304747D01*
X117101D01*
X116650Y304657D01*
X116268Y304402D01*
X116012Y304019D01*
X115922Y303568D01*
Y301891D01*
X113946D01*
Y302362D01*
X113870Y302746D01*
X113652Y303072D01*
X113327Y303289D01*
X112943Y303366D01*
X112865D01*
Y313170D01*
X112943D01*
X113327Y313246D01*
X113652Y313464D01*
X113870Y313789D01*
X113946Y314173D01*
Y317323D01*
X113870Y317707D01*
X113652Y318032D01*
X113327Y318250D01*
X112943Y318326D01*
D02*
G37*
G36*
X128568Y305165D02*
X127370D01*
Y301181D01*
Y297198D01*
X128568D01*
X129179Y297319D01*
X129697Y297665D01*
X130043Y298183D01*
X130165Y298794D01*
Y300077D01*
X130709D01*
X131131Y300161D01*
X131489Y300400D01*
X131728Y300759D01*
X131813Y301181D01*
X131728Y301604D01*
X131489Y301962D01*
X131131Y302201D01*
X130709Y302285D01*
X130165D01*
Y303568D01*
X130043Y304179D01*
X129697Y304697D01*
X129179Y305043D01*
X128568Y305165D01*
D02*
G37*
G36*
X126370Y300681D02*
X123576D01*
Y298794D01*
X123697Y298183D01*
X124043Y297665D01*
X124561Y297319D01*
X125172Y297198D01*
X126370D01*
Y300681D01*
D02*
G37*
G36*
X97610Y297693D02*
X94118D01*
Y296714D01*
X92423D01*
X92126Y296773D01*
X91703Y296689D01*
X91345Y296450D01*
X91106Y296092D01*
X91022Y295669D01*
X91106Y295247D01*
X91345Y294889D01*
X91404Y294830D01*
X91763Y294590D01*
X92185Y294506D01*
X94118D01*
Y293409D01*
X97610D01*
Y295551D01*
Y297693D01*
D02*
G37*
G36*
X102102D02*
X98610D01*
Y296051D01*
X102102D01*
Y297693D01*
D02*
G37*
G36*
X80370D02*
X76878D01*
Y296051D01*
X80370D01*
Y297693D01*
D02*
G37*
G36*
X75878D02*
X72386D01*
Y296051D01*
X75878D01*
Y297693D01*
D02*
G37*
G36*
X70079Y296746D02*
X69004D01*
Y294644D01*
X71500D01*
Y295325D01*
X71392Y295869D01*
X71083Y296330D01*
X70622Y296638D01*
X70079Y296746D01*
D02*
G37*
G36*
X68004D02*
X66929D01*
X66385Y296638D01*
X65924Y296330D01*
X65616Y295869D01*
X65508Y295325D01*
Y294644D01*
X68004D01*
Y296746D01*
D02*
G37*
G36*
X102102Y295051D02*
X98610D01*
Y293409D01*
X102102D01*
Y295051D01*
D02*
G37*
G36*
X80370D02*
X76378D01*
X72386D01*
Y293409D01*
X75274D01*
Y292693D01*
X72386D01*
Y291051D01*
X76378D01*
X80370D01*
Y292693D01*
X77482D01*
Y293409D01*
X80370D01*
Y295051D01*
D02*
G37*
G36*
X9188Y294158D02*
X9161D01*
Y290657D01*
X12661D01*
Y290684D01*
X12389Y291701D01*
X11862Y292614D01*
X11118Y293358D01*
X10205Y293885D01*
X9188Y294158D01*
D02*
G37*
G36*
X8161D02*
X8135D01*
X7118Y293885D01*
X6205Y293358D01*
X5461Y292614D01*
X4934Y291701D01*
X4661Y290684D01*
Y290657D01*
X8161D01*
Y294158D01*
D02*
G37*
G36*
X71500Y293644D02*
X68504D01*
X65508D01*
Y292963D01*
X65616Y292419D01*
X65924Y291958D01*
X66385Y291650D01*
X66929Y291542D01*
X67400D01*
Y290551D01*
X67484Y290129D01*
X67723Y289771D01*
X68081Y289531D01*
X68504Y289447D01*
X68926Y289531D01*
X69284Y289771D01*
X69524Y290129D01*
X69608Y290551D01*
Y291542D01*
X70079D01*
X70622Y291650D01*
X71083Y291958D01*
X71392Y292419D01*
X71500Y292963D01*
Y293644D01*
D02*
G37*
G36*
X150287Y295291D02*
X146539D01*
Y288000D01*
X150287D01*
Y295291D01*
D02*
G37*
G36*
X80370Y290051D02*
X76378D01*
X72386D01*
Y288409D01*
X75274D01*
Y287402D01*
X75358Y286979D01*
X75597Y286621D01*
X75955Y286382D01*
X76378Y286298D01*
X76800Y286382D01*
X77158Y286621D01*
X77398Y286979D01*
X77482Y287402D01*
Y288409D01*
X80370D01*
Y290051D01*
D02*
G37*
G36*
X12661Y289657D02*
X9161D01*
Y286157D01*
X9188D01*
X10205Y286430D01*
X11118Y286957D01*
X11862Y287701D01*
X12389Y288614D01*
X12661Y289631D01*
Y289657D01*
D02*
G37*
G36*
X8161D02*
X4661D01*
Y289631D01*
X4934Y288614D01*
X5461Y287701D01*
X6205Y286957D01*
X7118Y286430D01*
X8135Y286157D01*
X8161D01*
Y289657D01*
D02*
G37*
G36*
X48475Y284886D02*
X47794D01*
Y282390D01*
X49896D01*
Y283465D01*
X49788Y284008D01*
X49480Y284469D01*
X49019Y284777D01*
X48475Y284886D01*
D02*
G37*
G36*
X155035Y295291D02*
X151287D01*
Y287500D01*
Y279709D01*
X155035D01*
Y286691D01*
X156299D01*
X156722Y286775D01*
X157080Y287015D01*
X157319Y287373D01*
X157403Y287795D01*
X157319Y288218D01*
X157080Y288576D01*
X156722Y288815D01*
X156299Y288899D01*
X155035D01*
Y295291D01*
D02*
G37*
G36*
X150287Y287000D02*
X146539D01*
Y279709D01*
X150287D01*
Y287000D01*
D02*
G37*
G36*
X49896Y281390D02*
X47794D01*
Y278894D01*
X48475D01*
X49019Y279002D01*
X49480Y279310D01*
X49788Y279771D01*
X49896Y280315D01*
Y281390D01*
D02*
G37*
G36*
X46794Y284886D02*
X46113D01*
X45569Y284777D01*
X45108Y284469D01*
X44800Y284008D01*
X44692Y283465D01*
Y282994D01*
X43701D01*
X43278Y282910D01*
X42920Y282670D01*
X42681Y282312D01*
X42597Y281890D01*
X42681Y281467D01*
X42920Y281109D01*
X43278Y280870D01*
X43701Y280786D01*
X44692D01*
Y280315D01*
X44800Y279771D01*
X45108Y279310D01*
X45569Y279002D01*
X46113Y278894D01*
X46794D01*
Y281890D01*
Y284886D01*
D02*
G37*
G36*
X9134Y283748D02*
X8189D01*
X7276Y283503D01*
X6457Y283031D01*
X5788Y282362D01*
X5316Y281543D01*
X5071Y280630D01*
Y279685D01*
X5316Y278772D01*
X5788Y277953D01*
X6457Y277284D01*
X7276Y276812D01*
X8189Y276567D01*
X9134D01*
X10047Y276812D01*
X10866Y277284D01*
X11535Y277953D01*
X11812Y278434D01*
X15582D01*
Y278346D01*
X15658Y277962D01*
X15875Y277637D01*
X16201Y277419D01*
X16585Y277343D01*
X18947D01*
X19331Y277419D01*
X19657Y277637D01*
X19874Y277962D01*
X19951Y278346D01*
Y281496D01*
X19874Y281880D01*
X19657Y282206D01*
X19331Y282423D01*
X18947Y282500D01*
X16585D01*
X16201Y282423D01*
X15875Y282206D01*
X15658Y281880D01*
X15611Y281645D01*
X11949D01*
X11535Y282362D01*
X10866Y283031D01*
X10047Y283503D01*
X9134Y283748D01*
D02*
G37*
G36*
X84083Y279345D02*
Y276091D01*
X87337D01*
X87083Y277040D01*
X86588Y277897D01*
X85889Y278596D01*
X85032Y279090D01*
X84083Y279345D01*
D02*
G37*
G36*
X83083D02*
X82133Y279090D01*
X81277Y278596D01*
X80577Y277897D01*
X80083Y277040D01*
X79828Y276091D01*
X83083D01*
Y279345D01*
D02*
G37*
G36*
X96929Y278937D02*
X90236D01*
Y272244D01*
X96929D01*
Y274437D01*
X108052D01*
Y274360D01*
X108128Y273976D01*
X108345Y273650D01*
X108671Y273433D01*
X109055Y273356D01*
X112205D01*
X112589Y273433D01*
X112914Y273650D01*
X113132Y273976D01*
X113208Y274360D01*
Y276722D01*
X113132Y277106D01*
X112914Y277432D01*
X112589Y277649D01*
X112205Y277726D01*
X109055D01*
X108671Y277649D01*
X108345Y277432D01*
X108128Y277106D01*
X108052Y276722D01*
Y276645D01*
X96929D01*
Y278937D01*
D02*
G37*
G36*
X48524Y273838D02*
X46162D01*
X45778Y273762D01*
X45453Y273544D01*
X45235Y273219D01*
X45159Y272835D01*
Y272167D01*
X44261D01*
Y272441D01*
X44185Y272825D01*
X43967Y273150D01*
X43641Y273368D01*
X43257Y273445D01*
X40895D01*
X40511Y273368D01*
X40186Y273150D01*
X39968Y272825D01*
X39892Y272441D01*
Y269291D01*
X39968Y268907D01*
X40186Y268582D01*
X40511Y268364D01*
X40895Y268288D01*
X40973D01*
Y261038D01*
X39462Y259527D01*
X38481Y259933D01*
X37402Y260075D01*
X35827D01*
X34748Y259933D01*
X33742Y259516D01*
X32879Y258854D01*
X32216Y257990D01*
X31799Y256985D01*
X31657Y255906D01*
X31799Y254826D01*
X32216Y253821D01*
X32879Y252957D01*
X33742Y252295D01*
X34748Y251878D01*
X35827Y251736D01*
X37402D01*
X38481Y251878D01*
X39486Y252295D01*
X40350Y252957D01*
X41012Y253821D01*
X41429Y254826D01*
X41571Y255906D01*
X41429Y256985D01*
X41023Y257965D01*
X42857Y259800D01*
X43096Y260158D01*
X43180Y260580D01*
Y268288D01*
X43257D01*
X43641Y268364D01*
X43967Y268582D01*
X44185Y268907D01*
X44261Y269291D01*
Y269959D01*
X45159D01*
Y269685D01*
X45235Y269301D01*
X45453Y268975D01*
X45778Y268758D01*
X46162Y268682D01*
X48524D01*
X48908Y268758D01*
X49234Y268975D01*
X49452Y269301D01*
X49528Y269685D01*
Y272835D01*
X49452Y273219D01*
X49234Y273544D01*
X48908Y273762D01*
X48524Y273838D01*
D02*
G37*
G36*
X87337Y275091D02*
X84083D01*
Y271836D01*
X85032Y272091D01*
X85889Y272585D01*
X86588Y273284D01*
X87083Y274141D01*
X87337Y275091D01*
D02*
G37*
G36*
X83083D02*
X79828D01*
X80083Y274141D01*
X80577Y273284D01*
X81277Y272585D01*
X82133Y272091D01*
X83083Y271836D01*
Y275091D01*
D02*
G37*
G36*
X37058Y273862D02*
X36376D01*
Y271366D01*
X38478D01*
Y272441D01*
X38370Y272985D01*
X38062Y273446D01*
X37601Y273754D01*
X37058Y273862D01*
D02*
G37*
G36*
X101693Y292284D02*
X94528D01*
Y290380D01*
X86747Y282600D01*
X75541D01*
X75118Y282516D01*
X74760Y282277D01*
X66322Y273838D01*
X64124D01*
X63740Y273762D01*
X63414Y273544D01*
X63196Y273219D01*
X63120Y272835D01*
Y269685D01*
X63196Y269301D01*
X63414Y268975D01*
X63740Y268758D01*
X64124Y268682D01*
X66486D01*
X66870Y268758D01*
X67195Y268975D01*
X67413Y269301D01*
X67489Y269685D01*
Y271907D01*
X67562Y271956D01*
X75998Y280392D01*
X87205D01*
X87627Y280476D01*
X87985Y280715D01*
X96089Y288819D01*
X101693D01*
Y292284D01*
D02*
G37*
G36*
X54675Y284468D02*
X52313D01*
X51929Y284392D01*
X51603Y284174D01*
X51385Y283849D01*
X51309Y283465D01*
Y280315D01*
X51385Y279931D01*
X51603Y279605D01*
X51929Y279388D01*
X52313Y279311D01*
X52415D01*
Y273838D01*
X52362D01*
X51978Y273762D01*
X51653Y273544D01*
X51435Y273219D01*
X51359Y272835D01*
Y269685D01*
X51435Y269301D01*
X51653Y268975D01*
X51978Y268758D01*
X52362Y268682D01*
X54724D01*
X55108Y268758D01*
X55434Y268975D01*
X55651Y269301D01*
X55728Y269685D01*
Y270156D01*
X56920D01*
Y269685D01*
X56997Y269301D01*
X57214Y268975D01*
X57540Y268758D01*
X57924Y268682D01*
X60286D01*
X60670Y268758D01*
X60995Y268975D01*
X61213Y269301D01*
X61289Y269685D01*
Y272835D01*
X61213Y273219D01*
X60995Y273544D01*
X60670Y273762D01*
X60286Y273838D01*
X57924D01*
X57540Y273762D01*
X57214Y273544D01*
X56997Y273219D01*
X56920Y272835D01*
Y272364D01*
X55728D01*
Y272835D01*
X55651Y273219D01*
X55434Y273544D01*
X55108Y273762D01*
X54724Y273838D01*
X54622D01*
Y279311D01*
X54675D01*
X55059Y279388D01*
X55384Y279605D01*
X55602Y279931D01*
X55678Y280315D01*
Y283465D01*
X55602Y283849D01*
X55384Y284174D01*
X55059Y284392D01*
X54675Y284468D01*
D02*
G37*
G36*
X38478Y270366D02*
X36376D01*
Y267870D01*
X37058D01*
X37601Y267979D01*
X38062Y268286D01*
X38370Y268748D01*
X38478Y269291D01*
Y270366D01*
D02*
G37*
G36*
X35376Y273862D02*
X34695D01*
X34152Y273754D01*
X33691Y273446D01*
X33382Y272985D01*
X33274Y272441D01*
Y271576D01*
X32283D01*
X31861Y271492D01*
X31503Y271253D01*
X31264Y270895D01*
X31180Y270472D01*
X31264Y270050D01*
X31503Y269692D01*
X31861Y269453D01*
X32283Y269369D01*
X33274D01*
Y269291D01*
X33382Y268748D01*
X33691Y268286D01*
X34152Y267979D01*
X34695Y267870D01*
X35376D01*
Y270866D01*
Y273862D01*
D02*
G37*
G36*
X69237Y262492D02*
X67135D01*
Y259996D01*
X67816D01*
X68360Y260104D01*
X68821Y260413D01*
X69129Y260874D01*
X69237Y261417D01*
Y262492D01*
D02*
G37*
G36*
X116191Y257696D02*
X113829D01*
X113445Y257620D01*
X113119Y257402D01*
X112902Y257077D01*
X112826Y256693D01*
Y256222D01*
X110236D01*
Y256594D01*
X106732D01*
Y253642D01*
X110236D01*
Y254014D01*
X112826D01*
Y253543D01*
X112902Y253159D01*
X113119Y252834D01*
X113445Y252616D01*
X113829Y252540D01*
X113906D01*
Y251791D01*
X113829D01*
X113445Y251714D01*
X113119Y251497D01*
X112902Y251171D01*
X112826Y250787D01*
Y247638D01*
X112902Y247254D01*
X113119Y246928D01*
X113445Y246711D01*
X113829Y246634D01*
X116191D01*
X116575Y246711D01*
X116901Y246928D01*
X117119Y247254D01*
X117195Y247638D01*
Y250787D01*
X117119Y251171D01*
X116901Y251497D01*
X116575Y251714D01*
X116191Y251791D01*
X116114D01*
Y252540D01*
X116191D01*
X116575Y252616D01*
X116901Y252834D01*
X117119Y253159D01*
X117195Y253543D01*
Y256693D01*
X117119Y257077D01*
X116901Y257402D01*
X116575Y257620D01*
X116191Y257696D01*
D02*
G37*
G36*
X95866Y256890D02*
X88976D01*
Y253346D01*
X95866D01*
Y254014D01*
X98425D01*
Y253642D01*
X101929D01*
Y256594D01*
X98425D01*
Y256222D01*
X95866D01*
Y256890D01*
D02*
G37*
G36*
X62008D02*
X55118D01*
Y253346D01*
X62008D01*
Y254014D01*
X62992D01*
Y253642D01*
X66496D01*
Y256594D01*
X62992D01*
Y256222D01*
X62008D01*
Y256890D01*
D02*
G37*
G36*
X17717Y260075D02*
X16142D01*
X15063Y259933D01*
X14057Y259516D01*
X13193Y258854D01*
X12531Y257990D01*
X12114Y256985D01*
X11972Y255906D01*
X12114Y254826D01*
X12531Y253821D01*
X13193Y252957D01*
X14057Y252295D01*
X15063Y251878D01*
X16142Y251736D01*
X17717D01*
X18796Y251878D01*
X19801Y252295D01*
X20665Y252957D01*
X21327Y253821D01*
X21744Y254826D01*
X21886Y255906D01*
X21744Y256985D01*
X21327Y257990D01*
X20665Y258854D01*
X19801Y259516D01*
X18796Y259933D01*
X17717Y260075D01*
D02*
G37*
G36*
X142521Y251625D02*
X136615D01*
X136163Y251437D01*
X135976Y250985D01*
Y249607D01*
X136163Y249155D01*
X136615Y248968D01*
X142521D01*
X142973Y249155D01*
X143160Y249607D01*
Y250985D01*
X142973Y251437D01*
X142521Y251625D01*
D02*
G37*
G36*
X164273Y251625D02*
X158367D01*
X157915Y251437D01*
X157728Y250985D01*
Y249607D01*
X157915Y249155D01*
X158367Y248968D01*
X164273D01*
X164725Y249155D01*
X164912Y249607D01*
Y250985D01*
X164725Y251437D01*
X164273Y251625D01*
D02*
G37*
G36*
X58317Y247854D02*
X55955D01*
X55571Y247778D01*
X55246Y247560D01*
X55028Y247234D01*
X54952Y246850D01*
Y246379D01*
X51008D01*
X50610Y246778D01*
X49959Y247047D01*
X49254D01*
X48603Y246778D01*
X48104Y246279D01*
X47835Y245628D01*
Y244923D01*
X48104Y244272D01*
X48603Y243774D01*
X49254Y243504D01*
X49959D01*
X50610Y243774D01*
X51008Y244172D01*
X54952D01*
Y243701D01*
X55028Y243317D01*
X55246Y242991D01*
X55571Y242774D01*
X55955Y242697D01*
X58317D01*
X58701Y242774D01*
X59027Y242991D01*
X59245Y243317D01*
X59321Y243701D01*
Y246850D01*
X59245Y247234D01*
X59027Y247560D01*
X58701Y247778D01*
X58317Y247854D01*
D02*
G37*
G36*
X123812Y248713D02*
X121710D01*
Y246217D01*
X122391D01*
X122935Y246325D01*
X123396Y246633D01*
X123704Y247094D01*
X123812Y247638D01*
Y248713D01*
D02*
G37*
G36*
X120710D02*
X118608D01*
Y247638D01*
X118716Y247094D01*
X119024Y246633D01*
X119485Y246325D01*
X120029Y246217D01*
X120710D01*
Y248713D01*
D02*
G37*
G36*
X120118Y241705D02*
X119094D01*
X118105Y241440D01*
X117218Y240928D01*
X116493Y240204D01*
X115981Y239317D01*
X115716Y238327D01*
Y237303D01*
X115981Y236313D01*
X116493Y235426D01*
X117218Y234702D01*
X118105Y234190D01*
X119094Y233924D01*
X120118D01*
X121108Y234190D01*
X121995Y234702D01*
X122720Y235426D01*
X123232Y236313D01*
X123497Y237303D01*
Y238327D01*
X123232Y239317D01*
X122720Y240204D01*
X121995Y240928D01*
X121108Y241440D01*
X120118Y241705D01*
D02*
G37*
G36*
X43413Y240156D02*
Y232785D01*
X48489D01*
Y234647D01*
X48299Y236090D01*
X47742Y237435D01*
X46856Y238589D01*
X45701Y239475D01*
X44356Y240032D01*
X43413Y240156D01*
D02*
G37*
G36*
X171367D02*
Y232785D01*
X176443D01*
Y234647D01*
X176253Y236090D01*
X175696Y237435D01*
X174810Y238589D01*
X173655Y239475D01*
X172310Y240032D01*
X171367Y240156D01*
D02*
G37*
G36*
X42413D02*
X41470Y240032D01*
X40126Y239475D01*
X38971Y238589D01*
X38085Y237435D01*
X37528Y236090D01*
X37338Y234647D01*
Y232785D01*
X42413D01*
Y240156D01*
D02*
G37*
G36*
X170367D02*
X169424Y240032D01*
X168080Y239475D01*
X166925Y238589D01*
X166039Y237435D01*
X165482Y236090D01*
X165292Y234647D01*
Y232785D01*
X170367D01*
Y240156D01*
D02*
G37*
G36*
X130422D02*
Y232785D01*
X135498D01*
Y234647D01*
X135308Y236090D01*
X134751Y237435D01*
X133865Y238589D01*
X132710Y239475D01*
X131366Y240032D01*
X130422Y240156D01*
D02*
G37*
G36*
X129422D02*
X128480Y240032D01*
X127135Y239475D01*
X125980Y238589D01*
X125094Y237435D01*
X124537Y236090D01*
X124347Y234647D01*
Y232785D01*
X129422D01*
Y240156D01*
D02*
G37*
G36*
X11130D02*
Y232785D01*
X16205D01*
Y234647D01*
X16015Y236090D01*
X15458Y237435D01*
X14572Y238589D01*
X13418Y239475D01*
X12073Y240032D01*
X11130Y240156D01*
D02*
G37*
G36*
X10130D02*
X9187Y240032D01*
X7842Y239475D01*
X6688Y238589D01*
X5802Y237435D01*
X5245Y236090D01*
X5055Y234647D01*
Y232785D01*
X10130D01*
Y240156D01*
D02*
G37*
G36*
X176443Y231785D02*
X171367D01*
Y224413D01*
X172310Y224537D01*
X173655Y225094D01*
X174810Y225980D01*
X175696Y227135D01*
X176253Y228479D01*
X176443Y229922D01*
Y231785D01*
D02*
G37*
G36*
X48489D02*
X43413D01*
Y224413D01*
X44356Y224537D01*
X45701Y225094D01*
X46856Y225980D01*
X47742Y227135D01*
X48299Y228479D01*
X48489Y229922D01*
Y231785D01*
D02*
G37*
G36*
X135498Y231785D02*
X130422D01*
Y224413D01*
X131366Y224537D01*
X132710Y225094D01*
X133865Y225980D01*
X134751Y227135D01*
X135308Y228479D01*
X135498Y229922D01*
Y231785D01*
D02*
G37*
G36*
X129422D02*
X124347D01*
Y229922D01*
X124537Y228479D01*
X125094Y227135D01*
X125980Y225980D01*
X127135Y225094D01*
X128480Y224537D01*
X129422Y224413D01*
Y231785D01*
D02*
G37*
G36*
X16205D02*
X11130D01*
Y224413D01*
X12073Y224537D01*
X13418Y225094D01*
X14572Y225980D01*
X15458Y227135D01*
X16015Y228479D01*
X16205Y229922D01*
Y231785D01*
D02*
G37*
G36*
X10130D02*
X5055D01*
Y229922D01*
X5245Y228479D01*
X5802Y227135D01*
X6688Y225980D01*
X7842Y225094D01*
X9187Y224537D01*
X10130Y224413D01*
Y231785D01*
D02*
G37*
G36*
X170367Y231785D02*
X165292D01*
Y229922D01*
X165482Y228479D01*
X166039Y227135D01*
X166925Y225980D01*
X168080Y225094D01*
X169424Y224537D01*
X170367Y224413D01*
Y231785D01*
D02*
G37*
G36*
X42413D02*
X37338D01*
Y229922D01*
X37528Y228479D01*
X38085Y227135D01*
X38971Y225980D01*
X40126Y225094D01*
X41470Y224537D01*
X42413Y224413D01*
Y231785D01*
D02*
G37*
G36*
X120172Y227115D02*
X120106D01*
Y223315D01*
X123906D01*
Y223381D01*
X123613Y224475D01*
X123047Y225455D01*
X122247Y226256D01*
X121266Y226822D01*
X120172Y227115D01*
D02*
G37*
G36*
X119106D02*
X119040D01*
X117947Y226822D01*
X116966Y226256D01*
X116165Y225455D01*
X115599Y224475D01*
X115306Y223381D01*
Y223315D01*
X119106D01*
Y227115D01*
D02*
G37*
G36*
X123906Y222315D02*
X120106D01*
Y218515D01*
X120172D01*
X121266Y218808D01*
X122247Y219374D01*
X123047Y220175D01*
X123613Y221155D01*
X123906Y222249D01*
Y222315D01*
D02*
G37*
G36*
X119106D02*
X115306D01*
Y222249D01*
X115599Y221155D01*
X116165Y220175D01*
X116966Y219374D01*
X117947Y218808D01*
X119040Y218515D01*
X119106D01*
Y222315D01*
D02*
G37*
G36*
X56258Y222638D02*
X55553D01*
X54902Y222368D01*
X54404Y221870D01*
X54134Y221218D01*
Y220514D01*
X54290Y220137D01*
Y218779D01*
X54114D01*
Y216803D01*
X52254D01*
X52254Y216803D01*
X51640Y216680D01*
X51119Y216332D01*
X51119Y216332D01*
X49520Y214733D01*
X47638D01*
X47254Y214657D01*
X46928Y214440D01*
X46711Y214114D01*
X46634Y213730D01*
Y211368D01*
X46711Y210984D01*
X46928Y210658D01*
X47254Y210441D01*
X47638Y210364D01*
X50787D01*
X51171Y210441D01*
X51497Y210658D01*
X51714Y210984D01*
X51791Y211368D01*
Y212463D01*
X52919Y213591D01*
X54114D01*
Y211614D01*
X57657D01*
Y218779D01*
X57501D01*
Y220089D01*
X57677Y220514D01*
Y221218D01*
X57407Y221870D01*
X56909Y222368D01*
X56258Y222638D01*
D02*
G37*
G36*
X164076Y215699D02*
X158269D01*
X157817Y215512D01*
X157630Y215060D01*
Y212993D01*
X157817Y212541D01*
X158269Y212354D01*
X164076D01*
X164528Y212541D01*
X164715Y212993D01*
Y215060D01*
X164528Y215512D01*
X164076Y215699D01*
D02*
G37*
G36*
X142422Y215601D02*
X136714D01*
X136262Y215414D01*
X136075Y214962D01*
Y212785D01*
X136262Y212333D01*
X136714Y212145D01*
X142422D01*
X142875Y212333D01*
X143062Y212785D01*
Y214962D01*
X142875Y215414D01*
X142422Y215601D01*
D02*
G37*
G36*
X67323Y225463D02*
X64173D01*
X63789Y225386D01*
X63464Y225169D01*
X63246Y224843D01*
X63170Y224459D01*
Y222097D01*
X63246Y221713D01*
X63464Y221387D01*
X63789Y221170D01*
X64173Y221093D01*
X64782D01*
Y218779D01*
X64114D01*
Y211614D01*
X67658D01*
Y214093D01*
X69114D01*
Y211614D01*
X72658D01*
Y218779D01*
X69114D01*
Y216301D01*
X67658D01*
Y218779D01*
X66990D01*
Y221093D01*
X67323D01*
X67707Y221170D01*
X68032Y221387D01*
X68250Y221713D01*
X68326Y222097D01*
Y224459D01*
X68250Y224843D01*
X68032Y225169D01*
X67707Y225386D01*
X67323Y225463D01*
D02*
G37*
G36*
X36615Y213618D02*
X35536Y213476D01*
X34531Y213060D01*
X33667Y212397D01*
X33005Y211534D01*
X32588Y210528D01*
X32488Y209765D01*
X30900D01*
X30799Y210528D01*
X30383Y211534D01*
X29720Y212397D01*
X28856Y213060D01*
X27851Y213476D01*
X26772Y213618D01*
X25692Y213476D01*
X24687Y213060D01*
X23823Y212397D01*
X23161Y211534D01*
X22744Y210528D01*
X22602Y209449D01*
Y207874D01*
X22744Y206795D01*
X23161Y205789D01*
X23823Y204926D01*
X24687Y204263D01*
X25668Y203857D01*
Y196225D01*
X22940Y193497D01*
X22701Y193139D01*
X22617Y192717D01*
Y182323D01*
X22701Y181900D01*
X22940Y181542D01*
X24213Y180270D01*
Y178287D01*
X31378D01*
Y178955D01*
X32117D01*
Y177953D01*
X32193Y177569D01*
X32411Y177243D01*
X32736Y177026D01*
X33121Y176949D01*
X35483D01*
X35867Y177026D01*
X36192Y177243D01*
X36410Y177569D01*
X36486Y177953D01*
Y181102D01*
X36410Y181486D01*
X36192Y181812D01*
X35867Y182029D01*
X35483Y182106D01*
X33121D01*
X32736Y182029D01*
X32411Y181812D01*
X32193Y181486D01*
X32129Y181163D01*
X31378D01*
Y181831D01*
X25774D01*
X24824Y182780D01*
Y183287D01*
X31378D01*
Y184560D01*
X34791Y187973D01*
X35483D01*
X35867Y188049D01*
X36192Y188267D01*
X36410Y188592D01*
X36486Y188976D01*
Y192126D01*
X36410Y192510D01*
X36192Y192836D01*
X35882Y193043D01*
Y194582D01*
X36024Y194923D01*
Y195628D01*
X35754Y196279D01*
X35256Y196777D01*
X34604Y197047D01*
X33900D01*
X33248Y196777D01*
X32750Y196279D01*
X32480Y195628D01*
Y194923D01*
X32671Y194463D01*
Y193009D01*
X32411Y192836D01*
X32193Y192510D01*
X32117Y192126D01*
Y190019D01*
X32105Y189961D01*
X32105Y189961D01*
Y189829D01*
X29107Y186831D01*
X24824D01*
Y192259D01*
X27552Y194987D01*
X27792Y195345D01*
X27876Y195768D01*
Y203857D01*
X28856Y204263D01*
X29720Y204926D01*
X30383Y205789D01*
X30799Y206795D01*
X30900Y207558D01*
X32488D01*
X32588Y206795D01*
X33005Y205789D01*
X33667Y204926D01*
X34531Y204263D01*
X35536Y203847D01*
X36615Y203705D01*
X37695Y203847D01*
X38700Y204263D01*
X39564Y204926D01*
X40226Y205789D01*
X40643Y206795D01*
X40785Y207874D01*
Y209449D01*
X40643Y210528D01*
X40226Y211534D01*
X39564Y212397D01*
X38700Y213060D01*
X37695Y213476D01*
X36615Y213618D01*
D02*
G37*
G36*
X62657Y218779D02*
X59114D01*
Y211614D01*
X59782D01*
Y210988D01*
X59384Y210590D01*
X59114Y209939D01*
Y209234D01*
X59384Y208583D01*
X59882Y208085D01*
X60533Y207815D01*
X61238D01*
X61889Y208085D01*
X62388Y208583D01*
X62657Y209234D01*
Y209939D01*
X62388Y210590D01*
X61990Y210988D01*
Y211614D01*
X62657D01*
Y218779D01*
D02*
G37*
G36*
X160238Y329761D02*
X159158Y329619D01*
X158153Y329203D01*
X157289Y328540D01*
X156627Y327677D01*
X156210Y326671D01*
X156068Y325592D01*
Y324017D01*
X156210Y322938D01*
X156627Y321932D01*
X157289Y321069D01*
X158153Y320406D01*
X159134Y320000D01*
Y259907D01*
X137359Y238133D01*
X137120Y237775D01*
X137036Y237352D01*
Y222849D01*
X121525Y207338D01*
X121224Y207458D01*
X121063Y207583D01*
Y208226D01*
X120793Y208878D01*
X120295Y209376D01*
X119644Y209646D01*
X119081D01*
X105828Y222898D01*
Y260173D01*
X111410Y265755D01*
X111650Y266113D01*
X111734Y266535D01*
Y267156D01*
X112205D01*
X112589Y267233D01*
X112914Y267450D01*
X113132Y267776D01*
X113208Y268160D01*
Y270522D01*
X113132Y270906D01*
X112914Y271232D01*
X112589Y271449D01*
X112205Y271526D01*
X109055D01*
X108671Y271449D01*
X108345Y271232D01*
X108128Y270906D01*
X108052Y270522D01*
Y268160D01*
X108128Y267776D01*
X108345Y267450D01*
X108671Y267233D01*
X108995Y267168D01*
X109099Y266994D01*
X109190Y266656D01*
X103944Y261410D01*
X103705Y261052D01*
X103621Y260630D01*
Y222441D01*
X103705Y222019D01*
X103944Y221660D01*
X117520Y208085D01*
Y207522D01*
X117789Y206871D01*
X118288Y206372D01*
X118939Y206102D01*
X119582D01*
X119708Y205942D01*
X119827Y205640D01*
X100225Y186038D01*
X99635Y186155D01*
X99507Y186463D01*
X99009Y186961D01*
X98358Y187231D01*
X97653D01*
X97002Y186961D01*
X96504Y186463D01*
X96234Y185811D01*
Y185107D01*
X96504Y184455D01*
X97002Y183957D01*
X97309Y183830D01*
X97427Y183240D01*
X76857Y162670D01*
X76618Y162312D01*
X76534Y161890D01*
Y159568D01*
X76388Y159539D01*
X76062Y159321D01*
X75845Y158996D01*
X75768Y158612D01*
Y156250D01*
X75845Y155866D01*
X76062Y155540D01*
X76388Y155323D01*
X76772Y155246D01*
X79921D01*
X80305Y155323D01*
X80631Y155540D01*
X80848Y155866D01*
X80925Y156250D01*
Y158612D01*
X80848Y158996D01*
X80631Y159321D01*
X80472Y159427D01*
X80373Y159494D01*
X80380Y159765D01*
X80456Y159994D01*
X80608Y159994D01*
X81067D01*
X81718Y160264D01*
X82217Y160762D01*
X82254Y160853D01*
X82754Y160753D01*
Y156150D01*
X81257Y154653D01*
X81018Y154295D01*
X80934Y153873D01*
Y153499D01*
X80434Y153253D01*
X80305Y153339D01*
X79921Y153415D01*
X77273D01*
X77264Y153417D01*
X76539D01*
X76293Y153466D01*
X70044D01*
X69942Y153609D01*
X69823Y153966D01*
X70012Y154249D01*
X70101Y154700D01*
Y158096D01*
X70012Y158547D01*
X69756Y158929D01*
X69374Y159185D01*
X68922Y159275D01*
X68141D01*
Y168209D01*
X74016D01*
Y175886D01*
X61692D01*
X61376Y175886D01*
X61132Y176349D01*
X64931Y180148D01*
X65002Y180118D01*
X65707D01*
X66358Y180388D01*
X66856Y180886D01*
X67126Y181537D01*
Y182100D01*
X68055Y183029D01*
X68294Y183387D01*
X68378Y183809D01*
Y184250D01*
X68878Y184402D01*
X68926Y184330D01*
X69251Y184112D01*
X69635Y184036D01*
X70730D01*
X72777Y181990D01*
X72908Y181674D01*
X73406Y181175D01*
X74057Y180905D01*
X74762D01*
X75413Y181175D01*
X75911Y181674D01*
X76181Y182325D01*
Y183030D01*
X75911Y183681D01*
X75413Y184179D01*
X74928Y184380D01*
X73001Y186307D01*
Y188189D01*
X72925Y188573D01*
X72707Y188899D01*
X72457Y189066D01*
Y189882D01*
X72658D01*
Y197047D01*
X69114D01*
Y189882D01*
X69245D01*
Y189123D01*
X69128Y189034D01*
X68926Y188899D01*
X68901Y188862D01*
X68862Y188832D01*
X68378Y188979D01*
Y190144D01*
X68294Y190566D01*
X68055Y190924D01*
X67679Y191300D01*
Y192776D01*
X67658Y192882D01*
Y197047D01*
X64872D01*
X64680Y197509D01*
X69611Y202439D01*
X75424D01*
Y201969D01*
X75500Y201584D01*
X75718Y201259D01*
X76043Y201041D01*
X76428Y200965D01*
X76505D01*
Y199035D01*
X76378D01*
X75994Y198959D01*
X75668Y198741D01*
X75451Y198416D01*
X75374Y198031D01*
Y195669D01*
X75451Y195285D01*
X75668Y194960D01*
X75994Y194742D01*
X76378Y194666D01*
X79528D01*
X79912Y194742D01*
X80237Y194960D01*
X80455Y195285D01*
X80531Y195669D01*
Y198031D01*
X80455Y198416D01*
X80237Y198741D01*
X79912Y198959D01*
X79528Y199035D01*
X78712D01*
Y200965D01*
X78790D01*
X79174Y201041D01*
X79499Y201259D01*
X79717Y201584D01*
X79793Y201969D01*
Y205118D01*
X79717Y205502D01*
X79499Y205828D01*
X79174Y206045D01*
X78790Y206122D01*
X76428D01*
X76043Y206045D01*
X75718Y205828D01*
X75500Y205502D01*
X75424Y205118D01*
Y204647D01*
X69153D01*
X68731Y204563D01*
X68373Y204324D01*
X61096Y197047D01*
X59872D01*
X59680Y197509D01*
X68941Y206770D01*
X75591D01*
X76013Y206854D01*
X76371Y207094D01*
X80387Y211109D01*
X80626Y211467D01*
X80710Y211890D01*
Y221583D01*
X81108Y221690D01*
X81995Y222202D01*
X82719Y222926D01*
X83232Y223813D01*
X83497Y224803D01*
Y225827D01*
X83232Y226817D01*
X82719Y227704D01*
X81995Y228428D01*
X81108Y228940D01*
X80119Y229205D01*
X79094D01*
X78105Y228940D01*
X77748Y228734D01*
X76174Y230308D01*
X75816Y230547D01*
X75394Y230631D01*
X68326D01*
Y230659D01*
X68250Y231043D01*
X68032Y231369D01*
X67707Y231586D01*
X67323Y231663D01*
X64173D01*
X63789Y231586D01*
X63464Y231369D01*
X63246Y231043D01*
X63170Y230659D01*
Y228297D01*
X63246Y227913D01*
X63464Y227587D01*
X63789Y227370D01*
X64173Y227293D01*
X67323D01*
X67707Y227370D01*
X68032Y227587D01*
X68250Y227913D01*
X68326Y228297D01*
Y228424D01*
X74936D01*
X76187Y227173D01*
X75981Y226817D01*
X75716Y225827D01*
Y224803D01*
X75981Y223813D01*
X76493Y222926D01*
X77217Y222202D01*
X78105Y221690D01*
X78502Y221583D01*
Y212347D01*
X75133Y208978D01*
X68484D01*
X68062Y208894D01*
X67704Y208655D01*
X56096Y197047D01*
X54114D01*
Y189882D01*
X57657D01*
Y195486D01*
X58652Y196481D01*
X59114Y196290D01*
Y189882D01*
X62196Y189882D01*
X62211Y189881D01*
X62575Y189376D01*
X62550Y189274D01*
X62431Y189194D01*
X62123Y188733D01*
X62014Y188189D01*
Y187718D01*
X61024D01*
X60601Y187634D01*
X60243Y187395D01*
X60004Y187037D01*
X59920Y186614D01*
X60004Y186192D01*
X60243Y185834D01*
X60601Y185594D01*
X61024Y185510D01*
X62014D01*
Y185039D01*
X62123Y184496D01*
X62431Y184035D01*
X62892Y183727D01*
X63435Y183618D01*
X63870D01*
X64077Y183118D01*
X63852Y182893D01*
X63583Y182242D01*
Y181922D01*
X57881Y176220D01*
X57642Y175862D01*
X57557Y175440D01*
Y170142D01*
X56564Y169149D01*
X56102Y169340D01*
Y175886D01*
X43972D01*
X43765Y176386D01*
X45269Y177890D01*
X45508Y178248D01*
X45592Y178670D01*
Y214897D01*
X80280Y249585D01*
X82480D01*
X82587Y249606D01*
X86614D01*
Y253150D01*
X79724D01*
Y251773D01*
X79400Y251709D01*
X79042Y251469D01*
X56996Y229423D01*
X56496Y229630D01*
Y229880D01*
X56226Y230531D01*
X56167Y230590D01*
X81588Y256011D01*
X81827Y256369D01*
X81911Y256791D01*
Y257087D01*
X86614D01*
Y260630D01*
X84273D01*
Y263287D01*
X84189Y263710D01*
X83950Y264068D01*
X80308Y267710D01*
X79950Y267949D01*
X79528Y268033D01*
X57382D01*
X56959Y267949D01*
X56601Y267710D01*
X49522Y260630D01*
X45866D01*
Y257087D01*
X52756D01*
Y260630D01*
X52756Y260630D01*
X52756D01*
X53022Y261008D01*
X57839Y265825D01*
X64017D01*
X64284Y265325D01*
X64141Y265111D01*
X64033Y264567D01*
Y264096D01*
X62205D01*
X61782Y264012D01*
X61424Y263773D01*
X61185Y263415D01*
X61101Y262992D01*
X61185Y262570D01*
X61424Y262212D01*
X61782Y261972D01*
X62205Y261888D01*
X64033D01*
Y261417D01*
X64141Y260874D01*
X64449Y260413D01*
X64910Y260104D01*
X65453Y259996D01*
X66135D01*
Y262992D01*
X66635D01*
Y263492D01*
X69237D01*
Y264567D01*
X69129Y265111D01*
X68985Y265325D01*
X69253Y265825D01*
X70865D01*
X71017Y265325D01*
X70944Y265277D01*
X70726Y264951D01*
X70650Y264567D01*
Y261417D01*
X70726Y261033D01*
X70944Y260708D01*
X71270Y260490D01*
X71653Y260414D01*
X71839D01*
Y256594D01*
X71299D01*
Y255193D01*
X63960Y247854D01*
X62155D01*
X61771Y247778D01*
X61445Y247560D01*
X61228Y247234D01*
X61152Y246850D01*
Y243701D01*
X61228Y243317D01*
X61445Y242991D01*
X61771Y242774D01*
X62155Y242697D01*
X64445D01*
X64573Y242525D01*
X64673Y242218D01*
X54207Y231753D01*
X53968Y231395D01*
X53911Y231108D01*
X53721Y231030D01*
X53223Y230531D01*
X52953Y229880D01*
Y229175D01*
X53223Y228524D01*
X53721Y228026D01*
X54372Y227756D01*
X54621D01*
X54829Y227256D01*
X43708Y216135D01*
X43468Y215777D01*
X43384Y215354D01*
Y192988D01*
X42884Y192836D01*
X42687Y193131D01*
X42226Y193439D01*
X41683Y193547D01*
X41605D01*
Y195226D01*
X41521Y195648D01*
X41282Y196007D01*
X40924Y196246D01*
X40502Y196330D01*
X40079Y196246D01*
X39721Y196007D01*
X39482Y195648D01*
X39398Y195226D01*
Y193547D01*
X39320D01*
X38777Y193439D01*
X38316Y193131D01*
X38008Y192670D01*
X37900Y192126D01*
Y191051D01*
X40502D01*
Y190051D01*
X37900D01*
Y188976D01*
X38008Y188433D01*
X38316Y187972D01*
X38777Y187664D01*
X39320Y187555D01*
X39423D01*
Y183883D01*
X39427Y183858D01*
X39423Y183834D01*
Y182523D01*
X39320D01*
X38777Y182415D01*
X38316Y182107D01*
X38008Y181646D01*
X37900Y181102D01*
Y180028D01*
X40502D01*
Y179028D01*
X37900D01*
Y177953D01*
X38008Y177409D01*
X38316Y176948D01*
X38742Y176663D01*
X38747Y176627D01*
X38449Y176163D01*
X31378D01*
Y176831D01*
X24213D01*
Y173287D01*
X26691D01*
Y171831D01*
X24213D01*
Y168287D01*
X31378D01*
Y171831D01*
X28899D01*
Y173287D01*
X31378D01*
Y173955D01*
X40877D01*
X41299Y174039D01*
X41658Y174278D01*
X42807Y175428D01*
X43307Y175221D01*
Y171038D01*
X43128Y170919D01*
X43128Y170919D01*
X38776Y166566D01*
X32904D01*
X32904Y166566D01*
X32289Y166444D01*
X31768Y166096D01*
X31768Y166096D01*
X19384Y153712D01*
X16732D01*
Y153878D01*
X9567D01*
Y150335D01*
X11544D01*
Y148878D01*
X9567D01*
Y145335D01*
X16732D01*
Y148878D01*
X14755D01*
Y150335D01*
X16732D01*
Y150501D01*
X20049D01*
X20049Y150501D01*
X20664Y150623D01*
X21185Y150971D01*
X27962Y157748D01*
X28424Y157557D01*
Y153937D01*
X28508Y153515D01*
X28747Y153156D01*
X30621Y151282D01*
X30979Y151043D01*
X31299Y150979D01*
Y150335D01*
X38465D01*
Y153878D01*
X31299D01*
X31299Y153878D01*
Y153878D01*
X30906Y154120D01*
X30631Y154394D01*
Y157569D01*
X30799Y157694D01*
X31299Y157444D01*
Y155335D01*
X34924D01*
X35079Y155304D01*
X35079Y155304D01*
X39597D01*
Y155118D01*
X39674Y154734D01*
X39891Y154409D01*
X40217Y154191D01*
X40601Y154115D01*
X42963D01*
X43347Y154191D01*
X43673Y154409D01*
X43890Y154734D01*
X43966Y155118D01*
Y158268D01*
X43890Y158652D01*
X43673Y158977D01*
X43363Y159184D01*
Y160434D01*
X43504Y160775D01*
Y161480D01*
X43377Y161787D01*
X43711Y162287D01*
X52368D01*
X52790Y162371D01*
X53148Y162611D01*
X59442Y168904D01*
X59681Y169263D01*
X59765Y169685D01*
Y174982D01*
X60757Y175974D01*
X60768Y175968D01*
X60768Y175968D01*
X61221Y175730D01*
X61221Y175450D01*
Y168209D01*
X64930D01*
Y159275D01*
X64149D01*
X63697Y159185D01*
X63315Y158929D01*
X63123Y158643D01*
X56412D01*
X56221Y158928D01*
X55896Y159145D01*
X55512Y159222D01*
X52362D01*
X51978Y159145D01*
X51653Y158928D01*
X51435Y158602D01*
X51359Y158218D01*
Y155856D01*
X51435Y155472D01*
X51653Y155146D01*
X51978Y154929D01*
X52362Y154852D01*
X55512D01*
X55896Y154929D01*
X56221Y155146D01*
X56412Y155431D01*
X62969D01*
Y154700D01*
X63059Y154249D01*
X63248Y153966D01*
X63129Y153609D01*
X63026Y153466D01*
X61073D01*
X60651Y153382D01*
X60293Y153143D01*
X57395Y150245D01*
X57172Y150337D01*
X53937D01*
Y150837D01*
X53437D01*
Y153439D01*
X52362D01*
X51818Y153331D01*
X51357Y153023D01*
X51049Y152562D01*
X50941Y152018D01*
Y151916D01*
X50706D01*
X50284Y151832D01*
X49926Y151593D01*
X49901Y151568D01*
X49661Y151210D01*
X49577Y150787D01*
X49661Y150365D01*
X49901Y150007D01*
X50259Y149768D01*
X50681Y149683D01*
X51014Y149292D01*
X51049Y149112D01*
X51357Y148651D01*
X51818Y148343D01*
X52163Y148275D01*
Y147765D01*
X51978Y147728D01*
X51653Y147510D01*
X51435Y147185D01*
X51359Y146801D01*
Y146724D01*
X45098D01*
Y146801D01*
X45022Y147185D01*
X44804Y147510D01*
X44478Y147728D01*
X44094Y147804D01*
X40945D01*
X40561Y147728D01*
X40235Y147510D01*
X40018Y147185D01*
X39941Y146801D01*
Y146724D01*
X38637D01*
X38465Y146896D01*
Y148878D01*
X31299D01*
Y145335D01*
X36903D01*
X37399Y144839D01*
X37757Y144600D01*
X38179Y144516D01*
X39941D01*
Y144439D01*
X40018Y144055D01*
X40235Y143729D01*
X40561Y143511D01*
X40945Y143435D01*
X44094D01*
X44478Y143511D01*
X44804Y143729D01*
X45022Y144055D01*
X45098Y144439D01*
Y144516D01*
X51359D01*
Y144439D01*
X51435Y144055D01*
X51653Y143729D01*
X51978Y143511D01*
X52362Y143435D01*
X55512D01*
X55896Y143511D01*
X56221Y143729D01*
X56439Y144055D01*
X56515Y144439D01*
Y146243D01*
X61531Y151258D01*
X63026D01*
X63129Y151116D01*
X63248Y150758D01*
X63059Y150476D01*
X62969Y150025D01*
Y146629D01*
X63059Y146178D01*
X63315Y145795D01*
X63697Y145539D01*
X64149Y145450D01*
X64938D01*
Y144761D01*
X64444Y144701D01*
X64280D01*
Y142520D01*
X63779D01*
Y142020D01*
X61598D01*
X61598Y140809D01*
Y140703D01*
X61560Y140561D01*
X61085Y140443D01*
X60951Y140767D01*
X60452Y141266D01*
X59801Y141535D01*
X59096D01*
X58445Y141266D01*
X57947Y140767D01*
X57917Y140696D01*
X56497D01*
X56439Y140985D01*
X56221Y141310D01*
X55896Y141528D01*
X55512Y141604D01*
X52362D01*
X51978Y141528D01*
X51653Y141310D01*
X51435Y140985D01*
X51359Y140601D01*
Y140524D01*
X45098D01*
Y140601D01*
X45022Y140985D01*
X44804Y141310D01*
X44478Y141528D01*
X44094Y141604D01*
X40945D01*
X40561Y141528D01*
X40235Y141310D01*
X40018Y140985D01*
X39960Y140697D01*
X39585Y140608D01*
X39445Y140610D01*
X38465Y141591D01*
Y143878D01*
X31299D01*
Y140335D01*
X36600D01*
X36601Y140332D01*
X38294Y138639D01*
X38652Y138400D01*
X39075Y138316D01*
X39941D01*
Y138239D01*
X40018Y137855D01*
X40235Y137529D01*
X40561Y137311D01*
X40945Y137235D01*
X44094D01*
X44478Y137311D01*
X44804Y137529D01*
X45022Y137855D01*
X45098Y138239D01*
Y138316D01*
X51359D01*
Y138239D01*
X51435Y137855D01*
X51653Y137529D01*
X51978Y137311D01*
X52362Y137235D01*
X55512D01*
X55896Y137311D01*
X56221Y137529D01*
X56439Y137855D01*
X56515Y138239D01*
Y138488D01*
X58219D01*
X58445Y138262D01*
X59096Y137992D01*
X59801D01*
X60452Y138262D01*
X60951Y138760D01*
X61221Y139411D01*
Y139925D01*
X61221Y140044D01*
X61475Y140242D01*
X61669Y140339D01*
X62003Y140339D01*
X62676D01*
Y139764D01*
X62760Y139341D01*
X62999Y138983D01*
X63357Y138744D01*
X63779Y138660D01*
X64202Y138744D01*
X64560Y138983D01*
X64799Y139341D01*
X64883Y139764D01*
Y140339D01*
X65961D01*
X65961Y140339D01*
Y140339D01*
X66406Y140180D01*
X68285Y138301D01*
Y133743D01*
X67785Y133583D01*
X66860Y134293D01*
X65659Y134790D01*
X64370Y134960D01*
X60933D01*
Y129980D01*
Y125001D01*
X64370D01*
X65659Y125170D01*
X66860Y125668D01*
X67785Y126378D01*
X68285Y126217D01*
Y125085D01*
X58805Y115605D01*
X58395Y115070D01*
X58137Y114448D01*
X58049Y113779D01*
Y70649D01*
X56496D01*
X55314Y70494D01*
X54213Y70038D01*
X53267Y69312D01*
X52541Y68366D01*
X52085Y67265D01*
X51929Y66083D01*
X52085Y64901D01*
X52541Y63799D01*
X53267Y62854D01*
X54213Y62128D01*
X55314Y61672D01*
X56496Y61516D01*
X64370D01*
X65552Y61672D01*
X66653Y62128D01*
X67599Y62854D01*
X68325Y63799D01*
X68781Y64901D01*
X68937Y66083D01*
X68781Y67265D01*
X68325Y68366D01*
X67599Y69312D01*
X66653Y70038D01*
X65552Y70494D01*
X64370Y70649D01*
X63211D01*
Y112710D01*
X72691Y122191D01*
X73102Y122725D01*
X73359Y123348D01*
X73447Y124016D01*
Y139370D01*
X73359Y140038D01*
X73102Y140661D01*
X72691Y141195D01*
X70101Y143786D01*
Y144761D01*
X70101Y144761D01*
Y146626D01*
X70101Y146629D01*
Y150025D01*
X70012Y150476D01*
X69823Y150758D01*
X69942Y151116D01*
X70044Y151258D01*
X75768D01*
Y150050D01*
X75845Y149666D01*
X76062Y149340D01*
X76388Y149123D01*
X76772Y149046D01*
X79921D01*
X80305Y149123D01*
X80434Y149208D01*
X80934Y148962D01*
Y143540D01*
X78469Y141074D01*
X78305Y141142D01*
X77600D01*
X76949Y140872D01*
X76451Y140374D01*
X76181Y139723D01*
Y139018D01*
X76451Y138366D01*
X76949Y137868D01*
X77600Y137598D01*
X78305D01*
X78956Y137868D01*
X79455Y138366D01*
X79724Y139018D01*
Y139208D01*
X82818Y142302D01*
X83058Y142660D01*
X83142Y143082D01*
Y153415D01*
X84639Y154913D01*
X84878Y155271D01*
X84962Y155693D01*
Y164928D01*
X114205Y194172D01*
X153543D01*
X153966Y194256D01*
X154324Y194495D01*
X158177Y198348D01*
X159158Y197942D01*
X160238Y197800D01*
X161317Y197942D01*
X162322Y198359D01*
X163186Y199021D01*
X163848Y199885D01*
X164265Y200890D01*
X164407Y201970D01*
Y203544D01*
X164265Y204624D01*
X163848Y205629D01*
X163186Y206493D01*
X162322Y207155D01*
X161317Y207572D01*
X160238Y207714D01*
X159158Y207572D01*
X158153Y207155D01*
X157289Y206493D01*
X156627Y205629D01*
X156210Y204624D01*
X156068Y203544D01*
Y201970D01*
X156210Y200890D01*
X156616Y199910D01*
X153086Y196379D01*
X114396D01*
X114189Y196879D01*
X138920Y221611D01*
X139160Y221969D01*
X139244Y222392D01*
Y236895D01*
X161018Y258669D01*
X161257Y259028D01*
X161341Y259450D01*
Y320000D01*
X162322Y320406D01*
X163186Y321069D01*
X163848Y321932D01*
X164265Y322938D01*
X164407Y324017D01*
Y325592D01*
X164265Y326671D01*
X163848Y327677D01*
X163186Y328540D01*
X162322Y329203D01*
X161317Y329619D01*
X160238Y329761D01*
D02*
G37*
G36*
X50787Y208951D02*
X49713D01*
Y206849D01*
X52208D01*
Y207530D01*
X52100Y208074D01*
X51792Y208535D01*
X51331Y208843D01*
X50787Y208951D01*
D02*
G37*
G36*
X48713D02*
X47638D01*
X47094Y208843D01*
X46633Y208535D01*
X46325Y208074D01*
X46217Y207530D01*
Y206849D01*
X48713D01*
Y208951D01*
D02*
G37*
G36*
X52208Y205849D02*
X46217D01*
Y205168D01*
X46325Y204624D01*
X46633Y204163D01*
X47094Y203855D01*
X47638Y203747D01*
X48109D01*
Y202756D01*
X48193Y202333D01*
X48432Y201975D01*
X48790Y201736D01*
X49213Y201652D01*
X49635Y201736D01*
X49993Y201975D01*
X50232Y202333D01*
X50317Y202756D01*
Y203747D01*
X50787D01*
X51331Y203855D01*
X51792Y204163D01*
X52100Y204624D01*
X52208Y205168D01*
Y205849D01*
D02*
G37*
G36*
X86659Y208379D02*
X85954D01*
X85303Y208109D01*
X84804Y207611D01*
X84535Y206960D01*
Y206255D01*
X84073Y206122D01*
X82627D01*
X82244Y206045D01*
X81918Y205828D01*
X81700Y205502D01*
X81624Y205118D01*
Y201969D01*
X81700Y201584D01*
X81918Y201259D01*
X82244Y201041D01*
X82627Y200965D01*
X84990D01*
X85374Y201041D01*
X85699Y201259D01*
X85917Y201584D01*
X85993Y201969D01*
Y204560D01*
X86268Y204836D01*
X86659D01*
X87310Y205105D01*
X87808Y205604D01*
X88078Y206255D01*
Y206960D01*
X87808Y207611D01*
X87310Y208109D01*
X86659Y208379D01*
D02*
G37*
G36*
X144686Y207678D02*
X136419D01*
Y197836D01*
X144686D01*
Y207678D01*
D02*
G37*
G36*
X80119Y239206D02*
X79094D01*
X78105Y238940D01*
X77217Y238428D01*
X76493Y237704D01*
X75981Y236817D01*
X75716Y235827D01*
Y234803D01*
X75981Y233813D01*
X76493Y232926D01*
X77217Y232202D01*
X78105Y231690D01*
X79094Y231424D01*
X80119D01*
X81108Y231690D01*
X81465Y231895D01*
X88660Y224700D01*
Y199035D01*
X88189D01*
X87805Y198959D01*
X87479Y198741D01*
X87262Y198416D01*
X87186Y198031D01*
Y195669D01*
X87262Y195285D01*
X87479Y194960D01*
X87805Y194742D01*
X88189Y194666D01*
X91339D01*
X91723Y194742D01*
X92048Y194960D01*
X92266Y195285D01*
X92342Y195669D01*
Y198031D01*
X92266Y198416D01*
X92048Y198741D01*
X91723Y198959D01*
X91339Y199035D01*
X90868D01*
Y225157D01*
X90784Y225580D01*
X90544Y225938D01*
X83026Y233457D01*
X83232Y233813D01*
X83497Y234803D01*
Y235827D01*
X83232Y236817D01*
X82719Y237704D01*
X81995Y238428D01*
X81108Y238940D01*
X80119Y239206D01*
D02*
G37*
G36*
X79528Y193253D02*
X78453D01*
Y191150D01*
X80949D01*
Y191832D01*
X80840Y192375D01*
X80532Y192836D01*
X80071Y193144D01*
X79528Y193253D01*
D02*
G37*
G36*
X91339D02*
X90264D01*
Y191150D01*
X92760D01*
Y191832D01*
X92651Y192375D01*
X92343Y192836D01*
X91882Y193144D01*
X91339Y193253D01*
D02*
G37*
G36*
X77453D02*
X76378D01*
X75834Y193144D01*
X75373Y192836D01*
X75065Y192375D01*
X74957Y191832D01*
Y191150D01*
X77453D01*
Y193253D01*
D02*
G37*
G36*
X89264D02*
X88189D01*
X87645Y193144D01*
X87184Y192836D01*
X86876Y192375D01*
X86768Y191832D01*
Y191150D01*
X89264D01*
Y193253D01*
D02*
G37*
G36*
X92760Y190150D02*
X90264D01*
Y188048D01*
X91339D01*
X91882Y188156D01*
X92343Y188464D01*
X92651Y188926D01*
X92760Y189469D01*
Y190150D01*
D02*
G37*
G36*
X89264D02*
X86768D01*
Y189469D01*
X86876Y188926D01*
X87184Y188464D01*
X87645Y188156D01*
X88189Y188048D01*
X89264D01*
Y190150D01*
D02*
G37*
G36*
X80949D02*
X78453D01*
Y188048D01*
X79528D01*
X80071Y188156D01*
X80532Y188464D01*
X80840Y188926D01*
X80949Y189469D01*
Y190150D01*
D02*
G37*
G36*
X77453D02*
X74957D01*
Y189469D01*
X75065Y188926D01*
X75373Y188464D01*
X75834Y188156D01*
X76378Y188048D01*
X77453D01*
Y190150D01*
D02*
G37*
G36*
X21064Y213583D02*
X12797D01*
Y205301D01*
X12704Y205208D01*
X12464Y204850D01*
X12380Y204428D01*
Y195101D01*
X11786D01*
X11335Y195012D01*
X10953Y194756D01*
X10697Y194374D01*
X10607Y193922D01*
Y189149D01*
X10697Y188697D01*
X10953Y188315D01*
X11335Y188059D01*
X11786Y187970D01*
X15182D01*
X15633Y188059D01*
X16016Y188315D01*
X16272Y188697D01*
X16361Y189149D01*
Y193922D01*
X16272Y194374D01*
X16016Y194756D01*
X15633Y195012D01*
X15182Y195101D01*
X14588D01*
Y203740D01*
X21064D01*
Y213583D01*
D02*
G37*
G36*
X10055Y187240D02*
X6563D01*
Y185559D01*
X10055D01*
Y187240D01*
D02*
G37*
G36*
Y184559D02*
X6563D01*
Y182878D01*
X10055D01*
Y184559D01*
D02*
G37*
G36*
X166232Y186689D02*
X159827D01*
Y182252D01*
X166232D01*
Y186689D01*
D02*
G37*
G36*
X145669Y186732D02*
X142232D01*
Y182252D01*
X150583D01*
X150479Y183041D01*
X149982Y184242D01*
X149190Y185273D01*
X148159Y186064D01*
X146958Y186562D01*
X145669Y186732D01*
D02*
G37*
G36*
X141232D02*
X137795D01*
X136506Y186562D01*
X135306Y186064D01*
X134274Y185273D01*
X133483Y184242D01*
X132985Y183041D01*
X132881Y182252D01*
X141232D01*
Y186732D01*
D02*
G37*
G36*
X166232Y181252D02*
X159827D01*
Y176815D01*
X166232D01*
Y181252D01*
D02*
G37*
G36*
X150583D02*
X142232D01*
Y176772D01*
X145669D01*
X146958Y176942D01*
X148159Y177439D01*
X149190Y178231D01*
X149982Y179262D01*
X150479Y180463D01*
X150583Y181252D01*
D02*
G37*
G36*
X141232D02*
X132881D01*
X132985Y180463D01*
X133483Y179262D01*
X134274Y178231D01*
X135306Y177439D01*
X136506Y176942D01*
X137795Y176772D01*
X141232D01*
Y181252D01*
D02*
G37*
G36*
X9646Y181831D02*
X2480D01*
Y178287D01*
X4959D01*
Y176831D01*
X2480D01*
Y173287D01*
X9646D01*
Y176831D01*
X7167D01*
Y178287D01*
X9646D01*
Y181831D01*
D02*
G37*
G36*
X167717Y210553D02*
X156299D01*
X155877Y210469D01*
X155519Y210229D01*
X152455Y207166D01*
X151474Y207572D01*
X150395Y207714D01*
X149316Y207572D01*
X148310Y207155D01*
X147447Y206493D01*
X146784Y205629D01*
X146368Y204624D01*
X146226Y203544D01*
Y201970D01*
X146368Y200890D01*
X146784Y199885D01*
X147447Y199021D01*
X148310Y198359D01*
X149316Y197942D01*
X150395Y197800D01*
X151474Y197942D01*
X152480Y198359D01*
X153343Y199021D01*
X154006Y199885D01*
X154422Y200890D01*
X154564Y201970D01*
Y203544D01*
X154422Y204624D01*
X154016Y205605D01*
X156757Y208345D01*
X167259D01*
X173306Y202299D01*
Y186689D01*
X167232D01*
Y181752D01*
Y176815D01*
X173306D01*
Y168808D01*
X169556Y165059D01*
X169095Y165250D01*
Y169685D01*
X158465D01*
Y163386D01*
X167230D01*
X167421Y162924D01*
X143864Y139367D01*
X143856Y139370D01*
X143151D01*
X142500Y139100D01*
X142002Y138602D01*
X141732Y137951D01*
Y137246D01*
X142002Y136595D01*
X142500Y136097D01*
X143151Y135827D01*
X143856D01*
X144508Y136097D01*
X145006Y136595D01*
X145276Y137246D01*
Y137656D01*
X175190Y167570D01*
X175429Y167928D01*
X175513Y168351D01*
Y202756D01*
X175429Y203178D01*
X175190Y203537D01*
X168497Y210229D01*
X168139Y210469D01*
X167717Y210553D01*
D02*
G37*
G36*
X7480Y161264D02*
X6406D01*
Y159161D01*
X8901D01*
Y159843D01*
X8793Y160386D01*
X8485Y160847D01*
X8024Y161155D01*
X7480Y161264D01*
D02*
G37*
G36*
X5406D02*
X4331D01*
X3787Y161155D01*
X3326Y160847D01*
X3018Y160386D01*
X2910Y159843D01*
Y159161D01*
X5406D01*
Y161264D01*
D02*
G37*
G36*
X48031Y161734D02*
X47609Y161650D01*
X47251Y161410D01*
X47226Y161386D01*
X46987Y161028D01*
X46903Y160605D01*
Y159689D01*
X46801D01*
X46257Y159581D01*
X45796Y159273D01*
X45488Y158811D01*
X45380Y158268D01*
Y157193D01*
X47982D01*
X50584D01*
Y158268D01*
X50476Y158811D01*
X50168Y159273D01*
X49707Y159581D01*
X49163Y159689D01*
X49111D01*
Y160505D01*
X49135Y160630D01*
X49051Y161052D01*
X48812Y161410D01*
X48454Y161650D01*
X48031Y161734D01*
D02*
G37*
G36*
X13502Y164134D02*
X12797D01*
X12146Y163864D01*
X11648Y163366D01*
X11378Y162715D01*
Y162010D01*
X11648Y161359D01*
X12046Y160961D01*
Y158878D01*
X9567D01*
Y155335D01*
X16732D01*
Y158878D01*
X14254D01*
Y160961D01*
X14651Y161359D01*
X14921Y162010D01*
Y162715D01*
X14651Y163366D01*
X14153Y163864D01*
X13502Y164134D01*
D02*
G37*
G36*
X50584Y156193D02*
X48482D01*
Y153697D01*
X49163D01*
X49707Y153805D01*
X50168Y154113D01*
X50476Y154574D01*
X50584Y155118D01*
Y156193D01*
D02*
G37*
G36*
X47482D02*
X45380D01*
Y155118D01*
X45488Y154574D01*
X45796Y154113D01*
X46257Y153805D01*
X46801Y153697D01*
X47482D01*
Y156193D01*
D02*
G37*
G36*
X55512Y153439D02*
X54437D01*
Y151337D01*
X56933D01*
Y152018D01*
X56825Y152562D01*
X56517Y153023D01*
X56056Y153331D01*
X55512Y153439D01*
D02*
G37*
G36*
X8901Y158161D02*
X5906D01*
X2910D01*
Y157480D01*
X3018Y156937D01*
X3326Y156475D01*
X3787Y156167D01*
X4331Y156059D01*
X4802D01*
Y154253D01*
X2165D01*
X1743Y154169D01*
X1385Y153930D01*
X1146Y153572D01*
X1061Y153150D01*
X1146Y152727D01*
X1385Y152369D01*
X1743Y152130D01*
X2165Y152046D01*
X4802D01*
Y150978D01*
X4331D01*
X3787Y150870D01*
X3326Y150561D01*
X3018Y150101D01*
X2910Y149557D01*
Y148876D01*
X8901D01*
Y149557D01*
X8793Y150101D01*
X8485Y150561D01*
X8024Y150870D01*
X7480Y150978D01*
X7009D01*
Y153150D01*
Y156059D01*
X7480D01*
X8024Y156167D01*
X8485Y156475D01*
X8793Y156937D01*
X8901Y157480D01*
Y158161D01*
D02*
G37*
G36*
Y147876D02*
X6406D01*
Y145773D01*
X7480D01*
X8024Y145882D01*
X8485Y146190D01*
X8793Y146651D01*
X8901Y147195D01*
Y147876D01*
D02*
G37*
G36*
X5406D02*
X2910D01*
Y147195D01*
X3018Y146651D01*
X3326Y146190D01*
X3787Y145882D01*
X4331Y145773D01*
X5406D01*
Y147876D01*
D02*
G37*
G36*
X63279Y144701D02*
X61598D01*
Y143020D01*
X63279D01*
Y144701D01*
D02*
G37*
G36*
X7480Y144360D02*
X4331D01*
X3947Y144284D01*
X3621Y144066D01*
X3404Y143741D01*
X3327Y143357D01*
Y140995D01*
X3404Y140611D01*
X3621Y140285D01*
X3947Y140067D01*
X4300Y139997D01*
Y139336D01*
X4134Y138935D01*
Y138230D01*
X4404Y137579D01*
X4902Y137081D01*
X5553Y136811D01*
X6258D01*
X6909Y137081D01*
X7407Y137579D01*
X7677Y138230D01*
Y138935D01*
X7511Y139336D01*
Y139997D01*
X7864Y140067D01*
X8190Y140285D01*
X8357Y140535D01*
X9567D01*
Y140335D01*
X16732D01*
Y143878D01*
X9567D01*
Y143747D01*
X8404D01*
X8190Y144066D01*
X7864Y144284D01*
X7480Y144360D01*
D02*
G37*
G36*
X39370Y134960D02*
X35933D01*
Y130480D01*
X44284D01*
X44180Y131269D01*
X43683Y132470D01*
X42891Y133501D01*
X41860Y134293D01*
X40659Y134790D01*
X39370Y134960D01*
D02*
G37*
G36*
X14370D02*
X10933D01*
Y130480D01*
X19284D01*
X19180Y131269D01*
X18683Y132470D01*
X17891Y133501D01*
X16860Y134293D01*
X15659Y134790D01*
X14370Y134960D01*
D02*
G37*
G36*
X59933D02*
X56496D01*
X55207Y134790D01*
X54006Y134293D01*
X52975Y133501D01*
X52184Y132470D01*
X51686Y131269D01*
X51582Y130480D01*
X59933D01*
Y134960D01*
D02*
G37*
G36*
X34933D02*
X31496D01*
X30207Y134790D01*
X29006Y134293D01*
X27975Y133501D01*
X27184Y132470D01*
X26686Y131269D01*
X26582Y130480D01*
X34933D01*
Y134960D01*
D02*
G37*
G36*
X9933D02*
X6496D01*
X5207Y134790D01*
X4006Y134293D01*
X2975Y133501D01*
X2184Y132470D01*
X1686Y131269D01*
X1582Y130480D01*
X9933D01*
Y134960D01*
D02*
G37*
G36*
X169095Y136221D02*
X158465D01*
Y129921D01*
X169095D01*
Y136221D01*
D02*
G37*
G36*
X128699Y175394D02*
X127994D01*
X127343Y175124D01*
X126845Y174626D01*
X126575Y173975D01*
Y173270D01*
X126845Y172618D01*
X127243Y172220D01*
Y132347D01*
X126195Y131299D01*
X125632D01*
X124981Y131029D01*
X124482Y130531D01*
X124213Y129880D01*
Y129175D01*
X124482Y128524D01*
X124981Y128026D01*
X125632Y127756D01*
X126337D01*
X126988Y128026D01*
X127486Y128524D01*
X127756Y129175D01*
Y129738D01*
X129127Y131109D01*
X129366Y131467D01*
X129450Y131890D01*
Y172220D01*
X129848Y172618D01*
X130118Y173270D01*
Y173975D01*
X129848Y174626D01*
X129350Y175124D01*
X128699Y175394D01*
D02*
G37*
G36*
X59933Y129480D02*
X51582D01*
X51686Y128691D01*
X52184Y127490D01*
X52975Y126459D01*
X54006Y125668D01*
X55207Y125170D01*
X56496Y125001D01*
X59933D01*
Y129480D01*
D02*
G37*
G36*
X44284D02*
X35933D01*
Y125001D01*
X39370D01*
X40659Y125170D01*
X41860Y125668D01*
X42891Y126459D01*
X43683Y127490D01*
X44180Y128691D01*
X44284Y129480D01*
D02*
G37*
G36*
X34933D02*
X26582D01*
X26686Y128691D01*
X27184Y127490D01*
X27975Y126459D01*
X29006Y125668D01*
X30207Y125170D01*
X31496Y125001D01*
X34933D01*
Y129480D01*
D02*
G37*
G36*
X19284D02*
X10933D01*
Y125001D01*
X14370D01*
X15659Y125170D01*
X16860Y125668D01*
X17891Y126459D01*
X18683Y127490D01*
X19180Y128691D01*
X19284Y129480D01*
D02*
G37*
G36*
X9933D02*
X1582D01*
X1686Y128691D01*
X2184Y127490D01*
X2975Y126459D01*
X4006Y125668D01*
X5207Y125170D01*
X6496Y125001D01*
X9933D01*
Y129480D01*
D02*
G37*
G36*
X170669Y122834D02*
X167232D01*
Y118354D01*
X175583D01*
X175479Y119143D01*
X174982Y120344D01*
X174190Y121376D01*
X173159Y122167D01*
X171958Y122664D01*
X170669Y122834D01*
D02*
G37*
G36*
X166232D02*
X162795D01*
X161506Y122664D01*
X160306Y122167D01*
X159274Y121376D01*
X158483Y120344D01*
X157985Y119143D01*
X157881Y118354D01*
X166232D01*
Y122834D01*
D02*
G37*
G36*
X145669D02*
X142232D01*
Y118354D01*
X150583D01*
X150479Y119143D01*
X149982Y120344D01*
X149190Y121376D01*
X148159Y122167D01*
X146958Y122664D01*
X145669Y122834D01*
D02*
G37*
G36*
X141232D02*
X137795D01*
X136506Y122664D01*
X135306Y122167D01*
X134274Y121376D01*
X133483Y120344D01*
X132985Y119143D01*
X132881Y118354D01*
X141232D01*
Y122834D01*
D02*
G37*
G36*
X175583Y117354D02*
X167232D01*
Y112875D01*
X170669D01*
X171958Y113044D01*
X173159Y113542D01*
X174190Y114333D01*
X174982Y115365D01*
X175479Y116566D01*
X175583Y117354D01*
D02*
G37*
G36*
X166232D02*
X157881D01*
X157985Y116566D01*
X158483Y115365D01*
X159274Y114333D01*
X160306Y113542D01*
X161506Y113044D01*
X162795Y112875D01*
X166232D01*
Y117354D01*
D02*
G37*
G36*
X150583D02*
X142232D01*
Y112875D01*
X145669D01*
X146958Y113044D01*
X148159Y113542D01*
X149190Y114333D01*
X149982Y115365D01*
X150479Y116566D01*
X150583Y117354D01*
D02*
G37*
G36*
X141232D02*
X132881D01*
X132985Y116566D01*
X133483Y115365D01*
X134274Y114333D01*
X135306Y113542D01*
X136506Y113044D01*
X137795Y112875D01*
X141232D01*
Y117354D01*
D02*
G37*
G36*
X18701Y117913D02*
X8071D01*
Y111614D01*
X18701D01*
Y117913D01*
D02*
G37*
G36*
X47990Y111614D02*
X47285D01*
X46634Y111345D01*
X46136Y110846D01*
X45866Y110195D01*
Y109490D01*
X46136Y108839D01*
X46634Y108341D01*
X47285Y108071D01*
X47990D01*
X48641Y108341D01*
X49140Y108839D01*
X49409Y109490D01*
Y110195D01*
X49140Y110846D01*
X48641Y111345D01*
X47990Y111614D01*
D02*
G37*
G36*
X121366Y111236D02*
Y109055D01*
Y106874D01*
X123047D01*
Y107951D01*
X123622D01*
X124045Y108035D01*
X124403Y108275D01*
X124642Y108633D01*
X124726Y109055D01*
X124642Y109478D01*
X124403Y109836D01*
X124045Y110075D01*
X123622Y110159D01*
X123047D01*
Y111236D01*
X121366D01*
D02*
G37*
G36*
X82284Y107671D02*
X81209D01*
Y105569D01*
X83705D01*
Y106250D01*
X83596Y106793D01*
X83288Y107254D01*
X82827Y107562D01*
X82284Y107671D01*
D02*
G37*
G36*
X102256D02*
X101181D01*
X100637Y107562D01*
X100176Y107254D01*
X99868Y106793D01*
X99760Y106250D01*
Y105569D01*
X102256D01*
Y107671D01*
D02*
G37*
G36*
X104331D02*
X103256D01*
Y105069D01*
Y102466D01*
X104331D01*
X104875Y102575D01*
X105335Y102883D01*
X105643Y103344D01*
X105699Y103620D01*
X106214Y103742D01*
X106271Y103705D01*
X106693Y103621D01*
X107115Y103705D01*
X107474Y103944D01*
X107713Y104302D01*
X107797Y104724D01*
X107713Y105147D01*
X107474Y105505D01*
X107301Y105677D01*
X106943Y105916D01*
X106521Y106000D01*
X105752D01*
Y106250D01*
X105643Y106793D01*
X105335Y107254D01*
X104875Y107562D01*
X104331Y107671D01*
D02*
G37*
G36*
X102256Y104569D02*
X99760D01*
Y103887D01*
X99868Y103344D01*
X100176Y102883D01*
X100637Y102575D01*
X101181Y102466D01*
X102256D01*
Y104569D01*
D02*
G37*
G36*
X83705D02*
X81209D01*
Y102466D01*
X82284D01*
X82827Y102575D01*
X83288Y102883D01*
X83596Y103344D01*
X83705Y103887D01*
Y104569D01*
D02*
G37*
G36*
X80209Y107671D02*
X79134D01*
X78590Y107562D01*
X78129Y107254D01*
X77821Y106793D01*
X77775Y106561D01*
X77362Y106222D01*
X76940Y106138D01*
X76582Y105899D01*
X76342Y105541D01*
X76258Y105118D01*
X76342Y104696D01*
X76582Y104338D01*
X76606Y104313D01*
X76965Y104074D01*
X77387Y103989D01*
X77713D01*
Y103887D01*
X77821Y103344D01*
X78129Y102883D01*
X78590Y102575D01*
X79134Y102466D01*
X80209D01*
Y105069D01*
Y107671D01*
D02*
G37*
G36*
X104331Y101053D02*
X101181D01*
X100797Y100977D01*
X100471Y100759D01*
X100461Y100743D01*
X99754D01*
X99171Y100984D01*
X98466D01*
X97815Y100715D01*
X97317Y100216D01*
X97047Y99565D01*
Y98860D01*
X97317Y98209D01*
X97815Y97711D01*
X98466Y97441D01*
X99171D01*
X99390Y97532D01*
X100209D01*
X100254Y97303D01*
X100471Y96978D01*
X100797Y96760D01*
X101150Y96690D01*
Y95098D01*
X99016D01*
Y91555D01*
X106181D01*
Y95098D01*
X104362D01*
Y96690D01*
X104715Y96760D01*
X105040Y96978D01*
X105258Y97303D01*
X105334Y97687D01*
Y100050D01*
X105258Y100434D01*
X105040Y100759D01*
X104715Y100977D01*
X104331Y101053D01*
D02*
G37*
G36*
X82284D02*
X79134D01*
X78750Y100977D01*
X78424Y100759D01*
X78207Y100434D01*
X78130Y100050D01*
Y99972D01*
X77215D01*
X76793Y99888D01*
X76434Y99649D01*
X70578Y93792D01*
X70338Y93434D01*
X70254Y93012D01*
Y85925D01*
Y73573D01*
X70338Y73151D01*
X70578Y72793D01*
X78524Y64846D01*
Y63042D01*
X78600Y62658D01*
X78818Y62332D01*
X79144Y62115D01*
X79528Y62038D01*
X82677D01*
X83061Y62115D01*
X83387Y62332D01*
X83604Y62658D01*
X83681Y63042D01*
Y65404D01*
X83604Y65788D01*
X83387Y66114D01*
X83061Y66331D01*
X82677Y66408D01*
X80085D01*
X72462Y74031D01*
Y82274D01*
X72962Y82608D01*
X73270Y82480D01*
X73975D01*
X74626Y82750D01*
X75124Y83248D01*
X75394Y83900D01*
Y84604D01*
X75124Y85255D01*
X74626Y85754D01*
X73975Y86024D01*
X73725D01*
X73518Y86524D01*
X74217Y87223D01*
X77284D01*
Y86555D01*
X84449D01*
Y90098D01*
X77284D01*
Y89431D01*
X73760D01*
X73337Y89347D01*
X72979Y89107D01*
X72924Y89052D01*
X72462Y89244D01*
Y92555D01*
X77630Y97723D01*
X78130Y97687D01*
X78207Y97303D01*
X78424Y96978D01*
X78750Y96760D01*
X79134Y96684D01*
X82284D01*
X82667Y96760D01*
X82993Y96978D01*
X83211Y97303D01*
X83287Y97687D01*
Y100050D01*
X83211Y100434D01*
X82993Y100759D01*
X82667Y100977D01*
X82284Y101053D01*
D02*
G37*
G36*
X159843Y106299D02*
X141732D01*
Y96063D01*
X159843D01*
Y106299D01*
D02*
G37*
G36*
X120669Y186319D02*
X112795D01*
X111613Y186163D01*
X110512Y185707D01*
X109566Y184981D01*
X108841Y184035D01*
X108384Y182934D01*
X108229Y181752D01*
X108384Y180570D01*
X108841Y179469D01*
X109566Y178523D01*
X110512Y177797D01*
X111613Y177341D01*
X112795Y177185D01*
X114151D01*
Y122421D01*
X112795D01*
X111613Y122265D01*
X110512Y121809D01*
X109566Y121083D01*
X108841Y120138D01*
X108384Y119036D01*
X108229Y117854D01*
X108384Y116672D01*
X108841Y115571D01*
X109566Y114625D01*
X110512Y113900D01*
X111613Y113443D01*
X112795Y113288D01*
X115323D01*
Y110827D01*
X115157D01*
Y107283D01*
X115323D01*
Y104528D01*
X115157D01*
Y100984D01*
X118595D01*
X118701Y100984D01*
X119095D01*
X119261Y100818D01*
Y99826D01*
X118479D01*
X118028Y99736D01*
X117646Y99480D01*
X117390Y99098D01*
X117300Y98647D01*
Y95251D01*
X117390Y94800D01*
X117646Y94417D01*
X118028Y94162D01*
X118479Y94072D01*
X123253D01*
X123704Y94162D01*
X124087Y94417D01*
X124342Y94800D01*
X124432Y95251D01*
Y98647D01*
X124342Y99098D01*
X124087Y99480D01*
X123704Y99736D01*
X123253Y99826D01*
X122472D01*
Y100984D01*
X122638D01*
Y104528D01*
X119201D01*
X119095Y104528D01*
X118701D01*
X118535Y104694D01*
Y106436D01*
X118685Y106874D01*
X120366D01*
Y109055D01*
Y111236D01*
X118685D01*
X118535Y111674D01*
Y113288D01*
X120669D01*
X121851Y113443D01*
X122953Y113900D01*
X123898Y114625D01*
X124624Y115571D01*
X125080Y116672D01*
X125236Y117854D01*
X125080Y119036D01*
X124624Y120138D01*
X123898Y121083D01*
X122953Y121809D01*
X121851Y122265D01*
X120669Y122421D01*
X119313D01*
Y177185D01*
X120669D01*
X121851Y177341D01*
X122953Y177797D01*
X123898Y178523D01*
X124624Y179469D01*
X125080Y180570D01*
X125236Y181752D01*
X125080Y182934D01*
X124624Y184035D01*
X123898Y184981D01*
X122953Y185707D01*
X121851Y186163D01*
X120669Y186319D01*
D02*
G37*
G36*
X114321Y100416D02*
X108514D01*
X108072Y100328D01*
X107698Y100078D01*
X107448Y99703D01*
X107360Y99262D01*
Y96014D01*
X107448Y95572D01*
X107698Y95198D01*
X108072Y94948D01*
X108514Y94860D01*
X113236D01*
Y94715D01*
X113320Y94293D01*
X113559Y93935D01*
X117300Y90194D01*
Y87180D01*
X117390Y86729D01*
X117646Y86346D01*
X118028Y86091D01*
X118479Y86001D01*
X123253D01*
X123704Y86091D01*
X124087Y86346D01*
X124342Y86729D01*
X124432Y87180D01*
Y90576D01*
X124342Y91027D01*
X124087Y91410D01*
X123704Y91665D01*
X123253Y91755D01*
X118861D01*
X115444Y95173D01*
Y95856D01*
X115475Y96014D01*
Y99262D01*
X115387Y99703D01*
X115137Y100078D01*
X114762Y100328D01*
X114321Y100416D01*
D02*
G37*
G36*
X144504Y93126D02*
X139476D01*
Y83177D01*
X144504D01*
Y93126D01*
D02*
G37*
G36*
X138476D02*
X133449D01*
Y83177D01*
X138476D01*
Y93126D01*
D02*
G37*
G36*
X126337Y83268D02*
X125632D01*
X124981Y82998D01*
X124888Y82905D01*
X123031D01*
Y83268D01*
X118307D01*
Y79331D01*
X123031D01*
Y79694D01*
X125787D01*
X125787Y79694D01*
X125943Y79724D01*
X126337D01*
X126988Y79994D01*
X127486Y80493D01*
X127756Y81144D01*
Y81849D01*
X127486Y82500D01*
X126988Y82998D01*
X126337Y83268D01*
D02*
G37*
G36*
X84449Y85098D02*
X77284D01*
Y83116D01*
X76011Y81844D01*
X75771Y81485D01*
X75687Y81063D01*
Y76697D01*
X75771Y76275D01*
X76011Y75917D01*
X78911Y73017D01*
Y72376D01*
X78818Y72313D01*
X78600Y71988D01*
X78524Y71604D01*
Y69242D01*
X78600Y68858D01*
X78818Y68532D01*
X79144Y68315D01*
X79528Y68238D01*
X82677D01*
X83061Y68315D01*
X83387Y68532D01*
X83604Y68858D01*
X83681Y69242D01*
Y71604D01*
X83604Y71988D01*
X83387Y72313D01*
X83061Y72531D01*
X82677Y72607D01*
X81118D01*
Y73474D01*
X81034Y73896D01*
X80795Y74255D01*
X78957Y76093D01*
X79148Y76555D01*
X82178D01*
X83491Y75243D01*
X83491Y75243D01*
X84012Y74894D01*
X84626Y74772D01*
X84626Y74772D01*
X85555D01*
X85796Y74532D01*
Y72651D01*
X85443Y72581D01*
X85117Y72363D01*
X84900Y72038D01*
X84823Y71653D01*
Y69291D01*
X84900Y68907D01*
X85117Y68582D01*
X85443Y68364D01*
X85827Y68288D01*
X88976D01*
X89360Y68364D01*
X89686Y68582D01*
X89876Y68867D01*
X90979D01*
X91380Y68701D01*
X92085D01*
X92736Y68971D01*
X93234Y69469D01*
X93504Y70120D01*
Y70825D01*
X93234Y71476D01*
X92736Y71974D01*
X92085Y72244D01*
X91380D01*
X90979Y72078D01*
X89876D01*
X89686Y72363D01*
X89360Y72581D01*
X89007Y72651D01*
Y75197D01*
X89007Y75197D01*
X88885Y75811D01*
X88537Y76332D01*
X88537Y76332D01*
X87356Y77513D01*
X86835Y77861D01*
X86221Y77984D01*
X86220Y77984D01*
X85291D01*
X84449Y78826D01*
Y80098D01*
X77895D01*
Y80606D01*
X78845Y81555D01*
X84449D01*
Y82095D01*
X85495D01*
X85506Y82067D01*
X86004Y81569D01*
X86655Y81299D01*
X87360D01*
X88011Y81569D01*
X88510Y82067D01*
X88779Y82718D01*
Y83423D01*
X88510Y84074D01*
X88011Y84573D01*
X87360Y84842D01*
X86655D01*
X86004Y84573D01*
X85734Y84303D01*
X84449D01*
Y85098D01*
D02*
G37*
G36*
X18701Y84449D02*
X8071D01*
Y78150D01*
X18701D01*
Y84449D01*
D02*
G37*
G36*
X126337Y78150D02*
X125632D01*
X124981Y77880D01*
X124888Y77787D01*
X123031D01*
Y78150D01*
X118307D01*
Y74213D01*
X123031D01*
Y74576D01*
X125787D01*
X125787Y74575D01*
X125943Y74606D01*
X126337D01*
X126988Y74876D01*
X127486Y75374D01*
X127756Y76025D01*
Y76730D01*
X127486Y77381D01*
X126988Y77880D01*
X126337Y78150D01*
D02*
G37*
G36*
X144504Y82177D02*
X139476D01*
Y72228D01*
X144504D01*
Y82177D01*
D02*
G37*
G36*
X138476D02*
X133449D01*
Y72228D01*
X138476D01*
Y82177D01*
D02*
G37*
G36*
X84449Y95098D02*
X77284D01*
Y91555D01*
X84449D01*
Y92223D01*
X84956D01*
X94633Y82546D01*
X94991Y82307D01*
X95413Y82223D01*
X99016D01*
Y81555D01*
X101495D01*
Y80098D01*
X99016D01*
Y79629D01*
X98516Y79449D01*
X98353Y79612D01*
X97702Y79882D01*
X96997D01*
X96346Y79612D01*
X95847Y79114D01*
X95578Y78463D01*
Y77758D01*
X95847Y77107D01*
X96346Y76609D01*
X96997Y76339D01*
X97702D01*
X98353Y76609D01*
X98516Y76771D01*
X99016Y76564D01*
Y76555D01*
X106181D01*
Y80098D01*
X103702D01*
Y81555D01*
X106181D01*
Y84464D01*
X106496Y84723D01*
X107360D01*
Y84203D01*
X107448Y83761D01*
X107698Y83387D01*
X108072Y83136D01*
X108514Y83049D01*
X112085D01*
Y80709D01*
X110827D01*
Y76772D01*
X112085D01*
Y74571D01*
X110171Y72657D01*
X108366D01*
X107982Y72581D01*
X107657Y72363D01*
X107439Y72038D01*
X107391Y71795D01*
X106881D01*
X106833Y72038D01*
X106615Y72363D01*
X106290Y72581D01*
X105905Y72657D01*
X102756D01*
X102372Y72581D01*
X102046Y72363D01*
X101829Y72038D01*
X101752Y71653D01*
Y69291D01*
X101829Y68907D01*
X102046Y68582D01*
X102372Y68364D01*
X102756Y68288D01*
X105905D01*
X106290Y68364D01*
X106615Y68582D01*
X106833Y68907D01*
X106863Y69058D01*
X107363Y69009D01*
Y68504D01*
X107439Y68120D01*
X107657Y67794D01*
X107982Y67577D01*
X108366Y67500D01*
X110728D01*
X111112Y67577D01*
X111438Y67794D01*
X111655Y68120D01*
X111732Y68504D01*
Y71096D01*
X112721Y72085D01*
X113182Y71839D01*
X113145Y71653D01*
Y70579D01*
X115247D01*
Y73075D01*
X114566D01*
X114348Y73031D01*
X114071Y73486D01*
X114209Y73692D01*
X114293Y74114D01*
Y76772D01*
X115551D01*
Y80709D01*
X114293D01*
Y83049D01*
X114321D01*
X114762Y83136D01*
X115137Y83387D01*
X115387Y83761D01*
X115475Y84203D01*
Y87451D01*
X115387Y87892D01*
X115137Y88267D01*
X114762Y88517D01*
X114321Y88605D01*
X108514D01*
X108072Y88517D01*
X107698Y88267D01*
X107448Y87892D01*
X107360Y87451D01*
Y87157D01*
X106860Y87024D01*
X106191Y87693D01*
X106181Y87744D01*
Y90098D01*
X99016D01*
Y86555D01*
X104244D01*
X104318Y86444D01*
X105201Y85560D01*
X105010Y85098D01*
X99016D01*
Y84431D01*
X95871D01*
X86194Y94107D01*
X85836Y94347D01*
X85413Y94431D01*
X84449D01*
Y95098D01*
D02*
G37*
G36*
X116928Y73075D02*
X116247D01*
Y70079D01*
Y67083D01*
X116928D01*
X117472Y67191D01*
X117933Y67499D01*
X118241Y67960D01*
X118349Y68504D01*
Y68975D01*
X120079D01*
X120501Y69059D01*
X120859Y69298D01*
X121099Y69656D01*
X121183Y70079D01*
X121099Y70501D01*
X120859Y70859D01*
X120501Y71099D01*
X120079Y71183D01*
X118349D01*
Y71653D01*
X118241Y72197D01*
X117933Y72658D01*
X117472Y72966D01*
X116928Y73075D01*
D02*
G37*
G36*
X115247Y69579D02*
X113145D01*
Y68504D01*
X113253Y67960D01*
X113561Y67499D01*
X114022Y67191D01*
X114566Y67083D01*
X115247D01*
Y69579D01*
D02*
G37*
G36*
X39370Y71062D02*
X35933D01*
Y66583D01*
X44284D01*
X44180Y67371D01*
X43683Y68572D01*
X42891Y69604D01*
X41860Y70395D01*
X40659Y70893D01*
X39370Y71062D01*
D02*
G37*
G36*
X17339Y71020D02*
X10933D01*
Y66583D01*
X17339D01*
Y71020D01*
D02*
G37*
G36*
X9933D02*
X3528D01*
Y66583D01*
X9933D01*
Y71020D01*
D02*
G37*
G36*
X34933Y71062D02*
X31496D01*
X30207Y70893D01*
X29006Y70395D01*
X27975Y69604D01*
X27184Y68572D01*
X26686Y67371D01*
X26582Y66583D01*
X34933D01*
Y71062D01*
D02*
G37*
G36*
X103831Y66874D02*
X102756D01*
X102212Y66766D01*
X101751Y66458D01*
X101443Y65997D01*
X101335Y65453D01*
Y64772D01*
X103831D01*
Y66874D01*
D02*
G37*
G36*
X88976D02*
X87902D01*
Y64772D01*
X90397D01*
Y65453D01*
X90289Y65997D01*
X89981Y66458D01*
X89520Y66766D01*
X88976Y66874D01*
D02*
G37*
G36*
X86902D02*
X85827D01*
X85283Y66766D01*
X84822Y66458D01*
X84514Y65997D01*
X84406Y65453D01*
Y64772D01*
X86902D01*
Y66874D01*
D02*
G37*
G36*
X105905D02*
X104831D01*
Y64272D01*
Y61670D01*
X105905D01*
X106449Y61778D01*
X106910Y62086D01*
X107218Y62548D01*
X107326Y63091D01*
Y63316D01*
X109302D01*
X109724Y63400D01*
X110082Y63639D01*
X110229Y63786D01*
X110469Y64144D01*
X110553Y64567D01*
X110469Y64989D01*
X110229Y65347D01*
X109871Y65587D01*
X109449Y65671D01*
X109026Y65587D01*
X108932Y65524D01*
X107313D01*
X107218Y65997D01*
X106910Y66458D01*
X106449Y66766D01*
X105905Y66874D01*
D02*
G37*
G36*
X103831Y63772D02*
X101335D01*
Y63091D01*
X101443Y62548D01*
X101751Y62086D01*
X102212Y61778D01*
X102756Y61670D01*
X103831D01*
Y63772D01*
D02*
G37*
G36*
X17339Y65583D02*
X10933D01*
Y61146D01*
X17339D01*
Y65583D01*
D02*
G37*
G36*
X44284D02*
X35933D01*
Y61103D01*
X39370D01*
X40659Y61273D01*
X41860Y61770D01*
X42891Y62562D01*
X43683Y63593D01*
X44180Y64794D01*
X44284Y65583D01*
D02*
G37*
G36*
X34933D02*
X26582D01*
X26686Y64794D01*
X27184Y63593D01*
X27975Y62562D01*
X29006Y61770D01*
X30207Y61273D01*
X31496Y61103D01*
X34933D01*
Y65583D01*
D02*
G37*
G36*
X150098Y61910D02*
X138484D01*
Y60455D01*
X136008D01*
X135957Y60712D01*
X135701Y61095D01*
X135318Y61350D01*
X134867Y61440D01*
X131472D01*
X131020Y61350D01*
X130638Y61095D01*
X130382Y60712D01*
X130292Y60261D01*
Y55487D01*
X130382Y55036D01*
X130638Y54653D01*
X131020Y54398D01*
X131472Y54308D01*
X134867D01*
X135318Y54398D01*
X135701Y54653D01*
X135957Y55036D01*
X136008Y55293D01*
X138484D01*
Y53839D01*
X150098D01*
Y61910D01*
D02*
G37*
G36*
X90397Y63772D02*
X84406D01*
Y63091D01*
X84514Y62548D01*
X84822Y62086D01*
X85283Y61778D01*
X85827Y61670D01*
X86298D01*
Y60630D01*
X86382Y60207D01*
X86621Y59849D01*
X86979Y59610D01*
X87402Y59526D01*
X87824Y59610D01*
X88182Y59849D01*
X88421Y60207D01*
X88505Y60630D01*
Y61670D01*
X88976D01*
X89520Y61778D01*
X89981Y62086D01*
X90289Y62548D01*
X90397Y63091D01*
Y63772D01*
D02*
G37*
G36*
X167717Y91732D02*
X157480D01*
Y73622D01*
X159328D01*
Y61910D01*
X155413D01*
Y53839D01*
X167028D01*
Y61910D01*
X164491D01*
Y73622D01*
X167717D01*
Y91732D01*
D02*
G37*
G36*
X88314Y55512D02*
X87277D01*
X86276Y55243D01*
X85378Y54725D01*
X84645Y53992D01*
X84127Y53094D01*
X83858Y52093D01*
Y51056D01*
X84127Y50055D01*
X84645Y49157D01*
X85378Y48424D01*
X86276Y47906D01*
X87277Y47638D01*
X88314D01*
X89315Y47906D01*
X90213Y48424D01*
X90946Y49157D01*
X91464Y50055D01*
X91732Y51056D01*
Y52093D01*
X91464Y53094D01*
X90946Y53992D01*
X90213Y54725D01*
X89315Y55243D01*
X88314Y55512D01*
D02*
G37*
G36*
X126796Y61440D02*
X123401D01*
X122949Y61350D01*
X122567Y61095D01*
X122311Y60712D01*
X122221Y60261D01*
Y55487D01*
X122311Y55036D01*
X122567Y54653D01*
X122813Y54489D01*
Y51875D01*
X122764Y51843D01*
X122508Y51460D01*
X122418Y51009D01*
Y47613D01*
X122508Y47162D01*
X122764Y46779D01*
X123146Y46524D01*
X123597Y46434D01*
X128371D01*
X128822Y46524D01*
X129205Y46779D01*
X129460Y47162D01*
X129550Y47613D01*
Y51009D01*
X129460Y51460D01*
X129205Y51843D01*
X128822Y52098D01*
X128371Y52188D01*
X127975D01*
Y55484D01*
X127975Y55487D01*
Y60261D01*
X127886Y60712D01*
X127630Y61095D01*
X127248Y61350D01*
X126796Y61440D01*
D02*
G37*
G36*
X112998Y28543D02*
X111805D01*
X110654Y28235D01*
X109622Y27639D01*
X108779Y26796D01*
X108183Y25763D01*
X108144Y25621D01*
X67446D01*
X67408Y25763D01*
X66812Y26796D01*
X65969Y27639D01*
X64937Y28235D01*
X63785Y28543D01*
X62593D01*
X61441Y28235D01*
X60409Y27639D01*
X59566Y26796D01*
X58970Y25763D01*
X58661Y24612D01*
Y23420D01*
X58970Y22268D01*
X59566Y21236D01*
X60409Y20393D01*
X61441Y19797D01*
X62593Y19488D01*
X63785D01*
X64937Y19797D01*
X65969Y20393D01*
X66812Y21236D01*
X67408Y22268D01*
X67446Y22410D01*
X108144D01*
X108183Y22268D01*
X108779Y21236D01*
X109622Y20393D01*
X110654Y19797D01*
X111805Y19488D01*
X112998D01*
X114149Y19797D01*
X115182Y20393D01*
X116024Y21236D01*
X116621Y22268D01*
X116929Y23420D01*
Y24612D01*
X116621Y25763D01*
X116024Y26796D01*
X115182Y27639D01*
X114149Y28235D01*
X112998Y28543D01*
D02*
G37*
G36*
X8069Y27126D02*
X7364D01*
X6713Y26856D01*
X6215Y26358D01*
X5945Y25707D01*
Y25002D01*
X6215Y24351D01*
X6713Y23852D01*
X7364Y23583D01*
X8069D01*
X8720Y23852D01*
X9218Y24351D01*
X9488Y25002D01*
Y25707D01*
X9218Y26358D01*
X8720Y26856D01*
X8069Y27126D01*
D02*
G37*
G36*
X159366Y27968D02*
X155618D01*
Y20677D01*
X159366D01*
Y27968D01*
D02*
G37*
G36*
X154618D02*
X150870D01*
Y20677D01*
X154618D01*
Y27968D01*
D02*
G37*
G36*
X164173Y51033D02*
X136614D01*
X136162Y50846D01*
X135975Y50394D01*
Y45521D01*
X120079D01*
X119627Y45334D01*
X119439Y44882D01*
Y20472D01*
X119627Y20020D01*
X120079Y19833D01*
X137008D01*
X137460Y20020D01*
X137647Y20472D01*
Y30463D01*
X164173D01*
X164625Y30650D01*
X164812Y31102D01*
Y50394D01*
X164625Y50846D01*
X164173Y51033D01*
D02*
G37*
G36*
X130284Y18567D02*
X126484D01*
Y15067D01*
X130284D01*
Y18567D01*
D02*
G37*
G36*
X125484D02*
X121684D01*
Y15067D01*
X125484D01*
Y18567D01*
D02*
G37*
G36*
X88314Y20079D02*
X87277D01*
X86276Y19810D01*
X85378Y19292D01*
X84645Y18559D01*
X84127Y17661D01*
X83858Y16660D01*
Y15623D01*
X84127Y14622D01*
X84645Y13724D01*
X85378Y12991D01*
X86276Y12473D01*
X87277Y12205D01*
X88314D01*
X89315Y12473D01*
X90213Y12991D01*
X90946Y13724D01*
X91464Y14622D01*
X91732Y15623D01*
Y16660D01*
X91464Y17661D01*
X90946Y18559D01*
X90213Y19292D01*
X89315Y19810D01*
X88314Y20079D01*
D02*
G37*
G36*
X159366Y19677D02*
X150870D01*
Y12386D01*
X153621D01*
Y9449D01*
X153705Y9026D01*
X153944Y8668D01*
X154302Y8429D01*
X154724Y8345D01*
X155147Y8429D01*
X155505Y8668D01*
X155744Y9026D01*
X155828Y9449D01*
Y12386D01*
X159366D01*
Y19677D01*
D02*
G37*
G36*
X130284Y14067D02*
X125984D01*
X121684D01*
Y10567D01*
X124880D01*
Y9055D01*
X124964Y8633D01*
X125204Y8275D01*
X125562Y8035D01*
X125984Y7951D01*
X126407Y8035D01*
X126765Y8275D01*
X127004Y8633D01*
X127088Y9055D01*
Y10567D01*
X130284D01*
Y14067D01*
D02*
G37*
%LPD*%
G36*
X164173Y31102D02*
X137008D01*
Y20472D01*
X120079D01*
Y44882D01*
X136614D01*
Y50394D01*
X164173D01*
Y31102D01*
D02*
G37*
%LPC*%
G36*
X126106Y42967D02*
X125491Y42845D01*
X124970Y42497D01*
X124849Y42375D01*
X124501Y41855D01*
X124379Y41240D01*
X124501Y40626D01*
X124849Y40105D01*
X125370Y39757D01*
X125984Y39634D01*
X126599Y39757D01*
X127120Y40105D01*
X127241Y40226D01*
X127589Y40747D01*
X127711Y41362D01*
X127589Y41976D01*
X127241Y42497D01*
X126720Y42845D01*
X126106Y42967D01*
D02*
G37*
G36*
X154656Y44284D02*
X144971D01*
X144303Y44196D01*
X143680Y43938D01*
X143146Y43528D01*
X142735Y42993D01*
X142477Y42371D01*
X142390Y41702D01*
X142477Y41034D01*
X142735Y40412D01*
X143146Y39877D01*
X143680Y39467D01*
X144303Y39209D01*
X144971Y39121D01*
X154656D01*
X155324Y39209D01*
X155946Y39467D01*
X156481Y39877D01*
X156891Y40412D01*
X157149Y41034D01*
X157237Y41702D01*
X157149Y42371D01*
X156891Y42993D01*
X156481Y43528D01*
X155946Y43938D01*
X155324Y44196D01*
X154656Y44284D01*
D02*
G37*
G36*
X127339Y31527D02*
X126724Y31405D01*
X126203Y31057D01*
X124849Y29702D01*
X124501Y29181D01*
X124379Y28567D01*
X124501Y27953D01*
X124849Y27432D01*
X125370Y27084D01*
X125984Y26961D01*
X126599Y27084D01*
X127120Y27432D01*
X128474Y28786D01*
X128822Y29307D01*
X128944Y29921D01*
X128822Y30536D01*
X128474Y31057D01*
X127953Y31405D01*
X127339Y31527D01*
D02*
G37*
G36*
X126829Y25295D02*
X126124D01*
X125473Y25026D01*
X124975Y24527D01*
X124705Y23876D01*
Y23171D01*
X124975Y22520D01*
X125473Y22022D01*
X126124Y21752D01*
X126829D01*
X127480Y22022D01*
X127978Y22520D01*
X128248Y23171D01*
Y23876D01*
X127978Y24527D01*
X127480Y25026D01*
X126829Y25295D01*
D02*
G37*
%LPD*%
D19*
X125984Y41240D02*
D03*
Y49311D02*
D03*
X120866Y88878D02*
D03*
Y96949D02*
D03*
X66535Y148327D02*
D03*
Y156398D02*
D03*
D20*
X125984Y14567D02*
D03*
Y28567D02*
D03*
D21*
X116929Y109055D02*
D03*
X120866D02*
D03*
X67716Y142520D02*
D03*
X63779D02*
D03*
X120866Y102756D02*
D03*
X116929D02*
D03*
D22*
X98110Y290551D02*
D03*
Y295551D02*
D03*
Y300551D02*
D03*
Y305551D02*
D03*
Y310551D02*
D03*
Y315551D02*
D03*
Y320551D02*
D03*
X76378Y290551D02*
D03*
Y295551D02*
D03*
Y300551D02*
D03*
Y305551D02*
D03*
Y310551D02*
D03*
Y315551D02*
D03*
Y320551D02*
D03*
D23*
X70886Y215197D02*
D03*
X65886D02*
D03*
X60886D02*
D03*
X55886D02*
D03*
X70886Y193465D02*
D03*
X65886D02*
D03*
X60886D02*
D03*
X55886D02*
D03*
D24*
X27795Y170059D02*
D03*
Y175059D02*
D03*
Y180059D02*
D03*
Y185059D02*
D03*
X6063Y170059D02*
D03*
Y175059D02*
D03*
Y180059D02*
D03*
Y185059D02*
D03*
X102598Y78327D02*
D03*
Y83327D02*
D03*
Y88327D02*
D03*
Y93327D02*
D03*
X80866Y78327D02*
D03*
Y83327D02*
D03*
Y88327D02*
D03*
Y93327D02*
D03*
X34882Y142106D02*
D03*
Y147106D02*
D03*
Y152106D02*
D03*
Y157106D02*
D03*
X13150Y142106D02*
D03*
Y147106D02*
D03*
Y152106D02*
D03*
Y157106D02*
D03*
D25*
X83809Y203543D02*
D03*
X77609D02*
D03*
X115010Y255118D02*
D03*
X121210D02*
D03*
X63336Y245276D02*
D03*
X57136D02*
D03*
X23966Y300394D02*
D03*
X17766D02*
D03*
X23966Y279921D02*
D03*
X17766D02*
D03*
X59105Y271260D02*
D03*
X65305D02*
D03*
X35876Y270866D02*
D03*
X42076D02*
D03*
X105561Y300787D02*
D03*
X111761D02*
D03*
X53494Y281890D02*
D03*
X47294D02*
D03*
X105561Y315748D02*
D03*
X111761D02*
D03*
X62698Y306299D02*
D03*
X68898D02*
D03*
X40502Y179528D02*
D03*
X34302D02*
D03*
X115747Y70079D02*
D03*
X109547D02*
D03*
X115010Y249213D02*
D03*
X121210D02*
D03*
X66635Y262992D02*
D03*
X72835D02*
D03*
X53543Y271260D02*
D03*
X47343D02*
D03*
X85089Y333858D02*
D03*
X91289D02*
D03*
X70816Y186614D02*
D03*
X64617D02*
D03*
X40502Y190551D02*
D03*
X34302D02*
D03*
X47982Y156693D02*
D03*
X41782D02*
D03*
D26*
X77953Y196850D02*
D03*
Y190650D02*
D03*
X81102Y64223D02*
D03*
Y70423D02*
D03*
X80709Y98869D02*
D03*
Y105069D02*
D03*
X65748Y229478D02*
D03*
Y223278D02*
D03*
X104331Y64272D02*
D03*
Y70472D02*
D03*
X89764Y196850D02*
D03*
Y190650D02*
D03*
X53937Y139420D02*
D03*
Y145620D02*
D03*
X78347Y151231D02*
D03*
Y157431D02*
D03*
X53937Y150837D02*
D03*
Y157037D02*
D03*
X110630Y269341D02*
D03*
Y275541D02*
D03*
X68504Y300344D02*
D03*
Y294144D02*
D03*
X42520Y139420D02*
D03*
Y145620D02*
D03*
X5906Y164861D02*
D03*
Y158661D02*
D03*
Y142176D02*
D03*
Y148376D02*
D03*
X87402Y64272D02*
D03*
Y70472D02*
D03*
X49213Y206349D02*
D03*
Y212549D02*
D03*
X102756Y105069D02*
D03*
Y98869D02*
D03*
D27*
X13484Y191535D02*
D03*
X5413D02*
D03*
X125098Y57874D02*
D03*
X133169D02*
D03*
X126870Y301181D02*
D03*
X118799D02*
D03*
D28*
X83169Y258858D02*
D03*
Y251378D02*
D03*
X92421Y255118D02*
D03*
X49311Y258858D02*
D03*
Y251378D02*
D03*
X58563Y255118D02*
D03*
D29*
X113189Y78740D02*
D03*
X120669Y81299D02*
D03*
Y76181D02*
D03*
D30*
X108484Y255118D02*
D03*
X100177D02*
D03*
X73051D02*
D03*
X64744D02*
D03*
D31*
X161221Y57874D02*
D03*
X144291D02*
D03*
D32*
X150787Y308563D02*
D03*
Y287500D02*
D03*
X155118Y41240D02*
D03*
Y20177D02*
D03*
D33*
X111417Y85827D02*
D03*
Y97638D02*
D03*
D34*
X49705Y172047D02*
D03*
X67618D02*
D03*
X36516Y20866D02*
D03*
X18602D02*
D03*
X36516Y46457D02*
D03*
X18602D02*
D03*
D69*
X71358Y93012D02*
X77215Y98869D01*
X71358Y85925D02*
Y93012D01*
Y85925D02*
X73760Y88327D01*
X62205Y262992D02*
X66635D01*
X154724Y19783D02*
X155118Y20177D01*
X154724Y9449D02*
Y19783D01*
X115747Y70079D02*
X120079D01*
X97349Y78110D02*
X97457Y78219D01*
X102490D01*
X102598Y78327D01*
Y83327D01*
X5252Y191374D02*
X5413Y191535D01*
X-197Y191374D02*
X5252D01*
X-2461Y65059D02*
Y318799D01*
Y65059D02*
X13287Y49311D01*
X-2461Y318799D02*
X11417Y332677D01*
X40795Y163391D02*
X52368D01*
X58661Y169685D01*
X40297Y162894D02*
X40795Y163391D01*
X50706Y150812D02*
X53912D01*
X50681Y150787D02*
X50706Y150812D01*
X34154Y162894D02*
X40297D01*
X54109Y139592D02*
X59277D01*
X53937Y139420D02*
X54109Y139592D01*
X59277D02*
X59449Y139764D01*
X77387Y105093D02*
X80684D01*
X77362Y105118D02*
X77387Y105093D01*
X80684D02*
X80709Y105069D01*
X68898Y306299D02*
X69646Y305551D01*
X76378D01*
X63042Y300344D02*
X68504D01*
X62698Y306299D02*
X62870Y306127D01*
Y300516D02*
Y306127D01*
Y300516D02*
X63042Y300344D01*
X68110Y312598D02*
X70157Y310551D01*
X76378D01*
Y315551D02*
X78228D01*
X26772Y279921D02*
X62402Y315551D01*
X76378D01*
X23966Y279921D02*
X26772D01*
X23966Y300394D02*
X44488D01*
X64646Y320551D02*
X76378D01*
X44488Y300394D02*
X64646Y320551D01*
X78228D02*
X86811Y329134D01*
X112205D01*
X76378Y320551D02*
X78228D01*
X112205Y329134D02*
X133858Y307480D01*
Y282677D02*
Y307480D01*
X121210Y270029D02*
X133858Y282677D01*
X121210Y255118D02*
Y270029D01*
X79606Y211890D02*
Y225315D01*
X75591Y207874D02*
X79606Y211890D01*
X68484Y207874D02*
X75591D01*
X55886Y193465D02*
Y195276D01*
X68484Y207874D01*
X125984Y9055D02*
Y14567D01*
X77215Y98869D02*
X80709D01*
X71358Y73573D02*
Y85925D01*
Y73573D02*
X80709Y64223D01*
X73760Y88327D02*
X80866D01*
X80709Y64223D02*
X81102D01*
X125984Y129528D02*
X128347Y131890D01*
Y173622D01*
X104724Y222441D02*
X119291Y207874D01*
X77638Y161890D02*
X138140Y222392D01*
Y237352D01*
X77638Y158139D02*
Y161890D01*
X113748Y195276D02*
X153543D01*
X83858Y155693D02*
Y165386D01*
X113748Y195276D01*
X104724Y222441D02*
Y260630D01*
X110630Y266535D01*
Y269341D01*
X102928Y104896D02*
X106521D01*
X106693Y104724D01*
X13150Y157106D02*
Y162362D01*
X17323Y40945D02*
X32283D01*
X150395Y203544D02*
X156299Y209449D01*
X167717D01*
X150395Y202757D02*
Y203544D01*
X167717Y209449D02*
X174409Y202756D01*
Y168351D02*
Y202756D01*
X143657Y137598D02*
X174409Y168351D01*
X143504Y137598D02*
X143657D01*
X120866Y109055D02*
X123622D01*
X82038Y153873D02*
X83858Y155693D01*
X82038Y143082D02*
Y153873D01*
X78326Y139370D02*
X82038Y143082D01*
X54971Y25443D02*
X62992Y33465D01*
X54971Y18356D02*
Y25443D01*
X46949Y10335D02*
X54971Y18356D01*
X33155Y10335D02*
X46949D01*
X27165Y16325D02*
X33155Y10335D01*
X27165Y16325D02*
Y23622D01*
X12084Y38703D02*
X27165Y23622D01*
X12084Y38703D02*
Y41586D01*
X394Y27165D02*
Y35827D01*
Y27165D02*
X6693Y20866D01*
X18602D01*
X92933Y353130D02*
X106732Y339331D01*
X86240Y353130D02*
X92933D01*
X83809Y203937D02*
X86306Y206434D01*
X83809Y203543D02*
Y203937D01*
X86306Y206434D02*
Y206607D01*
X76378Y287402D02*
Y290551D01*
X84646Y315354D02*
X86516Y317224D01*
X94587D01*
X92126Y305512D02*
X92146Y305532D01*
X92126Y295669D02*
X92185Y295610D01*
X98051D01*
X92146Y305532D02*
X98090D01*
X54724Y229528D02*
X54988Y229791D01*
Y230972D02*
X80807Y256791D01*
X54988Y229791D02*
Y230972D01*
X96260Y315551D02*
X98110D01*
X94587Y317224D02*
X96260Y315551D01*
X78228D02*
X82284Y311496D01*
X78228Y300551D02*
X82284Y304606D01*
Y311496D01*
X58711Y332727D02*
Y342864D01*
X52756Y326772D02*
X58711Y332727D01*
X42520Y332677D02*
X57480Y317717D01*
X58661Y169685D02*
Y175440D01*
X65112Y181890D02*
X65354D01*
X58661Y175440D02*
X65112Y181890D01*
X65354D02*
X67274Y183809D01*
X77638Y158139D02*
X78347Y157431D01*
X85089Y333858D02*
Y337472D01*
X86614Y338997D01*
Y339370D01*
X116007Y335568D02*
X127165Y324410D01*
X116007Y335568D02*
Y342126D01*
X72441Y366929D02*
X86240Y353130D01*
X151083Y287795D02*
X156299D01*
X160238Y259450D02*
Y324804D01*
X138140Y237352D02*
X160238Y259450D01*
X115010Y249213D02*
Y255118D01*
X80807Y256791D02*
Y258169D01*
X81496Y258858D01*
X83169D02*
Y263287D01*
X79528Y266929D02*
X83169Y263287D01*
X57382Y266929D02*
X79528D01*
X81496Y258858D02*
X83169D01*
X49311D02*
X57382Y266929D01*
X72943Y255226D02*
Y262884D01*
X72835Y262992D02*
X72943Y262884D01*
Y255226D02*
X73051Y255118D01*
X108484D02*
X115010D01*
X92421D02*
X100177D01*
X60886Y209587D02*
Y215197D01*
X23991Y270497D02*
Y279896D01*
Y270497D02*
X24016Y270472D01*
X23966Y279921D02*
X23991Y279896D01*
X49606Y245276D02*
X57136D01*
X72382Y254715D02*
Y254724D01*
X63336Y245276D02*
Y245669D01*
X72382Y254715D01*
Y254724D02*
X72776Y255118D01*
X73051D01*
X79823Y250689D02*
X82480D01*
X44488Y178670D02*
Y215354D01*
X79823Y250689D01*
X82480D02*
X83169Y251378D01*
X58563Y255118D02*
X64744D01*
X93632Y275541D02*
X110630D01*
X93583Y275590D02*
X93632Y275541D01*
X40502Y190551D02*
Y195226D01*
X27795Y175059D02*
X40877D01*
X44488Y178670D01*
X48720Y250787D02*
X49311Y251378D01*
X46063Y250787D02*
X48720D01*
X5413Y210138D02*
X46063Y250787D01*
X5413Y191535D02*
Y210138D01*
X98090Y305532D02*
X98110Y305551D01*
X11417Y332677D02*
X42520D01*
X6053Y185049D02*
X6063Y185059D01*
X0Y185039D02*
X10Y185049D01*
X6053D01*
X16043Y46457D02*
X18602D01*
X13287Y49213D02*
Y49311D01*
Y49213D02*
X16043Y46457D01*
X68504Y290551D02*
Y294144D01*
X68706Y306491D02*
X68898Y306299D01*
X76186Y305360D02*
X76378Y305551D01*
X98051Y295610D02*
X98110Y295551D01*
Y315551D02*
X105365D01*
X105561Y315748D01*
X111761Y300787D02*
Y315748D01*
X126870Y301181D02*
X130709D01*
X111761Y300787D02*
X118405D01*
X118799Y301181D01*
X105325Y300551D02*
X105561Y300787D01*
X98110Y300551D02*
X105325D01*
X35483Y270472D02*
X35876Y270866D01*
X32283Y270472D02*
X35483D01*
X76378Y300551D02*
X78228D01*
X43701Y281890D02*
X47294D01*
X75541Y281496D02*
X87205D01*
X96260Y290551D01*
X98110D01*
X66781Y272736D02*
X75541Y281496D01*
X65305Y271260D02*
Y271654D01*
X66387Y272736D01*
X66781D01*
X53543Y271260D02*
X59105D01*
X53494Y281890D02*
X53518Y281865D01*
Y271285D02*
X53543Y271260D01*
X53518Y271285D02*
Y281865D01*
X42273Y271063D02*
X47146D01*
X47343Y271260D01*
X42076Y270866D02*
X42273Y271063D01*
X42076Y260580D02*
Y270866D01*
X36614Y255906D02*
X37402D01*
X42076Y260580D01*
X76378Y290551D02*
Y295551D01*
X153543Y195276D02*
X160238Y201970D01*
X86880Y83199D02*
X87008Y83071D01*
X80866Y83327D02*
X80994Y83199D01*
X86880D01*
X104478Y64420D02*
X109302D01*
X109449Y64567D01*
X104331Y64272D02*
X104478Y64420D01*
X79606Y235315D02*
X89764Y225157D01*
Y196850D02*
Y225157D01*
X65748Y229478D02*
X65798Y229528D01*
X75394D01*
X79606Y225315D01*
X65354Y229478D02*
X65748D01*
X63779Y139764D02*
Y142520D01*
X77953Y139370D02*
X78326D01*
X160238Y201970D02*
Y202757D01*
X60886Y195276D02*
X69153Y203543D01*
X60886Y193465D02*
Y195276D01*
X69153Y203543D02*
X77609D01*
Y197195D02*
Y203543D01*
Y197195D02*
X77953Y196850D01*
X67274Y183809D02*
Y190144D01*
X66575Y190843D02*
X67274Y190144D01*
X2165Y153150D02*
X5906D01*
Y158661D01*
Y148376D02*
Y153150D01*
X31402Y152063D02*
X34839D01*
X34882Y152106D01*
X29528Y153937D02*
X31402Y152063D01*
X29528Y153937D02*
Y158268D01*
X34154Y162894D01*
X48007Y160605D02*
X48031Y160630D01*
X48007Y156718D02*
Y160605D01*
X47982Y156693D02*
X48007Y156718D01*
X66575Y190843D02*
Y192776D01*
X65886Y193465D02*
X66575Y192776D01*
X65886Y215197D02*
X70886D01*
X65886D02*
Y223140D01*
X65748Y223278D02*
X65886Y223140D01*
X61024Y186614D02*
X64617D01*
X49213Y202756D02*
Y206349D01*
X26772Y208661D02*
X36615D01*
X25984Y180059D02*
X27795D01*
X23720Y182323D02*
X25984Y180059D01*
X23720Y182323D02*
Y192717D01*
X26772Y195768D01*
Y208661D01*
X16930Y207874D02*
Y208661D01*
X13484Y191535D02*
Y204428D01*
X16930Y207874D01*
X6063Y175059D02*
Y180059D01*
X40502Y190551D02*
X40526Y190526D01*
Y183883D02*
Y190526D01*
Y183883D02*
X40551Y183858D01*
X40526Y179552D02*
Y183834D01*
X40551Y183858D01*
X40502Y179528D02*
X40526Y179552D01*
X27795Y180059D02*
X33770D01*
X34302Y179528D01*
X27795Y170059D02*
Y175059D01*
X150787Y287500D02*
X151083Y287795D01*
X140552Y324804D02*
X150395D01*
Y308955D02*
Y324804D01*
Y308955D02*
X150787Y308563D01*
X76293Y152362D02*
X76342Y152313D01*
X77264D02*
X78347Y151231D01*
X76342Y152313D02*
X77264D01*
X61073Y152362D02*
X76293D01*
X54331Y145620D02*
X61073Y152362D01*
X53937Y145620D02*
X54331D01*
X80014Y71505D02*
X81097Y70423D01*
X76791Y76697D02*
X80014Y73474D01*
X81097Y70423D02*
X81102D01*
X80014Y71505D02*
Y73474D01*
X76791Y76697D02*
Y81063D01*
X79055Y83327D01*
X80866D01*
X87402Y60630D02*
Y64272D01*
X80866Y93327D02*
X85413D01*
X95413Y83327D01*
X102598D01*
X102756Y105069D02*
X102928Y104896D01*
X104331Y70472D02*
X109153D01*
X109547Y70079D01*
X113189Y74114D02*
Y78740D01*
X109547Y70472D02*
X113189Y74114D01*
Y78740D02*
Y84157D01*
X111520Y85827D02*
X113189Y84157D01*
X111417Y85827D02*
X111520D01*
X105098Y87224D02*
X106496Y85827D01*
X102598Y88327D02*
X104409D01*
X106496Y85827D02*
X111417D01*
X105098Y87224D02*
Y87638D01*
X104409Y88327D02*
X105098Y87638D01*
X114340Y94715D02*
X120177Y88878D01*
X114340Y94715D02*
Y95968D01*
X112670Y97638D02*
X114340Y95968D01*
X120177Y88878D02*
X120866D01*
X111417Y97638D02*
X112670D01*
X53912Y150812D02*
X53937Y150837D01*
X36693Y147106D02*
X38179Y145620D01*
X42520D01*
X34882Y147106D02*
X36693D01*
X37382Y141113D02*
X39075Y139420D01*
X36693Y142106D02*
X37382Y141417D01*
X39075Y139420D02*
X42520D01*
X37382Y141113D02*
Y141417D01*
X34882Y142106D02*
X36693D01*
X42520Y139420D02*
X53937D01*
X42520Y145620D02*
X53937D01*
D70*
X47441Y169783D02*
X49705Y172047D01*
X44264Y169783D02*
X47441D01*
X39441Y164961D02*
X44264Y169783D01*
X154656Y41702D02*
X155118Y41240D01*
X144923Y41750D02*
X144971Y41702D01*
X41757Y156718D02*
Y161102D01*
X41732Y161127D02*
X41757Y161102D01*
X32904Y164961D02*
X39441D01*
X98110Y320551D02*
X98268D01*
X98425Y320709D02*
Y325590D01*
X98268Y320551D02*
X98425Y320709D01*
X120669Y76181D02*
X125787D01*
X125984Y76378D01*
Y41240D02*
X126106Y41362D01*
X125984Y28567D02*
X127339Y29921D01*
X98894Y99137D02*
X102487D01*
X102756Y98869D01*
X98819Y99213D02*
X98894Y99137D01*
X63189Y24016D02*
X112402D01*
X34409Y29331D02*
Y35709D01*
Y29331D02*
X36516Y27225D01*
Y20866D02*
Y27225D01*
Y37815D02*
Y46457D01*
X34409Y35709D02*
X36516Y37815D01*
X120669Y81299D02*
X125787D01*
X125984Y81496D01*
X91289Y338820D02*
X91732Y339264D01*
Y339370D01*
X91289Y333858D02*
Y338820D01*
X55896Y215207D02*
Y220856D01*
X55905Y220866D01*
X8819Y300000D02*
X17422D01*
X8661Y300157D02*
X8819Y300000D01*
X8779Y280039D02*
X17648D01*
X17766Y279921D01*
X8661Y280157D02*
X8779Y280039D01*
X36614Y12598D02*
Y20768D01*
X36516Y20866D02*
X36614Y20768D01*
X63189Y43701D02*
X112402D01*
X58835Y46457D02*
X61591Y43701D01*
X63189D01*
X36516Y46457D02*
X58835D01*
X48819Y212549D02*
X49213D01*
X52254Y215197D02*
X55886D01*
X41565Y156909D02*
X41757Y156718D01*
X41782Y156693D01*
X74360Y182677D02*
X74410D01*
X70816Y186221D02*
Y186614D01*
Y186221D02*
X74360Y182677D01*
X20049Y152106D02*
X32904Y164961D01*
X70851Y186649D02*
Y193430D01*
X70886Y193465D01*
X70816Y186614D02*
X70851Y186649D01*
X55886Y215197D02*
X55896Y215207D01*
X49606Y212549D02*
X52254Y215197D01*
X49213Y212549D02*
X49606D01*
X34252Y195276D02*
X34277Y195251D01*
Y190576D02*
X34302Y190551D01*
X34277Y190576D02*
Y195251D01*
X33711Y189164D02*
Y189961D01*
X27795Y185059D02*
X29606D01*
X33711Y189164D01*
Y189961D02*
X34302Y190551D01*
X87402Y70472D02*
X91732D01*
X84626Y76378D02*
X86221D01*
X80866Y78327D02*
X82677D01*
X84626Y76378D01*
X87402Y70472D02*
Y75197D01*
X86221Y76378D02*
X87402Y75197D01*
X102598Y93327D02*
X102756Y93484D01*
Y98869D01*
X120866Y96949D02*
Y102756D01*
X116929D02*
Y109055D01*
X116732Y117854D02*
X116929Y117657D01*
Y109055D02*
Y117657D01*
X6053Y170069D02*
X6063Y170059D01*
X10Y170069D02*
X6053D01*
X0Y170079D02*
X10Y170069D01*
X5906Y164861D02*
Y169902D01*
X6063Y170059D01*
X5906Y138583D02*
Y142176D01*
X5940Y142141D01*
X13115D02*
X13150Y142106D01*
X5940Y142141D02*
X13115D01*
X66535Y170965D02*
X67618Y172047D01*
X66535Y156398D02*
Y170965D01*
X13150Y152106D02*
X20049D01*
X13150Y147106D02*
Y152106D01*
X34882Y157106D02*
X35079Y156909D01*
X41565D01*
X53937Y157037D02*
X65896D01*
X66535Y156398D01*
D71*
X144971Y41702D02*
X154656D01*
X60630Y66280D02*
Y113779D01*
X67520Y142717D02*
X70866Y139370D01*
X60433Y66083D02*
X60630Y66280D01*
Y113779D02*
X70866Y124016D01*
Y139370D01*
X116732Y117854D02*
Y181752D01*
X125394Y49902D02*
X125689Y49606D01*
X125394Y49902D02*
Y57579D01*
X125098Y57874D02*
X125394Y57579D01*
X125689Y49606D02*
X125984D01*
X133169Y57874D02*
X144291D01*
X161909Y81988D02*
X162598Y82677D01*
X161221Y57874D02*
X161909Y58563D01*
Y81988D01*
X67520Y144761D02*
X67520Y144761D01*
X67520Y144761D02*
Y148031D01*
X66535Y148327D02*
X67224D01*
X67520Y148031D01*
X67520Y142717D02*
Y144761D01*
D72*
X36614Y255906D02*
D03*
X16929D02*
D03*
D73*
X10630Y232285D02*
D03*
X42913D02*
D03*
X47245Y354332D02*
D03*
X6301D02*
D03*
X170867D02*
D03*
X129922D02*
D03*
Y232285D02*
D03*
X170867D02*
D03*
D74*
X36615Y208661D02*
D03*
X26772D02*
D03*
X26773Y324804D02*
D03*
X36615D02*
D03*
X150395D02*
D03*
X160238D02*
D03*
Y202757D02*
D03*
X150395D02*
D03*
D75*
X16930Y208661D02*
D03*
Y324804D02*
D03*
X140552D02*
D03*
Y202757D02*
D03*
D76*
X63189Y43701D02*
D03*
Y24016D02*
D03*
X112402D02*
D03*
Y43701D02*
D03*
D77*
X79606Y225315D02*
D03*
Y235315D02*
D03*
X119606Y237815D02*
D03*
Y222815D02*
D03*
D78*
X93583Y275590D02*
D03*
D79*
X83583D02*
D03*
D80*
X116732Y117854D02*
D03*
X166732D02*
D03*
X141732D02*
D03*
Y181752D02*
D03*
X116732D02*
D03*
X60433Y129980D02*
D03*
X10433D02*
D03*
X35433D02*
D03*
Y66083D02*
D03*
X60433D02*
D03*
D81*
X166732Y181752D02*
D03*
X10433Y66083D02*
D03*
D82*
X163779Y166535D02*
D03*
Y133071D02*
D03*
X13386Y81299D02*
D03*
Y114764D02*
D03*
D83*
X138976Y82677D02*
D03*
D84*
X150787Y101181D02*
D03*
D85*
X162598Y82677D02*
D03*
D86*
X8661Y280157D02*
D03*
Y290158D02*
D03*
D87*
Y300157D02*
D03*
D88*
X153543Y244094D02*
D03*
X161417Y228346D02*
D03*
X98425Y70866D02*
D03*
X27559Y307087D02*
D03*
X122047Y149606D02*
D03*
X169291Y212598D02*
D03*
X74803Y55118D02*
D03*
X11811Y86614D02*
D03*
X145669Y165354D02*
D03*
X169291Y307087D02*
D03*
X126411Y67356D02*
D03*
X153543Y212598D02*
D03*
X137795Y149606D02*
D03*
X145669Y133858D02*
D03*
X106299Y181102D02*
D03*
X59055Y275590D02*
D03*
X169291Y149606D02*
D03*
X98425Y259842D02*
D03*
X122047Y244094D02*
D03*
X35433Y354331D02*
D03*
X82677Y7874D02*
D03*
X19685Y291338D02*
D03*
Y102362D02*
D03*
X98425Y39370D02*
D03*
X82677D02*
D03*
X11811Y244094D02*
D03*
X3937Y102362D02*
D03*
X114173Y228346D02*
D03*
X145669Y354331D02*
D03*
X11811Y307087D02*
D03*
X145669Y228346D02*
D03*
X153543Y275590D02*
D03*
X114173Y259842D02*
D03*
X19685Y70866D02*
D03*
X114173Y7874D02*
D03*
X106299Y212598D02*
D03*
X43307Y86614D02*
D03*
X137795Y244094D02*
D03*
X43307Y307087D02*
D03*
Y55118D02*
D03*
X51181Y7874D02*
D03*
X145669D02*
D03*
X27559Y275590D02*
D03*
X98425Y7874D02*
D03*
X114173Y354331D02*
D03*
X19685Y228346D02*
D03*
X27559Y149606D02*
D03*
X153543Y118110D02*
D03*
X51181Y228346D02*
D03*
X122047Y338583D02*
D03*
X106299Y55118D02*
D03*
X90551Y244094D02*
D03*
X74803Y212598D02*
D03*
X11811Y275590D02*
D03*
X145669Y70866D02*
D03*
X66929Y7874D02*
D03*
X169291Y338583D02*
D03*
X43307Y118110D02*
D03*
X161417Y354331D02*
D03*
X169291Y275590D02*
D03*
X66929Y322835D02*
D03*
X59055Y55118D02*
D03*
X27559Y118110D02*
D03*
X169291Y244094D02*
D03*
X161417Y102362D02*
D03*
X153543Y338583D02*
D03*
X169291Y86614D02*
D03*
X114173Y291338D02*
D03*
X106299Y118110D02*
D03*
X51181Y291338D02*
D03*
X43307Y275590D02*
D03*
X19685Y354331D02*
D03*
X137795Y307087D02*
D03*
X153543Y86614D02*
D03*
X27559D02*
D03*
X82677Y133858D02*
D03*
X129921Y102362D02*
D03*
X27559Y244094D02*
D03*
Y55118D02*
D03*
X62205Y262992D02*
D03*
X108218Y311368D02*
D03*
X176378Y58268D02*
D03*
X144923Y41750D02*
D03*
X153150Y25984D02*
D03*
X126476Y23524D02*
D03*
X142913Y16929D02*
D03*
X154724Y9449D02*
D03*
X120079Y70079D02*
D03*
X97349Y78110D02*
D03*
X-197Y191374D02*
D03*
X41732Y161127D02*
D03*
X50681Y150787D02*
D03*
X98425Y325590D02*
D03*
X59449Y139764D02*
D03*
X77362Y105118D02*
D03*
X125984Y76378D02*
D03*
X94902Y162500D02*
D03*
X68110Y312598D02*
D03*
X125984Y9055D02*
D03*
X73622Y84252D02*
D03*
X125984Y129528D02*
D03*
X128347Y173622D02*
D03*
X119291Y207874D02*
D03*
X80715Y161765D02*
D03*
X98006Y185459D02*
D03*
X85039Y187845D02*
D03*
X98819Y99213D02*
D03*
X106693Y104724D02*
D03*
X64567Y328740D02*
D03*
X13150Y162362D02*
D03*
X17323Y40945D02*
D03*
X37165Y30472D02*
D03*
X27165Y30315D02*
D03*
X42165Y41437D02*
D03*
X32283Y40945D02*
D03*
X143504Y137598D02*
D03*
X123622Y109055D02*
D03*
X84302Y146013D02*
D03*
X62992Y33465D02*
D03*
X12084Y41586D02*
D03*
X12746Y8514D02*
D03*
X98769Y13435D02*
D03*
X94882Y33071D02*
D03*
X-394Y50394D02*
D03*
X394Y35827D02*
D03*
X7717Y25354D02*
D03*
X20079Y97638D02*
D03*
X47638Y109843D02*
D03*
X67716Y83071D02*
D03*
X106732Y339331D02*
D03*
X86306Y206607D02*
D03*
X76378Y287402D02*
D03*
X84646Y315354D02*
D03*
X92126Y305512D02*
D03*
Y295669D02*
D03*
X54724Y229528D02*
D03*
X125984Y81496D02*
D03*
X92520Y314961D02*
D03*
X58711Y342864D02*
D03*
X52756Y326772D02*
D03*
X57480Y317717D02*
D03*
X57530Y177509D02*
D03*
X69453Y160372D02*
D03*
X116007Y342126D02*
D03*
X127165Y324410D02*
D03*
X163386Y247244D02*
D03*
X168061Y286270D02*
D03*
X72441Y366929D02*
D03*
X86614Y339370D02*
D03*
X91732D02*
D03*
X92520Y366929D02*
D03*
X83071Y365748D02*
D03*
X141339Y271260D02*
D03*
X156299Y287795D02*
D03*
X55905Y220866D02*
D03*
X60886Y209587D02*
D03*
X24016Y270472D02*
D03*
X49606Y245276D02*
D03*
X40502Y195226D02*
D03*
X63042Y300344D02*
D03*
X0Y185039D02*
D03*
X68504Y290551D02*
D03*
X130709Y301181D02*
D03*
X32283Y270472D02*
D03*
X43701Y281890D02*
D03*
X87008Y83071D02*
D03*
X109449Y64567D02*
D03*
X36614Y12598D02*
D03*
X63779Y139764D02*
D03*
X77953Y139370D02*
D03*
X65354Y181890D02*
D03*
X34252Y195276D02*
D03*
X74410Y182677D02*
D03*
X2165Y153150D02*
D03*
X48031Y160630D02*
D03*
X61024Y186614D02*
D03*
X49213Y202756D02*
D03*
X87402Y60630D02*
D03*
X91732Y70472D02*
D03*
X0Y170079D02*
D03*
X5906Y138583D02*
D03*
M02*
