G04*
G04 #@! TF.GenerationSoftware,Altium Limited,Altium Designer,23.4.1 (23)*
G04*
G04 Layer_Color=32896*
%FSLAX25Y25*%
%MOIN*%
G70*
G04*
G04 #@! TF.SameCoordinates,B679403E-95BF-4892-A0A7-9FFFC668BED6*
G04*
G04*
G04 #@! TF.FilePolarity,Positive*
G04*
G01*
G75*
%ADD10C,0.01000*%
%ADD11C,0.00787*%
%ADD12C,0.01575*%
%ADD13C,0.00591*%
%ADD14C,0.01181*%
%ADD15C,0.00800*%
%ADD56C,0.00984*%
%ADD103C,0.02362*%
%ADD104C,0.00394*%
%ADD105C,0.00000*%
D10*
X153347Y268110D02*
X153351Y262234D01*
X94488Y228346D02*
X122017D01*
Y209692D02*
Y228346D01*
X122047Y215846D02*
Y220472D01*
X153642Y287402D02*
X179134D01*
Y279528D02*
Y287402D01*
X136614Y252461D02*
X137992Y253346D01*
X139370Y252461D01*
X27657Y312992D02*
X27658Y311614D01*
X27657Y312992D02*
X41339Y312894D01*
X55315D01*
Y311614D02*
Y312894D01*
X84408Y311023D02*
X84494Y306594D01*
X82874Y310221D02*
X84449Y311024D01*
X84443Y311027D02*
X85925Y310123D01*
X66732Y310531D02*
X68307Y311516D01*
X70177Y310433D01*
X68307Y311516D02*
X70177Y310433D01*
X27656Y306803D02*
Y307591D01*
X41240Y306890D02*
Y312894D01*
X96457Y17323D02*
X96850D01*
X96457Y2362D02*
Y17323D01*
X27656Y307591D02*
X27658Y311614D01*
X94488Y209692D02*
X122017D01*
X179134Y261909D02*
Y285531D01*
X153351Y262234D02*
X179134Y261909D01*
X179232Y238583D01*
X179134Y215846D02*
Y240158D01*
X122047Y215846D02*
X179134D01*
X137992Y244094D02*
Y253346D01*
X114173Y244094D02*
X137992D01*
X114173D02*
Y248031D01*
X100591D02*
X114173D01*
X100591Y232283D02*
Y248031D01*
Y232283D02*
X114173D01*
Y248031D01*
X94488Y209692D02*
Y228346D01*
X55315Y306594D02*
Y307579D01*
Y306594D02*
X84494D01*
X27656Y306803D02*
X55315Y306594D01*
Y311614D01*
X68307Y306594D02*
Y311516D01*
X120866Y13386D02*
Y14173D01*
Y13386D02*
X122047D01*
X120866Y14173D02*
Y17323D01*
X96850D02*
X120866D01*
X96457Y2362D02*
X127559D01*
Y4331D01*
X135827Y11024D02*
Y24803D01*
Y11024D02*
X144095D01*
Y13780D01*
X150000D01*
X151181Y29921D02*
X151969D01*
X155512Y26378D01*
Y13780D02*
Y26378D01*
X150000Y13780D02*
X155512D01*
X147244Y11024D02*
X150000Y13780D01*
X147244Y4331D02*
Y11024D01*
X122047Y13386D02*
X127559D01*
Y4331D02*
Y13386D01*
Y4331D02*
X156693D01*
Y5906D01*
D11*
X141535Y262992D02*
X144685D01*
X141535Y259842D02*
Y262992D01*
Y251181D02*
X144685D01*
X141535D02*
Y254331D01*
X146605Y268996D02*
X147392D01*
X146605Y266043D02*
X147392D01*
X159350Y258169D02*
X163681D01*
X159350Y252067D02*
X163681D01*
X886Y266142D02*
Y266929D01*
X-2067Y266142D02*
Y266929D01*
X787Y313730D02*
Y314517D01*
X-2165Y313730D02*
Y314517D01*
X74410Y295374D02*
Y296161D01*
X71457Y295374D02*
Y296161D01*
X24803Y280906D02*
Y281693D01*
X27756Y280906D02*
Y281693D01*
X57382Y269587D02*
X57776D01*
X57382Y274705D02*
X57776D01*
X69488Y284350D02*
Y296949D01*
X34843Y284350D02*
Y296949D01*
Y284350D02*
X69488D01*
X34843Y296949D02*
X69488D01*
X45079Y274705D02*
X45866D01*
X45079Y271752D02*
X45866D01*
X29724Y281004D02*
Y281791D01*
X32677Y281004D02*
Y281791D01*
X28248Y271850D02*
X29035D01*
X28248Y274803D02*
X29035D01*
X76968Y295374D02*
Y296161D01*
X79921Y295374D02*
Y296161D01*
X30020Y299606D02*
Y300394D01*
X32972Y299606D02*
Y300394D01*
X25295Y299606D02*
Y300394D01*
X28248Y299606D02*
Y300394D01*
X156102Y271260D02*
Y277953D01*
X150984Y271260D02*
Y277953D01*
X156053Y284646D02*
X156840D01*
X156053Y281693D02*
X156840D01*
X134843Y260827D02*
Y267520D01*
X129724Y260827D02*
Y267520D01*
X122539Y264420D02*
Y265207D01*
X119587Y264420D02*
Y265207D01*
X127756Y264420D02*
Y265207D01*
X124803Y264420D02*
Y265207D01*
X166929Y284646D02*
X167717D01*
X166929Y281693D02*
X167717D01*
X71850Y319980D02*
Y354626D01*
X84449Y319980D02*
Y354626D01*
X71850Y319980D02*
X84449D01*
X71850Y354626D02*
X84449D01*
X58071Y336910D02*
X58858D01*
X58071Y339862D02*
X58858D01*
X58071Y323425D02*
X58858D01*
X58071Y320472D02*
X58858D01*
X58071Y314961D02*
X58858D01*
X58071Y317913D02*
X58858D01*
X68307Y314961D02*
X69095D01*
X68307Y317913D02*
X69095D01*
X58071Y325984D02*
X58858D01*
X58071Y328937D02*
X58858D01*
X58071Y331398D02*
X58858D01*
X58071Y334350D02*
X58858D01*
X52824Y197933D02*
X53612D01*
X52824Y194980D02*
X53612D01*
X56102Y172638D02*
X68701D01*
X56102Y192323D02*
X68701D01*
X56102Y172638D02*
Y192323D01*
X68701Y172638D02*
Y192323D01*
X39665Y165650D02*
Y166437D01*
X36713Y165650D02*
Y166437D01*
X104626Y162303D02*
Y163091D01*
X101673Y162303D02*
Y163091D01*
X111122Y158514D02*
X111909D01*
X111122Y161467D02*
X111909D01*
X144439Y147244D02*
Y148031D01*
X141486Y147244D02*
Y148031D01*
X139862Y137795D02*
X140650D01*
X139862Y140748D02*
X140650D01*
X93898Y135433D02*
Y135827D01*
X88779Y135433D02*
Y135827D01*
X114272Y155709D02*
X126870D01*
X114272Y136024D02*
X126870D01*
Y155709D01*
X114272Y136024D02*
Y155709D01*
X139026Y147244D02*
Y148031D01*
X136073Y147244D02*
Y148031D01*
X99558Y156004D02*
X100345D01*
X99558Y153051D02*
X100345D01*
X94291Y143602D02*
X98622D01*
X94291Y149705D02*
X98622D01*
X93748Y158016D02*
X96653D01*
Y159394D01*
X93748Y166677D02*
X96653D01*
Y165299D02*
Y166677D01*
X101870Y138779D02*
X104232D01*
X96358Y138779D02*
X98721D01*
X59892Y103839D02*
X60680D01*
X59892Y100886D02*
X60680D01*
X59892Y108957D02*
X60680D01*
X59892Y106004D02*
X60680D01*
X81102Y186614D02*
Y187402D01*
X78150Y186614D02*
Y187402D01*
X156447Y293406D02*
X157234D01*
X156447Y290453D02*
X157234D01*
X152657Y299803D02*
Y300590D01*
X155610Y299803D02*
Y300590D01*
X169587Y299803D02*
Y300590D01*
X172539Y299803D02*
Y300590D01*
X174606Y269482D02*
X177756D01*
Y272632D01*
X165945Y269482D02*
X169095D01*
X165945D02*
Y272632D01*
X158957Y274213D02*
Y275000D01*
X161909Y274213D02*
Y275000D01*
X158169Y299803D02*
Y300590D01*
X161122Y299803D02*
Y300590D01*
X163681Y299803D02*
Y300590D01*
X166634Y299803D02*
Y300590D01*
X153839Y19291D02*
Y20079D01*
X150886Y19291D02*
Y20079D01*
X145374Y19291D02*
Y20079D01*
X148327Y19291D02*
Y20079D01*
X142323Y17913D02*
Y18307D01*
X137205Y17913D02*
Y18307D01*
X140157Y37992D02*
X144095D01*
X140157Y25787D02*
X144095D01*
Y37992D01*
X140157Y25787D02*
Y37992D01*
X156811Y20669D02*
Y24213D01*
X172323Y20669D02*
Y24213D01*
X138878Y44488D02*
Y45276D01*
X135925Y44488D02*
Y45276D01*
X158858Y32874D02*
X159252D01*
X158858Y37992D02*
X159252D01*
X133661Y46260D02*
Y46654D01*
X128543Y46260D02*
Y46654D01*
X128839Y19685D02*
Y20472D01*
X131791Y19685D02*
Y20472D01*
X128839Y32283D02*
Y33071D01*
X131791Y32283D02*
Y33071D01*
X156988Y7283D02*
X157382D01*
X156988Y12402D02*
X157382D01*
X153248Y225197D02*
Y229528D01*
X147146Y225197D02*
Y229528D01*
X161811Y345768D02*
Y363632D01*
X155413Y345768D02*
X161811D01*
X140157D02*
X146555D01*
X140157D02*
Y363632D01*
X155413Y367421D02*
X158022D01*
X161811Y363632D01*
X140157D02*
X143947Y367421D01*
X146555D01*
X128937Y271063D02*
Y305709D01*
X141535Y271063D02*
Y305709D01*
X128937Y271063D02*
X141535D01*
X128937Y305709D02*
X141535D01*
X114764Y290650D02*
X115551D01*
X114764Y287697D02*
X115551D01*
X97736Y320866D02*
X98524D01*
X97736Y323819D02*
X98524D01*
X20374Y151476D02*
Y171161D01*
X7776Y151476D02*
Y171161D01*
X20374D01*
X7776Y151476D02*
X20374D01*
X34154Y165650D02*
Y166437D01*
X31201Y165650D02*
Y166437D01*
X34154Y154232D02*
Y155020D01*
X31201Y154232D02*
Y155020D01*
X23819Y177067D02*
X24606D01*
X23819Y174114D02*
X24606D01*
X35089D02*
X35876D01*
X35089Y177067D02*
X35876D01*
X85433Y123130D02*
X89764D01*
X85433Y117028D02*
X89764D01*
X4232Y174114D02*
X5020D01*
X4232Y177067D02*
X5020D01*
X22835Y146063D02*
X23622D01*
X22835Y149016D02*
X23622D01*
X58957Y93061D02*
Y93848D01*
X56004Y93061D02*
Y93848D01*
X89892Y88091D02*
X90680D01*
X89892Y85138D02*
X90680D01*
X88465Y77362D02*
X88858D01*
X88465Y82480D02*
X88858D01*
X147835Y56181D02*
X151378D01*
X147835Y40669D02*
X151378D01*
X46063Y177903D02*
Y178691D01*
X43110Y177903D02*
Y178691D01*
X74410Y197933D02*
X75197D01*
X74410Y194980D02*
X75197D01*
X71191Y170079D02*
X71979D01*
X71191Y167126D02*
X71979D01*
X81201Y175984D02*
Y176772D01*
X78248Y175984D02*
Y176772D01*
X91516Y70472D02*
Y71260D01*
X94468Y70472D02*
Y71260D01*
X83858D02*
X86221D01*
X74803Y109843D02*
X87402D01*
X74803Y90158D02*
X87402D01*
Y109843D01*
X74803Y90158D02*
Y109843D01*
X61516Y93061D02*
Y93848D01*
X64468Y93061D02*
Y93848D01*
X53445Y93061D02*
Y93848D01*
X50492Y93061D02*
Y93848D01*
X119488Y76181D02*
Y94045D01*
X113091Y76181D02*
X119488D01*
X97835D02*
X104232D01*
X97835D02*
Y94045D01*
X113091Y97835D02*
X115699D01*
X119488Y94045D01*
X97835D02*
X101624Y97835D01*
X104232D01*
X98130Y310925D02*
X98917D01*
X98130Y307972D02*
X98917D01*
X94095Y349484D02*
Y350271D01*
X97047Y349484D02*
Y350271D01*
X97883Y340453D02*
X98671D01*
X97883Y343406D02*
X98671D01*
X97736Y325787D02*
X98524D01*
X97736Y328740D02*
X98524D01*
X96850Y300591D02*
X97244D01*
X96850Y305709D02*
X97244D01*
X86939Y360728D02*
X87727D01*
X86939Y357776D02*
X87727D01*
X101772Y349484D02*
Y350271D01*
X98819Y349484D02*
Y350271D01*
X89714Y111909D02*
X90502D01*
X89714Y114862D02*
X90502D01*
X106496Y349484D02*
Y350271D01*
X103543Y349484D02*
Y350271D01*
X114764Y285138D02*
X115551D01*
X114764Y282185D02*
X115551D01*
X47047Y42913D02*
Y43307D01*
X41929Y42913D02*
Y43307D01*
X114764Y296555D02*
X115551D01*
X114764Y293602D02*
X115551D01*
X82697Y318406D02*
X89390D01*
X82697Y313287D02*
X89390D01*
X95276Y318406D02*
X101969D01*
X95276Y313287D02*
X101969D01*
X116142Y273622D02*
Y274016D01*
X111024Y273622D02*
Y274016D01*
X97883Y338583D02*
X98671D01*
X97883Y335630D02*
X98671D01*
X5561Y45472D02*
X8169D01*
X1772Y41683D02*
X5561Y45472D01*
X19636D02*
X23425Y41683D01*
X17028Y45472D02*
X19636D01*
X1772Y23819D02*
Y41683D01*
Y23819D02*
X8169D01*
X17028D02*
X23425D01*
Y41683D01*
X45669Y163075D02*
X42520D01*
X45669D02*
Y164425D01*
X45519Y164875D01*
X45369Y165025D01*
X45069Y165175D01*
X44769D01*
X44469Y165025D01*
X44319Y164875D01*
X44170Y164425D01*
Y163075D01*
Y164125D02*
X42520Y165175D01*
X45219Y167679D02*
X45519Y167529D01*
X45669Y167079D01*
Y166779D01*
X45519Y166329D01*
X45069Y166029D01*
X44319Y165879D01*
X43570D01*
X42970Y166029D01*
X42670Y166329D01*
X42520Y166779D01*
Y166929D01*
X42670Y167379D01*
X42970Y167679D01*
X43420Y167829D01*
X43570D01*
X44019Y167679D01*
X44319Y167379D01*
X44469Y166929D01*
Y166779D01*
X44319Y166329D01*
X44019Y166029D01*
X43570Y165879D01*
X45069Y168519D02*
X45219Y168818D01*
X45669Y169268D01*
X42520D01*
X86417Y170638D02*
X83268D01*
X86417D02*
Y171988D01*
X86267Y172438D01*
X86117Y172588D01*
X85817Y172738D01*
X85517D01*
X85217Y172588D01*
X85067Y172438D01*
X84917Y171988D01*
Y170638D01*
Y171688D02*
X83268Y172738D01*
X85967Y175242D02*
X86267Y175092D01*
X86417Y174642D01*
Y174342D01*
X86267Y173892D01*
X85817Y173592D01*
X85067Y173442D01*
X84318D01*
X83718Y173592D01*
X83418Y173892D01*
X83268Y174342D01*
Y174492D01*
X83418Y174942D01*
X83718Y175242D01*
X84168Y175392D01*
X84318D01*
X84768Y175242D01*
X85067Y174942D01*
X85217Y174492D01*
Y174342D01*
X85067Y173892D01*
X84768Y173592D01*
X84318Y173442D01*
X86417Y176981D02*
X86267Y176531D01*
X85817Y176231D01*
X85067Y176081D01*
X84618D01*
X83868Y176231D01*
X83418Y176531D01*
X83268Y176981D01*
Y177281D01*
X83418Y177731D01*
X83868Y178031D01*
X84618Y178181D01*
X85067D01*
X85817Y178031D01*
X86267Y177731D01*
X86417Y177281D01*
Y176981D01*
Y183524D02*
X83268D01*
X86417D02*
Y184874D01*
X86267Y185324D01*
X86117Y185474D01*
X85817Y185624D01*
X85517D01*
X85217Y185474D01*
X85067Y185324D01*
X84917Y184874D01*
Y183524D01*
Y184574D02*
X83268Y185624D01*
X86417Y188128D02*
Y186628D01*
X85067Y186478D01*
X85217Y186628D01*
X85367Y187078D01*
Y187528D01*
X85217Y187978D01*
X84917Y188278D01*
X84468Y188428D01*
X84168D01*
X83718Y188278D01*
X83418Y187978D01*
X83268Y187528D01*
Y187078D01*
X83418Y186628D01*
X83568Y186478D01*
X83868Y186328D01*
X85367Y191082D02*
X84917Y190932D01*
X84618Y190632D01*
X84468Y190182D01*
Y190032D01*
X84618Y189582D01*
X84917Y189283D01*
X85367Y189132D01*
X85517D01*
X85967Y189283D01*
X86267Y189582D01*
X86417Y190032D01*
Y190182D01*
X86267Y190632D01*
X85967Y190932D01*
X85367Y191082D01*
X84618D01*
X83868Y190932D01*
X83418Y190632D01*
X83268Y190182D01*
Y189882D01*
X83418Y189432D01*
X83718Y189283D01*
X110270Y244882D02*
Y241733D01*
Y244882D02*
X108921D01*
X108471Y244732D01*
X108321Y244582D01*
X108171Y244282D01*
Y243982D01*
X108321Y243682D01*
X108471Y243532D01*
X108921Y243382D01*
X110270D01*
X109221D02*
X108171Y241733D01*
X105667Y244882D02*
X107166D01*
X107316Y243532D01*
X107166Y243682D01*
X106717Y243832D01*
X106267D01*
X105817Y243682D01*
X105517Y243382D01*
X105367Y242932D01*
Y242632D01*
X105517Y242182D01*
X105817Y241883D01*
X106267Y241733D01*
X106717D01*
X107166Y241883D01*
X107316Y242033D01*
X107466Y242332D01*
X102563Y244882D02*
X104062Y241733D01*
X104662Y244882D02*
X102563D01*
X51574Y163075D02*
X48425D01*
X51574D02*
Y164425D01*
X51424Y164875D01*
X51275Y165025D01*
X50975Y165175D01*
X50675D01*
X50375Y165025D01*
X50225Y164875D01*
X50075Y164425D01*
Y163075D01*
Y164125D02*
X48425Y165175D01*
X51574Y167679D02*
Y166179D01*
X50225Y166029D01*
X50375Y166179D01*
X50525Y166629D01*
Y167079D01*
X50375Y167529D01*
X50075Y167829D01*
X49625Y167979D01*
X49325D01*
X48875Y167829D01*
X48575Y167529D01*
X48425Y167079D01*
Y166629D01*
X48575Y166179D01*
X48725Y166029D01*
X49025Y165879D01*
X51574Y170483D02*
Y168983D01*
X50225Y168833D01*
X50375Y168983D01*
X50525Y169433D01*
Y169883D01*
X50375Y170333D01*
X50075Y170633D01*
X49625Y170783D01*
X49325D01*
X48875Y170633D01*
X48575Y170333D01*
X48425Y169883D01*
Y169433D01*
X48575Y168983D01*
X48725Y168833D01*
X49025Y168684D01*
X114108Y324409D02*
Y321260D01*
Y324409D02*
X112759D01*
X112309Y324259D01*
X112159Y324109D01*
X112009Y323809D01*
Y323509D01*
X112159Y323210D01*
X112309Y323060D01*
X112759Y322910D01*
X114108D01*
X113059D02*
X112009Y321260D01*
X109505Y324409D02*
X111004D01*
X111154Y323060D01*
X111004Y323210D01*
X110555Y323359D01*
X110105D01*
X109655Y323210D01*
X109355Y322910D01*
X109205Y322460D01*
Y322160D01*
X109355Y321710D01*
X109655Y321410D01*
X110105Y321260D01*
X110555D01*
X111004Y321410D01*
X111154Y321560D01*
X111304Y321860D01*
X107001Y324409D02*
X108500Y322310D01*
X106251D01*
X107001Y324409D02*
Y321260D01*
X124705Y256707D02*
X127854D01*
X124705D02*
Y255358D01*
X124855Y254908D01*
X125005Y254758D01*
X125305Y254608D01*
X125605D01*
X125905Y254758D01*
X126055Y254908D01*
X126205Y255358D01*
Y256707D01*
Y255658D02*
X127854Y254608D01*
X124705Y253603D02*
Y251954D01*
X125905Y252854D01*
Y252404D01*
X126055Y252104D01*
X126205Y251954D01*
X126654Y251804D01*
X126954D01*
X127404Y251954D01*
X127704Y252254D01*
X127854Y252704D01*
Y253154D01*
X127704Y253603D01*
X127554Y253753D01*
X127254Y253903D01*
X124705Y250349D02*
X124855Y250799D01*
X125155Y250949D01*
X125455D01*
X125755Y250799D01*
X125905Y250500D01*
X126055Y249900D01*
X126205Y249450D01*
X126504Y249150D01*
X126804Y249000D01*
X127254D01*
X127554Y249150D01*
X127704Y249300D01*
X127854Y249750D01*
Y250349D01*
X127704Y250799D01*
X127554Y250949D01*
X127254Y251099D01*
X126804D01*
X126504Y250949D01*
X126205Y250649D01*
X126055Y250200D01*
X125905Y249600D01*
X125755Y249300D01*
X125455Y249150D01*
X125155D01*
X124855Y249300D01*
X124705Y249750D01*
Y250349D01*
X162512Y248856D02*
X162662Y249156D01*
X162962Y249456D01*
X163262Y249606D01*
X163862D01*
X164161Y249456D01*
X164461Y249156D01*
X164611Y248856D01*
X164761Y248406D01*
Y247657D01*
X164611Y247207D01*
X164461Y246907D01*
X164161Y246607D01*
X163862Y246457D01*
X163262D01*
X162962Y246607D01*
X162662Y246907D01*
X162512Y247207D01*
X160128Y249606D02*
X161627Y247507D01*
X159378D01*
X160128Y249606D02*
Y246457D01*
X158823Y249006D02*
X158523Y249156D01*
X158073Y249606D01*
Y246457D01*
X74506Y121199D02*
X74656Y121499D01*
X74955Y121799D01*
X75255Y121949D01*
X75855D01*
X76155Y121799D01*
X76455Y121499D01*
X76605Y121199D01*
X76755Y120749D01*
Y119999D01*
X76605Y119549D01*
X76455Y119249D01*
X76155Y118949D01*
X75855Y118799D01*
X75255D01*
X74955Y118949D01*
X74656Y119249D01*
X74506Y119549D01*
X72121Y121949D02*
X73621Y119849D01*
X71372D01*
X72121Y121949D02*
Y118799D01*
X69917Y121949D02*
X70367Y121799D01*
X70667Y121349D01*
X70817Y120599D01*
Y120149D01*
X70667Y119399D01*
X70367Y118949D01*
X69917Y118799D01*
X69617D01*
X69167Y118949D01*
X68867Y119399D01*
X68718Y120149D01*
Y120599D01*
X68867Y121349D01*
X69167Y121799D01*
X69617Y121949D01*
X69917D01*
X158305Y225766D02*
X158605Y225616D01*
X158905Y225316D01*
X159055Y225016D01*
Y224417D01*
X158905Y224117D01*
X158605Y223817D01*
X158305Y223667D01*
X157855Y223517D01*
X157105D01*
X156656Y223667D01*
X156356Y223817D01*
X156056Y224117D01*
X155906Y224417D01*
Y225016D01*
X156056Y225316D01*
X156356Y225616D01*
X156656Y225766D01*
X159055Y226951D02*
Y228600D01*
X157855Y227701D01*
Y228150D01*
X157705Y228450D01*
X157555Y228600D01*
X157105Y228750D01*
X156806D01*
X156356Y228600D01*
X156056Y228300D01*
X155906Y227851D01*
Y227401D01*
X156056Y226951D01*
X156206Y226801D01*
X156506Y226651D01*
X158005Y231404D02*
X157555Y231254D01*
X157255Y230954D01*
X157105Y230505D01*
Y230355D01*
X157255Y229905D01*
X157555Y229605D01*
X158005Y229455D01*
X158155D01*
X158605Y229605D01*
X158905Y229905D01*
X159055Y230355D01*
Y230505D01*
X158905Y230954D01*
X158605Y231254D01*
X158005Y231404D01*
X157255D01*
X156506Y231254D01*
X156056Y230954D01*
X155906Y230505D01*
Y230205D01*
X156056Y229755D01*
X156356Y229605D01*
X138226Y54530D02*
X138526Y54380D01*
X138826Y54080D01*
X138976Y53780D01*
Y53180D01*
X138826Y52880D01*
X138526Y52580D01*
X138226Y52430D01*
X137776Y52281D01*
X137027D01*
X136577Y52430D01*
X136277Y52580D01*
X135977Y52880D01*
X135827Y53180D01*
Y53780D01*
X135977Y54080D01*
X136277Y54380D01*
X136577Y54530D01*
X138976Y55714D02*
Y57364D01*
X137776Y56464D01*
Y56914D01*
X137627Y57214D01*
X137477Y57364D01*
X137027Y57514D01*
X136727D01*
X136277Y57364D01*
X135977Y57064D01*
X135827Y56614D01*
Y56164D01*
X135977Y55714D01*
X136127Y55564D01*
X136427Y55414D01*
X138976Y58968D02*
X138826Y58518D01*
X138526Y58368D01*
X138226D01*
X137926Y58518D01*
X137776Y58818D01*
X137627Y59418D01*
X137477Y59868D01*
X137177Y60168D01*
X136877Y60318D01*
X136427D01*
X136127Y60168D01*
X135977Y60018D01*
X135827Y59568D01*
Y58968D01*
X135977Y58518D01*
X136127Y58368D01*
X136427Y58219D01*
X136877D01*
X137177Y58368D01*
X137477Y58668D01*
X137627Y59118D01*
X137776Y59718D01*
X137926Y60018D01*
X138226Y60168D01*
X138526D01*
X138826Y60018D01*
X138976Y59568D01*
Y58968D01*
X78445Y231249D02*
X78295Y230949D01*
X77995Y230649D01*
X77695Y230499D01*
X77245Y230349D01*
X76495D01*
X76045Y230499D01*
X75745Y230649D01*
X75446Y230949D01*
X75296Y231249D01*
Y231849D01*
X75446Y232149D01*
X75745Y232449D01*
X76045Y232599D01*
X76495Y232749D01*
X77245D01*
X77695Y232599D01*
X77995Y232449D01*
X78295Y232149D01*
X78445Y231849D01*
Y231249D01*
X77695Y235733D02*
X77995Y235583D01*
X78295Y235283D01*
X78445Y234983D01*
Y234383D01*
X78295Y234083D01*
X77995Y233783D01*
X77695Y233633D01*
X77245Y233483D01*
X76495D01*
X76045Y233633D01*
X75745Y233783D01*
X75446Y234083D01*
X75296Y234383D01*
Y234983D01*
X75446Y235283D01*
X75745Y235583D01*
X76045Y235733D01*
X77845Y236617D02*
X77995Y236917D01*
X78445Y237367D01*
X75296D01*
X34454Y54921D02*
Y51772D01*
Y54921D02*
X33404D01*
X32955Y54771D01*
X32655Y54471D01*
X32505Y54171D01*
X32355Y53721D01*
Y52972D01*
X32505Y52522D01*
X32655Y52222D01*
X32955Y51922D01*
X33404Y51772D01*
X34454D01*
X31650Y54321D02*
X31350Y54471D01*
X30900Y54921D01*
Y51772D01*
X105019Y127666D02*
X101870Y128866D01*
X105019Y130066D02*
X101870Y128866D01*
X104270Y130620D02*
X104420D01*
X104719Y130770D01*
X104869Y130920D01*
X105019Y131220D01*
Y131820D01*
X104869Y132120D01*
X104719Y132270D01*
X104420Y132420D01*
X104120D01*
X103820Y132270D01*
X103370Y131970D01*
X101870Y130471D01*
Y132570D01*
X81232Y69877D02*
X78083Y71076D01*
X81232Y72276D02*
X78083Y71076D01*
X80632Y72681D02*
X80782Y72981D01*
X81232Y73430D01*
X78083D01*
X46621Y54921D02*
Y51772D01*
Y54921D02*
X45272D01*
X44822Y54771D01*
X44672Y54621D01*
X44522Y54321D01*
Y54021D01*
X44672Y53721D01*
X44822Y53571D01*
X45272Y53421D01*
X46621D01*
X45572D02*
X44522Y51772D01*
X42318Y54921D02*
X43817Y52822D01*
X41568D01*
X42318Y54921D02*
Y51772D01*
X99114Y127666D02*
X95965D01*
Y129466D01*
X99114Y131310D02*
X97015Y129811D01*
Y132060D01*
X99114Y131310D02*
X95965D01*
X12291Y54171D02*
X12441Y54471D01*
X12741Y54771D01*
X13041Y54921D01*
X13641D01*
X13940Y54771D01*
X14240Y54471D01*
X14390Y54171D01*
X14540Y53721D01*
Y52972D01*
X14390Y52522D01*
X14240Y52222D01*
X13940Y51922D01*
X13641Y51772D01*
X13041D01*
X12741Y51922D01*
X12441Y52222D01*
X12291Y52522D01*
X11406Y54321D02*
X11106Y54471D01*
X10657Y54921D01*
Y51772D01*
X123561Y83888D02*
X123861Y83738D01*
X124161Y83438D01*
X124311Y83138D01*
Y82538D01*
X124161Y82238D01*
X123861Y81938D01*
X123561Y81788D01*
X123111Y81638D01*
X122361D01*
X121912Y81788D01*
X121612Y81938D01*
X121312Y82238D01*
X121162Y82538D01*
Y83138D01*
X121312Y83438D01*
X121612Y83738D01*
X121912Y83888D01*
X123711Y84772D02*
X123861Y85072D01*
X124311Y85522D01*
X121162D01*
X123261Y89031D02*
X122811Y88881D01*
X122511Y88581D01*
X122361Y88131D01*
Y87981D01*
X122511Y87531D01*
X122811Y87231D01*
X123261Y87082D01*
X123411D01*
X123861Y87231D01*
X124161Y87531D01*
X124311Y87981D01*
Y88131D01*
X124161Y88581D01*
X123861Y88881D01*
X123261Y89031D01*
X122511D01*
X121762Y88881D01*
X121312Y88581D01*
X121162Y88131D01*
Y87831D01*
X121312Y87381D01*
X121612Y87231D01*
X111712Y347008D02*
X108563D01*
X111712D02*
Y348358D01*
X111562Y348808D01*
X111412Y348957D01*
X111112Y349107D01*
X110813D01*
X110513Y348957D01*
X110363Y348808D01*
X110213Y348358D01*
Y347008D01*
Y348058D02*
X108563Y349107D01*
X111712Y351312D02*
X109613Y349812D01*
Y352061D01*
X111712Y351312D02*
X108563D01*
X111712Y353516D02*
X111562Y353066D01*
X111112Y352766D01*
X110363Y352616D01*
X109913D01*
X109163Y352766D01*
X108713Y353066D01*
X108563Y353516D01*
Y353816D01*
X108713Y354266D01*
X109163Y354566D01*
X109913Y354715D01*
X110363D01*
X111112Y354566D01*
X111562Y354266D01*
X111712Y353816D01*
Y353516D01*
X114108Y342421D02*
Y339272D01*
Y342421D02*
X112759D01*
X112309Y342271D01*
X112159Y342121D01*
X112009Y341821D01*
Y341521D01*
X112159Y341221D01*
X112309Y341071D01*
X112759Y340921D01*
X114108D01*
X113059D02*
X112009Y339272D01*
X111004Y342421D02*
X109355D01*
X110255Y341221D01*
X109805D01*
X109505Y341071D01*
X109355Y340921D01*
X109205Y340472D01*
Y340172D01*
X109355Y339722D01*
X109655Y339422D01*
X110105Y339272D01*
X110555D01*
X111004Y339422D01*
X111154Y339572D01*
X111304Y339872D01*
X106551Y341371D02*
X106701Y340921D01*
X107001Y340621D01*
X107450Y340472D01*
X107600D01*
X108050Y340621D01*
X108350Y340921D01*
X108500Y341371D01*
Y341521D01*
X108350Y341971D01*
X108050Y342271D01*
X107600Y342421D01*
X107450D01*
X107001Y342271D01*
X106701Y341971D01*
X106551Y341371D01*
Y340621D01*
X106701Y339872D01*
X107001Y339422D01*
X107450Y339272D01*
X107750D01*
X108200Y339422D01*
X108350Y339722D01*
X125197Y5350D02*
X122947D01*
X122497Y5500D01*
X122197Y5800D01*
X122048Y6250D01*
Y6549D01*
X122197Y6999D01*
X122497Y7299D01*
X122947Y7449D01*
X125197D01*
X124147Y10268D02*
X123697Y10118D01*
X123397Y9818D01*
X123247Y9368D01*
Y9218D01*
X123397Y8769D01*
X123697Y8469D01*
X124147Y8319D01*
X124297D01*
X124747Y8469D01*
X125047Y8769D01*
X125197Y9218D01*
Y9368D01*
X125047Y9818D01*
X124747Y10118D01*
X124147Y10268D01*
X123397D01*
X122647Y10118D01*
X122197Y9818D01*
X122048Y9368D01*
Y9069D01*
X122197Y8619D01*
X122497Y8469D01*
X132663Y286890D02*
Y289139D01*
X132813Y289589D01*
X133113Y289889D01*
X133562Y290039D01*
X133862D01*
X134312Y289889D01*
X134612Y289589D01*
X134762Y289139D01*
Y286890D01*
X136381D02*
X135932Y287040D01*
X135782Y287340D01*
Y287640D01*
X135932Y287940D01*
X136232Y288090D01*
X136831Y288240D01*
X137281Y288390D01*
X137581Y288689D01*
X137731Y288989D01*
Y289439D01*
X137581Y289739D01*
X137431Y289889D01*
X136981Y290039D01*
X136381D01*
X135932Y289889D01*
X135782Y289739D01*
X135632Y289439D01*
Y288989D01*
X135782Y288689D01*
X136082Y288390D01*
X136531Y288240D01*
X137131Y288090D01*
X137431Y287940D01*
X137581Y287640D01*
Y287340D01*
X137431Y287040D01*
X136981Y286890D01*
X136381D01*
X50886Y292987D02*
X53135D01*
X53585Y292837D01*
X53885Y292537D01*
X54035Y292087D01*
Y291787D01*
X53885Y291337D01*
X53585Y291038D01*
X53135Y290888D01*
X50886D01*
Y287919D02*
X54035Y289418D01*
X50886Y290018D02*
Y287919D01*
X75690Y334941D02*
Y337191D01*
X75840Y337640D01*
X76140Y337940D01*
X76590Y338090D01*
X76890D01*
X77340Y337940D01*
X77640Y337640D01*
X77790Y337191D01*
Y334941D01*
X80459Y335391D02*
X80309Y335091D01*
X79859Y334941D01*
X79559D01*
X79109Y335091D01*
X78809Y335541D01*
X78659Y336291D01*
Y337041D01*
X78809Y337640D01*
X79109Y337940D01*
X79559Y338090D01*
X79709D01*
X80159Y337940D01*
X80459Y337640D01*
X80609Y337191D01*
Y337041D01*
X80459Y336591D01*
X80159Y336291D01*
X79709Y336141D01*
X79559D01*
X79109Y336291D01*
X78809Y336591D01*
X78659Y337041D01*
X64936Y183661D02*
Y181412D01*
X64786Y180962D01*
X64486Y180662D01*
X64036Y180512D01*
X63736D01*
X63286Y180662D01*
X62986Y180962D01*
X62836Y181412D01*
Y183661D01*
X60167D02*
X61667D01*
X61817Y182311D01*
X61667Y182462D01*
X61217Y182611D01*
X60767D01*
X60317Y182462D01*
X60017Y182162D01*
X59867Y181712D01*
Y181412D01*
X60017Y180962D01*
X60317Y180662D01*
X60767Y180512D01*
X61217D01*
X61667Y180662D01*
X61817Y180812D01*
X61967Y181112D01*
X11466Y159351D02*
Y161600D01*
X11616Y162050D01*
X11915Y162350D01*
X12365Y162500D01*
X12665D01*
X13115Y162350D01*
X13415Y162050D01*
X13565Y161600D01*
Y159351D01*
X15934D02*
X14435Y161450D01*
X16684D01*
X15934Y159351D02*
Y162500D01*
X123105Y147834D02*
Y145585D01*
X122955Y145135D01*
X122655Y144835D01*
X122205Y144685D01*
X121905D01*
X121456Y144835D01*
X121156Y145135D01*
X121006Y145585D01*
Y147834D01*
X119986Y147085D02*
Y147234D01*
X119836Y147534D01*
X119686Y147684D01*
X119386Y147834D01*
X118787D01*
X118487Y147684D01*
X118337Y147534D01*
X118187Y147234D01*
Y146935D01*
X118337Y146635D01*
X118637Y146185D01*
X120136Y144685D01*
X118037D01*
X82962Y101575D02*
Y99325D01*
X82812Y98875D01*
X82512Y98576D01*
X82062Y98426D01*
X81762D01*
X81312Y98576D01*
X81012Y98875D01*
X80862Y99325D01*
Y101575D01*
X79993Y100975D02*
X79693Y101125D01*
X79243Y101575D01*
Y98426D01*
X39041Y183071D02*
Y179922D01*
Y183071D02*
X37692D01*
X37242Y182921D01*
X37092Y182771D01*
X36942Y182471D01*
Y182171D01*
X37092Y181871D01*
X37242Y181721D01*
X37692Y181571D01*
X39041D01*
X37991D02*
X36942Y179922D01*
X34438Y183071D02*
X35937D01*
X36087Y181721D01*
X35937Y181871D01*
X35487Y182021D01*
X35037D01*
X34588Y181871D01*
X34288Y181571D01*
X34138Y181121D01*
Y180821D01*
X34288Y180371D01*
X34588Y180072D01*
X35037Y179922D01*
X35487D01*
X35937Y180072D01*
X36087Y180221D01*
X36237Y180521D01*
X33133Y183071D02*
X31484D01*
X32383Y181871D01*
X31934D01*
X31634Y181721D01*
X31484Y181571D01*
X31334Y181121D01*
Y180821D01*
X31484Y180371D01*
X31784Y180072D01*
X32233Y179922D01*
X32683D01*
X33133Y180072D01*
X33283Y180221D01*
X33433Y180521D01*
X39041Y189468D02*
Y186319D01*
Y189468D02*
X37692D01*
X37242Y189318D01*
X37092Y189168D01*
X36942Y188868D01*
Y188568D01*
X37092Y188269D01*
X37242Y188119D01*
X37692Y187969D01*
X39041D01*
X37991D02*
X36942Y186319D01*
X34438Y189468D02*
X35937D01*
X36087Y188119D01*
X35937Y188269D01*
X35487Y188418D01*
X35037D01*
X34588Y188269D01*
X34288Y187969D01*
X34138Y187519D01*
Y187219D01*
X34288Y186769D01*
X34588Y186469D01*
X35037Y186319D01*
X35487D01*
X35937Y186469D01*
X36087Y186619D01*
X36237Y186919D01*
X33283Y188718D02*
Y188868D01*
X33133Y189168D01*
X32983Y189318D01*
X32683Y189468D01*
X32083D01*
X31784Y189318D01*
X31634Y189168D01*
X31484Y188868D01*
Y188568D01*
X31634Y188269D01*
X31934Y187819D01*
X33433Y186319D01*
X31334D01*
X139124Y155201D02*
X135975D01*
X139124D02*
Y156551D01*
X138974Y157001D01*
X138824Y157151D01*
X138524Y157301D01*
X138224D01*
X137925Y157151D01*
X137775Y157001D01*
X137625Y156551D01*
Y155201D01*
Y156251D02*
X135975Y157301D01*
X139124Y159805D02*
Y158305D01*
X137775Y158155D01*
X137925Y158305D01*
X138074Y158755D01*
Y159205D01*
X137925Y159655D01*
X137625Y159955D01*
X137175Y160105D01*
X136875D01*
X136425Y159955D01*
X136125Y159655D01*
X135975Y159205D01*
Y158755D01*
X136125Y158305D01*
X136275Y158155D01*
X136575Y158005D01*
X138524Y160810D02*
X138674Y161109D01*
X139124Y161559D01*
X135975D01*
X144930Y155201D02*
X141781D01*
X144930D02*
Y156551D01*
X144780Y157001D01*
X144631Y157151D01*
X144331Y157301D01*
X144031D01*
X143731Y157151D01*
X143581Y157001D01*
X143431Y156551D01*
Y155201D01*
Y156251D02*
X141781Y157301D01*
X144930Y159805D02*
Y158305D01*
X143581Y158155D01*
X143731Y158305D01*
X143881Y158755D01*
Y159205D01*
X143731Y159655D01*
X143431Y159955D01*
X142981Y160105D01*
X142681D01*
X142231Y159955D01*
X141931Y159655D01*
X141781Y159205D01*
Y158755D01*
X141931Y158305D01*
X142081Y158155D01*
X142381Y158005D01*
X144930Y161709D02*
X144780Y161259D01*
X144331Y160959D01*
X143581Y160810D01*
X143131D01*
X142381Y160959D01*
X141931Y161259D01*
X141781Y161709D01*
Y162009D01*
X141931Y162459D01*
X142381Y162759D01*
X143131Y162909D01*
X143581D01*
X144331Y162759D01*
X144780Y162459D01*
X144930Y162009D01*
Y161709D01*
X90196Y198031D02*
Y194882D01*
Y198031D02*
X88846D01*
X88397Y197881D01*
X88247Y197731D01*
X88097Y197431D01*
Y197132D01*
X88247Y196832D01*
X88397Y196682D01*
X88846Y196532D01*
X90196D01*
X89146D02*
X88097Y194882D01*
X85892Y198031D02*
X87392Y195932D01*
X85143D01*
X85892Y198031D02*
Y194882D01*
X82639Y196982D02*
X82789Y196532D01*
X83088Y196232D01*
X83538Y196082D01*
X83688D01*
X84138Y196232D01*
X84438Y196532D01*
X84588Y196982D01*
Y197132D01*
X84438Y197581D01*
X84138Y197881D01*
X83688Y198031D01*
X83538D01*
X83088Y197881D01*
X82789Y197581D01*
X82639Y196982D01*
Y196232D01*
X82789Y195482D01*
X83088Y195032D01*
X83538Y194882D01*
X83838D01*
X84288Y195032D01*
X84438Y195332D01*
X26393Y183071D02*
Y179922D01*
Y183071D02*
X25043D01*
X24594Y182921D01*
X24444Y182771D01*
X24294Y182471D01*
Y182171D01*
X24444Y181871D01*
X24594Y181721D01*
X25043Y181571D01*
X26393D01*
X25343D02*
X24294Y179922D01*
X22090Y183071D02*
X23589Y180971D01*
X21340D01*
X22090Y183071D02*
Y179922D01*
X20035Y183071D02*
X20485Y182921D01*
X20635Y182621D01*
Y182321D01*
X20485Y182021D01*
X20185Y181871D01*
X19585Y181721D01*
X19136Y181571D01*
X18836Y181271D01*
X18686Y180971D01*
Y180521D01*
X18836Y180221D01*
X18986Y180072D01*
X19435Y179922D01*
X20035D01*
X20485Y180072D01*
X20635Y180221D01*
X20785Y180521D01*
Y180971D01*
X20635Y181271D01*
X20335Y181571D01*
X19885Y181721D01*
X19286Y181871D01*
X18986Y182021D01*
X18836Y182321D01*
Y182621D01*
X18986Y182921D01*
X19435Y183071D01*
X20035D01*
X84924Y140846D02*
Y137697D01*
Y140846D02*
X83575D01*
X83125Y140696D01*
X82975Y140546D01*
X82825Y140246D01*
Y139946D01*
X82975Y139646D01*
X83125Y139497D01*
X83575Y139347D01*
X84924D01*
X83874D02*
X82825Y137697D01*
X80621Y140846D02*
X82120Y138747D01*
X79871D01*
X80621Y140846D02*
Y137697D01*
X77217Y140846D02*
X78716Y137697D01*
X79316Y140846D02*
X77217D01*
X84924Y155708D02*
Y152559D01*
Y155708D02*
X83575D01*
X83125Y155558D01*
X82975Y155408D01*
X82825Y155108D01*
Y154809D01*
X82975Y154509D01*
X83125Y154359D01*
X83575Y154209D01*
X84924D01*
X83874D02*
X82825Y152559D01*
X80621Y155708D02*
X82120Y153609D01*
X79871D01*
X80621Y155708D02*
Y152559D01*
X77517Y155259D02*
X77667Y155558D01*
X78117Y155708D01*
X78416D01*
X78866Y155558D01*
X79166Y155108D01*
X79316Y154359D01*
Y153609D01*
X79166Y153009D01*
X78866Y152709D01*
X78416Y152559D01*
X78266D01*
X77817Y152709D01*
X77517Y153009D01*
X77367Y153459D01*
Y153609D01*
X77517Y154059D01*
X77817Y154359D01*
X78266Y154509D01*
X78416D01*
X78866Y154359D01*
X79166Y154059D01*
X79316Y153609D01*
X105822Y214763D02*
Y211614D01*
Y214763D02*
X104473D01*
X104023Y214614D01*
X103873Y214463D01*
X103723Y214164D01*
Y213864D01*
X103873Y213564D01*
X104023Y213414D01*
X104473Y213264D01*
X105822D01*
X104772D02*
X103723Y211614D01*
X101519Y214763D02*
X103018Y212664D01*
X100769D01*
X101519Y214763D02*
Y211614D01*
X98415Y214763D02*
X99914D01*
X100064Y213414D01*
X99914Y213564D01*
X99464Y213714D01*
X99015D01*
X98565Y213564D01*
X98265Y213264D01*
X98115Y212814D01*
Y212514D01*
X98265Y212064D01*
X98565Y211765D01*
X99015Y211614D01*
X99464D01*
X99914Y211765D01*
X100064Y211914D01*
X100214Y212214D01*
X114108Y311614D02*
Y308465D01*
Y311614D02*
X112759D01*
X112309Y311464D01*
X112159Y311314D01*
X112009Y311014D01*
Y310714D01*
X112159Y310414D01*
X112309Y310264D01*
X112759Y310114D01*
X114108D01*
X113059D02*
X112009Y308465D01*
X109805Y311614D02*
X111304Y309515D01*
X109055D01*
X109805Y311614D02*
Y308465D01*
X107001Y311614D02*
X108500Y309515D01*
X106251D01*
X107001Y311614D02*
Y308465D01*
X38007Y311417D02*
Y308268D01*
Y311417D02*
X36658D01*
X36208Y311267D01*
X36058Y311117D01*
X35908Y310817D01*
Y310517D01*
X36058Y310217D01*
X36208Y310067D01*
X36658Y309917D01*
X38007D01*
X36958D02*
X35908Y308268D01*
X33704Y311417D02*
X35203Y309318D01*
X32954D01*
X33704Y311417D02*
Y308268D01*
X32099Y311417D02*
X30450D01*
X31350Y310217D01*
X30900D01*
X30600Y310067D01*
X30450Y309917D01*
X30300Y309468D01*
Y309168D01*
X30450Y308718D01*
X30750Y308418D01*
X31199Y308268D01*
X31649D01*
X32099Y308418D01*
X32249Y308568D01*
X32399Y308868D01*
X58661Y77943D02*
X55512D01*
X58661D02*
Y79293D01*
X58511Y79743D01*
X58361Y79893D01*
X58061Y80043D01*
X57761D01*
X57462Y79893D01*
X57311Y79743D01*
X57162Y79293D01*
Y77943D01*
Y78993D02*
X55512Y80043D01*
X58661Y82247D02*
X56562Y80747D01*
Y82997D01*
X58661Y82247D02*
X55512D01*
X57911Y83701D02*
X58061D01*
X58361Y83851D01*
X58511Y84001D01*
X58661Y84301D01*
Y84901D01*
X58511Y85201D01*
X58361Y85351D01*
X58061Y85501D01*
X57761D01*
X57462Y85351D01*
X57012Y85051D01*
X55512Y83552D01*
Y85651D01*
X53543Y77943D02*
X50394D01*
X53543D02*
Y79293D01*
X53393Y79743D01*
X53243Y79893D01*
X52943Y80043D01*
X52643D01*
X52343Y79893D01*
X52193Y79743D01*
X52043Y79293D01*
Y77943D01*
Y78993D02*
X50394Y80043D01*
X53543Y82247D02*
X51444Y80747D01*
Y82997D01*
X53543Y82247D02*
X50394D01*
X52943Y83552D02*
X53093Y83851D01*
X53543Y84301D01*
X50394D01*
X114108Y330413D02*
Y327264D01*
Y330413D02*
X112759D01*
X112309Y330263D01*
X112159Y330113D01*
X112009Y329813D01*
Y329513D01*
X112159Y329214D01*
X112309Y329064D01*
X112759Y328913D01*
X114108D01*
X113059D02*
X112009Y327264D01*
X111004Y330413D02*
X109355D01*
X110255Y329214D01*
X109805D01*
X109505Y329064D01*
X109355Y328913D01*
X109205Y328464D01*
Y328164D01*
X109355Y327714D01*
X109655Y327414D01*
X110105Y327264D01*
X110555D01*
X111004Y327414D01*
X111154Y327564D01*
X111304Y327864D01*
X106401Y330413D02*
X107900Y327264D01*
X108500Y330413D02*
X106401D01*
X51951Y335236D02*
Y332087D01*
Y335236D02*
X50602D01*
X50152Y335086D01*
X50002Y334936D01*
X49852Y334636D01*
Y334336D01*
X50002Y334036D01*
X50152Y333886D01*
X50602Y333736D01*
X51951D01*
X50901D02*
X49852Y332087D01*
X48847Y335236D02*
X47198D01*
X48097Y334036D01*
X47648D01*
X47348Y333886D01*
X47198Y333736D01*
X47048Y333286D01*
Y332987D01*
X47198Y332537D01*
X47498Y332237D01*
X47947Y332087D01*
X48397D01*
X48847Y332237D01*
X48997Y332387D01*
X49147Y332687D01*
X44544Y334786D02*
X44693Y335086D01*
X45143Y335236D01*
X45443D01*
X45893Y335086D01*
X46193Y334636D01*
X46343Y333886D01*
Y333137D01*
X46193Y332537D01*
X45893Y332237D01*
X45443Y332087D01*
X45293D01*
X44844Y332237D01*
X44544Y332537D01*
X44394Y332987D01*
Y333137D01*
X44544Y333587D01*
X44844Y333886D01*
X45293Y334036D01*
X45443D01*
X45893Y333886D01*
X46193Y333587D01*
X46343Y333137D01*
X114108Y304921D02*
Y301772D01*
Y304921D02*
X112759D01*
X112309Y304771D01*
X112159Y304621D01*
X112009Y304321D01*
Y304021D01*
X112159Y303721D01*
X112309Y303571D01*
X112759Y303421D01*
X114108D01*
X113059D02*
X112009Y301772D01*
X111004Y304921D02*
X109355D01*
X110255Y303721D01*
X109805D01*
X109505Y303571D01*
X109355Y303421D01*
X109205Y302972D01*
Y302672D01*
X109355Y302222D01*
X109655Y301922D01*
X110105Y301772D01*
X110555D01*
X111004Y301922D01*
X111154Y302072D01*
X111304Y302372D01*
X106701Y304921D02*
X108200D01*
X108350Y303571D01*
X108200Y303721D01*
X107750Y303871D01*
X107301D01*
X106851Y303721D01*
X106551Y303421D01*
X106401Y302972D01*
Y302672D01*
X106551Y302222D01*
X106851Y301922D01*
X107301Y301772D01*
X107750D01*
X108200Y301922D01*
X108350Y302072D01*
X108500Y302372D01*
X90868Y366338D02*
Y363189D01*
Y366338D02*
X89518D01*
X89069Y366188D01*
X88919Y366038D01*
X88769Y365739D01*
Y365439D01*
X88919Y365139D01*
X89069Y364989D01*
X89518Y364839D01*
X90868D01*
X89818D02*
X88769Y363189D01*
X87764Y366338D02*
X86115D01*
X87014Y365139D01*
X86564D01*
X86265Y364989D01*
X86115Y364839D01*
X85965Y364389D01*
Y364089D01*
X86115Y363639D01*
X86414Y363339D01*
X86864Y363189D01*
X87314D01*
X87764Y363339D01*
X87914Y363489D01*
X88064Y363789D01*
X83760Y366338D02*
X85260Y364239D01*
X83011D01*
X83760Y366338D02*
Y363189D01*
X51951Y318110D02*
Y314961D01*
Y318110D02*
X50602D01*
X50152Y317960D01*
X50002Y317810D01*
X49852Y317510D01*
Y317210D01*
X50002Y316910D01*
X50152Y316760D01*
X50602Y316610D01*
X51951D01*
X50901D02*
X49852Y314961D01*
X48847Y318110D02*
X47198D01*
X48097Y316910D01*
X47648D01*
X47348Y316760D01*
X47198Y316610D01*
X47048Y316161D01*
Y315861D01*
X47198Y315411D01*
X47498Y315111D01*
X47947Y314961D01*
X48397D01*
X48847Y315111D01*
X48997Y315261D01*
X49147Y315561D01*
X46043Y318110D02*
X44394D01*
X45293Y316910D01*
X44844D01*
X44544Y316760D01*
X44394Y316610D01*
X44244Y316161D01*
Y315861D01*
X44394Y315411D01*
X44693Y315111D01*
X45143Y314961D01*
X45593D01*
X46043Y315111D01*
X46193Y315261D01*
X46343Y315561D01*
X51951Y323720D02*
Y320571D01*
Y323720D02*
X50602D01*
X50152Y323570D01*
X50002Y323420D01*
X49852Y323120D01*
Y322820D01*
X50002Y322520D01*
X50152Y322371D01*
X50602Y322221D01*
X51951D01*
X50901D02*
X49852Y320571D01*
X48847Y323720D02*
X47198D01*
X48097Y322520D01*
X47648D01*
X47348Y322371D01*
X47198Y322221D01*
X47048Y321771D01*
Y321471D01*
X47198Y321021D01*
X47498Y320721D01*
X47947Y320571D01*
X48397D01*
X48847Y320721D01*
X48997Y320871D01*
X49147Y321171D01*
X46193Y322970D02*
Y323120D01*
X46043Y323420D01*
X45893Y323570D01*
X45593Y323720D01*
X44993D01*
X44693Y323570D01*
X44544Y323420D01*
X44394Y323120D01*
Y322820D01*
X44544Y322520D01*
X44844Y322071D01*
X46343Y320571D01*
X44244D01*
X117421Y347008D02*
X114272D01*
X117421D02*
Y348358D01*
X117271Y348808D01*
X117121Y348957D01*
X116821Y349107D01*
X116521D01*
X116221Y348957D01*
X116071Y348808D01*
X115921Y348358D01*
Y347008D01*
Y348058D02*
X114272Y349107D01*
X117421Y350112D02*
Y351762D01*
X116221Y350862D01*
Y351312D01*
X116071Y351612D01*
X115921Y351762D01*
X115472Y351911D01*
X115172D01*
X114722Y351762D01*
X114422Y351462D01*
X114272Y351012D01*
Y350562D01*
X114422Y350112D01*
X114572Y349962D01*
X114872Y349812D01*
X116821Y352616D02*
X116971Y352916D01*
X117421Y353366D01*
X114272D01*
X76425Y115748D02*
Y112599D01*
Y115748D02*
X75075D01*
X74626Y115598D01*
X74476Y115448D01*
X74326Y115148D01*
Y114848D01*
X74476Y114548D01*
X74626Y114398D01*
X75075Y114248D01*
X76425D01*
X75375D02*
X74326Y112599D01*
X73321Y115748D02*
X71672D01*
X72571Y114548D01*
X72121D01*
X71821Y114398D01*
X71672Y114248D01*
X71522Y113798D01*
Y113498D01*
X71672Y113049D01*
X71971Y112749D01*
X72421Y112599D01*
X72871D01*
X73321Y112749D01*
X73471Y112899D01*
X73621Y113199D01*
X69917Y115748D02*
X70367Y115598D01*
X70667Y115148D01*
X70817Y114398D01*
Y113948D01*
X70667Y113199D01*
X70367Y112749D01*
X69917Y112599D01*
X69617D01*
X69167Y112749D01*
X68867Y113199D01*
X68718Y113948D01*
Y114398D01*
X68867Y115148D01*
X69167Y115598D01*
X69617Y115748D01*
X69917D01*
X123130Y347008D02*
X119981D01*
X123130D02*
Y348358D01*
X122980Y348808D01*
X122830Y348957D01*
X122530Y349107D01*
X122230D01*
X121930Y348957D01*
X121780Y348808D01*
X121630Y348358D01*
Y347008D01*
Y348058D02*
X119981Y349107D01*
X122380Y349962D02*
X122530D01*
X122830Y350112D01*
X122980Y350262D01*
X123130Y350562D01*
Y351162D01*
X122980Y351462D01*
X122830Y351612D01*
X122530Y351762D01*
X122230D01*
X121930Y351612D01*
X121480Y351312D01*
X119981Y349812D01*
Y351911D01*
X122080Y354566D02*
X121630Y354416D01*
X121330Y354116D01*
X121180Y353666D01*
Y353516D01*
X121330Y353066D01*
X121630Y352766D01*
X122080Y352616D01*
X122230D01*
X122680Y352766D01*
X122980Y353066D01*
X123130Y353516D01*
Y353666D01*
X122980Y354116D01*
X122680Y354416D01*
X122080Y354566D01*
X121330D01*
X120580Y354416D01*
X120131Y354116D01*
X119981Y353666D01*
Y353366D01*
X120131Y352916D01*
X120431Y352766D01*
X105822Y225886D02*
Y222737D01*
Y225886D02*
X104473D01*
X104023Y225736D01*
X103873Y225586D01*
X103723Y225286D01*
Y224986D01*
X103873Y224686D01*
X104023Y224536D01*
X104473Y224386D01*
X105822D01*
X104772D02*
X103723Y222737D01*
X102868Y225136D02*
Y225286D01*
X102718Y225586D01*
X102568Y225736D01*
X102268Y225886D01*
X101669D01*
X101369Y225736D01*
X101219Y225586D01*
X101069Y225286D01*
Y224986D01*
X101219Y224686D01*
X101519Y224236D01*
X103018Y222737D01*
X100919D01*
X99464Y225886D02*
X99914Y225736D01*
X100064Y225436D01*
Y225136D01*
X99914Y224836D01*
X99614Y224686D01*
X99015Y224536D01*
X98565Y224386D01*
X98265Y224086D01*
X98115Y223786D01*
Y223336D01*
X98265Y223037D01*
X98415Y222886D01*
X98865Y222737D01*
X99464D01*
X99914Y222886D01*
X100064Y223037D01*
X100214Y223336D01*
Y223786D01*
X100064Y224086D01*
X99764Y224386D01*
X99314Y224536D01*
X98715Y224686D01*
X98415Y224836D01*
X98265Y225136D01*
Y225436D01*
X98415Y225736D01*
X98865Y225886D01*
X99464D01*
X53041Y103543D02*
Y100394D01*
Y103543D02*
X51691D01*
X51241Y103393D01*
X51092Y103243D01*
X50942Y102943D01*
Y102643D01*
X51092Y102343D01*
X51241Y102193D01*
X51691Y102043D01*
X53041D01*
X51991D02*
X50942Y100394D01*
X50087Y102793D02*
Y102943D01*
X49937Y103243D01*
X49787Y103393D01*
X49487Y103543D01*
X48887D01*
X48587Y103393D01*
X48438Y103243D01*
X48287Y102943D01*
Y102643D01*
X48438Y102343D01*
X48737Y101893D01*
X50237Y100394D01*
X48138D01*
X45633Y103093D02*
X45783Y103393D01*
X46233Y103543D01*
X46533D01*
X46983Y103393D01*
X47283Y102943D01*
X47433Y102193D01*
Y101444D01*
X47283Y100844D01*
X46983Y100544D01*
X46533Y100394D01*
X46383D01*
X45933Y100544D01*
X45633Y100844D01*
X45483Y101294D01*
Y101444D01*
X45633Y101893D01*
X45933Y102193D01*
X46383Y102343D01*
X46533D01*
X46983Y102193D01*
X47283Y101893D01*
X47433Y101444D01*
X126771Y29611D02*
X123622D01*
X126771D02*
Y30960D01*
X126621Y31410D01*
X126471Y31560D01*
X126172Y31710D01*
X125872D01*
X125572Y31560D01*
X125422Y31410D01*
X125272Y30960D01*
Y29611D01*
Y30661D02*
X123622Y31710D01*
X126022Y32565D02*
X126172D01*
X126471Y32715D01*
X126621Y32865D01*
X126771Y33165D01*
Y33764D01*
X126621Y34064D01*
X126471Y34214D01*
X126172Y34364D01*
X125872D01*
X125572Y34214D01*
X125122Y33914D01*
X123622Y32415D01*
Y34514D01*
X126771Y37018D02*
Y35519D01*
X125422Y35369D01*
X125572Y35519D01*
X125722Y35969D01*
Y36419D01*
X125572Y36868D01*
X125272Y37168D01*
X124822Y37318D01*
X124522D01*
X124072Y37168D01*
X123772Y36868D01*
X123622Y36419D01*
Y35969D01*
X123772Y35519D01*
X123922Y35369D01*
X124222Y35219D01*
X79917Y81496D02*
Y78347D01*
Y81496D02*
X78567D01*
X78117Y81346D01*
X77967Y81196D01*
X77817Y80896D01*
Y80596D01*
X77967Y80296D01*
X78117Y80146D01*
X78567Y79996D01*
X79917D01*
X78867D02*
X77817Y78347D01*
X76963Y80746D02*
Y80896D01*
X76813Y81196D01*
X76663Y81346D01*
X76363Y81496D01*
X75763D01*
X75463Y81346D01*
X75313Y81196D01*
X75163Y80896D01*
Y80596D01*
X75313Y80296D01*
X75613Y79846D01*
X77113Y78347D01*
X75013D01*
X74009Y81496D02*
X72359D01*
X73259Y80296D01*
X72809D01*
X72509Y80146D01*
X72359Y79996D01*
X72209Y79546D01*
Y79246D01*
X72359Y78797D01*
X72659Y78497D01*
X73109Y78347D01*
X73559D01*
X74009Y78497D01*
X74159Y78647D01*
X74309Y78947D01*
X97358Y63582D02*
Y60433D01*
Y63582D02*
X96008D01*
X95558Y63432D01*
X95408Y63282D01*
X95258Y62982D01*
Y62683D01*
X95408Y62383D01*
X95558Y62233D01*
X96008Y62083D01*
X97358D01*
X96308D02*
X95258Y60433D01*
X94404Y62833D02*
Y62982D01*
X94254Y63282D01*
X94104Y63432D01*
X93804Y63582D01*
X93204D01*
X92904Y63432D01*
X92754Y63282D01*
X92604Y62982D01*
Y62683D01*
X92754Y62383D01*
X93054Y61933D01*
X94554Y60433D01*
X92454D01*
X91600Y62833D02*
Y62982D01*
X91450Y63282D01*
X91300Y63432D01*
X91000Y63582D01*
X90400D01*
X90100Y63432D01*
X89950Y63282D01*
X89800Y62982D01*
Y62683D01*
X89950Y62383D01*
X90250Y61933D01*
X91750Y60433D01*
X89650D01*
X1575Y321624D02*
X-1575D01*
X1575D02*
Y322974D01*
X1424Y323424D01*
X1275Y323574D01*
X975Y323724D01*
X675D01*
X375Y323574D01*
X225Y323424D01*
X75Y322974D01*
Y321624D01*
Y322674D02*
X-1575Y323724D01*
X825Y324578D02*
X975D01*
X1275Y324728D01*
X1424Y324878D01*
X1575Y325178D01*
Y325778D01*
X1424Y326078D01*
X1275Y326228D01*
X975Y326378D01*
X675D01*
X375Y326228D01*
X-75Y325928D01*
X-1575Y324428D01*
Y326528D01*
X975Y327232D02*
X1125Y327532D01*
X1575Y327982D01*
X-1575D01*
X1575Y274815D02*
X-1575D01*
X1575D02*
Y276165D01*
X1424Y276615D01*
X1275Y276764D01*
X975Y276914D01*
X675D01*
X375Y276764D01*
X225Y276615D01*
X75Y276165D01*
Y274815D01*
Y275865D02*
X-1575Y276914D01*
X975Y277619D02*
X1125Y277919D01*
X1575Y278369D01*
X-1575D01*
X525Y281878D02*
X75Y281728D01*
X-225Y281428D01*
X-375Y280978D01*
Y280828D01*
X-225Y280378D01*
X75Y280078D01*
X525Y279928D01*
X675D01*
X1125Y280078D01*
X1424Y280378D01*
X1575Y280828D01*
Y280978D01*
X1424Y281428D01*
X1125Y281728D01*
X525Y281878D01*
X-225D01*
X-975Y281728D01*
X-1424Y281428D01*
X-1575Y280978D01*
Y280678D01*
X-1424Y280228D01*
X-1125Y280078D01*
X107086Y5350D02*
X103937D01*
X107086D02*
Y6699D01*
X106936Y7149D01*
X106786Y7299D01*
X106486Y7449D01*
X106187D01*
X105887Y7299D01*
X105737Y7149D01*
X105587Y6699D01*
Y5350D01*
Y6399D02*
X103937Y7449D01*
X106486Y8154D02*
X106636Y8454D01*
X107086Y8904D01*
X103937D01*
X107086Y12562D02*
X103937Y11063D01*
X107086Y10463D02*
Y12562D01*
X155315Y307991D02*
X152166D01*
X155315D02*
Y309341D01*
X155165Y309791D01*
X155015Y309941D01*
X154715Y310091D01*
X154415D01*
X154115Y309941D01*
X153965Y309791D01*
X153815Y309341D01*
Y307991D01*
Y309041D02*
X152166Y310091D01*
X154715Y310795D02*
X154865Y311095D01*
X155315Y311545D01*
X152166D01*
X154865Y314904D02*
X155165Y314754D01*
X155315Y314304D01*
Y314004D01*
X155165Y313554D01*
X154715Y313254D01*
X153965Y313105D01*
X153215D01*
X152615Y313254D01*
X152316Y313554D01*
X152166Y314004D01*
Y314154D01*
X152316Y314604D01*
X152615Y314904D01*
X153065Y315054D01*
X153215D01*
X153665Y314904D01*
X153965Y314604D01*
X154115Y314154D01*
Y314004D01*
X153965Y313554D01*
X153665Y313254D01*
X153215Y313105D01*
X172637Y307991D02*
X169489D01*
X172637D02*
Y309341D01*
X172487Y309791D01*
X172338Y309941D01*
X172038Y310091D01*
X171738D01*
X171438Y309941D01*
X171288Y309791D01*
X171138Y309341D01*
Y307991D01*
Y309041D02*
X169489Y310091D01*
X172038Y310795D02*
X172188Y311095D01*
X172637Y311545D01*
X169489D01*
X172637Y314904D02*
Y313404D01*
X171288Y313254D01*
X171438Y313404D01*
X171588Y313854D01*
Y314304D01*
X171438Y314754D01*
X171138Y315054D01*
X170688Y315204D01*
X170388D01*
X169938Y315054D01*
X169639Y314754D01*
X169489Y314304D01*
Y313854D01*
X169639Y313404D01*
X169788Y313254D01*
X170088Y313105D01*
X80118Y280866D02*
X76969D01*
X80118D02*
Y282215D01*
X79968Y282665D01*
X79818Y282815D01*
X79518Y282965D01*
X79218D01*
X78918Y282815D01*
X78768Y282665D01*
X78618Y282215D01*
Y280866D01*
Y281916D02*
X76969Y282965D01*
X79518Y283670D02*
X79668Y283970D01*
X80118Y284420D01*
X76969D01*
X80118Y287479D02*
X78018Y285979D01*
Y288229D01*
X80118Y287479D02*
X76969D01*
X21521Y275295D02*
Y272146D01*
Y275295D02*
X20171D01*
X19721Y275145D01*
X19571Y274995D01*
X19421Y274695D01*
Y274395D01*
X19571Y274095D01*
X19721Y273945D01*
X20171Y273795D01*
X21521D01*
X20471D02*
X19421Y272146D01*
X18717Y274695D02*
X18417Y274845D01*
X17967Y275295D01*
Y272146D01*
X16107Y275295D02*
X14458D01*
X15358Y274095D01*
X14908D01*
X14608Y273945D01*
X14458Y273795D01*
X14308Y273346D01*
Y273046D01*
X14458Y272596D01*
X14758Y272296D01*
X15208Y272146D01*
X15658D01*
X16107Y272296D01*
X16257Y272446D01*
X16407Y272746D01*
X171470Y293504D02*
Y290355D01*
Y293504D02*
X170121D01*
X169671Y293354D01*
X169521Y293204D01*
X169371Y292904D01*
Y292604D01*
X169521Y292304D01*
X169671Y292154D01*
X170121Y292004D01*
X171470D01*
X170420D02*
X169371Y290355D01*
X168666Y292904D02*
X168366Y293054D01*
X167916Y293504D01*
Y290355D01*
X166207Y292754D02*
Y292904D01*
X166057Y293204D01*
X165907Y293354D01*
X165607Y293504D01*
X165007D01*
X164707Y293354D01*
X164557Y293204D01*
X164407Y292904D01*
Y292604D01*
X164557Y292304D01*
X164857Y291854D01*
X166357Y290355D01*
X164258D01*
X112992Y5350D02*
X109843D01*
X112992D02*
Y6699D01*
X112842Y7149D01*
X112692Y7299D01*
X112392Y7449D01*
X112092D01*
X111792Y7299D01*
X111642Y7149D01*
X111492Y6699D01*
Y5350D01*
Y6399D02*
X109843Y7449D01*
X112392Y8154D02*
X112542Y8454D01*
X112992Y8903D01*
X109843D01*
X112392Y10463D02*
X112542Y10763D01*
X112992Y11213D01*
X109843D01*
X74901Y280941D02*
X71752D01*
X74901D02*
Y282291D01*
X74751Y282740D01*
X74601Y282890D01*
X74301Y283040D01*
X74001D01*
X73702Y282890D01*
X73552Y282740D01*
X73402Y282291D01*
Y280941D01*
Y281991D02*
X71752Y283040D01*
X74301Y283745D02*
X74451Y284045D01*
X74901Y284495D01*
X71752D01*
X74901Y286954D02*
X74751Y286504D01*
X74301Y286204D01*
X73552Y286054D01*
X73102D01*
X72352Y286204D01*
X71902Y286504D01*
X71752Y286954D01*
Y287254D01*
X71902Y287704D01*
X72352Y288004D01*
X73102Y288154D01*
X73552D01*
X74301Y288004D01*
X74751Y287704D01*
X74901Y287254D01*
Y286954D01*
X161220Y307991D02*
X158071D01*
X161220D02*
Y309341D01*
X161070Y309791D01*
X160920Y309941D01*
X160620Y310091D01*
X160320D01*
X160020Y309941D01*
X159871Y309791D01*
X159721Y309341D01*
Y307991D01*
Y309041D02*
X158071Y310091D01*
X160170Y312745D02*
X159721Y312595D01*
X159421Y312295D01*
X159271Y311845D01*
Y311695D01*
X159421Y311245D01*
X159721Y310945D01*
X160170Y310795D01*
X160320D01*
X160770Y310945D01*
X161070Y311245D01*
X161220Y311695D01*
Y311845D01*
X161070Y312295D01*
X160770Y312595D01*
X160170Y312745D01*
X159421D01*
X158671Y312595D01*
X158221Y312295D01*
X158071Y311845D01*
Y311545D01*
X158221Y311095D01*
X158521Y310945D01*
X17027Y278454D02*
X13878D01*
X17027D02*
Y279804D01*
X16877Y280254D01*
X16727Y280404D01*
X16427Y280554D01*
X16127D01*
X15828Y280404D01*
X15678Y280254D01*
X15528Y279804D01*
Y278454D01*
Y279504D02*
X13878Y280554D01*
X17027Y282008D02*
X16877Y281558D01*
X16577Y281409D01*
X16277D01*
X15978Y281558D01*
X15828Y281858D01*
X15678Y282458D01*
X15528Y282908D01*
X15228Y283208D01*
X14928Y283358D01*
X14478D01*
X14178Y283208D01*
X14028Y283058D01*
X13878Y282608D01*
Y282008D01*
X14028Y281558D01*
X14178Y281409D01*
X14478Y281259D01*
X14928D01*
X15228Y281409D01*
X15528Y281708D01*
X15678Y282158D01*
X15828Y282758D01*
X15978Y283058D01*
X16277Y283208D01*
X16577D01*
X16877Y283058D01*
X17027Y282608D01*
Y282008D01*
X108858Y285236D02*
Y282087D01*
Y285236D02*
X107508D01*
X107059Y285086D01*
X106909Y284936D01*
X106759Y284636D01*
Y284336D01*
X106909Y284036D01*
X107059Y283886D01*
X107508Y283736D01*
X108858D01*
X107808D02*
X106759Y282087D01*
X103955Y285236D02*
X105454Y282087D01*
X106054Y285236D02*
X103955D01*
X47357Y267322D02*
Y264174D01*
Y267322D02*
X46007D01*
X45558Y267173D01*
X45408Y267023D01*
X45258Y266723D01*
Y266423D01*
X45408Y266123D01*
X45558Y265973D01*
X46007Y265823D01*
X47357D01*
X46307D02*
X45258Y264174D01*
X42754Y266873D02*
X42904Y267173D01*
X43353Y267322D01*
X43653D01*
X44103Y267173D01*
X44403Y266723D01*
X44553Y265973D01*
Y265223D01*
X44403Y264623D01*
X44103Y264323D01*
X43653Y264174D01*
X43503D01*
X43053Y264323D01*
X42754Y264623D01*
X42604Y265073D01*
Y265223D01*
X42754Y265673D01*
X43053Y265973D01*
X43503Y266123D01*
X43653D01*
X44103Y265973D01*
X44403Y265673D01*
X44553Y265223D01*
X108858Y291141D02*
Y287993D01*
Y291141D02*
X107508D01*
X107059Y290991D01*
X106909Y290842D01*
X106759Y290542D01*
Y290242D01*
X106909Y289942D01*
X107059Y289792D01*
X107508Y289642D01*
X108858D01*
X107808D02*
X106759Y287993D01*
X104254Y291141D02*
X105754D01*
X105904Y289792D01*
X105754Y289942D01*
X105304Y290092D01*
X104854D01*
X104404Y289942D01*
X104104Y289642D01*
X103955Y289192D01*
Y288892D01*
X104104Y288442D01*
X104404Y288142D01*
X104854Y287993D01*
X105304D01*
X105754Y288142D01*
X105904Y288292D01*
X106054Y288592D01*
X22637Y297056D02*
X19489D01*
X22637D02*
Y298406D01*
X22488Y298856D01*
X22338Y299006D01*
X22038Y299155D01*
X21738D01*
X21438Y299006D01*
X21288Y298856D01*
X21138Y298406D01*
Y297056D01*
Y298106D02*
X19489Y299155D01*
X22637Y300160D02*
Y301810D01*
X21438Y300910D01*
Y301360D01*
X21288Y301660D01*
X21138Y301810D01*
X20688Y301959D01*
X20388D01*
X19938Y301810D01*
X19638Y301510D01*
X19489Y301060D01*
Y300610D01*
X19638Y300160D01*
X19788Y300010D01*
X20088Y299860D01*
X108858Y297047D02*
Y293898D01*
Y297047D02*
X107508D01*
X107059Y296897D01*
X106909Y296747D01*
X106759Y296447D01*
Y296147D01*
X106909Y295847D01*
X107059Y295697D01*
X107508Y295547D01*
X108858D01*
X107808D02*
X106759Y293898D01*
X105904Y296297D02*
Y296447D01*
X105754Y296747D01*
X105604Y296897D01*
X105304Y297047D01*
X104704D01*
X104404Y296897D01*
X104254Y296747D01*
X104104Y296447D01*
Y296147D01*
X104254Y295847D01*
X104554Y295397D01*
X106054Y293898D01*
X103955D01*
X17224Y297075D02*
X14075D01*
X17224D02*
Y298425D01*
X17074Y298874D01*
X16924Y299024D01*
X16624Y299174D01*
X16324D01*
X16025Y299024D01*
X15875Y298874D01*
X15725Y298425D01*
Y297075D01*
Y298125D02*
X14075Y299174D01*
X16624Y299879D02*
X16774Y300179D01*
X17224Y300629D01*
X14075D01*
X109371Y239126D02*
X109670Y238976D01*
X109970Y238676D01*
X110120Y238376D01*
X110270Y237926D01*
Y237177D01*
X110120Y236727D01*
X109970Y236427D01*
X109670Y236127D01*
X109371Y235977D01*
X108771D01*
X108471Y236127D01*
X108171Y236427D01*
X108021Y236727D01*
X107871Y237177D01*
Y237926D01*
X108021Y238376D01*
X108171Y238676D01*
X108471Y238976D01*
X108771Y239126D01*
X109371D01*
X108921Y236577D02*
X108021Y235677D01*
X105637Y239126D02*
X107136Y237027D01*
X104887D01*
X105637Y239126D02*
Y235977D01*
X117268Y220031D02*
X117567Y219882D01*
X117867Y219582D01*
X118017Y219282D01*
X118167Y218832D01*
Y218082D01*
X118017Y217632D01*
X117867Y217332D01*
X117567Y217033D01*
X117268Y216883D01*
X116668D01*
X116368Y217033D01*
X116068Y217332D01*
X115918Y217632D01*
X115768Y218082D01*
Y218832D01*
X115918Y219282D01*
X116068Y219582D01*
X116368Y219882D01*
X116668Y220031D01*
X117268D01*
X116818Y217482D02*
X115918Y216583D01*
X114883Y219282D02*
Y219432D01*
X114733Y219732D01*
X114583Y219882D01*
X114284Y220031D01*
X113684D01*
X113384Y219882D01*
X113234Y219732D01*
X113084Y219432D01*
Y219132D01*
X113234Y218832D01*
X113534Y218382D01*
X115033Y216883D01*
X112934D01*
X178870Y21107D02*
X175721D01*
Y22906D01*
X178120Y23401D02*
X178270D01*
X178570Y23551D01*
X178720Y23701D01*
X178870Y24001D01*
Y24600D01*
X178720Y24900D01*
X178570Y25050D01*
X178270Y25200D01*
X177970D01*
X177670Y25050D01*
X177220Y24750D01*
X175721Y23251D01*
Y25350D01*
X145542Y61811D02*
Y58662D01*
X143742D01*
X143397Y61211D02*
X143097Y61361D01*
X142648Y61811D01*
Y58662D01*
X84924Y162346D02*
Y159197D01*
Y162346D02*
X83874D01*
X83425Y162196D01*
X83125Y161896D01*
X82975Y161596D01*
X82825Y161146D01*
Y160397D01*
X82975Y159947D01*
X83125Y159647D01*
X83425Y159347D01*
X83874Y159197D01*
X84924D01*
X82120Y161746D02*
X81820Y161896D01*
X81370Y162346D01*
Y159197D01*
X79511Y162346D02*
X77861D01*
X78761Y161146D01*
X78311D01*
X78012Y160997D01*
X77861Y160847D01*
X77712Y160397D01*
Y160097D01*
X77861Y159647D01*
X78161Y159347D01*
X78611Y159197D01*
X79061D01*
X79511Y159347D01*
X79661Y159497D01*
X79811Y159797D01*
X51951Y311417D02*
Y308268D01*
Y311417D02*
X50901D01*
X50452Y311267D01*
X50152Y310967D01*
X50002Y310667D01*
X49852Y310217D01*
Y309468D01*
X50002Y309018D01*
X50152Y308718D01*
X50452Y308418D01*
X50901Y308268D01*
X51951D01*
X49147Y310817D02*
X48847Y310967D01*
X48397Y311417D01*
Y308268D01*
X46688Y310667D02*
Y310817D01*
X46538Y311117D01*
X46388Y311267D01*
X46088Y311417D01*
X45488D01*
X45188Y311267D01*
X45038Y311117D01*
X44888Y310817D01*
Y310517D01*
X45038Y310217D01*
X45338Y309768D01*
X46838Y308268D01*
X44739D01*
X114108Y317913D02*
Y314764D01*
Y317913D02*
X113059D01*
X112609Y317763D01*
X112309Y317463D01*
X112159Y317163D01*
X112009Y316714D01*
Y315964D01*
X112159Y315514D01*
X112309Y315214D01*
X112609Y314914D01*
X113059Y314764D01*
X114108D01*
X111304Y317313D02*
X111004Y317463D01*
X110555Y317913D01*
Y314764D01*
X108995Y317313D02*
X108695Y317463D01*
X108245Y317913D01*
Y314764D01*
X130709Y256707D02*
X133858D01*
X130709D02*
Y255658D01*
X130859Y255208D01*
X131159Y254908D01*
X131459Y254758D01*
X131909Y254608D01*
X132658D01*
X133108Y254758D01*
X133408Y254908D01*
X133708Y255208D01*
X133858Y255658D01*
Y256707D01*
X131759Y251954D02*
X132209Y252104D01*
X132508Y252404D01*
X132658Y252854D01*
Y253004D01*
X132508Y253453D01*
X132209Y253753D01*
X131759Y253903D01*
X131609D01*
X131159Y253753D01*
X130859Y253453D01*
X130709Y253004D01*
Y252854D01*
X130859Y252404D01*
X131159Y252104D01*
X131759Y251954D01*
X132508D01*
X133258Y252104D01*
X133708Y252404D01*
X133858Y252854D01*
Y253154D01*
X133708Y253604D01*
X133408Y253753D01*
X105822Y220078D02*
Y216930D01*
Y220078D02*
X104772D01*
X104323Y219929D01*
X104023Y219629D01*
X103873Y219329D01*
X103723Y218879D01*
Y218129D01*
X103873Y217679D01*
X104023Y217379D01*
X104323Y217079D01*
X104772Y216930D01*
X105822D01*
X100919Y220078D02*
X102418Y216930D01*
X103018Y220078D02*
X100919D01*
X171949Y45383D02*
X168800D01*
X171949D02*
Y46433D01*
X171799Y46883D01*
X171499Y47182D01*
X171199Y47332D01*
X170749Y47482D01*
X169999D01*
X169549Y47332D01*
X169249Y47182D01*
X168949Y46883D01*
X168800Y46433D01*
Y45383D01*
X171199Y48337D02*
X171349D01*
X171649Y48487D01*
X171799Y48637D01*
X171949Y48937D01*
Y49537D01*
X171799Y49837D01*
X171649Y49986D01*
X171349Y50136D01*
X171049D01*
X170749Y49986D01*
X170299Y49687D01*
X168800Y48187D01*
Y50286D01*
X38915Y153250D02*
X39215Y153100D01*
X39515Y152800D01*
X39665Y152500D01*
Y151901D01*
X39515Y151601D01*
X39215Y151301D01*
X38915Y151151D01*
X38465Y151001D01*
X37716D01*
X37266Y151151D01*
X36966Y151301D01*
X36666Y151601D01*
X36516Y151901D01*
Y152500D01*
X36666Y152800D01*
X36966Y153100D01*
X37266Y153250D01*
X39665Y154435D02*
Y156084D01*
X38465Y155185D01*
Y155634D01*
X38315Y155934D01*
X38166Y156084D01*
X37716Y156234D01*
X37416D01*
X36966Y156084D01*
X36666Y155784D01*
X36516Y155335D01*
Y154885D01*
X36666Y154435D01*
X36816Y154285D01*
X37116Y154135D01*
X39665Y159038D02*
X36516Y157539D01*
X39665Y156939D02*
Y159038D01*
X112965Y171937D02*
X113115Y172237D01*
X113415Y172537D01*
X113715Y172687D01*
X114315D01*
X114615Y172537D01*
X114915Y172237D01*
X115065Y171937D01*
X115214Y171487D01*
Y170738D01*
X115065Y170288D01*
X114915Y169988D01*
X114615Y169688D01*
X114315Y169538D01*
X113715D01*
X113415Y169688D01*
X113115Y169988D01*
X112965Y170288D01*
X111781Y172687D02*
X110131D01*
X111031Y171487D01*
X110581D01*
X110281Y171337D01*
X110131Y171188D01*
X109981Y170738D01*
Y170438D01*
X110131Y169988D01*
X110431Y169688D01*
X110881Y169538D01*
X111331D01*
X111781Y169688D01*
X111931Y169838D01*
X112081Y170138D01*
X107477Y172237D02*
X107627Y172537D01*
X108077Y172687D01*
X108377D01*
X108827Y172537D01*
X109126Y172087D01*
X109276Y171337D01*
Y170588D01*
X109126Y169988D01*
X108827Y169688D01*
X108377Y169538D01*
X108227D01*
X107777Y169688D01*
X107477Y169988D01*
X107327Y170438D01*
Y170588D01*
X107477Y171038D01*
X107777Y171337D01*
X108227Y171487D01*
X108377D01*
X108827Y171337D01*
X109126Y171038D01*
X109276Y170588D01*
X63817Y80193D02*
X64117Y80043D01*
X64417Y79743D01*
X64567Y79443D01*
Y78843D01*
X64417Y78543D01*
X64117Y78243D01*
X63817Y78093D01*
X63367Y77943D01*
X62617D01*
X62167Y78093D01*
X61867Y78243D01*
X61568Y78543D01*
X61418Y78843D01*
Y79443D01*
X61568Y79743D01*
X61867Y80043D01*
X62167Y80193D01*
X64567Y81377D02*
Y83027D01*
X63367Y82127D01*
Y82577D01*
X63217Y82877D01*
X63067Y83027D01*
X62617Y83177D01*
X62317D01*
X61867Y83027D01*
X61568Y82727D01*
X61418Y82277D01*
Y81827D01*
X61568Y81377D01*
X61718Y81227D01*
X62018Y81077D01*
X64567Y85381D02*
X62467Y83881D01*
Y86131D01*
X64567Y85381D02*
X61418D01*
X49702Y328876D02*
X49852Y329176D01*
X50152Y329476D01*
X50452Y329626D01*
X51051D01*
X51351Y329476D01*
X51651Y329176D01*
X51801Y328876D01*
X51951Y328426D01*
Y327676D01*
X51801Y327226D01*
X51651Y326927D01*
X51351Y326627D01*
X51051Y326477D01*
X50452D01*
X50152Y326627D01*
X49852Y326927D01*
X49702Y327226D01*
X48517Y329626D02*
X46868D01*
X47767Y328426D01*
X47318D01*
X47018Y328276D01*
X46868Y328126D01*
X46718Y327676D01*
Y327376D01*
X46868Y326927D01*
X47168Y326627D01*
X47618Y326477D01*
X48067D01*
X48517Y326627D01*
X48667Y326777D01*
X48817Y327077D01*
X45713Y329626D02*
X44064D01*
X44963Y328426D01*
X44514D01*
X44214Y328276D01*
X44064Y328126D01*
X43914Y327676D01*
Y327376D01*
X44064Y326927D01*
X44364Y326627D01*
X44813Y326477D01*
X45263D01*
X45713Y326627D01*
X45863Y326777D01*
X46013Y327077D01*
X119746Y254458D02*
X119446Y254608D01*
X119146Y254908D01*
X118996Y255208D01*
Y255808D01*
X119146Y256108D01*
X119446Y256407D01*
X119746Y256557D01*
X120196Y256707D01*
X120946D01*
X121396Y256557D01*
X121695Y256407D01*
X121995Y256108D01*
X122145Y255808D01*
Y255208D01*
X121995Y254908D01*
X121695Y254608D01*
X121396Y254458D01*
X118996Y253274D02*
Y251624D01*
X120196Y252524D01*
Y252074D01*
X120346Y251774D01*
X120496Y251624D01*
X120946Y251474D01*
X121246D01*
X121695Y251624D01*
X121995Y251924D01*
X122145Y252374D01*
Y252824D01*
X121995Y253274D01*
X121845Y253424D01*
X121546Y253573D01*
X119746Y250620D02*
X119596D01*
X119296Y250469D01*
X119146Y250320D01*
X118996Y250020D01*
Y249420D01*
X119146Y249120D01*
X119296Y248970D01*
X119596Y248820D01*
X119896D01*
X120196Y248970D01*
X120646Y249270D01*
X122145Y250769D01*
Y248670D01*
X158280Y339407D02*
X158430Y339707D01*
X158730Y340007D01*
X159029Y340157D01*
X159629D01*
X159929Y340007D01*
X160229Y339707D01*
X160379Y339407D01*
X160529Y338958D01*
Y338208D01*
X160379Y337758D01*
X160229Y337458D01*
X159929Y337158D01*
X159629Y337008D01*
X159029D01*
X158730Y337158D01*
X158430Y337458D01*
X158280Y337758D01*
X157095Y340157D02*
X155446D01*
X156345Y338958D01*
X155895D01*
X155596Y338808D01*
X155446Y338658D01*
X155296Y338208D01*
Y337908D01*
X155446Y337458D01*
X155745Y337158D01*
X156195Y337008D01*
X156645D01*
X157095Y337158D01*
X157245Y337308D01*
X157395Y337608D01*
X154591Y339557D02*
X154291Y339707D01*
X153841Y340157D01*
Y337008D01*
X115918Y225136D02*
X116068Y225436D01*
X116368Y225736D01*
X116668Y225886D01*
X117268D01*
X117567Y225736D01*
X117867Y225436D01*
X118017Y225136D01*
X118167Y224686D01*
Y223936D01*
X118017Y223486D01*
X117867Y223186D01*
X117567Y222886D01*
X117268Y222737D01*
X116668D01*
X116368Y222886D01*
X116068Y223186D01*
X115918Y223486D01*
X114733Y225886D02*
X113084D01*
X113984Y224686D01*
X113534D01*
X113234Y224536D01*
X113084Y224386D01*
X112934Y223936D01*
Y223636D01*
X113084Y223186D01*
X113384Y222886D01*
X113834Y222737D01*
X114284D01*
X114733Y222886D01*
X114883Y223037D01*
X115033Y223336D01*
X111329Y225886D02*
X111779Y225736D01*
X112079Y225286D01*
X112229Y224536D01*
Y224086D01*
X112079Y223336D01*
X111779Y222886D01*
X111329Y222737D01*
X111030D01*
X110580Y222886D01*
X110280Y223336D01*
X110130Y224086D01*
Y224536D01*
X110280Y225286D01*
X110580Y225736D01*
X111030Y225886D01*
X111329D01*
X82675Y147478D02*
X82825Y147778D01*
X83125Y148078D01*
X83425Y148228D01*
X84025D01*
X84324Y148078D01*
X84624Y147778D01*
X84774Y147478D01*
X84924Y147028D01*
Y146279D01*
X84774Y145829D01*
X84624Y145529D01*
X84324Y145229D01*
X84025Y145079D01*
X83425D01*
X83125Y145229D01*
X82825Y145529D01*
X82675Y145829D01*
X81640Y147478D02*
Y147628D01*
X81490Y147928D01*
X81340Y148078D01*
X81041Y148228D01*
X80441D01*
X80141Y148078D01*
X79991Y147928D01*
X79841Y147628D01*
Y147328D01*
X79991Y147028D01*
X80291Y146579D01*
X81790Y145079D01*
X79691D01*
X78236Y148228D02*
X78686Y148078D01*
X78836Y147778D01*
Y147478D01*
X78686Y147178D01*
X78386Y147028D01*
X77787Y146879D01*
X77337Y146729D01*
X77037Y146429D01*
X76887Y146129D01*
Y145679D01*
X77037Y145379D01*
X77187Y145229D01*
X77637Y145079D01*
X78236D01*
X78686Y145229D01*
X78836Y145379D01*
X78986Y145679D01*
Y146129D01*
X78836Y146429D01*
X78536Y146729D01*
X78087Y146879D01*
X77487Y147028D01*
X77187Y147178D01*
X77037Y147478D01*
Y147778D01*
X77187Y148078D01*
X77637Y148228D01*
X78236D01*
X126022Y19490D02*
X126321Y19341D01*
X126621Y19041D01*
X126771Y18741D01*
Y18141D01*
X126621Y17841D01*
X126321Y17541D01*
X126022Y17391D01*
X125572Y17241D01*
X124822D01*
X124372Y17391D01*
X124072Y17541D01*
X123772Y17841D01*
X123622Y18141D01*
Y18741D01*
X123772Y19041D01*
X124072Y19341D01*
X124372Y19490D01*
X126022Y20525D02*
X126172D01*
X126471Y20675D01*
X126621Y20825D01*
X126771Y21125D01*
Y21725D01*
X126621Y22025D01*
X126471Y22174D01*
X126172Y22324D01*
X125872D01*
X125572Y22174D01*
X125122Y21875D01*
X123622Y20375D01*
Y22474D01*
X126771Y25278D02*
X123622Y23779D01*
X126771Y23179D02*
Y25278D01*
X173817Y36258D02*
X173967Y36558D01*
X174267Y36858D01*
X174566Y37007D01*
X175166D01*
X175466Y36858D01*
X175766Y36558D01*
X175916Y36258D01*
X176066Y35808D01*
Y35058D01*
X175916Y34608D01*
X175766Y34308D01*
X175466Y34009D01*
X175166Y33859D01*
X174566D01*
X174267Y34009D01*
X173967Y34308D01*
X173817Y34608D01*
X172782Y36258D02*
Y36408D01*
X172632Y36708D01*
X172482Y36858D01*
X172182Y37007D01*
X171582D01*
X171282Y36858D01*
X171133Y36708D01*
X170983Y36408D01*
Y36108D01*
X171133Y35808D01*
X171432Y35358D01*
X172932Y33859D01*
X170833D01*
X168328Y37007D02*
X169828D01*
X169978Y35658D01*
X169828Y35808D01*
X169378Y35958D01*
X168928D01*
X168479Y35808D01*
X168179Y35508D01*
X168029Y35058D01*
Y34758D01*
X168179Y34308D01*
X168479Y34009D01*
X168928Y33859D01*
X169378D01*
X169828Y34009D01*
X169978Y34159D01*
X170128Y34458D01*
X165982Y310241D02*
X166282Y310091D01*
X166582Y309791D01*
X166732Y309491D01*
Y308891D01*
X166582Y308591D01*
X166282Y308291D01*
X165982Y308141D01*
X165532Y307991D01*
X164783D01*
X164333Y308141D01*
X164033Y308291D01*
X163733Y308591D01*
X163583Y308891D01*
Y309491D01*
X163733Y309791D01*
X164033Y310091D01*
X164333Y310241D01*
X165982Y311275D02*
X166132D01*
X166432Y311425D01*
X166582Y311575D01*
X166732Y311875D01*
Y312475D01*
X166582Y312775D01*
X166432Y312925D01*
X166132Y313075D01*
X165832D01*
X165532Y312925D01*
X165083Y312625D01*
X163583Y311125D01*
Y313225D01*
X166732Y315429D02*
X164633Y313929D01*
Y316178D01*
X166732Y315429D02*
X163583D01*
X21691Y280704D02*
X21991Y280554D01*
X22291Y280254D01*
X22441Y279954D01*
Y279354D01*
X22291Y279054D01*
X21991Y278754D01*
X21691Y278604D01*
X21241Y278454D01*
X20491D01*
X20041Y278604D01*
X19741Y278754D01*
X19442Y279054D01*
X19292Y279354D01*
Y279954D01*
X19442Y280254D01*
X19741Y280554D01*
X20041Y280704D01*
X21691Y281738D02*
X21841D01*
X22141Y281888D01*
X22291Y282038D01*
X22441Y282338D01*
Y282938D01*
X22291Y283238D01*
X22141Y283388D01*
X21841Y283538D01*
X21541D01*
X21241Y283388D01*
X20791Y283088D01*
X19292Y281588D01*
Y283688D01*
X22441Y284692D02*
Y286342D01*
X21241Y285442D01*
Y285892D01*
X21091Y286192D01*
X20941Y286342D01*
X20491Y286492D01*
X20191D01*
X19741Y286342D01*
X19442Y286042D01*
X19292Y285592D01*
Y285142D01*
X19442Y284692D01*
X19592Y284542D01*
X19892Y284392D01*
X118148Y7599D02*
X118447Y7449D01*
X118747Y7149D01*
X118897Y6849D01*
Y6250D01*
X118747Y5949D01*
X118447Y5650D01*
X118148Y5500D01*
X117698Y5350D01*
X116948D01*
X116498Y5500D01*
X116198Y5650D01*
X115898Y5949D01*
X115748Y6250D01*
Y6849D01*
X115898Y7149D01*
X116198Y7449D01*
X116498Y7599D01*
X118148Y8634D02*
X118298D01*
X118597Y8784D01*
X118747Y8934D01*
X118897Y9233D01*
Y9833D01*
X118747Y10133D01*
X118597Y10283D01*
X118298Y10433D01*
X117998D01*
X117698Y10283D01*
X117248Y9983D01*
X115748Y8484D01*
Y10583D01*
X118148Y11438D02*
X118298D01*
X118597Y11588D01*
X118747Y11738D01*
X118897Y12037D01*
Y12637D01*
X118747Y12937D01*
X118597Y13087D01*
X118298Y13237D01*
X117998D01*
X117698Y13087D01*
X117248Y12787D01*
X115748Y11288D01*
Y13387D01*
X126022Y44181D02*
X126321Y44031D01*
X126621Y43731D01*
X126771Y43431D01*
Y42831D01*
X126621Y42531D01*
X126321Y42232D01*
X126022Y42082D01*
X125572Y41932D01*
X124822D01*
X124372Y42082D01*
X124072Y42232D01*
X123772Y42531D01*
X123622Y42831D01*
Y43431D01*
X123772Y43731D01*
X124072Y44031D01*
X124372Y44181D01*
X126022Y45216D02*
X126172D01*
X126471Y45366D01*
X126621Y45515D01*
X126771Y45815D01*
Y46415D01*
X126621Y46715D01*
X126471Y46865D01*
X126172Y47015D01*
X125872D01*
X125572Y46865D01*
X125122Y46565D01*
X123622Y45066D01*
Y47165D01*
X126172Y47870D02*
X126321Y48170D01*
X126771Y48619D01*
X123622D01*
X100431Y7599D02*
X100731Y7449D01*
X101031Y7149D01*
X101181Y6849D01*
Y6250D01*
X101031Y5950D01*
X100731Y5650D01*
X100431Y5500D01*
X99981Y5350D01*
X99231D01*
X98782Y5500D01*
X98482Y5650D01*
X98182Y5950D01*
X98032Y6250D01*
Y6849D01*
X98182Y7149D01*
X98482Y7449D01*
X98782Y7599D01*
X100581Y8484D02*
X100731Y8784D01*
X101181Y9234D01*
X98032D01*
X101181Y11543D02*
X101031Y11093D01*
X100731Y10943D01*
X100431D01*
X100131Y11093D01*
X99981Y11393D01*
X99831Y11992D01*
X99681Y12442D01*
X99381Y12742D01*
X99081Y12892D01*
X98632D01*
X98332Y12742D01*
X98182Y12592D01*
X98032Y12143D01*
Y11543D01*
X98182Y11093D01*
X98332Y10943D01*
X98632Y10793D01*
X99081D01*
X99381Y10943D01*
X99681Y11243D01*
X99831Y11693D01*
X99981Y12292D01*
X100131Y12592D01*
X100431Y12742D01*
X100731D01*
X101031Y12592D01*
X101181Y12143D01*
Y11543D01*
X108108Y273084D02*
X108408Y272934D01*
X108708Y272635D01*
X108858Y272335D01*
Y271735D01*
X108708Y271435D01*
X108408Y271135D01*
X108108Y270985D01*
X107658Y270835D01*
X106909D01*
X106459Y270985D01*
X106159Y271135D01*
X105859Y271435D01*
X105709Y271735D01*
Y272335D01*
X105859Y272635D01*
X106159Y272934D01*
X106459Y273084D01*
X108258Y273969D02*
X108408Y274269D01*
X108858Y274719D01*
X105709D01*
X108858Y278378D02*
X105709Y276878D01*
X108858Y276278D02*
Y278378D01*
X59396Y266573D02*
X59546Y266873D01*
X59846Y267173D01*
X60146Y267322D01*
X60746D01*
X61045Y267173D01*
X61345Y266873D01*
X61495Y266573D01*
X61645Y266123D01*
Y265373D01*
X61495Y264923D01*
X61345Y264623D01*
X61045Y264323D01*
X60746Y264174D01*
X60146D01*
X59846Y264323D01*
X59546Y264623D01*
X59396Y264923D01*
X58511Y266723D02*
X58211Y266873D01*
X57762Y267322D01*
Y264174D01*
X54403Y267322D02*
X55902D01*
X56052Y265973D01*
X55902Y266123D01*
X55452Y266273D01*
X55002D01*
X54553Y266123D01*
X54253Y265823D01*
X54103Y265373D01*
Y265073D01*
X54253Y264623D01*
X54553Y264323D01*
X55002Y264174D01*
X55452D01*
X55902Y264323D01*
X56052Y264474D01*
X56202Y264773D01*
X6148Y182321D02*
X6298Y182621D01*
X6598Y182921D01*
X6898Y183071D01*
X7497D01*
X7797Y182921D01*
X8097Y182621D01*
X8247Y182321D01*
X8397Y181871D01*
Y181121D01*
X8247Y180671D01*
X8097Y180371D01*
X7797Y180072D01*
X7497Y179922D01*
X6898D01*
X6598Y180072D01*
X6298Y180371D01*
X6148Y180671D01*
X5263Y182471D02*
X4963Y182621D01*
X4513Y183071D01*
Y179922D01*
X2654Y183071D02*
X1005D01*
X1904Y181871D01*
X1455D01*
X1155Y181721D01*
X1005Y181571D01*
X855Y181121D01*
Y180821D01*
X1005Y180371D01*
X1305Y180072D01*
X1754Y179922D01*
X2204D01*
X2654Y180072D01*
X2804Y180221D01*
X2954Y180521D01*
X77667Y87045D02*
X77817Y87345D01*
X78117Y87645D01*
X78417Y87795D01*
X79017D01*
X79317Y87645D01*
X79617Y87345D01*
X79767Y87045D01*
X79917Y86595D01*
Y85846D01*
X79767Y85396D01*
X79617Y85096D01*
X79317Y84796D01*
X79017Y84646D01*
X78417D01*
X78117Y84796D01*
X77817Y85096D01*
X77667Y85396D01*
X76783Y87195D02*
X76483Y87345D01*
X76033Y87795D01*
Y84646D01*
X74474Y87195D02*
X74174Y87345D01*
X73724Y87795D01*
Y84646D01*
X65436Y197281D02*
X65586Y197581D01*
X65886Y197881D01*
X66185Y198031D01*
X66785D01*
X67085Y197881D01*
X67385Y197581D01*
X67535Y197281D01*
X67685Y196832D01*
Y196082D01*
X67535Y195632D01*
X67385Y195332D01*
X67085Y195032D01*
X66785Y194882D01*
X66185D01*
X65886Y195032D01*
X65586Y195332D01*
X65436Y195632D01*
X64551Y197431D02*
X64251Y197581D01*
X63801Y198031D01*
Y194882D01*
X61342Y198031D02*
X61792Y197881D01*
X62092Y197431D01*
X62242Y196682D01*
Y196232D01*
X62092Y195482D01*
X61792Y195032D01*
X61342Y194882D01*
X61042D01*
X60592Y195032D01*
X60293Y195482D01*
X60142Y196232D01*
Y196682D01*
X60293Y197431D01*
X60592Y197881D01*
X61042Y198031D01*
X61342D01*
X49702Y340293D02*
X49852Y340593D01*
X50152Y340893D01*
X50452Y341043D01*
X51051D01*
X51351Y340893D01*
X51651Y340593D01*
X51801Y340293D01*
X51951Y339843D01*
Y339094D01*
X51801Y338644D01*
X51651Y338344D01*
X51351Y338044D01*
X51051Y337894D01*
X50452D01*
X50152Y338044D01*
X49852Y338344D01*
X49702Y338644D01*
X46868Y339993D02*
X47018Y339544D01*
X47318Y339244D01*
X47767Y339094D01*
X47918D01*
X48367Y339244D01*
X48667Y339544D01*
X48817Y339993D01*
Y340143D01*
X48667Y340593D01*
X48367Y340893D01*
X47918Y341043D01*
X47767D01*
X47318Y340893D01*
X47018Y340593D01*
X46868Y339993D01*
Y339244D01*
X47018Y338494D01*
X47318Y338044D01*
X47767Y337894D01*
X48067D01*
X48517Y338044D01*
X48667Y338344D01*
X150072Y139998D02*
X150222Y140298D01*
X150522Y140598D01*
X150822Y140748D01*
X151422D01*
X151722Y140598D01*
X152021Y140298D01*
X152171Y139998D01*
X152321Y139548D01*
Y138798D01*
X152171Y138348D01*
X152021Y138049D01*
X151722Y137749D01*
X151422Y137599D01*
X150822D01*
X150522Y137749D01*
X150222Y138049D01*
X150072Y138348D01*
X148438Y140748D02*
X148888Y140598D01*
X149037Y140298D01*
Y139998D01*
X148888Y139698D01*
X148588Y139548D01*
X147988Y139398D01*
X147538Y139248D01*
X147238Y138948D01*
X147088Y138648D01*
Y138199D01*
X147238Y137899D01*
X147388Y137749D01*
X147838Y137599D01*
X148438D01*
X148888Y137749D01*
X149037Y137899D01*
X149187Y138199D01*
Y138648D01*
X149037Y138948D01*
X148738Y139248D01*
X148288Y139398D01*
X147688Y139548D01*
X147388Y139698D01*
X147238Y139998D01*
Y140298D01*
X147388Y140598D01*
X147838Y140748D01*
X148438D01*
X14147Y148364D02*
X14297Y148664D01*
X14597Y148964D01*
X14897Y149114D01*
X15496D01*
X15796Y148964D01*
X16096Y148664D01*
X16246Y148364D01*
X16396Y147914D01*
Y147164D01*
X16246Y146715D01*
X16096Y146415D01*
X15796Y146115D01*
X15496Y145965D01*
X14897D01*
X14597Y146115D01*
X14297Y146415D01*
X14147Y146715D01*
X11163Y149114D02*
X12662Y145965D01*
X13262Y149114D02*
X11163D01*
X62641Y169427D02*
X62791Y169727D01*
X63091Y170027D01*
X63391Y170177D01*
X63991D01*
X64291Y170027D01*
X64591Y169727D01*
X64741Y169427D01*
X64890Y168977D01*
Y168228D01*
X64741Y167778D01*
X64591Y167478D01*
X64291Y167178D01*
X63991Y167028D01*
X63391D01*
X63091Y167178D01*
X62791Y167478D01*
X62641Y167778D01*
X59957Y170177D02*
X61457D01*
X61607Y168827D01*
X61457Y168977D01*
X61007Y169127D01*
X60557D01*
X60107Y168977D01*
X59807Y168677D01*
X59657Y168228D01*
Y167928D01*
X59807Y167478D01*
X60107Y167178D01*
X60557Y167028D01*
X61007D01*
X61457Y167178D01*
X61607Y167328D01*
X61756Y167628D01*
X111859Y335864D02*
X112009Y336164D01*
X112309Y336464D01*
X112609Y336614D01*
X113209D01*
X113508Y336464D01*
X113808Y336164D01*
X113958Y335864D01*
X114108Y335414D01*
Y334665D01*
X113958Y334215D01*
X113808Y333915D01*
X113508Y333615D01*
X113209Y333465D01*
X112609D01*
X112309Y333615D01*
X112009Y333915D01*
X111859Y334215D01*
X109475Y336614D02*
X110974Y334515D01*
X108725D01*
X109475Y336614D02*
Y333465D01*
X51598Y108699D02*
X51748Y108999D01*
X52048Y109299D01*
X52348Y109449D01*
X52948D01*
X53247Y109299D01*
X53547Y108999D01*
X53697Y108699D01*
X53847Y108249D01*
Y107499D01*
X53697Y107049D01*
X53547Y106749D01*
X53247Y106449D01*
X52948Y106299D01*
X52348D01*
X52048Y106449D01*
X51748Y106749D01*
X51598Y107049D01*
X50414Y109449D02*
X48764D01*
X49664Y108249D01*
X49214D01*
X48914Y108099D01*
X48764Y107949D01*
X48614Y107499D01*
Y107199D01*
X48764Y106749D01*
X49064Y106449D01*
X49514Y106299D01*
X49964D01*
X50414Y106449D01*
X50563Y106599D01*
X50713Y106899D01*
X112965Y166426D02*
X113115Y166725D01*
X113415Y167025D01*
X113715Y167175D01*
X114315D01*
X114615Y167025D01*
X114915Y166725D01*
X115065Y166426D01*
X115214Y165976D01*
Y165226D01*
X115065Y164776D01*
X114915Y164476D01*
X114615Y164176D01*
X114315Y164026D01*
X113715D01*
X113415Y164176D01*
X113115Y164476D01*
X112965Y164776D01*
X111931Y166426D02*
Y166576D01*
X111781Y166875D01*
X111631Y167025D01*
X111331Y167175D01*
X110731D01*
X110431Y167025D01*
X110281Y166875D01*
X110131Y166576D01*
Y166276D01*
X110281Y165976D01*
X110581Y165526D01*
X112081Y164026D01*
X109981D01*
D12*
X151476Y276378D02*
X155610D01*
X130217Y265945D02*
X134350D01*
X84272Y313779D02*
Y317913D01*
X96850Y313779D02*
Y317913D01*
D13*
X27177Y30409D02*
Y48409D01*
X38177Y30409D02*
Y48409D01*
D14*
X27677Y41909D02*
X37677D01*
D15*
X89823Y221762D02*
Y245955D01*
X63917D02*
X89823D01*
X63917Y221762D02*
Y245955D01*
Y221762D02*
X89823D01*
D56*
X148425Y39075D02*
G03*
X148425Y39075I-492J0D01*
G01*
D103*
X39961Y293012D02*
G03*
X39961Y293012I-1181J0D01*
G01*
X76968Y323917D02*
G03*
X76968Y323917I-1181J0D01*
G01*
X65945Y188386D02*
G03*
X65945Y188386I-1181J0D01*
G01*
X119390Y139961D02*
G03*
X119390Y139961I-1181J0D01*
G01*
X134055Y275000D02*
G03*
X134055Y275000I-1181J0D01*
G01*
X17618Y167224D02*
G03*
X17618Y167224I-1181J0D01*
G01*
X79921Y94095D02*
G03*
X79921Y94095I-1181J0D01*
G01*
D104*
X168504Y59449D02*
G03*
X168504Y59449I-197J0D01*
G01*
D105*
X69263Y242608D02*
G03*
X69263Y242608I-1768J0D01*
G01*
M02*
