G04*
G04 #@! TF.GenerationSoftware,Altium Limited,Altium Designer,23.4.1 (23)*
G04*
G04 Layer_Color=128*
%FSLAX25Y25*%
%MOIN*%
G70*
G04*
G04 #@! TF.SameCoordinates,B679403E-95BF-4892-A0A7-9FFFC668BED6*
G04*
G04*
G04 #@! TF.FilePolarity,Positive*
G04*
G01*
G75*
%ADD106C,0.00200*%
D106*
X67770Y253858D02*
X70970D01*
X69370Y252258D02*
Y255458D01*
X82770Y253858D02*
X85970D01*
X84370Y252258D02*
Y255458D01*
X80270Y213858D02*
X83470D01*
X81870Y212258D02*
Y215458D01*
X70270Y213858D02*
X73470D01*
X71870Y212258D02*
Y215458D01*
X162795Y133071D02*
X164764D01*
X163779Y132087D02*
Y134055D01*
X162795Y166535D02*
X164764D01*
X163779Y165551D02*
Y167520D01*
X113779Y181752D02*
X119685D01*
X116732Y178799D02*
Y184705D01*
X163779Y181752D02*
X169685D01*
X166732Y178799D02*
Y184705D01*
X138779Y181752D02*
X144685D01*
X141732Y178799D02*
Y184705D01*
X138779Y117854D02*
X144685D01*
X141732Y114902D02*
Y120807D01*
X163779Y117854D02*
X169685D01*
X166732Y114902D02*
Y120807D01*
X113779Y117854D02*
X119685D01*
X116732Y114902D02*
Y120807D01*
X12402Y114764D02*
X14370D01*
X13386Y113779D02*
Y115748D01*
X12402Y81299D02*
X14370D01*
X13386Y80315D02*
Y82284D01*
X57480Y66083D02*
X63386D01*
X60433Y63130D02*
Y69035D01*
X7480Y66083D02*
X13386D01*
X10433Y63130D02*
Y69035D01*
X32480Y66083D02*
X38386D01*
X35433Y63130D02*
Y69035D01*
X32480Y129980D02*
X38386D01*
X35433Y127028D02*
Y132933D01*
X7480Y129980D02*
X13386D01*
X10433Y127028D02*
Y132933D01*
X57480Y129980D02*
X63386D01*
X60433Y127028D02*
Y132933D01*
X34449Y255906D02*
X38780D01*
X36614Y253740D02*
Y258071D01*
X14764Y255906D02*
X19094D01*
X16929Y253740D02*
Y258071D01*
X8071Y232285D02*
X13189D01*
X10630Y229726D02*
Y234844D01*
X34450Y208661D02*
X38781D01*
X36615Y206496D02*
Y210827D01*
X24606Y208661D02*
X28937D01*
X26772Y206496D02*
Y210827D01*
X14765Y208661D02*
X19096D01*
X16930Y206496D02*
Y210827D01*
X40354Y232285D02*
X45472D01*
X42913Y229726D02*
Y234844D01*
X44686Y354332D02*
X49804D01*
X47245Y351773D02*
Y356891D01*
X14765Y324804D02*
X19096D01*
X16930Y322639D02*
Y326970D01*
X24608Y324804D02*
X28938D01*
X26773Y322639D02*
Y326970D01*
X34450Y324804D02*
X38781D01*
X36615Y322639D02*
Y326970D01*
X3741Y354332D02*
X8860D01*
X6301Y351773D02*
Y356891D01*
X168308Y354332D02*
X173426D01*
X170867Y351773D02*
Y356891D01*
X138387Y324804D02*
X142718D01*
X140552Y322639D02*
Y326970D01*
X148230Y324804D02*
X152560D01*
X150395Y322639D02*
Y326970D01*
X158072Y324804D02*
X162403D01*
X160238Y322639D02*
Y326970D01*
X127364Y354332D02*
X132482D01*
X129922Y351773D02*
Y356891D01*
X127364Y232285D02*
X132482D01*
X129922Y229726D02*
Y234844D01*
X158072Y202757D02*
X162403D01*
X160238Y200592D02*
Y204922D01*
X148230Y202757D02*
X152560D01*
X150395Y200592D02*
Y204922D01*
X138387Y202757D02*
X142718D01*
X140552Y200592D02*
Y204922D01*
X168308Y232285D02*
X173426D01*
X170867Y229726D02*
Y234844D01*
X60827Y43701D02*
X65551D01*
X63189Y41339D02*
Y46063D01*
X60827Y24016D02*
X65551D01*
X63189Y21654D02*
Y26378D01*
X110039Y24016D02*
X114764D01*
X112402Y21654D02*
Y26378D01*
X110039Y43701D02*
X114764D01*
X112402Y41339D02*
Y46063D01*
X84449Y51575D02*
X91142D01*
X87795Y48228D02*
Y54921D01*
X84449Y16142D02*
X91142D01*
X87795Y12795D02*
Y19488D01*
X91833Y275590D02*
X95333D01*
X93583Y273840D02*
Y277341D01*
X81833Y275590D02*
X85333D01*
X83583Y273840D02*
Y277341D01*
X137008Y82677D02*
X140945D01*
X138976Y80709D02*
Y84646D01*
X148819Y101181D02*
X152756D01*
X150787Y99213D02*
Y103150D01*
X160630Y82677D02*
X164567D01*
X162598Y80709D02*
Y84646D01*
X7061Y280157D02*
X10261D01*
X8661Y278557D02*
Y281757D01*
X7061Y290158D02*
X10261D01*
X8661Y288558D02*
Y291757D01*
X7061Y300157D02*
X10261D01*
X8661Y298557D02*
Y301758D01*
X18504Y168701D02*
X19685D01*
X19094Y168110D02*
Y169291D01*
X66535Y228346D02*
X67716D01*
X67126Y227756D02*
Y228937D01*
X66535Y259842D02*
X67716D01*
X67126Y259252D02*
Y260433D01*
X26969Y19685D02*
X28150D01*
X27559Y19094D02*
Y20276D01*
X26969Y74803D02*
X28150D01*
X27559Y74213D02*
Y75394D01*
X54528Y74803D02*
X55709D01*
X55118Y74213D02*
Y75394D01*
X82087Y129921D02*
X83268D01*
X82677Y129331D02*
Y130512D01*
X-591Y295276D02*
X591D01*
X0Y294685D02*
Y295866D01*
X26969Y240158D02*
X28150D01*
X27559Y239567D02*
Y240748D01*
X26969Y350394D02*
X28150D01*
X27559Y349803D02*
Y350984D01*
X54528Y350394D02*
X55709D01*
X55118Y349803D02*
Y350984D01*
X82087Y295276D02*
X83268D01*
X82677Y294685D02*
Y295866D01*
X95866Y47244D02*
X97047D01*
X96457Y46654D02*
Y47835D01*
X109646Y129921D02*
X110827D01*
X110236Y129331D02*
Y130512D01*
X95866Y212598D02*
X97047D01*
X96457Y212008D02*
Y213189D01*
X123425Y157480D02*
X124606D01*
X124016Y156890D02*
Y158071D01*
X137205Y350394D02*
X138386D01*
X137795Y349803D02*
Y350984D01*
X160827Y354331D02*
X162008D01*
X161417Y353740D02*
Y354921D01*
X168701Y338583D02*
X169882D01*
X169291Y337992D02*
Y339173D01*
X168701Y307087D02*
X169882D01*
X169291Y306496D02*
Y307677D01*
X160827Y228346D02*
X162008D01*
X161417Y227756D02*
Y228937D01*
X168701Y212598D02*
X169882D01*
X169291Y212008D02*
Y213189D01*
X168701Y149606D02*
X169882D01*
X169291Y149016D02*
Y150197D01*
X160827Y102362D02*
X162008D01*
X161417Y101772D02*
Y102953D01*
X168701Y86614D02*
X169882D01*
X169291Y86024D02*
Y87205D01*
X168701Y55118D02*
X169882D01*
X169291Y54527D02*
Y55709D01*
X152953Y338583D02*
X154134D01*
X153543Y337992D02*
Y339173D01*
X152953Y244094D02*
X154134D01*
X153543Y243504D02*
Y244685D01*
X145079Y228346D02*
X146260D01*
X145669Y227756D02*
Y228937D01*
X152953Y212598D02*
X154134D01*
X153543Y212008D02*
Y213189D01*
X152953Y181102D02*
X154134D01*
X153543Y180512D02*
Y181693D01*
X145079Y165354D02*
X146260D01*
X145669Y164764D02*
Y165945D01*
X152953Y149606D02*
X154134D01*
X153543Y149016D02*
Y150197D01*
X152953Y118110D02*
X154134D01*
X153543Y117520D02*
Y118701D01*
X152953Y86614D02*
X154134D01*
X153543Y86024D02*
Y87205D01*
X145079Y70866D02*
X146260D01*
X145669Y70276D02*
Y71457D01*
X129331Y322835D02*
X130512D01*
X129921Y322244D02*
Y323425D01*
X137205Y307087D02*
X138386D01*
X137795Y306496D02*
Y307677D01*
X137205Y244094D02*
X138386D01*
X137795Y243504D02*
Y244685D01*
X129331Y196850D02*
X130512D01*
X129921Y196260D02*
Y197441D01*
X129331Y102362D02*
X130512D01*
X129921Y101772D02*
Y102953D01*
X129331Y70866D02*
X130512D01*
X129921Y70276D02*
Y71457D01*
X113583Y354331D02*
X114764D01*
X114173Y353740D02*
Y354921D01*
X121457Y338583D02*
X122638D01*
X122047Y337992D02*
Y339173D01*
X113583Y322835D02*
X114764D01*
X114173Y322244D02*
Y323425D01*
X121457Y307087D02*
X122638D01*
X122047Y306496D02*
Y307677D01*
X113583Y259842D02*
X114764D01*
X114173Y259252D02*
Y260433D01*
X121457Y244094D02*
X122638D01*
X122047Y243504D02*
Y244685D01*
X113583Y228346D02*
X114764D01*
X114173Y227756D02*
Y228937D01*
X121457Y212598D02*
X122638D01*
X122047Y212008D02*
Y213189D01*
X113583Y196850D02*
X114764D01*
X114173Y196260D02*
Y197441D01*
X121457Y149606D02*
X122638D01*
X122047Y149016D02*
Y150197D01*
X113583Y102362D02*
X114764D01*
X114173Y101772D02*
Y102953D01*
X121457Y86614D02*
X122638D01*
X122047Y86024D02*
Y87205D01*
X113583Y7874D02*
X114764D01*
X114173Y7283D02*
Y8465D01*
X97835Y259842D02*
X99016D01*
X98425Y259252D02*
Y260433D01*
X97835Y228346D02*
X99016D01*
X98425Y227756D02*
Y228937D01*
X97835Y196850D02*
X99016D01*
X98425Y196260D02*
Y197441D01*
X105709Y181102D02*
X106890D01*
X106299Y180512D02*
Y181693D01*
X105709Y118110D02*
X106890D01*
X106299Y117520D02*
Y118701D01*
X97835Y102362D02*
X99016D01*
X98425Y101772D02*
Y102953D01*
X97835Y70866D02*
X99016D01*
X98425Y70276D02*
Y71457D01*
X97835Y39370D02*
X99016D01*
X98425Y38780D02*
Y39961D01*
X97835Y7874D02*
X99016D01*
X98425Y7283D02*
Y8465D01*
X82087Y291338D02*
X83268D01*
X82677Y290748D02*
Y291929D01*
X82087Y259842D02*
X83268D01*
X82677Y259252D02*
Y260433D01*
X82087Y228346D02*
X83268D01*
X82677Y227756D02*
Y228937D01*
X82087Y165354D02*
X83268D01*
X82677Y164764D02*
Y165945D01*
X82087Y133858D02*
X83268D01*
X82677Y133268D02*
Y134449D01*
X82087Y39370D02*
X83268D01*
X82677Y38780D02*
Y39961D01*
X82087Y7874D02*
X83268D01*
X82677Y7283D02*
Y8465D01*
X74213Y307087D02*
X75394D01*
X74803Y306496D02*
Y307677D01*
X66339Y196850D02*
X67520D01*
X66929Y196260D02*
Y197441D01*
X66339Y7874D02*
X67520D01*
X66929Y7283D02*
Y8465D01*
X58464Y307087D02*
X59646D01*
X59055Y306496D02*
Y307677D01*
X50590Y259842D02*
X51772D01*
X51181Y259252D02*
Y260433D01*
X50590Y228346D02*
X51772D01*
X51181Y227756D02*
Y228937D01*
X58464Y118110D02*
X59646D01*
X59055Y117520D02*
Y118701D01*
X58464Y86614D02*
X59646D01*
X59055Y86024D02*
Y87205D01*
X50590Y70866D02*
X51772D01*
X51181Y70276D02*
Y71457D01*
X58464Y55118D02*
X59646D01*
X59055Y54527D02*
Y55709D01*
X50590Y39370D02*
X51772D01*
X51181Y38780D02*
Y39961D01*
X50590Y7874D02*
X51772D01*
X51181Y7283D02*
Y8465D01*
X34843Y354331D02*
X36024D01*
X35433Y353740D02*
Y354921D01*
X42717Y338583D02*
X43898D01*
X43307Y337992D02*
Y339173D01*
X42717Y244094D02*
X43898D01*
X43307Y243504D02*
Y244685D01*
X34843Y228346D02*
X36024D01*
X35433Y227756D02*
Y228937D01*
X42717Y212598D02*
X43898D01*
X43307Y212008D02*
Y213189D01*
X42717Y149606D02*
X43898D01*
X43307Y149016D02*
Y150197D01*
X42717Y118110D02*
X43898D01*
X43307Y117520D02*
Y118701D01*
X34843Y102362D02*
X36024D01*
X35433Y101772D02*
Y102953D01*
X42717Y86614D02*
X43898D01*
X43307Y86024D02*
Y87205D01*
X42717Y55118D02*
X43898D01*
X43307Y54527D02*
Y55709D01*
X42717Y23622D02*
X43898D01*
X43307Y23031D02*
Y24213D01*
X34843Y7874D02*
X36024D01*
X35433Y7283D02*
Y8465D01*
X19094Y354331D02*
X20276D01*
X19685Y353740D02*
Y354921D01*
X26969Y338583D02*
X28150D01*
X27559Y337992D02*
Y339173D01*
X26969Y244094D02*
X28150D01*
X27559Y243504D02*
Y244685D01*
X19094Y196850D02*
X20276D01*
X19685Y196260D02*
Y197441D01*
X19094Y133858D02*
X20276D01*
X19685Y133268D02*
Y134449D01*
X26969Y118110D02*
X28150D01*
X27559Y117520D02*
Y118701D01*
X19094Y102362D02*
X20276D01*
X19685Y101772D02*
Y102953D01*
X26969Y86614D02*
X28150D01*
X27559Y86024D02*
Y87205D01*
X19094Y70866D02*
X20276D01*
X19685Y70276D02*
Y71457D01*
X26969Y55118D02*
X28150D01*
X27559Y54527D02*
Y55709D01*
X19094Y39370D02*
X20276D01*
X19685Y38780D02*
Y39961D01*
X26969Y23622D02*
X28150D01*
X27559Y23031D02*
Y24213D01*
X19094Y7874D02*
X20276D01*
X19685Y7283D02*
Y8465D01*
X11220Y338583D02*
X12402D01*
X11811Y337992D02*
Y339173D01*
X3346Y322835D02*
X4527D01*
X3937Y322244D02*
Y323425D01*
X11220Y307087D02*
X12402D01*
X11811Y306496D02*
Y307677D01*
X11220Y244094D02*
X12402D01*
X11811Y243504D02*
Y244685D01*
X3346Y228346D02*
X4527D01*
X3937Y227756D02*
Y228937D01*
X3346Y196850D02*
X4527D01*
X3937Y196260D02*
Y197441D01*
X11220Y181102D02*
X12402D01*
X11811Y180512D02*
Y181693D01*
X11220Y149606D02*
X12402D01*
X11811Y149016D02*
Y150197D01*
X3346Y102362D02*
X4527D01*
X3937Y101772D02*
Y102953D01*
X11220Y86614D02*
X12402D01*
X11811Y86024D02*
Y87205D01*
X11220Y55118D02*
X12402D01*
X11811Y54527D02*
Y55709D01*
X137205Y295276D02*
X138386D01*
X137795Y294685D02*
Y295866D01*
X137205Y240158D02*
X138386D01*
X137795Y239567D02*
Y240748D01*
X150984Y157480D02*
X152165D01*
X151575Y156890D02*
Y158071D01*
X109646Y350394D02*
X110827D01*
X110236Y349803D02*
Y350984D01*
X123425Y322835D02*
X124606D01*
X124016Y322244D02*
Y323425D01*
X123425Y212598D02*
X124606D01*
X124016Y212008D02*
Y213189D01*
X82087Y19685D02*
X83268D01*
X82677Y19094D02*
Y20276D01*
X54528Y19685D02*
X55709D01*
X55118Y19094D02*
Y20276D01*
X40748Y212598D02*
X41929D01*
X41339Y212008D02*
Y213189D01*
X40748Y102362D02*
X41929D01*
X41339Y101772D02*
Y102953D01*
X13189Y157480D02*
X14370D01*
X13780Y156890D02*
Y158071D01*
X13189Y102362D02*
X14370D01*
X13780Y101772D02*
Y102953D01*
X-591Y19685D02*
X591D01*
X0Y19094D02*
Y20276D01*
X167717Y271654D02*
X168898D01*
X168307Y271063D02*
Y272244D01*
X96850Y120079D02*
X98032D01*
X97441Y119488D02*
Y120669D01*
X86122Y120079D02*
X87303D01*
X86713Y119488D02*
Y120669D01*
X14960Y267815D02*
X16141D01*
X15551Y267224D02*
Y268405D01*
X137205Y57087D02*
X138386D01*
X137795Y56496D02*
Y57677D01*
X146063Y10827D02*
X147244D01*
X146653Y10236D02*
Y11417D01*
X149508Y12795D02*
X150689D01*
X150098Y12205D02*
Y13386D01*
X152953Y27165D02*
X154134D01*
X153543Y26575D02*
Y27756D01*
X130315Y58661D02*
X131496D01*
X130905Y58071D02*
Y59252D01*
X117520Y19685D02*
X118701D01*
X118110Y19094D02*
Y20276D01*
X176870Y303150D02*
X178051D01*
X177461Y302559D02*
Y303740D01*
X107677Y165354D02*
X108858D01*
X108268Y164764D02*
Y165945D01*
X149016Y44291D02*
X150197D01*
X149606Y43701D02*
Y44882D01*
X90426Y169488D02*
X91607D01*
X91017Y168898D02*
Y170079D01*
X83465Y179232D02*
X84646D01*
X84055Y178642D02*
Y179823D01*
X85728Y156004D02*
X86910D01*
X86319Y155413D02*
Y156595D01*
X84055Y240158D02*
X85236D01*
X84646Y239567D02*
Y240748D01*
X97835Y232283D02*
X99016D01*
X98425Y231693D02*
Y232874D01*
X169685Y11811D02*
X170866D01*
X170276Y11220D02*
Y12402D01*
X41732Y295525D02*
X42913D01*
X42323Y294934D02*
Y296115D01*
X36775Y295525D02*
X37956D01*
X37366Y294934D02*
Y296115D01*
X30906Y293197D02*
X32087D01*
X31496Y292607D02*
Y293788D01*
X155807Y287500D02*
X156988D01*
X156398Y286910D02*
Y288090D01*
X18602Y291732D02*
X19783D01*
X19193Y291142D02*
Y292323D01*
X21063Y305118D02*
X22244D01*
X21654Y304528D02*
Y305709D01*
X51378Y295866D02*
X52559D01*
X51968Y295276D02*
Y296457D01*
X171260Y255118D02*
X172441D01*
X171850Y254528D02*
Y255709D01*
X96949Y113484D02*
X98130D01*
X97539Y112894D02*
Y114075D01*
X117520Y29232D02*
X118701D01*
X118110Y28642D02*
Y29823D01*
X38780Y269685D02*
X39961D01*
X39370Y269094D02*
Y270276D01*
X138583Y273327D02*
X139764D01*
X139173Y272736D02*
Y273917D01*
X129429Y273819D02*
X130610D01*
X130020Y273228D02*
Y274410D01*
X48622Y165354D02*
X49803D01*
X49213Y164764D02*
Y165945D01*
X48622Y143701D02*
X49803D01*
X49213Y143110D02*
Y144291D01*
X66732Y174606D02*
X67913D01*
X67323Y174016D02*
Y175197D01*
X56988Y189961D02*
X58169D01*
X57579Y189370D02*
Y190551D01*
X91240Y309252D02*
X92421D01*
X91831Y308661D02*
Y309842D01*
X2756Y48228D02*
X3937D01*
X3347Y47638D02*
Y48819D01*
X88681Y311516D02*
X89862D01*
X89272Y310925D02*
Y312106D01*
X117618Y299508D02*
X118799D01*
X118209Y298917D02*
Y300098D01*
X129675Y278923D02*
X130856D01*
X130266Y278332D02*
Y279514D01*
X29455Y180636D02*
X30636D01*
X30046Y180046D02*
Y181227D01*
X26378Y180610D02*
X27559D01*
X26969Y180020D02*
Y181201D01*
X76378Y107480D02*
X77559D01*
X76968Y106890D02*
Y108071D01*
X82972Y92520D02*
X84153D01*
X83563Y91929D02*
Y93110D01*
X886Y181496D02*
X2067D01*
X1476Y180905D02*
Y182087D01*
X14469Y175591D02*
X15650D01*
X15059Y175000D02*
Y176181D01*
X125098Y138779D02*
X126279D01*
X125689Y138189D02*
Y139370D01*
X119193Y45177D02*
X120374D01*
X119783Y44587D02*
Y45768D01*
X159646Y287697D02*
X160827D01*
X160236Y287106D02*
Y288287D01*
X118209Y278248D02*
X119390D01*
X118799Y277658D02*
Y278839D01*
X129626Y293701D02*
X130807D01*
X130217Y293110D02*
Y294291D01*
X81201Y311713D02*
X82382D01*
X81791Y311122D02*
Y312303D01*
X60827Y347244D02*
X62008D01*
X61417Y346654D02*
Y347835D01*
X66929Y356496D02*
X68110D01*
X67520Y355906D02*
Y357087D01*
X82776Y337303D02*
X83957D01*
X83366Y336713D02*
Y337894D01*
X72244Y337254D02*
X73425D01*
X72835Y336663D02*
Y337844D01*
X156496Y3839D02*
X157677D01*
X157087Y3248D02*
Y4429D01*
X165453Y11811D02*
X166634D01*
X166043Y11220D02*
Y12402D01*
X118012Y9055D02*
X119193D01*
X118602Y8465D02*
Y9646D01*
X99777Y92546D02*
X100958D01*
X100368Y91955D02*
Y93136D01*
X43898Y32087D02*
X45079D01*
X44488Y31496D02*
Y32677D01*
X25787Y143504D02*
X26969D01*
X26378Y142913D02*
Y144095D01*
X136713Y135039D02*
X137894D01*
X137303Y134449D02*
Y135630D01*
X47539Y90158D02*
X48720D01*
X48130Y89567D02*
Y90748D01*
M02*
