G04*
G04 #@! TF.GenerationSoftware,Altium Limited,Altium Designer,23.4.1 (23)*
G04*
G04 Layer_Physical_Order=1*
G04 Layer_Color=255*
%FSLAX25Y25*%
%MOIN*%
G70*
G04*
G04 #@! TF.SameCoordinates,B679403E-95BF-4892-A0A7-9FFFC668BED6*
G04*
G04*
G04 #@! TF.FilePolarity,Positive*
G04*
G01*
G75*
G04:AMPARAMS|DCode=17|XSize=39.37mil|YSize=31.5mil|CornerRadius=3.94mil|HoleSize=0mil|Usage=FLASHONLY|Rotation=270.000|XOffset=0mil|YOffset=0mil|HoleType=Round|Shape=RoundedRectangle|*
%AMROUNDEDRECTD17*
21,1,0.03937,0.02362,0,0,270.0*
21,1,0.03150,0.03150,0,0,270.0*
1,1,0.00787,-0.01181,-0.01575*
1,1,0.00787,-0.01181,0.01575*
1,1,0.00787,0.01181,0.01575*
1,1,0.00787,0.01181,-0.01575*
%
%ADD17ROUNDEDRECTD17*%
%ADD18R,0.05709X0.02362*%
%ADD19R,0.02323X0.01772*%
G04:AMPARAMS|DCode=20|XSize=68.9mil|YSize=43.31mil|CornerRadius=5.41mil|HoleSize=0mil|Usage=FLASHONLY|Rotation=0.000|XOffset=0mil|YOffset=0mil|HoleType=Round|Shape=RoundedRectangle|*
%AMROUNDEDRECTD20*
21,1,0.06890,0.03248,0,0,0.0*
21,1,0.05807,0.04331,0,0,0.0*
1,1,0.01083,0.02904,-0.01624*
1,1,0.01083,-0.02904,-0.01624*
1,1,0.01083,-0.02904,0.01624*
1,1,0.01083,0.02904,0.01624*
%
%ADD20ROUNDEDRECTD20*%
G04:AMPARAMS|DCode=21|XSize=59.06mil|YSize=45.28mil|CornerRadius=5.66mil|HoleSize=0mil|Usage=FLASHONLY|Rotation=270.000|XOffset=0mil|YOffset=0mil|HoleType=Round|Shape=RoundedRectangle|*
%AMROUNDEDRECTD21*
21,1,0.05906,0.03396,0,0,270.0*
21,1,0.04774,0.04528,0,0,270.0*
1,1,0.01132,-0.01698,-0.02387*
1,1,0.01132,-0.01698,0.02387*
1,1,0.01132,0.01698,0.02387*
1,1,0.01132,0.01698,-0.02387*
%
%ADD21ROUNDEDRECTD21*%
%ADD22R,0.06496X0.13583*%
G04:AMPARAMS|DCode=23|XSize=59.06mil|YSize=45.28mil|CornerRadius=5.66mil|HoleSize=0mil|Usage=FLASHONLY|Rotation=0.000|XOffset=0mil|YOffset=0mil|HoleType=Round|Shape=RoundedRectangle|*
%AMROUNDEDRECTD23*
21,1,0.05906,0.03396,0,0,0.0*
21,1,0.04774,0.04528,0,0,0.0*
1,1,0.01132,0.02387,-0.01698*
1,1,0.01132,-0.02387,-0.01698*
1,1,0.01132,-0.02387,0.01698*
1,1,0.01132,0.02387,0.01698*
%
%ADD23ROUNDEDRECTD23*%
%ADD24R,0.06600X0.06000*%
%ADD25R,0.10433X0.06890*%
%ADD26R,0.13583X0.06496*%
G04:AMPARAMS|DCode=27|XSize=39.37mil|YSize=31.5mil|CornerRadius=3.94mil|HoleSize=0mil|Usage=FLASHONLY|Rotation=0.000|XOffset=0mil|YOffset=0mil|HoleType=Round|Shape=RoundedRectangle|*
%AMROUNDEDRECTD27*
21,1,0.03937,0.02362,0,0,0.0*
21,1,0.03150,0.03150,0,0,0.0*
1,1,0.00787,0.01575,-0.01181*
1,1,0.00787,-0.01575,-0.01181*
1,1,0.00787,-0.01575,0.01181*
1,1,0.00787,0.01575,0.01181*
%
%ADD27ROUNDEDRECTD27*%
%ADD56C,0.00984*%
%ADD57C,0.03937*%
%ADD58C,0.02953*%
%ADD59C,0.01968*%
%ADD60C,0.06600*%
%ADD61R,0.09449X0.05118*%
%ADD62O,0.15748X0.07874*%
%ADD63R,0.11811X0.07874*%
%ADD64O,0.08661X0.07087*%
%ADD65O,0.09055X0.13780*%
%ADD66O,0.07087X0.08661*%
%ADD67R,0.07087X0.08661*%
%ADD68C,0.07874*%
%ADD69R,0.05512X0.05512*%
%ADD70C,0.05512*%
%ADD71R,0.09055X0.18898*%
%ADD72R,0.16929X0.09055*%
%ADD73R,0.09055X0.16929*%
%ADD74C,0.06000*%
%ADD75R,0.06000X0.06000*%
%ADD76C,0.02362*%
G36*
X156647Y370866D02*
X156834Y370414D01*
X157286Y370227D01*
X163979D01*
X164431Y370414D01*
X164618Y370866D01*
Y372626D01*
X165118Y372833D01*
X180099Y357852D01*
Y286259D01*
X179599Y286052D01*
X178565Y287087D01*
Y301748D01*
X178963Y302146D01*
X179232Y302797D01*
Y303502D01*
X178963Y304153D01*
X178464Y304651D01*
X177813Y304921D01*
X177108D01*
X176801Y304794D01*
X176301Y305128D01*
Y316043D01*
X176217Y316466D01*
X175977Y316824D01*
X167216Y325585D01*
X166858Y325824D01*
X166436Y325908D01*
X164365D01*
X164265Y326671D01*
X163848Y327677D01*
X163186Y328540D01*
X162322Y329203D01*
X161317Y329619D01*
X160238Y329761D01*
X159158Y329619D01*
X158153Y329203D01*
X157289Y328540D01*
X156627Y327677D01*
X156210Y326671D01*
X156068Y325592D01*
Y324017D01*
X156210Y322938D01*
X156627Y321932D01*
X157289Y321069D01*
X158153Y320406D01*
X159158Y319989D01*
X160238Y319847D01*
X161317Y319989D01*
X162322Y320406D01*
X163186Y321069D01*
X163848Y321932D01*
X164265Y322938D01*
X164365Y323700D01*
X165979D01*
X174093Y315586D01*
Y286666D01*
X174177Y286244D01*
X174416Y285886D01*
X176357Y283945D01*
Y237145D01*
X175857Y237046D01*
X175696Y237435D01*
X174810Y238589D01*
X173655Y239475D01*
X172310Y240032D01*
X170867Y240222D01*
X170720Y240203D01*
X170499Y240651D01*
X172631Y242783D01*
X172870Y243141D01*
X172954Y243564D01*
Y253716D01*
X173352Y254115D01*
X173622Y254766D01*
Y255470D01*
X173352Y256122D01*
X172854Y256620D01*
X172203Y256890D01*
X171498D01*
X171092Y256722D01*
X170592Y257019D01*
Y270388D01*
X170508Y270810D01*
X170269Y271169D01*
X170079Y271359D01*
Y272006D01*
X169809Y272657D01*
X169311Y273155D01*
X168659Y273425D01*
X167955D01*
X167304Y273155D01*
X166805Y272657D01*
X166535Y272006D01*
Y271301D01*
X166805Y270650D01*
X167304Y270152D01*
X167955Y269882D01*
X168384D01*
Y243886D01*
X162902Y238404D01*
X162662Y238045D01*
X162578Y237623D01*
Y236581D01*
X142725Y216727D01*
X142485Y216369D01*
X142401Y215946D01*
Y215601D01*
X136714D01*
X136262Y215414D01*
X136075Y214962D01*
Y212785D01*
X136262Y212333D01*
X136714Y212145D01*
X142400D01*
Y207678D01*
X136419D01*
Y197836D01*
X142822D01*
X143013Y197374D01*
X136332Y190693D01*
X104845D01*
X104422Y190609D01*
X104064Y190369D01*
X93412Y179718D01*
X93173Y179359D01*
X93089Y178937D01*
Y170421D01*
X92589Y170321D01*
X92519Y170492D01*
X92020Y170990D01*
X91369Y171260D01*
X90664D01*
X90357Y171133D01*
X89857Y171467D01*
Y271953D01*
X90236Y272244D01*
X90357Y272244D01*
X96929D01*
Y274437D01*
X103327D01*
Y274360D01*
X103404Y273976D01*
X103621Y273650D01*
X103947Y273433D01*
X104331Y273356D01*
X107480D01*
X107864Y273433D01*
X108190Y273650D01*
X108407Y273976D01*
X108484Y274360D01*
Y276722D01*
X108407Y277106D01*
X108190Y277432D01*
X107864Y277649D01*
X107480Y277726D01*
X104331D01*
X103947Y277649D01*
X103621Y277432D01*
X103404Y277106D01*
X103327Y276722D01*
Y276645D01*
X96929D01*
Y278937D01*
X90357D01*
X90236Y278937D01*
X89857Y279228D01*
Y299043D01*
X89773Y299465D01*
X89533Y299823D01*
X63771Y325585D01*
X63413Y325824D01*
X62991Y325908D01*
X40743D01*
X40643Y326671D01*
X40226Y327677D01*
X39564Y328540D01*
X38700Y329203D01*
X37695Y329619D01*
X36615Y329761D01*
X35536Y329619D01*
X34531Y329203D01*
X33667Y328540D01*
X33005Y327677D01*
X32588Y326671D01*
X32446Y325592D01*
Y324017D01*
X32588Y322938D01*
X33005Y321932D01*
X33667Y321069D01*
X34531Y320406D01*
X35536Y319989D01*
X36615Y319847D01*
X37695Y319989D01*
X38700Y320406D01*
X39564Y321069D01*
X40226Y321932D01*
X40643Y322938D01*
X40743Y323700D01*
X62534D01*
X69040Y317194D01*
X68849Y316732D01*
X63544D01*
X63136Y316918D01*
X63062Y317180D01*
X63028Y317352D01*
X62788Y317710D01*
X57867Y322631D01*
X57509Y322870D01*
X57087Y322954D01*
X47047D01*
X46625Y322870D01*
X46267Y322631D01*
X44464Y320829D01*
X44225Y320470D01*
X44141Y320048D01*
Y319901D01*
X43357D01*
X42973Y319825D01*
X42647Y319607D01*
X42430Y319282D01*
X42377Y319017D01*
X31247D01*
X30825Y318933D01*
X30467Y318694D01*
X18412Y306640D01*
X18173Y306281D01*
X18089Y305859D01*
Y293134D01*
X17691Y292736D01*
X17421Y292085D01*
Y291380D01*
X17691Y290729D01*
X18189Y290230D01*
X18841Y289961D01*
X19545D01*
X20197Y290230D01*
X20695Y290729D01*
X20965Y291380D01*
Y292085D01*
X20695Y292736D01*
X20297Y293134D01*
Y303316D01*
X20797Y303555D01*
X21301Y303346D01*
X22006D01*
X22657Y303616D01*
X23055Y304014D01*
X42600D01*
Y303543D01*
X42676Y303159D01*
X42600Y302778D01*
X42598Y302777D01*
X42290Y302315D01*
X42182Y301772D01*
Y300697D01*
X44784D01*
Y299697D01*
X42182D01*
Y298622D01*
X42290Y298078D01*
X42479Y297797D01*
X42247Y297297D01*
X41970D01*
X41319Y297027D01*
X40821Y296528D01*
X40551Y295877D01*
Y295172D01*
X40679Y294865D01*
X40345Y294365D01*
X39344D01*
X39010Y294865D01*
X39138Y295172D01*
Y295877D01*
X38868Y296528D01*
X38369Y297027D01*
X37718Y297297D01*
X37013D01*
X36362Y297027D01*
X35901Y296565D01*
X29809D01*
X29386Y296481D01*
X29028Y296242D01*
X28452Y295665D01*
X28212Y295307D01*
X28128Y294885D01*
Y285728D01*
X28212Y285306D01*
X28452Y284948D01*
X38590Y274810D01*
X38948Y274571D01*
X39370Y274487D01*
X42600D01*
Y274016D01*
X42676Y273632D01*
X42600Y273250D01*
X42598Y273249D01*
X42290Y272788D01*
X42182Y272244D01*
Y271169D01*
X44784D01*
X47386D01*
Y272244D01*
X47278Y272788D01*
X46970Y273249D01*
X46968Y273250D01*
X46892Y273632D01*
X46969Y274016D01*
Y276609D01*
X47469Y276817D01*
X47999Y276286D01*
X48357Y276047D01*
X48779Y275963D01*
X48800D01*
Y274016D01*
X48876Y273632D01*
X49093Y273306D01*
Y272954D01*
X48876Y272628D01*
X48800Y272244D01*
Y269094D01*
X48876Y268710D01*
X49093Y268385D01*
X49419Y268167D01*
X49803Y268091D01*
X52165D01*
X52549Y268167D01*
X52875Y268385D01*
X53092Y268710D01*
X53169Y269094D01*
Y272244D01*
X53092Y272628D01*
X52875Y272954D01*
Y273306D01*
X53092Y273632D01*
X53169Y274016D01*
Y277165D01*
X53092Y277549D01*
X52875Y277875D01*
X52549Y278093D01*
X52165Y278169D01*
X49911D01*
X49902Y278171D01*
X49237D01*
X44842Y282565D01*
Y283957D01*
X41339D01*
Y281004D01*
X43281D01*
X45616Y278669D01*
X45409Y278169D01*
X43603D01*
X43219Y278093D01*
X42893Y277875D01*
X42676Y277549D01*
X42600Y277165D01*
Y276694D01*
X39827D01*
X30336Y286186D01*
Y291219D01*
X30836Y291553D01*
X31144Y291426D01*
X31848D01*
X32500Y291696D01*
X32961Y292157D01*
X45947D01*
X46139Y291695D01*
X45408Y290964D01*
X43603D01*
X43219Y290888D01*
X42893Y290670D01*
X42676Y290345D01*
X42600Y289961D01*
Y286811D01*
X42676Y286427D01*
X42893Y286101D01*
X43219Y285884D01*
X43603Y285807D01*
X45857D01*
X45867Y285806D01*
X46236D01*
X49646Y282396D01*
Y281004D01*
X53150D01*
Y283957D01*
X51207D01*
X49856Y285308D01*
X50063Y285807D01*
X52165D01*
X52549Y285884D01*
X52875Y286101D01*
X53092Y286427D01*
X53169Y286811D01*
Y289403D01*
X55182Y291416D01*
X63189D01*
Y290748D01*
X63758D01*
Y223624D01*
X28337Y188203D01*
X27876Y188394D01*
Y203857D01*
X28856Y204263D01*
X29720Y204926D01*
X30383Y205789D01*
X30799Y206795D01*
X30941Y207874D01*
Y209449D01*
X30799Y210528D01*
X30383Y211534D01*
X29720Y212397D01*
X28856Y213060D01*
X27851Y213476D01*
X26772Y213618D01*
X25692Y213476D01*
X24687Y213060D01*
X23823Y212397D01*
X23161Y211534D01*
X22744Y210528D01*
X22602Y209449D01*
Y207874D01*
X22744Y206795D01*
X23161Y205789D01*
X23823Y204926D01*
X24687Y204263D01*
X25668Y203857D01*
Y187760D01*
X15270Y177362D01*
X14707D01*
X14055Y177093D01*
X13557Y176594D01*
X13287Y175943D01*
Y175238D01*
X13557Y174587D01*
X14055Y174089D01*
X14707Y173819D01*
X15412D01*
X16063Y174089D01*
X16561Y174587D01*
X16831Y175238D01*
Y175801D01*
X17529Y176499D01*
X17991Y176308D01*
Y170102D01*
X17593Y169704D01*
X17323Y169053D01*
Y168348D01*
X17593Y167697D01*
X18091Y167199D01*
X18742Y166929D01*
X19447D01*
X20098Y167199D01*
X20596Y167697D01*
X20866Y168348D01*
Y169053D01*
X20596Y169704D01*
X20198Y170102D01*
Y176942D01*
X24964Y181707D01*
X25388Y181424D01*
X25197Y180963D01*
Y180258D01*
X25467Y179607D01*
X25865Y179209D01*
Y176560D01*
X25949Y176137D01*
X26188Y175779D01*
X67651Y134316D01*
X67321Y133939D01*
X66860Y134293D01*
X65659Y134790D01*
X64370Y134960D01*
X60933D01*
Y129980D01*
Y125001D01*
X64370D01*
X65659Y125170D01*
X66860Y125668D01*
X67891Y126459D01*
X68682Y127490D01*
X69180Y128691D01*
X69310Y129676D01*
X69838Y129856D01*
X91123Y108570D01*
X91482Y108331D01*
X91904Y108247D01*
X121940D01*
X122132Y107785D01*
X105733Y91386D01*
X102346D01*
X102012Y91886D01*
X102139Y92193D01*
Y92898D01*
X101870Y93549D01*
X101371Y94047D01*
X100720Y94317D01*
X100015D01*
X99364Y94047D01*
X98866Y93549D01*
X98596Y92898D01*
Y92193D01*
X98724Y91886D01*
X98389Y91386D01*
X86258D01*
X85335Y92309D01*
Y92872D01*
X85065Y93523D01*
X84566Y94022D01*
X83915Y94291D01*
X83211D01*
X82559Y94022D01*
X82061Y93523D01*
X81791Y92872D01*
Y92167D01*
X81959Y91761D01*
X81662Y91261D01*
X49531D01*
X49134Y91659D01*
X48482Y91929D01*
X47778D01*
X47126Y91659D01*
X46628Y91161D01*
X46358Y90510D01*
Y89805D01*
X46628Y89154D01*
X47126Y88656D01*
X47778Y88386D01*
X48482D01*
X49134Y88656D01*
X49531Y89054D01*
X83158D01*
X84285Y87927D01*
X84643Y87687D01*
X85065Y87603D01*
X105763D01*
X105954Y87141D01*
X103944Y85131D01*
X103705Y84773D01*
X103621Y84350D01*
Y31693D01*
X103705Y31271D01*
X103944Y30912D01*
X108516Y26340D01*
X108183Y25763D01*
X107874Y24612D01*
Y23420D01*
X108183Y22268D01*
X108779Y21236D01*
X109622Y20393D01*
X110654Y19797D01*
X111805Y19488D01*
X112998D01*
X113137Y19526D01*
X113534Y19221D01*
Y15748D01*
X113721Y15296D01*
X114173Y15109D01*
X145669D01*
X146121Y15296D01*
X146309Y15748D01*
Y24951D01*
X151906D01*
X152023Y25000D01*
X152150D01*
X152240Y25090D01*
X152357Y25139D01*
X152406Y25256D01*
X152496Y25346D01*
X152703Y25846D01*
Y25973D01*
X152752Y26091D01*
X152703Y26208D01*
Y26335D01*
X152632Y26406D01*
X152411Y26940D01*
Y27391D01*
X152583Y27807D01*
X152902Y28125D01*
X153318Y28298D01*
X153769D01*
X154185Y28125D01*
X154503Y27807D01*
X154676Y27391D01*
Y26940D01*
X154455Y26406D01*
X154383Y26335D01*
Y26208D01*
X154335Y26091D01*
X154383Y25973D01*
Y25846D01*
X154591Y25346D01*
X154680Y25256D01*
X154729Y25139D01*
X154847Y25090D01*
X154937Y25000D01*
X155064D01*
X155181Y24951D01*
X165354D01*
X165806Y25139D01*
X165993Y25591D01*
Y47244D01*
X165806Y47696D01*
X165491Y47827D01*
X165590Y48327D01*
X167028D01*
Y56398D01*
X164491D01*
Y73622D01*
X167717D01*
Y91732D01*
X157480D01*
Y73622D01*
X159328D01*
Y56398D01*
X155413D01*
Y48383D01*
X155413Y48327D01*
X155277Y47883D01*
X150235D01*
X150098Y48327D01*
X150098Y48383D01*
Y56398D01*
X138484D01*
Y54943D01*
X136008D01*
X135957Y55200D01*
X135701Y55583D01*
X135318Y55838D01*
X134867Y55928D01*
X131472D01*
X131020Y55838D01*
X130638Y55583D01*
X130382Y55200D01*
X130292Y54749D01*
Y49975D01*
X130382Y49524D01*
X130638Y49142D01*
X131020Y48886D01*
X131472Y48796D01*
X134867D01*
X135318Y48886D01*
X135701Y49142D01*
X135957Y49524D01*
X136008Y49781D01*
X138484D01*
Y48383D01*
X138484Y48327D01*
X138348Y47883D01*
X135827D01*
X135375Y47696D01*
X135188Y47244D01*
Y36860D01*
X114173D01*
X113721Y36672D01*
X113534Y36220D01*
Y28810D01*
X113137Y28506D01*
X112998Y28543D01*
X111805D01*
X110654Y28235D01*
X110077Y27902D01*
X105828Y32150D01*
Y83893D01*
X131559Y109623D01*
X131798Y109981D01*
X131882Y110404D01*
Y120478D01*
X179599Y168195D01*
X180099Y167988D01*
Y16164D01*
X164939Y1003D01*
X12227Y1003D01*
X-2933Y16164D01*
Y46093D01*
X-2472Y46284D01*
X9624Y34188D01*
Y18504D01*
X9646Y18397D01*
Y11909D01*
X24409D01*
Y19587D01*
X11832D01*
Y34646D01*
X11748Y35068D01*
X11509Y35426D01*
X-1160Y48095D01*
Y249543D01*
X15340Y266043D01*
X15903D01*
X16555Y266313D01*
X17053Y266811D01*
X17323Y267462D01*
Y268167D01*
X17053Y268818D01*
X16555Y269317D01*
X15903Y269586D01*
X15199D01*
X14547Y269317D01*
X14049Y268818D01*
X13779Y268167D01*
Y267604D01*
X-2472Y251353D01*
X-2933Y251545D01*
Y357852D01*
X11854Y372640D01*
X12354Y372433D01*
Y371655D01*
X12541Y371203D01*
X12993Y371016D01*
X18899D01*
X19351Y371203D01*
X19538Y371655D01*
Y373012D01*
X34106D01*
Y371655D01*
X34293Y371203D01*
X34745Y371016D01*
X40651D01*
X41103Y371203D01*
X41290Y371655D01*
Y373012D01*
X136172Y373012D01*
Y370866D01*
X136359Y370414D01*
X136811Y370227D01*
X143504D01*
X143956Y370414D01*
X144143Y370866D01*
Y373012D01*
X156647D01*
Y370866D01*
D02*
G37*
G36*
X60904Y316472D02*
Y313460D01*
X60827Y312992D01*
X60404Y312992D01*
X53937D01*
Y312226D01*
X53150D01*
Y312500D01*
X51842D01*
Y314744D01*
X51919D01*
X52303Y314821D01*
X52628Y315038D01*
X52846Y315364D01*
X52922Y315748D01*
Y318898D01*
X52846Y319282D01*
X52628Y319607D01*
X52303Y319825D01*
X51919Y319901D01*
X49557D01*
X49173Y319825D01*
X48847Y319607D01*
X48630Y319282D01*
X48553Y318898D01*
Y315748D01*
X48630Y315364D01*
X48847Y315038D01*
X49173Y314821D01*
X49557Y314744D01*
X49634D01*
Y311417D01*
X49646Y311358D01*
Y309547D01*
X53150D01*
Y310018D01*
X53937D01*
Y309449D01*
X60762D01*
X60827Y309449D01*
X61327Y309553D01*
X63189Y307691D01*
Y305709D01*
X70079D01*
Y309252D01*
X64750D01*
X63112Y310890D01*
Y312721D01*
X63189Y313189D01*
X63612Y313189D01*
X68518D01*
X70746Y310960D01*
Y304000D01*
X68518Y301772D01*
X63189D01*
Y298228D01*
X68518D01*
X72124Y294621D01*
Y287621D01*
X70325D01*
X69883Y287533D01*
X69509Y287283D01*
X69259Y286908D01*
X69171Y286467D01*
Y283219D01*
X69259Y282777D01*
X69509Y282402D01*
X69883Y282152D01*
X70325Y282064D01*
X76132D01*
X76573Y282152D01*
X76948Y282402D01*
X77198Y282777D01*
X77286Y283219D01*
Y286467D01*
X77198Y286908D01*
X76948Y287283D01*
X76573Y287533D01*
X76132Y287621D01*
X74332D01*
Y295079D01*
X74248Y295501D01*
X74009Y295859D01*
X70079Y299790D01*
Y300210D01*
X72631Y302763D01*
X72870Y303121D01*
X72954Y303543D01*
Y311417D01*
X72870Y311840D01*
X72631Y312198D01*
X70079Y314750D01*
Y315502D01*
X70541Y315693D01*
X87649Y298585D01*
Y276859D01*
X87149Y276793D01*
X87083Y277040D01*
X86588Y277897D01*
X85889Y278596D01*
X85032Y279090D01*
X84083Y279345D01*
Y275590D01*
Y271836D01*
X85032Y272091D01*
X85889Y272585D01*
X86588Y273284D01*
X87083Y274141D01*
X87149Y274388D01*
X87649Y274322D01*
Y256789D01*
X87149Y256581D01*
X86759Y256972D01*
X85872Y257484D01*
X84882Y257749D01*
X83858D01*
X82868Y257484D01*
X81981Y256972D01*
X81257Y256247D01*
X80745Y255360D01*
X80480Y254370D01*
Y253346D01*
X80745Y252357D01*
X81257Y251469D01*
X81981Y250745D01*
X82868Y250233D01*
X83858Y249968D01*
X84882D01*
X85872Y250233D01*
X86759Y250745D01*
X87149Y251135D01*
X87649Y250928D01*
Y157833D01*
X87149Y157578D01*
X86671Y157776D01*
X85966D01*
X85315Y157506D01*
X84817Y157008D01*
X84547Y156356D01*
Y155651D01*
X84817Y155000D01*
X85315Y154502D01*
X85966Y154232D01*
X86671D01*
X87149Y154430D01*
X87649Y154175D01*
Y122576D01*
X86923Y121850D01*
X86360D01*
X85709Y121581D01*
X85211Y121082D01*
X85052Y120698D01*
X84479Y120564D01*
X72068Y132974D01*
Y134791D01*
X71984Y135213D01*
X71745Y135571D01*
X31150Y176167D01*
Y179235D01*
X31547Y179633D01*
X31817Y180284D01*
Y180989D01*
X31547Y181640D01*
X31049Y182138D01*
X30398Y182408D01*
X29693D01*
X29042Y182138D01*
X28821Y181917D01*
X28520Y181657D01*
X28168Y181917D01*
X27972Y182112D01*
X27321Y182382D01*
X26616D01*
X26155Y182191D01*
X25871Y182615D01*
X65643Y222386D01*
X65882Y222744D01*
X65966Y223167D01*
Y250528D01*
X66428Y250719D01*
X66730Y250417D01*
X67710Y249851D01*
X68804Y249558D01*
X68870D01*
Y253858D01*
Y258158D01*
X68804D01*
X67710Y257865D01*
X66730Y257299D01*
X66428Y256997D01*
X65966Y257189D01*
Y290748D01*
X70079D01*
Y294291D01*
X63189D01*
Y293624D01*
X55341D01*
X55133Y294124D01*
X55498Y294488D01*
X60827D01*
Y298031D01*
X53937D01*
Y297050D01*
X53596Y296918D01*
X53437Y296903D01*
X52972Y297368D01*
X52965Y297371D01*
X52878Y297896D01*
X52894Y297941D01*
X53092Y298238D01*
X53169Y298622D01*
Y301772D01*
X53092Y302156D01*
X52875Y302481D01*
Y302834D01*
X53092Y303159D01*
X53169Y303543D01*
Y306693D01*
X53092Y307077D01*
X52875Y307402D01*
X52549Y307620D01*
X52165Y307696D01*
X49967D01*
X46253Y311410D01*
X45895Y311650D01*
X45472Y311734D01*
X44842D01*
Y312500D01*
X41339D01*
Y309547D01*
X43378D01*
X43484Y309526D01*
X45015D01*
X46427Y308114D01*
X46180Y307654D01*
X45965Y307696D01*
X43603D01*
X43219Y307620D01*
X42893Y307402D01*
X42676Y307077D01*
X42600Y306693D01*
Y306222D01*
X23055D01*
X22657Y306620D01*
X22350Y306747D01*
X22232Y307337D01*
X31705Y316810D01*
X42353D01*
Y315748D01*
X42430Y315364D01*
X42647Y315038D01*
X42973Y314821D01*
X43357Y314744D01*
X45719D01*
X46103Y314821D01*
X46428Y315038D01*
X46646Y315364D01*
X46722Y315748D01*
Y318898D01*
X46646Y319282D01*
X46428Y319607D01*
X46423Y319665D01*
X47504Y320746D01*
X56629D01*
X60904Y316472D01*
D02*
G37*
G36*
X165292Y233292D02*
Y232785D01*
X170867D01*
Y232285D01*
X171367D01*
Y224413D01*
X172310Y224537D01*
X173655Y225094D01*
X174810Y225980D01*
X175696Y227135D01*
X175857Y227523D01*
X176357Y227424D01*
Y170634D01*
X169595Y163872D01*
X169095Y164079D01*
Y169685D01*
X158465D01*
Y163386D01*
X168401D01*
X168608Y162886D01*
X128830Y123107D01*
X128368Y123299D01*
Y128972D01*
X135134Y135738D01*
X135558Y135455D01*
X135531Y135392D01*
Y134687D01*
X135801Y134036D01*
X136300Y133537D01*
X136951Y133268D01*
X137655D01*
X138307Y133537D01*
X138805Y134036D01*
X139075Y134687D01*
Y135392D01*
X138805Y136043D01*
X138307Y136541D01*
X137655Y136811D01*
X136951D01*
X136888Y136785D01*
X136605Y137209D01*
X157572Y158176D01*
X157811Y158534D01*
X157895Y158957D01*
Y197977D01*
X158299Y198298D01*
X159158Y197942D01*
X160238Y197800D01*
X161317Y197942D01*
X162322Y198359D01*
X163186Y199021D01*
X163848Y199885D01*
X164265Y200890D01*
X164407Y201970D01*
Y203544D01*
X164265Y204624D01*
X163848Y205629D01*
X163186Y206493D01*
X162322Y207155D01*
X161317Y207572D01*
X160238Y207714D01*
X159158Y207572D01*
X158153Y207155D01*
X157289Y206493D01*
X156627Y205629D01*
X156210Y204624D01*
X156068Y203544D01*
Y201970D01*
X156210Y200890D01*
X156616Y199910D01*
X156011Y199304D01*
X155772Y198946D01*
X155687Y198523D01*
Y159414D01*
X127255Y130981D01*
X126793Y131173D01*
Y137378D01*
X127191Y137776D01*
X127461Y138427D01*
Y139132D01*
X127191Y139783D01*
X126692Y140281D01*
X126041Y140551D01*
X125337D01*
X124685Y140281D01*
X124187Y139783D01*
X123917Y139132D01*
Y138427D01*
X124187Y137776D01*
X124585Y137378D01*
Y120966D01*
X124112Y120806D01*
X123898Y121083D01*
X122953Y121809D01*
X121851Y122265D01*
X120669Y122421D01*
X118840D01*
Y177185D01*
X120669D01*
X121851Y177341D01*
X122953Y177797D01*
X123898Y178523D01*
X124624Y179469D01*
X125080Y180570D01*
X125236Y181752D01*
X125080Y182934D01*
X124624Y184035D01*
X123898Y184981D01*
X122953Y185707D01*
X121851Y186163D01*
X120669Y186319D01*
X112795D01*
X111613Y186163D01*
X110512Y185707D01*
X109566Y184981D01*
X108841Y184035D01*
X108384Y182934D01*
X108229Y181752D01*
X108384Y180570D01*
X108841Y179469D01*
X109566Y178523D01*
X110512Y177797D01*
X111613Y177341D01*
X112795Y177185D01*
X114625D01*
Y122421D01*
X112795D01*
X111613Y122265D01*
X110512Y121809D01*
X109566Y121083D01*
X108841Y120138D01*
X108384Y119036D01*
X108229Y117854D01*
X108384Y116672D01*
X108841Y115571D01*
X109566Y114625D01*
X110512Y113900D01*
X111613Y113443D01*
X112795Y113288D01*
X120669D01*
X121851Y113443D01*
X122953Y113900D01*
X123898Y114625D01*
X124112Y114903D01*
X124585Y114742D01*
Y112465D01*
X122574Y110454D01*
X99925D01*
X99734Y110916D01*
X101052Y112235D01*
X101292Y112593D01*
X101376Y113015D01*
Y117186D01*
X101292Y117608D01*
X101052Y117967D01*
X99213Y119807D01*
Y120431D01*
X98943Y121082D01*
X98444Y121581D01*
X97793Y121850D01*
X97088D01*
X96437Y121581D01*
X95939Y121082D01*
X95797Y120739D01*
X95297Y120838D01*
Y178480D01*
X105302Y188485D01*
X136790D01*
X137212Y188569D01*
X137570Y188808D01*
X145959Y197197D01*
X146198Y197555D01*
X146282Y197978D01*
Y199790D01*
X146782Y199889D01*
X146784Y199885D01*
X147447Y199021D01*
X148310Y198359D01*
X149316Y197942D01*
X150395Y197800D01*
X151474Y197942D01*
X152480Y198359D01*
X153343Y199021D01*
X154006Y199885D01*
X154422Y200890D01*
X154564Y201970D01*
Y203544D01*
X154422Y204624D01*
X154006Y205629D01*
X153343Y206493D01*
X152480Y207155D01*
X151474Y207572D01*
X150395Y207714D01*
X149316Y207572D01*
X148310Y207155D01*
X147447Y206493D01*
X146784Y205629D01*
X146782Y205625D01*
X146282Y205725D01*
Y214935D01*
X164830Y233483D01*
X165292Y233292D01*
D02*
G37*
G36*
X165354Y25591D02*
X155181D01*
X154974Y26091D01*
X155045Y26162D01*
X155315Y26813D01*
Y27518D01*
X155045Y28169D01*
X154547Y28667D01*
X153896Y28937D01*
X153191D01*
X152540Y28667D01*
X152041Y28169D01*
X151772Y27518D01*
Y26813D01*
X152041Y26162D01*
X152113Y26091D01*
X151906Y25591D01*
X145669D01*
Y15748D01*
X114173D01*
Y19811D01*
X115182Y20393D01*
X116024Y21236D01*
X116621Y22268D01*
X116929Y23420D01*
Y24612D01*
X116621Y25763D01*
X116024Y26796D01*
X115182Y27639D01*
X114173Y28221D01*
Y36220D01*
X135827D01*
Y47244D01*
X165354D01*
Y25591D01*
D02*
G37*
%LPC*%
G36*
X171367Y362204D02*
Y354832D01*
X176443D01*
Y356694D01*
X176253Y358137D01*
X175696Y359482D01*
X174810Y360636D01*
X173655Y361522D01*
X172310Y362079D01*
X171367Y362204D01*
D02*
G37*
G36*
X47745Y362204D02*
Y354832D01*
X52821D01*
Y356694D01*
X52631Y358137D01*
X52074Y359482D01*
X51188Y360636D01*
X50033Y361522D01*
X48688Y362079D01*
X47745Y362204D01*
D02*
G37*
G36*
X46745Y362204D02*
X45802Y362079D01*
X44458Y361522D01*
X43303Y360636D01*
X42417Y359482D01*
X41860Y358137D01*
X41670Y356694D01*
Y354832D01*
X46745D01*
Y362204D01*
D02*
G37*
G36*
X170367D02*
X169424Y362079D01*
X168080Y361522D01*
X166925Y360636D01*
X166039Y359482D01*
X165482Y358137D01*
X165292Y356694D01*
Y354832D01*
X170367D01*
Y362204D01*
D02*
G37*
G36*
X130422D02*
Y354832D01*
X135498D01*
Y356694D01*
X135308Y358137D01*
X134751Y359482D01*
X133865Y360636D01*
X132710Y361522D01*
X131366Y362079D01*
X130422Y362204D01*
D02*
G37*
G36*
X129422D02*
X128480Y362079D01*
X127135Y361522D01*
X125980Y360636D01*
X125094Y359482D01*
X124537Y358137D01*
X124347Y356694D01*
Y354832D01*
X129422D01*
Y362204D01*
D02*
G37*
G36*
X6801D02*
Y354832D01*
X11876D01*
Y356694D01*
X11686Y358137D01*
X11129Y359482D01*
X10243Y360636D01*
X9088Y361522D01*
X7744Y362079D01*
X6801Y362204D01*
D02*
G37*
G36*
X5801D02*
X4857Y362079D01*
X3513Y361522D01*
X2358Y360636D01*
X1472Y359482D01*
X915Y358137D01*
X725Y356694D01*
Y354832D01*
X5801D01*
Y362204D01*
D02*
G37*
G36*
X46745Y353832D02*
X41670D01*
Y351970D01*
X41860Y350527D01*
X42417Y349182D01*
X43303Y348027D01*
X44458Y347141D01*
X45802Y346584D01*
X46745Y346460D01*
Y353832D01*
D02*
G37*
G36*
X176443D02*
X171367D01*
Y346460D01*
X172310Y346584D01*
X173655Y347141D01*
X174810Y348027D01*
X175696Y349182D01*
X176253Y350527D01*
X176443Y351970D01*
Y353832D01*
D02*
G37*
G36*
X135498Y353832D02*
X130422D01*
Y346460D01*
X131366Y346584D01*
X132710Y347141D01*
X133865Y348027D01*
X134751Y349182D01*
X135308Y350527D01*
X135498Y351970D01*
Y353832D01*
D02*
G37*
G36*
X129422D02*
X124347D01*
Y351970D01*
X124537Y350527D01*
X125094Y349182D01*
X125980Y348027D01*
X127135Y347141D01*
X128480Y346584D01*
X129422Y346460D01*
Y353832D01*
D02*
G37*
G36*
X11876D02*
X6801D01*
Y346460D01*
X7744Y346584D01*
X9088Y347141D01*
X10243Y348027D01*
X11129Y349182D01*
X11686Y350527D01*
X11876Y351970D01*
Y353832D01*
D02*
G37*
G36*
X5801D02*
X725D01*
Y351970D01*
X915Y350527D01*
X1472Y349182D01*
X2358Y348027D01*
X3513Y347141D01*
X4857Y346584D01*
X5801Y346460D01*
Y353832D01*
D02*
G37*
G36*
X170367Y353832D02*
X165292D01*
Y351970D01*
X165482Y350527D01*
X166039Y349182D01*
X166925Y348027D01*
X168080Y347141D01*
X169424Y346584D01*
X170367Y346460D01*
Y353832D01*
D02*
G37*
G36*
X52821D02*
X47745D01*
Y346460D01*
X48688Y346584D01*
X50033Y347141D01*
X51188Y348027D01*
X52074Y349182D01*
X52631Y350527D01*
X52821Y351970D01*
Y353832D01*
D02*
G37*
G36*
X83719Y339075D02*
X83014D01*
X82363Y338805D01*
X81864Y338307D01*
X81595Y337655D01*
Y336951D01*
X81864Y336300D01*
X82363Y335801D01*
X83014Y335531D01*
X83719D01*
X84370Y335801D01*
X84868Y336300D01*
X85138Y336951D01*
Y337655D01*
X84868Y338307D01*
X84370Y338805D01*
X83719Y339075D01*
D02*
G37*
G36*
X73187Y339026D02*
X72482D01*
X71831Y338756D01*
X71333Y338258D01*
X71063Y337606D01*
Y336901D01*
X71333Y336250D01*
X71831Y335752D01*
X72482Y335482D01*
X73187D01*
X73838Y335752D01*
X74337Y336250D01*
X74606Y336901D01*
Y337606D01*
X74337Y338258D01*
X73838Y338756D01*
X73187Y339026D01*
D02*
G37*
G36*
X163979Y338437D02*
X157286D01*
X156834Y338250D01*
X156647Y337798D01*
Y335042D01*
X156834Y334590D01*
X157286Y334402D01*
X163979D01*
X164431Y334590D01*
X164618Y335042D01*
Y337798D01*
X164431Y338250D01*
X163979Y338437D01*
D02*
G37*
G36*
X143504Y338437D02*
X136811D01*
X136359Y338250D01*
X136172Y337798D01*
Y335042D01*
X136359Y334590D01*
X136811Y334402D01*
X143504D01*
X143956Y334590D01*
X144143Y335042D01*
Y337798D01*
X143956Y338250D01*
X143504Y338437D01*
D02*
G37*
G36*
X40454Y337747D02*
X34647D01*
X34195Y337560D01*
X34008Y337107D01*
Y335040D01*
X34195Y334589D01*
X34647Y334401D01*
X40454D01*
X40906Y334589D01*
X41093Y335040D01*
Y337107D01*
X40906Y337560D01*
X40454Y337747D01*
D02*
G37*
G36*
X18801Y337648D02*
X13092D01*
X12640Y337461D01*
X12453Y337009D01*
Y334832D01*
X12640Y334380D01*
X13092Y334193D01*
X18801D01*
X19252Y334380D01*
X19440Y334832D01*
Y337009D01*
X19252Y337461D01*
X18801Y337648D01*
D02*
G37*
G36*
X150395Y329761D02*
X149316Y329619D01*
X148310Y329203D01*
X147447Y328540D01*
X146784Y327677D01*
X146368Y326671D01*
X146267Y325908D01*
X144686D01*
Y329726D01*
X136419D01*
Y319883D01*
X144686D01*
Y323700D01*
X146267D01*
X146368Y322938D01*
X146784Y321932D01*
X147447Y321069D01*
X148310Y320406D01*
X149291Y320000D01*
Y318799D01*
X146555D01*
Y304035D01*
X154232D01*
Y318799D01*
X151499D01*
Y320000D01*
X152480Y320406D01*
X153343Y321069D01*
X154006Y321932D01*
X154422Y322938D01*
X154564Y324017D01*
Y325592D01*
X154422Y326671D01*
X154006Y327677D01*
X153343Y328540D01*
X152480Y329203D01*
X151474Y329619D01*
X150395Y329761D01*
D02*
G37*
G36*
X21474Y330135D02*
X17430D01*
Y325304D01*
X21474D01*
Y330135D01*
D02*
G37*
G36*
X16430D02*
X12387D01*
Y325304D01*
X16430D01*
Y330135D01*
D02*
G37*
G36*
X26773Y329761D02*
X25694Y329619D01*
X24688Y329203D01*
X23825Y328540D01*
X23162Y327677D01*
X22746Y326671D01*
X22603Y325592D01*
Y324017D01*
X22746Y322938D01*
X23162Y321932D01*
X23825Y321069D01*
X24688Y320406D01*
X25694Y319989D01*
X26773Y319847D01*
X27852Y319989D01*
X28858Y320406D01*
X29721Y321069D01*
X30384Y321932D01*
X30800Y322938D01*
X30942Y324017D01*
Y325592D01*
X30800Y326671D01*
X30384Y327677D01*
X29721Y328540D01*
X28858Y329203D01*
X27852Y329619D01*
X26773Y329761D01*
D02*
G37*
G36*
X21474Y324304D02*
X17430D01*
Y319474D01*
X21474D01*
Y324304D01*
D02*
G37*
G36*
X16430D02*
X12387D01*
Y319474D01*
X16430D01*
Y324304D01*
D02*
G37*
G36*
X67872Y358268D02*
X67167D01*
X66516Y357998D01*
X66018Y357500D01*
X65748Y356849D01*
Y356144D01*
X66018Y355492D01*
X66516Y354994D01*
X67167Y354724D01*
X67872D01*
X68523Y354994D01*
X68921Y355392D01*
X78873D01*
X90432Y343834D01*
Y314237D01*
X89482Y313287D01*
X88919D01*
X88268Y313018D01*
X87770Y312519D01*
X87500Y311868D01*
Y311163D01*
X87627Y310856D01*
X87293Y310356D01*
X84709D01*
X83563Y311502D01*
Y312065D01*
X83293Y312716D01*
X82795Y313214D01*
X82144Y313484D01*
X81581D01*
X62521Y332544D01*
Y345843D01*
X62919Y346240D01*
X63189Y346892D01*
Y347597D01*
X62919Y348248D01*
X62421Y348746D01*
X61770Y349016D01*
X61065D01*
X60414Y348746D01*
X59915Y348248D01*
X59646Y347597D01*
Y346892D01*
X59915Y346240D01*
X60313Y345843D01*
Y332087D01*
X60397Y331664D01*
X60637Y331306D01*
X80020Y311923D01*
Y311360D01*
X80289Y310709D01*
X80788Y310211D01*
X81439Y309941D01*
X82002D01*
X83471Y308471D01*
X83829Y308232D01*
X84252Y308148D01*
X90429D01*
X90827Y307750D01*
X91478Y307480D01*
X92183D01*
X92834Y307750D01*
X93333Y308248D01*
X93602Y308900D01*
Y309604D01*
X93333Y310256D01*
X92834Y310754D01*
X92183Y311024D01*
X91505D01*
X91463Y311036D01*
X91171Y311279D01*
X91152Y311835D01*
X92316Y312999D01*
X92555Y313357D01*
X92639Y313779D01*
Y344291D01*
X92555Y344714D01*
X92316Y345072D01*
X80111Y357277D01*
X79753Y357516D01*
X79331Y357600D01*
X68921D01*
X68523Y357998D01*
X67872Y358268D01*
D02*
G37*
G36*
X118561Y301279D02*
X117856D01*
X117205Y301010D01*
X116707Y300511D01*
X116437Y299860D01*
Y299155D01*
X116707Y298504D01*
X117205Y298006D01*
X117856Y297736D01*
X118561D01*
X119212Y298006D01*
X119711Y298504D01*
X119980Y299155D01*
Y299860D01*
X119711Y300511D01*
X119212Y301010D01*
X118561Y301279D01*
D02*
G37*
G36*
X12252Y303748D02*
X5071D01*
Y296567D01*
X12252D01*
Y303748D01*
D02*
G37*
G36*
X154642Y298146D02*
X150894D01*
Y290854D01*
X154642D01*
Y298146D01*
D02*
G37*
G36*
X149894D02*
X146146D01*
Y290854D01*
X149894D01*
Y298146D01*
D02*
G37*
G36*
X9188Y294158D02*
X9161D01*
Y290657D01*
X12661D01*
Y290684D01*
X12389Y291701D01*
X11862Y292614D01*
X11118Y293358D01*
X10205Y293885D01*
X9188Y294158D01*
D02*
G37*
G36*
X8161D02*
X8135D01*
X7118Y293885D01*
X6205Y293358D01*
X5461Y292614D01*
X4934Y291701D01*
X4661Y290684D01*
Y290657D01*
X8161D01*
Y294158D01*
D02*
G37*
G36*
X12661Y289657D02*
X9161D01*
Y286157D01*
X9188D01*
X10205Y286430D01*
X11118Y286957D01*
X11862Y287701D01*
X12389Y288614D01*
X12661Y289631D01*
Y289657D01*
D02*
G37*
G36*
X8161D02*
X4661D01*
Y289631D01*
X4934Y288614D01*
X5461Y287701D01*
X6205Y286957D01*
X7118Y286430D01*
X8135Y286157D01*
X8161D01*
Y289657D01*
D02*
G37*
G36*
X149894Y289854D02*
X146146D01*
Y282563D01*
X149894D01*
Y289854D01*
D02*
G37*
G36*
X130569Y295472D02*
X129864D01*
X129213Y295203D01*
X128715Y294704D01*
X128445Y294053D01*
Y293348D01*
X128715Y292697D01*
X129137Y292275D01*
Y280300D01*
X128764Y279927D01*
X128494Y279275D01*
Y278571D01*
X128621Y278263D01*
X128287Y277763D01*
X120845D01*
X120571Y278038D01*
Y278600D01*
X120301Y279252D01*
X119803Y279750D01*
X119152Y280020D01*
X118447D01*
X117796Y279750D01*
X117297Y279252D01*
X117028Y278600D01*
Y277896D01*
X117297Y277244D01*
X117796Y276746D01*
X118447Y276476D01*
X119010D01*
X119607Y275879D01*
X119966Y275639D01*
X120388Y275555D01*
X128544D01*
X128751Y275055D01*
X128518Y274822D01*
X128248Y274171D01*
Y273608D01*
X125084Y270445D01*
X108484D01*
Y270522D01*
X108407Y270906D01*
X108190Y271232D01*
X107864Y271449D01*
X107480Y271526D01*
X104331D01*
X103947Y271449D01*
X103621Y271232D01*
X103404Y270906D01*
X103327Y270522D01*
Y268160D01*
X103404Y267776D01*
X103621Y267450D01*
X103947Y267233D01*
X104331Y267156D01*
X107480D01*
X107864Y267233D01*
X108190Y267450D01*
X108407Y267776D01*
X108484Y268160D01*
Y268237D01*
X125542D01*
X125964Y268321D01*
X126322Y268560D01*
X129809Y272047D01*
X130372D01*
X131023Y272317D01*
X131522Y272815D01*
X131791Y273466D01*
Y274171D01*
X131522Y274822D01*
X131289Y275055D01*
X131496Y275555D01*
X138617D01*
X138717Y275055D01*
X138170Y274829D01*
X137671Y274330D01*
X137402Y273679D01*
Y272974D01*
X137671Y272323D01*
X138170Y271825D01*
X138821Y271555D01*
X139526D01*
X140177Y271825D01*
X140675Y272323D01*
X140945Y272974D01*
Y273679D01*
X140675Y274330D01*
X140177Y274829D01*
X139630Y275055D01*
X139729Y275555D01*
X152868D01*
X153291Y275639D01*
X153649Y275879D01*
X161017Y283247D01*
X161256Y283605D01*
X161340Y284027D01*
Y286295D01*
X161738Y286693D01*
X162008Y287345D01*
Y288049D01*
X161738Y288700D01*
X161240Y289199D01*
X160589Y289469D01*
X159884D01*
X159233Y289199D01*
X158734Y288700D01*
X158547Y288248D01*
X158006D01*
X157900Y288504D01*
X157401Y289002D01*
X156750Y289272D01*
X156045D01*
X155394Y289002D01*
X155142Y288750D01*
X154642Y288957D01*
Y289854D01*
X150894D01*
Y282563D01*
X154212D01*
X154419Y282063D01*
X152383Y280027D01*
X131667D01*
X131345Y280349D01*
Y292324D01*
X131719Y292697D01*
X131988Y293348D01*
Y294053D01*
X131719Y294704D01*
X131220Y295203D01*
X130569Y295472D01*
D02*
G37*
G36*
X9134Y283748D02*
X8189D01*
X7276Y283503D01*
X6457Y283031D01*
X5788Y282362D01*
X5316Y281543D01*
X5071Y280630D01*
Y279685D01*
X5316Y278772D01*
X5788Y277953D01*
X6457Y277284D01*
X7276Y276812D01*
X8189Y276567D01*
X9134D01*
X10047Y276812D01*
X10866Y277284D01*
X11535Y277953D01*
X12007Y278772D01*
X12252Y279685D01*
Y280630D01*
X12007Y281543D01*
X11535Y282362D01*
X10866Y283031D01*
X10047Y283503D01*
X9134Y283748D01*
D02*
G37*
G36*
X39722Y271457D02*
X39018D01*
X38366Y271187D01*
X37868Y270689D01*
X37598Y270037D01*
Y269333D01*
X37868Y268682D01*
X38366Y268183D01*
X39018Y267913D01*
X39722D01*
X40374Y268183D01*
X40872Y268682D01*
X41142Y269333D01*
Y270037D01*
X40872Y270689D01*
X40374Y271187D01*
X39722Y271457D01*
D02*
G37*
G36*
X47386Y270169D02*
X45284D01*
Y267673D01*
X45965D01*
X46509Y267782D01*
X46970Y268090D01*
X47278Y268551D01*
X47386Y269094D01*
Y270169D01*
D02*
G37*
G36*
X44284D02*
X42182D01*
Y269094D01*
X42290Y268551D01*
X42598Y268090D01*
X43059Y267782D01*
X43603Y267673D01*
X44284D01*
Y270169D01*
D02*
G37*
G36*
X37402Y260075D02*
X35827D01*
X34748Y259933D01*
X33742Y259516D01*
X32879Y258854D01*
X32216Y257990D01*
X31799Y256985D01*
X31657Y255906D01*
X31799Y254826D01*
X32216Y253821D01*
X32879Y252957D01*
X33742Y252295D01*
X34748Y251878D01*
X35827Y251736D01*
X37402D01*
X38481Y251878D01*
X39486Y252295D01*
X40350Y252957D01*
X41012Y253821D01*
X41429Y254826D01*
X41571Y255906D01*
X41429Y256985D01*
X41012Y257990D01*
X40350Y258854D01*
X39486Y259516D01*
X38481Y259933D01*
X37402Y260075D01*
D02*
G37*
G36*
X17717D02*
X16142D01*
X15063Y259933D01*
X14057Y259516D01*
X13193Y258854D01*
X12531Y257990D01*
X12114Y256985D01*
X11972Y255906D01*
X12114Y254826D01*
X12531Y253821D01*
X13193Y252957D01*
X14057Y252295D01*
X15063Y251878D01*
X16142Y251736D01*
X17717D01*
X18796Y251878D01*
X19801Y252295D01*
X20665Y252957D01*
X21327Y253821D01*
X21744Y254826D01*
X21886Y255906D01*
X21744Y256985D01*
X21327Y257990D01*
X20665Y258854D01*
X19801Y259516D01*
X18796Y259933D01*
X17717Y260075D01*
D02*
G37*
G36*
X142521Y251625D02*
X136615D01*
X136163Y251437D01*
X135976Y250985D01*
Y249607D01*
X136163Y249155D01*
X136615Y248968D01*
X142521D01*
X142973Y249155D01*
X143160Y249607D01*
Y250985D01*
X142973Y251437D01*
X142521Y251625D01*
D02*
G37*
G36*
X164273Y251625D02*
X158367D01*
X157915Y251437D01*
X157728Y250985D01*
Y249607D01*
X157915Y249155D01*
X158367Y248968D01*
X164273D01*
X164725Y249155D01*
X164912Y249607D01*
Y250985D01*
X164725Y251437D01*
X164273Y251625D01*
D02*
G37*
G36*
X43413Y240156D02*
Y232785D01*
X48489D01*
Y234647D01*
X48299Y236090D01*
X47742Y237435D01*
X46856Y238589D01*
X45701Y239475D01*
X44356Y240032D01*
X43413Y240156D01*
D02*
G37*
G36*
X42413D02*
X41470Y240032D01*
X40126Y239475D01*
X38971Y238589D01*
X38085Y237435D01*
X37528Y236090D01*
X37338Y234647D01*
Y232785D01*
X42413D01*
Y240156D01*
D02*
G37*
G36*
X130422D02*
Y232785D01*
X135498D01*
Y234647D01*
X135308Y236090D01*
X134751Y237435D01*
X133865Y238589D01*
X132710Y239475D01*
X131366Y240032D01*
X130422Y240156D01*
D02*
G37*
G36*
X129422D02*
X128480Y240032D01*
X127135Y239475D01*
X125980Y238589D01*
X125094Y237435D01*
X124537Y236090D01*
X124347Y234647D01*
Y232785D01*
X129422D01*
Y240156D01*
D02*
G37*
G36*
X11130D02*
Y232785D01*
X16205D01*
Y234647D01*
X16015Y236090D01*
X15458Y237435D01*
X14572Y238589D01*
X13418Y239475D01*
X12073Y240032D01*
X11130Y240156D01*
D02*
G37*
G36*
X10130D02*
X9187Y240032D01*
X7842Y239475D01*
X6688Y238589D01*
X5802Y237435D01*
X5245Y236090D01*
X5055Y234647D01*
Y232785D01*
X10130D01*
Y240156D01*
D02*
G37*
G36*
X98778Y234055D02*
X98073D01*
X97422Y233785D01*
X96923Y233287D01*
X96653Y232636D01*
Y231931D01*
X96923Y231280D01*
X97422Y230782D01*
X98073Y230512D01*
X98778D01*
X99429Y230782D01*
X99927Y231280D01*
X100197Y231931D01*
Y232636D01*
X99927Y233287D01*
X99429Y233785D01*
X98778Y234055D01*
D02*
G37*
G36*
X48489Y231785D02*
X43413D01*
Y224413D01*
X44356Y224537D01*
X45701Y225094D01*
X46856Y225980D01*
X47742Y227135D01*
X48299Y228479D01*
X48489Y229922D01*
Y231785D01*
D02*
G37*
G36*
X135498Y231785D02*
X130422D01*
Y224413D01*
X131366Y224537D01*
X132710Y225094D01*
X133865Y225980D01*
X134751Y227135D01*
X135308Y228479D01*
X135498Y229922D01*
Y231785D01*
D02*
G37*
G36*
X129422D02*
X124347D01*
Y229922D01*
X124537Y228479D01*
X125094Y227135D01*
X125980Y225980D01*
X127135Y225094D01*
X128480Y224537D01*
X129422Y224413D01*
Y231785D01*
D02*
G37*
G36*
X16205D02*
X11130D01*
Y224413D01*
X12073Y224537D01*
X13418Y225094D01*
X14572Y225980D01*
X15458Y227135D01*
X16015Y228479D01*
X16205Y229922D01*
Y231785D01*
D02*
G37*
G36*
X10130D02*
X5055D01*
Y229922D01*
X5245Y228479D01*
X5802Y227135D01*
X6688Y225980D01*
X7842Y225094D01*
X9187Y224537D01*
X10130Y224413D01*
Y231785D01*
D02*
G37*
G36*
X42413Y231785D02*
X37338D01*
Y229922D01*
X37528Y228479D01*
X38085Y227135D01*
X38971Y225980D01*
X40126Y225094D01*
X41470Y224537D01*
X42413Y224413D01*
Y231785D01*
D02*
G37*
G36*
X21064Y213583D02*
X12797D01*
Y203740D01*
X21064D01*
Y213583D01*
D02*
G37*
G36*
X36615Y213618D02*
X35536Y213476D01*
X34531Y213060D01*
X33667Y212397D01*
X33005Y211534D01*
X32588Y210528D01*
X32446Y209449D01*
Y207874D01*
X32588Y206795D01*
X33005Y205789D01*
X33667Y204926D01*
X34531Y204263D01*
X35536Y203847D01*
X36615Y203705D01*
X37695Y203847D01*
X38700Y204263D01*
X39564Y204926D01*
X40226Y205789D01*
X40643Y206795D01*
X40785Y207874D01*
Y209449D01*
X40643Y210528D01*
X40226Y211534D01*
X39564Y212397D01*
X38700Y213060D01*
X37695Y213476D01*
X36615Y213618D01*
D02*
G37*
G36*
X1829Y183268D02*
X1124D01*
X473Y182998D01*
X-26Y182500D01*
X-295Y181849D01*
Y181144D01*
X-26Y180492D01*
X473Y179994D01*
X1124Y179724D01*
X1829D01*
X2480Y179994D01*
X2978Y180492D01*
X3248Y181144D01*
Y181849D01*
X2978Y182500D01*
X2480Y182998D01*
X1829Y183268D01*
D02*
G37*
G36*
X49565Y145472D02*
X48860D01*
X48209Y145203D01*
X47711Y144704D01*
X47441Y144053D01*
Y143348D01*
X47711Y142697D01*
X48209Y142199D01*
X48860Y141929D01*
X49565D01*
X50216Y142199D01*
X50714Y142697D01*
X50984Y143348D01*
Y144053D01*
X50714Y144704D01*
X50216Y145203D01*
X49565Y145472D01*
D02*
G37*
G36*
X26730Y145276D02*
X26026D01*
X25374Y145006D01*
X24876Y144508D01*
X24606Y143856D01*
Y143151D01*
X24876Y142500D01*
X25374Y142002D01*
X26026Y141732D01*
X26730D01*
X27382Y142002D01*
X27880Y142500D01*
X28150Y143151D01*
Y143856D01*
X27880Y144508D01*
X27382Y145006D01*
X26730Y145276D01*
D02*
G37*
G36*
X39370Y134960D02*
X35933D01*
Y130480D01*
X44284D01*
X44180Y131269D01*
X43683Y132470D01*
X42891Y133501D01*
X41860Y134293D01*
X40659Y134790D01*
X39370Y134960D01*
D02*
G37*
G36*
X14370D02*
X10933D01*
Y130480D01*
X19284D01*
X19180Y131269D01*
X18683Y132470D01*
X17891Y133501D01*
X16860Y134293D01*
X15659Y134790D01*
X14370Y134960D01*
D02*
G37*
G36*
X59933D02*
X56496D01*
X55207Y134790D01*
X54006Y134293D01*
X52975Y133501D01*
X52184Y132470D01*
X51686Y131269D01*
X51582Y130480D01*
X59933D01*
Y134960D01*
D02*
G37*
G36*
X34933D02*
X31496D01*
X30207Y134790D01*
X29006Y134293D01*
X27975Y133501D01*
X27184Y132470D01*
X26686Y131269D01*
X26582Y130480D01*
X34933D01*
Y134960D01*
D02*
G37*
G36*
X9933D02*
X6496D01*
X5207Y134790D01*
X4006Y134293D01*
X2975Y133501D01*
X2184Y132470D01*
X1686Y131269D01*
X1582Y130480D01*
X9933D01*
Y134960D01*
D02*
G37*
G36*
X169095Y136221D02*
X158465D01*
Y129921D01*
X169095D01*
Y136221D01*
D02*
G37*
G36*
X59933Y129480D02*
X51582D01*
X51686Y128691D01*
X52184Y127490D01*
X52975Y126459D01*
X54006Y125668D01*
X55207Y125170D01*
X56496Y125001D01*
X59933D01*
Y129480D01*
D02*
G37*
G36*
X44284D02*
X35933D01*
Y125001D01*
X39370D01*
X40659Y125170D01*
X41860Y125668D01*
X42891Y126459D01*
X43683Y127490D01*
X44180Y128691D01*
X44284Y129480D01*
D02*
G37*
G36*
X34933D02*
X26582D01*
X26686Y128691D01*
X27184Y127490D01*
X27975Y126459D01*
X29006Y125668D01*
X30207Y125170D01*
X31496Y125001D01*
X34933D01*
Y129480D01*
D02*
G37*
G36*
X19284D02*
X10933D01*
Y125001D01*
X14370D01*
X15659Y125170D01*
X16860Y125668D01*
X17891Y126459D01*
X18683Y127490D01*
X19180Y128691D01*
X19284Y129480D01*
D02*
G37*
G36*
X9933D02*
X1582D01*
X1686Y128691D01*
X2184Y127490D01*
X2975Y126459D01*
X4006Y125668D01*
X5207Y125170D01*
X6496Y125001D01*
X9933D01*
Y129480D01*
D02*
G37*
G36*
X170669Y122834D02*
X167232D01*
Y118354D01*
X175583D01*
X175479Y119143D01*
X174982Y120344D01*
X174190Y121376D01*
X173159Y122167D01*
X171958Y122664D01*
X170669Y122834D01*
D02*
G37*
G36*
X166232D02*
X162795D01*
X161506Y122664D01*
X160306Y122167D01*
X159274Y121376D01*
X158483Y120344D01*
X157985Y119143D01*
X157881Y118354D01*
X166232D01*
Y122834D01*
D02*
G37*
G36*
X145669D02*
X142232D01*
Y118354D01*
X150583D01*
X150479Y119143D01*
X149982Y120344D01*
X149190Y121376D01*
X148159Y122167D01*
X146958Y122664D01*
X145669Y122834D01*
D02*
G37*
G36*
X141232D02*
X137795D01*
X136506Y122664D01*
X135306Y122167D01*
X134274Y121376D01*
X133483Y120344D01*
X132985Y119143D01*
X132881Y118354D01*
X141232D01*
Y122834D01*
D02*
G37*
G36*
X175583Y117354D02*
X167232D01*
Y112875D01*
X170669D01*
X171958Y113044D01*
X173159Y113542D01*
X174190Y114333D01*
X174982Y115365D01*
X175479Y116566D01*
X175583Y117354D01*
D02*
G37*
G36*
X166232D02*
X157881D01*
X157985Y116566D01*
X158483Y115365D01*
X159274Y114333D01*
X160306Y113542D01*
X161506Y113044D01*
X162795Y112875D01*
X166232D01*
Y117354D01*
D02*
G37*
G36*
X150583D02*
X142232D01*
Y112875D01*
X145669D01*
X146958Y113044D01*
X148159Y113542D01*
X149190Y114333D01*
X149982Y115365D01*
X150479Y116566D01*
X150583Y117354D01*
D02*
G37*
G36*
X141232D02*
X132881D01*
X132985Y116566D01*
X133483Y115365D01*
X134274Y114333D01*
X135306Y113542D01*
X136506Y113044D01*
X137795Y112875D01*
X141232D01*
Y117354D01*
D02*
G37*
G36*
X18701Y117913D02*
X8071D01*
Y111614D01*
X18701D01*
Y117913D01*
D02*
G37*
G36*
X77321Y109252D02*
X76616D01*
X75965Y108982D01*
X75467Y108484D01*
X75197Y107833D01*
Y107128D01*
X75467Y106477D01*
X75965Y105978D01*
X76616Y105709D01*
X77321D01*
X77972Y105978D01*
X78470Y106477D01*
X78740Y107128D01*
Y107833D01*
X78470Y108484D01*
X77972Y108982D01*
X77321Y109252D01*
D02*
G37*
G36*
X159843Y106299D02*
X141732D01*
Y96063D01*
X159843D01*
Y106299D01*
D02*
G37*
G36*
X144504Y93126D02*
X139476D01*
Y83177D01*
X144504D01*
Y93126D01*
D02*
G37*
G36*
X138476D02*
X133449D01*
Y83177D01*
X138476D01*
Y93126D01*
D02*
G37*
G36*
X18701Y84449D02*
X8071D01*
Y78150D01*
X18701D01*
Y84449D01*
D02*
G37*
G36*
X144504Y82177D02*
X139476D01*
Y72228D01*
X144504D01*
Y82177D01*
D02*
G37*
G36*
X138476D02*
X133449D01*
Y72228D01*
X138476D01*
Y82177D01*
D02*
G37*
G36*
X39370Y71062D02*
X35933D01*
Y66583D01*
X44284D01*
X44180Y67371D01*
X43683Y68572D01*
X42891Y69604D01*
X41860Y70395D01*
X40659Y70893D01*
X39370Y71062D01*
D02*
G37*
G36*
X17339Y71020D02*
X10933D01*
Y66583D01*
X17339D01*
Y71020D01*
D02*
G37*
G36*
X9933D02*
X3528D01*
Y66583D01*
X9933D01*
Y71020D01*
D02*
G37*
G36*
X34933Y71062D02*
X31496D01*
X30207Y70893D01*
X29006Y70395D01*
X27975Y69604D01*
X27184Y68572D01*
X26686Y67371D01*
X26582Y66583D01*
X34933D01*
Y71062D01*
D02*
G37*
G36*
X64370Y70649D02*
X56496D01*
X55314Y70494D01*
X54213Y70038D01*
X53267Y69312D01*
X52541Y68366D01*
X52085Y67265D01*
X51929Y66083D01*
X52085Y64901D01*
X52541Y63799D01*
X53267Y62854D01*
X54213Y62128D01*
X55314Y61672D01*
X56496Y61516D01*
X64370D01*
X65552Y61672D01*
X66653Y62128D01*
X67599Y62854D01*
X68325Y63799D01*
X68781Y64901D01*
X68937Y66083D01*
X68781Y67265D01*
X68325Y68366D01*
X67599Y69312D01*
X66653Y70038D01*
X65552Y70494D01*
X64370Y70649D01*
D02*
G37*
G36*
X17339Y65583D02*
X10933D01*
Y61146D01*
X17339D01*
Y65583D01*
D02*
G37*
G36*
X9933D02*
X3528D01*
Y61146D01*
X9933D01*
Y65583D01*
D02*
G37*
G36*
X44284D02*
X35933D01*
Y61103D01*
X39370D01*
X40659Y61273D01*
X41860Y61770D01*
X42891Y62562D01*
X43683Y63593D01*
X44180Y64794D01*
X44284Y65583D01*
D02*
G37*
G36*
X34933D02*
X26582D01*
X26686Y64794D01*
X27184Y63593D01*
X27975Y62562D01*
X29006Y61770D01*
X30207Y61273D01*
X31496Y61103D01*
X34933D01*
Y65583D01*
D02*
G37*
G36*
X88314Y55512D02*
X87277D01*
X86276Y55243D01*
X85378Y54725D01*
X84645Y53992D01*
X84127Y53094D01*
X83858Y52093D01*
Y51056D01*
X84127Y50055D01*
X84645Y49157D01*
X85378Y48424D01*
X86276Y47906D01*
X87277Y47638D01*
X88314D01*
X89315Y47906D01*
X90213Y48424D01*
X90946Y49157D01*
X91464Y50055D01*
X91732Y51056D01*
Y52093D01*
X91464Y53094D01*
X90946Y53992D01*
X90213Y54725D01*
X89315Y55243D01*
X88314Y55512D01*
D02*
G37*
G36*
X120136Y46949D02*
X119431D01*
X118780Y46679D01*
X118281Y46181D01*
X118012Y45530D01*
Y44825D01*
X118281Y44174D01*
X118780Y43675D01*
X119431Y43406D01*
X120136D01*
X120787Y43675D01*
X121285Y44174D01*
X121555Y44825D01*
Y45530D01*
X121285Y46181D01*
X120787Y46679D01*
X120136Y46949D01*
D02*
G37*
G36*
X3699Y50000D02*
X2994D01*
X2343Y49730D01*
X1845Y49232D01*
X1575Y48581D01*
Y47876D01*
X1845Y47225D01*
X2343Y46726D01*
X2994Y46457D01*
X3557D01*
X5519Y44495D01*
X5877Y44256D01*
X6299Y44172D01*
X9646D01*
Y41437D01*
X24409D01*
Y49114D01*
X9646D01*
Y46380D01*
X6757D01*
X5118Y48018D01*
Y48581D01*
X4848Y49232D01*
X4350Y49730D01*
X3699Y50000D01*
D02*
G37*
G36*
X112998Y48228D02*
X111805D01*
X110654Y47920D01*
X109622Y47324D01*
X108779Y46481D01*
X108183Y45448D01*
X107874Y44297D01*
Y43105D01*
X108183Y41953D01*
X108779Y40921D01*
X109622Y40078D01*
X110654Y39482D01*
X111805Y39173D01*
X112998D01*
X114149Y39482D01*
X115182Y40078D01*
X116024Y40921D01*
X116621Y41953D01*
X116929Y43105D01*
Y44297D01*
X116621Y45448D01*
X116024Y46481D01*
X115182Y47324D01*
X114149Y47920D01*
X112998Y48228D01*
D02*
G37*
G36*
X45472Y49114D02*
X30709D01*
Y41437D01*
X36485D01*
Y19587D01*
X30709D01*
Y11909D01*
X45472D01*
Y19587D01*
X39696D01*
Y41437D01*
X45472D01*
Y42095D01*
X58932D01*
X58970Y41953D01*
X59566Y40921D01*
X60409Y40078D01*
X61441Y39482D01*
X62593Y39173D01*
X63785D01*
X64937Y39482D01*
X65969Y40078D01*
X66812Y40921D01*
X67408Y41953D01*
X67716Y43105D01*
Y44297D01*
X67408Y45448D01*
X66812Y46481D01*
X65969Y47324D01*
X64937Y47920D01*
X63785Y48228D01*
X62593D01*
X61441Y47920D01*
X60409Y47324D01*
X59566Y46481D01*
X58970Y45448D01*
X58932Y45306D01*
X45472D01*
Y49114D01*
D02*
G37*
G36*
X126796Y55928D02*
X123401D01*
X122949Y55838D01*
X122567Y55583D01*
X122311Y55200D01*
X122221Y54749D01*
Y49975D01*
X122311Y49524D01*
X122517Y49216D01*
Y42886D01*
X122370Y42788D01*
X122114Y42405D01*
X122025Y41954D01*
Y38558D01*
X122114Y38107D01*
X122370Y37724D01*
X122752Y37469D01*
X123204Y37379D01*
X127977D01*
X128429Y37469D01*
X128811Y37724D01*
X129067Y38107D01*
X129156Y38558D01*
Y41954D01*
X129067Y42405D01*
X128811Y42788D01*
X128429Y43043D01*
X127977Y43133D01*
X127680D01*
Y49216D01*
X127886Y49524D01*
X127975Y49975D01*
Y54749D01*
X127886Y55200D01*
X127630Y55583D01*
X127248Y55838D01*
X126796Y55928D01*
D02*
G37*
G36*
X44841Y33858D02*
X44136D01*
X43485Y33588D01*
X42986Y33090D01*
X42717Y32439D01*
Y31734D01*
X42986Y31083D01*
X43485Y30585D01*
X44136Y30315D01*
X44841D01*
X45492Y30585D01*
X45990Y31083D01*
X46260Y31734D01*
Y32439D01*
X45990Y33090D01*
X45492Y33588D01*
X44841Y33858D01*
D02*
G37*
G36*
X63785Y28543D02*
X62593D01*
X61441Y28235D01*
X60409Y27639D01*
X59566Y26796D01*
X58970Y25763D01*
X58661Y24612D01*
Y23420D01*
X58970Y22268D01*
X59566Y21236D01*
X60409Y20393D01*
X61441Y19797D01*
X62593Y19488D01*
X63785D01*
X64937Y19797D01*
X65969Y20393D01*
X66812Y21236D01*
X67408Y22268D01*
X67716Y23420D01*
Y24612D01*
X67408Y25763D01*
X66812Y26796D01*
X65969Y27639D01*
X64937Y28235D01*
X63785Y28543D01*
D02*
G37*
G36*
X159366Y22457D02*
X155618D01*
Y15165D01*
X159366D01*
Y22457D01*
D02*
G37*
G36*
X154618D02*
X150870D01*
Y14843D01*
X150454Y14566D01*
X150451Y14567D01*
X149746D01*
X149095Y14297D01*
X148597Y13799D01*
X148327Y13148D01*
Y12443D01*
X148597Y11792D01*
X149095Y11293D01*
X149746Y11024D01*
X150451D01*
X150454Y11025D01*
X150870Y10747D01*
Y6874D01*
X153916D01*
Y5906D01*
X154000Y5483D01*
X154239Y5125D01*
X156306Y3058D01*
X156664Y2819D01*
X157087Y2735D01*
X157509Y2819D01*
X157867Y3058D01*
X158107Y3416D01*
X158191Y3839D01*
X158107Y4261D01*
X157867Y4619D01*
X156124Y6363D01*
Y6874D01*
X159366D01*
Y14165D01*
X155118D01*
Y14665D01*
X154618D01*
Y22457D01*
D02*
G37*
G36*
X88314Y20079D02*
X87277D01*
X86276Y19810D01*
X85378Y19292D01*
X84645Y18559D01*
X84127Y17661D01*
X83858Y16660D01*
Y15623D01*
X84127Y14622D01*
X84645Y13724D01*
X85378Y12991D01*
X86276Y12473D01*
X87277Y12205D01*
X88314D01*
X89315Y12473D01*
X90213Y12991D01*
X90946Y13724D01*
X91464Y14622D01*
X91732Y15623D01*
Y16660D01*
X91464Y17661D01*
X90946Y18559D01*
X90213Y19292D01*
X89315Y19810D01*
X88314Y20079D01*
D02*
G37*
G36*
X170628Y13583D02*
X169923D01*
X169272Y13313D01*
X168774Y12815D01*
X168504Y12163D01*
Y11459D01*
X168774Y10808D01*
X169272Y10309D01*
X169923Y10039D01*
X170628D01*
X171279Y10309D01*
X171777Y10808D01*
X172047Y11459D01*
Y12163D01*
X171777Y12815D01*
X171279Y13313D01*
X170628Y13583D01*
D02*
G37*
G36*
X166396D02*
X165691D01*
X165040Y13313D01*
X164541Y12815D01*
X164272Y12163D01*
Y11459D01*
X164541Y10808D01*
X165040Y10309D01*
X165691Y10039D01*
X166396D01*
X167047Y10309D01*
X167545Y10808D01*
X167815Y11459D01*
Y12163D01*
X167545Y12815D01*
X167047Y13313D01*
X166396Y13583D01*
D02*
G37*
G36*
X130284Y13055D02*
X126484D01*
Y9555D01*
X130284D01*
Y13055D01*
D02*
G37*
G36*
Y8555D02*
X126484D01*
Y5055D01*
X130284D01*
Y8555D01*
D02*
G37*
G36*
X125484Y13055D02*
X121684D01*
Y10159D01*
X118602D01*
X118180Y10075D01*
X117822Y9836D01*
X117582Y9478D01*
X117499Y9055D01*
X117582Y8633D01*
X117822Y8275D01*
X118180Y8035D01*
X118602Y7951D01*
X121684D01*
Y5055D01*
X125484D01*
Y9055D01*
Y13055D01*
D02*
G37*
G36*
X83083Y279345D02*
X82133Y279090D01*
X81277Y278596D01*
X80577Y277897D01*
X80083Y277040D01*
X79828Y276091D01*
X83083D01*
Y279345D01*
D02*
G37*
G36*
Y275091D02*
X79828D01*
X80083Y274141D01*
X80577Y273284D01*
X81277Y272585D01*
X82133Y272091D01*
X83083Y271836D01*
Y275091D01*
D02*
G37*
G36*
X69936Y258158D02*
X69870D01*
Y254358D01*
X73670D01*
Y254424D01*
X73377Y255518D01*
X72811Y256499D01*
X72010Y257299D01*
X71030Y257865D01*
X69936Y258158D01*
D02*
G37*
G36*
X73670Y253358D02*
X69870D01*
Y249558D01*
X69936D01*
X71030Y249851D01*
X72010Y250417D01*
X72811Y251218D01*
X73377Y252199D01*
X73670Y253292D01*
Y253358D01*
D02*
G37*
G36*
X84998Y241929D02*
X84293D01*
X83642Y241659D01*
X83144Y241161D01*
X82874Y240510D01*
Y239805D01*
X83144Y239154D01*
X83642Y238655D01*
X84293Y238386D01*
X84998D01*
X85649Y238655D01*
X86148Y239154D01*
X86417Y239805D01*
Y240510D01*
X86148Y241161D01*
X85649Y241659D01*
X84998Y241929D01*
D02*
G37*
G36*
X76132Y275810D02*
X70325D01*
X69883Y275722D01*
X69509Y275472D01*
X69259Y275097D01*
X69171Y274656D01*
Y271408D01*
X69259Y270966D01*
X69509Y270591D01*
X69883Y270341D01*
X70325Y270253D01*
X75569D01*
Y216232D01*
X75069Y216098D01*
X74983Y216247D01*
X74259Y216971D01*
X73372Y217484D01*
X72382Y217749D01*
X71358D01*
X70368Y217484D01*
X69481Y216971D01*
X68757Y216247D01*
X68245Y215360D01*
X67980Y214370D01*
Y213346D01*
X68245Y212357D01*
X68757Y211469D01*
X69481Y210745D01*
X70368Y210233D01*
X71358Y209968D01*
X72382D01*
X73372Y210233D01*
X74259Y210745D01*
X74983Y211469D01*
X75069Y211618D01*
X75569Y211485D01*
Y186614D01*
X75653Y186192D01*
X75893Y185834D01*
X82284Y179443D01*
Y178880D01*
X82553Y178229D01*
X83052Y177730D01*
X83703Y177461D01*
X84408D01*
X85059Y177730D01*
X85557Y178229D01*
X85827Y178880D01*
Y179585D01*
X85557Y180236D01*
X85059Y180734D01*
X84408Y181004D01*
X83845D01*
X77777Y187071D01*
Y211992D01*
X77849Y212042D01*
X78514Y211890D01*
X78757Y211469D01*
X79481Y210745D01*
X80368Y210233D01*
X81358Y209968D01*
X82382D01*
X83372Y210233D01*
X84259Y210745D01*
X84983Y211469D01*
X85496Y212357D01*
X85761Y213346D01*
Y214370D01*
X85496Y215360D01*
X84983Y216247D01*
X84259Y216971D01*
X83372Y217484D01*
X82382Y217749D01*
X81358D01*
X80368Y217484D01*
X79481Y216971D01*
X78757Y216247D01*
X78514Y215826D01*
X77849Y215675D01*
X77777Y215724D01*
Y270840D01*
X77693Y271262D01*
X77454Y271620D01*
X77286Y271788D01*
Y274656D01*
X77198Y275097D01*
X76948Y275472D01*
X76573Y275722D01*
X76132Y275810D01*
D02*
G37*
G36*
X57931Y191732D02*
X57226D01*
X56575Y191463D01*
X56077Y190964D01*
X55807Y190313D01*
Y189608D01*
X56077Y188957D01*
X56575Y188459D01*
X57226Y188189D01*
X57931D01*
X58582Y188459D01*
X59081Y188957D01*
X59350Y189608D01*
Y190313D01*
X59081Y190964D01*
X58582Y191463D01*
X57931Y191732D01*
D02*
G37*
G36*
X67675Y176378D02*
X66970D01*
X66319Y176108D01*
X65821Y175610D01*
X65551Y174959D01*
Y174254D01*
X65821Y173603D01*
X66319Y173104D01*
X66970Y172835D01*
X67675D01*
X68326Y173104D01*
X68825Y173603D01*
X69095Y174254D01*
Y174959D01*
X68825Y175610D01*
X68326Y176108D01*
X67675Y176378D01*
D02*
G37*
G36*
X49565Y167126D02*
X48860D01*
X48209Y166856D01*
X47711Y166358D01*
X47441Y165707D01*
Y165002D01*
X47711Y164351D01*
X48209Y163852D01*
X48860Y163583D01*
X49565D01*
X50216Y163852D01*
X50714Y164351D01*
X50984Y165002D01*
Y165707D01*
X50714Y166358D01*
X50216Y166856D01*
X49565Y167126D01*
D02*
G37*
G36*
X170367Y231785D02*
X165292D01*
Y229922D01*
X165482Y228479D01*
X166039Y227135D01*
X166925Y225980D01*
X168080Y225094D01*
X169424Y224537D01*
X170367Y224413D01*
Y231785D01*
D02*
G37*
G36*
X164076Y215699D02*
X158269D01*
X157817Y215512D01*
X157630Y215060D01*
Y212993D01*
X157817Y212541D01*
X158269Y212354D01*
X164076D01*
X164528Y212541D01*
X164715Y212993D01*
Y215060D01*
X164528Y215512D01*
X164076Y215699D01*
D02*
G37*
G36*
X173638Y186689D02*
X167232D01*
Y182252D01*
X173638D01*
Y186689D01*
D02*
G37*
G36*
X166232D02*
X159827D01*
Y182252D01*
X166232D01*
Y186689D01*
D02*
G37*
G36*
X145669Y186732D02*
X142232D01*
Y182252D01*
X150583D01*
X150479Y183041D01*
X149982Y184242D01*
X149190Y185273D01*
X148159Y186064D01*
X146958Y186562D01*
X145669Y186732D01*
D02*
G37*
G36*
X141232D02*
X137795D01*
X136506Y186562D01*
X135306Y186064D01*
X134274Y185273D01*
X133483Y184242D01*
X132985Y183041D01*
X132881Y182252D01*
X141232D01*
Y186732D01*
D02*
G37*
G36*
X173638Y181252D02*
X167232D01*
Y176815D01*
X173638D01*
Y181252D01*
D02*
G37*
G36*
X166232D02*
X159827D01*
Y176815D01*
X166232D01*
Y181252D01*
D02*
G37*
G36*
X150583D02*
X142232D01*
Y176772D01*
X145669D01*
X146958Y176942D01*
X148159Y177439D01*
X149190Y178231D01*
X149982Y179262D01*
X150479Y180463D01*
X150583Y181252D01*
D02*
G37*
G36*
X141232D02*
X132881D01*
X132985Y180463D01*
X133483Y179262D01*
X134274Y178231D01*
X135306Y177439D01*
X136506Y176942D01*
X137795Y176772D01*
X141232D01*
Y181252D01*
D02*
G37*
G36*
X108620Y167126D02*
X107915D01*
X107264Y166856D01*
X106766Y166358D01*
X106496Y165707D01*
Y165002D01*
X106766Y164351D01*
X107264Y163852D01*
X107915Y163583D01*
X108620D01*
X109271Y163852D01*
X109770Y164351D01*
X110039Y165002D01*
Y165707D01*
X109770Y166358D01*
X109271Y166856D01*
X108620Y167126D01*
D02*
G37*
G36*
X155118Y41853D02*
X154450Y41765D01*
X153828Y41507D01*
X153293Y41097D01*
X152883Y40562D01*
X152625Y39940D01*
X152537Y39272D01*
Y35728D01*
X152625Y35060D01*
X152883Y34438D01*
X153293Y33903D01*
X153828Y33493D01*
X154450Y33235D01*
X155118Y33147D01*
X155786Y33235D01*
X156409Y33493D01*
X156943Y33903D01*
X157353Y34438D01*
X157611Y35060D01*
X157699Y35728D01*
Y39272D01*
X157611Y39940D01*
X157353Y40562D01*
X156943Y41097D01*
X156409Y41507D01*
X155786Y41765D01*
X155118Y41853D01*
D02*
G37*
%LPD*%
D17*
X44784Y300197D02*
D03*
X50984D02*
D03*
Y305118D02*
D03*
X44784D02*
D03*
X44538Y317323D02*
D03*
X50738D02*
D03*
X44784Y275591D02*
D03*
X50984D02*
D03*
X44784Y270669D02*
D03*
X50984D02*
D03*
Y288386D02*
D03*
X44784D02*
D03*
D18*
X66634Y292520D02*
D03*
Y300000D02*
D03*
X57382Y296260D02*
D03*
X66634Y307480D02*
D03*
Y314961D02*
D03*
X57382Y311221D02*
D03*
D19*
X43091Y311024D02*
D03*
X51398D02*
D03*
X43091Y282480D02*
D03*
X51398D02*
D03*
D20*
X73228Y284842D02*
D03*
Y273031D02*
D03*
D21*
X133169Y52362D02*
D03*
X125098D02*
D03*
D22*
X155118Y14665D02*
D03*
Y35728D02*
D03*
X150394Y311417D02*
D03*
Y290354D02*
D03*
D23*
X125591Y40256D02*
D03*
Y32185D02*
D03*
D24*
X125984Y23055D02*
D03*
Y9055D02*
D03*
D25*
X144291Y52362D02*
D03*
X161221D02*
D03*
D26*
X17028Y15748D02*
D03*
X38091D02*
D03*
X17028Y45276D02*
D03*
X38091D02*
D03*
D27*
X105905Y269341D02*
D03*
Y275541D02*
D03*
D56*
X19094Y168701D02*
Y177399D01*
X64862Y223167D01*
X43484Y310630D02*
X45472D01*
X49508Y306594D01*
X50984Y300197D02*
Y305512D01*
X49508Y306594D02*
X49902D01*
X50984Y305512D01*
X64862Y292520D02*
X66634D01*
X64862Y223167D02*
Y292520D01*
X54724D02*
X64862D01*
X75787Y271725D02*
X76673Y270840D01*
Y186614D02*
X84055Y179232D01*
X75787Y271725D02*
Y273622D01*
X76673Y186614D02*
Y270840D01*
X73228Y284842D02*
Y295079D01*
X68307Y300000D02*
X73228Y295079D01*
X50738Y311417D02*
X51131Y311024D01*
X51398D01*
X50738Y311417D02*
Y317323D01*
X44753Y318307D02*
X45245Y318799D01*
Y320048D02*
X47047Y321850D01*
X43504Y318307D02*
X44753D01*
X47047Y321850D02*
X57087D01*
X45245Y318799D02*
Y320048D01*
X43504Y317913D02*
Y318307D01*
X31247Y317913D02*
X43504D01*
X168307Y271569D02*
X169488Y270388D01*
Y243429D02*
Y270388D01*
X168307Y271569D02*
Y271654D01*
X97441Y120017D02*
X100272Y117186D01*
Y113015D02*
Y117186D01*
X86713Y120079D02*
X88753Y122119D01*
X98182Y110925D02*
X100272Y113015D01*
X94193Y116831D02*
X97539Y113484D01*
X94193Y116831D02*
Y178937D01*
X104845Y189589D01*
X70965Y132517D02*
X92556Y110925D01*
X98182D01*
X88753Y122119D02*
Y299043D01*
X-2264Y250000D02*
X15551Y267815D01*
X175197Y286666D02*
X177461Y284402D01*
X166436Y324804D02*
X175197Y316043D01*
X177461Y286629D02*
X179035Y285055D01*
X175197Y286666D02*
Y316043D01*
X177461Y286629D02*
Y303150D01*
Y170177D02*
Y284402D01*
X62991Y324804D02*
X88753Y299043D01*
X104845Y189589D02*
X136790D01*
X52067Y289862D02*
X52067D01*
X54724Y292520D01*
X50984Y288779D02*
X52067Y289862D01*
X50984Y288386D02*
Y288779D01*
X44784D02*
X47691Y291686D01*
X51135D01*
X44784Y288386D02*
Y288779D01*
X51135Y291686D02*
X55709Y296260D01*
X57382D01*
X31496Y293197D02*
X31560Y293261D01*
X49363D01*
X51968Y295866D01*
X50984Y270669D02*
Y275591D01*
X29232Y285728D02*
Y294885D01*
Y285728D02*
X39370Y275591D01*
X44784D01*
X43366Y282480D02*
X48779Y277067D01*
X49902D01*
X43091Y282480D02*
X43366D01*
X49902Y277067D02*
X50984Y275984D01*
Y275591D02*
Y275984D01*
X46693Y286910D02*
X51122Y282480D01*
X44784Y287992D02*
X45867Y286910D01*
X44784Y287992D02*
Y288386D01*
X51122Y282480D02*
X51398D01*
X45867Y286910D02*
X46693D01*
X48129Y298129D02*
Y302090D01*
X45549Y295549D02*
X48129Y298129D01*
X42323Y295525D02*
X42347Y295549D01*
X45549D01*
X46577Y303642D02*
X48129Y302090D01*
X44784Y304724D02*
Y305118D01*
Y304724D02*
X45867Y303642D01*
X46577D01*
X29232Y294885D02*
X29809Y295461D01*
X37302D01*
X128839Y121555D02*
X177461Y170177D01*
X179035Y169193D02*
Y285055D01*
X130778Y120935D02*
X179035Y169193D01*
X152840Y278923D02*
X156398Y282480D01*
Y287500D01*
X19193Y291732D02*
Y305859D01*
X21654Y305118D02*
X44784D01*
X19193Y305859D02*
X31247Y317913D01*
X43091Y311024D02*
X43484Y310630D01*
X62008Y310433D02*
Y316929D01*
X57087Y321850D02*
X62008Y316929D01*
Y310433D02*
X64961Y307480D01*
X66634D01*
X51496Y311122D02*
X57284D01*
X51398Y311024D02*
X51496Y311122D01*
X57284D02*
X57382Y311221D01*
X36615Y324804D02*
X62991D01*
X66634Y300000D02*
X68307D01*
Y314961D02*
X71850Y311417D01*
Y303543D02*
Y311417D01*
X68307Y300000D02*
X71850Y303543D01*
X66634Y314961D02*
X68307D01*
X165257Y235471D02*
Y236971D01*
X171850Y243564D02*
Y255118D01*
X145178Y215392D02*
X165257Y235471D01*
Y236971D02*
X171850Y243564D01*
X163682Y237623D02*
X169488Y243429D01*
X143505Y215946D02*
X163682Y236123D01*
Y237623D01*
X69390Y131865D02*
X91904Y109350D01*
X123031D01*
X70965Y132517D02*
Y134791D01*
X69390Y131865D02*
Y134138D01*
X30046Y175710D02*
X70965Y134791D01*
X26969Y176560D02*
X69390Y134138D01*
X26969Y176560D02*
Y180610D01*
X30046Y175710D02*
Y180636D01*
X120388Y276659D02*
X152868D01*
X130266Y278923D02*
X152840D01*
X152868Y276659D02*
X160236Y284027D01*
X118799Y278248D02*
X120388Y276659D01*
X125542Y269341D02*
X130020Y273819D01*
X26772Y187303D02*
Y208661D01*
X15059Y175591D02*
X26772Y187303D01*
X84252Y309252D02*
X91831D01*
X61417Y332087D02*
X84252Y309252D01*
X-2264Y47638D02*
Y250000D01*
X3347Y48228D02*
X6299Y45276D01*
X17028D01*
X79331Y356496D02*
X91535Y344291D01*
X89272Y311516D02*
X91535Y313779D01*
Y344291D01*
X10728Y18504D02*
X13484Y15748D01*
X10728Y18504D02*
Y34646D01*
X-2264Y47638D02*
X10728Y34646D01*
X13484Y15748D02*
X17028D01*
X105905Y269341D02*
X125542D01*
X104724Y84350D02*
X130778Y110404D01*
X104724Y31693D02*
Y84350D01*
Y31693D02*
X112402Y24016D01*
X130778Y110404D02*
Y120935D01*
X125689Y112008D02*
Y138779D01*
X106842Y88707D02*
X128839Y110703D01*
X127264Y111356D02*
Y129429D01*
X85801Y90282D02*
X106190D01*
X85065Y88707D02*
X106842D01*
X123031Y109350D02*
X125689Y112008D01*
X128839Y110703D02*
Y121555D01*
X106190Y90282D02*
X127264Y111356D01*
X145178Y197978D02*
Y215392D01*
X136790Y189589D02*
X145178Y197978D01*
X143505Y212336D02*
Y215946D01*
X143504Y205709D02*
Y212335D01*
X140552Y202757D02*
X143504Y205709D01*
Y212335D02*
X143505Y212336D01*
X150395Y311417D02*
Y324804D01*
X160236Y284027D02*
Y287697D01*
X130241Y278948D02*
Y293676D01*
Y278948D02*
X130266Y278923D01*
X130217Y293701D02*
X130241Y293676D01*
X83563Y92520D02*
X85801Y90282D01*
X48130Y90158D02*
X83615D01*
X85065Y88707D01*
X61417Y332087D02*
Y347244D01*
X67520Y356496D02*
X79331D01*
X155020Y5906D02*
Y14567D01*
Y5906D02*
X157087Y3839D01*
X155020Y14567D02*
X155118Y14665D01*
X118602Y9055D02*
X125984D01*
X127264Y129429D02*
X156791Y158957D01*
Y198523D02*
X160238Y201970D01*
X156791Y158957D02*
Y198523D01*
X160238Y201970D02*
Y202757D01*
X93632Y275541D02*
X105905D01*
X93583Y275590D02*
X93632Y275541D01*
X140552Y324804D02*
X150395D01*
X150394Y305217D02*
X150395Y305218D01*
X160238Y324804D02*
X166436D01*
D57*
X161909Y53051D02*
Y81988D01*
X161221Y52362D02*
X161909Y53051D01*
Y81988D02*
X162598Y82677D01*
X133169Y52362D02*
X144291D01*
X155118Y35728D02*
Y39272D01*
X125098Y40551D02*
Y52362D01*
X125394Y40256D02*
X125591D01*
X125098Y40551D02*
X125394Y40256D01*
D58*
X116732Y117854D02*
Y181752D01*
D59*
X38091Y15748D02*
Y45276D01*
X39665Y43701D02*
X63189D01*
X38091Y45276D02*
X39665Y43701D01*
D60*
X69370Y253858D02*
D03*
X84370D02*
D03*
X81870Y213858D02*
D03*
X71870D02*
D03*
D61*
X163779Y133071D02*
D03*
Y166535D02*
D03*
X13386Y114764D02*
D03*
Y81299D02*
D03*
D62*
X116732Y181752D02*
D03*
X141732D02*
D03*
Y117854D02*
D03*
X166732D02*
D03*
X116732D02*
D03*
X60433Y66083D02*
D03*
X35433D02*
D03*
Y129980D02*
D03*
X10433D02*
D03*
X60433D02*
D03*
D63*
X166732Y181752D02*
D03*
X10433Y66083D02*
D03*
D64*
X36614Y255906D02*
D03*
X16929D02*
D03*
D65*
X10630Y232285D02*
D03*
X42913D02*
D03*
X47245Y354332D02*
D03*
X6301D02*
D03*
X170867D02*
D03*
X129922D02*
D03*
Y232285D02*
D03*
X170867D02*
D03*
D66*
X36615Y208661D02*
D03*
X26772D02*
D03*
X26773Y324804D02*
D03*
X36615D02*
D03*
X150395D02*
D03*
X160238D02*
D03*
Y202757D02*
D03*
X150395D02*
D03*
D67*
X16930Y208661D02*
D03*
Y324804D02*
D03*
X140552D02*
D03*
Y202757D02*
D03*
D68*
X63189Y43701D02*
D03*
Y24016D02*
D03*
X112402D02*
D03*
Y43701D02*
D03*
D69*
X93583Y275590D02*
D03*
D70*
X83583D02*
D03*
D71*
X138976Y82677D02*
D03*
D72*
X150787Y101181D02*
D03*
D73*
X162598Y82677D02*
D03*
D74*
X8661Y280157D02*
D03*
Y290158D02*
D03*
D75*
Y300157D02*
D03*
D76*
X19094Y168701D02*
D03*
X67126Y228346D02*
D03*
Y259842D02*
D03*
X27559Y19685D02*
D03*
Y74803D02*
D03*
X55118D02*
D03*
X82677Y129921D02*
D03*
X0Y295276D02*
D03*
X27559Y240158D02*
D03*
Y350394D02*
D03*
X55118D02*
D03*
X82677Y295276D02*
D03*
X96457Y47244D02*
D03*
X110236Y129921D02*
D03*
X96457Y212598D02*
D03*
X124016Y157480D02*
D03*
X137795Y350394D02*
D03*
X161417Y354331D02*
D03*
X169291Y338583D02*
D03*
Y307087D02*
D03*
X161417Y228346D02*
D03*
X169291Y212598D02*
D03*
Y149606D02*
D03*
X161417Y102362D02*
D03*
X169291Y86614D02*
D03*
Y55118D02*
D03*
X153543Y338583D02*
D03*
Y244094D02*
D03*
X145669Y228346D02*
D03*
X153543Y212598D02*
D03*
Y181102D02*
D03*
X145669Y165354D02*
D03*
X153543Y149606D02*
D03*
Y118110D02*
D03*
Y86614D02*
D03*
X145669Y70866D02*
D03*
X129921Y322835D02*
D03*
X137795Y307087D02*
D03*
Y244094D02*
D03*
X129921Y196850D02*
D03*
Y102362D02*
D03*
Y70866D02*
D03*
X114173Y354331D02*
D03*
X122047Y338583D02*
D03*
X114173Y322835D02*
D03*
X122047Y307087D02*
D03*
X114173Y259842D02*
D03*
X122047Y244094D02*
D03*
X114173Y228346D02*
D03*
X122047Y212598D02*
D03*
X114173Y196850D02*
D03*
X122047Y149606D02*
D03*
X114173Y102362D02*
D03*
X122047Y86614D02*
D03*
X114173Y7874D02*
D03*
X98425Y259842D02*
D03*
Y228346D02*
D03*
Y196850D02*
D03*
X106299Y181102D02*
D03*
Y118110D02*
D03*
X98425Y102362D02*
D03*
Y70866D02*
D03*
Y39370D02*
D03*
Y7874D02*
D03*
X82677Y291338D02*
D03*
Y259842D02*
D03*
Y228346D02*
D03*
Y165354D02*
D03*
Y133858D02*
D03*
Y39370D02*
D03*
Y7874D02*
D03*
X74803Y307087D02*
D03*
X66929Y196850D02*
D03*
Y7874D02*
D03*
X59055Y307087D02*
D03*
X51181Y259842D02*
D03*
Y228346D02*
D03*
X59055Y118110D02*
D03*
Y86614D02*
D03*
X51181Y70866D02*
D03*
X59055Y55118D02*
D03*
X51181Y39370D02*
D03*
Y7874D02*
D03*
X35433Y354331D02*
D03*
X43307Y338583D02*
D03*
Y244094D02*
D03*
X35433Y228346D02*
D03*
X43307Y212598D02*
D03*
Y149606D02*
D03*
Y118110D02*
D03*
X35433Y102362D02*
D03*
X43307Y86614D02*
D03*
Y55118D02*
D03*
Y23622D02*
D03*
X35433Y7874D02*
D03*
X19685Y354331D02*
D03*
X27559Y338583D02*
D03*
Y244094D02*
D03*
X19685Y196850D02*
D03*
Y133858D02*
D03*
X27559Y118110D02*
D03*
X19685Y102362D02*
D03*
X27559Y86614D02*
D03*
X19685Y70866D02*
D03*
X27559Y55118D02*
D03*
X19685Y39370D02*
D03*
X27559Y23622D02*
D03*
X19685Y7874D02*
D03*
X11811Y338583D02*
D03*
X3937Y322835D02*
D03*
X11811Y307087D02*
D03*
Y244094D02*
D03*
X3937Y228346D02*
D03*
Y196850D02*
D03*
X11811Y181102D02*
D03*
Y149606D02*
D03*
X3937Y102362D02*
D03*
X11811Y86614D02*
D03*
Y55118D02*
D03*
X137795Y295276D02*
D03*
Y240158D02*
D03*
X151575Y157480D02*
D03*
X110236Y350394D02*
D03*
X124016Y322835D02*
D03*
Y212598D02*
D03*
X82677Y19685D02*
D03*
X55118D02*
D03*
X41339Y212598D02*
D03*
Y102362D02*
D03*
X13780Y157480D02*
D03*
Y102362D02*
D03*
X0Y19685D02*
D03*
X168307Y271654D02*
D03*
X97441Y120079D02*
D03*
X86713D02*
D03*
X15551Y267815D02*
D03*
X137795Y57087D02*
D03*
X146653Y10827D02*
D03*
X150098Y12795D02*
D03*
X153543Y27165D02*
D03*
X130905Y58661D02*
D03*
X118110Y19685D02*
D03*
X177461Y303150D02*
D03*
X108268Y165354D02*
D03*
X149606Y44291D02*
D03*
X91017Y169488D02*
D03*
X84055Y179232D02*
D03*
X86319Y156004D02*
D03*
X84646Y240158D02*
D03*
X98425Y232283D02*
D03*
X170276Y11811D02*
D03*
X42323Y295525D02*
D03*
X37366D02*
D03*
X31496Y293197D02*
D03*
X156398Y287500D02*
D03*
X19193Y291732D02*
D03*
X21654Y305118D02*
D03*
X51968Y295866D02*
D03*
X171850Y255118D02*
D03*
X97539Y113484D02*
D03*
X118110Y29232D02*
D03*
X39370Y269685D02*
D03*
X139173Y273327D02*
D03*
X130020Y273819D02*
D03*
X49213Y165354D02*
D03*
Y143701D02*
D03*
X67323Y174606D02*
D03*
X57579Y189961D02*
D03*
X91831Y309252D02*
D03*
X3347Y48228D02*
D03*
X89272Y311516D02*
D03*
X118209Y299508D02*
D03*
X130266Y278923D02*
D03*
X30046Y180636D02*
D03*
X26969Y180610D02*
D03*
X76968Y107480D02*
D03*
X83563Y92520D02*
D03*
X1476Y181496D02*
D03*
X15059Y175591D02*
D03*
X125689Y138779D02*
D03*
X119783Y45177D02*
D03*
X160236Y287697D02*
D03*
X118799Y278248D02*
D03*
X130217Y293701D02*
D03*
X81791Y311713D02*
D03*
X61417Y347244D02*
D03*
X67520Y356496D02*
D03*
X83366Y337303D02*
D03*
X72835Y337254D02*
D03*
X157087Y3839D02*
D03*
X166043Y11811D02*
D03*
X118602Y9055D02*
D03*
X100368Y92546D02*
D03*
X44488Y32087D02*
D03*
X26378Y143504D02*
D03*
X137303Y135039D02*
D03*
X48130Y90158D02*
D03*
M02*
