G04*
G04 #@! TF.GenerationSoftware,Altium Limited,Altium Designer,23.1.1 (15)*
G04*
G04 Layer_Physical_Order=2*
G04 Layer_Color=36540*
%FSLAX25Y25*%
%MOIN*%
G70*
G04*
G04 #@! TF.SameCoordinates,434D1FB9-1166-4A3C-A543-B38E0AA6253E*
G04*
G04*
G04 #@! TF.FilePolarity,Positive*
G04*
G01*
G75*
%ADD71C,0.03937*%
%ADD73O,0.09055X0.13780*%
%ADD75R,0.07087X0.08661*%
%ADD77C,0.06600*%
%ADD79C,0.05512*%
%ADD80O,0.15748X0.07874*%
%ADD81R,0.11811X0.07874*%
%ADD83R,0.09055X0.18898*%
%ADD86C,0.06000*%
%ADD88C,0.02362*%
G36*
X180099Y357852D02*
Y16164D01*
X164939Y1003D01*
X12227Y1003D01*
X-2933Y16164D01*
Y169167D01*
X-2434Y169267D01*
X-2235Y168788D01*
X-1825Y168254D01*
X-1291Y167843D01*
X-668Y167586D01*
X0Y167498D01*
X3324D01*
Y138583D01*
X3412Y137915D01*
X3670Y137292D01*
X4080Y136758D01*
X4615Y136347D01*
X5237Y136090D01*
X5906Y136002D01*
X46457D01*
X47125Y136090D01*
X47747Y136347D01*
X48282Y136758D01*
X55794Y144269D01*
X71041D01*
Y71991D01*
X71129Y71323D01*
X71387Y70701D01*
X71797Y70166D01*
X74103Y67860D01*
X74638Y67450D01*
X75260Y67192D01*
X75928Y67104D01*
X90945D01*
X91613Y67192D01*
X92235Y67450D01*
X92770Y67860D01*
X93557Y68647D01*
X93968Y69182D01*
X94226Y69804D01*
X94313Y70472D01*
Y80483D01*
X95108Y81277D01*
X110805D01*
Y68504D01*
X110893Y67836D01*
X111151Y67213D01*
X111561Y66679D01*
X138314Y39925D01*
X138849Y39515D01*
X139472Y39257D01*
X140140Y39169D01*
X160330D01*
X167647Y31852D01*
X168182Y31442D01*
X168804Y31184D01*
X169472Y31096D01*
X170141Y31184D01*
X170763Y31442D01*
X171298Y31852D01*
X171708Y32387D01*
X171966Y33009D01*
X172054Y33677D01*
X171966Y34345D01*
X171708Y34968D01*
X171298Y35502D01*
X163225Y43575D01*
X162690Y43986D01*
X162067Y44243D01*
X161399Y44331D01*
X141209D01*
X115967Y69573D01*
Y78915D01*
X125984D01*
X126652Y79003D01*
X127275Y79261D01*
X127809Y79671D01*
X128220Y80206D01*
X128477Y80828D01*
X128565Y81496D01*
X128477Y82164D01*
X128220Y82787D01*
X127809Y83321D01*
X127275Y83731D01*
X126652Y83989D01*
X125984Y84077D01*
X115967D01*
Y84646D01*
Y99213D01*
X115879Y99881D01*
X115621Y100503D01*
X115211Y101038D01*
X114676Y101448D01*
X114054Y101706D01*
X113386Y101794D01*
X112718Y101706D01*
X112095Y101448D01*
X111561Y101038D01*
X111151Y100503D01*
X110893Y99881D01*
X110805Y99213D01*
Y86439D01*
X94038D01*
X93370Y86351D01*
X92748Y86094D01*
X92213Y85683D01*
X89907Y83377D01*
X89497Y82843D01*
X89239Y82220D01*
X89151Y81552D01*
Y72266D01*
X76997D01*
X76203Y73060D01*
Y137907D01*
X76703Y138114D01*
X76949Y137868D01*
X77600Y137598D01*
X78305D01*
X78956Y137868D01*
X79455Y138366D01*
X79724Y139018D01*
Y139723D01*
X79455Y140374D01*
X78956Y140872D01*
X78305Y141142D01*
X77600D01*
X76949Y140872D01*
X76703Y140626D01*
X76203Y140833D01*
Y146850D01*
Y153603D01*
X82540Y159940D01*
X82950Y160475D01*
X83208Y161097D01*
X83296Y161765D01*
Y180096D01*
X87402D01*
X88070Y180184D01*
X88692Y180442D01*
X89227Y180852D01*
X95920Y187545D01*
X96330Y188080D01*
X96588Y188702D01*
X96676Y189370D01*
Y214285D01*
X105762Y223372D01*
X106172Y223906D01*
X106430Y224529D01*
X106518Y225197D01*
Y327165D01*
X106430Y327833D01*
X106172Y328456D01*
X105762Y328991D01*
X93557Y341195D01*
X93023Y341605D01*
X92400Y341863D01*
X91732Y341951D01*
X91064Y341863D01*
X90442Y341605D01*
X89907Y341195D01*
X89497Y340661D01*
X89239Y340038D01*
X89151Y339370D01*
X89239Y338702D01*
X89497Y338080D01*
X89907Y337545D01*
X95680Y331772D01*
X95446Y331299D01*
X95276Y331321D01*
X64567D01*
X63899Y331233D01*
X63276Y330976D01*
X62742Y330565D01*
X62332Y330031D01*
X62074Y329408D01*
X61986Y328740D01*
X62074Y328072D01*
X62332Y327450D01*
X62742Y326915D01*
X63276Y326505D01*
X63899Y326247D01*
X64567Y326159D01*
X94207D01*
X96600Y323765D01*
X97135Y323355D01*
X97757Y323097D01*
X98425Y323009D01*
X99093Y323097D01*
X99716Y323355D01*
X100250Y323765D01*
X100661Y324300D01*
X100856Y324772D01*
X101356Y324672D01*
Y226266D01*
X92269Y217179D01*
X91859Y216645D01*
X91601Y216022D01*
X91513Y215354D01*
Y190439D01*
X86332Y185258D01*
X74410D01*
X73741Y185170D01*
X73119Y184913D01*
X72584Y184502D01*
X72174Y183968D01*
X71916Y183345D01*
X71828Y182677D01*
X71916Y182009D01*
X72174Y181387D01*
X72584Y180852D01*
X73119Y180442D01*
X73741Y180184D01*
X74410Y180096D01*
X78134D01*
Y162835D01*
X71797Y156498D01*
X71387Y155963D01*
X71129Y155341D01*
X71041Y154673D01*
Y149432D01*
X54724D01*
X54056Y149344D01*
X53434Y149086D01*
X52899Y148676D01*
X45388Y141164D01*
X8487D01*
Y170079D01*
X8399Y170747D01*
X8141Y171369D01*
X7731Y171904D01*
X7196Y172314D01*
X6574Y172572D01*
X5906Y172660D01*
X0D01*
X-668Y172572D01*
X-1291Y172314D01*
X-1825Y171904D01*
X-2235Y171369D01*
X-2434Y170891D01*
X-2933Y170990D01*
Y357852D01*
X12227Y373012D01*
X164939Y373012D01*
X180099Y357852D01*
D02*
G37*
%LPC*%
G36*
X92872Y368701D02*
X92167D01*
X91516Y368431D01*
X91018Y367933D01*
X90748Y367282D01*
Y366577D01*
X91018Y365926D01*
X91516Y365427D01*
X92167Y365158D01*
X92872D01*
X93523Y365427D01*
X94022Y365926D01*
X94291Y366577D01*
Y367282D01*
X94022Y367933D01*
X93523Y368431D01*
X92872Y368701D01*
D02*
G37*
G36*
X72793D02*
X72088D01*
X71437Y368431D01*
X70939Y367933D01*
X70669Y367282D01*
Y366577D01*
X70939Y365926D01*
X71437Y365427D01*
X72088Y365158D01*
X72793D01*
X73444Y365427D01*
X73943Y365926D01*
X74213Y366577D01*
Y367282D01*
X73943Y367933D01*
X73444Y368431D01*
X72793Y368701D01*
D02*
G37*
G36*
X171367Y362204D02*
Y354832D01*
X176443D01*
Y356694D01*
X176253Y358137D01*
X175696Y359482D01*
X174810Y360636D01*
X173655Y361522D01*
X172310Y362079D01*
X171367Y362204D01*
D02*
G37*
G36*
X47745Y362204D02*
Y354832D01*
X52821D01*
Y356694D01*
X52631Y358137D01*
X52074Y359482D01*
X51188Y360636D01*
X50033Y361522D01*
X48688Y362079D01*
X47745Y362204D01*
D02*
G37*
G36*
X46745Y362204D02*
X45802Y362079D01*
X44458Y361522D01*
X43303Y360636D01*
X42417Y359482D01*
X41860Y358137D01*
X41670Y356694D01*
Y354832D01*
X46745D01*
Y362204D01*
D02*
G37*
G36*
X170367D02*
X169424Y362079D01*
X168080Y361522D01*
X166925Y360636D01*
X166039Y359482D01*
X165482Y358137D01*
X165292Y356694D01*
Y354832D01*
X170367D01*
Y362204D01*
D02*
G37*
G36*
X130422D02*
Y354832D01*
X135498D01*
Y356694D01*
X135308Y358137D01*
X134751Y359482D01*
X133865Y360636D01*
X132710Y361522D01*
X131366Y362079D01*
X130422Y362204D01*
D02*
G37*
G36*
X129422D02*
X128480Y362079D01*
X127135Y361522D01*
X125980Y360636D01*
X125094Y359482D01*
X124537Y358137D01*
X124347Y356694D01*
Y354832D01*
X129422D01*
Y362204D01*
D02*
G37*
G36*
X6801D02*
Y354832D01*
X11876D01*
Y356694D01*
X11686Y358137D01*
X11129Y359482D01*
X10243Y360636D01*
X9088Y361522D01*
X7744Y362079D01*
X6801Y362204D01*
D02*
G37*
G36*
X5801D02*
X4857Y362079D01*
X3513Y361522D01*
X2358Y360636D01*
X1472Y359482D01*
X915Y358137D01*
X725Y356694D01*
Y354832D01*
X5801D01*
Y362204D01*
D02*
G37*
G36*
X46745Y353832D02*
X41670D01*
Y351970D01*
X41860Y350527D01*
X42417Y349182D01*
X43303Y348027D01*
X44458Y347141D01*
X45802Y346584D01*
X46745Y346460D01*
Y353832D01*
D02*
G37*
G36*
X176443D02*
X171367D01*
Y346460D01*
X172310Y346584D01*
X173655Y347141D01*
X174810Y348027D01*
X175696Y349182D01*
X176253Y350527D01*
X176443Y351970D01*
Y353832D01*
D02*
G37*
G36*
X135498Y353832D02*
X130422D01*
Y346460D01*
X131366Y346584D01*
X132710Y347141D01*
X133865Y348027D01*
X134751Y349182D01*
X135308Y350527D01*
X135498Y351970D01*
Y353832D01*
D02*
G37*
G36*
X129422D02*
X124347D01*
Y351970D01*
X124537Y350527D01*
X125094Y349182D01*
X125980Y348027D01*
X127135Y347141D01*
X128480Y346584D01*
X129422Y346460D01*
Y353832D01*
D02*
G37*
G36*
X11876D02*
X6801D01*
Y346460D01*
X7744Y346584D01*
X9088Y347141D01*
X10243Y348027D01*
X11129Y349182D01*
X11686Y350527D01*
X11876Y351970D01*
Y353832D01*
D02*
G37*
G36*
X5801D02*
X725D01*
Y351970D01*
X915Y350527D01*
X1472Y349182D01*
X2358Y348027D01*
X3513Y347141D01*
X4857Y346584D01*
X5801Y346460D01*
Y353832D01*
D02*
G37*
G36*
X170367Y353832D02*
X165292D01*
Y351970D01*
X165482Y350527D01*
X166039Y349182D01*
X166925Y348027D01*
X168080Y347141D01*
X169424Y346584D01*
X170367Y346460D01*
Y353832D01*
D02*
G37*
G36*
X52821D02*
X47745D01*
Y346460D01*
X48688Y346584D01*
X50033Y347141D01*
X51188Y348027D01*
X52074Y349182D01*
X52631Y350527D01*
X52821Y351970D01*
Y353832D01*
D02*
G37*
G36*
X59063Y344635D02*
X58359D01*
X57708Y344366D01*
X57209Y343867D01*
X56939Y343216D01*
Y342511D01*
X57209Y341860D01*
X57708Y341362D01*
X58359Y341092D01*
X59063D01*
X59715Y341362D01*
X60213Y341860D01*
X60483Y342511D01*
Y343216D01*
X60213Y343867D01*
X59715Y344366D01*
X59063Y344635D01*
D02*
G37*
G36*
X116359Y343898D02*
X115654D01*
X115003Y343628D01*
X114505Y343129D01*
X114235Y342478D01*
Y341774D01*
X114505Y341122D01*
X115003Y340624D01*
X115654Y340354D01*
X116359D01*
X117010Y340624D01*
X117509Y341122D01*
X117778Y341774D01*
Y342478D01*
X117509Y343129D01*
X117010Y343628D01*
X116359Y343898D01*
D02*
G37*
G36*
X107085Y341102D02*
X106380D01*
X105729Y340833D01*
X105230Y340334D01*
X104961Y339683D01*
Y338978D01*
X105230Y338327D01*
X105729Y337829D01*
X106380Y337559D01*
X107085D01*
X107736Y337829D01*
X108234Y338327D01*
X108504Y338978D01*
Y339683D01*
X108234Y340334D01*
X107736Y340833D01*
X107085Y341102D01*
D02*
G37*
G36*
X21474Y330135D02*
X17430D01*
Y325304D01*
X21474D01*
Y330135D01*
D02*
G37*
G36*
X16430D02*
X12387D01*
Y325304D01*
X16430D01*
Y330135D01*
D02*
G37*
G36*
X53108Y328543D02*
X52403D01*
X51752Y328274D01*
X51254Y327775D01*
X50984Y327124D01*
Y326419D01*
X51254Y325768D01*
X51752Y325270D01*
X52403Y325000D01*
X53108D01*
X53759Y325270D01*
X54258Y325768D01*
X54528Y326419D01*
Y327124D01*
X54258Y327775D01*
X53759Y328274D01*
X53108Y328543D01*
D02*
G37*
G36*
X127518Y326181D02*
X126813D01*
X126162Y325911D01*
X125663Y325413D01*
X125394Y324762D01*
Y324057D01*
X125663Y323406D01*
X126162Y322907D01*
X126813Y322638D01*
X127518D01*
X128169Y322907D01*
X128667Y323406D01*
X128937Y324057D01*
Y324762D01*
X128667Y325413D01*
X128169Y325911D01*
X127518Y326181D01*
D02*
G37*
G36*
X144686Y329726D02*
X136419D01*
Y319883D01*
X144686D01*
Y329726D01*
D02*
G37*
G36*
X160238Y329761D02*
X159158Y329619D01*
X158153Y329203D01*
X157289Y328540D01*
X156627Y327677D01*
X156210Y326671D01*
X156068Y325592D01*
Y324017D01*
X156210Y322938D01*
X156627Y321932D01*
X157289Y321069D01*
X158153Y320406D01*
X159158Y319989D01*
X160238Y319847D01*
X161317Y319989D01*
X162322Y320406D01*
X163186Y321069D01*
X163848Y321932D01*
X164265Y322938D01*
X164407Y324017D01*
Y325592D01*
X164265Y326671D01*
X163848Y327677D01*
X163186Y328540D01*
X162322Y329203D01*
X161317Y329619D01*
X160238Y329761D01*
D02*
G37*
G36*
X150395D02*
X149316Y329619D01*
X148310Y329203D01*
X147447Y328540D01*
X146784Y327677D01*
X146368Y326671D01*
X146226Y325592D01*
Y324017D01*
X146368Y322938D01*
X146784Y321932D01*
X147447Y321069D01*
X148310Y320406D01*
X149316Y319989D01*
X150395Y319847D01*
X151474Y319989D01*
X152480Y320406D01*
X153343Y321069D01*
X154006Y321932D01*
X154422Y322938D01*
X154564Y324017D01*
Y325592D01*
X154422Y326671D01*
X154006Y327677D01*
X153343Y328540D01*
X152480Y329203D01*
X151474Y329619D01*
X150395Y329761D01*
D02*
G37*
G36*
X36615D02*
X35536Y329619D01*
X34531Y329203D01*
X33667Y328540D01*
X33005Y327677D01*
X32588Y326671D01*
X32446Y325592D01*
Y324017D01*
X32588Y322938D01*
X33005Y321932D01*
X33667Y321069D01*
X34531Y320406D01*
X35536Y319989D01*
X36615Y319847D01*
X37695Y319989D01*
X38700Y320406D01*
X39564Y321069D01*
X40226Y321932D01*
X40643Y322938D01*
X40785Y324017D01*
Y325592D01*
X40643Y326671D01*
X40226Y327677D01*
X39564Y328540D01*
X38700Y329203D01*
X37695Y329619D01*
X36615Y329761D01*
D02*
G37*
G36*
X26773D02*
X25694Y329619D01*
X24688Y329203D01*
X23825Y328540D01*
X23162Y327677D01*
X22746Y326671D01*
X22603Y325592D01*
Y324017D01*
X22746Y322938D01*
X23162Y321932D01*
X23825Y321069D01*
X24688Y320406D01*
X25694Y319989D01*
X26773Y319847D01*
X27852Y319989D01*
X28858Y320406D01*
X29721Y321069D01*
X30384Y321932D01*
X30800Y322938D01*
X30942Y324017D01*
Y325592D01*
X30800Y326671D01*
X30384Y327677D01*
X29721Y328540D01*
X28858Y329203D01*
X27852Y329619D01*
X26773Y329761D01*
D02*
G37*
G36*
X21474Y324304D02*
X17430D01*
Y319474D01*
X21474D01*
Y324304D01*
D02*
G37*
G36*
X16430D02*
X12387D01*
Y319474D01*
X16430D01*
Y324304D01*
D02*
G37*
G36*
X57833Y319488D02*
X57128D01*
X56477Y319218D01*
X55978Y318720D01*
X55709Y318069D01*
Y317364D01*
X55978Y316713D01*
X56477Y316215D01*
X57128Y315945D01*
X57833D01*
X58484Y316215D01*
X58982Y316713D01*
X59252Y317364D01*
Y318069D01*
X58982Y318720D01*
X58484Y319218D01*
X57833Y319488D01*
D02*
G37*
G36*
X84998Y317126D02*
X84293D01*
X83642Y316856D01*
X83144Y316358D01*
X82874Y315707D01*
Y315002D01*
X83144Y314351D01*
X83642Y313852D01*
X84293Y313583D01*
X84998D01*
X85649Y313852D01*
X86148Y314351D01*
X86417Y315002D01*
Y315707D01*
X86148Y316358D01*
X85649Y316856D01*
X84998Y317126D01*
D02*
G37*
G36*
X68463Y314370D02*
X67758D01*
X67107Y314100D01*
X66608Y313602D01*
X66339Y312951D01*
Y312246D01*
X66608Y311595D01*
X67107Y311097D01*
X67758Y310827D01*
X68463D01*
X69114Y311097D01*
X69612Y311595D01*
X69882Y312246D01*
Y312951D01*
X69612Y313602D01*
X69114Y314100D01*
X68463Y314370D01*
D02*
G37*
G36*
X63394Y302116D02*
X62689D01*
X62038Y301846D01*
X61540Y301348D01*
X61270Y300696D01*
Y299992D01*
X61540Y299341D01*
X62038Y298842D01*
X62689Y298572D01*
X63394D01*
X64045Y298842D01*
X64544Y299341D01*
X64813Y299992D01*
Y300696D01*
X64544Y301348D01*
X64045Y301846D01*
X63394Y302116D01*
D02*
G37*
G36*
X12252Y303748D02*
X5071D01*
Y296567D01*
X12252D01*
Y303748D01*
D02*
G37*
G36*
X9188Y294158D02*
X9161D01*
Y290657D01*
X12661D01*
Y290684D01*
X12389Y291701D01*
X11862Y292614D01*
X11118Y293358D01*
X10205Y293885D01*
X9188Y294158D01*
D02*
G37*
G36*
X8161D02*
X8135D01*
X7118Y293885D01*
X6205Y293358D01*
X5461Y292614D01*
X4934Y291701D01*
X4661Y290684D01*
Y290657D01*
X8161D01*
Y294158D01*
D02*
G37*
G36*
X12661Y289657D02*
X9161D01*
Y286157D01*
X9188D01*
X10205Y286430D01*
X11118Y286957D01*
X11862Y287701D01*
X12389Y288614D01*
X12661Y289631D01*
Y289657D01*
D02*
G37*
G36*
X8161D02*
X4661D01*
Y289631D01*
X4934Y288614D01*
X5461Y287701D01*
X6205Y286957D01*
X7118Y286430D01*
X8135Y286157D01*
X8161D01*
Y289657D01*
D02*
G37*
G36*
X9134Y283748D02*
X8189D01*
X7276Y283503D01*
X6457Y283031D01*
X5788Y282362D01*
X5316Y281543D01*
X5071Y280630D01*
Y279685D01*
X5316Y278772D01*
X5788Y277953D01*
X6457Y277284D01*
X7276Y276812D01*
X8189Y276567D01*
X9134D01*
X10047Y276812D01*
X10866Y277284D01*
X11535Y277953D01*
X12007Y278772D01*
X12252Y279685D01*
Y280630D01*
X12007Y281543D01*
X11535Y282362D01*
X10866Y283031D01*
X10047Y283503D01*
X9134Y283748D01*
D02*
G37*
G36*
X84083Y279345D02*
Y276091D01*
X87337D01*
X87083Y277040D01*
X86588Y277897D01*
X85889Y278596D01*
X85032Y279090D01*
X84083Y279345D01*
D02*
G37*
G36*
X83083D02*
X82133Y279090D01*
X81277Y278596D01*
X80577Y277897D01*
X80083Y277040D01*
X79828Y276091D01*
X83083D01*
Y279345D01*
D02*
G37*
G36*
X96929Y278937D02*
X90236D01*
Y272244D01*
X96929D01*
Y278937D01*
D02*
G37*
G36*
X87337Y275091D02*
X84083D01*
Y271836D01*
X85032Y272091D01*
X85889Y272585D01*
X86588Y273284D01*
X87083Y274141D01*
X87337Y275091D01*
D02*
G37*
G36*
X83083D02*
X79828D01*
X80083Y274141D01*
X80577Y273284D01*
X81277Y272585D01*
X82133Y272091D01*
X83083Y271836D01*
Y275091D01*
D02*
G37*
G36*
X24368Y272244D02*
X23663D01*
X23012Y271974D01*
X22514Y271476D01*
X22244Y270825D01*
Y270120D01*
X22514Y269469D01*
X23012Y268970D01*
X23663Y268701D01*
X24368D01*
X25019Y268970D01*
X25518Y269469D01*
X25787Y270120D01*
Y270825D01*
X25518Y271476D01*
X25019Y271974D01*
X24368Y272244D01*
D02*
G37*
G36*
X37402Y260075D02*
X35827D01*
X34748Y259933D01*
X33742Y259516D01*
X32879Y258854D01*
X32216Y257990D01*
X31799Y256985D01*
X31657Y255906D01*
X31799Y254826D01*
X32216Y253821D01*
X32879Y252957D01*
X33742Y252295D01*
X34748Y251878D01*
X35827Y251736D01*
X37402D01*
X38481Y251878D01*
X39486Y252295D01*
X40350Y252957D01*
X41012Y253821D01*
X41429Y254826D01*
X41571Y255906D01*
X41429Y256985D01*
X41012Y257990D01*
X40350Y258854D01*
X39486Y259516D01*
X38481Y259933D01*
X37402Y260075D01*
D02*
G37*
G36*
X17717D02*
X16142D01*
X15063Y259933D01*
X14057Y259516D01*
X13193Y258854D01*
X12531Y257990D01*
X12114Y256985D01*
X11972Y255906D01*
X12114Y254826D01*
X12531Y253821D01*
X13193Y252957D01*
X14057Y252295D01*
X15063Y251878D01*
X16142Y251736D01*
X17717D01*
X18796Y251878D01*
X19801Y252295D01*
X20665Y252957D01*
X21327Y253821D01*
X21744Y254826D01*
X21886Y255906D01*
X21744Y256985D01*
X21327Y257990D01*
X20665Y258854D01*
X19801Y259516D01*
X18796Y259933D01*
X17717Y260075D01*
D02*
G37*
G36*
X49959Y247047D02*
X49254D01*
X48603Y246778D01*
X48104Y246279D01*
X47835Y245628D01*
Y244923D01*
X48104Y244272D01*
X48603Y243774D01*
X49254Y243504D01*
X49959D01*
X50610Y243774D01*
X51108Y244272D01*
X51378Y244923D01*
Y245628D01*
X51108Y246279D01*
X50610Y246778D01*
X49959Y247047D01*
D02*
G37*
G36*
X120118Y241705D02*
X119094D01*
X118105Y241440D01*
X117218Y240928D01*
X116493Y240204D01*
X115981Y239317D01*
X115716Y238327D01*
Y237303D01*
X115981Y236313D01*
X116493Y235426D01*
X117218Y234702D01*
X118105Y234190D01*
X119094Y233924D01*
X120118D01*
X121108Y234190D01*
X121995Y234702D01*
X122720Y235426D01*
X123232Y236313D01*
X123497Y237303D01*
Y238327D01*
X123232Y239317D01*
X122720Y240204D01*
X121995Y240928D01*
X121108Y241440D01*
X120118Y241705D01*
D02*
G37*
G36*
X43413Y240156D02*
Y232785D01*
X48489D01*
Y234647D01*
X48299Y236090D01*
X47742Y237435D01*
X46856Y238589D01*
X45701Y239475D01*
X44356Y240032D01*
X43413Y240156D01*
D02*
G37*
G36*
X171367D02*
Y232785D01*
X176443D01*
Y234647D01*
X176253Y236090D01*
X175696Y237435D01*
X174810Y238589D01*
X173655Y239475D01*
X172310Y240032D01*
X171367Y240156D01*
D02*
G37*
G36*
X42413D02*
X41470Y240032D01*
X40126Y239475D01*
X38971Y238589D01*
X38085Y237435D01*
X37528Y236090D01*
X37338Y234647D01*
Y232785D01*
X42413D01*
Y240156D01*
D02*
G37*
G36*
X170367D02*
X169424Y240032D01*
X168080Y239475D01*
X166925Y238589D01*
X166039Y237435D01*
X165482Y236090D01*
X165292Y234647D01*
Y232785D01*
X170367D01*
Y240156D01*
D02*
G37*
G36*
X130422D02*
Y232785D01*
X135498D01*
Y234647D01*
X135308Y236090D01*
X134751Y237435D01*
X133865Y238589D01*
X132710Y239475D01*
X131366Y240032D01*
X130422Y240156D01*
D02*
G37*
G36*
X129422D02*
X128480Y240032D01*
X127135Y239475D01*
X125980Y238589D01*
X125094Y237435D01*
X124537Y236090D01*
X124347Y234647D01*
Y232785D01*
X129422D01*
Y240156D01*
D02*
G37*
G36*
X11130D02*
Y232785D01*
X16205D01*
Y234647D01*
X16015Y236090D01*
X15458Y237435D01*
X14572Y238589D01*
X13418Y239475D01*
X12073Y240032D01*
X11130Y240156D01*
D02*
G37*
G36*
X10130D02*
X9187Y240032D01*
X7842Y239475D01*
X6688Y238589D01*
X5802Y237435D01*
X5245Y236090D01*
X5055Y234647D01*
Y232785D01*
X10130D01*
Y240156D01*
D02*
G37*
G36*
X80119Y239206D02*
X79094D01*
X78105Y238940D01*
X77217Y238428D01*
X76493Y237704D01*
X75981Y236817D01*
X75716Y235827D01*
Y234803D01*
X75981Y233813D01*
X76493Y232926D01*
X77217Y232202D01*
X78105Y231690D01*
X79094Y231424D01*
X80119D01*
X81108Y231690D01*
X81995Y232202D01*
X82719Y232926D01*
X83232Y233813D01*
X83497Y234803D01*
Y235827D01*
X83232Y236817D01*
X82719Y237704D01*
X81995Y238428D01*
X81108Y238940D01*
X80119Y239206D01*
D02*
G37*
G36*
X55077Y231299D02*
X54372D01*
X53721Y231030D01*
X53223Y230531D01*
X52953Y229880D01*
Y229175D01*
X53223Y228524D01*
X53721Y228026D01*
X54372Y227756D01*
X55077D01*
X55728Y228026D01*
X56226Y228524D01*
X56496Y229175D01*
Y229880D01*
X56226Y230531D01*
X55728Y231030D01*
X55077Y231299D01*
D02*
G37*
G36*
X176443Y231785D02*
X171367D01*
Y224413D01*
X172310Y224537D01*
X173655Y225094D01*
X174810Y225980D01*
X175696Y227135D01*
X176253Y228479D01*
X176443Y229922D01*
Y231785D01*
D02*
G37*
G36*
X48489D02*
X43413D01*
Y224413D01*
X44356Y224537D01*
X45701Y225094D01*
X46856Y225980D01*
X47742Y227135D01*
X48299Y228479D01*
X48489Y229922D01*
Y231785D01*
D02*
G37*
G36*
X135498Y231785D02*
X130422D01*
Y224413D01*
X131366Y224537D01*
X132710Y225094D01*
X133865Y225980D01*
X134751Y227135D01*
X135308Y228479D01*
X135498Y229922D01*
Y231785D01*
D02*
G37*
G36*
X129422D02*
X124347D01*
Y229922D01*
X124537Y228479D01*
X125094Y227135D01*
X125980Y225980D01*
X127135Y225094D01*
X128480Y224537D01*
X129422Y224413D01*
Y231785D01*
D02*
G37*
G36*
X16205D02*
X11130D01*
Y224413D01*
X12073Y224537D01*
X13418Y225094D01*
X14572Y225980D01*
X15458Y227135D01*
X16015Y228479D01*
X16205Y229922D01*
Y231785D01*
D02*
G37*
G36*
X10130D02*
X5055D01*
Y229922D01*
X5245Y228479D01*
X5802Y227135D01*
X6688Y225980D01*
X7842Y225094D01*
X9187Y224537D01*
X10130Y224413D01*
Y231785D01*
D02*
G37*
G36*
X170367Y231785D02*
X165292D01*
Y229922D01*
X165482Y228479D01*
X166039Y227135D01*
X166925Y225980D01*
X168080Y225094D01*
X169424Y224537D01*
X170367Y224413D01*
Y231785D01*
D02*
G37*
G36*
X42413D02*
X37338D01*
Y229922D01*
X37528Y228479D01*
X38085Y227135D01*
X38971Y225980D01*
X40126Y225094D01*
X41470Y224537D01*
X42413Y224413D01*
Y231785D01*
D02*
G37*
G36*
X120172Y227115D02*
X120106D01*
Y223315D01*
X123906D01*
Y223381D01*
X123613Y224475D01*
X123047Y225455D01*
X122247Y226256D01*
X121266Y226822D01*
X120172Y227115D01*
D02*
G37*
G36*
X119106D02*
X119040D01*
X117947Y226822D01*
X116966Y226256D01*
X116165Y225455D01*
X115599Y224475D01*
X115306Y223381D01*
Y223315D01*
X119106D01*
Y227115D01*
D02*
G37*
G36*
X80119Y229205D02*
X79094D01*
X78105Y228940D01*
X77217Y228428D01*
X76493Y227704D01*
X75981Y226817D01*
X75716Y225827D01*
Y224803D01*
X75981Y223813D01*
X76493Y222926D01*
X77217Y222202D01*
X78105Y221690D01*
X79094Y221424D01*
X80119D01*
X81108Y221690D01*
X81995Y222202D01*
X82719Y222926D01*
X83232Y223813D01*
X83497Y224803D01*
Y225827D01*
X83232Y226817D01*
X82719Y227704D01*
X81995Y228428D01*
X81108Y228940D01*
X80119Y229205D01*
D02*
G37*
G36*
X56258Y222638D02*
X55553D01*
X54902Y222368D01*
X54404Y221870D01*
X54134Y221218D01*
Y220514D01*
X54404Y219863D01*
X54902Y219364D01*
X55553Y219094D01*
X56258D01*
X56909Y219364D01*
X57407Y219863D01*
X57677Y220514D01*
Y221218D01*
X57407Y221870D01*
X56909Y222368D01*
X56258Y222638D01*
D02*
G37*
G36*
X123906Y222315D02*
X120106D01*
Y218515D01*
X120172D01*
X121266Y218808D01*
X122247Y219374D01*
X123047Y220175D01*
X123613Y221155D01*
X123906Y222249D01*
Y222315D01*
D02*
G37*
G36*
X119106D02*
X115306D01*
Y222249D01*
X115599Y221155D01*
X116165Y220175D01*
X116966Y219374D01*
X117947Y218808D01*
X119040Y218515D01*
X119106D01*
Y222315D01*
D02*
G37*
G36*
X61238Y211358D02*
X60533D01*
X59882Y211088D01*
X59384Y210590D01*
X59114Y209939D01*
Y209234D01*
X59384Y208583D01*
X59882Y208085D01*
X60533Y207815D01*
X61238D01*
X61889Y208085D01*
X62388Y208583D01*
X62657Y209234D01*
Y209939D01*
X62388Y210590D01*
X61889Y211088D01*
X61238Y211358D01*
D02*
G37*
G36*
X119644Y209646D02*
X118939D01*
X118288Y209376D01*
X117789Y208878D01*
X117520Y208226D01*
Y207522D01*
X117789Y206871D01*
X118288Y206372D01*
X118939Y206102D01*
X119644D01*
X120295Y206372D01*
X120793Y206871D01*
X121063Y207522D01*
Y208226D01*
X120793Y208878D01*
X120295Y209376D01*
X119644Y209646D01*
D02*
G37*
G36*
X86659Y208379D02*
X85954D01*
X85303Y208109D01*
X84804Y207611D01*
X84535Y206960D01*
Y206255D01*
X84804Y205604D01*
X85303Y205105D01*
X85954Y204836D01*
X86659D01*
X87310Y205105D01*
X87808Y205604D01*
X88078Y206255D01*
Y206960D01*
X87808Y207611D01*
X87310Y208109D01*
X86659Y208379D01*
D02*
G37*
G36*
X21064Y213583D02*
X12797D01*
Y203740D01*
X21064D01*
Y213583D01*
D02*
G37*
G36*
X36615Y213618D02*
X35536Y213476D01*
X34531Y213060D01*
X33667Y212397D01*
X33005Y211534D01*
X32588Y210528D01*
X32446Y209449D01*
Y207874D01*
X32588Y206795D01*
X33005Y205789D01*
X33667Y204926D01*
X34531Y204263D01*
X35536Y203847D01*
X36615Y203705D01*
X37695Y203847D01*
X38700Y204263D01*
X39564Y204926D01*
X40226Y205789D01*
X40643Y206795D01*
X40785Y207874D01*
Y209449D01*
X40643Y210528D01*
X40226Y211534D01*
X39564Y212397D01*
X38700Y213060D01*
X37695Y213476D01*
X36615Y213618D01*
D02*
G37*
G36*
X26772D02*
X25692Y213476D01*
X24687Y213060D01*
X23823Y212397D01*
X23161Y211534D01*
X22744Y210528D01*
X22602Y209449D01*
Y207874D01*
X22744Y206795D01*
X23161Y205789D01*
X23823Y204926D01*
X24687Y204263D01*
X25692Y203847D01*
X26772Y203705D01*
X27851Y203847D01*
X28856Y204263D01*
X29720Y204926D01*
X30383Y205789D01*
X30799Y206795D01*
X30941Y207874D01*
Y209449D01*
X30799Y210528D01*
X30383Y211534D01*
X29720Y212397D01*
X28856Y213060D01*
X27851Y213476D01*
X26772Y213618D01*
D02*
G37*
G36*
X144686Y207678D02*
X136419D01*
Y197836D01*
X144686D01*
Y207678D01*
D02*
G37*
G36*
X160238Y207714D02*
X159158Y207572D01*
X158153Y207155D01*
X157289Y206493D01*
X156627Y205629D01*
X156210Y204624D01*
X156068Y203544D01*
Y201970D01*
X156210Y200890D01*
X156627Y199885D01*
X157289Y199021D01*
X158153Y198359D01*
X159158Y197942D01*
X160238Y197800D01*
X161317Y197942D01*
X162322Y198359D01*
X163186Y199021D01*
X163848Y199885D01*
X164265Y200890D01*
X164407Y201970D01*
Y203544D01*
X164265Y204624D01*
X163848Y205629D01*
X163186Y206493D01*
X162322Y207155D01*
X161317Y207572D01*
X160238Y207714D01*
D02*
G37*
G36*
X150395D02*
X149316Y207572D01*
X148310Y207155D01*
X147447Y206493D01*
X146784Y205629D01*
X146368Y204624D01*
X146226Y203544D01*
Y201970D01*
X146368Y200890D01*
X146784Y199885D01*
X147447Y199021D01*
X148310Y198359D01*
X149316Y197942D01*
X150395Y197800D01*
X151474Y197942D01*
X152480Y198359D01*
X153343Y199021D01*
X154006Y199885D01*
X154422Y200890D01*
X154564Y201970D01*
Y203544D01*
X154422Y204624D01*
X154006Y205629D01*
X153343Y206493D01*
X152480Y207155D01*
X151474Y207572D01*
X150395Y207714D01*
D02*
G37*
G36*
X34604Y197047D02*
X33900D01*
X33248Y196777D01*
X32750Y196279D01*
X32480Y195628D01*
Y194923D01*
X32750Y194272D01*
X33248Y193774D01*
X33900Y193504D01*
X34604D01*
X35256Y193774D01*
X35754Y194272D01*
X36024Y194923D01*
Y195628D01*
X35754Y196279D01*
X35256Y196777D01*
X34604Y197047D01*
D02*
G37*
G36*
X156Y193146D02*
X-549D01*
X-1200Y192876D01*
X-1699Y192378D01*
X-1969Y191726D01*
Y191022D01*
X-1699Y190371D01*
X-1200Y189872D01*
X-549Y189602D01*
X156D01*
X807Y189872D01*
X1305Y190371D01*
X1575Y191022D01*
Y191726D01*
X1305Y192378D01*
X807Y192876D01*
X156Y193146D01*
D02*
G37*
G36*
X98358Y187231D02*
X97653D01*
X97002Y186961D01*
X96504Y186463D01*
X96234Y185811D01*
Y185107D01*
X96504Y184455D01*
X97002Y183957D01*
X97653Y183687D01*
X98358D01*
X99009Y183957D01*
X99507Y184455D01*
X99777Y185107D01*
Y185811D01*
X99507Y186463D01*
X99009Y186961D01*
X98358Y187231D01*
D02*
G37*
G36*
X173638Y186689D02*
X167232D01*
Y182252D01*
X173638D01*
Y186689D01*
D02*
G37*
G36*
X166232D02*
X159827D01*
Y182252D01*
X166232D01*
Y186689D01*
D02*
G37*
G36*
X145669Y186732D02*
X142232D01*
Y182252D01*
X150583D01*
X150479Y183041D01*
X149982Y184242D01*
X149190Y185273D01*
X148159Y186064D01*
X146958Y186562D01*
X145669Y186732D01*
D02*
G37*
G36*
X141232D02*
X137795D01*
X136506Y186562D01*
X135306Y186064D01*
X134274Y185273D01*
X133483Y184242D01*
X132985Y183041D01*
X132881Y182252D01*
X141232D01*
Y186732D01*
D02*
G37*
G36*
X65707Y183661D02*
X65002D01*
X64351Y183392D01*
X63852Y182893D01*
X63583Y182242D01*
Y181537D01*
X63852Y180886D01*
X64351Y180388D01*
X65002Y180118D01*
X65707D01*
X66358Y180388D01*
X66856Y180886D01*
X67126Y181537D01*
Y182242D01*
X66856Y182893D01*
X66358Y183392D01*
X65707Y183661D01*
D02*
G37*
G36*
X120669Y186319D02*
X112795D01*
X111613Y186163D01*
X110512Y185707D01*
X109566Y184981D01*
X108841Y184035D01*
X108384Y182934D01*
X108229Y181752D01*
X108384Y180570D01*
X108841Y179469D01*
X109566Y178523D01*
X110512Y177797D01*
X111613Y177341D01*
X112795Y177185D01*
X120669D01*
X121851Y177341D01*
X122953Y177797D01*
X123898Y178523D01*
X124624Y179469D01*
X125080Y180570D01*
X125236Y181752D01*
X125080Y182934D01*
X124624Y184035D01*
X123898Y184981D01*
X122953Y185707D01*
X121851Y186163D01*
X120669Y186319D01*
D02*
G37*
G36*
X173638Y181252D02*
X167232D01*
Y176815D01*
X173638D01*
Y181252D01*
D02*
G37*
G36*
X166232D02*
X159827D01*
Y176815D01*
X166232D01*
Y181252D01*
D02*
G37*
G36*
X150583D02*
X142232D01*
Y176772D01*
X145669D01*
X146958Y176942D01*
X148159Y177439D01*
X149190Y178231D01*
X149982Y179262D01*
X150479Y180463D01*
X150583Y181252D01*
D02*
G37*
G36*
X141232D02*
X132881D01*
X132985Y180463D01*
X133483Y179262D01*
X134274Y178231D01*
X135306Y177439D01*
X136506Y176942D01*
X137795Y176772D01*
X141232D01*
Y181252D01*
D02*
G37*
G36*
X128699Y175394D02*
X127994D01*
X127343Y175124D01*
X126845Y174626D01*
X126575Y173975D01*
Y173270D01*
X126845Y172618D01*
X127343Y172120D01*
X127994Y171850D01*
X128699D01*
X129350Y172120D01*
X129848Y172618D01*
X130118Y173270D01*
Y173975D01*
X129848Y174626D01*
X129350Y175124D01*
X128699Y175394D01*
D02*
G37*
G36*
X169095Y169685D02*
X158465D01*
Y163386D01*
X169095D01*
Y169685D01*
D02*
G37*
G36*
X13502Y164134D02*
X12797D01*
X12146Y163864D01*
X11648Y163366D01*
X11378Y162715D01*
Y162010D01*
X11648Y161359D01*
X12146Y160860D01*
X12797Y160591D01*
X13502D01*
X14153Y160860D01*
X14651Y161359D01*
X14921Y162010D01*
Y162715D01*
X14651Y163366D01*
X14153Y163864D01*
X13502Y164134D01*
D02*
G37*
G36*
X42085Y162899D02*
X41380D01*
X40729Y162629D01*
X40230Y162131D01*
X39961Y161480D01*
Y160775D01*
X40230Y160124D01*
X40729Y159625D01*
X41380Y159356D01*
X42085D01*
X42736Y159625D01*
X43234Y160124D01*
X43504Y160775D01*
Y161480D01*
X43234Y162131D01*
X42736Y162629D01*
X42085Y162899D01*
D02*
G37*
G36*
X59801Y141535D02*
X59096D01*
X58445Y141266D01*
X57947Y140767D01*
X57677Y140116D01*
Y139411D01*
X57947Y138760D01*
X58445Y138262D01*
X59096Y137992D01*
X59801D01*
X60452Y138262D01*
X60951Y138760D01*
X61221Y139411D01*
Y140116D01*
X60951Y140767D01*
X60452Y141266D01*
X59801Y141535D01*
D02*
G37*
G36*
X143856Y139370D02*
X143151D01*
X142500Y139100D01*
X142002Y138602D01*
X141732Y137951D01*
Y137246D01*
X142002Y136595D01*
X142500Y136097D01*
X143151Y135827D01*
X143856D01*
X144508Y136097D01*
X145006Y136595D01*
X145276Y137246D01*
Y137951D01*
X145006Y138602D01*
X144508Y139100D01*
X143856Y139370D01*
D02*
G37*
G36*
X64370Y134960D02*
X60933D01*
Y130480D01*
X69284D01*
X69180Y131269D01*
X68682Y132470D01*
X67891Y133501D01*
X66860Y134293D01*
X65659Y134790D01*
X64370Y134960D01*
D02*
G37*
G36*
X39370D02*
X35933D01*
Y130480D01*
X44284D01*
X44180Y131269D01*
X43683Y132470D01*
X42891Y133501D01*
X41860Y134293D01*
X40659Y134790D01*
X39370Y134960D01*
D02*
G37*
G36*
X14370D02*
X10933D01*
Y130480D01*
X19284D01*
X19180Y131269D01*
X18683Y132470D01*
X17891Y133501D01*
X16860Y134293D01*
X15659Y134790D01*
X14370Y134960D01*
D02*
G37*
G36*
X59933D02*
X56496D01*
X55207Y134790D01*
X54006Y134293D01*
X52975Y133501D01*
X52184Y132470D01*
X51686Y131269D01*
X51582Y130480D01*
X59933D01*
Y134960D01*
D02*
G37*
G36*
X9933D02*
X6496D01*
X5207Y134790D01*
X4006Y134293D01*
X2975Y133501D01*
X2184Y132470D01*
X1686Y131269D01*
X1582Y130480D01*
X9933D01*
Y134960D01*
D02*
G37*
G36*
X34933D02*
X31496D01*
X30207Y134790D01*
X29006Y134293D01*
X27975Y133501D01*
X27184Y132470D01*
X26686Y131269D01*
X26582Y130480D01*
X34933D01*
Y134960D01*
D02*
G37*
G36*
X169095Y136221D02*
X158465D01*
Y129921D01*
X169095D01*
Y136221D01*
D02*
G37*
G36*
X126337Y131299D02*
X125632D01*
X124981Y131029D01*
X124482Y130531D01*
X124213Y129880D01*
Y129175D01*
X124482Y128524D01*
X124981Y128026D01*
X125632Y127756D01*
X126337D01*
X126988Y128026D01*
X127486Y128524D01*
X127756Y129175D01*
Y129880D01*
X127486Y130531D01*
X126988Y131029D01*
X126337Y131299D01*
D02*
G37*
G36*
X69284Y129480D02*
X60933D01*
Y125001D01*
X64370D01*
X65659Y125170D01*
X66860Y125668D01*
X67891Y126459D01*
X68682Y127490D01*
X69180Y128691D01*
X69284Y129480D01*
D02*
G37*
G36*
X59933D02*
X51582D01*
X51686Y128691D01*
X52184Y127490D01*
X52975Y126459D01*
X54006Y125668D01*
X55207Y125170D01*
X56496Y125001D01*
X59933D01*
Y129480D01*
D02*
G37*
G36*
X44284D02*
X35933D01*
Y125001D01*
X39370D01*
X40659Y125170D01*
X41860Y125668D01*
X42891Y126459D01*
X43683Y127490D01*
X44180Y128691D01*
X44284Y129480D01*
D02*
G37*
G36*
X34933D02*
X26582D01*
X26686Y128691D01*
X27184Y127490D01*
X27975Y126459D01*
X29006Y125668D01*
X30207Y125170D01*
X31496Y125001D01*
X34933D01*
Y129480D01*
D02*
G37*
G36*
X19284D02*
X10933D01*
Y125001D01*
X14370D01*
X15659Y125170D01*
X16860Y125668D01*
X17891Y126459D01*
X18683Y127490D01*
X19180Y128691D01*
X19284Y129480D01*
D02*
G37*
G36*
X9933D02*
X1582D01*
X1686Y128691D01*
X2184Y127490D01*
X2975Y126459D01*
X4006Y125668D01*
X5207Y125170D01*
X6496Y125001D01*
X9933D01*
Y129480D01*
D02*
G37*
G36*
X170669Y122834D02*
X167232D01*
Y118354D01*
X175583D01*
X175479Y119143D01*
X174982Y120344D01*
X174190Y121376D01*
X173159Y122167D01*
X171958Y122664D01*
X170669Y122834D01*
D02*
G37*
G36*
X166232D02*
X162795D01*
X161506Y122664D01*
X160306Y122167D01*
X159274Y121376D01*
X158483Y120344D01*
X157985Y119143D01*
X157881Y118354D01*
X166232D01*
Y122834D01*
D02*
G37*
G36*
X145669D02*
X142232D01*
Y118354D01*
X150583D01*
X150479Y119143D01*
X149982Y120344D01*
X149190Y121376D01*
X148159Y122167D01*
X146958Y122664D01*
X145669Y122834D01*
D02*
G37*
G36*
X141232D02*
X137795D01*
X136506Y122664D01*
X135306Y122167D01*
X134274Y121376D01*
X133483Y120344D01*
X132985Y119143D01*
X132881Y118354D01*
X141232D01*
Y122834D01*
D02*
G37*
G36*
X120669Y122421D02*
X112795D01*
X111613Y122265D01*
X110512Y121809D01*
X109566Y121083D01*
X108841Y120138D01*
X108384Y119036D01*
X108229Y117854D01*
X108384Y116672D01*
X108841Y115571D01*
X109566Y114625D01*
X110512Y113900D01*
X111613Y113443D01*
X112795Y113288D01*
X120669D01*
X121851Y113443D01*
X122953Y113900D01*
X123898Y114625D01*
X124624Y115571D01*
X125080Y116672D01*
X125236Y117854D01*
X125080Y119036D01*
X124624Y120138D01*
X123898Y121083D01*
X122953Y121809D01*
X121851Y122265D01*
X120669Y122421D01*
D02*
G37*
G36*
X175583Y117354D02*
X167232D01*
Y112875D01*
X170669D01*
X171958Y113044D01*
X173159Y113542D01*
X174190Y114333D01*
X174982Y115365D01*
X175479Y116566D01*
X175583Y117354D01*
D02*
G37*
G36*
X166232D02*
X157881D01*
X157985Y116566D01*
X158483Y115365D01*
X159274Y114333D01*
X160306Y113542D01*
X161506Y113044D01*
X162795Y112875D01*
X166232D01*
Y117354D01*
D02*
G37*
G36*
X150583D02*
X142232D01*
Y112875D01*
X145669D01*
X146958Y113044D01*
X148159Y113542D01*
X149190Y114333D01*
X149982Y115365D01*
X150479Y116566D01*
X150583Y117354D01*
D02*
G37*
G36*
X141232D02*
X132881D01*
X132985Y116566D01*
X133483Y115365D01*
X134274Y114333D01*
X135306Y113542D01*
X136506Y113044D01*
X137795Y112875D01*
X141232D01*
Y117354D01*
D02*
G37*
G36*
X18701Y117913D02*
X8071D01*
Y111614D01*
X18701D01*
Y117913D01*
D02*
G37*
G36*
X47990Y111614D02*
X47285D01*
X46634Y111345D01*
X46136Y110846D01*
X45866Y110195D01*
Y109490D01*
X46136Y108839D01*
X46634Y108341D01*
X47285Y108071D01*
X47990D01*
X48641Y108341D01*
X49140Y108839D01*
X49409Y109490D01*
Y110195D01*
X49140Y110846D01*
X48641Y111345D01*
X47990Y111614D01*
D02*
G37*
G36*
X99171Y100984D02*
X98466D01*
X97815Y100715D01*
X97317Y100216D01*
X97047Y99565D01*
Y98860D01*
X97317Y98209D01*
X97815Y97711D01*
X98466Y97441D01*
X99171D01*
X99822Y97711D01*
X100321Y98209D01*
X100591Y98860D01*
Y99565D01*
X100321Y100216D01*
X99822Y100715D01*
X99171Y100984D01*
D02*
G37*
G36*
X159843Y106299D02*
X141732D01*
Y96063D01*
X159843D01*
Y106299D01*
D02*
G37*
G36*
X144504Y93126D02*
X139476D01*
Y83177D01*
X144504D01*
Y93126D01*
D02*
G37*
G36*
X138476D02*
X133449D01*
Y83177D01*
X138476D01*
Y93126D01*
D02*
G37*
G36*
X87360Y84842D02*
X86655D01*
X86004Y84573D01*
X85506Y84074D01*
X85236Y83423D01*
Y82718D01*
X85506Y82067D01*
X86004Y81569D01*
X86655Y81299D01*
X87360D01*
X88011Y81569D01*
X88510Y82067D01*
X88779Y82718D01*
Y83423D01*
X88510Y84074D01*
X88011Y84573D01*
X87360Y84842D01*
D02*
G37*
G36*
X18701Y84449D02*
X8071D01*
Y78150D01*
X18701D01*
Y84449D01*
D02*
G37*
G36*
X97702Y79882D02*
X96997D01*
X96346Y79612D01*
X95847Y79114D01*
X95578Y78463D01*
Y77758D01*
X95847Y77107D01*
X96346Y76609D01*
X96997Y76339D01*
X97702D01*
X98353Y76609D01*
X98851Y77107D01*
X99121Y77758D01*
Y78463D01*
X98851Y79114D01*
X98353Y79612D01*
X97702Y79882D01*
D02*
G37*
G36*
X126337Y78150D02*
X125632D01*
X124981Y77880D01*
X124482Y77381D01*
X124213Y76730D01*
Y76025D01*
X124482Y75374D01*
X124981Y74876D01*
X125632Y74606D01*
X126337D01*
X126988Y74876D01*
X127486Y75374D01*
X127756Y76025D01*
Y76730D01*
X127486Y77381D01*
X126988Y77880D01*
X126337Y78150D01*
D02*
G37*
G36*
X167717Y91732D02*
X157480D01*
Y73622D01*
X167717D01*
Y91732D01*
D02*
G37*
G36*
X144504Y82177D02*
X139476D01*
Y72228D01*
X144504D01*
Y82177D01*
D02*
G37*
G36*
X138476D02*
X133449D01*
Y72228D01*
X138476D01*
Y82177D01*
D02*
G37*
G36*
X39370Y71062D02*
X35933D01*
Y66583D01*
X44284D01*
X44180Y67371D01*
X43683Y68572D01*
X42891Y69604D01*
X41860Y70395D01*
X40659Y70893D01*
X39370Y71062D01*
D02*
G37*
G36*
X17339Y71020D02*
X10933D01*
Y66583D01*
X17339D01*
Y71020D01*
D02*
G37*
G36*
X9933D02*
X3528D01*
Y66583D01*
X9933D01*
Y71020D01*
D02*
G37*
G36*
X34933Y71062D02*
X31496D01*
X30207Y70893D01*
X29006Y70395D01*
X27975Y69604D01*
X27184Y68572D01*
X26686Y67371D01*
X26582Y66583D01*
X34933D01*
Y71062D01*
D02*
G37*
G36*
X64370Y70649D02*
X56496D01*
X55314Y70494D01*
X54213Y70038D01*
X53267Y69312D01*
X52541Y68366D01*
X52085Y67265D01*
X51929Y66083D01*
X52085Y64901D01*
X52541Y63799D01*
X53267Y62854D01*
X54213Y62128D01*
X55314Y61672D01*
X56496Y61516D01*
X64370D01*
X65552Y61672D01*
X66653Y62128D01*
X67599Y62854D01*
X68325Y63799D01*
X68781Y64901D01*
X68937Y66083D01*
X68781Y67265D01*
X68325Y68366D01*
X67599Y69312D01*
X66653Y70038D01*
X65552Y70494D01*
X64370Y70649D01*
D02*
G37*
G36*
X17339Y65583D02*
X10933D01*
Y61146D01*
X17339D01*
Y65583D01*
D02*
G37*
G36*
X9933D02*
X3528D01*
Y61146D01*
X9933D01*
Y65583D01*
D02*
G37*
G36*
X44284D02*
X35933D01*
Y61103D01*
X39370D01*
X40659Y61273D01*
X41860Y61770D01*
X42891Y62562D01*
X43683Y63593D01*
X44180Y64794D01*
X44284Y65583D01*
D02*
G37*
G36*
X34933D02*
X26582D01*
X26686Y64794D01*
X27184Y63593D01*
X27975Y62562D01*
X29006Y61770D01*
X30207Y61273D01*
X31496Y61103D01*
X34933D01*
Y65583D01*
D02*
G37*
G36*
X88314Y55512D02*
X87277D01*
X86276Y55243D01*
X85378Y54725D01*
X84645Y53992D01*
X84127Y53094D01*
X83858Y52093D01*
Y51056D01*
X84127Y50055D01*
X84645Y49157D01*
X85378Y48424D01*
X86276Y47906D01*
X87277Y47638D01*
X88314D01*
X89315Y47906D01*
X90213Y48424D01*
X90946Y49157D01*
X91464Y50055D01*
X91732Y51056D01*
Y52093D01*
X91464Y53094D01*
X90946Y53992D01*
X90213Y54725D01*
X89315Y55243D01*
X88314Y55512D01*
D02*
G37*
G36*
X12436Y43358D02*
X11732D01*
X11080Y43088D01*
X10582Y42590D01*
X10312Y41938D01*
Y41234D01*
X10582Y40582D01*
X11080Y40084D01*
X11732Y39814D01*
X12436D01*
X13088Y40084D01*
X13586Y40582D01*
X13856Y41234D01*
Y41938D01*
X13586Y42590D01*
X13088Y43088D01*
X12436Y43358D01*
D02*
G37*
G36*
X112998Y48228D02*
X111805D01*
X110654Y47920D01*
X109622Y47324D01*
X108779Y46481D01*
X108183Y45448D01*
X107874Y44297D01*
Y43105D01*
X108183Y41953D01*
X108779Y40921D01*
X109622Y40078D01*
X110654Y39482D01*
X111805Y39173D01*
X112998D01*
X114149Y39482D01*
X115182Y40078D01*
X116024Y40921D01*
X116621Y41953D01*
X116929Y43105D01*
Y44297D01*
X116621Y45448D01*
X116024Y46481D01*
X115182Y47324D01*
X114149Y47920D01*
X112998Y48228D01*
D02*
G37*
G36*
X63785D02*
X62593D01*
X61441Y47920D01*
X60409Y47324D01*
X59566Y46481D01*
X58970Y45448D01*
X58661Y44297D01*
Y43105D01*
X58970Y41953D01*
X59566Y40921D01*
X60409Y40078D01*
X61441Y39482D01*
X62593Y39173D01*
X63785D01*
X64937Y39482D01*
X65969Y40078D01*
X66812Y40921D01*
X67408Y41953D01*
X67716Y43105D01*
Y44297D01*
X67408Y45448D01*
X66812Y46481D01*
X65969Y47324D01*
X64937Y47920D01*
X63785Y48228D01*
D02*
G37*
G36*
X32636Y42717D02*
X31931D01*
X31280Y42447D01*
X30781Y41948D01*
X30512Y41297D01*
Y40593D01*
X30781Y39941D01*
X31280Y39443D01*
X31931Y39173D01*
X32636D01*
X33287Y39443D01*
X33785Y39941D01*
X34055Y40593D01*
Y41297D01*
X33785Y41948D01*
X33287Y42447D01*
X32636Y42717D01*
D02*
G37*
G36*
X17675D02*
X16970D01*
X16319Y42447D01*
X15821Y41948D01*
X15551Y41297D01*
Y40593D01*
X15821Y39941D01*
X16319Y39443D01*
X16970Y39173D01*
X17675D01*
X18326Y39443D01*
X18825Y39941D01*
X19094Y40593D01*
Y41297D01*
X18825Y41948D01*
X18326Y42447D01*
X17675Y42717D01*
D02*
G37*
G36*
X746Y37598D02*
X41D01*
X-610Y37329D01*
X-1108Y36830D01*
X-1378Y36179D01*
Y35474D01*
X-1108Y34823D01*
X-610Y34325D01*
X41Y34055D01*
X746D01*
X1397Y34325D01*
X1896Y34823D01*
X2165Y35474D01*
Y36179D01*
X1896Y36830D01*
X1397Y37329D01*
X746Y37598D01*
D02*
G37*
G36*
X63345Y35236D02*
X62640D01*
X61989Y34966D01*
X61490Y34468D01*
X61221Y33817D01*
Y33112D01*
X61490Y32461D01*
X61989Y31963D01*
X62640Y31693D01*
X63345D01*
X63996Y31963D01*
X64494Y32461D01*
X64764Y33112D01*
Y33817D01*
X64494Y34468D01*
X63996Y34966D01*
X63345Y35236D01*
D02*
G37*
G36*
X8069Y27126D02*
X7364D01*
X6713Y26856D01*
X6215Y26358D01*
X5945Y25707D01*
Y25002D01*
X6215Y24351D01*
X6713Y23852D01*
X7364Y23583D01*
X8069D01*
X8720Y23852D01*
X9218Y24351D01*
X9488Y25002D01*
Y25707D01*
X9218Y26358D01*
X8720Y26856D01*
X8069Y27126D01*
D02*
G37*
G36*
X112998Y28543D02*
X111805D01*
X110654Y28235D01*
X109622Y27639D01*
X108779Y26796D01*
X108183Y25763D01*
X107874Y24612D01*
Y23420D01*
X108183Y22268D01*
X108779Y21236D01*
X109622Y20393D01*
X110654Y19797D01*
X111805Y19488D01*
X112998D01*
X114149Y19797D01*
X115182Y20393D01*
X116024Y21236D01*
X116621Y22268D01*
X116929Y23420D01*
Y24612D01*
X116621Y25763D01*
X116024Y26796D01*
X115182Y27639D01*
X114149Y28235D01*
X112998Y28543D01*
D02*
G37*
G36*
X63785D02*
X62593D01*
X61441Y28235D01*
X60409Y27639D01*
X59566Y26796D01*
X58970Y25763D01*
X58661Y24612D01*
Y23420D01*
X58970Y22268D01*
X59566Y21236D01*
X60409Y20393D01*
X61441Y19797D01*
X62593Y19488D01*
X63785D01*
X64937Y19797D01*
X65969Y20393D01*
X66812Y21236D01*
X67408Y22268D01*
X67716Y23420D01*
Y24612D01*
X67408Y25763D01*
X66812Y26796D01*
X65969Y27639D01*
X64937Y28235D01*
X63785Y28543D01*
D02*
G37*
G36*
X88314Y20079D02*
X87277D01*
X86276Y19810D01*
X85378Y19292D01*
X84645Y18559D01*
X84127Y17661D01*
X83858Y16660D01*
Y15623D01*
X84127Y14622D01*
X84645Y13724D01*
X85378Y12991D01*
X86276Y12473D01*
X87277Y12205D01*
X88314D01*
X89315Y12473D01*
X90213Y12991D01*
X90946Y13724D01*
X91464Y14622D01*
X91732Y15623D01*
Y16660D01*
X91464Y17661D01*
X90946Y18559D01*
X90213Y19292D01*
X89315Y19810D01*
X88314Y20079D01*
D02*
G37*
G36*
X36967Y14370D02*
X36262D01*
X35611Y14100D01*
X35112Y13602D01*
X34843Y12951D01*
Y12246D01*
X35112Y11595D01*
X35611Y11096D01*
X36262Y10827D01*
X36967D01*
X37618Y11096D01*
X38116Y11595D01*
X38386Y12246D01*
Y12951D01*
X38116Y13602D01*
X37618Y14100D01*
X36967Y14370D01*
D02*
G37*
%LPD*%
D71*
X140140Y41750D02*
X144923D01*
X161399D01*
X113386Y68504D02*
X140140Y41750D01*
X113386Y68504D02*
Y81496D01*
X75928Y69685D02*
X90945D01*
X73622Y71991D02*
Y146850D01*
Y71991D02*
X75928Y69685D01*
X90945D02*
X91732Y70472D01*
X87402Y182677D02*
X94095Y189370D01*
X80315Y182677D02*
X87402D01*
X94095Y189370D02*
Y215354D01*
X103937Y225197D01*
Y327165D01*
X91732Y339370D02*
X103937Y327165D01*
X95276Y328740D02*
X98425Y325590D01*
X0Y170079D02*
X5906D01*
Y138583D02*
Y170079D01*
X73622Y146850D02*
Y154673D01*
X54724Y146850D02*
X73622D01*
X46457Y138583D02*
X54724Y146850D01*
X5906Y138583D02*
X46457D01*
X74410Y182677D02*
X80315D01*
X80715Y182277D01*
Y161765D02*
Y182277D01*
X73622Y154673D02*
X80715Y161765D01*
X113386Y84646D02*
Y99213D01*
Y81496D02*
X125984D01*
X113386D02*
Y84646D01*
X94038Y83858D02*
X112598D01*
X113386Y84646D01*
X91732Y70472D02*
Y81552D01*
X94038Y83858D01*
X161399Y41750D02*
X169472Y33677D01*
X64567Y328740D02*
X95276D01*
D73*
X10630Y232285D02*
D03*
X42913D02*
D03*
X47245Y354332D02*
D03*
X6301D02*
D03*
X170867D02*
D03*
X129922D02*
D03*
Y232285D02*
D03*
X170867D02*
D03*
D75*
X16930Y324804D02*
D03*
D77*
X119606Y222815D02*
D03*
D79*
X83583Y275590D02*
D03*
D80*
X166732Y117854D02*
D03*
X141732D02*
D03*
Y181752D02*
D03*
X60433Y129980D02*
D03*
X10433D02*
D03*
X35433D02*
D03*
Y66083D02*
D03*
D81*
X166732Y181752D02*
D03*
X10433Y66083D02*
D03*
D83*
X138976Y82677D02*
D03*
D86*
X8661Y290158D02*
D03*
D88*
X153543Y244094D02*
D03*
X161417Y228346D02*
D03*
X98425Y70866D02*
D03*
X27559Y307087D02*
D03*
X122047Y149606D02*
D03*
X169291Y212598D02*
D03*
X74803Y55118D02*
D03*
X11811Y86614D02*
D03*
X145669Y165354D02*
D03*
X169291Y307087D02*
D03*
X126411Y67356D02*
D03*
X153543Y212598D02*
D03*
X137795Y149606D02*
D03*
X145669Y133858D02*
D03*
X106299Y181102D02*
D03*
X59055Y275590D02*
D03*
X169291Y149606D02*
D03*
X98425Y259842D02*
D03*
X122047Y244094D02*
D03*
X35433Y354331D02*
D03*
X82677Y7874D02*
D03*
X19685Y291338D02*
D03*
Y102362D02*
D03*
X98425Y39370D02*
D03*
X82677D02*
D03*
X11811Y244094D02*
D03*
X3937Y102362D02*
D03*
X114173Y228346D02*
D03*
X145669Y354331D02*
D03*
X11811Y307087D02*
D03*
X145669Y228346D02*
D03*
X153543Y275590D02*
D03*
X114173Y259842D02*
D03*
X19685Y70866D02*
D03*
X114173Y7874D02*
D03*
X106299Y212598D02*
D03*
X43307Y86614D02*
D03*
X137795Y244094D02*
D03*
X43307Y307087D02*
D03*
Y55118D02*
D03*
X51181Y7874D02*
D03*
X145669D02*
D03*
X27559Y275590D02*
D03*
X98425Y7874D02*
D03*
X114173Y354331D02*
D03*
X19685Y228346D02*
D03*
X27559Y149606D02*
D03*
X153543Y118110D02*
D03*
X51181Y228346D02*
D03*
X122047Y338583D02*
D03*
X106299Y55118D02*
D03*
X90551Y244094D02*
D03*
X74803Y212598D02*
D03*
X11811Y275590D02*
D03*
X145669Y70866D02*
D03*
X66929Y7874D02*
D03*
X169291Y338583D02*
D03*
X43307Y118110D02*
D03*
X161417Y354331D02*
D03*
X169291Y275590D02*
D03*
X66929Y322835D02*
D03*
X59055Y55118D02*
D03*
X27559Y118110D02*
D03*
X169291Y244094D02*
D03*
X161417Y102362D02*
D03*
X153543Y338583D02*
D03*
X169291Y86614D02*
D03*
X114173Y291338D02*
D03*
X106299Y118110D02*
D03*
X51181Y291338D02*
D03*
X43307Y275590D02*
D03*
X19685Y354331D02*
D03*
X137795Y307087D02*
D03*
X153543Y86614D02*
D03*
X27559D02*
D03*
X82677Y133858D02*
D03*
X129921Y102362D02*
D03*
X27559Y244094D02*
D03*
Y55118D02*
D03*
X62205Y262992D02*
D03*
X108218Y311368D02*
D03*
X176378Y58268D02*
D03*
X144923Y41750D02*
D03*
X153150Y25984D02*
D03*
X126476Y23524D02*
D03*
X142913Y16929D02*
D03*
X154724Y9449D02*
D03*
X120079Y70079D02*
D03*
X50681Y150787D02*
D03*
X98425Y325590D02*
D03*
X77362Y105118D02*
D03*
X94902Y162500D02*
D03*
X125984Y9055D02*
D03*
X73622Y84252D02*
D03*
X80715Y161765D02*
D03*
X85039Y187845D02*
D03*
X106693Y104724D02*
D03*
X64567Y328740D02*
D03*
X37165Y30472D02*
D03*
X27165Y30315D02*
D03*
X42165Y41437D02*
D03*
X123622Y109055D02*
D03*
X84302Y146013D02*
D03*
X12746Y8514D02*
D03*
X98769Y13435D02*
D03*
X94882Y33071D02*
D03*
X-394Y50394D02*
D03*
X20079Y97638D02*
D03*
X67716Y83071D02*
D03*
X76378Y287402D02*
D03*
X92126Y305512D02*
D03*
Y295669D02*
D03*
X125984Y81496D02*
D03*
X92520Y314961D02*
D03*
X57530Y177509D02*
D03*
X69453Y160372D02*
D03*
X163386Y247244D02*
D03*
X168061Y286270D02*
D03*
X86614Y339370D02*
D03*
X91732D02*
D03*
X83071Y365748D02*
D03*
X141339Y271260D02*
D03*
X156299Y287795D02*
D03*
X40502Y195226D02*
D03*
X0Y185039D02*
D03*
X68504Y290551D02*
D03*
X130709Y301181D02*
D03*
X32283Y270472D02*
D03*
X43701Y281890D02*
D03*
X109449Y64567D02*
D03*
X63779Y139764D02*
D03*
X74410Y182677D02*
D03*
X2165Y153150D02*
D03*
X48031Y160630D02*
D03*
X61024Y186614D02*
D03*
X49213Y202756D02*
D03*
X87402Y60630D02*
D03*
X91732Y70472D02*
D03*
X0Y170079D02*
D03*
X5906Y138583D02*
D03*
M02*
