%TF.GenerationSoftware,Altium Limited,Altium Designer,23.1.1 (15)*%
G04 Layer_Color=0*
%FSLAX26Y26*%
%MOIN*%
%TF.SameCoordinates,CF7A6AEE-9E07-4C1C-9DF4-B320C76D0393*%
%TF.FilePolarity,Positive*%
%TF.FileFunction,Plated,1,4,PTH,Drill*%
%TF.Part,Single*%
G01*
G75*
%TA.AperFunction,ComponentDrill*%
%ADD108C,0.043307*%
%ADD109O,0.051181X0.074803*%
%ADD110C,0.043307*%
%ADD111C,0.051181*%
%ADD112C,0.047244*%
%ADD113C,0.032000*%
%ADD114C,0.035000*%
%ADD115C,0.059055*%
%ADD116O,0.062992X0.019685*%
%ADD117O,0.039370X0.137795*%
%ADD118O,0.118110X0.039370*%
%ADD119O,0.039370X0.118110*%
%ADD120C,0.032000*%
%TA.AperFunction,ViaDrill,NotFilled*%
%ADD121C,0.011811*%
D108*
X366142Y2559055D02*
D03*
X169291D02*
D03*
D109*
X106299Y2322846D02*
D03*
X429134D02*
D03*
D110*
X366155Y2086614D02*
D03*
X267716D02*
D03*
X169304D02*
D03*
Y3248043D02*
D03*
X267729D02*
D03*
X366155D02*
D03*
X1405525D02*
D03*
X1503950D02*
D03*
X1602375D02*
D03*
Y2027571D02*
D03*
X1503950D02*
D03*
X1405525D02*
D03*
D111*
X472454Y3543319D02*
D03*
X63005D02*
D03*
X1708674D02*
D03*
X1299225D02*
D03*
Y2322846D02*
D03*
X1708674D02*
D03*
D112*
X631890Y437008D02*
D03*
Y240157D02*
D03*
X1124016D02*
D03*
Y437008D02*
D03*
D113*
X796063Y2253150D02*
D03*
Y2353150D02*
D03*
X1196063Y2378150D02*
D03*
Y2228150D02*
D03*
D114*
X935827Y2755905D02*
D03*
X835827D02*
D03*
D115*
X1167323Y1178543D02*
D03*
X1667323D02*
D03*
X1417323D02*
D03*
Y1817520D02*
D03*
X1667323D02*
D03*
X1167323D02*
D03*
X604331Y1299803D02*
D03*
X104331D02*
D03*
X354331D02*
D03*
Y660827D02*
D03*
X104331D02*
D03*
X604331D02*
D03*
D116*
X1637795Y1665354D02*
D03*
Y1330709D02*
D03*
X133858Y812992D02*
D03*
Y1147638D02*
D03*
D117*
X1389764Y826772D02*
D03*
D118*
X1507874Y1011811D02*
D03*
D119*
X1625984Y826772D02*
D03*
D120*
X86614Y2801575D02*
D03*
Y2901575D02*
D03*
Y3001575D02*
D03*
D121*
X1535433Y2440945D02*
D03*
X1614173Y2283464D02*
D03*
X984252Y708661D02*
D03*
X275590Y3070866D02*
D03*
X1220472Y1496063D02*
D03*
X1692913Y2125984D02*
D03*
X748031Y551181D02*
D03*
X118110Y866141D02*
D03*
X1456693Y1653543D02*
D03*
X1692913Y3070866D02*
D03*
X1264112Y673561D02*
D03*
X1535433Y2125984D02*
D03*
X1377952Y1496063D02*
D03*
X1456693Y1338582D02*
D03*
X1062992Y1811023D02*
D03*
X590551Y2755905D02*
D03*
X1692913Y1496063D02*
D03*
X984252Y2598425D02*
D03*
X1220472Y2440945D02*
D03*
X354330Y3543307D02*
D03*
X826771Y78740D02*
D03*
X196850Y2913385D02*
D03*
Y1023622D02*
D03*
X984252Y393701D02*
D03*
X826771D02*
D03*
X118110Y2440945D02*
D03*
X39370Y1023622D02*
D03*
X1141732Y2283464D02*
D03*
X1456693Y3543307D02*
D03*
X118110Y3070866D02*
D03*
X1456693Y2283464D02*
D03*
X1535433Y2755905D02*
D03*
X1141732Y2598425D02*
D03*
X196850Y708661D02*
D03*
X1141732Y78740D02*
D03*
X1062992Y2125984D02*
D03*
X433071Y866141D02*
D03*
X1377952Y2440945D02*
D03*
X433071Y3070866D02*
D03*
Y551181D02*
D03*
X511811Y78740D02*
D03*
X1456693D02*
D03*
X275590Y2755905D02*
D03*
X984252Y78740D02*
D03*
X1141732Y3543307D02*
D03*
X196850Y2283464D02*
D03*
X275590Y1496063D02*
D03*
X1535433Y1181102D02*
D03*
X511811Y2283464D02*
D03*
X1220472Y3385826D02*
D03*
X1062992Y551181D02*
D03*
X905511Y2440945D02*
D03*
X748031Y2125984D02*
D03*
X118110Y2755905D02*
D03*
X1456693Y708661D02*
D03*
X669291Y78740D02*
D03*
X1692913Y3385826D02*
D03*
X433071Y1181102D02*
D03*
X1614173Y3543307D02*
D03*
X1692913Y2755905D02*
D03*
X669291Y3228346D02*
D03*
X590551Y551181D02*
D03*
X275590Y1181102D02*
D03*
X1692913Y2440945D02*
D03*
X1614173Y1023622D02*
D03*
X1535433Y3385826D02*
D03*
X1692913Y866141D02*
D03*
X1141732Y2913385D02*
D03*
X1062992Y1181102D02*
D03*
X511811Y2913385D02*
D03*
X433071Y2755905D02*
D03*
X196850Y3543307D02*
D03*
X1377952Y3070866D02*
D03*
X1535433Y866141D02*
D03*
X275590D02*
D03*
X826771Y1338582D02*
D03*
X1299212Y1023622D02*
D03*
X275590Y2440945D02*
D03*
Y551181D02*
D03*
X622047Y2629921D02*
D03*
X1082181Y3113677D02*
D03*
X1763780Y582677D02*
D03*
X1449229Y417502D02*
D03*
X1531496Y259842D02*
D03*
X1264764Y235236D02*
D03*
X1429134Y169291D02*
D03*
X1547244Y94488D02*
D03*
X1200787Y700787D02*
D03*
X973493Y781104D02*
D03*
X-1968Y1913740D02*
D03*
X417323Y1611273D02*
D03*
X506813Y1507874D02*
D03*
X984252Y3255905D02*
D03*
X594488Y1397638D02*
D03*
X773622Y1051181D02*
D03*
X1259842Y763779D02*
D03*
X949016Y1625000D02*
D03*
X681102Y3125984D02*
D03*
X1259842Y90551D02*
D03*
X736221Y842520D02*
D03*
X1259842Y1295276D02*
D03*
X1283465Y1736220D02*
D03*
X1192913Y2078740D02*
D03*
X807149Y1617654D02*
D03*
X980056Y1854590D02*
D03*
X850394Y1878449D02*
D03*
X988189Y992126D02*
D03*
X1066929Y1047244D02*
D03*
X645669Y3287402D02*
D03*
X131496Y1623622D02*
D03*
X173228Y409449D02*
D03*
X371654Y304724D02*
D03*
X271654Y303150D02*
D03*
X421654Y414370D02*
D03*
X322835Y409449D02*
D03*
X1435039Y1375984D02*
D03*
X1236220Y1090551D02*
D03*
X843016Y1460134D02*
D03*
X629921Y334646D02*
D03*
X120840Y415861D02*
D03*
X127457Y85142D02*
D03*
X987693Y134354D02*
D03*
X948819Y330709D02*
D03*
X-3937Y503937D02*
D03*
X3937Y358268D02*
D03*
X77165Y253543D02*
D03*
X200787Y976378D02*
D03*
X476378Y1098425D02*
D03*
X677165Y830709D02*
D03*
X1067323Y3393307D02*
D03*
X863061Y2066073D02*
D03*
X763779Y2874016D02*
D03*
X846457Y3153543D02*
D03*
X921260Y3055118D02*
D03*
Y2956693D02*
D03*
X547244Y2295276D02*
D03*
X1259842Y814961D02*
D03*
X925197Y3149606D02*
D03*
X587110Y3428638D02*
D03*
X527559Y3267716D02*
D03*
X574803Y3177165D02*
D03*
X575299Y1775094D02*
D03*
X694528Y1603720D02*
D03*
X1160066Y3421260D02*
D03*
X1271653Y3244095D02*
D03*
X1633858Y2472441D02*
D03*
X1680606Y2862701D02*
D03*
X724409Y3669291D02*
D03*
X866142Y3393701D02*
D03*
X917323D02*
D03*
X925197Y3669291D02*
D03*
X830709Y3657480D02*
D03*
X1413386Y2712598D02*
D03*
X1562992Y2877953D02*
D03*
X559055Y2208661D02*
D03*
X608858Y2095866D02*
D03*
X240157Y2704724D02*
D03*
X496063Y2452756D02*
D03*
X405016Y1952260D02*
D03*
X630417Y3003441D02*
D03*
X0Y1850394D02*
D03*
X685039Y2905512D02*
D03*
X1307087Y3011811D02*
D03*
X322835Y2704724D02*
D03*
X437008Y2818898D02*
D03*
X870079Y830709D02*
D03*
X1094488Y645669D02*
D03*
X366142Y125984D02*
D03*
X637795Y1397638D02*
D03*
X779528Y1393701D02*
D03*
X653543Y1818898D02*
D03*
X342520Y1952756D02*
D03*
X744095Y1826772D02*
D03*
X21654Y1531496D02*
D03*
X480315Y1606299D02*
D03*
X610236Y1866142D02*
D03*
X492126Y2027559D02*
D03*
X874016Y606299D02*
D03*
X917323Y704724D02*
D03*
X0Y1700787D02*
D03*
X59055Y1385827D02*
D03*
%TF.MD5,ae60fd816fbc7ac88316676d5b519939*%
M02*
