%TF.GenerationSoftware,Altium Limited,Altium Designer,23.1.1 (15)*%
G04 Layer_Physical_Order=1*
G04 Layer_Color=255*
%FSLAX26Y26*%
%MOIN*%
%TF.SameCoordinates,CF7A6AEE-9E07-4C1C-9DF4-B320C76D0393*%
%TF.FilePolarity,Positive*%
%TF.FileFunction,Copper,L1,Top,Signal*%
%TF.Part,Single*%
G01*
G75*
%TA.AperFunction,SMDPad,CuDef*%
G04:AMPARAMS|DCode=10|XSize=59.055mil|YSize=45.276mil|CornerRadius=5.659mil|HoleSize=0mil|Usage=FLASHONLY|Rotation=0.000|XOffset=0mil|YOffset=0mil|HoleType=Round|Shape=RoundedRectangle|*
%AMROUNDEDRECTD10*
21,1,0.059055,0.033957,0,0,0.0*
21,1,0.047736,0.045276,0,0,0.0*
1,1,0.011319,0.023868,-0.016978*
1,1,0.011319,-0.023868,-0.016978*
1,1,0.011319,-0.023868,0.016978*
1,1,0.011319,0.023868,0.016978*
%
%ADD10ROUNDEDRECTD10*%
%ADD11R,0.066000X0.060000*%
%ADD12R,0.023622X0.023622*%
%ADD13R,0.059843X0.022835*%
%ADD14R,0.023622X0.059843*%
%ADD15R,0.059843X0.023622*%
G04:AMPARAMS|DCode=16|XSize=39.37mil|YSize=31.496mil|CornerRadius=3.937mil|HoleSize=0mil|Usage=FLASHONLY|Rotation=90.000|XOffset=0mil|YOffset=0mil|HoleType=Round|Shape=RoundedRectangle|*
%AMROUNDEDRECTD16*
21,1,0.039370,0.023622,0,0,90.0*
21,1,0.031496,0.031496,0,0,90.0*
1,1,0.007874,0.011811,0.015748*
1,1,0.007874,0.011811,-0.015748*
1,1,0.007874,-0.011811,-0.015748*
1,1,0.007874,-0.011811,0.015748*
%
%ADD16ROUNDEDRECTD16*%
G04:AMPARAMS|DCode=17|XSize=39.37mil|YSize=31.496mil|CornerRadius=3.937mil|HoleSize=0mil|Usage=FLASHONLY|Rotation=180.000|XOffset=0mil|YOffset=0mil|HoleType=Round|Shape=RoundedRectangle|*
%AMROUNDEDRECTD17*
21,1,0.039370,0.023622,0,0,180.0*
21,1,0.031496,0.031496,0,0,180.0*
1,1,0.007874,-0.015748,0.011811*
1,1,0.007874,0.015748,0.011811*
1,1,0.007874,0.015748,-0.011811*
1,1,0.007874,-0.015748,-0.011811*
%
%ADD17ROUNDEDRECTD17*%
G04:AMPARAMS|DCode=18|XSize=59.055mil|YSize=45.276mil|CornerRadius=5.659mil|HoleSize=0mil|Usage=FLASHONLY|Rotation=90.000|XOffset=0mil|YOffset=0mil|HoleType=Round|Shape=RoundedRectangle|*
%AMROUNDEDRECTD18*
21,1,0.059055,0.033957,0,0,90.0*
21,1,0.047736,0.045276,0,0,90.0*
1,1,0.011319,0.016978,0.023868*
1,1,0.011319,0.016978,-0.023868*
1,1,0.011319,-0.016978,-0.023868*
1,1,0.011319,-0.016978,0.023868*
%
%ADD18ROUNDEDRECTD18*%
%ADD19R,0.057087X0.023622*%
%ADD20R,0.035433X0.027559*%
%ADD21R,0.023228X0.017716*%
%ADD22R,0.104331X0.068898*%
%ADD23R,0.064961X0.135827*%
G04:AMPARAMS|DCode=24|XSize=68.898mil|YSize=43.307mil|CornerRadius=5.413mil|HoleSize=0mil|Usage=FLASHONLY|Rotation=0.000|XOffset=0mil|YOffset=0mil|HoleType=Round|Shape=RoundedRectangle|*
%AMROUNDEDRECTD24*
21,1,0.068898,0.032480,0,0,0.0*
21,1,0.058071,0.043307,0,0,0.0*
1,1,0.010827,0.029035,-0.016240*
1,1,0.010827,-0.029035,-0.016240*
1,1,0.010827,-0.029035,0.016240*
1,1,0.010827,0.029035,0.016240*
%
%ADD24ROUNDEDRECTD24*%
%ADD25R,0.116142X0.064961*%
%TA.AperFunction,Conductor*%
%ADD26C,0.009842*%
%ADD27C,0.019685*%
%ADD28C,0.039370*%
%TA.AperFunction,ComponentPad*%
%ADD29O,0.086614X0.070866*%
%ADD30O,0.090551X0.137795*%
%ADD31O,0.070866X0.086614*%
%ADD32R,0.070866X0.086614*%
%ADD33C,0.078740*%
%ADD34C,0.066000*%
%ADD35R,0.055118X0.055118*%
%ADD36C,0.055118*%
%ADD37O,0.157480X0.078740*%
%ADD38R,0.118110X0.078740*%
%ADD39R,0.094488X0.051181*%
%ADD40R,0.090551X0.188976*%
%ADD41R,0.169291X0.090551*%
%ADD42R,0.090551X0.169291*%
%ADD43C,0.060000*%
%ADD44R,0.060000X0.060000*%
%TA.AperFunction,ViaPad*%
%ADD45C,0.023622*%
G36*
X1566468Y3708662D02*
X1568341Y3704142D01*
X1572861Y3702269D01*
X1639790D01*
X1644309Y3704142D01*
X1646182Y3708662D01*
Y3726256D01*
X1651182Y3728327D01*
X1800988Y3578520D01*
Y161637D01*
X1649386Y10035D01*
X122267Y10035D01*
X-29335Y161637D01*
Y633175D01*
X-24715Y635088D01*
X122047Y488326D01*
Y433577D01*
X117316D01*
X110804Y430880D01*
X105821Y425896D01*
X103124Y419385D01*
Y412337D01*
X105821Y405825D01*
X109801Y401845D01*
Y387034D01*
X110641Y382810D01*
X113034Y379228D01*
X240596Y251667D01*
X238683Y247047D01*
X122047D01*
Y219700D01*
X71501D01*
X14976Y276226D01*
Y344252D01*
X18956Y348232D01*
X21654Y354744D01*
Y361792D01*
X18956Y368303D01*
X13973Y373287D01*
X7461Y375984D01*
X413D01*
X-6099Y373287D01*
X-11082Y368303D01*
X-13780Y361792D01*
Y354744D01*
X-11082Y348232D01*
X-7102Y344252D01*
Y271654D01*
X-6261Y267429D01*
X-3869Y263848D01*
X59123Y200856D01*
X62705Y198463D01*
X66929Y197623D01*
X122047D01*
Y170276D01*
X250000D01*
Y235730D01*
X254619Y237643D01*
X260615Y231648D01*
Y163246D01*
X261455Y159022D01*
X263848Y155440D01*
X323747Y95541D01*
X327329Y93148D01*
X331553Y92308D01*
X469488D01*
X473713Y93148D01*
X477294Y95541D01*
X557510Y175757D01*
X559903Y179339D01*
X560744Y183563D01*
Y249857D01*
X627816Y316929D01*
X633445D01*
X639957Y319626D01*
X644941Y324610D01*
X647638Y331122D01*
Y338170D01*
X644941Y344681D01*
X639957Y349665D01*
X633445Y352362D01*
X626397D01*
X619886Y349665D01*
X614902Y344681D01*
X612205Y338170D01*
Y332540D01*
X541899Y262235D01*
X539506Y258654D01*
X538666Y254429D01*
Y188136D01*
X464916Y114385D01*
X385925D01*
X382584Y119385D01*
X383858Y122460D01*
Y129508D01*
X382198Y133516D01*
Y170276D01*
X429134D01*
Y247047D01*
X381214D01*
Y272246D01*
X379992Y278391D01*
X376511Y283600D01*
X376511Y283600D01*
X360151Y299960D01*
Y350437D01*
X376511Y366797D01*
X376511Y366797D01*
X379992Y372006D01*
X381214Y378151D01*
Y426181D01*
X429134D01*
Y448510D01*
X581700D01*
X586747Y443463D01*
X586614Y442969D01*
Y431047D01*
X589700Y419532D01*
X595660Y409208D01*
X604090Y400778D01*
X614414Y394818D01*
X625929Y391732D01*
X637850D01*
X649365Y394818D01*
X659690Y400778D01*
X668119Y409208D01*
X674080Y419532D01*
X674460Y420951D01*
X1081445D01*
X1081826Y419532D01*
X1087786Y409208D01*
X1096216Y400778D01*
X1106540Y394818D01*
X1118055Y391732D01*
X1129976D01*
X1141492Y394818D01*
X1151816Y400778D01*
X1160245Y409208D01*
X1166206Y419532D01*
X1169291Y431047D01*
Y442969D01*
X1166206Y454484D01*
X1160245Y464808D01*
X1151816Y473237D01*
X1141492Y479198D01*
X1129976Y482284D01*
X1118055D01*
X1106540Y479198D01*
X1096216Y473237D01*
X1087786Y464808D01*
X1081826Y454484D01*
X1081445Y453064D01*
X674460D01*
X674080Y454484D01*
X668119Y464808D01*
X659690Y473237D01*
X649365Y479198D01*
X637850Y482284D01*
X625929D01*
X614414Y479198D01*
X604090Y473237D01*
X603239Y472386D01*
X599704Y475921D01*
X594495Y479401D01*
X588351Y480624D01*
X588350Y480623D01*
X429134D01*
Y502953D01*
X301181D01*
Y426181D01*
X302178D01*
X304851Y421181D01*
X304387Y420488D01*
X191676D01*
X191212Y421181D01*
X193885Y426181D01*
X250000D01*
Y502953D01*
X138643D01*
X35042Y606553D01*
X37210Y611457D01*
X39474Y611457D01*
X99331D01*
Y655827D01*
X35276D01*
Y615996D01*
X35275Y613391D01*
X30372Y611223D01*
X-13568Y655163D01*
Y1682767D01*
X-8567Y1685160D01*
X-3524Y1683071D01*
X3524D01*
X7294Y1684632D01*
X24803D01*
Y1682874D01*
X42999D01*
Y1670399D01*
X39467Y1669697D01*
X36211Y1667521D01*
X34036Y1664265D01*
X33272Y1660425D01*
Y1636803D01*
X34036Y1632963D01*
X36211Y1629707D01*
X39467Y1627532D01*
X43307Y1626768D01*
X74803D01*
X78643Y1627532D01*
X81899Y1629707D01*
X84075Y1632963D01*
X84838Y1636803D01*
Y1660425D01*
X84075Y1664265D01*
X81899Y1667521D01*
X78643Y1669697D01*
X75112Y1670399D01*
Y1682874D01*
X96457D01*
Y1718307D01*
X24803D01*
Y1716745D01*
X7769D01*
X3524Y1718504D01*
X-3524D01*
X-8567Y1716415D01*
X-13568Y1718808D01*
Y1842212D01*
X-8568Y1843728D01*
X-7806Y1842588D01*
X-4224Y1840195D01*
X0Y1839355D01*
X495Y1839453D01*
X20709D01*
Y1828780D01*
X55630D01*
Y1850590D01*
Y1872401D01*
X20709D01*
Y1861531D01*
X98D01*
X-4126Y1860691D01*
X-7707Y1858298D01*
X-7806Y1858199D01*
X-8568Y1857059D01*
X-13568Y1858576D01*
Y1893957D01*
X-8567Y1897297D01*
X-5492Y1896024D01*
X1556D01*
X8067Y1898721D01*
X12048Y1902701D01*
X25364D01*
Y1891486D01*
X26262Y1886974D01*
X28818Y1883148D01*
X32643Y1880592D01*
X37156Y1879695D01*
X71112D01*
X75625Y1880592D01*
X79450Y1883148D01*
X82006Y1886974D01*
X82904Y1891486D01*
Y1939222D01*
X82006Y1943735D01*
X79450Y1947560D01*
X75625Y1950116D01*
X71112Y1951014D01*
X65173D01*
Y2096806D01*
X464430Y2496063D01*
X527559D01*
Y2531496D01*
X458661D01*
Y2518521D01*
X456406Y2518073D01*
X452824Y2515680D01*
X46328Y2109184D01*
X43935Y2105602D01*
X43095Y2101378D01*
Y1951014D01*
X37156D01*
X32643Y1950116D01*
X28818Y1947560D01*
X26262Y1943735D01*
X25364Y1939222D01*
Y1924779D01*
X12048D01*
X8067Y1928760D01*
X1556Y1931457D01*
X-5492D01*
X-8567Y1930183D01*
X-13568Y1933524D01*
Y3183420D01*
X118746Y3315733D01*
X420624D01*
X557087Y3179271D01*
Y3173641D01*
X559784Y3167130D01*
X564768Y3162146D01*
X571279Y3159449D01*
X577712D01*
X578965Y3157843D01*
X580163Y3154829D01*
X440310Y3014976D01*
X261508D01*
Y3019685D01*
X260744Y3023525D01*
X258568Y3026781D01*
X255313Y3028956D01*
X251472Y3029720D01*
X227850D01*
X224010Y3028956D01*
X220754Y3026781D01*
X218579Y3023525D01*
X217815Y3019685D01*
Y2988189D01*
X218579Y2984349D01*
X220754Y2981093D01*
X224010Y2978918D01*
X227850Y2978154D01*
X251472D01*
X255313Y2978918D01*
X258568Y2981093D01*
X260744Y2984349D01*
X261508Y2988189D01*
Y2992898D01*
X438720D01*
X440791Y2987898D01*
X266508Y2813615D01*
X263127Y2814525D01*
X261387Y2815566D01*
X260744Y2818801D01*
X258568Y2822057D01*
X255313Y2824232D01*
X251472Y2824996D01*
X227850D01*
X224010Y2824232D01*
X220754Y2822057D01*
X218579Y2818801D01*
X217815Y2814961D01*
Y2783465D01*
X218579Y2779624D01*
X220754Y2776369D01*
X224010Y2774193D01*
X227850Y2773429D01*
X228871D01*
Y2718492D01*
X225138Y2714760D01*
X222441Y2708248D01*
Y2701200D01*
X225138Y2694689D01*
X230122Y2689705D01*
X236633Y2687008D01*
X243681D01*
X250193Y2689705D01*
X255177Y2694689D01*
X257874Y2701200D01*
Y2708248D01*
X255177Y2714760D01*
X250948Y2718988D01*
Y2773429D01*
X251472D01*
X255313Y2774193D01*
X258568Y2776369D01*
X260744Y2779624D01*
X261508Y2783465D01*
Y2788174D01*
X267717D01*
X271941Y2789014D01*
X275522Y2791407D01*
X628588Y3144473D01*
X667465D01*
X669536Y3139473D01*
X666083Y3136020D01*
X663386Y3129508D01*
Y3122460D01*
X666083Y3115949D01*
X671067Y3110965D01*
X677578Y3108268D01*
X683208D01*
X693769Y3097706D01*
X697351Y3095313D01*
X701575Y3094473D01*
X727953D01*
Y3088189D01*
X799606D01*
Y3116045D01*
X804226Y3117959D01*
X811796Y3110388D01*
Y3050635D01*
X804226Y3043065D01*
X799606Y3044979D01*
Y3072835D01*
X727953D01*
Y3066551D01*
X710823D01*
Y3078740D01*
X710059Y3082580D01*
X707883Y3085836D01*
X704628Y3088012D01*
X700787Y3088775D01*
X677165D01*
X673325Y3088012D01*
X670069Y3085836D01*
X667894Y3082580D01*
X667130Y3078740D01*
Y3047244D01*
X667894Y3043404D01*
X670069Y3040148D01*
X673325Y3037973D01*
X677165Y3037209D01*
X700787D01*
X704628Y3037973D01*
X707883Y3040148D01*
X710059Y3043404D01*
X710271Y3044473D01*
X727953D01*
Y3038189D01*
X792817D01*
X794730Y3033570D01*
X783995Y3022835D01*
X727953D01*
Y2988189D01*
X799606D01*
Y3007223D01*
X830640Y3038257D01*
X833033Y3041838D01*
X833873Y3046063D01*
Y3114961D01*
X833033Y3119185D01*
X830640Y3122766D01*
X799606Y3153800D01*
Y3172835D01*
X727953D01*
Y3166551D01*
X630178D01*
X628107Y3171551D01*
X651029Y3194473D01*
X727953D01*
Y3188189D01*
X799606D01*
Y3207223D01*
X872683Y3280300D01*
X1117475D01*
X1327544Y3070231D01*
Y2831344D01*
X1204297Y2708097D01*
X1201904Y2704516D01*
X1201064Y2700291D01*
Y2576964D01*
X1200291D01*
X1196451Y2576200D01*
X1193195Y2574025D01*
X1191020Y2570769D01*
X1190256Y2566929D01*
Y2535433D01*
X1191020Y2531593D01*
X1193195Y2528337D01*
X1196155Y2526359D01*
X1196314Y2525103D01*
X1195807Y2521192D01*
X1194853Y2521002D01*
X1190243Y2517922D01*
X1187163Y2513312D01*
X1186081Y2507874D01*
Y2497126D01*
X1212102D01*
X1238123D01*
Y2507874D01*
X1237042Y2513312D01*
X1233961Y2517922D01*
X1229351Y2521002D01*
X1228398Y2521192D01*
X1227891Y2525103D01*
X1228049Y2526359D01*
X1231009Y2528337D01*
X1233185Y2531593D01*
X1233949Y2535433D01*
Y2566929D01*
X1233185Y2570769D01*
X1231009Y2574025D01*
X1227754Y2576200D01*
X1223913Y2576964D01*
X1223141D01*
Y2695719D01*
X1346388Y2818966D01*
X1348781Y2822547D01*
X1349621Y2826772D01*
Y3074803D01*
X1348781Y3079028D01*
X1346388Y3082609D01*
X1129853Y3299144D01*
X1126272Y3301537D01*
X1122047Y3302377D01*
X868110D01*
X863886Y3301537D01*
X860305Y3299144D01*
X783995Y3222835D01*
X727953D01*
Y3216551D01*
X646457D01*
X642232Y3215710D01*
X638651Y3213317D01*
X597139Y3171805D01*
X594126Y3173003D01*
X592520Y3174257D01*
Y3180689D01*
X589822Y3187201D01*
X584839Y3192185D01*
X578327Y3194882D01*
X572698D01*
X522199Y3245381D01*
X523397Y3248394D01*
X524651Y3250000D01*
X531083D01*
X537595Y3252697D01*
X542578Y3257681D01*
X545276Y3264193D01*
Y3269822D01*
X594916Y3319462D01*
X597309Y3323043D01*
X598149Y3327268D01*
Y3414622D01*
X602130Y3418602D01*
X604827Y3425114D01*
Y3432162D01*
X602130Y3438673D01*
X597146Y3443657D01*
X590634Y3446354D01*
X583586D01*
X577075Y3443657D01*
X572091Y3438673D01*
X569394Y3432162D01*
Y3425114D01*
X572091Y3418602D01*
X576072Y3414622D01*
Y3331840D01*
X529664Y3285433D01*
X524035D01*
X517524Y3282736D01*
X512540Y3277752D01*
X509843Y3271240D01*
Y3264808D01*
X508236Y3263554D01*
X505223Y3262356D01*
X433002Y3334577D01*
X429421Y3336970D01*
X425197Y3337811D01*
X191133D01*
X190139Y3342811D01*
X192525Y3343799D01*
X194397Y3348319D01*
Y3370090D01*
X192525Y3374610D01*
X188005Y3376483D01*
X130918D01*
X126398Y3374610D01*
X124526Y3370090D01*
Y3348319D01*
X126398Y3343799D01*
X128784Y3342811D01*
X127790Y3337811D01*
X114173D01*
X109949Y3336970D01*
X106368Y3334577D01*
X-24715Y3203494D01*
X-29335Y3205408D01*
Y3578520D01*
X118542Y3726397D01*
X123542Y3724326D01*
Y3716547D01*
X125414Y3712028D01*
X129934Y3710155D01*
X188989D01*
X193509Y3712028D01*
X195381Y3716547D01*
Y3730122D01*
X341062D01*
Y3716547D01*
X342934Y3712027D01*
X347454Y3710155D01*
X406509D01*
X411029Y3712027D01*
X412901Y3716547D01*
Y3730122D01*
X1361718Y3730122D01*
Y3708661D01*
X1363590Y3704142D01*
X1368110Y3702269D01*
X1435039D01*
X1439559Y3704142D01*
X1441431Y3708661D01*
Y3730122D01*
X1566468D01*
Y3708662D01*
D02*
G37*
G36*
X349101Y384801D02*
X332741Y368441D01*
X329260Y363232D01*
X328038Y357088D01*
X328038Y357087D01*
Y293310D01*
X328038Y293309D01*
X329260Y287164D01*
X332741Y281955D01*
X349101Y265595D01*
Y247047D01*
X301181D01*
Y170276D01*
X350085D01*
Y133516D01*
X348425Y129508D01*
Y122460D01*
X349699Y119385D01*
X346358Y114385D01*
X336125D01*
X282692Y167818D01*
Y236220D01*
X281852Y240445D01*
X279459Y244026D01*
X131879Y391606D01*
Y401845D01*
X135859Y405825D01*
X138556Y412337D01*
Y419385D01*
X137812Y421181D01*
X141153Y426181D01*
X157835D01*
X159906Y421181D01*
X158209Y419484D01*
X155512Y412973D01*
Y405925D01*
X158209Y399413D01*
X163193Y394430D01*
X169704Y391732D01*
X176752D01*
X183264Y394430D01*
X187244Y398410D01*
X308818D01*
X312799Y394430D01*
X319311Y391732D01*
X326359D01*
X332870Y394430D01*
X337854Y399413D01*
X340551Y405925D01*
Y412973D01*
X337854Y419484D01*
X336157Y421181D01*
X338228Y426181D01*
X349101D01*
Y384801D01*
D02*
G37*
%LPC*%
G36*
X928721Y3687008D02*
X921673D01*
X915161Y3684311D01*
X910178Y3679327D01*
X907480Y3672815D01*
Y3665767D01*
X910178Y3659256D01*
X915161Y3654272D01*
X921673Y3651575D01*
X928721D01*
X935232Y3654272D01*
X940216Y3659256D01*
X942913Y3665767D01*
Y3672815D01*
X940216Y3679327D01*
X935232Y3684311D01*
X928721Y3687008D01*
D02*
G37*
G36*
X1713674Y3622035D02*
Y3548319D01*
X1764427D01*
Y3566941D01*
X1762527Y3581370D01*
X1756957Y3594817D01*
X1748097Y3606364D01*
X1736551Y3615224D01*
X1723104Y3620794D01*
X1713674Y3622035D01*
D02*
G37*
G36*
X477454Y3622035D02*
Y3548319D01*
X528206D01*
Y3566941D01*
X526307Y3581370D01*
X520737Y3594817D01*
X511877Y3606364D01*
X500330Y3615224D01*
X486884Y3620794D01*
X477454Y3622035D01*
D02*
G37*
G36*
X467454Y3622035D02*
X458024Y3620794D01*
X444577Y3615224D01*
X433031Y3606364D01*
X424171Y3594817D01*
X418601Y3581370D01*
X416701Y3566941D01*
Y3548319D01*
X467454D01*
Y3622035D01*
D02*
G37*
G36*
X1703674D02*
X1694244Y3620794D01*
X1680798Y3615224D01*
X1669251Y3606364D01*
X1660391Y3594817D01*
X1654821Y3581370D01*
X1652922Y3566941D01*
Y3548319D01*
X1703674D01*
Y3622035D01*
D02*
G37*
G36*
X1304225D02*
Y3548319D01*
X1354978D01*
Y3566941D01*
X1353078Y3581370D01*
X1347509Y3594817D01*
X1338648Y3606364D01*
X1327102Y3615224D01*
X1313655Y3620794D01*
X1304225Y3622035D01*
D02*
G37*
G36*
X1294225D02*
X1284796Y3620794D01*
X1271349Y3615224D01*
X1259802Y3606364D01*
X1250942Y3594817D01*
X1245372Y3581370D01*
X1243473Y3566941D01*
Y3548319D01*
X1294225D01*
Y3622035D01*
D02*
G37*
G36*
X68005D02*
Y3548319D01*
X118757D01*
Y3566941D01*
X116858Y3581370D01*
X111288Y3594817D01*
X102428Y3606364D01*
X90881Y3615224D01*
X77435Y3620794D01*
X68005Y3622035D01*
D02*
G37*
G36*
X58005D02*
X48575Y3620794D01*
X35129Y3615224D01*
X23582Y3606364D01*
X14722Y3594817D01*
X9152Y3581370D01*
X7252Y3566941D01*
Y3548319D01*
X58005D01*
Y3622035D01*
D02*
G37*
G36*
X467454Y3538319D02*
X416701D01*
Y3519697D01*
X418601Y3505267D01*
X424171Y3491820D01*
X433031Y3480274D01*
X444577Y3471414D01*
X458024Y3465844D01*
X467454Y3464602D01*
Y3538319D01*
D02*
G37*
G36*
X1764427D02*
X1713674D01*
Y3464602D01*
X1723104Y3465844D01*
X1736551Y3471414D01*
X1748097Y3480274D01*
X1756957Y3491820D01*
X1762527Y3505267D01*
X1764427Y3519697D01*
Y3538319D01*
D02*
G37*
G36*
X1354978Y3538319D02*
X1304225D01*
Y3464602D01*
X1313655Y3465844D01*
X1327102Y3471414D01*
X1338648Y3480274D01*
X1347509Y3491820D01*
X1353078Y3505267D01*
X1354978Y3519697D01*
Y3538319D01*
D02*
G37*
G36*
X1294225D02*
X1243473D01*
Y3519697D01*
X1245372Y3505267D01*
X1250942Y3491820D01*
X1259802Y3480274D01*
X1271349Y3471414D01*
X1284796Y3465844D01*
X1294225Y3464602D01*
Y3538319D01*
D02*
G37*
G36*
X118757D02*
X68005D01*
Y3464602D01*
X77435Y3465844D01*
X90881Y3471414D01*
X102428Y3480274D01*
X111288Y3491820D01*
X116858Y3505267D01*
X118757Y3519697D01*
Y3538319D01*
D02*
G37*
G36*
X58005D02*
X7252D01*
Y3519697D01*
X9152Y3505267D01*
X14722Y3491820D01*
X23582Y3480274D01*
X35129Y3471414D01*
X48575Y3465844D01*
X58005Y3464602D01*
Y3538319D01*
D02*
G37*
G36*
X1703674Y3538319D02*
X1652922D01*
Y3519697D01*
X1654821Y3505267D01*
X1660391Y3491820D01*
X1669251Y3480274D01*
X1680798Y3471414D01*
X1694244Y3465844D01*
X1703674Y3464602D01*
Y3538319D01*
D02*
G37*
G36*
X528206D02*
X477454D01*
Y3464602D01*
X486884Y3465844D01*
X500330Y3471414D01*
X511877Y3480274D01*
X520737Y3491820D01*
X526307Y3505267D01*
X528206Y3519697D01*
Y3538319D01*
D02*
G37*
G36*
X727933Y3687008D02*
X720885D01*
X714374Y3684311D01*
X709390Y3679327D01*
X706693Y3672815D01*
Y3665767D01*
X709390Y3659256D01*
X714374Y3654272D01*
X720885Y3651575D01*
X726515D01*
X854596Y3523494D01*
X858177Y3521101D01*
X862402Y3520260D01*
X924758D01*
X1049606Y3395412D01*
Y3389783D01*
X1052303Y3383271D01*
X1057287Y3378288D01*
X1063799Y3375591D01*
X1070847D01*
X1077358Y3378288D01*
X1082342Y3383271D01*
X1085039Y3389783D01*
Y3396831D01*
X1082342Y3403343D01*
X1077358Y3408326D01*
X1070847Y3411024D01*
X1065217D01*
X937136Y3539105D01*
X933555Y3541498D01*
X929331Y3542338D01*
X866974D01*
X742126Y3667186D01*
Y3672815D01*
X739429Y3679327D01*
X734445Y3684311D01*
X727933Y3687008D01*
D02*
G37*
G36*
X1639790Y3384368D02*
X1572861D01*
X1568341Y3382496D01*
X1566468Y3377976D01*
Y3350417D01*
X1568341Y3345897D01*
X1572861Y3344025D01*
X1639790D01*
X1644309Y3345897D01*
X1646182Y3350417D01*
Y3377976D01*
X1644309Y3382496D01*
X1639790Y3384368D01*
D02*
G37*
G36*
X1435039Y3384368D02*
X1368110D01*
X1363590Y3382496D01*
X1361718Y3377976D01*
Y3350417D01*
X1363590Y3345897D01*
X1368110Y3344025D01*
X1435039D01*
X1439559Y3345897D01*
X1441431Y3350417D01*
Y3377976D01*
X1439559Y3382496D01*
X1435039Y3384368D01*
D02*
G37*
G36*
X404540Y3377467D02*
X346469D01*
X341950Y3375595D01*
X340077Y3371075D01*
Y3350405D01*
X341950Y3345885D01*
X346469Y3344013D01*
X404540D01*
X409060Y3345885D01*
X410932Y3350405D01*
Y3371075D01*
X409060Y3375595D01*
X404540Y3377467D01*
D02*
G37*
G36*
X866142Y3404740D02*
X861917Y3403899D01*
X858336Y3401506D01*
X855943Y3397925D01*
X855312Y3394754D01*
X843084Y3382526D01*
X840691Y3378945D01*
X839851Y3374720D01*
Y3368541D01*
X839079D01*
X833641Y3367459D01*
X829031Y3364379D01*
X825951Y3359769D01*
X824869Y3354331D01*
Y3343583D01*
X850890D01*
X876911D01*
Y3354331D01*
X875829Y3359769D01*
X872749Y3364379D01*
X868139Y3367459D01*
X866614Y3367762D01*
X864968Y3373188D01*
X873947Y3382166D01*
X876340Y3385748D01*
X877181Y3389972D01*
Y3393701D01*
X876340Y3397925D01*
X873947Y3401506D01*
X870366Y3403899D01*
X866142Y3404740D01*
D02*
G37*
G36*
X920847Y3411417D02*
X913799D01*
X907287Y3408720D01*
X902303Y3403736D01*
X899606Y3397225D01*
Y3396668D01*
X898056Y3394347D01*
X896833Y3388202D01*
X896833Y3388202D01*
Y3363331D01*
X893983Y3361427D01*
X891807Y3358171D01*
X891043Y3354331D01*
Y3322835D01*
X891807Y3318994D01*
X893983Y3315739D01*
X897239Y3313563D01*
X901079Y3312799D01*
X924701D01*
X928541Y3313563D01*
X931797Y3315739D01*
X933972Y3318994D01*
X934736Y3322835D01*
Y3354331D01*
X933972Y3358171D01*
X931797Y3361427D01*
X928946Y3363331D01*
Y3380269D01*
X932342Y3383665D01*
X935039Y3390177D01*
Y3397225D01*
X932342Y3403736D01*
X927358Y3408720D01*
X920847Y3411417D01*
D02*
G37*
G36*
X876911Y3333583D02*
X855890D01*
Y3308625D01*
X862701D01*
X868139Y3309706D01*
X872749Y3312787D01*
X875829Y3317397D01*
X876911Y3322835D01*
Y3333583D01*
D02*
G37*
G36*
X845890D02*
X824869D01*
Y3322835D01*
X825951Y3317397D01*
X829031Y3312787D01*
X833641Y3309706D01*
X839079Y3308625D01*
X845890D01*
Y3333583D01*
D02*
G37*
G36*
X649193Y3305118D02*
X642145D01*
X635634Y3302421D01*
X630650Y3297437D01*
X627953Y3290926D01*
Y3283878D01*
X630650Y3277366D01*
X635634Y3272382D01*
X642145Y3269685D01*
X649193D01*
X655705Y3272382D01*
X660689Y3277366D01*
X663386Y3283878D01*
Y3290926D01*
X660689Y3297437D01*
X655705Y3302421D01*
X649193Y3305118D01*
D02*
G37*
G36*
X1503950Y3297612D02*
X1493158Y3296192D01*
X1483102Y3292026D01*
X1474467Y3285400D01*
X1467841Y3276765D01*
X1463675Y3266709D01*
X1462671Y3259082D01*
X1446863D01*
Y3297256D01*
X1364186D01*
Y3198831D01*
X1446863D01*
Y3237004D01*
X1462671D01*
X1463675Y3229378D01*
X1467841Y3219321D01*
X1474467Y3210686D01*
X1483102Y3204060D01*
X1492911Y3199997D01*
Y3159449D01*
X1469488D01*
Y3011811D01*
X1546260D01*
Y3159449D01*
X1514989D01*
Y3199997D01*
X1524797Y3204060D01*
X1533433Y3210686D01*
X1540059Y3219321D01*
X1544224Y3229378D01*
X1545645Y3240169D01*
Y3255917D01*
X1544224Y3266709D01*
X1540059Y3276765D01*
X1533433Y3285400D01*
X1524797Y3292026D01*
X1514741Y3296192D01*
X1503950Y3297612D01*
D02*
G37*
G36*
X214737Y3301350D02*
X174304D01*
Y3253043D01*
X214737D01*
Y3301350D01*
D02*
G37*
G36*
X164304D02*
X123871D01*
Y3253043D01*
X164304D01*
Y3301350D01*
D02*
G37*
G36*
X1163590Y3438976D02*
X1156542D01*
X1150031Y3436279D01*
X1145047Y3431295D01*
X1142350Y3424784D01*
Y3417736D01*
X1145047Y3411224D01*
X1149027Y3407244D01*
Y3355682D01*
X1149868Y3351457D01*
X1152261Y3347876D01*
X1253937Y3246200D01*
Y3240570D01*
X1256634Y3234059D01*
X1261618Y3229075D01*
X1268130Y3226378D01*
X1275178D01*
X1281689Y3229075D01*
X1286673Y3234059D01*
X1289370Y3240570D01*
Y3247619D01*
X1286673Y3254130D01*
X1281689Y3259114D01*
X1275178Y3261811D01*
X1269548D01*
X1171105Y3360254D01*
Y3407244D01*
X1175086Y3411224D01*
X1177783Y3417736D01*
Y3424784D01*
X1175086Y3431295D01*
X1170102Y3436279D01*
X1163590Y3438976D01*
D02*
G37*
G36*
X366155Y3297612D02*
X355363Y3296192D01*
X345307Y3292026D01*
X336672Y3285400D01*
X330046Y3276765D01*
X325880Y3266709D01*
X324459Y3255917D01*
Y3240169D01*
X325880Y3229378D01*
X330046Y3219321D01*
X336672Y3210686D01*
X345307Y3204060D01*
X355363Y3199894D01*
X366155Y3198474D01*
X376946Y3199894D01*
X387002Y3204060D01*
X395638Y3210686D01*
X402264Y3219321D01*
X406429Y3229378D01*
X407850Y3240169D01*
Y3255917D01*
X406429Y3266709D01*
X402264Y3276765D01*
X395638Y3285400D01*
X387002Y3292026D01*
X376946Y3296192D01*
X366155Y3297612D01*
D02*
G37*
G36*
X267729D02*
X256938Y3296192D01*
X246882Y3292026D01*
X238246Y3285400D01*
X231620Y3276765D01*
X227455Y3266709D01*
X226034Y3255917D01*
Y3240169D01*
X227455Y3229378D01*
X231620Y3219321D01*
X238246Y3210686D01*
X246882Y3204060D01*
X256938Y3199894D01*
X267729Y3198474D01*
X278521Y3199894D01*
X288577Y3204060D01*
X297212Y3210686D01*
X303839Y3219321D01*
X308004Y3229378D01*
X309425Y3240169D01*
Y3255917D01*
X308004Y3266709D01*
X303839Y3276765D01*
X297212Y3285400D01*
X288577Y3292026D01*
X278521Y3296192D01*
X267729Y3297612D01*
D02*
G37*
G36*
X214737Y3243043D02*
X174304D01*
Y3194736D01*
X214737D01*
Y3243043D01*
D02*
G37*
G36*
X164304D02*
X123871D01*
Y3194736D01*
X164304D01*
Y3243043D01*
D02*
G37*
G36*
X987776Y3273622D02*
X980728D01*
X974216Y3270925D01*
X969233Y3265941D01*
X966535Y3259430D01*
Y3252381D01*
X968196Y3248374D01*
Y3222835D01*
X945276D01*
Y3192851D01*
X945275Y3188283D01*
X945275Y3188189D01*
X945049Y3183283D01*
X940955Y3183283D01*
X865158D01*
X860933Y3182443D01*
X857352Y3180050D01*
X848562Y3171260D01*
X842933D01*
X836421Y3168563D01*
X831437Y3163579D01*
X828740Y3157067D01*
Y3150019D01*
X831437Y3143508D01*
X836421Y3138524D01*
X842933Y3135827D01*
X849981D01*
X856492Y3138524D01*
X861476Y3143508D01*
X864173Y3150019D01*
Y3155649D01*
X869730Y3161205D01*
X941294D01*
X945276Y3157223D01*
Y3138189D01*
X1016929D01*
Y3144473D01*
X1033768D01*
Y3141732D01*
X1034532Y3137892D01*
X1036707Y3134636D01*
X1039963Y3132461D01*
X1043803Y3131697D01*
X1067425D01*
X1071265Y3132461D01*
X1074521Y3134636D01*
X1076697Y3137892D01*
X1077460Y3141732D01*
Y3173228D01*
X1076697Y3177069D01*
X1074521Y3180324D01*
X1071265Y3182500D01*
X1067425Y3183264D01*
X1043803D01*
X1039963Y3182500D01*
X1036707Y3180324D01*
X1034532Y3177069D01*
X1033768Y3173228D01*
Y3166551D01*
X1016929D01*
Y3172835D01*
X960887D01*
X953672Y3180050D01*
X950090Y3182443D01*
X945866Y3183283D01*
X946093Y3188189D01*
X950237Y3188189D01*
X950275Y3188189D01*
X1016929D01*
Y3222835D01*
X1000308D01*
Y3248374D01*
X1001968Y3252381D01*
Y3259430D01*
X999271Y3265941D01*
X994288Y3270925D01*
X987776Y3273622D01*
D02*
G37*
G36*
X1016929Y3122835D02*
X945276D01*
Y3088189D01*
X1016929D01*
Y3122835D01*
D02*
G37*
G36*
X1021024Y3076929D02*
X986103D01*
Y3060512D01*
X1021024D01*
Y3076929D01*
D02*
G37*
G36*
Y3050512D02*
X986103D01*
Y3034095D01*
X1021024D01*
Y3050512D01*
D02*
G37*
G36*
X976103Y3076929D02*
X941181D01*
Y3066354D01*
X921457D01*
X917232Y3065513D01*
X913651Y3063120D01*
X913454Y3062924D01*
X911061Y3059342D01*
X910221Y3055118D01*
X911061Y3050894D01*
X913454Y3047312D01*
X917035Y3044920D01*
X921260Y3044079D01*
X922249Y3044276D01*
X941181D01*
Y3034095D01*
X976103D01*
Y3055512D01*
Y3076929D01*
D02*
G37*
G36*
X1263701Y3051645D02*
X1251723D01*
X1245612Y3050430D01*
X1240433Y3046969D01*
X1236972Y3041789D01*
X1235756Y3035679D01*
Y3016811D01*
X1263701D01*
Y3051645D01*
D02*
G37*
G36*
X1067425Y3033657D02*
X1043803D01*
X1039963Y3032893D01*
X1036707Y3030718D01*
X1034532Y3027462D01*
X1033768Y3023622D01*
Y3016551D01*
X1016929D01*
Y3022835D01*
X945276D01*
Y2988189D01*
X1016929D01*
Y2994473D01*
X1033768D01*
Y2992126D01*
X1034532Y2988286D01*
X1036707Y2985030D01*
X1039963Y2982855D01*
X1043803Y2982091D01*
X1067425D01*
X1071265Y2982855D01*
X1074521Y2985030D01*
X1076697Y2988286D01*
X1077460Y2992126D01*
Y3023622D01*
X1076697Y3027462D01*
X1074521Y3030718D01*
X1071265Y3032893D01*
X1067425Y3033657D01*
D02*
G37*
G36*
X638787Y3088775D02*
X615165D01*
X611325Y3088012D01*
X608069Y3085836D01*
X605894Y3082580D01*
X605130Y3078740D01*
Y3047244D01*
X605894Y3043404D01*
X608069Y3040148D01*
X611325Y3037973D01*
X615165Y3037209D01*
X617658D01*
Y3015736D01*
X615398Y3013477D01*
X612701Y3006965D01*
Y2999917D01*
X615398Y2993405D01*
X620382Y2988422D01*
X626893Y2985724D01*
X633941D01*
X640453Y2988422D01*
X644433Y2992402D01*
X659256D01*
Y2991630D01*
X660020Y2987790D01*
X662195Y2984534D01*
X665451Y2982358D01*
X669291Y2981595D01*
X700787D01*
X704628Y2982358D01*
X707883Y2984534D01*
X710059Y2987790D01*
X710823Y2991630D01*
Y3015252D01*
X710059Y3019092D01*
X707883Y3022348D01*
X704628Y3024523D01*
X700787Y3025287D01*
X669291D01*
X665451Y3024523D01*
X662195Y3022348D01*
X660020Y3019092D01*
X659256Y3015252D01*
Y3014480D01*
X644433D01*
X640453Y3018460D01*
X639736Y3018757D01*
Y3037397D01*
X642628Y3037973D01*
X645883Y3040148D01*
X648059Y3043404D01*
X648823Y3047244D01*
Y3078740D01*
X648059Y3082580D01*
X645883Y3085836D01*
X642628Y3088012D01*
X638787Y3088775D01*
D02*
G37*
G36*
X122520Y3037480D02*
X50709D01*
Y2965669D01*
X122520D01*
Y2983943D01*
X156850D01*
X158754Y2981093D01*
X162010Y2978918D01*
X165850Y2978154D01*
X189472D01*
X193313Y2978918D01*
X196568Y2981093D01*
X198744Y2984349D01*
X199508Y2988189D01*
Y3019685D01*
X198744Y3023525D01*
X196568Y3026781D01*
X193313Y3028956D01*
X189472Y3029720D01*
X165850D01*
X162010Y3028956D01*
X158754Y3026781D01*
X156579Y3023525D01*
X155815Y3019685D01*
Y3016057D01*
X122520D01*
Y3037480D01*
D02*
G37*
G36*
X1129425Y3183264D02*
X1105803D01*
X1101963Y3182500D01*
X1098707Y3180324D01*
X1096532Y3177069D01*
X1095768Y3173228D01*
Y3141732D01*
X1096532Y3137892D01*
X1098707Y3134636D01*
X1101963Y3132461D01*
X1105803Y3131697D01*
X1106575D01*
Y3033657D01*
X1105803D01*
X1101963Y3032893D01*
X1098707Y3030718D01*
X1096532Y3027462D01*
X1095768Y3023622D01*
Y2992126D01*
X1096532Y2988286D01*
X1098707Y2985030D01*
X1101963Y2982855D01*
X1105803Y2982091D01*
X1129425D01*
X1133265Y2982855D01*
X1136521Y2985030D01*
X1138697Y2988286D01*
X1139460Y2992126D01*
Y2996835D01*
X1159222D01*
Y2987943D01*
X1160120Y2983430D01*
X1162676Y2979605D01*
X1166501Y2977049D01*
X1171014Y2976151D01*
X1204971D01*
X1209483Y2977049D01*
X1213308Y2979605D01*
X1215864Y2983430D01*
X1216762Y2987943D01*
Y3035679D01*
X1215864Y3040191D01*
X1213308Y3044017D01*
X1209483Y3046573D01*
X1204971Y3047471D01*
X1171014D01*
X1166501Y3046573D01*
X1162676Y3044017D01*
X1160120Y3040191D01*
X1159222Y3035679D01*
Y3018913D01*
X1139460D01*
Y3023622D01*
X1138697Y3027462D01*
X1136521Y3030718D01*
X1133265Y3032893D01*
X1129425Y3033657D01*
X1128653D01*
Y3131697D01*
X1129425D01*
X1133265Y3132461D01*
X1136521Y3134636D01*
X1138697Y3137892D01*
X1139460Y3141732D01*
Y3173228D01*
X1138697Y3177069D01*
X1136521Y3180324D01*
X1133265Y3182500D01*
X1129425Y3183264D01*
D02*
G37*
G36*
X1285679Y3051645D02*
X1273701D01*
Y3011811D01*
Y2971977D01*
X1285679D01*
X1291789Y2973192D01*
X1296969Y2976653D01*
X1300430Y2981833D01*
X1301646Y2987943D01*
Y3000772D01*
X1307087D01*
X1311311Y3001613D01*
X1314892Y3004005D01*
X1317285Y3007587D01*
X1318125Y3011811D01*
X1317285Y3016035D01*
X1314892Y3019617D01*
X1311311Y3022010D01*
X1307087Y3022850D01*
X1301646D01*
Y3035679D01*
X1300430Y3041789D01*
X1296969Y3046969D01*
X1291789Y3050430D01*
X1285679Y3051645D01*
D02*
G37*
G36*
X1263701Y3006811D02*
X1235756D01*
Y2987943D01*
X1236972Y2981833D01*
X1240433Y2976653D01*
X1245612Y2973192D01*
X1251723Y2971977D01*
X1263701D01*
Y3006811D01*
D02*
G37*
G36*
X976103Y2976929D02*
X941181D01*
Y2967141D01*
X924229D01*
X921260Y2967732D01*
X917035Y2966891D01*
X913454Y2964499D01*
X911061Y2960917D01*
X910221Y2956693D01*
X911061Y2952469D01*
X913454Y2948887D01*
X914045Y2948297D01*
X917626Y2945904D01*
X921850Y2945064D01*
X941181D01*
Y2934095D01*
X976103D01*
Y2955512D01*
Y2976929D01*
D02*
G37*
G36*
X1021024D02*
X986103D01*
Y2960512D01*
X1021024D01*
Y2976929D01*
D02*
G37*
G36*
X803701D02*
X768780D01*
Y2960512D01*
X803701D01*
Y2976929D01*
D02*
G37*
G36*
X758780D02*
X723858D01*
Y2960512D01*
X758780D01*
Y2976929D01*
D02*
G37*
G36*
X700787Y2967462D02*
X690039D01*
Y2946441D01*
X714997D01*
Y2953252D01*
X713916Y2958690D01*
X710835Y2963300D01*
X706225Y2966380D01*
X700787Y2967462D01*
D02*
G37*
G36*
X680039D02*
X669291D01*
X663854Y2966380D01*
X659243Y2963300D01*
X656163Y2958690D01*
X655081Y2953252D01*
Y2946441D01*
X680039D01*
Y2967462D01*
D02*
G37*
G36*
X1021024Y2950512D02*
X986103D01*
Y2934095D01*
X1021024D01*
Y2950512D01*
D02*
G37*
G36*
X803701D02*
X763780D01*
X723858D01*
Y2934095D01*
X752741D01*
Y2926929D01*
X723858D01*
Y2910512D01*
X763780D01*
X803701D01*
Y2926929D01*
X774818D01*
Y2934095D01*
X803701D01*
Y2950512D01*
D02*
G37*
G36*
X91880Y2941575D02*
X91614D01*
Y2906575D01*
X126614D01*
Y2906841D01*
X123888Y2917014D01*
X118622Y2926135D01*
X111175Y2933583D01*
X102054Y2938849D01*
X91880Y2941575D01*
D02*
G37*
G36*
X81614D02*
X81348D01*
X71175Y2938849D01*
X62054Y2933583D01*
X54606Y2926135D01*
X49340Y2917014D01*
X46614Y2906841D01*
Y2906575D01*
X81614D01*
Y2941575D01*
D02*
G37*
G36*
X714997Y2936441D02*
X685039D01*
X655081D01*
Y2929630D01*
X656163Y2924192D01*
X659243Y2919582D01*
X663854Y2916502D01*
X669291Y2915420D01*
X674001D01*
Y2905512D01*
X674841Y2901287D01*
X677234Y2897706D01*
X680815Y2895313D01*
X685039Y2894473D01*
X689264Y2895313D01*
X692845Y2897706D01*
X695238Y2901287D01*
X696078Y2905512D01*
Y2915420D01*
X700787D01*
X706225Y2916502D01*
X710835Y2919582D01*
X713916Y2924192D01*
X714997Y2929630D01*
Y2936441D01*
D02*
G37*
G36*
X1502874Y2952914D02*
X1465394D01*
Y2880000D01*
X1502874D01*
Y2952914D01*
D02*
G37*
G36*
X803701Y2900512D02*
X763780D01*
X723858D01*
Y2884095D01*
X752741D01*
Y2874016D01*
X753581Y2869791D01*
X755974Y2866210D01*
X759555Y2863817D01*
X763779Y2862977D01*
X768004Y2863817D01*
X771585Y2866210D01*
X773978Y2869791D01*
X774818Y2874016D01*
Y2884095D01*
X803701D01*
Y2900512D01*
D02*
G37*
G36*
X126614Y2896575D02*
X91614D01*
Y2861575D01*
X91880D01*
X102054Y2864301D01*
X111175Y2869567D01*
X118622Y2877014D01*
X123888Y2886135D01*
X126614Y2896309D01*
Y2896575D01*
D02*
G37*
G36*
X81614D02*
X46614D01*
Y2896309D01*
X49340Y2886135D01*
X54606Y2877014D01*
X62054Y2869567D01*
X71175Y2864301D01*
X81348Y2861575D01*
X81614D01*
Y2896575D01*
D02*
G37*
G36*
X484748Y2848856D02*
X477937D01*
Y2823898D01*
X498958D01*
Y2834646D01*
X497876Y2840084D01*
X494796Y2844694D01*
X490186Y2847774D01*
X484748Y2848856D01*
D02*
G37*
G36*
X1550354Y2952914D02*
X1512874D01*
Y2875000D01*
Y2797087D01*
X1550354D01*
Y2866914D01*
X1562992D01*
X1567216Y2867754D01*
X1570798Y2870147D01*
X1573191Y2873728D01*
X1574031Y2877953D01*
X1573191Y2882177D01*
X1570798Y2885758D01*
X1567216Y2888151D01*
X1562992Y2888992D01*
X1550354D01*
Y2952914D01*
D02*
G37*
G36*
X1502874Y2870000D02*
X1465394D01*
Y2797087D01*
X1502874D01*
Y2870000D01*
D02*
G37*
G36*
X498958Y2813898D02*
X477937D01*
Y2788940D01*
X484748D01*
X490186Y2790021D01*
X494796Y2793102D01*
X497876Y2797712D01*
X498958Y2803150D01*
Y2813898D01*
D02*
G37*
G36*
X467937Y2848856D02*
X461126D01*
X455688Y2847774D01*
X451078Y2844694D01*
X447998Y2840084D01*
X446916Y2834646D01*
Y2829936D01*
X437008D01*
X432784Y2829096D01*
X429202Y2826703D01*
X426809Y2823122D01*
X425969Y2818898D01*
X426809Y2814673D01*
X429202Y2811092D01*
X432784Y2808699D01*
X437008Y2807859D01*
X446916D01*
Y2803150D01*
X447998Y2797712D01*
X451078Y2793102D01*
X455688Y2790021D01*
X461126Y2788940D01*
X467937D01*
Y2818898D01*
Y2848856D01*
D02*
G37*
G36*
X91341Y2837480D02*
X81887D01*
X72755Y2835033D01*
X64568Y2830306D01*
X57883Y2823621D01*
X53156Y2815434D01*
X50709Y2806302D01*
Y2796848D01*
X53156Y2787716D01*
X57883Y2779528D01*
X64568Y2772843D01*
X72755Y2768116D01*
X81887Y2765669D01*
X91341D01*
X100473Y2768116D01*
X108661Y2772843D01*
X115346Y2779528D01*
X118122Y2784337D01*
X155815D01*
Y2783465D01*
X156579Y2779624D01*
X158754Y2776369D01*
X162010Y2774193D01*
X165850Y2773429D01*
X189472D01*
X193313Y2774193D01*
X196568Y2776369D01*
X198744Y2779624D01*
X199508Y2783465D01*
Y2814961D01*
X198744Y2818801D01*
X196568Y2822057D01*
X193313Y2824232D01*
X189472Y2824996D01*
X165850D01*
X162010Y2824232D01*
X158754Y2822057D01*
X156579Y2818801D01*
X156111Y2816450D01*
X119486D01*
X115346Y2823621D01*
X108661Y2830306D01*
X100473Y2835033D01*
X91341Y2837480D01*
D02*
G37*
G36*
X840827Y2793450D02*
Y2760905D01*
X873371D01*
X870826Y2770403D01*
X865881Y2778967D01*
X858889Y2785960D01*
X850324Y2790905D01*
X840827Y2793450D01*
D02*
G37*
G36*
X830827D02*
X821330Y2790905D01*
X812765Y2785960D01*
X805772Y2778967D01*
X800827Y2770403D01*
X798283Y2760905D01*
X830827D01*
Y2793450D01*
D02*
G37*
G36*
X969291Y2789370D02*
X902362D01*
Y2722441D01*
X969291D01*
Y2744371D01*
X1080516D01*
Y2743598D01*
X1081280Y2739758D01*
X1083455Y2736502D01*
X1086711Y2734327D01*
X1090551Y2733563D01*
X1122047D01*
X1125888Y2734327D01*
X1129143Y2736502D01*
X1131319Y2739758D01*
X1132082Y2743598D01*
Y2767220D01*
X1131319Y2771061D01*
X1129143Y2774316D01*
X1125888Y2776492D01*
X1122047Y2777256D01*
X1090551D01*
X1086711Y2776492D01*
X1083455Y2774316D01*
X1081280Y2771061D01*
X1080516Y2767220D01*
Y2766448D01*
X969291D01*
Y2789370D01*
D02*
G37*
G36*
X485244Y2738382D02*
X461622D01*
X457782Y2737618D01*
X454526Y2735442D01*
X452351Y2732187D01*
X451587Y2728346D01*
Y2721669D01*
X442610D01*
Y2724409D01*
X441846Y2728250D01*
X439671Y2731505D01*
X436415Y2733681D01*
X432575Y2734445D01*
X408953D01*
X405113Y2733681D01*
X401857Y2731505D01*
X399681Y2728250D01*
X398918Y2724409D01*
Y2692913D01*
X399681Y2689073D01*
X401857Y2685817D01*
X405113Y2683642D01*
X408953Y2682878D01*
X409725D01*
Y2610376D01*
X394616Y2595267D01*
X384807Y2599330D01*
X374016Y2600750D01*
X358268D01*
X347476Y2599330D01*
X337420Y2595164D01*
X328785Y2588538D01*
X322159Y2579903D01*
X317993Y2569847D01*
X316572Y2559055D01*
X317993Y2548264D01*
X322159Y2538207D01*
X328785Y2529572D01*
X337420Y2522946D01*
X347476Y2518781D01*
X358268Y2517360D01*
X374016D01*
X384807Y2518781D01*
X394863Y2522946D01*
X403499Y2529572D01*
X410125Y2538207D01*
X414290Y2548264D01*
X415711Y2559055D01*
X414290Y2569847D01*
X410227Y2579655D01*
X428569Y2597998D01*
X430962Y2601579D01*
X431803Y2605803D01*
Y2682878D01*
X432575D01*
X436415Y2683642D01*
X439671Y2685817D01*
X441846Y2689073D01*
X442610Y2692913D01*
Y2699591D01*
X451587D01*
Y2696850D01*
X452351Y2693010D01*
X454526Y2689754D01*
X457782Y2687579D01*
X461622Y2686815D01*
X485244D01*
X489084Y2687579D01*
X492340Y2689754D01*
X494515Y2693010D01*
X495279Y2696850D01*
Y2728346D01*
X494515Y2732187D01*
X492340Y2735442D01*
X489084Y2737618D01*
X485244Y2738382D01*
D02*
G37*
G36*
X873371Y2750905D02*
X840827D01*
Y2718361D01*
X850324Y2720906D01*
X858889Y2725851D01*
X865881Y2732844D01*
X870826Y2741408D01*
X873371Y2750905D01*
D02*
G37*
G36*
X830827D02*
X798283D01*
X800827Y2741408D01*
X805772Y2732844D01*
X812765Y2725851D01*
X821330Y2720906D01*
X830827Y2718361D01*
Y2750905D01*
D02*
G37*
G36*
X370575Y2738619D02*
X363764D01*
Y2713662D01*
X384785D01*
Y2724409D01*
X383703Y2729847D01*
X380623Y2734457D01*
X376013Y2737538D01*
X370575Y2738619D01*
D02*
G37*
G36*
X1016929Y2922835D02*
X945276D01*
Y2903800D01*
X867475Y2825999D01*
X755409D01*
X751185Y2825159D01*
X747604Y2822766D01*
X663219Y2738382D01*
X641236D01*
X637396Y2737618D01*
X634140Y2735442D01*
X631965Y2732187D01*
X631201Y2728346D01*
Y2696850D01*
X631965Y2693010D01*
X634140Y2689754D01*
X637396Y2687579D01*
X641236Y2686815D01*
X664858D01*
X668698Y2687579D01*
X671954Y2689754D01*
X674130Y2693010D01*
X674894Y2696850D01*
Y2719073D01*
X675617Y2719557D01*
X759982Y2803922D01*
X872047D01*
X876271Y2804762D01*
X879853Y2807155D01*
X960887Y2888189D01*
X1016929D01*
Y2922835D01*
D02*
G37*
G36*
X546748Y2844681D02*
X523126D01*
X519286Y2843917D01*
X516030Y2841742D01*
X513855Y2838486D01*
X513091Y2834646D01*
Y2803150D01*
X513855Y2799309D01*
X516030Y2796054D01*
X519286Y2793878D01*
X523126Y2793114D01*
X524146D01*
Y2738382D01*
X523622D01*
X519782Y2737618D01*
X516526Y2735442D01*
X514351Y2732187D01*
X513587Y2728346D01*
Y2696850D01*
X514351Y2693010D01*
X516526Y2689754D01*
X519782Y2687579D01*
X523622Y2686815D01*
X547244D01*
X551084Y2687579D01*
X554340Y2689754D01*
X556515Y2693010D01*
X557279Y2696850D01*
Y2701560D01*
X569201D01*
Y2696850D01*
X569965Y2693010D01*
X572140Y2689754D01*
X575396Y2687579D01*
X579236Y2686815D01*
X602858D01*
X606698Y2687579D01*
X609954Y2689754D01*
X612130Y2693010D01*
X612894Y2696850D01*
Y2728346D01*
X612130Y2732187D01*
X609954Y2735442D01*
X606698Y2737618D01*
X602858Y2738382D01*
X579236D01*
X575396Y2737618D01*
X572140Y2735442D01*
X569965Y2732187D01*
X569201Y2728346D01*
Y2723637D01*
X557279D01*
Y2728346D01*
X556515Y2732187D01*
X554340Y2735442D01*
X551084Y2737618D01*
X547244Y2738382D01*
X546224D01*
Y2793114D01*
X546748D01*
X550588Y2793878D01*
X553844Y2796054D01*
X556019Y2799309D01*
X556783Y2803150D01*
Y2834646D01*
X556019Y2838486D01*
X553844Y2841742D01*
X550588Y2843917D01*
X546748Y2844681D01*
D02*
G37*
G36*
X384785Y2703662D02*
X363764D01*
Y2678703D01*
X370575D01*
X376013Y2679785D01*
X380623Y2682865D01*
X383703Y2687476D01*
X384785Y2692913D01*
Y2703662D01*
D02*
G37*
G36*
X353764Y2738619D02*
X346953D01*
X341515Y2737538D01*
X336905Y2734457D01*
X333825Y2729847D01*
X332743Y2724409D01*
Y2715763D01*
X322835D01*
X318610Y2714923D01*
X315029Y2712530D01*
X312636Y2708949D01*
X311796Y2704724D01*
X312636Y2700500D01*
X315029Y2696919D01*
X318610Y2694526D01*
X322835Y2693686D01*
X332743D01*
Y2692913D01*
X333825Y2687476D01*
X336905Y2682865D01*
X341515Y2679785D01*
X346953Y2678703D01*
X353764D01*
Y2708662D01*
Y2738619D01*
D02*
G37*
G36*
X692367Y2624921D02*
X671346D01*
Y2599963D01*
X678158D01*
X683595Y2601045D01*
X688206Y2604125D01*
X691286Y2608735D01*
X692367Y2614173D01*
Y2624921D01*
D02*
G37*
G36*
X1161913Y2576964D02*
X1138291D01*
X1134451Y2576200D01*
X1131195Y2574025D01*
X1129020Y2570769D01*
X1128256Y2566929D01*
Y2562220D01*
X1102362D01*
Y2565945D01*
X1067323D01*
Y2536417D01*
X1102362D01*
Y2540142D01*
X1128256D01*
Y2535433D01*
X1129020Y2531593D01*
X1131195Y2528337D01*
X1134451Y2526162D01*
X1138291Y2525398D01*
X1139064D01*
Y2517909D01*
X1138291D01*
X1134451Y2517145D01*
X1131195Y2514970D01*
X1129020Y2511714D01*
X1128256Y2507874D01*
Y2476378D01*
X1129020Y2472538D01*
X1131195Y2469282D01*
X1134451Y2467107D01*
X1138291Y2466343D01*
X1161913D01*
X1165754Y2467107D01*
X1169009Y2469282D01*
X1171185Y2472538D01*
X1171949Y2476378D01*
Y2507874D01*
X1171185Y2511714D01*
X1169009Y2514970D01*
X1165754Y2517145D01*
X1161913Y2517909D01*
X1161141D01*
Y2525398D01*
X1161913D01*
X1165754Y2526162D01*
X1169009Y2528337D01*
X1171185Y2531593D01*
X1171949Y2535433D01*
Y2566929D01*
X1171185Y2570769D01*
X1169009Y2574025D01*
X1165754Y2576200D01*
X1161913Y2576964D01*
D02*
G37*
G36*
X958662Y2568898D02*
X889764D01*
Y2533465D01*
X958662D01*
Y2540142D01*
X984252D01*
Y2536417D01*
X1019291D01*
Y2565945D01*
X984252D01*
Y2562220D01*
X958662D01*
Y2568898D01*
D02*
G37*
G36*
X620079D02*
X551181D01*
Y2533465D01*
X620079D01*
Y2540142D01*
X629921D01*
Y2536417D01*
X664961D01*
Y2565945D01*
X629921D01*
Y2562220D01*
X620079D01*
Y2568898D01*
D02*
G37*
G36*
X177165Y2600750D02*
X161417D01*
X150626Y2599330D01*
X140570Y2595164D01*
X131934Y2588538D01*
X125308Y2579903D01*
X121143Y2569847D01*
X119722Y2559055D01*
X121143Y2548264D01*
X125308Y2538207D01*
X131934Y2529572D01*
X140570Y2522946D01*
X150626Y2518781D01*
X161417Y2517360D01*
X177165D01*
X187957Y2518781D01*
X198013Y2522946D01*
X206648Y2529572D01*
X213274Y2538207D01*
X217440Y2548264D01*
X218861Y2559055D01*
X217440Y2569847D01*
X213274Y2579903D01*
X206648Y2588538D01*
X198013Y2595164D01*
X187957Y2599330D01*
X177165Y2600750D01*
D02*
G37*
G36*
X1425210Y2516246D02*
X1366154D01*
X1361634Y2514374D01*
X1359762Y2509854D01*
Y2496075D01*
X1361634Y2491555D01*
X1366154Y2489683D01*
X1425210D01*
X1429729Y2491555D01*
X1431602Y2496075D01*
Y2509854D01*
X1429729Y2514374D01*
X1425210Y2516246D01*
D02*
G37*
G36*
X1642729Y2516246D02*
X1583674D01*
X1579154Y2514374D01*
X1577282Y2509854D01*
Y2496075D01*
X1579154Y2491555D01*
X1583674Y2489683D01*
X1642729D01*
X1647249Y2491555D01*
X1649121Y2496075D01*
Y2509854D01*
X1647249Y2514374D01*
X1642729Y2516246D01*
D02*
G37*
G36*
X583173Y2478539D02*
X559551D01*
X555711Y2477775D01*
X552455Y2475600D01*
X550280Y2472344D01*
X549516Y2468504D01*
Y2463795D01*
X510079D01*
X506099Y2467775D01*
X499587Y2470472D01*
X492539D01*
X486027Y2467775D01*
X481044Y2462791D01*
X478346Y2456280D01*
Y2449232D01*
X481044Y2442720D01*
X486027Y2437737D01*
X492539Y2435039D01*
X499587D01*
X506099Y2437737D01*
X510079Y2441717D01*
X549516D01*
Y2437008D01*
X550280Y2433168D01*
X552455Y2429912D01*
X555711Y2427736D01*
X559551Y2426973D01*
X583173D01*
X587014Y2427736D01*
X590269Y2429912D01*
X592445Y2433168D01*
X593208Y2437008D01*
Y2468504D01*
X592445Y2472344D01*
X590269Y2475600D01*
X587014Y2477775D01*
X583173Y2478539D01*
D02*
G37*
G36*
X1238123Y2487126D02*
X1217102D01*
Y2462168D01*
X1223913D01*
X1229351Y2463250D01*
X1233961Y2466330D01*
X1237042Y2470940D01*
X1238123Y2476378D01*
Y2487126D01*
D02*
G37*
G36*
X1207102D02*
X1186081D01*
Y2476378D01*
X1187163Y2470940D01*
X1190243Y2466330D01*
X1194853Y2463250D01*
X1200291Y2462168D01*
X1207102D01*
Y2487126D01*
D02*
G37*
G36*
X1201185Y2417055D02*
X1190941D01*
X1181046Y2414404D01*
X1172175Y2409282D01*
X1164931Y2402038D01*
X1159809Y2393167D01*
X1157158Y2383272D01*
Y2373028D01*
X1159809Y2363133D01*
X1164931Y2354261D01*
X1172175Y2347017D01*
X1181046Y2341896D01*
X1190941Y2339244D01*
X1201185D01*
X1211080Y2341896D01*
X1219951Y2347017D01*
X1227195Y2354261D01*
X1232317Y2363133D01*
X1234968Y2373028D01*
Y2383272D01*
X1232317Y2393167D01*
X1227195Y2402038D01*
X1219951Y2409282D01*
X1211080Y2414404D01*
X1201185Y2417055D01*
D02*
G37*
G36*
X434134Y2401562D02*
Y2327847D01*
X484886D01*
Y2346468D01*
X482987Y2360898D01*
X477417Y2374345D01*
X468557Y2385891D01*
X457010Y2394751D01*
X443564Y2400321D01*
X434134Y2401562D01*
D02*
G37*
G36*
X1713674D02*
Y2327847D01*
X1764427D01*
Y2346468D01*
X1762527Y2360898D01*
X1756957Y2374345D01*
X1748097Y2385891D01*
X1736551Y2394751D01*
X1723104Y2400321D01*
X1713674Y2401562D01*
D02*
G37*
G36*
X424134D02*
X414704Y2400321D01*
X401257Y2394751D01*
X389711Y2385891D01*
X380851Y2374345D01*
X375281Y2360898D01*
X373381Y2346468D01*
Y2327847D01*
X424134D01*
Y2401562D01*
D02*
G37*
G36*
X1703674D02*
X1694244Y2400321D01*
X1680798Y2394751D01*
X1669251Y2385891D01*
X1660391Y2374345D01*
X1654821Y2360898D01*
X1652922Y2346468D01*
Y2327847D01*
X1703674D01*
Y2401562D01*
D02*
G37*
G36*
X1304225D02*
Y2327846D01*
X1354978D01*
Y2346468D01*
X1353078Y2360898D01*
X1347509Y2374345D01*
X1338648Y2385891D01*
X1327102Y2394751D01*
X1313655Y2400321D01*
X1304225Y2401562D01*
D02*
G37*
G36*
X1294225D02*
X1284796Y2400321D01*
X1271349Y2394751D01*
X1259802Y2385891D01*
X1250942Y2374345D01*
X1245372Y2360898D01*
X1243473Y2346468D01*
Y2327846D01*
X1294225D01*
Y2401562D01*
D02*
G37*
G36*
X111299D02*
Y2327846D01*
X162052D01*
Y2346468D01*
X160152Y2360898D01*
X154582Y2374345D01*
X145722Y2385891D01*
X134175Y2394751D01*
X120729Y2400321D01*
X111299Y2401562D01*
D02*
G37*
G36*
X101299D02*
X91869Y2400321D01*
X78423Y2394751D01*
X66876Y2385891D01*
X58016Y2374345D01*
X52446Y2360898D01*
X50547Y2346468D01*
Y2327846D01*
X101299D01*
Y2401562D01*
D02*
G37*
G36*
X1764427Y2317847D02*
X1713674D01*
Y2244130D01*
X1723104Y2245371D01*
X1736551Y2250941D01*
X1748097Y2259801D01*
X1756957Y2271348D01*
X1762527Y2284794D01*
X1764427Y2299224D01*
Y2317847D01*
D02*
G37*
G36*
X484886D02*
X434134D01*
Y2244130D01*
X443564Y2245371D01*
X457010Y2250941D01*
X468557Y2259801D01*
X477417Y2271348D01*
X482987Y2284794D01*
X484886Y2299224D01*
Y2317847D01*
D02*
G37*
G36*
X1354978Y2317846D02*
X1304225D01*
Y2244130D01*
X1313655Y2245371D01*
X1327102Y2250941D01*
X1338648Y2259801D01*
X1347509Y2271348D01*
X1353078Y2284794D01*
X1354978Y2299224D01*
Y2317846D01*
D02*
G37*
G36*
X1294225D02*
X1243473D01*
Y2299224D01*
X1245372Y2284794D01*
X1250942Y2271348D01*
X1259802Y2259801D01*
X1271349Y2250941D01*
X1284796Y2245371D01*
X1294225Y2244130D01*
Y2317846D01*
D02*
G37*
G36*
X162052D02*
X111299D01*
Y2244130D01*
X120729Y2245371D01*
X134175Y2250941D01*
X145722Y2259801D01*
X154582Y2271348D01*
X160152Y2284794D01*
X162052Y2299224D01*
Y2317846D01*
D02*
G37*
G36*
X101299D02*
X50547D01*
Y2299224D01*
X52446Y2284794D01*
X58016Y2271348D01*
X66876Y2259801D01*
X78423Y2250941D01*
X91869Y2245371D01*
X101299Y2244130D01*
Y2317846D01*
D02*
G37*
G36*
X1703674Y2317847D02*
X1652922D01*
Y2299224D01*
X1654821Y2284794D01*
X1660391Y2271348D01*
X1669251Y2259801D01*
X1680798Y2250941D01*
X1694244Y2245371D01*
X1703674Y2244130D01*
Y2317847D01*
D02*
G37*
G36*
X424134D02*
X373381D01*
Y2299224D01*
X375281Y2284794D01*
X380851Y2271348D01*
X389711Y2259801D01*
X401257Y2250941D01*
X414704Y2245371D01*
X424134Y2244130D01*
Y2317847D01*
D02*
G37*
G36*
X1201724Y2271150D02*
X1201063D01*
Y2233150D01*
X1239063D01*
Y2233811D01*
X1236133Y2244747D01*
X1230472Y2254552D01*
X1222466Y2262558D01*
X1212660Y2268219D01*
X1201724Y2271150D01*
D02*
G37*
G36*
X1191063D02*
X1190402D01*
X1179466Y2268219D01*
X1169660Y2262558D01*
X1161655Y2254552D01*
X1155993Y2244747D01*
X1153063Y2233811D01*
Y2233150D01*
X1191063D01*
Y2271150D01*
D02*
G37*
G36*
X1239063Y2223150D02*
X1201063D01*
Y2185150D01*
X1201724D01*
X1212660Y2188080D01*
X1222466Y2193741D01*
X1230472Y2201747D01*
X1236133Y2211552D01*
X1239063Y2222488D01*
Y2223150D01*
D02*
G37*
G36*
X1191063D02*
X1153063D01*
Y2222488D01*
X1155993Y2211552D01*
X1161655Y2201747D01*
X1169660Y2193741D01*
X1179466Y2188080D01*
X1190402Y2185150D01*
X1191063D01*
Y2223150D01*
D02*
G37*
G36*
X562579Y2226378D02*
X555531D01*
X549019Y2223681D01*
X544036Y2218697D01*
X541339Y2212185D01*
Y2205137D01*
X542900Y2201367D01*
Y2187795D01*
X541142D01*
Y2168025D01*
X522544D01*
X522543Y2168025D01*
X516399Y2166803D01*
X511190Y2163322D01*
X511189Y2163322D01*
X495202Y2147334D01*
X476378D01*
X472538Y2146570D01*
X469282Y2144395D01*
X467107Y2141139D01*
X466343Y2137299D01*
Y2113677D01*
X467107Y2109837D01*
X469282Y2106581D01*
X472538Y2104406D01*
X476378Y2103642D01*
X507874D01*
X511714Y2104406D01*
X514970Y2106581D01*
X517145Y2109837D01*
X517909Y2113677D01*
Y2124627D01*
X529194Y2135912D01*
X541142D01*
Y2116142D01*
X576575D01*
Y2187795D01*
X575013D01*
Y2200892D01*
X576772Y2205137D01*
Y2212185D01*
X574074Y2218697D01*
X569091Y2223681D01*
X562579Y2226378D01*
D02*
G37*
G36*
X1640761Y2156994D02*
X1582690D01*
X1578170Y2155122D01*
X1576298Y2150602D01*
Y2129933D01*
X1578170Y2125413D01*
X1582690Y2123541D01*
X1640761D01*
X1645281Y2125413D01*
X1647153Y2129933D01*
Y2150602D01*
X1645281Y2155122D01*
X1640761Y2156994D01*
D02*
G37*
G36*
X1424225Y2156010D02*
X1367139D01*
X1362619Y2154138D01*
X1360747Y2149618D01*
Y2127846D01*
X1362619Y2123326D01*
X1367139Y2121454D01*
X1424225D01*
X1428745Y2123326D01*
X1430618Y2127846D01*
Y2149618D01*
X1428745Y2154138D01*
X1424225Y2156010D01*
D02*
G37*
G36*
X673228Y2254626D02*
X641732D01*
X637892Y2253862D01*
X634636Y2251686D01*
X632461Y2248431D01*
X631697Y2244590D01*
Y2220968D01*
X632461Y2217128D01*
X634636Y2213872D01*
X637892Y2211697D01*
X641732Y2210933D01*
X647819D01*
Y2187795D01*
X641142D01*
Y2116142D01*
X676575D01*
Y2140930D01*
X691142D01*
Y2116142D01*
X726575D01*
Y2187795D01*
X691142D01*
Y2163007D01*
X676575D01*
Y2187795D01*
X669897D01*
Y2210933D01*
X673228D01*
X677069Y2211697D01*
X680324Y2213872D01*
X682500Y2217128D01*
X683264Y2220968D01*
Y2244590D01*
X682500Y2248431D01*
X680324Y2251686D01*
X677069Y2253862D01*
X673228Y2254626D01*
D02*
G37*
G36*
X366155Y2136183D02*
X355363Y2134763D01*
X345307Y2130597D01*
X336672Y2123971D01*
X330046Y2115336D01*
X325880Y2105280D01*
X324876Y2097653D01*
X308995D01*
X307991Y2105280D01*
X303826Y2115336D01*
X297200Y2123971D01*
X288564Y2130597D01*
X278508Y2134763D01*
X267716Y2136183D01*
X256925Y2134763D01*
X246869Y2130597D01*
X238233Y2123971D01*
X231607Y2115336D01*
X227442Y2105280D01*
X226021Y2094488D01*
Y2078740D01*
X227442Y2067948D01*
X231607Y2057892D01*
X238233Y2049257D01*
X246869Y2042631D01*
X256678Y2038568D01*
Y1962251D01*
X229399Y1934973D01*
X227006Y1931391D01*
X226166Y1927167D01*
Y1823228D01*
X227006Y1819004D01*
X229399Y1815423D01*
X242126Y1802696D01*
Y1782874D01*
X313779D01*
Y1789552D01*
X321169D01*
Y1779528D01*
X321933Y1775687D01*
X324109Y1772432D01*
X327364Y1770256D01*
X331205Y1769492D01*
X354827D01*
X358667Y1770256D01*
X361923Y1772432D01*
X364098Y1775687D01*
X364862Y1779528D01*
Y1811024D01*
X364098Y1814864D01*
X361923Y1818120D01*
X358667Y1820295D01*
X354827Y1821059D01*
X331205D01*
X327364Y1820295D01*
X324109Y1818120D01*
X321933Y1814864D01*
X321290Y1811629D01*
X313779D01*
Y1818307D01*
X257737D01*
X248243Y1827801D01*
Y1832874D01*
X313779D01*
Y1845600D01*
X347908Y1879728D01*
X354827D01*
X358667Y1880492D01*
X361923Y1882668D01*
X364098Y1885924D01*
X364862Y1889764D01*
Y1921260D01*
X364098Y1925100D01*
X361923Y1928356D01*
X358824Y1930426D01*
Y1945823D01*
X360236Y1949232D01*
Y1956280D01*
X357539Y1962792D01*
X352555Y1967775D01*
X346044Y1970472D01*
X338996D01*
X332484Y1967775D01*
X327500Y1962792D01*
X324803Y1956280D01*
Y1949232D01*
X326711Y1944626D01*
Y1930095D01*
X324109Y1928356D01*
X321933Y1925100D01*
X321169Y1921260D01*
Y1900189D01*
X321053Y1899606D01*
X321054Y1899606D01*
Y1898288D01*
X291072Y1868307D01*
X248243D01*
Y1922594D01*
X275522Y1949873D01*
X277915Y1953454D01*
X278755Y1957679D01*
Y2038568D01*
X288564Y2042631D01*
X297200Y2049257D01*
X303826Y2057892D01*
X307991Y2067948D01*
X308995Y2075575D01*
X324876D01*
X325880Y2067948D01*
X330046Y2057892D01*
X336672Y2049257D01*
X345307Y2042631D01*
X355363Y2038466D01*
X366155Y2037045D01*
X376946Y2038466D01*
X387002Y2042631D01*
X395638Y2049257D01*
X402264Y2057892D01*
X406429Y2067948D01*
X407850Y2078740D01*
Y2094488D01*
X406429Y2105280D01*
X402264Y2115336D01*
X395638Y2123971D01*
X387002Y2130597D01*
X376946Y2134763D01*
X366155Y2136183D01*
D02*
G37*
G36*
X626575Y2187795D02*
X591142D01*
Y2116142D01*
X597819D01*
Y2109882D01*
X593839Y2105902D01*
X591142Y2099390D01*
Y2092342D01*
X593839Y2085831D01*
X598823Y2080847D01*
X605334Y2078150D01*
X612382D01*
X618894Y2080847D01*
X623878Y2085831D01*
X626575Y2092342D01*
Y2099390D01*
X623878Y2105902D01*
X619897Y2109882D01*
Y2116142D01*
X626575D01*
Y2187795D01*
D02*
G37*
G36*
X1602375Y3297612D02*
X1591584Y3296192D01*
X1581527Y3292026D01*
X1572892Y3285400D01*
X1566266Y3276765D01*
X1562101Y3266709D01*
X1560680Y3255917D01*
Y3240169D01*
X1562101Y3229378D01*
X1566266Y3219321D01*
X1572892Y3210686D01*
X1581527Y3204060D01*
X1591336Y3199997D01*
Y2599073D01*
X1373592Y2381329D01*
X1371199Y2377748D01*
X1370359Y2373524D01*
Y2228490D01*
X1215249Y2073380D01*
X1212236Y2074578D01*
X1210630Y2075832D01*
Y2082264D01*
X1207933Y2088776D01*
X1202949Y2093760D01*
X1196437Y2096457D01*
X1190808D01*
X1058283Y2228982D01*
Y2601727D01*
X1114105Y2657549D01*
X1116498Y2661130D01*
X1117338Y2665354D01*
Y2671563D01*
X1122047D01*
X1125888Y2672327D01*
X1129143Y2674502D01*
X1131319Y2677758D01*
X1132082Y2681598D01*
Y2705220D01*
X1131319Y2709061D01*
X1129143Y2712316D01*
X1125888Y2714492D01*
X1122047Y2715256D01*
X1090551D01*
X1086711Y2714492D01*
X1083455Y2712316D01*
X1081280Y2709061D01*
X1080516Y2705220D01*
Y2681598D01*
X1081280Y2677758D01*
X1083455Y2674502D01*
X1086711Y2672327D01*
X1089946Y2671684D01*
X1090987Y2669944D01*
X1091897Y2666563D01*
X1039438Y2614105D01*
X1037046Y2610524D01*
X1036205Y2606299D01*
Y2224410D01*
X1037046Y2220185D01*
X1039438Y2216604D01*
X1175197Y2080845D01*
Y2075216D01*
X1177894Y2068705D01*
X1182878Y2063721D01*
X1189389Y2061024D01*
X1195822D01*
X1197076Y2059417D01*
X1198273Y2056404D01*
X1002246Y1860377D01*
X996349Y1861551D01*
X995075Y1864626D01*
X990091Y1869609D01*
X983580Y1872306D01*
X976532D01*
X970020Y1869609D01*
X965036Y1864626D01*
X962339Y1858114D01*
Y1851066D01*
X965036Y1844554D01*
X970020Y1839571D01*
X973095Y1838297D01*
X974268Y1832399D01*
X768572Y1626703D01*
X766179Y1623122D01*
X765339Y1618898D01*
Y1595680D01*
X763876Y1595389D01*
X760621Y1593214D01*
X758445Y1589958D01*
X757681Y1586118D01*
Y1562496D01*
X758445Y1558656D01*
X760621Y1555400D01*
X763876Y1553225D01*
X767717Y1552461D01*
X799213D01*
X803053Y1553225D01*
X806309Y1555400D01*
X808484Y1558656D01*
X809248Y1562496D01*
Y1586118D01*
X808484Y1589958D01*
X806309Y1593214D01*
X804725Y1594272D01*
X803729Y1594938D01*
X803804Y1597654D01*
X804561Y1599937D01*
X806083Y1599938D01*
X810673D01*
X817185Y1602635D01*
X822168Y1607619D01*
X822544Y1608525D01*
X827544Y1607531D01*
Y1561504D01*
X812572Y1546532D01*
X810179Y1542951D01*
X809339Y1538727D01*
Y1534993D01*
X804339Y1532530D01*
X803053Y1533389D01*
X799213Y1534153D01*
X772735D01*
X772638Y1534173D01*
X765389D01*
X762935Y1534661D01*
X700444D01*
X699416Y1536086D01*
X698229Y1539661D01*
X700116Y1542486D01*
X701014Y1546998D01*
Y1580955D01*
X700116Y1585467D01*
X697560Y1589293D01*
X693735Y1591849D01*
X689222Y1592746D01*
X681411D01*
Y1682087D01*
X740158D01*
Y1758858D01*
X616921D01*
X613760Y1758858D01*
X611324Y1763493D01*
X649307Y1801476D01*
X650019Y1801181D01*
X657067D01*
X663579Y1803878D01*
X668563Y1808862D01*
X671260Y1815374D01*
Y1821003D01*
X680546Y1830289D01*
X682939Y1833870D01*
X683779Y1838095D01*
Y1842498D01*
X688779Y1844015D01*
X689258Y1843298D01*
X692514Y1841122D01*
X696354Y1840358D01*
X707304D01*
X727766Y1819897D01*
X729075Y1816736D01*
X734059Y1811752D01*
X740571Y1809055D01*
X747619D01*
X754130Y1811752D01*
X759114Y1816736D01*
X761811Y1823248D01*
Y1830296D01*
X759114Y1836807D01*
X754130Y1841791D01*
X749276Y1843802D01*
X730012Y1863066D01*
Y1881890D01*
X729248Y1885730D01*
X727072Y1888986D01*
X724568Y1890659D01*
Y1898819D01*
X726575D01*
Y1970472D01*
X691142D01*
Y1898819D01*
X692455D01*
Y1891227D01*
X691282Y1890338D01*
X689258Y1888986D01*
X689012Y1888617D01*
X688617Y1888318D01*
X683779Y1889785D01*
Y1901437D01*
X682939Y1905661D01*
X680546Y1909242D01*
X676787Y1913001D01*
Y1927756D01*
X676575Y1928822D01*
Y1970472D01*
X648719D01*
X646805Y1975092D01*
X696108Y2024394D01*
X754240D01*
Y2019685D01*
X755004Y2015844D01*
X757179Y2012589D01*
X760435Y2010413D01*
X764275Y2009649D01*
X765048D01*
Y1990350D01*
X763780D01*
X759939Y1989586D01*
X756684Y1987411D01*
X754508Y1984155D01*
X753744Y1980315D01*
Y1956693D01*
X754508Y1952853D01*
X756684Y1949597D01*
X759939Y1947421D01*
X763780Y1946658D01*
X795276D01*
X799116Y1947421D01*
X802372Y1949597D01*
X804547Y1952853D01*
X805311Y1956693D01*
Y1980315D01*
X804547Y1984155D01*
X802372Y1987411D01*
X799116Y1989586D01*
X795276Y1990350D01*
X787125D01*
Y2009649D01*
X787898D01*
X791738Y2010413D01*
X794994Y2012589D01*
X797169Y2015844D01*
X797933Y2019685D01*
Y2051181D01*
X797169Y2055021D01*
X794994Y2058277D01*
X791738Y2060452D01*
X787898Y2061216D01*
X764275D01*
X760435Y2060452D01*
X757179Y2058277D01*
X755004Y2055021D01*
X754240Y2051181D01*
Y2046472D01*
X691535D01*
X687311Y2045631D01*
X683730Y2043238D01*
X610963Y1970472D01*
X598719D01*
X596805Y1975092D01*
X689415Y2067701D01*
X755906D01*
X760130Y2068542D01*
X763711Y2070935D01*
X803869Y2111092D01*
X806261Y2114673D01*
X807102Y2118898D01*
Y2215829D01*
X811080Y2216896D01*
X819952Y2222017D01*
X827195Y2229261D01*
X832317Y2238133D01*
X834968Y2248028D01*
Y2258272D01*
X832317Y2268167D01*
X827195Y2277038D01*
X819952Y2284282D01*
X811080Y2289404D01*
X801185Y2292055D01*
X790941D01*
X781046Y2289404D01*
X777479Y2287345D01*
X761743Y2303081D01*
X758161Y2305474D01*
X753937Y2306314D01*
X683264D01*
Y2306590D01*
X682500Y2310431D01*
X680324Y2313686D01*
X677069Y2315862D01*
X673228Y2316626D01*
X641732D01*
X637892Y2315862D01*
X634636Y2313686D01*
X632461Y2310431D01*
X631697Y2306590D01*
Y2282968D01*
X632461Y2279128D01*
X634636Y2275872D01*
X637892Y2273697D01*
X641732Y2272933D01*
X673228D01*
X677069Y2273697D01*
X680324Y2275872D01*
X682500Y2279128D01*
X683264Y2282968D01*
Y2284237D01*
X749365D01*
X761868Y2271733D01*
X759809Y2268167D01*
X757158Y2258272D01*
Y2248028D01*
X759809Y2238133D01*
X764931Y2229261D01*
X772174Y2222017D01*
X781046Y2216896D01*
X785024Y2215829D01*
Y2123470D01*
X751333Y2089779D01*
X684843D01*
X680618Y2088939D01*
X677037Y2086546D01*
X560963Y1970472D01*
X541142D01*
Y1898819D01*
X576575D01*
Y1954861D01*
X586522Y1964809D01*
X591142Y1962895D01*
Y1898819D01*
X621960Y1898819D01*
X622107Y1898813D01*
X625751Y1893765D01*
X625499Y1892735D01*
X624306Y1891938D01*
X621226Y1887328D01*
X620144Y1881890D01*
Y1877180D01*
X610236D01*
X606012Y1876340D01*
X602431Y1873947D01*
X600038Y1870366D01*
X599197Y1866142D01*
X600038Y1861917D01*
X602431Y1858336D01*
X606012Y1855943D01*
X610236Y1855103D01*
X620144D01*
Y1850394D01*
X621226Y1844956D01*
X624306Y1840346D01*
X628917Y1837265D01*
X634354Y1836184D01*
X638703D01*
X640774Y1831184D01*
X638524Y1828933D01*
X635827Y1822422D01*
Y1819219D01*
X578809Y1762200D01*
X576416Y1758619D01*
X575575Y1754395D01*
Y1701423D01*
X565643Y1691490D01*
X561024Y1693404D01*
Y1758858D01*
X439719D01*
X437648Y1763858D01*
X452688Y1778898D01*
X455080Y1782479D01*
X455921Y1786704D01*
Y2148971D01*
X802801Y2495851D01*
X824803D01*
X825869Y2496063D01*
X866142D01*
Y2531496D01*
X797244D01*
Y2517733D01*
X794004Y2517088D01*
X790423Y2514695D01*
X569961Y2294233D01*
X564961Y2296304D01*
Y2298800D01*
X562263Y2305311D01*
X561672Y2305903D01*
X815877Y2560108D01*
X818270Y2563689D01*
X819110Y2567914D01*
Y2570866D01*
X866142D01*
Y2606299D01*
X842732D01*
Y2632874D01*
X841891Y2637099D01*
X839499Y2640680D01*
X803081Y2677097D01*
X799500Y2679490D01*
X795276Y2680330D01*
X573819D01*
X569595Y2679490D01*
X566013Y2677097D01*
X495216Y2606299D01*
X458661D01*
Y2570866D01*
X527559D01*
Y2606299D01*
X527559Y2606299D01*
X527559D01*
X530223Y2610084D01*
X578391Y2658253D01*
X640168D01*
X642841Y2653253D01*
X641407Y2651107D01*
X640326Y2645669D01*
Y2640960D01*
X622047D01*
X617823Y2640120D01*
X614242Y2637727D01*
X611849Y2634146D01*
X611008Y2629921D01*
X611849Y2625697D01*
X614242Y2622116D01*
X617823Y2619723D01*
X622047Y2618883D01*
X640326D01*
Y2614173D01*
X641407Y2608735D01*
X644487Y2604125D01*
X649098Y2601045D01*
X654535Y2599963D01*
X661346D01*
Y2629921D01*
X666346D01*
Y2634921D01*
X692367D01*
Y2645669D01*
X691286Y2651107D01*
X689852Y2653253D01*
X692525Y2658253D01*
X708652D01*
X710169Y2653253D01*
X709439Y2652765D01*
X707264Y2649510D01*
X706500Y2645669D01*
Y2614173D01*
X707264Y2610333D01*
X709439Y2607077D01*
X712695Y2604902D01*
X716535Y2604138D01*
X718390D01*
Y2565945D01*
X712992D01*
Y2551934D01*
X639597Y2478539D01*
X621551D01*
X617711Y2477775D01*
X614455Y2475600D01*
X612280Y2472344D01*
X611516Y2468504D01*
Y2437008D01*
X612280Y2433168D01*
X614455Y2429912D01*
X617711Y2427736D01*
X621551Y2426973D01*
X644448D01*
X645733Y2425251D01*
X646731Y2422184D01*
X542075Y2317529D01*
X539682Y2313948D01*
X539112Y2311084D01*
X537208Y2310295D01*
X532225Y2305311D01*
X529528Y2298800D01*
Y2291752D01*
X532225Y2285240D01*
X537208Y2280256D01*
X543720Y2277559D01*
X546215D01*
X548287Y2272559D01*
X437076Y2161349D01*
X434683Y2157768D01*
X433843Y2153543D01*
Y1929879D01*
X428843Y1928362D01*
X426875Y1931308D01*
X422265Y1934388D01*
X416827Y1935470D01*
X416055D01*
Y1952260D01*
X415214Y1956484D01*
X412821Y1960065D01*
X409240Y1962458D01*
X405016Y1963299D01*
X400791Y1962458D01*
X397210Y1960065D01*
X394817Y1956484D01*
X393977Y1952260D01*
Y1935470D01*
X393205D01*
X387767Y1934388D01*
X383157Y1931308D01*
X380076Y1926698D01*
X378995Y1921260D01*
Y1910512D01*
X405016D01*
Y1900512D01*
X378995D01*
Y1889764D01*
X380076Y1884326D01*
X383157Y1879716D01*
X387767Y1876636D01*
X393205Y1875554D01*
X394225D01*
Y1838831D01*
X394274Y1838583D01*
X394225Y1838335D01*
Y1825234D01*
X393205D01*
X387767Y1824152D01*
X383157Y1821072D01*
X380076Y1816461D01*
X378995Y1811024D01*
Y1800276D01*
X405016D01*
Y1790276D01*
X378995D01*
Y1779528D01*
X380076Y1774090D01*
X383157Y1769480D01*
X387423Y1766629D01*
X387470Y1766265D01*
X384492Y1761629D01*
X313779D01*
Y1768307D01*
X242126D01*
Y1732874D01*
X266914D01*
Y1718307D01*
X242126D01*
Y1682874D01*
X313779D01*
Y1718307D01*
X288991D01*
Y1732874D01*
X313779D01*
Y1739552D01*
X408769D01*
X412993Y1740392D01*
X416575Y1742785D01*
X428071Y1754281D01*
X433071Y1752210D01*
Y1710382D01*
X431285Y1709188D01*
X431285Y1709188D01*
X387759Y1665663D01*
X329036D01*
X329036Y1665663D01*
X322891Y1664441D01*
X317682Y1660960D01*
X317682Y1660960D01*
X193841Y1537120D01*
X167323D01*
Y1538780D01*
X95669D01*
Y1503347D01*
X115440D01*
Y1488780D01*
X95669D01*
Y1453347D01*
X167323D01*
Y1488780D01*
X147553D01*
Y1503347D01*
X167323D01*
Y1505006D01*
X200492D01*
X200492Y1505006D01*
X206637Y1506229D01*
X211846Y1509709D01*
X279617Y1577481D01*
X284237Y1575567D01*
Y1539370D01*
X285077Y1535146D01*
X287470Y1531565D01*
X306210Y1512824D01*
X309792Y1510431D01*
X312992Y1509795D01*
Y1503347D01*
X384646D01*
Y1538780D01*
X312992D01*
X312992Y1538780D01*
Y1538780D01*
X309057Y1541200D01*
X306314Y1543943D01*
Y1575689D01*
X307992Y1576945D01*
X312992Y1574443D01*
Y1553347D01*
X349236D01*
X350787Y1553038D01*
X350788Y1553038D01*
X395973D01*
Y1551181D01*
X396736Y1547341D01*
X398912Y1544085D01*
X402168Y1541910D01*
X406008Y1541146D01*
X429630D01*
X433470Y1541910D01*
X436726Y1544085D01*
X438901Y1547341D01*
X439665Y1551181D01*
Y1582677D01*
X438901Y1586517D01*
X436726Y1589773D01*
X433627Y1591843D01*
Y1604341D01*
X435039Y1607749D01*
Y1614797D01*
X433766Y1617872D01*
X437106Y1622872D01*
X523675D01*
X527899Y1623713D01*
X531481Y1626106D01*
X594420Y1689045D01*
X596813Y1692626D01*
X597653Y1696850D01*
Y1749822D01*
X607570Y1759739D01*
X607678Y1759682D01*
X607678Y1759682D01*
X612205Y1757303D01*
X612205Y1754502D01*
Y1682087D01*
X649298D01*
Y1592746D01*
X641486D01*
X636974Y1591849D01*
X633148Y1589293D01*
X631233Y1586427D01*
X564119D01*
X562214Y1589277D01*
X558958Y1591453D01*
X555118Y1592216D01*
X523622D01*
X519782Y1591453D01*
X516526Y1589277D01*
X514351Y1586021D01*
X513587Y1582181D01*
Y1558559D01*
X514351Y1554719D01*
X516526Y1551463D01*
X519782Y1549288D01*
X523622Y1548524D01*
X555118D01*
X558958Y1549288D01*
X562214Y1551463D01*
X564119Y1554314D01*
X629695D01*
Y1546998D01*
X630592Y1542486D01*
X632480Y1539661D01*
X631292Y1536086D01*
X630265Y1534661D01*
X610732D01*
X606508Y1533821D01*
X602927Y1531428D01*
X573947Y1502448D01*
X571723Y1503370D01*
X539370D01*
Y1508370D01*
X534370D01*
Y1534391D01*
X523622D01*
X518184Y1533309D01*
X513574Y1530229D01*
X510494Y1525619D01*
X509412Y1520181D01*
Y1519161D01*
X507061D01*
X502837Y1518321D01*
X499255Y1515928D01*
X499007Y1515680D01*
X496614Y1512098D01*
X495774Y1507874D01*
X496614Y1503650D01*
X499007Y1500068D01*
X502589Y1497676D01*
X506813Y1496835D01*
X510137Y1492915D01*
X510494Y1491121D01*
X513574Y1486511D01*
X518184Y1483431D01*
X521631Y1482745D01*
Y1477647D01*
X519782Y1477279D01*
X516526Y1475104D01*
X514351Y1471848D01*
X513587Y1468008D01*
Y1467236D01*
X450980D01*
Y1468008D01*
X450216Y1471848D01*
X448041Y1475104D01*
X444785Y1477279D01*
X440945Y1478043D01*
X409449D01*
X405608Y1477279D01*
X402353Y1475104D01*
X400177Y1471848D01*
X399413Y1468008D01*
Y1467236D01*
X386368D01*
X384646Y1468958D01*
Y1488780D01*
X312992D01*
Y1453347D01*
X369034D01*
X373990Y1448391D01*
X377571Y1445998D01*
X381795Y1445158D01*
X399413D01*
Y1444386D01*
X400177Y1440546D01*
X402353Y1437290D01*
X405608Y1435114D01*
X409449Y1434351D01*
X440945D01*
X444785Y1435114D01*
X448041Y1437290D01*
X450216Y1440546D01*
X450980Y1444386D01*
Y1445158D01*
X513587D01*
Y1444386D01*
X514351Y1440546D01*
X516526Y1437290D01*
X519782Y1435114D01*
X523622Y1434351D01*
X555118D01*
X558958Y1435114D01*
X562214Y1437290D01*
X564389Y1440546D01*
X565153Y1444386D01*
Y1462432D01*
X615305Y1512583D01*
X630265D01*
X631293Y1511158D01*
X632480Y1507583D01*
X630592Y1504758D01*
X629695Y1500246D01*
Y1466289D01*
X630592Y1461777D01*
X633148Y1457951D01*
X636974Y1455395D01*
X641486Y1454498D01*
X649385D01*
Y1447608D01*
X644442Y1447008D01*
X642795D01*
Y1425197D01*
X637795D01*
Y1420197D01*
X615984D01*
X615984Y1408091D01*
Y1407028D01*
X615604Y1405612D01*
X610853Y1404425D01*
X609508Y1407673D01*
X604524Y1412657D01*
X598012Y1415354D01*
X590964D01*
X584453Y1412657D01*
X579469Y1407673D01*
X579172Y1406956D01*
X564965D01*
X564389Y1409848D01*
X562214Y1413104D01*
X558958Y1415279D01*
X555118Y1416043D01*
X523622D01*
X519782Y1415279D01*
X516526Y1413104D01*
X514351Y1409848D01*
X513587Y1406008D01*
Y1405236D01*
X450980D01*
Y1406008D01*
X450216Y1409848D01*
X448041Y1413104D01*
X444785Y1415279D01*
X440945Y1416043D01*
X409449D01*
X405608Y1415279D01*
X402353Y1413104D01*
X400177Y1409848D01*
X399604Y1406965D01*
X395850Y1406076D01*
X394453Y1406103D01*
X384646Y1415910D01*
Y1438780D01*
X312992D01*
Y1403347D01*
X365996D01*
X366013Y1403320D01*
X382942Y1386391D01*
X386524Y1383998D01*
X390748Y1383158D01*
X399413D01*
Y1382386D01*
X400177Y1378546D01*
X402353Y1375290D01*
X405608Y1373114D01*
X409449Y1372351D01*
X440945D01*
X444785Y1373114D01*
X448041Y1375290D01*
X450216Y1378546D01*
X450980Y1382386D01*
Y1383158D01*
X513587D01*
Y1382386D01*
X514351Y1378546D01*
X516526Y1375290D01*
X519782Y1373114D01*
X523622Y1372351D01*
X555118D01*
X558958Y1373114D01*
X562214Y1375290D01*
X564389Y1378546D01*
X565153Y1382386D01*
Y1384879D01*
X582192D01*
X584453Y1382619D01*
X590964Y1379921D01*
X598012D01*
X604524Y1382619D01*
X609508Y1387602D01*
X612205Y1394114D01*
Y1399253D01*
X612205Y1400440D01*
X614746Y1402420D01*
X616695Y1403386D01*
X620028Y1403386D01*
X626756D01*
Y1397638D01*
X627597Y1393413D01*
X629990Y1389832D01*
X633571Y1387439D01*
X637795Y1386599D01*
X642020Y1387439D01*
X645601Y1389832D01*
X647994Y1393413D01*
X648834Y1397638D01*
Y1403386D01*
X659606D01*
X659606Y1403386D01*
Y1403386D01*
X664056Y1401804D01*
X682850Y1383009D01*
Y1337432D01*
X677850Y1335829D01*
X668599Y1342928D01*
X656589Y1347902D01*
X643701Y1349599D01*
X609331D01*
Y1299803D01*
Y1250007D01*
X643701D01*
X656589Y1251704D01*
X668599Y1256678D01*
X677850Y1263777D01*
X682850Y1262175D01*
Y1250849D01*
X588048Y1156047D01*
X583946Y1150701D01*
X581367Y1144476D01*
X580488Y1137795D01*
Y706493D01*
X564961D01*
X553141Y704937D01*
X542127Y700375D01*
X532670Y693118D01*
X525412Y683660D01*
X520850Y672646D01*
X519294Y660827D01*
X520850Y649008D01*
X525412Y637994D01*
X532670Y628536D01*
X542127Y621279D01*
X553141Y616716D01*
X564961Y615160D01*
X643701D01*
X655520Y616716D01*
X666534Y621279D01*
X675992Y628536D01*
X683249Y637994D01*
X687811Y649008D01*
X689367Y660827D01*
X687811Y672646D01*
X683249Y683660D01*
X675992Y693118D01*
X666534Y700375D01*
X655520Y704937D01*
X643701Y706493D01*
X632111D01*
Y1127104D01*
X726913Y1221906D01*
X731015Y1227252D01*
X733593Y1233477D01*
X734473Y1240158D01*
Y1393701D01*
X733593Y1400381D01*
X731015Y1406607D01*
X726913Y1411952D01*
X701008Y1437857D01*
Y1447608D01*
X701008Y1447609D01*
Y1466260D01*
X701014Y1466289D01*
Y1500246D01*
X700116Y1504758D01*
X698229Y1507583D01*
X699416Y1511158D01*
X700444Y1512583D01*
X757681D01*
Y1500496D01*
X758445Y1496656D01*
X760621Y1493400D01*
X763876Y1491225D01*
X767717Y1490461D01*
X799213D01*
X803053Y1491225D01*
X804339Y1492084D01*
X809339Y1489621D01*
Y1435395D01*
X784685Y1410741D01*
X783052Y1411417D01*
X776004D01*
X769492Y1408720D01*
X764508Y1403736D01*
X761811Y1397225D01*
Y1390177D01*
X764508Y1383665D01*
X769492Y1378681D01*
X776004Y1375984D01*
X783052D01*
X789563Y1378681D01*
X794547Y1383665D01*
X797244Y1390177D01*
Y1392077D01*
X828183Y1423017D01*
X830577Y1426598D01*
X831417Y1430822D01*
Y1534154D01*
X846388Y1549126D01*
X848781Y1552707D01*
X849621Y1556932D01*
Y1649285D01*
X1142054Y1941717D01*
X1535434D01*
X1539659Y1942557D01*
X1543240Y1944950D01*
X1581775Y1983485D01*
X1591584Y1979422D01*
X1602375Y1978001D01*
X1613167Y1979422D01*
X1623223Y1983587D01*
X1631858Y1990214D01*
X1638484Y1998849D01*
X1642650Y2008905D01*
X1644070Y2019697D01*
Y2035445D01*
X1642650Y2046236D01*
X1638484Y2056292D01*
X1631858Y2064928D01*
X1623223Y2071554D01*
X1613167Y2075719D01*
X1602375Y2077140D01*
X1591584Y2075719D01*
X1581527Y2071554D01*
X1572892Y2064928D01*
X1566266Y2056292D01*
X1562101Y2046236D01*
X1560680Y2035445D01*
Y2019697D01*
X1562101Y2008905D01*
X1566164Y1999096D01*
X1530862Y1963795D01*
X1143957D01*
X1141886Y1968795D01*
X1389203Y2216112D01*
X1391596Y2219693D01*
X1392436Y2223917D01*
Y2368951D01*
X1610181Y2586695D01*
X1612574Y2590277D01*
X1613414Y2594501D01*
Y3199997D01*
X1623223Y3204060D01*
X1631858Y3210686D01*
X1638484Y3219321D01*
X1642650Y3229378D01*
X1644070Y3240169D01*
Y3255917D01*
X1642650Y3266709D01*
X1638484Y3276765D01*
X1631858Y3285400D01*
X1623223Y3292026D01*
X1613167Y3296192D01*
X1602375Y3297612D01*
D02*
G37*
G36*
X507874Y2089509D02*
X497126D01*
Y2068488D01*
X522084D01*
Y2075299D01*
X521002Y2080737D01*
X517922Y2085347D01*
X513312Y2088427D01*
X507874Y2089509D01*
D02*
G37*
G36*
X487126D02*
X476378D01*
X470940Y2088427D01*
X466330Y2085347D01*
X463250Y2080737D01*
X462168Y2075299D01*
Y2068488D01*
X487126D01*
Y2089509D01*
D02*
G37*
G36*
X522084Y2058488D02*
X462168D01*
Y2051677D01*
X463250Y2046239D01*
X466330Y2041629D01*
X470940Y2038549D01*
X476378Y2037467D01*
X481087D01*
Y2027559D01*
X481928Y2023335D01*
X484320Y2019754D01*
X487902Y2017361D01*
X492126Y2016520D01*
X496350Y2017361D01*
X499932Y2019754D01*
X502325Y2023335D01*
X503165Y2027559D01*
Y2037467D01*
X507874D01*
X513312Y2038549D01*
X517922Y2041629D01*
X521002Y2046239D01*
X522084Y2051677D01*
Y2058488D01*
D02*
G37*
G36*
X866585Y2083789D02*
X859537D01*
X853025Y2081092D01*
X848042Y2076108D01*
X845345Y2069597D01*
Y2062549D01*
X840725Y2061216D01*
X826275D01*
X822435Y2060452D01*
X819179Y2058277D01*
X817004Y2055021D01*
X816240Y2051181D01*
Y2019685D01*
X817004Y2015844D01*
X819179Y2012589D01*
X822435Y2010413D01*
X826275Y2009649D01*
X849898D01*
X853738Y2010413D01*
X856994Y2012589D01*
X859169Y2015844D01*
X859933Y2019685D01*
Y2045605D01*
X862684Y2048356D01*
X866585D01*
X873097Y2051053D01*
X878080Y2056037D01*
X880778Y2062549D01*
Y2069597D01*
X878080Y2076108D01*
X873097Y2081092D01*
X866585Y2083789D01*
D02*
G37*
G36*
X1446863Y2076783D02*
X1364186D01*
Y1978358D01*
X1446863D01*
Y2076783D01*
D02*
G37*
G36*
X801185Y2392055D02*
X790941D01*
X781046Y2389404D01*
X772174Y2384282D01*
X764931Y2377038D01*
X759809Y2368167D01*
X757158Y2358272D01*
Y2348028D01*
X759809Y2338133D01*
X764931Y2329261D01*
X772174Y2322017D01*
X781046Y2316896D01*
X790941Y2314244D01*
X801185D01*
X811080Y2316896D01*
X814647Y2318955D01*
X886599Y2247002D01*
Y1990350D01*
X881890D01*
X878049Y1989586D01*
X874794Y1987411D01*
X872618Y1984155D01*
X871855Y1980315D01*
Y1956693D01*
X872618Y1952853D01*
X874794Y1949597D01*
X878049Y1947421D01*
X881890Y1946658D01*
X913386D01*
X917226Y1947421D01*
X920482Y1949597D01*
X922657Y1952853D01*
X923421Y1956693D01*
Y1980315D01*
X922657Y1984155D01*
X920482Y1987411D01*
X917226Y1989586D01*
X913386Y1990350D01*
X908677D01*
Y2251575D01*
X907836Y2255799D01*
X905443Y2259380D01*
X830258Y2334566D01*
X832317Y2338133D01*
X834968Y2348028D01*
Y2358272D01*
X832317Y2368167D01*
X827195Y2377038D01*
X819952Y2384282D01*
X811080Y2389404D01*
X801185Y2392055D01*
D02*
G37*
G36*
X795276Y1932525D02*
X784528D01*
Y1911504D01*
X809486D01*
Y1918315D01*
X808404Y1923753D01*
X805324Y1928363D01*
X800713Y1931443D01*
X795276Y1932525D01*
D02*
G37*
G36*
X913386D02*
X902638D01*
Y1911504D01*
X927596D01*
Y1918315D01*
X926514Y1923753D01*
X923434Y1928363D01*
X918824Y1931443D01*
X913386Y1932525D01*
D02*
G37*
G36*
X774528D02*
X763780D01*
X758342Y1931443D01*
X753732Y1928363D01*
X750651Y1923753D01*
X749570Y1918315D01*
Y1911504D01*
X774528D01*
Y1932525D01*
D02*
G37*
G36*
X892638D02*
X881890D01*
X876452Y1931443D01*
X871842Y1928363D01*
X868761Y1923753D01*
X867680Y1918315D01*
Y1911504D01*
X892638D01*
Y1932525D01*
D02*
G37*
G36*
X927596Y1901504D02*
X902638D01*
Y1880483D01*
X913386D01*
X918824Y1881565D01*
X923434Y1884645D01*
X926514Y1889255D01*
X927596Y1894693D01*
Y1901504D01*
D02*
G37*
G36*
X892638D02*
X867680D01*
Y1894693D01*
X868761Y1889255D01*
X871842Y1884645D01*
X876452Y1881565D01*
X881890Y1880483D01*
X892638D01*
Y1901504D01*
D02*
G37*
G36*
X809486D02*
X784528D01*
Y1880483D01*
X795276D01*
X800713Y1881565D01*
X805324Y1884645D01*
X808404Y1889255D01*
X809486Y1894693D01*
Y1901504D01*
D02*
G37*
G36*
X774528D02*
X749570D01*
Y1894693D01*
X750651Y1889255D01*
X753732Y1884645D01*
X758342Y1881565D01*
X763780Y1880483D01*
X774528D01*
Y1901504D01*
D02*
G37*
G36*
X210643Y2135827D02*
X127966D01*
Y2053013D01*
X127037Y2052084D01*
X124644Y2048503D01*
X123804Y2044278D01*
Y1951014D01*
X117864D01*
X113352Y1950116D01*
X109526Y1947560D01*
X106970Y1943735D01*
X106073Y1939222D01*
Y1891486D01*
X106970Y1886974D01*
X109526Y1883148D01*
X113352Y1880592D01*
X117864Y1879695D01*
X151821D01*
X156333Y1880592D01*
X160159Y1883148D01*
X162715Y1886974D01*
X163613Y1891486D01*
Y1939222D01*
X162715Y1943735D01*
X160159Y1947560D01*
X156333Y1950116D01*
X151821Y1951014D01*
X145881D01*
Y2037401D01*
X210643D01*
Y2135827D01*
D02*
G37*
G36*
X100551Y1872401D02*
X65630D01*
Y1855590D01*
X100551D01*
Y1872401D01*
D02*
G37*
G36*
Y1845590D02*
X65630D01*
Y1828780D01*
X100551D01*
Y1845590D01*
D02*
G37*
G36*
X1662323Y1866890D02*
X1598268D01*
Y1822520D01*
X1662323D01*
Y1866890D01*
D02*
G37*
G36*
X1456693Y1867316D02*
X1422323D01*
Y1822520D01*
X1505831D01*
X1504792Y1830408D01*
X1499818Y1842418D01*
X1491904Y1852731D01*
X1481591Y1860644D01*
X1469581Y1865619D01*
X1456693Y1867316D01*
D02*
G37*
G36*
X1412323D02*
X1377953D01*
X1365065Y1865619D01*
X1353055Y1860644D01*
X1342742Y1852731D01*
X1334828Y1842418D01*
X1329854Y1830408D01*
X1328815Y1822520D01*
X1412323D01*
Y1867316D01*
D02*
G37*
G36*
X1662323Y1812520D02*
X1598268D01*
Y1768150D01*
X1662323D01*
Y1812520D01*
D02*
G37*
G36*
X1505831D02*
X1422323D01*
Y1767724D01*
X1456693D01*
X1469581Y1769420D01*
X1481591Y1774395D01*
X1491904Y1782309D01*
X1499818Y1792622D01*
X1504792Y1804631D01*
X1505831Y1812520D01*
D02*
G37*
G36*
X1412323D02*
X1328815D01*
X1329854Y1804631D01*
X1334828Y1792622D01*
X1342742Y1782309D01*
X1353055Y1774395D01*
X1365065Y1769420D01*
X1377953Y1767724D01*
X1412323D01*
Y1812520D01*
D02*
G37*
G36*
X96457Y1818307D02*
X24803D01*
Y1782874D01*
X49591D01*
Y1768307D01*
X24803D01*
Y1732874D01*
X96457D01*
Y1768307D01*
X71669D01*
Y1782874D01*
X96457D01*
Y1818307D01*
D02*
G37*
G36*
X1677165Y2105527D02*
X1562994D01*
X1558769Y2104687D01*
X1555188Y2102294D01*
X1524550Y2071656D01*
X1514741Y2075719D01*
X1503950Y2077140D01*
X1493158Y2075719D01*
X1483102Y2071554D01*
X1474467Y2064928D01*
X1467841Y2056292D01*
X1463675Y2046236D01*
X1462255Y2035445D01*
Y2019697D01*
X1463675Y2008905D01*
X1467841Y1998849D01*
X1474467Y1990214D01*
X1483102Y1983587D01*
X1493158Y1979422D01*
X1503950Y1978001D01*
X1514741Y1979422D01*
X1524797Y1983587D01*
X1533433Y1990214D01*
X1540059Y1998849D01*
X1544224Y2008905D01*
X1545645Y2019697D01*
Y2035445D01*
X1544224Y2046236D01*
X1540161Y2056045D01*
X1567566Y2083449D01*
X1672593D01*
X1733056Y2022987D01*
Y1866890D01*
X1672323D01*
Y1817520D01*
Y1768150D01*
X1733056D01*
Y1688080D01*
X1695564Y1650588D01*
X1690945Y1652502D01*
Y1696850D01*
X1584646D01*
Y1633858D01*
X1672301D01*
X1674215Y1629239D01*
X1438643Y1393668D01*
X1438563Y1393701D01*
X1431515D01*
X1425004Y1391004D01*
X1420020Y1386020D01*
X1417323Y1379508D01*
Y1372460D01*
X1420020Y1365949D01*
X1425004Y1360965D01*
X1431515Y1358268D01*
X1438563D01*
X1445075Y1360965D01*
X1450059Y1365949D01*
X1452756Y1372460D01*
Y1376557D01*
X1751900Y1675702D01*
X1754293Y1679283D01*
X1755133Y1683507D01*
Y2027559D01*
X1754293Y2031783D01*
X1751900Y2035365D01*
X1684971Y2102294D01*
X1681390Y2104687D01*
X1677165Y2105527D01*
D02*
G37*
G36*
X74803Y1612635D02*
X64055D01*
Y1591614D01*
X89013D01*
Y1598425D01*
X87931Y1603863D01*
X84851Y1608473D01*
X80241Y1611553D01*
X74803Y1612635D01*
D02*
G37*
G36*
X54055D02*
X43307D01*
X37869Y1611553D01*
X33259Y1608473D01*
X30179Y1603863D01*
X29097Y1598425D01*
Y1591614D01*
X54055D01*
Y1612635D01*
D02*
G37*
G36*
X480315Y1617338D02*
X476091Y1616498D01*
X472509Y1614105D01*
X472261Y1613857D01*
X469868Y1610276D01*
X469028Y1606051D01*
Y1596887D01*
X468008D01*
X462570Y1595805D01*
X457960Y1592725D01*
X454880Y1588115D01*
X453798Y1582677D01*
Y1571929D01*
X479819D01*
X505840D01*
Y1582677D01*
X504758Y1588115D01*
X501678Y1592725D01*
X497068Y1595805D01*
X491630Y1596887D01*
X491106D01*
Y1605053D01*
X491354Y1606299D01*
X490514Y1610524D01*
X488121Y1614105D01*
X484539Y1616498D01*
X480315Y1617338D01*
D02*
G37*
G36*
X135020Y1641339D02*
X127972D01*
X121460Y1638641D01*
X116477Y1633658D01*
X113780Y1627146D01*
Y1620098D01*
X116477Y1613586D01*
X120457Y1609606D01*
Y1588780D01*
X95669D01*
Y1553347D01*
X167323D01*
Y1588780D01*
X142535D01*
Y1609606D01*
X146515Y1613586D01*
X149213Y1620098D01*
Y1627146D01*
X146515Y1633658D01*
X141532Y1638641D01*
X135020Y1641339D01*
D02*
G37*
G36*
X505840Y1561929D02*
X484819D01*
Y1536971D01*
X491630D01*
X497068Y1538053D01*
X501678Y1541133D01*
X504758Y1545743D01*
X505840Y1551181D01*
Y1561929D01*
D02*
G37*
G36*
X474819D02*
X453798D01*
Y1551181D01*
X454880Y1545743D01*
X457960Y1541133D01*
X462570Y1538053D01*
X468008Y1536971D01*
X474819D01*
Y1561929D01*
D02*
G37*
G36*
X555118Y1534391D02*
X544370D01*
Y1513370D01*
X569328D01*
Y1520181D01*
X568246Y1525619D01*
X565166Y1530229D01*
X560556Y1533309D01*
X555118Y1534391D01*
D02*
G37*
G36*
X89013Y1581614D02*
X59055D01*
X29097D01*
Y1574803D01*
X30179Y1569365D01*
X33259Y1564755D01*
X37869Y1561675D01*
X43307Y1560593D01*
X48016D01*
Y1542535D01*
X21654D01*
X17429Y1541695D01*
X13848Y1539302D01*
X11455Y1535720D01*
X10615Y1531496D01*
X11455Y1527272D01*
X13848Y1523690D01*
X17429Y1521298D01*
X21654Y1520457D01*
X48016D01*
Y1509777D01*
X43307D01*
X37869Y1508695D01*
X33259Y1505615D01*
X30179Y1501005D01*
X29097Y1495567D01*
Y1488756D01*
X89013D01*
Y1495567D01*
X87931Y1501005D01*
X84851Y1505615D01*
X80241Y1508695D01*
X74803Y1509777D01*
X70094D01*
Y1531496D01*
Y1560593D01*
X74803D01*
X80241Y1561675D01*
X84851Y1564755D01*
X87931Y1569365D01*
X89013Y1574803D01*
Y1581614D01*
D02*
G37*
G36*
Y1478756D02*
X64055D01*
Y1457735D01*
X74803D01*
X80241Y1458817D01*
X84851Y1461897D01*
X87931Y1466507D01*
X89013Y1471945D01*
Y1478756D01*
D02*
G37*
G36*
X54055D02*
X29097D01*
Y1471945D01*
X30179Y1466507D01*
X33259Y1461897D01*
X37869Y1458817D01*
X43307Y1457735D01*
X54055D01*
Y1478756D01*
D02*
G37*
G36*
X632795Y1447008D02*
X615984D01*
Y1430197D01*
X632795D01*
Y1447008D01*
D02*
G37*
G36*
X74803Y1443602D02*
X43307D01*
X39467Y1442838D01*
X36211Y1440663D01*
X34036Y1437407D01*
X33272Y1433567D01*
Y1409945D01*
X34036Y1406105D01*
X36211Y1402849D01*
X39467Y1400674D01*
X42999Y1399971D01*
Y1393358D01*
X41339Y1389351D01*
Y1382303D01*
X44036Y1375791D01*
X49020Y1370807D01*
X55531Y1368110D01*
X62579D01*
X69091Y1370807D01*
X74074Y1375791D01*
X76772Y1382303D01*
Y1389351D01*
X75112Y1393358D01*
Y1399971D01*
X78643Y1400674D01*
X81899Y1402849D01*
X83572Y1405353D01*
X95669D01*
Y1403347D01*
X167323D01*
Y1438780D01*
X95669D01*
Y1437466D01*
X84035D01*
X81899Y1440663D01*
X78643Y1442838D01*
X74803Y1443602D01*
D02*
G37*
G36*
X393701Y1349599D02*
X359331D01*
Y1304803D01*
X442838D01*
X441800Y1312691D01*
X436825Y1324701D01*
X428912Y1335014D01*
X418599Y1342928D01*
X406589Y1347902D01*
X393701Y1349599D01*
D02*
G37*
G36*
X143701D02*
X109331D01*
Y1304803D01*
X192838D01*
X191800Y1312691D01*
X186825Y1324701D01*
X178912Y1335014D01*
X168599Y1342928D01*
X156589Y1347902D01*
X143701Y1349599D01*
D02*
G37*
G36*
X599331D02*
X564961D01*
X552072Y1347902D01*
X540063Y1342928D01*
X529749Y1335014D01*
X521836Y1324701D01*
X516861Y1312691D01*
X515823Y1304803D01*
X599331D01*
Y1349599D01*
D02*
G37*
G36*
X349331D02*
X314961D01*
X302072Y1347902D01*
X290063Y1342928D01*
X279749Y1335014D01*
X271836Y1324701D01*
X266861Y1312691D01*
X265823Y1304803D01*
X349331D01*
Y1349599D01*
D02*
G37*
G36*
X99331D02*
X64961D01*
X52072Y1347902D01*
X40063Y1342928D01*
X29749Y1335014D01*
X21836Y1324701D01*
X16861Y1312691D01*
X15823Y1304803D01*
X99331D01*
Y1349599D01*
D02*
G37*
G36*
X1690945Y1362205D02*
X1584646D01*
Y1299213D01*
X1690945D01*
Y1362205D01*
D02*
G37*
G36*
X1286989Y1753937D02*
X1279941D01*
X1273429Y1751240D01*
X1268445Y1746256D01*
X1265748Y1739745D01*
Y1732697D01*
X1268445Y1726185D01*
X1272426Y1722204D01*
Y1323470D01*
X1261948Y1312992D01*
X1256319D01*
X1249807Y1310295D01*
X1244823Y1305311D01*
X1242126Y1298800D01*
Y1291752D01*
X1244823Y1285240D01*
X1249807Y1280256D01*
X1256319Y1277559D01*
X1263367D01*
X1269878Y1280256D01*
X1274862Y1285240D01*
X1277559Y1291752D01*
Y1297381D01*
X1291270Y1311092D01*
X1293663Y1314673D01*
X1294503Y1318898D01*
Y1722204D01*
X1298484Y1726185D01*
X1301181Y1732697D01*
Y1739745D01*
X1298484Y1746256D01*
X1293500Y1751240D01*
X1286989Y1753937D01*
D02*
G37*
G36*
X599331Y1294803D02*
X515823D01*
X516861Y1286915D01*
X521836Y1274905D01*
X529749Y1264592D01*
X540063Y1256678D01*
X552072Y1251704D01*
X564961Y1250007D01*
X599331D01*
Y1294803D01*
D02*
G37*
G36*
X442838D02*
X359331D01*
Y1250007D01*
X393701D01*
X406589Y1251704D01*
X418599Y1256678D01*
X428912Y1264592D01*
X436825Y1274905D01*
X441800Y1286915D01*
X442838Y1294803D01*
D02*
G37*
G36*
X349331D02*
X265823D01*
X266861Y1286915D01*
X271836Y1274905D01*
X279749Y1264592D01*
X290063Y1256678D01*
X302072Y1251704D01*
X314961Y1250007D01*
X349331D01*
Y1294803D01*
D02*
G37*
G36*
X192838D02*
X109331D01*
Y1250007D01*
X143701D01*
X156589Y1251704D01*
X168599Y1256678D01*
X178912Y1264592D01*
X186825Y1274905D01*
X191800Y1286915D01*
X192838Y1294803D01*
D02*
G37*
G36*
X99331D02*
X15823D01*
X16861Y1286915D01*
X21836Y1274905D01*
X29749Y1264592D01*
X40063Y1256678D01*
X52072Y1251704D01*
X64961Y1250007D01*
X99331D01*
Y1294803D01*
D02*
G37*
G36*
X1706693Y1228339D02*
X1672323D01*
Y1183543D01*
X1755831D01*
X1754792Y1191431D01*
X1749818Y1203441D01*
X1741904Y1213755D01*
X1731591Y1221668D01*
X1719581Y1226643D01*
X1706693Y1228339D01*
D02*
G37*
G36*
X1662323D02*
X1627953D01*
X1615065Y1226643D01*
X1603055Y1221668D01*
X1592742Y1213755D01*
X1584828Y1203441D01*
X1579854Y1191431D01*
X1578815Y1183543D01*
X1662323D01*
Y1228339D01*
D02*
G37*
G36*
X1456693D02*
X1422323D01*
Y1183543D01*
X1505831D01*
X1504792Y1191431D01*
X1499818Y1203441D01*
X1491904Y1213755D01*
X1481591Y1221668D01*
X1469581Y1226643D01*
X1456693Y1228339D01*
D02*
G37*
G36*
X1412323D02*
X1377953D01*
X1365065Y1226643D01*
X1353055Y1221668D01*
X1342742Y1213755D01*
X1334828Y1203441D01*
X1329854Y1191431D01*
X1328815Y1183543D01*
X1412323D01*
Y1228339D01*
D02*
G37*
G36*
X1755831Y1173543D02*
X1672323D01*
Y1128747D01*
X1706693D01*
X1719581Y1130444D01*
X1731591Y1135419D01*
X1741904Y1143332D01*
X1749818Y1153645D01*
X1754792Y1165655D01*
X1755831Y1173543D01*
D02*
G37*
G36*
X1662323D02*
X1578815D01*
X1579854Y1165655D01*
X1584828Y1153645D01*
X1592742Y1143332D01*
X1603055Y1135419D01*
X1615065Y1130444D01*
X1627953Y1128747D01*
X1662323D01*
Y1173543D01*
D02*
G37*
G36*
X1505831D02*
X1422323D01*
Y1128747D01*
X1456693D01*
X1469581Y1130444D01*
X1481591Y1135419D01*
X1491904Y1143332D01*
X1499818Y1153645D01*
X1504792Y1165655D01*
X1505831Y1173543D01*
D02*
G37*
G36*
X1412323D02*
X1328815D01*
X1329854Y1165655D01*
X1334828Y1153645D01*
X1342742Y1143332D01*
X1353055Y1135419D01*
X1365065Y1130444D01*
X1377953Y1128747D01*
X1412323D01*
Y1173543D01*
D02*
G37*
G36*
X187008Y1179134D02*
X80709D01*
Y1116142D01*
X187008D01*
Y1179134D01*
D02*
G37*
G36*
X479902Y1116142D02*
X472854D01*
X466342Y1113445D01*
X461359Y1108461D01*
X458661Y1101949D01*
Y1094901D01*
X461359Y1088390D01*
X466342Y1083406D01*
X472854Y1080709D01*
X479902D01*
X486414Y1083406D01*
X491397Y1088390D01*
X494094Y1094901D01*
Y1101949D01*
X491397Y1108461D01*
X486414Y1113445D01*
X479902Y1116142D01*
D02*
G37*
G36*
X1213661Y1112362D02*
Y1090551D01*
Y1068740D01*
X1230472D01*
Y1079512D01*
X1236220D01*
X1240445Y1080353D01*
X1244026Y1082746D01*
X1246419Y1086327D01*
X1247259Y1090551D01*
X1246419Y1094776D01*
X1244026Y1098357D01*
X1240445Y1100750D01*
X1236220Y1101590D01*
X1230472D01*
Y1112362D01*
X1213661D01*
D02*
G37*
G36*
X822835Y1076706D02*
X812087D01*
Y1055685D01*
X837045D01*
Y1062496D01*
X835963Y1067934D01*
X832883Y1072544D01*
X828273Y1075624D01*
X822835Y1076706D01*
D02*
G37*
G36*
X1022559D02*
X1011811D01*
X1006373Y1075624D01*
X1001763Y1072544D01*
X998683Y1067934D01*
X997601Y1062496D01*
Y1055685D01*
X1022559D01*
Y1076706D01*
D02*
G37*
G36*
X1043307D02*
X1032559D01*
Y1050685D01*
Y1024664D01*
X1043307D01*
X1048745Y1025746D01*
X1053355Y1028826D01*
X1056435Y1033436D01*
X1056985Y1036199D01*
X1062138Y1037424D01*
X1062705Y1037045D01*
X1066929Y1036205D01*
X1071153Y1037045D01*
X1074735Y1039438D01*
X1077128Y1043020D01*
X1077968Y1047244D01*
X1077128Y1051468D01*
X1074735Y1055050D01*
X1073014Y1056770D01*
X1069433Y1059163D01*
X1065209Y1060003D01*
X1057517D01*
Y1062496D01*
X1056435Y1067934D01*
X1053355Y1072544D01*
X1048745Y1075624D01*
X1043307Y1076706D01*
D02*
G37*
G36*
X1022559Y1045685D02*
X997601D01*
Y1038874D01*
X998683Y1033436D01*
X1001763Y1028826D01*
X1006373Y1025746D01*
X1011811Y1024664D01*
X1022559D01*
Y1045685D01*
D02*
G37*
G36*
X837045D02*
X812087D01*
Y1024664D01*
X822835D01*
X828273Y1025746D01*
X832883Y1028826D01*
X835963Y1033436D01*
X837045Y1038874D01*
Y1045685D01*
D02*
G37*
G36*
X802087Y1076706D02*
X791339D01*
X785901Y1075624D01*
X781291Y1072544D01*
X778210Y1067934D01*
X777747Y1065605D01*
X773622Y1062220D01*
X769398Y1061380D01*
X765817Y1058987D01*
X763424Y1055405D01*
X762583Y1051181D01*
X763424Y1046957D01*
X765817Y1043376D01*
X766064Y1043128D01*
X769646Y1040735D01*
X773870Y1039894D01*
X777129D01*
Y1038874D01*
X778210Y1033436D01*
X781291Y1028826D01*
X785901Y1025746D01*
X791339Y1024664D01*
X802087D01*
Y1050685D01*
Y1076706D01*
D02*
G37*
G36*
X1043307Y1010531D02*
X1011811D01*
X1007971Y1009767D01*
X1004715Y1007592D01*
X1004606Y1007429D01*
X997539D01*
X991713Y1009842D01*
X984665D01*
X978153Y1007145D01*
X973170Y1002162D01*
X970472Y995650D01*
Y988602D01*
X973170Y982090D01*
X978153Y977107D01*
X984665Y974409D01*
X991713D01*
X993902Y975316D01*
X1002086D01*
X1002540Y973034D01*
X1004715Y969778D01*
X1007971Y967603D01*
X1011503Y966900D01*
Y950984D01*
X990158D01*
Y915551D01*
X1061811D01*
Y950984D01*
X1043616D01*
Y966900D01*
X1047147Y967603D01*
X1050403Y969778D01*
X1052579Y973034D01*
X1053342Y976874D01*
Y1000496D01*
X1052579Y1004336D01*
X1050403Y1007592D01*
X1047147Y1009767D01*
X1043307Y1010531D01*
D02*
G37*
G36*
X822835D02*
X791339D01*
X787498Y1009767D01*
X784243Y1007592D01*
X782067Y1004336D01*
X781303Y1000496D01*
Y999724D01*
X772149D01*
X767925Y998884D01*
X764344Y996491D01*
X705777Y937924D01*
X703384Y934343D01*
X702544Y930118D01*
Y859252D01*
Y735732D01*
X703384Y731508D01*
X705777Y727927D01*
X785240Y648463D01*
Y630417D01*
X786004Y626577D01*
X788180Y623321D01*
X791435Y621146D01*
X795276Y620382D01*
X826772D01*
X830612Y621146D01*
X833868Y623321D01*
X836043Y626577D01*
X836807Y630417D01*
Y654039D01*
X836043Y657880D01*
X833868Y661135D01*
X830612Y663311D01*
X826772Y664075D01*
X800851D01*
X724621Y740305D01*
Y822736D01*
X729622Y826077D01*
X732697Y824803D01*
X739745D01*
X746256Y827500D01*
X751240Y832484D01*
X753937Y838996D01*
Y846044D01*
X751240Y852555D01*
X746256Y857539D01*
X739745Y860236D01*
X737249D01*
X735178Y865236D01*
X742171Y872229D01*
X772835D01*
Y865551D01*
X844488D01*
Y900984D01*
X772835D01*
Y894307D01*
X737598D01*
X733374Y893466D01*
X729793Y891073D01*
X729241Y890521D01*
X724621Y892435D01*
Y925546D01*
X776303Y977228D01*
X781303Y976874D01*
X782067Y973034D01*
X784243Y969778D01*
X787498Y967603D01*
X791339Y966839D01*
X822835D01*
X826675Y967603D01*
X829931Y969778D01*
X832106Y973034D01*
X832870Y976874D01*
Y1000496D01*
X832106Y1004336D01*
X829931Y1007592D01*
X826675Y1009767D01*
X822835Y1010531D01*
D02*
G37*
G36*
X1598425Y1062992D02*
X1417323D01*
Y960630D01*
X1598425D01*
Y1062992D01*
D02*
G37*
G36*
X1206693Y1863186D02*
X1127953D01*
X1116134Y1861630D01*
X1105120Y1857068D01*
X1095662Y1849811D01*
X1088405Y1840353D01*
X1083843Y1829339D01*
X1082287Y1817520D01*
X1083843Y1805700D01*
X1088405Y1794687D01*
X1095662Y1785229D01*
X1105120Y1777972D01*
X1116134Y1773409D01*
X1127953Y1771853D01*
X1141512D01*
Y1224210D01*
X1127953D01*
X1116134Y1222654D01*
X1105120Y1218091D01*
X1095662Y1210834D01*
X1088405Y1201376D01*
X1083843Y1190363D01*
X1082287Y1178543D01*
X1083843Y1166724D01*
X1088405Y1155710D01*
X1095662Y1146252D01*
X1105120Y1138995D01*
X1116134Y1134433D01*
X1127953Y1132877D01*
X1153235D01*
Y1108268D01*
X1151575D01*
Y1072835D01*
X1153235D01*
Y1045276D01*
X1151575D01*
Y1009843D01*
X1185945D01*
X1187008Y1009842D01*
X1190945D01*
X1192605Y1008183D01*
Y998258D01*
X1184793D01*
X1180281Y997361D01*
X1176456Y994804D01*
X1173899Y990979D01*
X1173002Y986467D01*
Y952510D01*
X1173899Y947997D01*
X1176456Y944172D01*
X1180281Y941616D01*
X1184793Y940718D01*
X1232530D01*
X1237042Y941616D01*
X1240867Y944172D01*
X1243423Y947997D01*
X1244321Y952510D01*
Y986467D01*
X1243423Y990979D01*
X1240867Y994804D01*
X1237042Y997361D01*
X1232530Y998258D01*
X1224718D01*
Y1009843D01*
X1226378D01*
Y1045276D01*
X1192008D01*
X1190945Y1045276D01*
X1187008D01*
X1185348Y1046936D01*
Y1064362D01*
X1186851Y1068740D01*
X1203661D01*
Y1090551D01*
Y1112362D01*
X1186851D01*
X1185348Y1116740D01*
Y1132877D01*
X1206693D01*
X1218512Y1134433D01*
X1229526Y1138995D01*
X1238984Y1146252D01*
X1246241Y1155710D01*
X1250803Y1166724D01*
X1252359Y1178543D01*
X1250803Y1190363D01*
X1246241Y1201376D01*
X1238984Y1210834D01*
X1229526Y1218091D01*
X1218512Y1222654D01*
X1206693Y1224210D01*
X1193134D01*
Y1771853D01*
X1206693D01*
X1218512Y1773409D01*
X1229526Y1777972D01*
X1238984Y1785229D01*
X1246241Y1794687D01*
X1250803Y1805700D01*
X1252359Y1817520D01*
X1250803Y1829339D01*
X1246241Y1840353D01*
X1238984Y1849811D01*
X1229526Y1857068D01*
X1218512Y1861630D01*
X1206693Y1863186D01*
D02*
G37*
G36*
X1143209Y1004159D02*
X1085138D01*
X1080721Y1003280D01*
X1076977Y1000779D01*
X1074476Y997034D01*
X1073597Y992618D01*
Y960138D01*
X1074476Y955721D01*
X1076977Y951977D01*
X1080721Y949476D01*
X1085138Y948597D01*
X1132358D01*
Y947154D01*
X1133198Y942930D01*
X1135591Y939349D01*
X1173002Y901938D01*
Y871801D01*
X1173899Y867289D01*
X1176456Y863463D01*
X1180281Y860907D01*
X1184793Y860010D01*
X1232530D01*
X1237042Y860907D01*
X1240867Y863463D01*
X1243423Y867289D01*
X1244321Y871801D01*
Y905758D01*
X1243423Y910270D01*
X1240867Y914096D01*
X1237042Y916652D01*
X1232530Y917549D01*
X1188613D01*
X1154436Y951727D01*
Y958561D01*
X1154749Y960138D01*
Y992618D01*
X1153871Y997034D01*
X1151369Y1000779D01*
X1147625Y1003280D01*
X1143209Y1004159D01*
D02*
G37*
G36*
X1445039Y931260D02*
X1394764D01*
Y831771D01*
X1445039D01*
Y931260D01*
D02*
G37*
G36*
X1384764D02*
X1334488D01*
Y831771D01*
X1384764D01*
Y931260D01*
D02*
G37*
G36*
X1263367Y832677D02*
X1256319D01*
X1249807Y829980D01*
X1248876Y829049D01*
X1230315D01*
Y832677D01*
X1183071D01*
Y793307D01*
X1230315D01*
Y796936D01*
X1257873D01*
X1257874Y796936D01*
X1259425Y797244D01*
X1263367D01*
X1269878Y799941D01*
X1274862Y804925D01*
X1277559Y811437D01*
Y818485D01*
X1274862Y824996D01*
X1269878Y829980D01*
X1263367Y832677D01*
D02*
G37*
G36*
X844488Y850984D02*
X772835D01*
Y831163D01*
X760108Y818436D01*
X757715Y814854D01*
X756875Y810630D01*
Y766972D01*
X757715Y762748D01*
X760108Y759167D01*
X789106Y730168D01*
Y723755D01*
X788180Y723135D01*
X786004Y719880D01*
X785240Y716039D01*
Y692417D01*
X786004Y688577D01*
X788180Y685321D01*
X791435Y683146D01*
X795276Y682382D01*
X826772D01*
X830612Y683146D01*
X833868Y685321D01*
X836043Y688577D01*
X836807Y692417D01*
Y716039D01*
X836043Y719880D01*
X833868Y723135D01*
X830612Y725311D01*
X826772Y726075D01*
X811184D01*
Y734740D01*
X810344Y738965D01*
X807951Y742546D01*
X789565Y760932D01*
X791478Y765551D01*
X821781D01*
X834906Y752426D01*
X834906Y752426D01*
X840115Y748945D01*
X846260Y747723D01*
X846260Y747723D01*
X855554D01*
X857959Y745318D01*
Y726509D01*
X854427Y725807D01*
X851172Y723631D01*
X848996Y720376D01*
X848232Y716535D01*
Y692913D01*
X848996Y689073D01*
X851172Y685817D01*
X854427Y683642D01*
X858268Y682878D01*
X889764D01*
X893604Y683642D01*
X896860Y685817D01*
X898764Y688668D01*
X909791D01*
X913799Y687008D01*
X920847D01*
X927358Y689705D01*
X932342Y694689D01*
X935039Y701200D01*
Y708248D01*
X932342Y714760D01*
X927358Y719744D01*
X920847Y722441D01*
X913799D01*
X909791Y720781D01*
X898764D01*
X896860Y723631D01*
X893604Y725807D01*
X890072Y726509D01*
Y751968D01*
X890072Y751968D01*
X888850Y758113D01*
X885369Y763322D01*
X885369Y763322D01*
X873558Y775133D01*
X868349Y778614D01*
X862205Y779836D01*
X862204Y779836D01*
X852911D01*
X844488Y788259D01*
Y800984D01*
X778952D01*
Y806058D01*
X788446Y815551D01*
X844488D01*
Y820949D01*
X854945D01*
X855059Y820673D01*
X860043Y815689D01*
X866555Y812992D01*
X873603D01*
X880114Y815689D01*
X885098Y820673D01*
X887795Y827185D01*
Y834233D01*
X885098Y840744D01*
X880114Y845728D01*
X873603Y848425D01*
X866555D01*
X860043Y845728D01*
X857342Y843027D01*
X844488D01*
Y850984D01*
D02*
G37*
G36*
X187008Y844488D02*
X80709D01*
Y781496D01*
X187008D01*
Y844488D01*
D02*
G37*
G36*
X1263367Y781496D02*
X1256319D01*
X1249807Y778799D01*
X1248876Y777867D01*
X1230315D01*
Y781496D01*
X1183071D01*
Y742126D01*
X1230315D01*
Y745755D01*
X1257873D01*
X1257874Y745754D01*
X1259425Y746063D01*
X1263367D01*
X1269878Y748760D01*
X1274862Y753744D01*
X1277559Y760255D01*
Y767303D01*
X1274862Y773815D01*
X1269878Y778799D01*
X1263367Y781496D01*
D02*
G37*
G36*
X1445039Y821771D02*
X1394764D01*
Y722284D01*
X1445039D01*
Y821771D01*
D02*
G37*
G36*
X1384764D02*
X1334488D01*
Y722284D01*
X1384764D01*
Y821771D01*
D02*
G37*
G36*
X844488Y950984D02*
X772835D01*
Y915551D01*
X844488D01*
Y922229D01*
X849562D01*
X946328Y825462D01*
X949910Y823069D01*
X954134Y822229D01*
X990158D01*
Y815551D01*
X1014945D01*
Y800984D01*
X990158D01*
Y796290D01*
X985158Y794494D01*
X983528Y796123D01*
X977017Y798821D01*
X969969D01*
X963457Y796123D01*
X958473Y791140D01*
X955776Y784628D01*
Y777580D01*
X958473Y771068D01*
X963457Y766085D01*
X969969Y763388D01*
X977017D01*
X983528Y766085D01*
X985158Y767714D01*
X990158Y765643D01*
Y765551D01*
X1061811D01*
Y800984D01*
X1037023D01*
Y815551D01*
X1061811D01*
Y844644D01*
X1064961Y847229D01*
X1073597D01*
Y842028D01*
X1074476Y837611D01*
X1076977Y833867D01*
X1080721Y831365D01*
X1085138Y830487D01*
X1120851D01*
Y807087D01*
X1108268D01*
Y767717D01*
X1120851D01*
Y745714D01*
X1101707Y726571D01*
X1083661D01*
X1079821Y725807D01*
X1076565Y723631D01*
X1074390Y720376D01*
X1073907Y717949D01*
X1068809D01*
X1068326Y720376D01*
X1066151Y723631D01*
X1062895Y725807D01*
X1059055Y726571D01*
X1027559D01*
X1023719Y725807D01*
X1020463Y723631D01*
X1018288Y720376D01*
X1017524Y716535D01*
Y692913D01*
X1018288Y689073D01*
X1020463Y685817D01*
X1023719Y683642D01*
X1027559Y682878D01*
X1059055D01*
X1062895Y683642D01*
X1066151Y685817D01*
X1068326Y689073D01*
X1068626Y690579D01*
X1073626Y690087D01*
Y685039D01*
X1074390Y681199D01*
X1076565Y677943D01*
X1079821Y675768D01*
X1083661Y675004D01*
X1107283D01*
X1111124Y675768D01*
X1114379Y677943D01*
X1116555Y681199D01*
X1117319Y685039D01*
Y710960D01*
X1127212Y720853D01*
X1131820Y718390D01*
X1131451Y716535D01*
Y705787D01*
X1152472D01*
Y730745D01*
X1145661D01*
X1143485Y730312D01*
X1140713Y734859D01*
X1142088Y736917D01*
X1142929Y741142D01*
Y767717D01*
X1155512D01*
Y807087D01*
X1142929D01*
Y830487D01*
X1143209D01*
X1147625Y831365D01*
X1151369Y833867D01*
X1153871Y837611D01*
X1154749Y842028D01*
Y874508D01*
X1153871Y878924D01*
X1151369Y882668D01*
X1147625Y885170D01*
X1143209Y886048D01*
X1085138D01*
X1080721Y885170D01*
X1076977Y882668D01*
X1074476Y878924D01*
X1073597Y874508D01*
Y871566D01*
X1068597Y870242D01*
X1061914Y876926D01*
X1061811Y877444D01*
Y900984D01*
X990158D01*
Y865551D01*
X1042435D01*
X1043179Y864439D01*
X1052014Y855604D01*
X1050100Y850984D01*
X990158D01*
Y844307D01*
X958706D01*
X861939Y941073D01*
X858358Y943466D01*
X854134Y944307D01*
X844488D01*
Y950984D01*
D02*
G37*
G36*
X1169283Y730745D02*
X1162472D01*
Y700787D01*
Y670829D01*
X1169283D01*
X1174721Y671911D01*
X1179331Y674991D01*
X1182412Y679601D01*
X1183493Y685039D01*
Y689749D01*
X1200787D01*
X1205012Y690589D01*
X1208593Y692982D01*
X1210986Y696563D01*
X1211826Y700787D01*
X1210986Y705012D01*
X1208593Y708593D01*
X1205012Y710986D01*
X1200787Y711826D01*
X1183493D01*
Y716535D01*
X1182412Y721973D01*
X1179331Y726583D01*
X1174721Y729664D01*
X1169283Y730745D01*
D02*
G37*
G36*
X1152472Y695787D02*
X1131451D01*
Y685039D01*
X1132533Y679601D01*
X1135613Y674991D01*
X1140224Y671911D01*
X1145661Y670829D01*
X1152472D01*
Y695787D01*
D02*
G37*
G36*
X393701Y710623D02*
X359331D01*
Y665827D01*
X442838D01*
X441800Y673715D01*
X436825Y685725D01*
X428912Y696038D01*
X418599Y703952D01*
X406589Y708926D01*
X393701Y710623D01*
D02*
G37*
G36*
X173386Y710197D02*
X109331D01*
Y665827D01*
X173386D01*
Y710197D01*
D02*
G37*
G36*
X99331D02*
X35276D01*
Y665827D01*
X99331D01*
Y710197D01*
D02*
G37*
G36*
X349331Y710623D02*
X314961D01*
X302072Y708926D01*
X290063Y703952D01*
X279749Y696038D01*
X271836Y685725D01*
X266861Y673715D01*
X265823Y665827D01*
X349331D01*
Y710623D01*
D02*
G37*
G36*
X1038307Y668745D02*
X1027559D01*
X1022121Y667664D01*
X1017511Y664583D01*
X1014431Y659973D01*
X1013349Y654535D01*
Y647724D01*
X1038307D01*
Y668745D01*
D02*
G37*
G36*
X889764D02*
X879016D01*
Y647724D01*
X903974D01*
Y654535D01*
X902892Y659973D01*
X899812Y664583D01*
X895202Y667664D01*
X889764Y668745D01*
D02*
G37*
G36*
X869016D02*
X858268D01*
X852830Y667664D01*
X848220Y664583D01*
X845139Y659973D01*
X844058Y654535D01*
Y647724D01*
X869016D01*
Y668745D01*
D02*
G37*
G36*
X1059055D02*
X1048307D01*
Y642724D01*
Y616703D01*
X1059055D01*
X1064493Y617785D01*
X1069103Y620865D01*
X1072183Y625476D01*
X1073265Y630913D01*
Y633158D01*
X1093016D01*
X1097240Y633998D01*
X1100821Y636391D01*
X1102294Y637864D01*
X1104687Y641445D01*
X1105527Y645669D01*
X1104687Y649894D01*
X1102294Y653475D01*
X1098713Y655868D01*
X1094488Y656708D01*
X1090264Y655868D01*
X1089318Y655236D01*
X1073126D01*
X1072183Y659973D01*
X1069103Y664583D01*
X1064493Y667664D01*
X1059055Y668745D01*
D02*
G37*
G36*
X1038307Y637724D02*
X1013349D01*
Y630913D01*
X1014431Y625476D01*
X1017511Y620865D01*
X1022121Y617785D01*
X1027559Y616703D01*
X1038307D01*
Y637724D01*
D02*
G37*
G36*
X173386Y655827D02*
X109331D01*
Y611457D01*
X173386D01*
Y655827D01*
D02*
G37*
G36*
X442838D02*
X359331D01*
Y611031D01*
X393701D01*
X406589Y612727D01*
X418599Y617702D01*
X428912Y625616D01*
X436825Y635929D01*
X441800Y647939D01*
X442838Y655827D01*
D02*
G37*
G36*
X349331D02*
X265823D01*
X266861Y647939D01*
X271836Y635929D01*
X279749Y625616D01*
X290063Y617702D01*
X302072Y612727D01*
X314961Y611031D01*
X349331D01*
Y655827D01*
D02*
G37*
G36*
X1500984Y619095D02*
X1384843D01*
Y604552D01*
X1360076D01*
X1359565Y607121D01*
X1357009Y610946D01*
X1353184Y613502D01*
X1348671Y614400D01*
X1314715D01*
X1310202Y613502D01*
X1306377Y610946D01*
X1303821Y607121D01*
X1302923Y602608D01*
Y554872D01*
X1303821Y550360D01*
X1306377Y546534D01*
X1310202Y543978D01*
X1314715Y543081D01*
X1348671D01*
X1353184Y543978D01*
X1357009Y546534D01*
X1359565Y550360D01*
X1360076Y552929D01*
X1384843D01*
Y538386D01*
X1500984D01*
Y619095D01*
D02*
G37*
G36*
X903974Y637724D02*
X844058D01*
Y630913D01*
X845139Y625476D01*
X848220Y620865D01*
X852830Y617785D01*
X858268Y616703D01*
X862977D01*
Y606299D01*
X863817Y602075D01*
X866210Y598494D01*
X869791Y596101D01*
X874016Y595260D01*
X878240Y596101D01*
X881821Y598494D01*
X884214Y602075D01*
X885054Y606299D01*
Y616703D01*
X889764D01*
X895202Y617785D01*
X899812Y620865D01*
X902892Y625476D01*
X903974Y630913D01*
Y637724D01*
D02*
G37*
G36*
X1677165Y917323D02*
X1574803D01*
Y736221D01*
X1593283D01*
Y619095D01*
X1554134D01*
Y538386D01*
X1670276D01*
Y619095D01*
X1644906D01*
Y736221D01*
X1677165D01*
Y917323D01*
D02*
G37*
G36*
X883136Y555118D02*
X872770D01*
X862757Y552435D01*
X853779Y547252D01*
X846449Y539922D01*
X841266Y530944D01*
X838583Y520931D01*
Y510565D01*
X841266Y500552D01*
X846449Y491574D01*
X853779Y484244D01*
X862757Y479061D01*
X872770Y476378D01*
X883136D01*
X893149Y479061D01*
X902126Y484244D01*
X909457Y491574D01*
X914640Y500552D01*
X917323Y510565D01*
Y520931D01*
X914640Y530944D01*
X909457Y539922D01*
X902126Y547252D01*
X893149Y552435D01*
X883136Y555118D01*
D02*
G37*
G36*
X1267963Y614400D02*
X1234006D01*
X1229493Y613502D01*
X1225668Y610946D01*
X1223112Y607121D01*
X1222214Y602608D01*
Y554872D01*
X1223112Y550360D01*
X1225668Y546534D01*
X1228126Y544892D01*
Y518753D01*
X1227637Y518426D01*
X1225081Y514601D01*
X1224183Y510089D01*
Y476132D01*
X1225081Y471619D01*
X1227637Y467794D01*
X1231462Y465238D01*
X1235974Y464340D01*
X1283711D01*
X1288223Y465238D01*
X1292048Y467794D01*
X1294604Y471619D01*
X1295502Y476132D01*
Y510089D01*
X1294604Y514601D01*
X1292048Y518426D01*
X1288223Y520982D01*
X1283711Y521880D01*
X1279748D01*
Y554842D01*
X1279754Y554872D01*
Y602608D01*
X1278857Y607121D01*
X1276300Y610946D01*
X1272475Y613502D01*
X1267963Y614400D01*
D02*
G37*
G36*
X1129976Y285433D02*
X1118055D01*
X1106540Y282348D01*
X1096216Y276387D01*
X1087786Y267957D01*
X1081826Y257633D01*
X1081445Y256214D01*
X674460D01*
X674080Y257633D01*
X668119Y267957D01*
X659690Y276387D01*
X649365Y282348D01*
X637850Y285433D01*
X625929D01*
X614414Y282348D01*
X604090Y276387D01*
X595660Y267957D01*
X589700Y257633D01*
X586614Y246118D01*
Y234197D01*
X589700Y222682D01*
X595660Y212358D01*
X604090Y203928D01*
X614414Y197967D01*
X625929Y194882D01*
X637850D01*
X649365Y197967D01*
X659690Y203928D01*
X668119Y212358D01*
X674080Y222682D01*
X674460Y224101D01*
X1081445D01*
X1081826Y222682D01*
X1087786Y212358D01*
X1096216Y203928D01*
X1106540Y197967D01*
X1118055Y194882D01*
X1129976D01*
X1141492Y197967D01*
X1151816Y203928D01*
X1160245Y212358D01*
X1166206Y222682D01*
X1169291Y234197D01*
Y246118D01*
X1166206Y257633D01*
X1160245Y267957D01*
X1151816Y276387D01*
X1141492Y282348D01*
X1129976Y285433D01*
D02*
G37*
G36*
X80689Y271260D02*
X73641D01*
X67130Y268563D01*
X62146Y263579D01*
X59449Y257067D01*
Y250019D01*
X62146Y243508D01*
X67130Y238524D01*
X73641Y235827D01*
X80689D01*
X87201Y238524D01*
X92185Y243508D01*
X94882Y250019D01*
Y257067D01*
X92185Y263579D01*
X87201Y268563D01*
X80689Y271260D01*
D02*
G37*
G36*
X1593661Y279685D02*
X1556181D01*
Y206772D01*
X1593661D01*
Y279685D01*
D02*
G37*
G36*
X1546181D02*
X1508701D01*
Y206772D01*
X1546181D01*
Y279685D01*
D02*
G37*
G36*
X1641732Y510329D02*
X1366142D01*
X1361622Y508457D01*
X1359750Y503937D01*
Y455211D01*
X1200787D01*
X1196267Y453339D01*
X1194395Y448819D01*
Y204724D01*
X1196267Y200204D01*
X1200787Y198332D01*
X1370079D01*
X1374599Y200204D01*
X1376471Y204724D01*
Y304632D01*
X1641732D01*
X1646252Y306504D01*
X1648124Y311024D01*
Y503937D01*
X1646252Y508457D01*
X1641732Y510329D01*
D02*
G37*
G36*
X1302842Y185669D02*
X1264842D01*
Y150669D01*
X1302842D01*
Y185669D01*
D02*
G37*
G36*
X1254842D02*
X1216842D01*
Y150669D01*
X1254842D01*
Y185669D01*
D02*
G37*
G36*
X883136Y200787D02*
X872770D01*
X862757Y198104D01*
X853779Y192921D01*
X846449Y185591D01*
X841266Y176613D01*
X838583Y166601D01*
Y156234D01*
X841266Y146221D01*
X846449Y137244D01*
X853779Y129913D01*
X862757Y124730D01*
X872770Y122047D01*
X883136D01*
X893149Y124730D01*
X902126Y129913D01*
X909457Y137244D01*
X914640Y146221D01*
X917323Y156234D01*
Y166601D01*
X914640Y176613D01*
X909457Y185591D01*
X902126Y192921D01*
X893149Y198104D01*
X883136Y200787D01*
D02*
G37*
G36*
X1593661Y196772D02*
X1508701D01*
Y123858D01*
X1536205D01*
Y94488D01*
X1537046Y90264D01*
X1539438Y86683D01*
X1543020Y84290D01*
X1547244Y83449D01*
X1551468Y84290D01*
X1555050Y86683D01*
X1557443Y90264D01*
X1558283Y94488D01*
Y123858D01*
X1593661D01*
Y196772D01*
D02*
G37*
G36*
X1302842Y140669D02*
X1259842D01*
X1216842D01*
Y105669D01*
X1248804D01*
Y90551D01*
X1249644Y86327D01*
X1252037Y82746D01*
X1255618Y80353D01*
X1259842Y79512D01*
X1264067Y80353D01*
X1267648Y82746D01*
X1270041Y86327D01*
X1270881Y90551D01*
Y105669D01*
X1302842D01*
Y140669D01*
D02*
G37*
%LPD*%
G36*
X1641732Y311024D02*
X1370079D01*
Y204724D01*
X1200787D01*
Y448819D01*
X1366142D01*
Y503937D01*
X1641732D01*
Y311024D01*
D02*
G37*
%LPC*%
G36*
X1261058Y429673D02*
X1254913Y428451D01*
X1249704Y424971D01*
X1248489Y423755D01*
X1245008Y418546D01*
X1243786Y412401D01*
X1245008Y406257D01*
X1248489Y401048D01*
X1253698Y397567D01*
X1259842Y396345D01*
X1265987Y397567D01*
X1271196Y401048D01*
X1272411Y402263D01*
X1275892Y407472D01*
X1277114Y413617D01*
X1275892Y419761D01*
X1272411Y424971D01*
X1267202Y428451D01*
X1261058Y429673D01*
D02*
G37*
G36*
X1546559Y442836D02*
X1449706D01*
X1443026Y441956D01*
X1436801Y439377D01*
X1431455Y435276D01*
X1427353Y429930D01*
X1424774Y423705D01*
X1423895Y417024D01*
X1424774Y410344D01*
X1427353Y404119D01*
X1431455Y398773D01*
X1436801Y394671D01*
X1443026Y392092D01*
X1449706Y391213D01*
X1546559D01*
X1553239Y392092D01*
X1559464Y394671D01*
X1564810Y398773D01*
X1568912Y404119D01*
X1571490Y410344D01*
X1572370Y417024D01*
X1571490Y423705D01*
X1568912Y429930D01*
X1564810Y435276D01*
X1559464Y439377D01*
X1553239Y441956D01*
X1546559Y442836D01*
D02*
G37*
G36*
X1273386Y315269D02*
X1267241Y314047D01*
X1262032Y310566D01*
X1248489Y297023D01*
X1245008Y291814D01*
X1243786Y285669D01*
X1245008Y279525D01*
X1248489Y274316D01*
X1253698Y270835D01*
X1259842Y269613D01*
X1265987Y270835D01*
X1271196Y274316D01*
X1284739Y287859D01*
X1288220Y293068D01*
X1289442Y299213D01*
X1288220Y305357D01*
X1284739Y310566D01*
X1279530Y314047D01*
X1273386Y315269D01*
D02*
G37*
G36*
X1268288Y252953D02*
X1261240D01*
X1254728Y250256D01*
X1249745Y245272D01*
X1247047Y238760D01*
Y231712D01*
X1249745Y225201D01*
X1254728Y220217D01*
X1261240Y217520D01*
X1268288D01*
X1274799Y220217D01*
X1279783Y225201D01*
X1282480Y231712D01*
Y238760D01*
X1279783Y245272D01*
X1274799Y250256D01*
X1268288Y252953D01*
D02*
G37*
%LPD*%
D10*
X1259842Y412401D02*
D03*
Y493110D02*
D03*
X1208661Y888779D02*
D03*
Y969488D02*
D03*
X665354Y1483268D02*
D03*
Y1563976D02*
D03*
D11*
X1259842Y145669D02*
D03*
Y285669D02*
D03*
D12*
X1169291Y1090551D02*
D03*
X1208661D02*
D03*
X677165Y1425197D02*
D03*
X637795D02*
D03*
X1208661Y1027559D02*
D03*
X1169291D02*
D03*
D13*
X981102Y2905512D02*
D03*
Y2955512D02*
D03*
Y3005512D02*
D03*
Y3055512D02*
D03*
Y3105512D02*
D03*
Y3155512D02*
D03*
Y3205512D02*
D03*
X763779Y2905512D02*
D03*
Y2955512D02*
D03*
Y3005512D02*
D03*
Y3055512D02*
D03*
Y3105512D02*
D03*
Y3155512D02*
D03*
Y3205512D02*
D03*
D14*
X708858Y2151968D02*
D03*
X658858D02*
D03*
X608858D02*
D03*
X558858D02*
D03*
X708858Y1934646D02*
D03*
X658858D02*
D03*
X608858D02*
D03*
X558858D02*
D03*
D15*
X277953Y1700591D02*
D03*
Y1750591D02*
D03*
Y1800591D02*
D03*
Y1850591D02*
D03*
X60630Y1700591D02*
D03*
Y1750591D02*
D03*
Y1800591D02*
D03*
Y1850591D02*
D03*
X1025984Y783268D02*
D03*
Y833268D02*
D03*
Y883268D02*
D03*
Y933268D02*
D03*
X808661Y783268D02*
D03*
Y833268D02*
D03*
Y883268D02*
D03*
Y933268D02*
D03*
X348819Y1421063D02*
D03*
Y1471063D02*
D03*
Y1521063D02*
D03*
Y1571063D02*
D03*
X131496Y1421063D02*
D03*
Y1471063D02*
D03*
Y1521063D02*
D03*
Y1571063D02*
D03*
D16*
X838087Y2035433D02*
D03*
X776087D02*
D03*
X1150102Y2551181D02*
D03*
X1212102D02*
D03*
X633362Y2452756D02*
D03*
X571362D02*
D03*
X239661Y3003937D02*
D03*
X177661D02*
D03*
X239661Y2799213D02*
D03*
X177661D02*
D03*
X591047Y2712598D02*
D03*
X653047D02*
D03*
X358764Y2708661D02*
D03*
X420764D02*
D03*
X1055614Y3007874D02*
D03*
X1117614D02*
D03*
X534937Y2818898D02*
D03*
X472937D02*
D03*
X1055614Y3157480D02*
D03*
X1117614D02*
D03*
X626976Y3062992D02*
D03*
X688976D02*
D03*
X405016Y1795276D02*
D03*
X343016D02*
D03*
X1157472Y700787D02*
D03*
X1095472D02*
D03*
X1150102Y2492126D02*
D03*
X1212102D02*
D03*
X666346Y2629921D02*
D03*
X728346D02*
D03*
X535433Y2712598D02*
D03*
X473433D02*
D03*
X850890Y3338583D02*
D03*
X912890D02*
D03*
X708165Y1866142D02*
D03*
X646165D02*
D03*
X405016Y1905512D02*
D03*
X343016D02*
D03*
X479819Y1566929D02*
D03*
X417819D02*
D03*
D17*
X779528Y1968504D02*
D03*
Y1906504D02*
D03*
X811024Y642228D02*
D03*
Y704228D02*
D03*
X807087Y988685D02*
D03*
Y1050685D02*
D03*
X657480Y2294779D02*
D03*
Y2232779D02*
D03*
X1043307Y642724D02*
D03*
Y704724D02*
D03*
X897638Y1968504D02*
D03*
Y1906504D02*
D03*
X539370Y1394197D02*
D03*
Y1456197D02*
D03*
X783465Y1512307D02*
D03*
Y1574307D02*
D03*
X539370Y1508370D02*
D03*
Y1570370D02*
D03*
X1106299Y2693409D02*
D03*
Y2755409D02*
D03*
X685039Y3003441D02*
D03*
Y2941441D02*
D03*
X425197Y1394197D02*
D03*
Y1456197D02*
D03*
X59055Y1648614D02*
D03*
Y1586614D02*
D03*
Y1421756D02*
D03*
Y1483756D02*
D03*
X874016Y642724D02*
D03*
Y704724D02*
D03*
X492126Y2063488D02*
D03*
Y2125488D02*
D03*
X1027559Y1050685D02*
D03*
Y988685D02*
D03*
D18*
X134843Y1915354D02*
D03*
X54134D02*
D03*
X1250984Y578740D02*
D03*
X1331693D02*
D03*
X1268701Y3011811D02*
D03*
X1187992D02*
D03*
D19*
X831693Y2588583D02*
D03*
Y2513780D02*
D03*
X924213Y2551181D02*
D03*
X493110Y2588583D02*
D03*
Y2513780D02*
D03*
X585630Y2551181D02*
D03*
D20*
X1131890Y787402D02*
D03*
X1206693Y812992D02*
D03*
Y761811D02*
D03*
D21*
X1084842Y2551181D02*
D03*
X1001772D02*
D03*
X730512D02*
D03*
X647441D02*
D03*
D22*
X1612205Y578740D02*
D03*
X1442913D02*
D03*
D23*
X1507874Y3085630D02*
D03*
Y2875000D02*
D03*
X1551181Y412402D02*
D03*
Y201772D02*
D03*
D24*
X1114173Y858268D02*
D03*
Y976378D02*
D03*
D25*
X497047Y1720472D02*
D03*
X676181D02*
D03*
X365158Y208661D02*
D03*
X186024D02*
D03*
X365158Y464567D02*
D03*
X186024D02*
D03*
D26*
X713583Y930118D02*
X772149Y988685D01*
X713583Y859252D02*
Y930118D01*
Y859252D02*
X737598Y883268D01*
X622047Y2629921D02*
X666346D01*
X1547244Y197835D02*
X1551181Y201772D01*
X1547244Y94488D02*
Y197835D01*
X1157472Y700787D02*
X1200787D01*
X973493Y781104D02*
X974575Y782186D01*
X1024902D01*
X1025984Y783268D01*
Y833268D01*
X52520Y1913740D02*
X54134Y1915354D01*
X-1968Y1913740D02*
X52520D01*
X-24606Y650591D02*
Y3187992D01*
Y650591D02*
X132874Y493110D01*
X-24606Y3187992D02*
X114173Y3326772D01*
X407946Y1633911D02*
X523675D01*
X586614Y1696850D01*
X402972Y1628937D02*
X407946Y1633911D01*
X507061Y1508122D02*
X539122D01*
X506813Y1507874D02*
X507061Y1508122D01*
X341535Y1628937D02*
X402972D01*
X541091Y1395917D02*
X592768D01*
X539370Y1394197D02*
X541091Y1395917D01*
X592768D02*
X594488Y1397638D01*
X773870Y1050933D02*
X806838D01*
X773622Y1051181D02*
X773870Y1050933D01*
X806838D02*
X807087Y1050685D01*
X688976Y3062992D02*
X696457Y3055512D01*
X763779D01*
X630417Y3003441D02*
X685039D01*
X626976Y3062992D02*
X628697Y3061272D01*
Y3005161D02*
Y3061272D01*
Y3005161D02*
X630417Y3003441D01*
X681102Y3125984D02*
X701575Y3105512D01*
X763779D01*
Y3155512D02*
X782284D01*
X267717Y2799213D02*
X624016Y3155512D01*
X763779D01*
X239661Y2799213D02*
X267717D01*
X239661Y3003937D02*
X444882D01*
X646457Y3205512D02*
X763779D01*
X444882Y3003937D02*
X646457Y3205512D01*
X782284D02*
X868110Y3291339D01*
X1122047D01*
X763779Y3205512D02*
X782284D01*
X1122047Y3291339D02*
X1338583Y3074803D01*
Y2826772D02*
Y3074803D01*
X1212102Y2700291D02*
X1338583Y2826772D01*
X1212102Y2551181D02*
Y2700291D01*
X796063Y2118898D02*
Y2253150D01*
X755906Y2078740D02*
X796063Y2118898D01*
X684843Y2078740D02*
X755906D01*
X558858Y1934646D02*
Y1952756D01*
X684843Y2078740D01*
X1259842Y90551D02*
Y145669D01*
X772149Y988685D02*
X807087D01*
X713583Y735732D02*
Y859252D01*
Y735732D02*
X807087Y642228D01*
X737598Y883268D02*
X808661D01*
X807087Y642228D02*
X811024D01*
X1259842Y1295276D02*
X1283465Y1318898D01*
Y1736220D01*
X1047244Y2224410D02*
X1192913Y2078740D01*
X776378Y1618898D02*
X1381398Y2223917D01*
Y2373524D01*
X776378Y1581394D02*
Y1618898D01*
X1137481Y1952756D02*
X1535434D01*
X838583Y1556932D02*
Y1653857D01*
X1137481Y1952756D01*
X1047244Y2224410D02*
Y2606299D01*
X1106299Y2665354D01*
Y2693409D01*
X1029280Y1048965D02*
X1065209D01*
X1066929Y1047244D01*
X131496Y1571063D02*
Y1623622D01*
X173228Y409449D02*
X322835D01*
X1503950Y2035445D02*
X1562994Y2094488D01*
X1677165D01*
X1503950Y2027571D02*
Y2035445D01*
X1677165Y2094488D02*
X1744094Y2027559D01*
Y1683507D02*
Y2027559D01*
X1436571Y1375984D02*
X1744094Y1683507D01*
X1435039Y1375984D02*
X1436571D01*
X1208661Y1090551D02*
X1236220D01*
X820378Y1538727D02*
X838583Y1556932D01*
X820378Y1430822D02*
Y1538727D01*
X783256Y1393701D02*
X820378Y1430822D01*
X549705Y254429D02*
X629921Y334646D01*
X549705Y183563D02*
Y254429D01*
X469488Y103347D02*
X549705Y183563D01*
X331553Y103347D02*
X469488D01*
X271654Y163246D02*
X331553Y103347D01*
X271654Y163246D02*
Y236220D01*
X120840Y387034D02*
X271654Y236220D01*
X120840Y387034D02*
Y415861D01*
X3937Y271654D02*
Y358268D01*
Y271654D02*
X66929Y208661D01*
X186024D01*
X929331Y3531299D02*
X1067323Y3393307D01*
X862402Y3531299D02*
X929331D01*
X838087Y2039370D02*
X863061Y2064344D01*
X838087Y2035433D02*
Y2039370D01*
X863061Y2064344D02*
Y2066073D01*
X763779Y2874016D02*
Y2905512D01*
X846457Y3153543D02*
X865158Y3172244D01*
X945866D01*
X921260Y3055118D02*
X921457Y3055315D01*
X921260Y2956693D02*
X921850Y2956102D01*
X980512D01*
X921457Y3055315D02*
X980905D01*
X547244Y2295276D02*
X549881Y2297912D01*
Y2309723D02*
X808071Y2567914D01*
X549881Y2297912D02*
Y2309723D01*
X962598Y3155512D02*
X981102D01*
X945866Y3172244D02*
X962598Y3155512D01*
X782284D02*
X822835Y3114961D01*
X782284Y3005512D02*
X822835Y3046063D01*
Y3114961D01*
X587110Y3327268D02*
Y3428638D01*
X527559Y3267716D02*
X587110Y3327268D01*
X425197Y3326772D02*
X574803Y3177165D01*
X586614Y1696850D02*
Y1754395D01*
X651117Y1818898D02*
X653543D01*
X586614Y1754395D02*
X651117Y1818898D01*
X653543D02*
X672740Y1838095D01*
X776378Y1581394D02*
X783465Y1574307D01*
X850890Y3338583D02*
Y3374720D01*
X866142Y3389972D01*
Y3393701D01*
X1160066Y3355682D02*
X1271653Y3244095D01*
X1160066Y3355682D02*
Y3421260D01*
X724409Y3669291D02*
X862402Y3531299D01*
X1510827Y2877953D02*
X1562992D01*
X1602375Y2594501D02*
Y3248043D01*
X1381398Y2373524D02*
X1602375Y2594501D01*
X1150102Y2492126D02*
Y2551181D01*
X808071Y2567914D02*
Y2581693D01*
X814961Y2588583D01*
X831693D02*
Y2632874D01*
X795276Y2669291D02*
X831693Y2632874D01*
X573819Y2669291D02*
X795276D01*
X814961Y2588583D02*
X831693D01*
X493110D02*
X573819Y2669291D01*
X729429Y2552264D02*
Y2628839D01*
X728346Y2629921D02*
X729429Y2628839D01*
Y2552264D02*
X730512Y2551181D01*
X1084842D02*
X1150102D01*
X924213D02*
X1001772D01*
X608858Y2095866D02*
Y2151968D01*
X239910Y2704972D02*
Y2798965D01*
Y2704972D02*
X240157Y2704724D01*
X239661Y2799213D02*
X239910Y2798965D01*
X496063Y2452756D02*
X571362D01*
X723819Y2547150D02*
Y2547244D01*
X633362Y2452756D02*
Y2456693D01*
X723819Y2547150D01*
Y2547244D02*
X727756Y2551181D01*
X730512D01*
X798229Y2506890D02*
X824803D01*
X444882Y1786704D02*
Y2153543D01*
X798229Y2506890D01*
X824803D02*
X831693Y2513780D01*
X585630Y2551181D02*
X647441D01*
X936323Y2755409D02*
X1106299D01*
X935827Y2755905D02*
X936323Y2755409D01*
X405016Y1905512D02*
Y1952260D01*
X277953Y1750591D02*
X408769D01*
X444882Y1786704D01*
X487205Y2507874D02*
X493110Y2513780D01*
X460630Y2507874D02*
X487205D01*
X54134Y2101378D02*
X460630Y2507874D01*
X54134Y1915354D02*
Y2101378D01*
X980905Y3055315D02*
X981102Y3055512D01*
X114173Y3326772D02*
X425197D01*
X60532Y1850492D02*
X60630Y1850591D01*
X0Y1850394D02*
X98Y1850492D01*
X60532D01*
X160433Y464567D02*
X186024D01*
X132874Y492126D02*
Y493110D01*
Y492126D02*
X160433Y464567D01*
X685039Y2905512D02*
Y2941441D01*
X687059Y3064909D02*
X688976Y3062992D01*
X761862Y3053595D02*
X763779Y3055512D01*
X980512Y2956102D02*
X981102Y2955512D01*
Y3155512D02*
X1053646D01*
X1055614Y3157480D01*
X1117614Y3007874D02*
Y3157480D01*
X1268701Y3011811D02*
X1307087D01*
X1117614Y3007874D02*
X1184055D01*
X1187992Y3011811D01*
X1053252Y3005512D02*
X1055614Y3007874D01*
X981102Y3005512D02*
X1053252D01*
X354827Y2704724D02*
X358764Y2708661D01*
X322835Y2704724D02*
X354827D01*
X763779Y3005512D02*
X782284D01*
X437008Y2818898D02*
X472937D01*
X755409Y2814961D02*
X872047D01*
X962598Y2905512D01*
X981102D01*
X667811Y2727362D02*
X755409Y2814961D01*
X653047Y2712598D02*
Y2716535D01*
X663874Y2727362D01*
X667811D01*
X535433Y2712598D02*
X591047D01*
X534937Y2818898D02*
X535185Y2818649D01*
Y2712846D02*
X535433Y2712598D01*
X535185Y2712846D02*
Y2818649D01*
X422732Y2710630D02*
X471465D01*
X473433Y2712598D01*
X420764Y2708661D02*
X422732Y2710630D01*
X420764Y2605803D02*
Y2708661D01*
X366142Y2559055D02*
X374016D01*
X420764Y2605803D01*
X763779Y2905512D02*
Y2955512D01*
X1535434Y1952756D02*
X1602375Y2019697D01*
X868799Y831988D02*
X870079Y830709D01*
X808661Y833268D02*
X809941Y831988D01*
X868799D01*
X1044780Y644197D02*
X1093016D01*
X1094488Y645669D01*
X1043307Y642724D02*
X1044780Y644197D01*
X796063Y2353150D02*
X897638Y2251575D01*
Y1968504D02*
Y2251575D01*
X657480Y2294779D02*
X657976Y2295276D01*
X753937D01*
X796063Y2253150D01*
X653543Y2294779D02*
X657480D01*
X637795Y1397638D02*
Y1425197D01*
X779528Y1393701D02*
X783256D01*
X1602375Y2019697D02*
Y2027571D01*
X608858Y1952756D02*
X691535Y2035433D01*
X608858Y1934646D02*
Y1952756D01*
X691535Y2035433D02*
X776087D01*
Y1971945D02*
Y2035433D01*
Y1971945D02*
X779528Y1968504D01*
X672740Y1838095D02*
Y1901437D01*
X665748Y1908429D02*
X672740Y1901437D01*
X21654Y1531496D02*
X59055D01*
Y1586614D01*
Y1483756D02*
Y1531496D01*
X314016Y1520630D02*
X348386D01*
X348819Y1521063D01*
X295276Y1539370D02*
X314016Y1520630D01*
X295276Y1539370D02*
Y1582677D01*
X341535Y1628937D01*
X480067Y1606051D02*
X480315Y1606299D01*
X480067Y1567177D02*
Y1606051D01*
X479819Y1566929D02*
X480067Y1567177D01*
X665748Y1908429D02*
Y1927756D01*
X658858Y1934646D02*
X665748Y1927756D01*
X658858Y2151968D02*
X708858D01*
X658858D02*
Y2231401D01*
X657480Y2232779D02*
X658858Y2231401D01*
X610236Y1866142D02*
X646165D01*
X492126Y2027559D02*
Y2063488D01*
X267716Y2086614D02*
X366155D01*
X259842Y1800591D02*
X277953D01*
X237205Y1823228D02*
X259842Y1800591D01*
X237205Y1823228D02*
Y1927167D01*
X267716Y1957679D01*
Y2086614D01*
X169304Y2078740D02*
Y2086614D01*
X134843Y1915354D02*
Y2044278D01*
X169304Y2078740D01*
X60630Y1750591D02*
Y1800591D01*
X405016Y1905512D02*
X405264Y1905264D01*
Y1838831D02*
Y1905264D01*
Y1838831D02*
X405512Y1838583D01*
X405264Y1795524D02*
Y1838335D01*
X405512Y1838583D01*
X405016Y1795276D02*
X405264Y1795524D01*
X277953Y1800591D02*
X337701D01*
X343016Y1795276D01*
X277953Y1700591D02*
Y1750591D01*
X1507874Y2875000D02*
X1510827Y2877953D01*
X1405525Y3248043D02*
X1503950D01*
Y3089554D02*
Y3248043D01*
Y3089554D02*
X1507874Y3085630D01*
X762935Y1523622D02*
X763423Y1523134D01*
X772638D02*
X783465Y1512307D01*
X763423Y1523134D02*
X772638D01*
X610732Y1523622D02*
X762935D01*
X543307Y1456197D02*
X610732Y1523622D01*
X539370Y1456197D02*
X543307D01*
X800145Y715055D02*
X810972Y704228D01*
X767913Y766972D02*
X800145Y734740D01*
X810972Y704228D02*
X811024D01*
X800145Y715055D02*
Y734740D01*
X767913Y766972D02*
Y810630D01*
X790551Y833268D01*
X808661D01*
X874016Y606299D02*
Y642724D01*
X808661Y933268D02*
X854134D01*
X954134Y833268D01*
X1025984D01*
X1027559Y1050685D02*
X1029280Y1048965D01*
X1043307Y704724D02*
X1091535D01*
X1095472Y700787D01*
X1131890Y741142D02*
Y787402D01*
X1095472Y704724D02*
X1131890Y741142D01*
Y787402D02*
Y841573D01*
X1115195Y858268D02*
X1131890Y841573D01*
X1114173Y858268D02*
X1115195D01*
X1050984Y872244D02*
X1064961Y858268D01*
X1025984Y883268D02*
X1044094D01*
X1064961Y858268D02*
X1114173D01*
X1050984Y872244D02*
Y876378D01*
X1044094Y883268D02*
X1050984Y876378D01*
X1143397Y947154D02*
X1201772Y888779D01*
X1143397Y947154D02*
Y959683D01*
X1126702Y976378D02*
X1143397Y959683D01*
X1201772Y888779D02*
X1208661D01*
X1114173Y976378D02*
X1126702D01*
X539122Y1508122D02*
X539370Y1508370D01*
X366929Y1471063D02*
X381795Y1456197D01*
X425197D01*
X348819Y1471063D02*
X366929D01*
X373819Y1411126D02*
X390748Y1394197D01*
X366929Y1421063D02*
X373819Y1414173D01*
X390748Y1394197D02*
X425197D01*
X373819Y1411126D02*
Y1414173D01*
X348819Y1421063D02*
X366929D01*
X425197Y1394197D02*
X539370D01*
X425197Y1456197D02*
X539370D01*
D27*
X474409Y1697835D02*
X497047Y1720472D01*
X442639Y1697835D02*
X474409D01*
X394410Y1649606D02*
X442639Y1697835D01*
X1546559Y417024D02*
X1551181Y412402D01*
X1449229Y417502D02*
X1449706Y417024D01*
X417571Y1567177D02*
Y1611025D01*
X417323Y1611273D02*
X417571Y1611025D01*
X329036Y1649606D02*
X394410D01*
X981102Y3205512D02*
X982677D01*
X984252Y3207087D02*
Y3255905D01*
X982677Y3205512D02*
X984252Y3207087D01*
X1206693Y761811D02*
X1257874D01*
X1259842Y763779D01*
Y412401D02*
X1261058Y413617D01*
X1259842Y285669D02*
X1273386Y299213D01*
X988942Y991373D02*
X1024871D01*
X1027559Y988685D01*
X988189Y992126D02*
X988942Y991373D01*
X631890Y240157D02*
X1124016D01*
X344094Y293309D02*
Y357088D01*
Y293309D02*
X365158Y272246D01*
Y208661D02*
Y272246D01*
Y378151D02*
Y464567D01*
X344094Y357088D02*
X365158Y378151D01*
X1206693Y812992D02*
X1257874D01*
X1259842Y814961D01*
X912890Y3388202D02*
X917323Y3392635D01*
Y3393701D01*
X912890Y3338583D02*
Y3388202D01*
X558957Y2152067D02*
Y2208563D01*
X559055Y2208661D01*
X88189Y3000000D02*
X174220D01*
X86614Y3001575D02*
X88189Y3000000D01*
X87795Y2800394D02*
X176480D01*
X177661Y2799213D01*
X86614Y2801575D02*
X87795Y2800394D01*
X366142Y125984D02*
Y207677D01*
X365158Y208661D02*
X366142Y207677D01*
X631890Y437008D02*
X1124016D01*
X588351Y464567D02*
X615910Y437008D01*
X631890D01*
X365158Y464567D02*
X588351D01*
X488189Y2125488D02*
X492126D01*
X522543Y2151968D02*
X558858D01*
X415654Y1569094D02*
X417571Y1567177D01*
X417819Y1566929D01*
X743598Y1826772D02*
X744095D01*
X708165Y1862205D02*
Y1866142D01*
Y1862205D02*
X743598Y1826772D01*
X200492Y1521063D02*
X329036Y1649606D01*
X708512Y1866488D02*
Y1934299D01*
X708858Y1934646D01*
X708165Y1866142D02*
X708512Y1866488D01*
X558858Y2151968D02*
X558957Y2152067D01*
X496063Y2125488D02*
X522543Y2151968D01*
X492126Y2125488D02*
X496063D01*
X342520Y1952756D02*
X342768Y1952508D01*
Y1905760D02*
X343016Y1905512D01*
X342768Y1905760D02*
Y1952508D01*
X337110Y1891638D02*
Y1899606D01*
X277953Y1850591D02*
X296063D01*
X337110Y1891638D01*
Y1899606D02*
X343016Y1905512D01*
X874016Y704724D02*
X917323D01*
X846260Y763779D02*
X862205D01*
X808661Y783268D02*
X826772D01*
X846260Y763779D01*
X874016Y704724D02*
Y751968D01*
X862205Y763779D02*
X874016Y751968D01*
X1025984Y933268D02*
X1027559Y934843D01*
Y988685D01*
X1208661Y969488D02*
Y1027559D01*
X1169291D02*
Y1090551D01*
X1167323Y1178543D02*
X1169291Y1176575D01*
Y1090551D02*
Y1176575D01*
X60531Y1700689D02*
X60630Y1700591D01*
X98Y1700689D02*
X60531D01*
X0Y1700787D02*
X98Y1700689D01*
X59055Y1648614D02*
Y1699016D01*
X60630Y1700591D01*
X59055Y1385827D02*
Y1421756D01*
X59401Y1421409D01*
X131150D02*
X131496Y1421063D01*
X59401Y1421409D02*
X131150D01*
X665354Y1709646D02*
X676181Y1720472D01*
X665354Y1563976D02*
Y1709646D01*
X131496Y1521063D02*
X200492D01*
X131496Y1471063D02*
Y1521063D01*
X348819Y1571063D02*
X350787Y1569094D01*
X415654D01*
X539370Y1570370D02*
X658961D01*
X665354Y1563976D01*
D28*
X1449706Y417024D02*
X1546559D01*
X606299Y662795D02*
Y1137795D01*
X675197Y1427165D02*
X708661Y1393701D01*
X604331Y660827D02*
X606299Y662795D01*
Y1137795D02*
X708661Y1240158D01*
Y1393701D01*
X1167323Y1178543D02*
Y1817520D01*
X1253937Y499016D02*
X1256890Y496063D01*
X1253937Y499016D02*
Y575788D01*
X1250984Y578740D02*
X1253937Y575788D01*
X1256890Y496063D02*
X1259842D01*
X1331693Y578740D02*
X1442913D01*
X1619094Y819882D02*
X1625984Y826772D01*
X1612205Y578740D02*
X1619094Y585630D01*
Y819882D01*
X675197Y1447608D02*
X675197Y1447608D01*
X675197Y1447608D02*
Y1480315D01*
X665354Y1483268D02*
X672244D01*
X675197Y1480315D01*
X675197Y1427165D02*
Y1447608D01*
D29*
X366142Y2559055D02*
D03*
X169291D02*
D03*
D30*
X106299Y2322846D02*
D03*
X429134D02*
D03*
X472454Y3543319D02*
D03*
X63005D02*
D03*
X1708674D02*
D03*
X1299225D02*
D03*
Y2322846D02*
D03*
X1708674D02*
D03*
D31*
X366155Y2086614D02*
D03*
X267716D02*
D03*
X267729Y3248043D02*
D03*
X366155D02*
D03*
X1503950D02*
D03*
X1602375D02*
D03*
Y2027571D02*
D03*
X1503950D02*
D03*
D32*
X169304Y2086614D02*
D03*
Y3248043D02*
D03*
X1405525D02*
D03*
Y2027571D02*
D03*
D33*
X631890Y437008D02*
D03*
Y240157D02*
D03*
X1124016D02*
D03*
Y437008D02*
D03*
D34*
X796063Y2253150D02*
D03*
Y2353150D02*
D03*
X1196063Y2378150D02*
D03*
Y2228150D02*
D03*
D35*
X935827Y2755905D02*
D03*
D36*
X835827D02*
D03*
D37*
X1167323Y1178543D02*
D03*
X1667323D02*
D03*
X1417323D02*
D03*
Y1817520D02*
D03*
X1167323D02*
D03*
X604331Y1299803D02*
D03*
X104331D02*
D03*
X354331D02*
D03*
Y660827D02*
D03*
X604331D02*
D03*
D38*
X1667323Y1817520D02*
D03*
X104331Y660827D02*
D03*
D39*
X1637795Y1665354D02*
D03*
Y1330709D02*
D03*
X133858Y812992D02*
D03*
Y1147638D02*
D03*
D40*
X1389764Y826772D02*
D03*
D41*
X1507874Y1011811D02*
D03*
D42*
X1625984Y826772D02*
D03*
D43*
X86614Y2801575D02*
D03*
Y2901575D02*
D03*
D44*
Y3001575D02*
D03*
D45*
X1535433Y2440945D02*
D03*
X1614173Y2283464D02*
D03*
X984252Y708661D02*
D03*
X275590Y3070866D02*
D03*
X1220472Y1496063D02*
D03*
X1692913Y2125984D02*
D03*
X748031Y551181D02*
D03*
X118110Y866141D02*
D03*
X1456693Y1653543D02*
D03*
X1692913Y3070866D02*
D03*
X1264112Y673561D02*
D03*
X1535433Y2125984D02*
D03*
X1377952Y1496063D02*
D03*
X1456693Y1338582D02*
D03*
X1062992Y1811023D02*
D03*
X590551Y2755905D02*
D03*
X1692913Y1496063D02*
D03*
X984252Y2598425D02*
D03*
X1220472Y2440945D02*
D03*
X354330Y3543307D02*
D03*
X826771Y78740D02*
D03*
X196850Y2913385D02*
D03*
Y1023622D02*
D03*
X984252Y393701D02*
D03*
X826771D02*
D03*
X118110Y2440945D02*
D03*
X39370Y1023622D02*
D03*
X1141732Y2283464D02*
D03*
X1456693Y3543307D02*
D03*
X118110Y3070866D02*
D03*
X1456693Y2283464D02*
D03*
X1535433Y2755905D02*
D03*
X1141732Y2598425D02*
D03*
X196850Y708661D02*
D03*
X1141732Y78740D02*
D03*
X1062992Y2125984D02*
D03*
X433071Y866141D02*
D03*
X1377952Y2440945D02*
D03*
X433071Y3070866D02*
D03*
Y551181D02*
D03*
X511811Y78740D02*
D03*
X1456693D02*
D03*
X275590Y2755905D02*
D03*
X984252Y78740D02*
D03*
X1141732Y3543307D02*
D03*
X196850Y2283464D02*
D03*
X275590Y1496063D02*
D03*
X1535433Y1181102D02*
D03*
X511811Y2283464D02*
D03*
X1220472Y3385826D02*
D03*
X1062992Y551181D02*
D03*
X905511Y2440945D02*
D03*
X748031Y2125984D02*
D03*
X118110Y2755905D02*
D03*
X1456693Y708661D02*
D03*
X669291Y78740D02*
D03*
X1692913Y3385826D02*
D03*
X433071Y1181102D02*
D03*
X1614173Y3543307D02*
D03*
X1692913Y2755905D02*
D03*
X669291Y3228346D02*
D03*
X590551Y551181D02*
D03*
X275590Y1181102D02*
D03*
X1692913Y2440945D02*
D03*
X1614173Y1023622D02*
D03*
X1535433Y3385826D02*
D03*
X1692913Y866141D02*
D03*
X1141732Y2913385D02*
D03*
X1062992Y1181102D02*
D03*
X511811Y2913385D02*
D03*
X433071Y2755905D02*
D03*
X196850Y3543307D02*
D03*
X1377952Y3070866D02*
D03*
X1535433Y866141D02*
D03*
X275590D02*
D03*
X826771Y1338582D02*
D03*
X1299212Y1023622D02*
D03*
X275590Y2440945D02*
D03*
Y551181D02*
D03*
X622047Y2629921D02*
D03*
X1082181Y3113677D02*
D03*
X1763780Y582677D02*
D03*
X1449229Y417502D02*
D03*
X1531496Y259842D02*
D03*
X1264764Y235236D02*
D03*
X1429134Y169291D02*
D03*
X1547244Y94488D02*
D03*
X1200787Y700787D02*
D03*
X973493Y781104D02*
D03*
X-1968Y1913740D02*
D03*
X417323Y1611273D02*
D03*
X506813Y1507874D02*
D03*
X984252Y3255905D02*
D03*
X594488Y1397638D02*
D03*
X773622Y1051181D02*
D03*
X1259842Y763779D02*
D03*
X949016Y1625000D02*
D03*
X681102Y3125984D02*
D03*
X1259842Y90551D02*
D03*
X736221Y842520D02*
D03*
X1259842Y1295276D02*
D03*
X1283465Y1736220D02*
D03*
X1192913Y2078740D02*
D03*
X807149Y1617654D02*
D03*
X980056Y1854590D02*
D03*
X850394Y1878449D02*
D03*
X988189Y992126D02*
D03*
X1066929Y1047244D02*
D03*
X645669Y3287402D02*
D03*
X131496Y1623622D02*
D03*
X173228Y409449D02*
D03*
X371654Y304724D02*
D03*
X271654Y303150D02*
D03*
X421654Y414370D02*
D03*
X322835Y409449D02*
D03*
X1435039Y1375984D02*
D03*
X1236220Y1090551D02*
D03*
X843016Y1460134D02*
D03*
X629921Y334646D02*
D03*
X120840Y415861D02*
D03*
X127457Y85142D02*
D03*
X987693Y134354D02*
D03*
X948819Y330709D02*
D03*
X-3937Y503937D02*
D03*
X3937Y358268D02*
D03*
X77165Y253543D02*
D03*
X200787Y976378D02*
D03*
X476378Y1098425D02*
D03*
X677165Y830709D02*
D03*
X1067323Y3393307D02*
D03*
X863061Y2066073D02*
D03*
X763779Y2874016D02*
D03*
X846457Y3153543D02*
D03*
X921260Y3055118D02*
D03*
Y2956693D02*
D03*
X547244Y2295276D02*
D03*
X1259842Y814961D02*
D03*
X925197Y3149606D02*
D03*
X587110Y3428638D02*
D03*
X527559Y3267716D02*
D03*
X574803Y3177165D02*
D03*
X575299Y1775094D02*
D03*
X694528Y1603720D02*
D03*
X1160066Y3421260D02*
D03*
X1271653Y3244095D02*
D03*
X1633858Y2472441D02*
D03*
X1680606Y2862701D02*
D03*
X724409Y3669291D02*
D03*
X866142Y3393701D02*
D03*
X917323D02*
D03*
X925197Y3669291D02*
D03*
X830709Y3657480D02*
D03*
X1413386Y2712598D02*
D03*
X1562992Y2877953D02*
D03*
X559055Y2208661D02*
D03*
X608858Y2095866D02*
D03*
X240157Y2704724D02*
D03*
X496063Y2452756D02*
D03*
X405016Y1952260D02*
D03*
X630417Y3003441D02*
D03*
X0Y1850394D02*
D03*
X685039Y2905512D02*
D03*
X1307087Y3011811D02*
D03*
X322835Y2704724D02*
D03*
X437008Y2818898D02*
D03*
X870079Y830709D02*
D03*
X1094488Y645669D02*
D03*
X366142Y125984D02*
D03*
X637795Y1397638D02*
D03*
X779528Y1393701D02*
D03*
X653543Y1818898D02*
D03*
X342520Y1952756D02*
D03*
X744095Y1826772D02*
D03*
X21654Y1531496D02*
D03*
X480315Y1606299D02*
D03*
X610236Y1866142D02*
D03*
X492126Y2027559D02*
D03*
X874016Y606299D02*
D03*
X917323Y704724D02*
D03*
X0Y1700787D02*
D03*
X59055Y1385827D02*
D03*
%TF.MD5,ae5bec7aa3d57cc5ceef1a3f82355772*%
M02*
