%TF.GenerationSoftware,Altium Limited,Altium Designer,23.1.1 (15)*%
G04 Layer_Color=128*
%FSLAX26Y26*%
%MOIN*%
%TF.SameCoordinates,CF7A6AEE-9E07-4C1C-9DF4-B320C76D0393*%
%TF.FilePolarity,Positive*%
%TF.FileFunction,Drillmap*%
%TF.Part,Single*%
G01*
G75*
%TA.AperFunction,NonConductor*%
%ADD123C,0.005000*%
D123*
X344488Y2559055D02*
X387795D01*
X366142Y2537402D02*
Y2580709D01*
X147638Y2559055D02*
X190945D01*
X169291Y2537402D02*
Y2580709D01*
X80709Y2322846D02*
X131890D01*
X106299Y2297256D02*
Y2348437D01*
X344501Y2086614D02*
X387808D01*
X366155Y2064961D02*
Y2108268D01*
X246063Y2086614D02*
X289370D01*
X267716Y2064961D02*
Y2108268D01*
X147651Y2086614D02*
X190958D01*
X169304Y2064961D02*
Y2108268D01*
X403543Y2322846D02*
X454724D01*
X429134Y2297256D02*
Y2348437D01*
X446863Y3543319D02*
X498044D01*
X472454Y3517728D02*
Y3568909D01*
X147651Y3248043D02*
X190958D01*
X169304Y3226390D02*
Y3269697D01*
X246076Y3248043D02*
X289383D01*
X267729Y3226390D02*
Y3269697D01*
X344501Y3248043D02*
X387808D01*
X366155Y3226390D02*
Y3269697D01*
X37414Y3543319D02*
X88595D01*
X63005Y3517728D02*
Y3568909D01*
X1683084Y3543319D02*
X1734265D01*
X1708674Y3517728D02*
Y3568909D01*
X1383871Y3248043D02*
X1427178D01*
X1405525Y3226390D02*
Y3269697D01*
X1482296Y3248043D02*
X1525603D01*
X1503950Y3226390D02*
Y3269697D01*
X1580722Y3248043D02*
X1624029D01*
X1602375Y3226390D02*
Y3269697D01*
X1273635Y3543319D02*
X1324816D01*
X1299225Y3517728D02*
Y3568909D01*
X1273635Y2322846D02*
X1324816D01*
X1299225Y2297256D02*
Y2348437D01*
X1580722Y2027571D02*
X1624029D01*
X1602375Y2005917D02*
Y2049224D01*
X1482296Y2027571D02*
X1525603D01*
X1503950Y2005917D02*
Y2049224D01*
X1383871Y2027571D02*
X1427178D01*
X1405525Y2005917D02*
Y2049224D01*
X1683084Y2322846D02*
X1734265D01*
X1708674Y2297256D02*
Y2348437D01*
X608268Y437008D02*
X655512D01*
X631890Y413386D02*
Y460630D01*
X608268Y240157D02*
X655512D01*
X631890Y216536D02*
Y263779D01*
X1100394Y240157D02*
X1147638D01*
X1124016Y216536D02*
Y263779D01*
X1100394Y437008D02*
X1147638D01*
X1124016Y413386D02*
Y460630D01*
X844488Y515748D02*
X911417D01*
X877953Y482284D02*
Y549213D01*
X844488Y161417D02*
X911417D01*
X877953Y127953D02*
Y194882D01*
X780063Y2253150D02*
X812063D01*
X796063Y2237150D02*
Y2269150D01*
X780063Y2353150D02*
X812063D01*
X796063Y2337150D02*
Y2369150D01*
X1180063Y2378150D02*
X1212063D01*
X1196063Y2362150D02*
Y2394150D01*
X1180063Y2228150D02*
X1212063D01*
X1196063Y2212150D02*
Y2244150D01*
X918327Y2755905D02*
X953327D01*
X935827Y2738405D02*
Y2773405D01*
X818327Y2755905D02*
X853327D01*
X835827Y2738405D02*
Y2773405D01*
X1137795Y1178543D02*
X1196851D01*
X1167323Y1149016D02*
Y1208071D01*
X1637795Y1178543D02*
X1696851D01*
X1667323Y1149016D02*
Y1208071D01*
X1387795Y1178543D02*
X1446851D01*
X1417323Y1149016D02*
Y1208071D01*
X1387795Y1817520D02*
X1446851D01*
X1417323Y1787992D02*
Y1847047D01*
X1637795Y1817520D02*
X1696851D01*
X1667323Y1787992D02*
Y1847047D01*
X1137795Y1817520D02*
X1196851D01*
X1167323Y1787992D02*
Y1847047D01*
X1627953Y1665354D02*
X1647638D01*
X1637795Y1655512D02*
Y1675197D01*
X1627953Y1330709D02*
X1647638D01*
X1637795Y1320866D02*
Y1340551D01*
X574803Y1299803D02*
X633858D01*
X604331Y1270276D02*
Y1329331D01*
X74803Y1299803D02*
X133858D01*
X104331Y1270276D02*
Y1329331D01*
X324803Y1299803D02*
X383858D01*
X354331Y1270276D02*
Y1329331D01*
X324803Y660827D02*
X383858D01*
X354331Y631299D02*
Y690354D01*
X74803Y660827D02*
X133858D01*
X104331Y631299D02*
Y690354D01*
X574803Y660827D02*
X633858D01*
X604331Y631299D02*
Y690354D01*
X124016Y812992D02*
X143701D01*
X133858Y803150D02*
Y822835D01*
X124016Y1147638D02*
X143701D01*
X133858Y1137795D02*
Y1157480D01*
X1370079Y826772D02*
X1409449D01*
X1389764Y807087D02*
Y846457D01*
X1488189Y1011811D02*
X1527559D01*
X1507874Y992126D02*
Y1031496D01*
X1606299Y826772D02*
X1645669D01*
X1625984Y807087D02*
Y846457D01*
X70614Y2801575D02*
X102614D01*
X86614Y2785575D02*
Y2817575D01*
X70614Y2901575D02*
X102614D01*
X86614Y2885575D02*
Y2917575D01*
X70614Y3001575D02*
X102614D01*
X86614Y2985575D02*
Y3017575D01*
X1529527Y2440945D02*
X1541338D01*
X1535433Y2435039D02*
Y2446850D01*
X1608267Y2283464D02*
X1620078D01*
X1614173Y2277559D02*
Y2289370D01*
X978346Y708661D02*
X990157D01*
X984252Y702756D02*
Y714567D01*
X269685Y3070866D02*
X281496D01*
X275590Y3064960D02*
Y3076771D01*
X1214567Y1496063D02*
X1226378D01*
X1220472Y1490157D02*
Y1501968D01*
X1687007Y2125984D02*
X1698819D01*
X1692913Y2120078D02*
Y2131889D01*
X742126Y551181D02*
X753937D01*
X748031Y545275D02*
Y557086D01*
X112204Y866141D02*
X124016D01*
X118110Y860236D02*
Y872047D01*
X1450787Y1653543D02*
X1462598D01*
X1456693Y1647638D02*
Y1659448D01*
X1687007Y3070866D02*
X1698819D01*
X1692913Y3064960D02*
Y3076771D01*
X1258207Y673561D02*
X1270018D01*
X1264112Y667656D02*
Y679467D01*
X1529527Y2125984D02*
X1541338D01*
X1535433Y2120078D02*
Y2131889D01*
X1372047Y1496063D02*
X1383858D01*
X1377952Y1490157D02*
Y1501968D01*
X1450787Y1338582D02*
X1462598D01*
X1456693Y1332677D02*
Y1344488D01*
X1057086Y1811023D02*
X1068897D01*
X1062992Y1805118D02*
Y1816929D01*
X584645Y2755905D02*
X596456D01*
X590551Y2750000D02*
Y2761811D01*
X1687007Y1496063D02*
X1698819D01*
X1692913Y1490157D02*
Y1501968D01*
X978346Y2598425D02*
X990157D01*
X984252Y2592519D02*
Y2604330D01*
X1214567Y2440945D02*
X1226378D01*
X1220472Y2435039D02*
Y2446850D01*
X348425Y3543307D02*
X360236D01*
X354330Y3537401D02*
Y3549212D01*
X820866Y78740D02*
X832677D01*
X826771Y72835D02*
Y84645D01*
X190945Y2913385D02*
X202756D01*
X196850Y2907480D02*
Y2919291D01*
X190945Y1023622D02*
X202756D01*
X196850Y1017716D02*
Y1029527D01*
X978346Y393701D02*
X990157D01*
X984252Y387795D02*
Y399606D01*
X820866Y393701D02*
X832677D01*
X826771Y387795D02*
Y399606D01*
X112204Y2440945D02*
X124016D01*
X118110Y2435039D02*
Y2446850D01*
X33464Y1023622D02*
X45275D01*
X39370Y1017716D02*
Y1029527D01*
X1135826Y2283464D02*
X1147638D01*
X1141732Y2277559D02*
Y2289370D01*
X1450787Y3543307D02*
X1462598D01*
X1456693Y3537401D02*
Y3549212D01*
X112204Y3070866D02*
X124016D01*
X118110Y3064960D02*
Y3076771D01*
X1450787Y2283464D02*
X1462598D01*
X1456693Y2277559D02*
Y2289370D01*
X1529527Y2755905D02*
X1541338D01*
X1535433Y2750000D02*
Y2761811D01*
X1135826Y2598425D02*
X1147638D01*
X1141732Y2592519D02*
Y2604330D01*
X190945Y708661D02*
X202756D01*
X196850Y702756D02*
Y714567D01*
X1135826Y78740D02*
X1147638D01*
X1141732Y72835D02*
Y84645D01*
X1057086Y2125984D02*
X1068897D01*
X1062992Y2120078D02*
Y2131889D01*
X427165Y866141D02*
X438976D01*
X433071Y860236D02*
Y872047D01*
X1372047Y2440945D02*
X1383858D01*
X1377952Y2435039D02*
Y2446850D01*
X427165Y3070866D02*
X438976D01*
X433071Y3064960D02*
Y3076771D01*
X427165Y551181D02*
X438976D01*
X433071Y545275D02*
Y557086D01*
X505905Y78740D02*
X517716D01*
X511811Y72835D02*
Y84645D01*
X1450787Y78740D02*
X1462598D01*
X1456693Y72835D02*
Y84645D01*
X269685Y2755905D02*
X281496D01*
X275590Y2750000D02*
Y2761811D01*
X978346Y78740D02*
X990157D01*
X984252Y72835D02*
Y84645D01*
X1135826Y3543307D02*
X1147638D01*
X1141732Y3537401D02*
Y3549212D01*
X190945Y2283464D02*
X202756D01*
X196850Y2277559D02*
Y2289370D01*
X269685Y1496063D02*
X281496D01*
X275590Y1490157D02*
Y1501968D01*
X1529527Y1181102D02*
X1541338D01*
X1535433Y1175197D02*
Y1187008D01*
X505905Y2283464D02*
X517716D01*
X511811Y2277559D02*
Y2289370D01*
X1214567Y3385826D02*
X1226378D01*
X1220472Y3379921D02*
Y3391732D01*
X1057086Y551181D02*
X1068897D01*
X1062992Y545275D02*
Y557086D01*
X899606Y2440945D02*
X911417D01*
X905511Y2435039D02*
Y2446850D01*
X742126Y2125984D02*
X753937D01*
X748031Y2120078D02*
Y2131889D01*
X112204Y2755905D02*
X124016D01*
X118110Y2750000D02*
Y2761811D01*
X1450787Y708661D02*
X1462598D01*
X1456693Y702756D02*
Y714567D01*
X663386Y78740D02*
X675197D01*
X669291Y72835D02*
Y84645D01*
X1687007Y3385826D02*
X1698819D01*
X1692913Y3379921D02*
Y3391732D01*
X427165Y1181102D02*
X438976D01*
X433071Y1175197D02*
Y1187008D01*
X1608267Y3543307D02*
X1620078D01*
X1614173Y3537401D02*
Y3549212D01*
X1687007Y2755905D02*
X1698819D01*
X1692913Y2750000D02*
Y2761811D01*
X663386Y3228346D02*
X675197D01*
X669291Y3222441D02*
Y3234251D01*
X584645Y551181D02*
X596456D01*
X590551Y545275D02*
Y557086D01*
X269685Y1181102D02*
X281496D01*
X275590Y1175197D02*
Y1187008D01*
X1687007Y2440945D02*
X1698819D01*
X1692913Y2435039D02*
Y2446850D01*
X1608267Y1023622D02*
X1620078D01*
X1614173Y1017716D02*
Y1029527D01*
X1529527Y3385826D02*
X1541338D01*
X1535433Y3379921D02*
Y3391732D01*
X1687007Y866141D02*
X1698819D01*
X1692913Y860236D02*
Y872047D01*
X1135826Y2913385D02*
X1147638D01*
X1141732Y2907480D02*
Y2919291D01*
X1057086Y1181102D02*
X1068897D01*
X1062992Y1175197D02*
Y1187008D01*
X505905Y2913385D02*
X517716D01*
X511811Y2907480D02*
Y2919291D01*
X427165Y2755905D02*
X438976D01*
X433071Y2750000D02*
Y2761811D01*
X190945Y3543307D02*
X202756D01*
X196850Y3537401D02*
Y3549212D01*
X1372047Y3070866D02*
X1383858D01*
X1377952Y3064960D02*
Y3076771D01*
X1529527Y866141D02*
X1541338D01*
X1535433Y860236D02*
Y872047D01*
X269685Y866141D02*
X281496D01*
X275590Y860236D02*
Y872047D01*
X820866Y1338582D02*
X832677D01*
X826771Y1332677D02*
Y1344488D01*
X1293307Y1023622D02*
X1305118D01*
X1299212Y1017716D02*
Y1029527D01*
X269685Y2440945D02*
X281496D01*
X275590Y2435039D02*
Y2446850D01*
X269685Y551181D02*
X281496D01*
X275590Y545275D02*
Y557086D01*
X616142Y2629921D02*
X627953D01*
X622047Y2624016D02*
Y2635827D01*
X1076276Y3113677D02*
X1088087D01*
X1082181Y3107772D02*
Y3119583D01*
X1757874Y582677D02*
X1769685D01*
X1763780Y576772D02*
Y588583D01*
X1443323Y417502D02*
X1455134D01*
X1449229Y411596D02*
Y423407D01*
X1525591Y259842D02*
X1537402D01*
X1531496Y253937D02*
Y265748D01*
X1258858Y235236D02*
X1270669D01*
X1264764Y229331D02*
Y241142D01*
X1423228Y169291D02*
X1435039D01*
X1429134Y163386D02*
Y175197D01*
X1541339Y94488D02*
X1553150D01*
X1547244Y88583D02*
Y100394D01*
X1194882Y700787D02*
X1206693D01*
X1200787Y694882D02*
Y706693D01*
X967587Y781104D02*
X979398D01*
X973493Y775198D02*
Y787010D01*
X-7874Y1913740D02*
X3937D01*
X-1968Y1907835D02*
Y1919646D01*
X411417Y1611273D02*
X423228D01*
X417323Y1605368D02*
Y1617179D01*
X500907Y1507874D02*
X512718D01*
X506813Y1501968D02*
Y1513780D01*
X978346Y3255905D02*
X990158D01*
X984252Y3250000D02*
Y3261811D01*
X588583Y1397638D02*
X600394D01*
X594488Y1391732D02*
Y1403543D01*
X767717Y1051181D02*
X779528D01*
X773622Y1045276D02*
Y1057087D01*
X1253937Y763779D02*
X1265748D01*
X1259842Y757874D02*
Y769685D01*
X943110Y1625000D02*
X954921D01*
X949016Y1619094D02*
Y1630906D01*
X675197Y3125984D02*
X687008D01*
X681102Y3120079D02*
Y3131890D01*
X1253937Y90551D02*
X1265748D01*
X1259842Y84646D02*
Y96457D01*
X730315Y842520D02*
X742126D01*
X736221Y836614D02*
Y848425D01*
X1253937Y1295276D02*
X1265748D01*
X1259842Y1289370D02*
Y1301181D01*
X1277559Y1736220D02*
X1289370D01*
X1283465Y1730315D02*
Y1742126D01*
X1187008Y2078740D02*
X1198819D01*
X1192913Y2072835D02*
Y2084646D01*
X801244Y1617654D02*
X813054D01*
X807149Y1611749D02*
Y1623560D01*
X974150Y1854590D02*
X985961D01*
X980056Y1848684D02*
Y1860495D01*
X844488Y1878449D02*
X856299D01*
X850394Y1872543D02*
Y1884354D01*
X982284Y992126D02*
X994095D01*
X988189Y986221D02*
Y998032D01*
X1061024Y1047244D02*
X1072835D01*
X1066929Y1041339D02*
Y1053150D01*
X639764Y3287402D02*
X651575D01*
X645669Y3281496D02*
Y3293307D01*
X125591Y1623622D02*
X137402D01*
X131496Y1617717D02*
Y1629528D01*
X167323Y409449D02*
X179134D01*
X173228Y403543D02*
Y415354D01*
X365748Y304724D02*
X377559D01*
X371654Y298819D02*
Y310630D01*
X265748Y303150D02*
X277559D01*
X271654Y297244D02*
Y309055D01*
X415748Y414370D02*
X427559D01*
X421654Y408465D02*
Y420276D01*
X316929Y409449D02*
X328740D01*
X322835Y403543D02*
Y415354D01*
X1429134Y1375984D02*
X1440945D01*
X1435039Y1370079D02*
Y1381890D01*
X1230315Y1090551D02*
X1242126D01*
X1236220Y1084646D02*
Y1096457D01*
X837110Y1460134D02*
X848921D01*
X843016Y1454228D02*
Y1466039D01*
X624016Y334646D02*
X635827D01*
X629921Y328740D02*
Y340551D01*
X114934Y415861D02*
X126746D01*
X120840Y409955D02*
Y421766D01*
X121551Y85142D02*
X133362D01*
X127457Y79236D02*
Y91047D01*
X981788Y134354D02*
X993598D01*
X987693Y128449D02*
Y140260D01*
X942913Y330709D02*
X954724D01*
X948819Y324803D02*
Y336614D01*
X-9842Y503937D02*
X1969D01*
X-3937Y498031D02*
Y509842D01*
X-1968Y358268D02*
X9842D01*
X3937Y352362D02*
Y364173D01*
X71260Y253543D02*
X83071D01*
X77165Y247638D02*
Y259449D01*
X194882Y976378D02*
X206693D01*
X200787Y970472D02*
Y982284D01*
X470473Y1098425D02*
X482284D01*
X476378Y1092520D02*
Y1104331D01*
X671260Y830709D02*
X683071D01*
X677165Y824803D02*
Y836614D01*
X1061417Y3393307D02*
X1073228D01*
X1067323Y3387402D02*
Y3399213D01*
X857156Y2066073D02*
X868967D01*
X863061Y2060167D02*
Y2071978D01*
X757874Y2874016D02*
X769685D01*
X763779Y2868110D02*
Y2879921D01*
X840551Y3153543D02*
X852362D01*
X846457Y3147638D02*
Y3159449D01*
X915354Y3055118D02*
X927165D01*
X921260Y3049213D02*
Y3061024D01*
X915354Y2956693D02*
X927165D01*
X921260Y2950787D02*
Y2962598D01*
X541339Y2295276D02*
X553150D01*
X547244Y2289370D02*
Y2301181D01*
X1253937Y814961D02*
X1265748D01*
X1259842Y809055D02*
Y820866D01*
X919291Y3149606D02*
X931102D01*
X925197Y3143701D02*
Y3155512D01*
X581205Y3428638D02*
X593016D01*
X587110Y3422732D02*
Y3434543D01*
X521654Y3267716D02*
X533465D01*
X527559Y3261811D02*
Y3273622D01*
X568898Y3177165D02*
X580709D01*
X574803Y3171260D02*
Y3183071D01*
X569394Y1775094D02*
X581205D01*
X575299Y1769189D02*
Y1781000D01*
X688622Y1603720D02*
X700433D01*
X694528Y1597815D02*
Y1609626D01*
X1154161Y3421260D02*
X1165972D01*
X1160066Y3415354D02*
Y3427165D01*
X1265748Y3244095D02*
X1277559D01*
X1271653Y3238189D02*
Y3250000D01*
X1627953Y2472441D02*
X1639764D01*
X1633858Y2466535D02*
Y2478346D01*
X1674701Y2862701D02*
X1686512D01*
X1680606Y2856795D02*
Y2868606D01*
X718504Y3669291D02*
X730315D01*
X724409Y3663386D02*
Y3675197D01*
X860236Y3393701D02*
X872047D01*
X866142Y3387795D02*
Y3399606D01*
X911417Y3393701D02*
X923228D01*
X917323Y3387795D02*
Y3399606D01*
X919291Y3669291D02*
X931102D01*
X925197Y3663386D02*
Y3675197D01*
X824803Y3657480D02*
X836614D01*
X830709Y3651575D02*
Y3663386D01*
X1407480Y2712598D02*
X1419291D01*
X1413386Y2706693D02*
Y2718504D01*
X1557087Y2877953D02*
X1568898D01*
X1562992Y2872047D02*
Y2883858D01*
X553150Y2208661D02*
X564961D01*
X559055Y2202756D02*
Y2214567D01*
X602953Y2095866D02*
X614764D01*
X608858Y2089961D02*
Y2101772D01*
X234252Y2704724D02*
X246063D01*
X240157Y2698819D02*
Y2710630D01*
X490158Y2452756D02*
X501969D01*
X496063Y2446850D02*
Y2458661D01*
X399110Y1952260D02*
X410921D01*
X405016Y1946354D02*
Y1958165D01*
X624512Y3003441D02*
X636323D01*
X630417Y2997535D02*
Y3009346D01*
X-5906Y1850394D02*
X5906D01*
X0Y1844488D02*
Y1856299D01*
X679134Y2905512D02*
X690945D01*
X685039Y2899606D02*
Y2911417D01*
X1301181Y3011811D02*
X1312992D01*
X1307087Y3005905D02*
Y3017716D01*
X316929Y2704724D02*
X328740D01*
X322835Y2698819D02*
Y2710630D01*
X431102Y2818898D02*
X442913D01*
X437008Y2812992D02*
Y2824803D01*
X864173Y830709D02*
X875984D01*
X870079Y824803D02*
Y836614D01*
X1088583Y645669D02*
X1100394D01*
X1094488Y639764D02*
Y651575D01*
X360236Y125984D02*
X372047D01*
X366142Y120079D02*
Y131890D01*
X631890Y1397638D02*
X643701D01*
X637795Y1391732D02*
Y1403543D01*
X773622Y1393701D02*
X785433D01*
X779528Y1387795D02*
Y1399606D01*
X647638Y1818898D02*
X659449D01*
X653543Y1812992D02*
Y1824803D01*
X336614Y1952756D02*
X348425D01*
X342520Y1946850D02*
Y1958661D01*
X738189Y1826772D02*
X750000D01*
X744095Y1820866D02*
Y1832677D01*
X15748Y1531496D02*
X27559D01*
X21654Y1525591D02*
Y1537402D01*
X474409Y1606299D02*
X486221D01*
X480315Y1600394D02*
Y1612205D01*
X604331Y1866142D02*
X616142D01*
X610236Y1860236D02*
Y1872047D01*
X486221Y2027559D02*
X498031D01*
X492126Y2021654D02*
Y2033465D01*
X868110Y606299D02*
X879921D01*
X874016Y600394D02*
Y612205D01*
X911417Y704724D02*
X923228D01*
X917323Y698819D02*
Y710630D01*
X-5906Y1700787D02*
X5906D01*
X0Y1694882D02*
Y1706693D01*
X53150Y1385827D02*
X64961D01*
X59055Y1379921D02*
Y1391732D01*
%TF.MD5,df46b91b44b8324605fe28fde78ff9d5*%
M02*
