%TF.GenerationSoftware,Altium Limited,Altium Designer,23.4.1 (23)*%
G04 Layer_Color=32896*
%FSLAX26Y26*%
%MOIN*%
%TF.SameCoordinates,0B69EAEB-4B52-49E6-8846-B3B3CADC8916*%
%TF.FilePolarity,Positive*%
%TF.FileFunction,Legend,Bot*%
%TF.Part,Single*%
G01*
G75*
%TA.AperFunction,NonConductor*%
%ADD56C,0.023622*%
%ADD57C,0.009842*%
%ADD58C,0.003937*%
%ADD59C,0.000000*%
%ADD60C,0.010000*%
%ADD61C,0.007874*%
%ADD62C,0.015748*%
%ADD63C,0.008000*%
%ADD64C,0.011811*%
%ADD65C,0.005906*%
D56*
X399606Y2930118D02*
G03*
X399606Y2930118I-11811J0D01*
G01*
X769685Y3239173D02*
G03*
X769685Y3239173I-11811J0D01*
G01*
X659449Y1883858D02*
G03*
X659449Y1883858I-11811J0D01*
G01*
X1193898Y1399606D02*
G03*
X1193898Y1399606I-11811J0D01*
G01*
X1340551Y2750000D02*
G03*
X1340551Y2750000I-11811J0D01*
G01*
X176181Y1672244D02*
G03*
X176181Y1672244I-11811J0D01*
G01*
X799213Y940945D02*
G03*
X799213Y940945I-11811J0D01*
G01*
D57*
X1484252Y390748D02*
G03*
X1484252Y390748I-4921J0D01*
G01*
D58*
X1685039Y594488D02*
G03*
X1685039Y594488I-1968J0D01*
G01*
D59*
X692626Y2426083D02*
G03*
X692626Y2426083I-17677J0D01*
G01*
D60*
X1533465Y2681102D02*
X1533506Y2622344D01*
X944882Y2283465D02*
X1220169D01*
Y2096918D02*
Y2283465D01*
X1220472Y2158465D02*
Y2204724D01*
X1536417Y2874016D02*
X1791339D01*
Y2795276D02*
Y2874016D01*
X1366142Y2524606D02*
X1379921Y2533465D01*
X1393701Y2524606D01*
X276575Y3129921D02*
X276578Y3116142D01*
X276575Y3129921D02*
X413386Y3128937D01*
X553150D01*
Y3116142D02*
Y3128937D01*
X844078Y3110228D02*
X844942Y3065945D01*
X828740Y3102211D02*
X844488Y3110236D01*
X844426Y3110274D02*
X859252Y3101227D01*
X667323Y3105315D02*
X683071Y3115157D01*
X701772Y3104331D01*
X683071Y3115157D02*
X701772Y3104331D01*
X276563Y3068032D02*
Y3075906D01*
X412402Y3068898D02*
Y3128937D01*
X964567Y173228D02*
X968504D01*
X964567Y23622D02*
Y173228D01*
X276563Y3075906D02*
X276578Y3116142D01*
X944882Y2096918D02*
X1220169D01*
X1791339Y2619094D02*
Y2855315D01*
X1533506Y2622344D02*
X1791339Y2619094D01*
X1792323Y2385827D01*
X1791339Y2158465D02*
Y2401575D01*
X1220472Y2158465D02*
X1791339D01*
X1379921Y2440945D02*
Y2533465D01*
X1141732Y2440945D02*
X1379921D01*
X1141732D02*
Y2480315D01*
X1005905D02*
X1141732D01*
X1005905Y2322835D02*
Y2480315D01*
Y2322835D02*
X1141732D01*
Y2480315D01*
X944882Y2096918D02*
Y2283465D01*
X553150Y3065945D02*
Y3075787D01*
Y3065945D02*
X844942D01*
X276563Y3068032D02*
X553150Y3065945D01*
Y3116142D01*
X683071Y3065945D02*
Y3115157D01*
X1208661Y133858D02*
Y141732D01*
Y133858D02*
X1220472D01*
X1208661Y141732D02*
Y173228D01*
X968504D02*
X1208661D01*
X964567Y23622D02*
X1275591D01*
Y43307D01*
X1358268Y110236D02*
Y248031D01*
Y110236D02*
X1440945D01*
Y137795D01*
X1500000D01*
X1511811Y299213D02*
X1519685D01*
X1555118Y263779D01*
Y137795D02*
Y263779D01*
X1500000Y137795D02*
X1555118D01*
X1472441Y110236D02*
X1500000Y137795D01*
X1472441Y43307D02*
Y110236D01*
X1220472Y133858D02*
X1275591D01*
Y43307D02*
Y133858D01*
Y43307D02*
X1566929D01*
Y59055D01*
D61*
X1415354Y2629921D02*
X1446850D01*
X1415354Y2598425D02*
Y2629921D01*
Y2511811D02*
X1446850D01*
X1415354D02*
Y2543307D01*
X1466047Y2689961D02*
X1473921D01*
X1466047Y2660433D02*
X1473921D01*
X1593504Y2581693D02*
X1636811D01*
X1593504Y2520669D02*
X1636811D01*
X8858Y2661417D02*
Y2669291D01*
X-20669Y2661417D02*
Y2669291D01*
X7874Y3137299D02*
Y3145173D01*
X-21654Y3137299D02*
Y3145173D01*
X744095Y2953740D02*
Y2961614D01*
X714567Y2953740D02*
Y2961614D01*
X248031Y2809055D02*
Y2816929D01*
X277559Y2809055D02*
Y2816929D01*
X573819Y2695866D02*
X577756D01*
X573819Y2747047D02*
X577756D01*
X694882Y2843504D02*
Y2969488D01*
X348425Y2843504D02*
Y2969488D01*
Y2843504D02*
X694882D01*
X348425Y2969488D02*
X694882D01*
X450787Y2747047D02*
X458661D01*
X450787Y2717520D02*
X458661D01*
X297244Y2810039D02*
Y2817913D01*
X326772Y2810039D02*
Y2817913D01*
X282480Y2718504D02*
X290354D01*
X282480Y2748032D02*
X290354D01*
X769685Y2953740D02*
Y2961614D01*
X799213Y2953740D02*
Y2961614D01*
X300197Y2996063D02*
Y3003937D01*
X329724Y2996063D02*
Y3003937D01*
X252953Y2996063D02*
Y3003937D01*
X282480Y2996063D02*
Y3003937D01*
X1561024Y2712598D02*
Y2779528D01*
X1509842Y2712598D02*
Y2779528D01*
X1560528Y2846457D02*
X1568402D01*
X1560528Y2816929D02*
X1568402D01*
X1348425Y2608268D02*
Y2675197D01*
X1297244Y2608268D02*
Y2675197D01*
X1225394Y2644197D02*
Y2652071D01*
X1195866Y2644197D02*
Y2652071D01*
X1277559Y2644197D02*
Y2652071D01*
X1248031Y2644197D02*
Y2652071D01*
X1669291Y2846457D02*
X1677165D01*
X1669291Y2816929D02*
X1677165D01*
X718504Y3199803D02*
Y3546260D01*
X844488Y3199803D02*
Y3546260D01*
X718504Y3199803D02*
X844488D01*
X718504Y3546260D02*
X844488D01*
X580709Y3369095D02*
X588583D01*
X580709Y3398622D02*
X588583D01*
X580709Y3234252D02*
X588583D01*
X580709Y3204724D02*
X588583D01*
X580709Y3149606D02*
X588583D01*
X580709Y3179134D02*
X588583D01*
X683071Y3149606D02*
X690945D01*
X683071Y3179134D02*
X690945D01*
X580709Y3259843D02*
X588583D01*
X580709Y3289370D02*
X588583D01*
X580709Y3313976D02*
X588583D01*
X580709Y3343504D02*
X588583D01*
X528244Y1979331D02*
X536118D01*
X528244Y1949803D02*
X536118D01*
X561024Y1726378D02*
X687008D01*
X561024Y1923228D02*
X687008D01*
X561024Y1726378D02*
Y1923228D01*
X687008Y1726378D02*
Y1923228D01*
X396654Y1656496D02*
Y1664370D01*
X367126Y1656496D02*
Y1664370D01*
X1046260Y1623032D02*
Y1630906D01*
X1016732Y1623032D02*
Y1630906D01*
X1111220Y1585142D02*
X1119094D01*
X1111220Y1614669D02*
X1119094D01*
X1444386Y1472441D02*
Y1480315D01*
X1414858Y1472441D02*
Y1480315D01*
X1398622Y1377953D02*
X1406496D01*
X1398622Y1407480D02*
X1406496D01*
X938976Y1354331D02*
Y1358268D01*
X887795Y1354331D02*
Y1358268D01*
X1142717Y1557087D02*
X1268701D01*
X1142717Y1360236D02*
X1268701D01*
Y1557087D01*
X1142717Y1360236D02*
Y1557087D01*
X1390260Y1472441D02*
Y1480315D01*
X1360732Y1472441D02*
Y1480315D01*
X995575Y1560039D02*
X1003449D01*
X995575Y1530512D02*
X1003449D01*
X942913Y1436024D02*
X986221D01*
X942913Y1497047D02*
X986221D01*
X937480Y1580158D02*
X966535D01*
Y1593937D01*
X937480Y1666772D02*
X966535D01*
Y1652992D02*
Y1666772D01*
X1018701Y1387795D02*
X1042323D01*
X963583Y1387795D02*
X987205D01*
X598921Y1038386D02*
X606795D01*
X598921Y1008858D02*
X606795D01*
X598921Y1089567D02*
X606795D01*
X598921Y1060039D02*
X606795D01*
X811024Y1866142D02*
Y1874016D01*
X781496Y1866142D02*
Y1874016D01*
X1564465Y2934055D02*
X1572339D01*
X1564465Y2904528D02*
X1572339D01*
X1526575Y2998032D02*
Y3005905D01*
X1556102Y2998032D02*
Y3005905D01*
X1695866Y2998032D02*
Y3005905D01*
X1725394Y2998032D02*
Y3005905D01*
X1746063Y2694819D02*
X1777559D01*
Y2726315D01*
X1659449Y2694819D02*
X1690945D01*
X1659449D02*
Y2726315D01*
X1589567Y2742126D02*
Y2750000D01*
X1619094Y2742126D02*
Y2750000D01*
X1581693Y2998032D02*
Y3005905D01*
X1611220Y2998032D02*
Y3005905D01*
X1636811Y2998032D02*
Y3005905D01*
X1666339Y2998032D02*
Y3005905D01*
X1538386Y192913D02*
Y200787D01*
X1508858Y192913D02*
Y200787D01*
X1453740Y192913D02*
Y200787D01*
X1483268Y192913D02*
Y200787D01*
X1423228Y179134D02*
Y183071D01*
X1372047Y179134D02*
Y183071D01*
X1401575Y379921D02*
X1440945D01*
X1401575Y257874D02*
X1440945D01*
Y379921D01*
X1401575Y257874D02*
Y379921D01*
X1568110Y206693D02*
Y242126D01*
X1723228Y206693D02*
Y242126D01*
X1388780Y444882D02*
Y452756D01*
X1359252Y444882D02*
Y452756D01*
X1588583Y328740D02*
X1592520D01*
X1588583Y379921D02*
X1592520D01*
X1336614Y462598D02*
Y466535D01*
X1285433Y462598D02*
Y466535D01*
X1288386Y196850D02*
Y204724D01*
X1317913Y196850D02*
Y204724D01*
X1288386Y322835D02*
Y330709D01*
X1317913Y322835D02*
Y330709D01*
X1569882Y72835D02*
X1573819D01*
X1569882Y124016D02*
X1573819D01*
X1532480Y2251968D02*
Y2295276D01*
X1471457Y2251968D02*
Y2295276D01*
X1618110Y3457677D02*
Y3636319D01*
X1554134Y3457677D02*
X1618110D01*
X1401575D02*
X1465551D01*
X1401575D02*
Y3636319D01*
X1554134Y3674213D02*
X1580216D01*
X1618110Y3636319D01*
X1401575D02*
X1439468Y3674213D01*
X1465551D01*
X1289370Y2710630D02*
Y3057086D01*
X1415354Y2710630D02*
Y3057086D01*
X1289370Y2710630D02*
X1415354D01*
X1289370Y3057086D02*
X1415354D01*
X1147638Y2906496D02*
X1155512D01*
X1147638Y2876968D02*
X1155512D01*
X977362Y3208661D02*
X985236D01*
X977362Y3238189D02*
X985236D01*
X203740Y1514764D02*
Y1711614D01*
X77756Y1514764D02*
Y1711614D01*
X203740D01*
X77756Y1514764D02*
X203740D01*
X341535Y1656496D02*
Y1664370D01*
X312008Y1656496D02*
Y1664370D01*
X341535Y1542323D02*
Y1550197D01*
X312008Y1542323D02*
Y1550197D01*
X238189Y1770669D02*
X246063D01*
X238189Y1741142D02*
X246063D01*
X350890D02*
X358764D01*
X350890Y1770669D02*
X358764D01*
X854331Y1231299D02*
X897638D01*
X854331Y1170276D02*
X897638D01*
X42323Y1741142D02*
X50197D01*
X42323Y1770669D02*
X50197D01*
X228346Y1460630D02*
X236220D01*
X228346Y1490158D02*
X236220D01*
X589567Y930606D02*
Y938480D01*
X560039Y930606D02*
Y938480D01*
X898921Y880906D02*
X906795D01*
X898921Y851378D02*
X906795D01*
X884646Y773622D02*
X888583D01*
X884646Y824803D02*
X888583D01*
X1478346Y561811D02*
X1513780D01*
X1478346Y406693D02*
X1513780D01*
X460630Y1779032D02*
Y1786906D01*
X431102Y1779032D02*
Y1786906D01*
X744095Y1979331D02*
X751968D01*
X744095Y1949803D02*
X751968D01*
X711913Y1700787D02*
X719787D01*
X711913Y1671260D02*
X719787D01*
X812008Y1759842D02*
Y1767716D01*
X782480Y1759842D02*
Y1767716D01*
X915158Y704724D02*
Y712598D01*
X944685Y704724D02*
Y712598D01*
X838583D02*
X862205D01*
X748032Y1098425D02*
X874016D01*
X748032Y901575D02*
X874016D01*
Y1098425D01*
X748032Y901575D02*
Y1098425D01*
X615158Y930606D02*
Y938480D01*
X644685Y930606D02*
Y938480D01*
X534449Y930606D02*
Y938480D01*
X504921Y930606D02*
Y938480D01*
X1194882Y761811D02*
Y940453D01*
X1130906Y761811D02*
X1194882D01*
X978346D02*
X1042323D01*
X978346D02*
Y940453D01*
X1130906Y978346D02*
X1156988D01*
X1194882Y940453D01*
X978346D02*
X1016240Y978346D01*
X1042323D01*
X981299Y3109252D02*
X989173D01*
X981299Y3079724D02*
X989173D01*
X940945Y3494839D02*
Y3502713D01*
X970472Y3494839D02*
Y3502713D01*
X978835Y3404528D02*
X986709D01*
X978835Y3434055D02*
X986709D01*
X977362Y3257874D02*
X985236D01*
X977362Y3287402D02*
X985236D01*
X968504Y3005906D02*
X972441D01*
X968504Y3057087D02*
X972441D01*
X869394Y3607284D02*
X877268D01*
X869394Y3577756D02*
X877268D01*
X1017717Y3494839D02*
Y3502713D01*
X988189Y3494839D02*
Y3502713D01*
X897142Y1119094D02*
X905016D01*
X897142Y1148622D02*
X905016D01*
X1064961Y3494839D02*
Y3502713D01*
X1035433Y3494839D02*
Y3502713D01*
X1147638Y2851378D02*
X1155512D01*
X1147638Y2821850D02*
X1155512D01*
X470472Y429134D02*
Y433071D01*
X419291Y429134D02*
Y433071D01*
X1147638Y2965551D02*
X1155512D01*
X1147638Y2936024D02*
X1155512D01*
X826968Y3184055D02*
X893898D01*
X826968Y3132874D02*
X893898D01*
X952756Y3184055D02*
X1019685D01*
X952756Y3132874D02*
X1019685D01*
X1161417Y2736220D02*
Y2740157D01*
X1110236Y2736220D02*
Y2740157D01*
X978835Y3385827D02*
X986709D01*
X978835Y3356299D02*
X986709D01*
X55610Y454724D02*
X81693D01*
X17717Y416831D02*
X55610Y454724D01*
X196358D02*
X234252Y416831D01*
X170276Y454724D02*
X196358D01*
X17717Y238189D02*
Y416831D01*
Y238189D02*
X81693D01*
X170276D02*
X234252D01*
Y416831D01*
X456690Y1630754D02*
X425200D01*
X456690D02*
Y1644250D01*
X455190Y1648748D01*
X453691Y1650248D01*
X450692Y1651747D01*
X447693D01*
X444694Y1650248D01*
X443194Y1648748D01*
X441695Y1644250D01*
Y1630754D01*
Y1641251D02*
X425200Y1651747D01*
X452191Y1676789D02*
X455190Y1675289D01*
X456690Y1670791D01*
Y1667792D01*
X455190Y1663293D01*
X450692Y1660294D01*
X443194Y1658795D01*
X435697D01*
X429699Y1660294D01*
X426700Y1663293D01*
X425200Y1667792D01*
Y1669291D01*
X426700Y1673790D01*
X429699Y1676789D01*
X434197Y1678288D01*
X435697D01*
X440195Y1676789D01*
X443194Y1673790D01*
X444694Y1669291D01*
Y1667792D01*
X443194Y1663293D01*
X440195Y1660294D01*
X435697Y1658795D01*
X450692Y1685186D02*
X452191Y1688185D01*
X456690Y1692683D01*
X425200D01*
X864170Y1706382D02*
X832681D01*
X864170D02*
Y1719878D01*
X862670Y1724376D01*
X861171Y1725876D01*
X858172Y1727375D01*
X855173D01*
X852174Y1725876D01*
X850674Y1724376D01*
X849175Y1719878D01*
Y1706382D01*
Y1716879D02*
X832681Y1727375D01*
X859671Y1752417D02*
X862670Y1750917D01*
X864170Y1746419D01*
Y1743420D01*
X862670Y1738921D01*
X858172Y1735922D01*
X850674Y1734423D01*
X843177D01*
X837179Y1735922D01*
X834180Y1738921D01*
X832681Y1743420D01*
Y1744919D01*
X834180Y1749418D01*
X837179Y1752417D01*
X841678Y1753916D01*
X843177D01*
X847675Y1752417D01*
X850674Y1749418D01*
X852174Y1744919D01*
Y1743420D01*
X850674Y1738921D01*
X847675Y1735922D01*
X843177Y1734423D01*
X864170Y1769811D02*
X862670Y1765312D01*
X858172Y1762313D01*
X850674Y1760814D01*
X846176D01*
X838678Y1762313D01*
X834180Y1765312D01*
X832681Y1769811D01*
Y1772810D01*
X834180Y1777308D01*
X838678Y1780307D01*
X846176Y1781807D01*
X850674D01*
X858172Y1780307D01*
X862670Y1777308D01*
X864170Y1772810D01*
Y1769811D01*
Y1835244D02*
X832681D01*
X864170D02*
Y1848739D01*
X862670Y1853238D01*
X861171Y1854737D01*
X858172Y1856237D01*
X855173D01*
X852174Y1854737D01*
X850674Y1853238D01*
X849175Y1848739D01*
Y1835244D01*
Y1845741D02*
X832681Y1856237D01*
X864170Y1881278D02*
Y1866284D01*
X850674Y1864784D01*
X852174Y1866284D01*
X853673Y1870782D01*
Y1875281D01*
X852174Y1879779D01*
X849175Y1882778D01*
X844676Y1884277D01*
X841678D01*
X837179Y1882778D01*
X834180Y1879779D01*
X832681Y1875281D01*
Y1870782D01*
X834180Y1866284D01*
X835679Y1864784D01*
X838678Y1863285D01*
X853673Y1910819D02*
X849175Y1909319D01*
X846176Y1906320D01*
X844676Y1901822D01*
Y1900322D01*
X846176Y1895824D01*
X849175Y1892825D01*
X853673Y1891325D01*
X855173D01*
X859671Y1892825D01*
X862670Y1895824D01*
X864170Y1900322D01*
Y1901822D01*
X862670Y1906320D01*
X859671Y1909319D01*
X853673Y1910819D01*
X846176D01*
X838678Y1909319D01*
X834180Y1906320D01*
X832681Y1901822D01*
Y1898823D01*
X834180Y1894324D01*
X837179Y1892825D01*
X1102703Y2448816D02*
Y2417326D01*
Y2448816D02*
X1089208D01*
X1084709Y2447316D01*
X1083210Y2445817D01*
X1081710Y2442818D01*
Y2439819D01*
X1083210Y2436820D01*
X1084709Y2435320D01*
X1089208Y2433821D01*
X1102703D01*
X1092207D02*
X1081710Y2417326D01*
X1056669Y2448816D02*
X1071664D01*
X1073163Y2435320D01*
X1071664Y2436820D01*
X1067165Y2438319D01*
X1062667D01*
X1058168Y2436820D01*
X1055169Y2433821D01*
X1053670Y2429322D01*
Y2426323D01*
X1055169Y2421825D01*
X1058168Y2418826D01*
X1062667Y2417326D01*
X1067165D01*
X1071664Y2418826D01*
X1073163Y2420325D01*
X1074663Y2423324D01*
X1025629Y2448816D02*
X1040624Y2417326D01*
X1046622Y2448816D02*
X1025629D01*
X515745Y1630754D02*
X484255D01*
X515745D02*
Y1644250D01*
X514245Y1648748D01*
X512746Y1650248D01*
X509747Y1651747D01*
X506748D01*
X503749Y1650248D01*
X502249Y1648748D01*
X500750Y1644250D01*
Y1630754D01*
Y1641251D02*
X484255Y1651747D01*
X515745Y1676789D02*
Y1661794D01*
X502249Y1660294D01*
X503749Y1661794D01*
X505248Y1666292D01*
Y1670791D01*
X503749Y1675289D01*
X500750Y1678288D01*
X496251Y1679788D01*
X493252D01*
X488754Y1678288D01*
X485755Y1675289D01*
X484255Y1670791D01*
Y1666292D01*
X485755Y1661794D01*
X487254Y1660294D01*
X490253Y1658795D01*
X515745Y1704829D02*
Y1689834D01*
X502249Y1688335D01*
X503749Y1689834D01*
X505248Y1694333D01*
Y1698831D01*
X503749Y1703330D01*
X500750Y1706329D01*
X496251Y1707828D01*
X493252D01*
X488754Y1706329D01*
X485755Y1703330D01*
X484255Y1698831D01*
Y1694333D01*
X485755Y1689834D01*
X487254Y1688335D01*
X490253Y1686835D01*
X1141083Y3244091D02*
Y3212602D01*
Y3244091D02*
X1127587D01*
X1123089Y3242592D01*
X1121589Y3241092D01*
X1120090Y3238093D01*
Y3235094D01*
X1121589Y3232095D01*
X1123089Y3230596D01*
X1127587Y3229096D01*
X1141083D01*
X1130586D02*
X1120090Y3212602D01*
X1095048Y3244091D02*
X1110043D01*
X1111543Y3230596D01*
X1110043Y3232095D01*
X1105545Y3233595D01*
X1101046D01*
X1096548Y3232095D01*
X1093549Y3229096D01*
X1092049Y3224598D01*
Y3221599D01*
X1093549Y3217100D01*
X1096548Y3214101D01*
X1101046Y3212602D01*
X1105545D01*
X1110043Y3214101D01*
X1111543Y3215601D01*
X1113042Y3218600D01*
X1070007Y3244091D02*
X1085002Y3223098D01*
X1062509D01*
X1070007Y3244091D02*
Y3212602D01*
X1247050Y2567074D02*
X1278540D01*
X1247050D02*
Y2553579D01*
X1248550Y2549080D01*
X1250049Y2547581D01*
X1253048Y2546081D01*
X1256047D01*
X1259046Y2547581D01*
X1260546Y2549080D01*
X1262045Y2553579D01*
Y2567074D01*
Y2556577D02*
X1278540Y2546081D01*
X1247050Y2536034D02*
Y2519540D01*
X1259046Y2528537D01*
Y2524039D01*
X1260546Y2521039D01*
X1262045Y2519540D01*
X1266544Y2518041D01*
X1269543D01*
X1274041Y2519540D01*
X1277040Y2522539D01*
X1278540Y2527037D01*
Y2531536D01*
X1277040Y2536034D01*
X1275541Y2537534D01*
X1272542Y2539033D01*
X1247050Y2503495D02*
X1248550Y2507994D01*
X1251549Y2509493D01*
X1254548D01*
X1257547Y2507994D01*
X1259046Y2504995D01*
X1260546Y2498997D01*
X1262045Y2494499D01*
X1265044Y2491499D01*
X1268043Y2490000D01*
X1272542D01*
X1275541Y2491499D01*
X1277040Y2492999D01*
X1278540Y2497497D01*
Y2503495D01*
X1277040Y2507994D01*
X1275541Y2509493D01*
X1272542Y2510993D01*
X1268043D01*
X1265044Y2509493D01*
X1262045Y2506494D01*
X1260546Y2501996D01*
X1259046Y2495998D01*
X1257547Y2492999D01*
X1254548Y2491499D01*
X1251549D01*
X1248550Y2492999D01*
X1247050Y2497497D01*
Y2503495D01*
X1625120Y2488562D02*
X1626619Y2491561D01*
X1629618Y2494560D01*
X1632617Y2496060D01*
X1638615D01*
X1641614Y2494560D01*
X1644613Y2491561D01*
X1646112Y2488562D01*
X1647612Y2484064D01*
Y2476566D01*
X1646112Y2472068D01*
X1644613Y2469069D01*
X1641614Y2466070D01*
X1638615Y2464570D01*
X1632617D01*
X1629618Y2466070D01*
X1626619Y2469069D01*
X1625120Y2472068D01*
X1601278Y2496060D02*
X1616273Y2475067D01*
X1593780D01*
X1601278Y2496060D02*
Y2464570D01*
X1588232Y2490062D02*
X1585233Y2491561D01*
X1580735Y2496060D01*
Y2464570D01*
X745056Y1211987D02*
X746556Y1214986D01*
X749555Y1217985D01*
X752554Y1219485D01*
X758552D01*
X761551Y1217985D01*
X764550Y1214986D01*
X766049Y1211987D01*
X767549Y1207489D01*
Y1199991D01*
X766049Y1195493D01*
X764550Y1192494D01*
X761551Y1189495D01*
X758552Y1187995D01*
X752554D01*
X749555Y1189495D01*
X746556Y1192494D01*
X745056Y1195493D01*
X721214Y1219485D02*
X736209Y1198492D01*
X713717D01*
X721214Y1219485D02*
Y1187995D01*
X699172Y1219485D02*
X703670Y1217985D01*
X706669Y1213487D01*
X708169Y1205989D01*
Y1201491D01*
X706669Y1193994D01*
X703670Y1189495D01*
X699172Y1187995D01*
X696173D01*
X691674Y1189495D01*
X688675Y1193994D01*
X687176Y1201491D01*
Y1205989D01*
X688675Y1213487D01*
X691674Y1217985D01*
X696173Y1219485D01*
X699172D01*
X1583050Y2257662D02*
X1586049Y2256162D01*
X1589048Y2253164D01*
X1590548Y2250164D01*
Y2244167D01*
X1589048Y2241168D01*
X1586049Y2238169D01*
X1583050Y2236669D01*
X1578552Y2235170D01*
X1571054D01*
X1566556Y2236669D01*
X1563557Y2238169D01*
X1560558Y2241168D01*
X1559059Y2244167D01*
Y2250164D01*
X1560558Y2253164D01*
X1563557Y2256162D01*
X1566556Y2257662D01*
X1590548Y2269508D02*
Y2286002D01*
X1578552Y2277006D01*
Y2281504D01*
X1577052Y2284503D01*
X1575553Y2286002D01*
X1571054Y2287502D01*
X1568055D01*
X1563557Y2286002D01*
X1560558Y2283003D01*
X1559059Y2278505D01*
Y2274006D01*
X1560558Y2269508D01*
X1562057Y2268008D01*
X1565056Y2266509D01*
X1580051Y2314043D02*
X1575553Y2312543D01*
X1572554Y2309544D01*
X1571054Y2305046D01*
Y2303546D01*
X1572554Y2299048D01*
X1575553Y2296049D01*
X1580051Y2294550D01*
X1581551D01*
X1586049Y2296049D01*
X1589048Y2299048D01*
X1590548Y2303546D01*
Y2305046D01*
X1589048Y2309544D01*
X1586049Y2312543D01*
X1580051Y2314043D01*
X1572554D01*
X1565056Y2312543D01*
X1560558Y2309544D01*
X1559059Y2305046D01*
Y2302047D01*
X1560558Y2297548D01*
X1563557Y2296049D01*
X1382263Y545298D02*
X1385262Y543798D01*
X1388261Y540799D01*
X1389760Y537801D01*
Y531803D01*
X1388261Y528804D01*
X1385262Y525805D01*
X1382263Y524305D01*
X1377764Y522806D01*
X1370267D01*
X1365768Y524305D01*
X1362769Y525805D01*
X1359770Y528804D01*
X1358271Y531803D01*
Y537801D01*
X1359770Y540799D01*
X1362769Y543798D01*
X1365768Y545298D01*
X1389760Y557144D02*
Y573638D01*
X1377764Y564641D01*
Y569140D01*
X1376265Y572139D01*
X1374765Y573638D01*
X1370267Y575138D01*
X1367268D01*
X1362769Y573638D01*
X1359770Y570639D01*
X1358271Y566141D01*
Y561643D01*
X1359770Y557144D01*
X1361270Y555644D01*
X1364269Y554145D01*
X1389760Y589683D02*
X1388261Y585184D01*
X1385262Y583685D01*
X1382263D01*
X1379264Y585184D01*
X1377764Y588183D01*
X1376265Y594181D01*
X1374765Y598680D01*
X1371766Y601679D01*
X1368767Y603178D01*
X1364269D01*
X1361270Y601679D01*
X1359770Y600179D01*
X1358271Y595681D01*
Y589683D01*
X1359770Y585184D01*
X1361270Y583685D01*
X1364269Y582186D01*
X1368767D01*
X1371766Y583685D01*
X1374765Y586684D01*
X1376265Y591183D01*
X1377764Y597180D01*
X1379264Y600179D01*
X1382263Y601679D01*
X1385262D01*
X1388261Y600179D01*
X1389760Y595681D01*
Y589683D01*
X784446Y2312492D02*
X782946Y2309493D01*
X779947Y2306494D01*
X776948Y2304994D01*
X772449Y2303495D01*
X764952D01*
X760454Y2304994D01*
X757455Y2306494D01*
X754456Y2309493D01*
X752956Y2312492D01*
Y2318490D01*
X754456Y2321488D01*
X757455Y2324488D01*
X760454Y2325987D01*
X764952Y2327486D01*
X772449D01*
X776948Y2325987D01*
X779947Y2324488D01*
X782946Y2321488D01*
X784446Y2318490D01*
Y2312492D01*
X776948Y2357326D02*
X779947Y2355827D01*
X782946Y2352828D01*
X784446Y2349829D01*
Y2343831D01*
X782946Y2340832D01*
X779947Y2337833D01*
X776948Y2336334D01*
X772449Y2334834D01*
X764952D01*
X760454Y2336334D01*
X757455Y2337833D01*
X754456Y2340832D01*
X752956Y2343831D01*
Y2349829D01*
X754456Y2352828D01*
X757455Y2355827D01*
X760454Y2357326D01*
X778447Y2366173D02*
X779947Y2369172D01*
X784446Y2373671D01*
X752956D01*
X344541Y549209D02*
Y517720D01*
Y549209D02*
X334044D01*
X329546Y547710D01*
X326547Y544711D01*
X325047Y541712D01*
X323548Y537213D01*
Y529716D01*
X325047Y525217D01*
X326547Y522218D01*
X329546Y519219D01*
X334044Y517720D01*
X344541D01*
X316500Y543211D02*
X313501Y544711D01*
X309003Y549209D01*
Y517720D01*
X1050194Y1276664D02*
X1018704Y1288660D01*
X1050194Y1300656D02*
X1018704Y1288660D01*
X1042696Y1306204D02*
X1044196D01*
X1047195Y1307704D01*
X1048694Y1309203D01*
X1050194Y1312202D01*
Y1318200D01*
X1048694Y1321199D01*
X1047195Y1322699D01*
X1044196Y1324198D01*
X1041197D01*
X1038197Y1322699D01*
X1033699Y1319700D01*
X1018704Y1304705D01*
Y1325698D01*
X812322Y698766D02*
X780833Y710762D01*
X812322Y722758D02*
X780833Y710762D01*
X806324Y726807D02*
X807823Y729806D01*
X812322Y734304D01*
X780833D01*
X466211Y549209D02*
Y517720D01*
Y549209D02*
X452716D01*
X448217Y547710D01*
X446718Y546210D01*
X445218Y543211D01*
Y540212D01*
X446718Y537213D01*
X448217Y535714D01*
X452716Y534214D01*
X466211D01*
X455715D02*
X445218Y517720D01*
X423176Y549209D02*
X438171Y528216D01*
X415678D01*
X423176Y549209D02*
Y517720D01*
X991139Y1276664D02*
X959649D01*
Y1294658D01*
X991139Y1313102D02*
X970146Y1298107D01*
Y1320600D01*
X991139Y1313102D02*
X959649D01*
X122910Y541712D02*
X124410Y544711D01*
X127409Y547710D01*
X130408Y549209D01*
X136406D01*
X139405Y547710D01*
X142404Y544711D01*
X143903Y541712D01*
X145403Y537213D01*
Y529716D01*
X143903Y525217D01*
X142404Y522218D01*
X139405Y519219D01*
X136406Y517720D01*
X130408D01*
X127409Y519219D01*
X124410Y522218D01*
X122910Y525217D01*
X114063Y543211D02*
X111064Y544711D01*
X106566Y549209D01*
Y517720D01*
X1235610Y838876D02*
X1238609Y837377D01*
X1241608Y834378D01*
X1243107Y831379D01*
Y825381D01*
X1241608Y822382D01*
X1238609Y819383D01*
X1235610Y817883D01*
X1231111Y816384D01*
X1223613D01*
X1219115Y817883D01*
X1216116Y819383D01*
X1213117Y822382D01*
X1211618Y825381D01*
Y831379D01*
X1213117Y834378D01*
X1216116Y837377D01*
X1219115Y838876D01*
X1237109Y847723D02*
X1238609Y850722D01*
X1243107Y855221D01*
X1211618D01*
X1232611Y890309D02*
X1228112Y888809D01*
X1225113Y885810D01*
X1223613Y881312D01*
Y879812D01*
X1225113Y875314D01*
X1228112Y872315D01*
X1232611Y870816D01*
X1234110D01*
X1238609Y872315D01*
X1241608Y875314D01*
X1243107Y879812D01*
Y881312D01*
X1241608Y885810D01*
X1238609Y888809D01*
X1232611Y890309D01*
X1225113D01*
X1217616Y888809D01*
X1213117Y885810D01*
X1211618Y881312D01*
Y878313D01*
X1213117Y873814D01*
X1216116Y872315D01*
X1117123Y3470081D02*
X1085633D01*
X1117123D02*
Y3483577D01*
X1115623Y3488075D01*
X1114124Y3489575D01*
X1111125Y3491074D01*
X1108126D01*
X1105127Y3489575D01*
X1103627Y3488075D01*
X1102128Y3483577D01*
Y3470081D01*
Y3480578D02*
X1085633Y3491074D01*
X1117123Y3513117D02*
X1096130Y3498122D01*
Y3520614D01*
X1117123Y3513117D02*
X1085633D01*
X1117123Y3535159D02*
X1115623Y3530661D01*
X1111125Y3527662D01*
X1103627Y3526162D01*
X1099129D01*
X1091631Y3527662D01*
X1087133Y3530661D01*
X1085633Y3535159D01*
Y3538158D01*
X1087133Y3542657D01*
X1091631Y3545656D01*
X1099129Y3547155D01*
X1103627D01*
X1111125Y3545656D01*
X1115623Y3542657D01*
X1117123Y3538158D01*
Y3535159D01*
X1141083Y3424209D02*
Y3392720D01*
Y3424209D02*
X1127587D01*
X1123089Y3422710D01*
X1121589Y3421210D01*
X1120090Y3418211D01*
Y3415212D01*
X1121589Y3412213D01*
X1123089Y3410714D01*
X1127587Y3409214D01*
X1141083D01*
X1130586D02*
X1120090Y3392720D01*
X1110043Y3424209D02*
X1093549D01*
X1102546Y3412213D01*
X1098047D01*
X1095048Y3410714D01*
X1093549Y3409214D01*
X1092049Y3404716D01*
Y3401717D01*
X1093549Y3397218D01*
X1096548Y3394219D01*
X1101046Y3392720D01*
X1105545D01*
X1110043Y3394219D01*
X1111543Y3395719D01*
X1113042Y3398718D01*
X1065508Y3413713D02*
X1067008Y3409214D01*
X1070007Y3406215D01*
X1074505Y3404716D01*
X1076005D01*
X1080503Y3406215D01*
X1083502Y3409214D01*
X1085002Y3413713D01*
Y3415212D01*
X1083502Y3419711D01*
X1080503Y3422710D01*
X1076005Y3424209D01*
X1074505D01*
X1070007Y3422710D01*
X1067008Y3419711D01*
X1065508Y3413713D01*
Y3406215D01*
X1067008Y3398718D01*
X1070007Y3394219D01*
X1074505Y3392720D01*
X1077504D01*
X1082003Y3394219D01*
X1083502Y3397218D01*
X1251965Y53498D02*
X1229473D01*
X1224974Y54997D01*
X1221975Y57996D01*
X1220476Y62495D01*
Y65493D01*
X1221975Y69992D01*
X1224974Y72991D01*
X1229473Y74490D01*
X1251965D01*
X1241469Y102681D02*
X1236970Y101181D01*
X1233971Y98183D01*
X1232472Y93684D01*
Y92185D01*
X1233971Y87686D01*
X1236970Y84687D01*
X1241469Y83188D01*
X1242968D01*
X1247467Y84687D01*
X1250466Y87686D01*
X1251965Y92185D01*
Y93684D01*
X1250466Y98183D01*
X1247467Y101181D01*
X1241469Y102681D01*
X1233971D01*
X1226474Y101181D01*
X1221975Y98183D01*
X1220476Y93684D01*
Y90685D01*
X1221975Y86187D01*
X1224974Y84687D01*
X1326627Y2868901D02*
Y2891393D01*
X1328127Y2895892D01*
X1331126Y2898891D01*
X1335624Y2900390D01*
X1338623D01*
X1343121Y2898891D01*
X1346120Y2895892D01*
X1347620Y2891393D01*
Y2868901D01*
X1363815D02*
X1359316Y2870400D01*
X1357817Y2873399D01*
Y2876398D01*
X1359316Y2879397D01*
X1362315Y2880897D01*
X1368313Y2882396D01*
X1372812Y2883896D01*
X1375811Y2886895D01*
X1377310Y2889894D01*
Y2894392D01*
X1375811Y2897391D01*
X1374311Y2898891D01*
X1369812Y2900390D01*
X1363815D01*
X1359316Y2898891D01*
X1357817Y2897391D01*
X1356317Y2894392D01*
Y2889894D01*
X1357817Y2886895D01*
X1360816Y2883896D01*
X1365314Y2882396D01*
X1371312Y2880897D01*
X1374311Y2879397D01*
X1375811Y2876398D01*
Y2873399D01*
X1374311Y2870400D01*
X1369812Y2868901D01*
X1363815D01*
X508862Y2929869D02*
X531354D01*
X535852Y2928369D01*
X538851Y2925370D01*
X540351Y2920872D01*
Y2917873D01*
X538851Y2913375D01*
X535852Y2910376D01*
X531354Y2908876D01*
X508862D01*
Y2879186D02*
X540351Y2894181D01*
X508862Y2900179D02*
Y2879186D01*
X756904Y3349413D02*
Y3371905D01*
X758404Y3376404D01*
X761403Y3379403D01*
X765901Y3380902D01*
X768900D01*
X773399Y3379403D01*
X776398Y3376404D01*
X777897Y3371905D01*
Y3349413D01*
X804588Y3353911D02*
X803089Y3350912D01*
X798590Y3349413D01*
X795591D01*
X791093Y3350912D01*
X788094Y3355411D01*
X786594Y3362908D01*
Y3370406D01*
X788094Y3376404D01*
X791093Y3379403D01*
X795591Y3380902D01*
X797091D01*
X801589Y3379403D01*
X804588Y3376404D01*
X806088Y3371905D01*
Y3370406D01*
X804588Y3365907D01*
X801589Y3362908D01*
X797091Y3361409D01*
X795591D01*
X791093Y3362908D01*
X788094Y3365907D01*
X786594Y3370406D01*
X649357Y1836611D02*
Y1814118D01*
X647858Y1809620D01*
X644859Y1806621D01*
X640360Y1805121D01*
X637361D01*
X632863Y1806621D01*
X629864Y1809620D01*
X628364Y1814118D01*
Y1836611D01*
X601673D02*
X616668D01*
X618168Y1823115D01*
X616668Y1824615D01*
X612170Y1826114D01*
X607671D01*
X603173Y1824615D01*
X600174Y1821616D01*
X598674Y1817117D01*
Y1814118D01*
X600174Y1809620D01*
X603173Y1806621D01*
X607671Y1805121D01*
X612170D01*
X616668Y1806621D01*
X618168Y1808120D01*
X619667Y1811119D01*
X114657Y1593507D02*
Y1616000D01*
X116156Y1620498D01*
X119155Y1623497D01*
X123654Y1624997D01*
X126653D01*
X131151Y1623497D01*
X134150Y1620498D01*
X135650Y1616000D01*
Y1593507D01*
X159342D02*
X144347Y1614500D01*
X166839D01*
X159342Y1593507D02*
Y1624997D01*
X1231050Y1478343D02*
Y1455851D01*
X1229551Y1451352D01*
X1226552Y1448353D01*
X1222053Y1446854D01*
X1219054D01*
X1214556Y1448353D01*
X1211557Y1451352D01*
X1210057Y1455851D01*
Y1478343D01*
X1199861Y1470846D02*
Y1472345D01*
X1198361Y1475344D01*
X1196862Y1476844D01*
X1193863Y1478343D01*
X1187865D01*
X1184866Y1476844D01*
X1183366Y1475344D01*
X1181867Y1472345D01*
Y1469346D01*
X1183366Y1466347D01*
X1186365Y1461849D01*
X1201360Y1446854D01*
X1180367D01*
X829617Y1015745D02*
Y993252D01*
X828118Y988754D01*
X825119Y985755D01*
X820620Y984255D01*
X817621D01*
X813123Y985755D01*
X810124Y988754D01*
X808625Y993252D01*
Y1015745D01*
X799927Y1009747D02*
X796928Y1011246D01*
X792430Y1015745D01*
Y984255D01*
X390411Y1830705D02*
Y1799216D01*
Y1830705D02*
X376915D01*
X372417Y1829206D01*
X370917Y1827706D01*
X369418Y1824707D01*
Y1821708D01*
X370917Y1818709D01*
X372417Y1817210D01*
X376915Y1815710D01*
X390411D01*
X379914D02*
X369418Y1799216D01*
X344376Y1830705D02*
X359371D01*
X360871Y1817210D01*
X359371Y1818709D01*
X354873Y1820209D01*
X350374D01*
X345876Y1818709D01*
X342877Y1815710D01*
X341377Y1811212D01*
Y1808213D01*
X342877Y1803715D01*
X345876Y1800716D01*
X350374Y1799216D01*
X354873D01*
X359371Y1800716D01*
X360871Y1802215D01*
X362370Y1805214D01*
X331331Y1830705D02*
X314836D01*
X323833Y1818709D01*
X319335D01*
X316336Y1817210D01*
X314836Y1815710D01*
X313337Y1811212D01*
Y1808213D01*
X314836Y1803715D01*
X317835Y1800716D01*
X322334Y1799216D01*
X326832D01*
X331331Y1800716D01*
X332830Y1802215D01*
X334330Y1805214D01*
X390411Y1894682D02*
Y1863192D01*
Y1894682D02*
X376915D01*
X372417Y1893182D01*
X370917Y1891683D01*
X369418Y1888684D01*
Y1885685D01*
X370917Y1882686D01*
X372417Y1881186D01*
X376915Y1879687D01*
X390411D01*
X379914D02*
X369418Y1863192D01*
X344376Y1894682D02*
X359371D01*
X360871Y1881186D01*
X359371Y1882686D01*
X354873Y1884185D01*
X350374D01*
X345876Y1882686D01*
X342877Y1879687D01*
X341377Y1875188D01*
Y1872189D01*
X342877Y1867691D01*
X345876Y1864692D01*
X350374Y1863192D01*
X354873D01*
X359371Y1864692D01*
X360871Y1866191D01*
X362370Y1869190D01*
X332830Y1887184D02*
Y1888684D01*
X331331Y1891683D01*
X329831Y1893182D01*
X326832Y1894682D01*
X320834D01*
X317835Y1893182D01*
X316336Y1891683D01*
X314836Y1888684D01*
Y1885685D01*
X316336Y1882686D01*
X319335Y1878187D01*
X334330Y1863192D01*
X313337D01*
X1391241Y1552014D02*
X1359751D01*
X1391241D02*
Y1565510D01*
X1389741Y1570008D01*
X1388242Y1571508D01*
X1385243Y1573007D01*
X1382244D01*
X1379245Y1571508D01*
X1377745Y1570008D01*
X1376246Y1565510D01*
Y1552014D01*
Y1562511D02*
X1359751Y1573007D01*
X1391241Y1598049D02*
Y1583054D01*
X1377745Y1581554D01*
X1379245Y1583054D01*
X1380744Y1587552D01*
Y1592051D01*
X1379245Y1596549D01*
X1376246Y1599548D01*
X1371747Y1601048D01*
X1368748D01*
X1364250Y1599548D01*
X1361251Y1596549D01*
X1359751Y1592051D01*
Y1587552D01*
X1361251Y1583054D01*
X1362750Y1581554D01*
X1365749Y1580055D01*
X1385243Y1608095D02*
X1386742Y1611094D01*
X1391241Y1615593D01*
X1359751D01*
X1449304Y1552014D02*
X1417814D01*
X1449304D02*
Y1565510D01*
X1447804Y1570008D01*
X1446305Y1571508D01*
X1443306Y1573007D01*
X1440307D01*
X1437308Y1571508D01*
X1435808Y1570008D01*
X1434309Y1565510D01*
Y1552014D01*
Y1562511D02*
X1417814Y1573007D01*
X1449304Y1598049D02*
Y1583054D01*
X1435808Y1581554D01*
X1437308Y1583054D01*
X1438807Y1587552D01*
Y1592051D01*
X1437308Y1596549D01*
X1434309Y1599548D01*
X1429810Y1601048D01*
X1426812D01*
X1422313Y1599548D01*
X1419314Y1596549D01*
X1417814Y1592051D01*
Y1587552D01*
X1419314Y1583054D01*
X1420813Y1581554D01*
X1423812Y1580055D01*
X1449304Y1617092D02*
X1447804Y1612594D01*
X1443306Y1609595D01*
X1435808Y1608095D01*
X1431310D01*
X1423812Y1609595D01*
X1419314Y1612594D01*
X1417814Y1617092D01*
Y1620091D01*
X1419314Y1624590D01*
X1423812Y1627589D01*
X1431310Y1629088D01*
X1435808D01*
X1443306Y1627589D01*
X1447804Y1624590D01*
X1449304Y1620091D01*
Y1617092D01*
X901961Y1980312D02*
Y1948822D01*
Y1980312D02*
X888465D01*
X883967Y1978812D01*
X882467Y1977313D01*
X880968Y1974314D01*
Y1971315D01*
X882467Y1968316D01*
X883967Y1966816D01*
X888465Y1965317D01*
X901961D01*
X891464D02*
X880968Y1948822D01*
X858925Y1980312D02*
X873920Y1959319D01*
X851428D01*
X858925Y1980312D02*
Y1948822D01*
X826386Y1969815D02*
X827886Y1965317D01*
X830885Y1962318D01*
X835383Y1960818D01*
X836883D01*
X841381Y1962318D01*
X844380Y1965317D01*
X845880Y1969815D01*
Y1971315D01*
X844380Y1975813D01*
X841381Y1978812D01*
X836883Y1980312D01*
X835383D01*
X830885Y1978812D01*
X827886Y1975813D01*
X826386Y1969815D01*
Y1962318D01*
X827886Y1954820D01*
X830885Y1950322D01*
X835383Y1948822D01*
X838382D01*
X842880Y1950322D01*
X844380Y1953321D01*
X263931Y1830705D02*
Y1799216D01*
Y1830705D02*
X250435D01*
X245937Y1829206D01*
X244437Y1827706D01*
X242938Y1824707D01*
Y1821708D01*
X244437Y1818709D01*
X245937Y1817210D01*
X250435Y1815710D01*
X263931D01*
X253434D02*
X242938Y1799216D01*
X220895Y1830705D02*
X235890Y1809713D01*
X213398D01*
X220895Y1830705D02*
Y1799216D01*
X200352Y1830705D02*
X204851Y1829206D01*
X206350Y1826207D01*
Y1823208D01*
X204851Y1820209D01*
X201852Y1818709D01*
X195854Y1817210D01*
X191355Y1815710D01*
X188356Y1812711D01*
X186857Y1809713D01*
Y1805214D01*
X188356Y1802215D01*
X189856Y1800716D01*
X194354Y1799216D01*
X200352D01*
X204851Y1800716D01*
X206350Y1802215D01*
X207850Y1805214D01*
Y1809713D01*
X206350Y1812711D01*
X203351Y1815710D01*
X198853Y1817210D01*
X192855Y1818709D01*
X189856Y1820209D01*
X188356Y1823208D01*
Y1826207D01*
X189856Y1829206D01*
X194354Y1830705D01*
X200352D01*
X849241Y1408461D02*
Y1376972D01*
Y1408461D02*
X835746D01*
X831248Y1406962D01*
X829748Y1405462D01*
X828249Y1402463D01*
Y1399464D01*
X829748Y1396465D01*
X831248Y1394966D01*
X835746Y1393466D01*
X849241D01*
X838745D02*
X828249Y1376972D01*
X806206Y1408461D02*
X821201Y1387468D01*
X798709D01*
X806206Y1408461D02*
Y1376972D01*
X772168Y1408461D02*
X787163Y1376972D01*
X793160Y1408461D02*
X772168D01*
X849241Y1557083D02*
Y1525594D01*
Y1557083D02*
X835746D01*
X831248Y1555584D01*
X829748Y1554084D01*
X828249Y1551085D01*
Y1548086D01*
X829748Y1545087D01*
X831248Y1543588D01*
X835746Y1542088D01*
X849241D01*
X838745D02*
X828249Y1525594D01*
X806206Y1557083D02*
X821201Y1536090D01*
X798709D01*
X806206Y1557083D02*
Y1525594D01*
X775167Y1552585D02*
X776666Y1555584D01*
X781165Y1557083D01*
X784163D01*
X788662Y1555584D01*
X791661Y1551085D01*
X793160Y1543588D01*
Y1536090D01*
X791661Y1530092D01*
X788662Y1527093D01*
X784163Y1525594D01*
X782664D01*
X778166Y1527093D01*
X775167Y1530092D01*
X773667Y1534591D01*
Y1536090D01*
X775167Y1540589D01*
X778166Y1543588D01*
X782664Y1545087D01*
X784163D01*
X788662Y1543588D01*
X791661Y1540589D01*
X793160Y1536090D01*
X1058222Y2147635D02*
Y2116145D01*
Y2147635D02*
X1044726D01*
X1040228Y2146135D01*
X1038728Y2144635D01*
X1037229Y2141637D01*
Y2138637D01*
X1038728Y2135639D01*
X1040228Y2134139D01*
X1044726Y2132640D01*
X1058222D01*
X1047725D02*
X1037229Y2116145D01*
X1015187Y2147635D02*
X1030181Y2126642D01*
X1007689D01*
X1015187Y2147635D02*
Y2116145D01*
X984147Y2147635D02*
X999142D01*
X1000641Y2134139D01*
X999142Y2135639D01*
X994643Y2137138D01*
X990145D01*
X985646Y2135639D01*
X982648Y2132640D01*
X981148Y2128141D01*
Y2125142D01*
X982648Y2120644D01*
X985646Y2117645D01*
X990145Y2116145D01*
X994643D01*
X999142Y2117645D01*
X1000641Y2119144D01*
X1002141Y2122143D01*
X1141083Y3116138D02*
Y3084649D01*
Y3116138D02*
X1127587D01*
X1123089Y3114639D01*
X1121589Y3113139D01*
X1120090Y3110140D01*
Y3107141D01*
X1121589Y3104142D01*
X1123089Y3102643D01*
X1127587Y3101143D01*
X1141083D01*
X1130586D02*
X1120090Y3084649D01*
X1098047Y3116138D02*
X1113042Y3095146D01*
X1090550D01*
X1098047Y3116138D02*
Y3084649D01*
X1070007Y3116138D02*
X1085002Y3095146D01*
X1062509D01*
X1070007Y3116138D02*
Y3084649D01*
X380072Y3114170D02*
Y3082680D01*
Y3114170D02*
X366577D01*
X362078Y3112670D01*
X360579Y3111171D01*
X359079Y3108172D01*
Y3105173D01*
X360579Y3102174D01*
X362078Y3100674D01*
X366577Y3099175D01*
X380072D01*
X369576D02*
X359079Y3082680D01*
X337037Y3114170D02*
X352032Y3093177D01*
X329539D01*
X337037Y3114170D02*
Y3082680D01*
X320992Y3114170D02*
X304498D01*
X313495Y3102174D01*
X308996D01*
X305997Y3100674D01*
X304498Y3099175D01*
X302998Y3094676D01*
Y3091677D01*
X304498Y3087179D01*
X307497Y3084180D01*
X311995Y3082680D01*
X316494D01*
X320992Y3084180D01*
X322492Y3085680D01*
X323991Y3088678D01*
X586611Y779434D02*
X555122D01*
X586611D02*
Y792929D01*
X585111Y797428D01*
X583612Y798927D01*
X580613Y800427D01*
X577614D01*
X574615Y798927D01*
X573115Y797428D01*
X571616Y792929D01*
Y779434D01*
Y789930D02*
X555122Y800427D01*
X586611Y822469D02*
X565618Y807474D01*
Y829967D01*
X586611Y822469D02*
X555122D01*
X579114Y837014D02*
X580613D01*
X583612Y838514D01*
X585111Y840013D01*
X586611Y843012D01*
Y849010D01*
X585111Y852009D01*
X583612Y853509D01*
X580613Y855008D01*
X577614D01*
X574615Y853509D01*
X570116Y850510D01*
X555122Y835515D01*
Y856508D01*
X535430Y779434D02*
X503940D01*
X535430D02*
Y792929D01*
X533930Y797428D01*
X532431Y798927D01*
X529432Y800427D01*
X526433D01*
X523434Y798927D01*
X521934Y797428D01*
X520435Y792929D01*
Y779434D01*
Y789930D02*
X503940Y800427D01*
X535430Y822469D02*
X514437Y807474D01*
Y829967D01*
X535430Y822469D02*
X503940D01*
X529432Y835515D02*
X530931Y838514D01*
X535430Y843012D01*
X503940D01*
X1141083Y3304131D02*
Y3272641D01*
Y3304131D02*
X1127587D01*
X1123089Y3302631D01*
X1121589Y3301131D01*
X1120090Y3298133D01*
Y3295133D01*
X1121589Y3292135D01*
X1123089Y3290635D01*
X1127587Y3289135D01*
X1141083D01*
X1130586D02*
X1120090Y3272641D01*
X1110043Y3304131D02*
X1093549D01*
X1102546Y3292135D01*
X1098047D01*
X1095048Y3290635D01*
X1093549Y3289135D01*
X1092049Y3284637D01*
Y3281638D01*
X1093549Y3277140D01*
X1096548Y3274141D01*
X1101046Y3272641D01*
X1105545D01*
X1110043Y3274141D01*
X1111543Y3275640D01*
X1113042Y3278639D01*
X1064009Y3304131D02*
X1079004Y3272641D01*
X1085002Y3304131D02*
X1064009D01*
X519511Y3352359D02*
Y3320870D01*
Y3352359D02*
X506015D01*
X501517Y3350860D01*
X500017Y3349360D01*
X498518Y3346361D01*
Y3343362D01*
X500017Y3340363D01*
X501517Y3338863D01*
X506015Y3337364D01*
X519511D01*
X509014D02*
X498518Y3320870D01*
X488471Y3352359D02*
X471977D01*
X480974Y3340363D01*
X476476D01*
X473476Y3338863D01*
X471977Y3337364D01*
X470478Y3332865D01*
Y3329867D01*
X471977Y3325368D01*
X474976Y3322369D01*
X479474Y3320870D01*
X483973D01*
X488471Y3322369D01*
X489971Y3323869D01*
X491470Y3326868D01*
X445436Y3347860D02*
X446935Y3350860D01*
X451434Y3352359D01*
X454433D01*
X458931Y3350860D01*
X461930Y3346361D01*
X463430Y3338863D01*
Y3331366D01*
X461930Y3325368D01*
X458931Y3322369D01*
X454433Y3320870D01*
X452933D01*
X448435Y3322369D01*
X445436Y3325368D01*
X443937Y3329867D01*
Y3331366D01*
X445436Y3335865D01*
X448435Y3338863D01*
X452933Y3340363D01*
X454433D01*
X458931Y3338863D01*
X461930Y3335865D01*
X463430Y3331366D01*
X1141083Y3049209D02*
Y3017720D01*
Y3049209D02*
X1127587D01*
X1123089Y3047710D01*
X1121589Y3046210D01*
X1120090Y3043211D01*
Y3040212D01*
X1121589Y3037213D01*
X1123089Y3035714D01*
X1127587Y3034214D01*
X1141083D01*
X1130586D02*
X1120090Y3017720D01*
X1110043Y3049209D02*
X1093549D01*
X1102546Y3037213D01*
X1098047D01*
X1095048Y3035714D01*
X1093549Y3034214D01*
X1092049Y3029716D01*
Y3026717D01*
X1093549Y3022218D01*
X1096548Y3019219D01*
X1101046Y3017720D01*
X1105545D01*
X1110043Y3019219D01*
X1111543Y3020719D01*
X1113042Y3023718D01*
X1067008Y3049209D02*
X1082003D01*
X1083502Y3035714D01*
X1082003Y3037213D01*
X1077504Y3038713D01*
X1073006D01*
X1068507Y3037213D01*
X1065508Y3034214D01*
X1064009Y3029716D01*
Y3026717D01*
X1065508Y3022218D01*
X1068507Y3019219D01*
X1073006Y3017720D01*
X1077504D01*
X1082003Y3019219D01*
X1083502Y3020719D01*
X1085002Y3023718D01*
X908680Y3663383D02*
Y3631893D01*
Y3663383D02*
X895185D01*
X890687Y3661883D01*
X889187Y3660383D01*
X887688Y3657385D01*
Y3654385D01*
X889187Y3651387D01*
X890687Y3649887D01*
X895185Y3648387D01*
X908680D01*
X898184D02*
X887688Y3631893D01*
X877641Y3663383D02*
X861146D01*
X870143Y3651387D01*
X865645D01*
X862646Y3649887D01*
X861146Y3648387D01*
X859647Y3643889D01*
Y3640890D01*
X861146Y3636392D01*
X864145Y3633393D01*
X868644Y3631893D01*
X873142D01*
X877641Y3633393D01*
X879140Y3634892D01*
X880640Y3637891D01*
X837605Y3663383D02*
X852599Y3642390D01*
X830107D01*
X837605Y3663383D02*
Y3631893D01*
X519511Y3181099D02*
Y3149610D01*
Y3181099D02*
X506015D01*
X501517Y3179600D01*
X500017Y3178100D01*
X498518Y3175101D01*
Y3172102D01*
X500017Y3169103D01*
X501517Y3167604D01*
X506015Y3166104D01*
X519511D01*
X509014D02*
X498518Y3149610D01*
X488471Y3181099D02*
X471977D01*
X480974Y3169103D01*
X476476D01*
X473476Y3167604D01*
X471977Y3166104D01*
X470478Y3161606D01*
Y3158607D01*
X471977Y3154108D01*
X474976Y3151109D01*
X479474Y3149610D01*
X483973D01*
X488471Y3151109D01*
X489971Y3152609D01*
X491470Y3155608D01*
X460431Y3181099D02*
X443937D01*
X452933Y3169103D01*
X448435D01*
X445436Y3167604D01*
X443937Y3166104D01*
X442437Y3161606D01*
Y3158607D01*
X443937Y3154108D01*
X446935Y3151109D01*
X451434Y3149610D01*
X455932D01*
X460431Y3151109D01*
X461930Y3152609D01*
X463430Y3155608D01*
X519511Y3237201D02*
Y3205712D01*
Y3237201D02*
X506015D01*
X501517Y3235702D01*
X500017Y3234202D01*
X498518Y3231203D01*
Y3228204D01*
X500017Y3225205D01*
X501517Y3223706D01*
X506015Y3222206D01*
X519511D01*
X509014D02*
X498518Y3205712D01*
X488471Y3237201D02*
X471977D01*
X480974Y3225205D01*
X476476D01*
X473476Y3223706D01*
X471977Y3222206D01*
X470478Y3217708D01*
Y3214709D01*
X471977Y3210211D01*
X474976Y3207211D01*
X479474Y3205712D01*
X483973D01*
X488471Y3207211D01*
X489971Y3208711D01*
X491470Y3211710D01*
X461930Y3229704D02*
Y3231203D01*
X460431Y3234202D01*
X458931Y3235702D01*
X455932Y3237201D01*
X449935D01*
X446935Y3235702D01*
X445436Y3234202D01*
X443937Y3231203D01*
Y3228204D01*
X445436Y3225205D01*
X448435Y3220707D01*
X463430Y3205712D01*
X442437D01*
X1174209Y3470081D02*
X1142720D01*
X1174209D02*
Y3483577D01*
X1172710Y3488075D01*
X1171210Y3489575D01*
X1168211Y3491074D01*
X1165212D01*
X1162213Y3489575D01*
X1160714Y3488075D01*
X1159214Y3483577D01*
Y3470081D01*
Y3480578D02*
X1142720Y3491074D01*
X1174209Y3501121D02*
Y3517615D01*
X1162213Y3508618D01*
Y3513117D01*
X1160714Y3516116D01*
X1159214Y3517615D01*
X1154716Y3519115D01*
X1151717D01*
X1147218Y3517615D01*
X1144219Y3514616D01*
X1142720Y3510118D01*
Y3505619D01*
X1144219Y3501121D01*
X1145719Y3499621D01*
X1148718Y3498122D01*
X1168211Y3526162D02*
X1169711Y3529161D01*
X1174209Y3533660D01*
X1142720D01*
X764250Y1157477D02*
Y1125988D01*
Y1157477D02*
X750754D01*
X746256Y1155977D01*
X744756Y1154478D01*
X743257Y1151479D01*
Y1148480D01*
X744756Y1145481D01*
X746256Y1143982D01*
X750754Y1142482D01*
X764250D01*
X753753D02*
X743257Y1125988D01*
X733210Y1157477D02*
X716716D01*
X725713Y1145481D01*
X721214D01*
X718215Y1143982D01*
X716716Y1142482D01*
X715216Y1137984D01*
Y1134985D01*
X716716Y1130486D01*
X719715Y1127487D01*
X724213Y1125988D01*
X728712D01*
X733210Y1127487D01*
X734710Y1128987D01*
X736209Y1131986D01*
X699172Y1157477D02*
X703670Y1155977D01*
X706669Y1151479D01*
X708169Y1143982D01*
Y1139483D01*
X706669Y1131986D01*
X703670Y1127487D01*
X699172Y1125988D01*
X696173D01*
X691674Y1127487D01*
X688675Y1131986D01*
X687176Y1139483D01*
Y1143982D01*
X688675Y1151479D01*
X691674Y1155977D01*
X696173Y1157477D01*
X699172D01*
X1231296Y3470081D02*
X1199807D01*
X1231296D02*
Y3483577D01*
X1229796Y3488075D01*
X1228297Y3489575D01*
X1225298Y3491074D01*
X1222299D01*
X1219300Y3489575D01*
X1217801Y3488075D01*
X1216301Y3483577D01*
Y3470081D01*
Y3480578D02*
X1199807Y3491074D01*
X1223799Y3499621D02*
X1225298D01*
X1228297Y3501121D01*
X1229796Y3502620D01*
X1231296Y3505619D01*
Y3511617D01*
X1229796Y3514616D01*
X1228297Y3516116D01*
X1225298Y3517615D01*
X1222299D01*
X1219300Y3516116D01*
X1214802Y3513117D01*
X1199807Y3498122D01*
Y3519115D01*
X1220800Y3545656D02*
X1216301Y3544156D01*
X1213302Y3541157D01*
X1211803Y3536659D01*
Y3535159D01*
X1213302Y3530661D01*
X1216301Y3527662D01*
X1220800Y3526162D01*
X1222299D01*
X1226797Y3527662D01*
X1229796Y3530661D01*
X1231296Y3535159D01*
Y3536659D01*
X1229796Y3541157D01*
X1226797Y3544156D01*
X1220800Y3545656D01*
X1213302D01*
X1205805Y3544156D01*
X1201306Y3541157D01*
X1199807Y3536659D01*
Y3533660D01*
X1201306Y3529161D01*
X1204305Y3527662D01*
X1058222Y2258855D02*
Y2227366D01*
Y2258855D02*
X1044726D01*
X1040228Y2257356D01*
X1038728Y2255856D01*
X1037229Y2252857D01*
Y2249858D01*
X1038728Y2246859D01*
X1040228Y2245360D01*
X1044726Y2243860D01*
X1058222D01*
X1047725D02*
X1037229Y2227366D01*
X1028682Y2251358D02*
Y2252857D01*
X1027182Y2255856D01*
X1025683Y2257356D01*
X1022684Y2258855D01*
X1016686D01*
X1013687Y2257356D01*
X1012188Y2255856D01*
X1010688Y2252857D01*
Y2249858D01*
X1012188Y2246859D01*
X1015187Y2242360D01*
X1030181Y2227366D01*
X1009188D01*
X994643Y2258855D02*
X999142Y2257356D01*
X1000641Y2254356D01*
Y2251358D01*
X999142Y2248358D01*
X996143Y2246859D01*
X990145Y2245360D01*
X985646Y2243860D01*
X982648Y2240861D01*
X981148Y2237862D01*
Y2233364D01*
X982648Y2230365D01*
X984147Y2228865D01*
X988645Y2227366D01*
X994643D01*
X999142Y2228865D01*
X1000641Y2230365D01*
X1002141Y2233364D01*
Y2237862D01*
X1000641Y2240861D01*
X997642Y2243860D01*
X993144Y2245360D01*
X987146Y2246859D01*
X984147Y2248358D01*
X982648Y2251358D01*
Y2254356D01*
X984147Y2257356D01*
X988645Y2258855D01*
X994643D01*
X530409Y1035430D02*
Y1003940D01*
Y1035430D02*
X516914D01*
X512415Y1033930D01*
X510916Y1032431D01*
X509416Y1029432D01*
Y1026433D01*
X510916Y1023434D01*
X512415Y1021934D01*
X516914Y1020435D01*
X530409D01*
X519913D02*
X509416Y1003940D01*
X500869Y1027932D02*
Y1029432D01*
X499370Y1032431D01*
X497870Y1033930D01*
X494871Y1035430D01*
X488873D01*
X485874Y1033930D01*
X484375Y1032431D01*
X482875Y1029432D01*
Y1026433D01*
X484375Y1023434D01*
X487374Y1018935D01*
X502369Y1003940D01*
X481376D01*
X456334Y1030931D02*
X457834Y1033930D01*
X462332Y1035430D01*
X465331D01*
X469830Y1033930D01*
X472829Y1029432D01*
X474328Y1021934D01*
Y1014437D01*
X472829Y1008439D01*
X469830Y1005440D01*
X465331Y1003940D01*
X463832D01*
X459333Y1005440D01*
X456334Y1008439D01*
X454835Y1012937D01*
Y1014437D01*
X456334Y1018935D01*
X459333Y1021934D01*
X463832Y1023434D01*
X465331D01*
X469830Y1021934D01*
X472829Y1018935D01*
X474328Y1014437D01*
X1267713Y296109D02*
X1236224D01*
X1267713D02*
Y309604D01*
X1266214Y314103D01*
X1264714Y315602D01*
X1261715Y317102D01*
X1258716D01*
X1255717Y315602D01*
X1254218Y314103D01*
X1252718Y309604D01*
Y296109D01*
Y306605D02*
X1236224Y317102D01*
X1260216Y325649D02*
X1261715D01*
X1264714Y327148D01*
X1266214Y328648D01*
X1267713Y331647D01*
Y337645D01*
X1266214Y340644D01*
X1264714Y342143D01*
X1261715Y343643D01*
X1258716D01*
X1255717Y342143D01*
X1251219Y339144D01*
X1236224Y324149D01*
Y345142D01*
X1267713Y370184D02*
Y355189D01*
X1254218Y353689D01*
X1255717Y355189D01*
X1257217Y359687D01*
Y364186D01*
X1255717Y368684D01*
X1252718Y371683D01*
X1248220Y373183D01*
X1245221D01*
X1240722Y371683D01*
X1237723Y368684D01*
X1236224Y364186D01*
Y359687D01*
X1237723Y355189D01*
X1239223Y353689D01*
X1242222Y352190D01*
X799167Y814957D02*
Y783468D01*
Y814957D02*
X785671D01*
X781173Y813458D01*
X779673Y811958D01*
X778174Y808959D01*
Y805960D01*
X779673Y802961D01*
X781173Y801462D01*
X785671Y799962D01*
X799167D01*
X788670D02*
X778174Y783468D01*
X769627Y807460D02*
Y808959D01*
X768127Y811958D01*
X766628Y813458D01*
X763629Y814957D01*
X757631D01*
X754632Y813458D01*
X753132Y811958D01*
X751633Y808959D01*
Y805960D01*
X753132Y802961D01*
X756131Y798463D01*
X771126Y783468D01*
X750133D01*
X740087Y814957D02*
X723592D01*
X732589Y802961D01*
X728091D01*
X725092Y801462D01*
X723592Y799962D01*
X722093Y795464D01*
Y792465D01*
X723592Y787966D01*
X726591Y784967D01*
X731090Y783468D01*
X735588D01*
X740087Y784967D01*
X741586Y786467D01*
X743086Y789466D01*
X973576Y635823D02*
Y604334D01*
Y635823D02*
X960081D01*
X955582Y634324D01*
X954083Y632824D01*
X952583Y629825D01*
Y626826D01*
X954083Y623827D01*
X955582Y622328D01*
X960081Y620828D01*
X973576D01*
X963080D02*
X952583Y604334D01*
X944036Y628326D02*
Y629825D01*
X942537Y632824D01*
X941037Y634324D01*
X938038Y635823D01*
X932040D01*
X929041Y634324D01*
X927542Y632824D01*
X926042Y629825D01*
Y626826D01*
X927542Y623827D01*
X930541Y619329D01*
X945536Y604334D01*
X924543D01*
X915996Y628326D02*
Y629825D01*
X914496Y632824D01*
X912997Y634324D01*
X909998Y635823D01*
X904000D01*
X901001Y634324D01*
X899501Y632824D01*
X898002Y629825D01*
Y626826D01*
X899501Y623827D01*
X902500Y619329D01*
X917495Y604334D01*
X896502D01*
X15745Y3216242D02*
X-15745D01*
X15745D02*
Y3229738D01*
X14245Y3234236D01*
X12746Y3235736D01*
X9747Y3237235D01*
X6748D01*
X3749Y3235736D01*
X2249Y3234236D01*
X750Y3229738D01*
Y3216242D01*
Y3226739D02*
X-15745Y3237235D01*
X8247Y3245782D02*
X9747D01*
X12746Y3247282D01*
X14245Y3248781D01*
X15745Y3251780D01*
Y3257778D01*
X14245Y3260777D01*
X12746Y3262277D01*
X9747Y3263776D01*
X6748D01*
X3749Y3262277D01*
X-750Y3259278D01*
X-15745Y3244283D01*
Y3265276D01*
X9747Y3272323D02*
X11246Y3275322D01*
X15745Y3279821D01*
X-15745D01*
X15745Y2748152D02*
X-15745D01*
X15745D02*
Y2761647D01*
X14245Y2766146D01*
X12746Y2767645D01*
X9747Y2769144D01*
X6748D01*
X3749Y2767645D01*
X2249Y2766146D01*
X750Y2761647D01*
Y2748152D01*
Y2758648D02*
X-15745Y2769144D01*
X9747Y2776192D02*
X11246Y2779191D01*
X15745Y2783690D01*
X-15745D01*
X5248Y2818778D02*
X750Y2817278D01*
X-2249Y2814279D01*
X-3749Y2809781D01*
Y2808281D01*
X-2249Y2803783D01*
X750Y2800784D01*
X5248Y2799284D01*
X6748D01*
X11246Y2800784D01*
X14245Y2803783D01*
X15745Y2808281D01*
Y2809781D01*
X14245Y2814279D01*
X11246Y2817278D01*
X5248Y2818778D01*
X-2249D01*
X-9747Y2817278D01*
X-14245Y2814279D01*
X-15745Y2809781D01*
Y2806782D01*
X-14245Y2802283D01*
X-11246Y2800784D01*
X1070863Y53498D02*
X1039373D01*
X1070863D02*
Y66993D01*
X1069363Y71492D01*
X1067864Y72991D01*
X1064865Y74490D01*
X1061866D01*
X1058867Y72991D01*
X1057367Y71492D01*
X1055868Y66993D01*
Y53498D01*
Y63994D02*
X1039373Y74490D01*
X1064865Y81538D02*
X1066364Y84537D01*
X1070863Y89036D01*
X1039373D01*
X1070863Y125623D02*
X1039373Y110628D01*
X1070863Y104630D02*
Y125623D01*
X1553146Y3079913D02*
X1521657D01*
X1553146D02*
Y3093408D01*
X1551647Y3097907D01*
X1550147Y3099406D01*
X1547148Y3100906D01*
X1544149D01*
X1541150Y3099406D01*
X1539651Y3097907D01*
X1538151Y3093408D01*
Y3079913D01*
Y3090409D02*
X1521657Y3100906D01*
X1547148Y3107953D02*
X1548648Y3110952D01*
X1553146Y3115451D01*
X1521657D01*
X1548648Y3149039D02*
X1551647Y3147540D01*
X1553146Y3143041D01*
Y3140043D01*
X1551647Y3135544D01*
X1547148Y3132545D01*
X1539651Y3131046D01*
X1532153D01*
X1526155Y3132545D01*
X1523156Y3135544D01*
X1521657Y3140043D01*
Y3141542D01*
X1523156Y3146041D01*
X1526155Y3149039D01*
X1530654Y3150539D01*
X1532153D01*
X1536652Y3149039D01*
X1539651Y3146041D01*
X1541150Y3141542D01*
Y3140043D01*
X1539651Y3135544D01*
X1536652Y3132545D01*
X1532153Y3131046D01*
X1726374Y3079913D02*
X1694885D01*
X1726374D02*
Y3093408D01*
X1724875Y3097907D01*
X1723376Y3099406D01*
X1720377Y3100906D01*
X1717378D01*
X1714379Y3099406D01*
X1712879Y3097907D01*
X1711380Y3093408D01*
Y3079913D01*
Y3090409D02*
X1694885Y3100906D01*
X1720377Y3107953D02*
X1721876Y3110952D01*
X1726374Y3115451D01*
X1694885D01*
X1726374Y3149039D02*
Y3134044D01*
X1712879Y3132545D01*
X1714379Y3134044D01*
X1715878Y3138543D01*
Y3143041D01*
X1714379Y3147540D01*
X1711380Y3150539D01*
X1706881Y3152038D01*
X1703882D01*
X1699384Y3150539D01*
X1696385Y3147540D01*
X1694885Y3143041D01*
Y3138543D01*
X1696385Y3134044D01*
X1697884Y3132545D01*
X1700883Y3131046D01*
X801178Y2808660D02*
X769688D01*
X801178D02*
Y2822155D01*
X799678Y2826654D01*
X798179Y2828153D01*
X795180Y2829653D01*
X792181D01*
X789182Y2828153D01*
X787682Y2826654D01*
X786183Y2822155D01*
Y2808660D01*
Y2819156D02*
X769688Y2829653D01*
X795180Y2836700D02*
X796679Y2839699D01*
X801178Y2844198D01*
X769688D01*
X801178Y2874787D02*
X780185Y2859793D01*
Y2882285D01*
X801178Y2874787D02*
X769688D01*
X215206Y2752949D02*
Y2721460D01*
Y2752949D02*
X201711D01*
X197212Y2751450D01*
X195713Y2749950D01*
X194213Y2746951D01*
Y2743952D01*
X195713Y2740953D01*
X197212Y2739454D01*
X201711Y2737954D01*
X215206D01*
X204710D02*
X194213Y2721460D01*
X187166Y2746951D02*
X184167Y2748451D01*
X179668Y2752949D01*
Y2721460D01*
X161075Y2752949D02*
X144580D01*
X153577Y2740953D01*
X149079D01*
X146080Y2739454D01*
X144580Y2737954D01*
X143081Y2733456D01*
Y2730457D01*
X144580Y2725959D01*
X147579Y2722959D01*
X152078Y2721460D01*
X156576D01*
X161075Y2722959D01*
X162574Y2724459D01*
X164074Y2727458D01*
X1714700Y2935036D02*
Y2903547D01*
Y2935036D02*
X1701205D01*
X1696707Y2933537D01*
X1695207Y2932037D01*
X1693708Y2929038D01*
Y2926039D01*
X1695207Y2923040D01*
X1696707Y2921541D01*
X1701205Y2920041D01*
X1714700D01*
X1704204D02*
X1693708Y2903547D01*
X1686660Y2929038D02*
X1683661Y2930537D01*
X1679162Y2935036D01*
Y2903547D01*
X1662068Y2927539D02*
Y2929038D01*
X1660569Y2932037D01*
X1659069Y2933537D01*
X1656070Y2935036D01*
X1650072D01*
X1647073Y2933537D01*
X1645574Y2932037D01*
X1644074Y2929038D01*
Y2926039D01*
X1645574Y2923040D01*
X1648573Y2918541D01*
X1663568Y2903547D01*
X1642575D01*
X1129918Y53498D02*
X1098429D01*
X1129918D02*
Y66993D01*
X1128418Y71491D01*
X1126919Y72991D01*
X1123920Y74490D01*
X1120921D01*
X1117922Y72991D01*
X1116422Y71491D01*
X1114923Y66993D01*
Y53498D01*
Y63994D02*
X1098429Y74490D01*
X1123920Y81538D02*
X1125419Y84537D01*
X1129918Y89035D01*
X1098429D01*
X1123920Y104630D02*
X1125419Y107629D01*
X1129918Y112128D01*
X1098429D01*
X749012Y2809410D02*
X717523D01*
X749012D02*
Y2822905D01*
X747513Y2827403D01*
X746013Y2828903D01*
X743014Y2830403D01*
X740015D01*
X737016Y2828903D01*
X735517Y2827403D01*
X734017Y2822905D01*
Y2809410D01*
Y2819906D02*
X717523Y2830403D01*
X743014Y2837450D02*
X744514Y2840449D01*
X749012Y2844948D01*
X717523D01*
X749012Y2869539D02*
X747513Y2865041D01*
X743014Y2862042D01*
X735517Y2860542D01*
X731018D01*
X723521Y2862042D01*
X719023Y2865041D01*
X717523Y2869539D01*
Y2872538D01*
X719023Y2877037D01*
X723521Y2880036D01*
X731018Y2881535D01*
X735517D01*
X743014Y2880036D01*
X747513Y2877037D01*
X749012Y2872538D01*
Y2869539D01*
X1612201Y3079913D02*
X1580712D01*
X1612201D02*
Y3093408D01*
X1610702Y3097907D01*
X1609202Y3099406D01*
X1606203Y3100906D01*
X1603204D01*
X1600205Y3099406D01*
X1598706Y3097907D01*
X1597206Y3093408D01*
Y3079913D01*
Y3090409D02*
X1580712Y3100906D01*
X1601705Y3127447D02*
X1597206Y3125947D01*
X1594207Y3122948D01*
X1592708Y3118450D01*
Y3116950D01*
X1594207Y3112452D01*
X1597206Y3109453D01*
X1601705Y3107953D01*
X1603204D01*
X1607703Y3109453D01*
X1610702Y3112452D01*
X1612201Y3116950D01*
Y3118450D01*
X1610702Y3122948D01*
X1607703Y3125947D01*
X1601705Y3127447D01*
X1594207D01*
X1586710Y3125947D01*
X1582211Y3122948D01*
X1580712Y3118450D01*
Y3115451D01*
X1582211Y3110952D01*
X1585210Y3109453D01*
X170272Y2784545D02*
X138783D01*
X170272D02*
Y2798040D01*
X168773Y2802539D01*
X167273Y2804038D01*
X164274Y2805538D01*
X161275D01*
X158276Y2804038D01*
X156777Y2802539D01*
X155277Y2798040D01*
Y2784545D01*
Y2795041D02*
X138783Y2805538D01*
X170272Y2820083D02*
X168773Y2815584D01*
X165774Y2814085D01*
X162775D01*
X159776Y2815584D01*
X158276Y2818583D01*
X156777Y2824581D01*
X155277Y2829080D01*
X152278Y2832079D01*
X149280Y2833578D01*
X144781D01*
X141782Y2832079D01*
X140282Y2830579D01*
X138783Y2826081D01*
Y2820083D01*
X140282Y2815584D01*
X141782Y2814085D01*
X144781Y2812585D01*
X149280D01*
X152278Y2814085D01*
X155277Y2817084D01*
X156777Y2821582D01*
X158276Y2827580D01*
X159776Y2830579D01*
X162775Y2832079D01*
X165774D01*
X168773Y2830579D01*
X170272Y2826081D01*
Y2820083D01*
X1088579Y2852359D02*
Y2820869D01*
Y2852359D02*
X1075084D01*
X1070585Y2850859D01*
X1069086Y2849360D01*
X1067586Y2846361D01*
Y2843362D01*
X1069086Y2840363D01*
X1070585Y2838863D01*
X1075084Y2837364D01*
X1088579D01*
X1078083D02*
X1067586Y2820869D01*
X1039546Y2852359D02*
X1054541Y2820869D01*
X1060539Y2852359D02*
X1039546D01*
X473570Y2673225D02*
Y2641736D01*
Y2673225D02*
X460075D01*
X455576Y2671726D01*
X454077Y2670226D01*
X452577Y2667227D01*
Y2664228D01*
X454077Y2661229D01*
X455576Y2659729D01*
X460075Y2658230D01*
X473570D01*
X463074D02*
X452577Y2641736D01*
X427536Y2668727D02*
X429035Y2671726D01*
X433534Y2673225D01*
X436533D01*
X441031Y2671726D01*
X444030Y2667227D01*
X445529Y2659729D01*
Y2652232D01*
X444030Y2646234D01*
X441031Y2643235D01*
X436533Y2641736D01*
X435033D01*
X430535Y2643235D01*
X427536Y2646234D01*
X426036Y2650733D01*
Y2652232D01*
X427536Y2656731D01*
X430535Y2659729D01*
X435033Y2661229D01*
X436533D01*
X441031Y2659729D01*
X444030Y2656731D01*
X445529Y2652232D01*
X1088579Y2911414D02*
Y2879925D01*
Y2911414D02*
X1075084D01*
X1070585Y2909914D01*
X1069086Y2908415D01*
X1067586Y2905416D01*
Y2902417D01*
X1069086Y2899418D01*
X1070585Y2897919D01*
X1075084Y2896419D01*
X1088579D01*
X1078083D02*
X1067586Y2879925D01*
X1042545Y2911414D02*
X1057540D01*
X1059039Y2897919D01*
X1057540Y2899418D01*
X1053041Y2900918D01*
X1048543D01*
X1044044Y2899418D01*
X1041045Y2896419D01*
X1039546Y2891921D01*
Y2888922D01*
X1041045Y2884423D01*
X1044044Y2881424D01*
X1048543Y2879925D01*
X1053041D01*
X1057540Y2881424D01*
X1059039Y2882924D01*
X1060539Y2885923D01*
X226375Y2970562D02*
X194885D01*
X226375D02*
Y2984057D01*
X224875Y2988556D01*
X223376Y2990055D01*
X220377Y2991555D01*
X217378D01*
X214379Y2990055D01*
X212879Y2988556D01*
X211380Y2984057D01*
Y2970562D01*
Y2981058D02*
X194885Y2991555D01*
X226375Y3001601D02*
Y3018096D01*
X214379Y3009099D01*
Y3013597D01*
X212879Y3016596D01*
X211380Y3018096D01*
X206881Y3019595D01*
X203882D01*
X199384Y3018096D01*
X196385Y3015097D01*
X194885Y3010598D01*
Y3006100D01*
X196385Y3001601D01*
X197884Y3000102D01*
X200883Y2998602D01*
X1088579Y2970469D02*
Y2938980D01*
Y2970469D02*
X1075084D01*
X1070585Y2968970D01*
X1069086Y2967470D01*
X1067586Y2964471D01*
Y2961472D01*
X1069086Y2958473D01*
X1070585Y2956974D01*
X1075084Y2955474D01*
X1088579D01*
X1078083D02*
X1067586Y2938980D01*
X1059039Y2962972D02*
Y2964471D01*
X1057540Y2967470D01*
X1056040Y2968970D01*
X1053041Y2970469D01*
X1047043D01*
X1044044Y2968970D01*
X1042545Y2967470D01*
X1041045Y2964471D01*
Y2961472D01*
X1042545Y2958473D01*
X1045544Y2953975D01*
X1060539Y2938980D01*
X1039546D01*
X172241Y2970750D02*
X140751D01*
X172241D02*
Y2984245D01*
X170741Y2988744D01*
X169242Y2990243D01*
X166243Y2991743D01*
X163244D01*
X160245Y2990243D01*
X158745Y2988744D01*
X157246Y2984245D01*
Y2970750D01*
Y2981247D02*
X140751Y2991743D01*
X166243Y2998791D02*
X167742Y3001789D01*
X172241Y3006288D01*
X140751D01*
X1093706Y2391260D02*
X1096705Y2389760D01*
X1099704Y2386761D01*
X1101204Y2383762D01*
X1102703Y2379264D01*
Y2371766D01*
X1101204Y2367268D01*
X1099704Y2364269D01*
X1096705Y2361270D01*
X1093706Y2359771D01*
X1087708D01*
X1084709Y2361270D01*
X1081710Y2364269D01*
X1080211Y2367268D01*
X1078711Y2371766D01*
Y2379264D01*
X1080211Y2383762D01*
X1081710Y2386761D01*
X1084709Y2389760D01*
X1087708Y2391260D01*
X1093706D01*
X1089208Y2365769D02*
X1080211Y2356771D01*
X1056369Y2391260D02*
X1071364Y2370267D01*
X1048871D01*
X1056369Y2391260D02*
Y2359771D01*
X1172675Y2200315D02*
X1175674Y2198816D01*
X1178672Y2195817D01*
X1180172Y2192818D01*
X1181671Y2188319D01*
Y2180822D01*
X1180172Y2176323D01*
X1178672Y2173324D01*
X1175674Y2170325D01*
X1172675Y2168826D01*
X1166677D01*
X1163678Y2170325D01*
X1160679Y2173324D01*
X1159179Y2176323D01*
X1157680Y2180822D01*
Y2188319D01*
X1159179Y2192818D01*
X1160679Y2195817D01*
X1163678Y2198816D01*
X1166677Y2200315D01*
X1172675D01*
X1168176Y2174824D02*
X1159179Y2165827D01*
X1148833Y2192818D02*
Y2194317D01*
X1147333Y2197316D01*
X1145834Y2198816D01*
X1142835Y2200315D01*
X1136837D01*
X1133838Y2198816D01*
X1132338Y2197316D01*
X1130839Y2194317D01*
Y2191318D01*
X1132338Y2188319D01*
X1135337Y2183821D01*
X1150332Y2168826D01*
X1129339D01*
X1788700Y211066D02*
X1757210D01*
Y229060D01*
X1781202Y234008D02*
X1782702D01*
X1785701Y235507D01*
X1787200Y237007D01*
X1788700Y240006D01*
Y246004D01*
X1787200Y249003D01*
X1785701Y250502D01*
X1782702Y252002D01*
X1779703D01*
X1776704Y250502D01*
X1772205Y247503D01*
X1757210Y232508D01*
Y253501D01*
X1455415Y618107D02*
Y586617D01*
X1437421D01*
X1433972Y612109D02*
X1430973Y613608D01*
X1426475Y618107D01*
Y586617D01*
X849241Y1623461D02*
Y1591972D01*
Y1623461D02*
X838745D01*
X834247Y1621962D01*
X831248Y1618963D01*
X829748Y1615964D01*
X828249Y1611465D01*
Y1603968D01*
X829748Y1599469D01*
X831248Y1596470D01*
X834247Y1593471D01*
X838745Y1591972D01*
X849241D01*
X821201Y1617463D02*
X818202Y1618963D01*
X813703Y1623461D01*
Y1591972D01*
X795110Y1623461D02*
X778615D01*
X787612Y1611465D01*
X783114D01*
X780115Y1609966D01*
X778615Y1608466D01*
X777116Y1603968D01*
Y1600969D01*
X778615Y1596470D01*
X781614Y1593471D01*
X786113Y1591972D01*
X790611D01*
X795110Y1593471D01*
X796609Y1594971D01*
X798109Y1597970D01*
X519511Y3114170D02*
Y3082680D01*
Y3114170D02*
X509014D01*
X504516Y3112670D01*
X501517Y3109671D01*
X500017Y3106672D01*
X498518Y3102174D01*
Y3094676D01*
X500017Y3090178D01*
X501517Y3087179D01*
X504516Y3084180D01*
X509014Y3082680D01*
X519511D01*
X491470Y3108172D02*
X488471Y3109671D01*
X483973Y3114170D01*
Y3082680D01*
X466879Y3106672D02*
Y3108172D01*
X465379Y3111171D01*
X463880Y3112670D01*
X460881Y3114170D01*
X454883D01*
X451884Y3112670D01*
X450384Y3111171D01*
X448885Y3108172D01*
Y3105173D01*
X450384Y3102174D01*
X453383Y3097675D01*
X468378Y3082680D01*
X447385D01*
X1141083Y3179131D02*
Y3147641D01*
Y3179131D02*
X1130586D01*
X1126088Y3177631D01*
X1123089Y3174632D01*
X1121589Y3171633D01*
X1120090Y3167135D01*
Y3159637D01*
X1121589Y3155139D01*
X1123089Y3152140D01*
X1126088Y3149141D01*
X1130586Y3147641D01*
X1141083D01*
X1113042Y3173133D02*
X1110043Y3174632D01*
X1105545Y3179131D01*
Y3147641D01*
X1089950Y3173133D02*
X1086951Y3174632D01*
X1082453Y3179131D01*
Y3147641D01*
X1307090Y2567074D02*
X1338579D01*
X1307090D02*
Y2556577D01*
X1308589Y2552079D01*
X1311588Y2549080D01*
X1314587Y2547581D01*
X1319086Y2546081D01*
X1326583D01*
X1331082Y2547581D01*
X1334081Y2549080D01*
X1337080Y2552079D01*
X1338579Y2556577D01*
Y2567074D01*
X1317586Y2519540D02*
X1322085Y2521040D01*
X1325084Y2524039D01*
X1326583Y2528537D01*
Y2530037D01*
X1325084Y2534535D01*
X1322085Y2537534D01*
X1317586Y2539034D01*
X1316087D01*
X1311588Y2537534D01*
X1308589Y2534535D01*
X1307090Y2530037D01*
Y2528537D01*
X1308589Y2524039D01*
X1311588Y2521040D01*
X1317586Y2519540D01*
X1325084D01*
X1332581Y2521040D01*
X1337080Y2524039D01*
X1338579Y2528537D01*
Y2531536D01*
X1337080Y2536035D01*
X1334081Y2537534D01*
X1058222Y2200784D02*
Y2169295D01*
Y2200784D02*
X1047725D01*
X1043227Y2199285D01*
X1040228Y2196286D01*
X1038728Y2193287D01*
X1037229Y2188788D01*
Y2181291D01*
X1038728Y2176792D01*
X1040228Y2173793D01*
X1043227Y2170794D01*
X1047725Y2169295D01*
X1058222D01*
X1009188Y2200784D02*
X1024183Y2169295D01*
X1030181Y2200784D02*
X1009188D01*
X1719485Y453830D02*
X1687996D01*
X1719485D02*
Y464326D01*
X1717986Y468825D01*
X1714986Y471824D01*
X1711987Y473323D01*
X1707489Y474823D01*
X1699992D01*
X1695493Y473323D01*
X1692494Y471824D01*
X1689495Y468825D01*
X1687996Y464326D01*
Y453830D01*
X1711987Y483370D02*
X1713487D01*
X1716486Y484869D01*
X1717986Y486369D01*
X1719485Y489368D01*
Y495366D01*
X1717986Y498365D01*
X1716486Y499864D01*
X1713487Y501364D01*
X1710488D01*
X1707489Y499864D01*
X1702991Y496865D01*
X1687996Y481870D01*
Y502863D01*
X389153Y1532503D02*
X392152Y1531003D01*
X395151Y1528004D01*
X396650Y1525005D01*
Y1519007D01*
X395151Y1516008D01*
X392152Y1513009D01*
X389153Y1511510D01*
X384654Y1510010D01*
X377157D01*
X372658Y1511510D01*
X369659Y1513009D01*
X366660Y1516008D01*
X365161Y1519007D01*
Y1525005D01*
X366660Y1528004D01*
X369659Y1531003D01*
X372658Y1532503D01*
X396650Y1544349D02*
Y1560843D01*
X384654Y1551846D01*
Y1556345D01*
X383155Y1559344D01*
X381655Y1560843D01*
X377157Y1562343D01*
X374158D01*
X369659Y1560843D01*
X366660Y1557844D01*
X365161Y1553346D01*
Y1548847D01*
X366660Y1544349D01*
X368160Y1542849D01*
X371159Y1541350D01*
X396650Y1590383D02*
X365161Y1575388D01*
X396650Y1569390D02*
Y1590383D01*
X1129652Y1719373D02*
X1131151Y1722372D01*
X1134150Y1725371D01*
X1137149Y1726871D01*
X1143147D01*
X1146146Y1725371D01*
X1149145Y1722372D01*
X1150645Y1719373D01*
X1152144Y1714875D01*
Y1707377D01*
X1150645Y1702879D01*
X1149145Y1699880D01*
X1146146Y1696881D01*
X1143147Y1695381D01*
X1137149D01*
X1134150Y1696881D01*
X1131151Y1699880D01*
X1129652Y1702879D01*
X1117806Y1726871D02*
X1101311D01*
X1110308Y1714875D01*
X1105810D01*
X1102811Y1713375D01*
X1101311Y1711876D01*
X1099812Y1707377D01*
Y1704378D01*
X1101311Y1699880D01*
X1104310Y1696881D01*
X1108809Y1695381D01*
X1113307D01*
X1117806Y1696881D01*
X1119305Y1698380D01*
X1120805Y1701379D01*
X1074770Y1722372D02*
X1076270Y1725371D01*
X1080768Y1726871D01*
X1083767D01*
X1088266Y1725371D01*
X1091265Y1720873D01*
X1092764Y1713375D01*
Y1705878D01*
X1091265Y1699880D01*
X1088266Y1696881D01*
X1083767Y1695381D01*
X1082268D01*
X1077769Y1696881D01*
X1074770Y1699880D01*
X1073271Y1704378D01*
Y1705878D01*
X1074770Y1710376D01*
X1077769Y1713375D01*
X1082268Y1714875D01*
X1083767D01*
X1088266Y1713375D01*
X1091265Y1710376D01*
X1092764Y1705878D01*
X638169Y801926D02*
X641168Y800427D01*
X644167Y797428D01*
X645666Y794429D01*
Y788431D01*
X644167Y785432D01*
X641168Y782433D01*
X638169Y780933D01*
X633670Y779434D01*
X626173D01*
X621674Y780933D01*
X618675Y782433D01*
X615676Y785432D01*
X614177Y788431D01*
Y794429D01*
X615676Y797428D01*
X618675Y800427D01*
X621674Y801926D01*
X645666Y813772D02*
Y830267D01*
X633670Y821270D01*
Y825768D01*
X632171Y828767D01*
X630671Y830267D01*
X626173Y831766D01*
X623174D01*
X618675Y830267D01*
X615676Y827268D01*
X614177Y822769D01*
Y818271D01*
X615676Y813772D01*
X617176Y812273D01*
X620175Y810773D01*
X645666Y853809D02*
X624673Y838814D01*
Y861306D01*
X645666Y853809D02*
X614177D01*
X497019Y3288759D02*
X498518Y3291758D01*
X501517Y3294757D01*
X504516Y3296257D01*
X510514D01*
X513513Y3294757D01*
X516512Y3291758D01*
X518011Y3288759D01*
X519511Y3284261D01*
Y3276763D01*
X518011Y3272265D01*
X516512Y3269266D01*
X513513Y3266267D01*
X510514Y3264767D01*
X504516D01*
X501517Y3266267D01*
X498518Y3269266D01*
X497019Y3272265D01*
X485173Y3296257D02*
X468678D01*
X477675Y3284261D01*
X473177D01*
X470178Y3282761D01*
X468678Y3281262D01*
X467179Y3276763D01*
Y3273764D01*
X468678Y3269266D01*
X471677Y3266267D01*
X476176Y3264767D01*
X480674D01*
X485173Y3266267D01*
X486672Y3267766D01*
X488171Y3270765D01*
X457132Y3296257D02*
X440638D01*
X449635Y3284261D01*
X445136D01*
X442137Y3282761D01*
X440638Y3281262D01*
X439138Y3276763D01*
Y3273764D01*
X440638Y3269266D01*
X443637Y3266267D01*
X448135Y3264767D01*
X452634D01*
X457132Y3266267D01*
X458632Y3267766D01*
X460131Y3270765D01*
X1197461Y2544581D02*
X1194462Y2546081D01*
X1191463Y2549080D01*
X1189964Y2552079D01*
Y2558077D01*
X1191463Y2561076D01*
X1194462Y2564075D01*
X1197461Y2565574D01*
X1201960Y2567074D01*
X1209457D01*
X1213956Y2565574D01*
X1216955Y2564075D01*
X1219954Y2561076D01*
X1221453Y2558077D01*
Y2552079D01*
X1219954Y2549080D01*
X1216955Y2546081D01*
X1213956Y2544581D01*
X1189964Y2532735D02*
Y2516241D01*
X1201960Y2525238D01*
Y2520740D01*
X1203459Y2517741D01*
X1204959Y2516241D01*
X1209457Y2514742D01*
X1212456D01*
X1216955Y2516241D01*
X1219954Y2519240D01*
X1221453Y2523739D01*
Y2528237D01*
X1219954Y2532735D01*
X1218454Y2534235D01*
X1215455Y2535735D01*
X1197461Y2506195D02*
X1195962D01*
X1192963Y2504695D01*
X1191463Y2503195D01*
X1189964Y2500197D01*
Y2494199D01*
X1191463Y2491200D01*
X1192963Y2489700D01*
X1195962Y2488201D01*
X1198961D01*
X1201960Y2489700D01*
X1206458Y2492699D01*
X1221453Y2507694D01*
Y2486701D01*
X1582797Y3394074D02*
X1584296Y3397073D01*
X1587295Y3400072D01*
X1590294Y3401572D01*
X1596292D01*
X1599291Y3400072D01*
X1602290Y3397073D01*
X1603790Y3394074D01*
X1605289Y3389575D01*
Y3382078D01*
X1603790Y3377580D01*
X1602290Y3374581D01*
X1599291Y3371582D01*
X1596292Y3370082D01*
X1590294D01*
X1587295Y3371582D01*
X1584296Y3374581D01*
X1582797Y3377580D01*
X1570951Y3401572D02*
X1554456D01*
X1563453Y3389575D01*
X1558955D01*
X1555956Y3388076D01*
X1554456Y3386577D01*
X1552957Y3382078D01*
Y3379079D01*
X1554456Y3374581D01*
X1557455Y3371582D01*
X1561954Y3370082D01*
X1566452D01*
X1570951Y3371582D01*
X1572450Y3373081D01*
X1573950Y3376080D01*
X1545909Y3395573D02*
X1542910Y3397073D01*
X1538412Y3401572D01*
Y3370082D01*
X1159179Y2251358D02*
X1160679Y2254356D01*
X1163678Y2257356D01*
X1166677Y2258855D01*
X1172675D01*
X1175674Y2257356D01*
X1178672Y2254356D01*
X1180172Y2251358D01*
X1181671Y2246859D01*
Y2239361D01*
X1180172Y2234863D01*
X1178672Y2231864D01*
X1175674Y2228865D01*
X1172675Y2227366D01*
X1166677D01*
X1163678Y2228865D01*
X1160679Y2231864D01*
X1159179Y2234863D01*
X1147333Y2258855D02*
X1130839D01*
X1139836Y2246859D01*
X1135337D01*
X1132338Y2245360D01*
X1130839Y2243860D01*
X1129339Y2239361D01*
Y2236363D01*
X1130839Y2231864D01*
X1133838Y2228865D01*
X1138336Y2227366D01*
X1142835D01*
X1147333Y2228865D01*
X1148833Y2230365D01*
X1150332Y2233364D01*
X1113295Y2258855D02*
X1117793Y2257356D01*
X1120792Y2252857D01*
X1122292Y2245360D01*
Y2240861D01*
X1120792Y2233364D01*
X1117793Y2228865D01*
X1113295Y2227366D01*
X1110296D01*
X1105797Y2228865D01*
X1102798Y2233364D01*
X1101299Y2240861D01*
Y2245360D01*
X1102798Y2252857D01*
X1105797Y2257356D01*
X1110296Y2258855D01*
X1113295D01*
X826749Y1474783D02*
X828249Y1477782D01*
X831248Y1480781D01*
X834247Y1482280D01*
X840245D01*
X843244Y1480781D01*
X846242Y1477782D01*
X847742Y1474783D01*
X849241Y1470284D01*
Y1462787D01*
X847742Y1458288D01*
X846242Y1455289D01*
X843244Y1452290D01*
X840245Y1450791D01*
X834247D01*
X831248Y1452290D01*
X828249Y1455289D01*
X826749Y1458288D01*
X816403Y1474783D02*
Y1476282D01*
X814903Y1479281D01*
X813404Y1480781D01*
X810405Y1482280D01*
X804407D01*
X801408Y1480781D01*
X799908Y1479281D01*
X798409Y1476282D01*
Y1473283D01*
X799908Y1470284D01*
X802907Y1465786D01*
X817902Y1450791D01*
X796909D01*
X782364Y1482280D02*
X786863Y1480781D01*
X788362Y1477782D01*
Y1474783D01*
X786863Y1471784D01*
X783864Y1470284D01*
X777866Y1468785D01*
X773367Y1467285D01*
X770368Y1464286D01*
X768869Y1461287D01*
Y1456789D01*
X770368Y1453790D01*
X771868Y1452290D01*
X776366Y1450791D01*
X782364D01*
X786863Y1452290D01*
X788362Y1453790D01*
X789862Y1456789D01*
Y1461287D01*
X788362Y1464286D01*
X785363Y1467285D01*
X780865Y1468785D01*
X774867Y1470284D01*
X771868Y1471784D01*
X770368Y1474783D01*
Y1477782D01*
X771868Y1480781D01*
X776366Y1482280D01*
X782364D01*
X1260216Y194904D02*
X1263215Y193405D01*
X1266214Y190406D01*
X1267713Y187407D01*
Y181409D01*
X1266214Y178410D01*
X1263215Y175411D01*
X1260216Y173911D01*
X1255717Y172412D01*
X1248220D01*
X1243721Y173911D01*
X1240722Y175411D01*
X1237723Y178410D01*
X1236224Y181409D01*
Y187407D01*
X1237723Y190406D01*
X1240722Y193405D01*
X1243721Y194904D01*
X1260216Y205251D02*
X1261715D01*
X1264714Y206750D01*
X1266214Y208250D01*
X1267713Y211249D01*
Y217247D01*
X1266214Y220246D01*
X1264714Y221745D01*
X1261715Y223245D01*
X1258716D01*
X1255717Y221745D01*
X1251219Y218746D01*
X1236224Y203751D01*
Y224744D01*
X1267713Y252785D02*
X1236224Y237790D01*
X1267713Y231792D02*
Y252785D01*
X1738167Y362578D02*
X1739666Y365577D01*
X1742665Y368576D01*
X1745664Y370075D01*
X1751662D01*
X1754661Y368576D01*
X1757660Y365577D01*
X1759159Y362578D01*
X1760659Y358079D01*
Y350582D01*
X1759159Y346084D01*
X1757660Y343084D01*
X1754661Y340086D01*
X1751662Y338586D01*
X1745664D01*
X1742665Y340086D01*
X1739666Y343084D01*
X1738167Y346084D01*
X1727820Y362578D02*
Y364077D01*
X1726321Y367076D01*
X1724821Y368576D01*
X1721822Y370075D01*
X1715824D01*
X1712825Y368576D01*
X1711326Y367076D01*
X1709826Y364077D01*
Y361078D01*
X1711326Y358079D01*
X1714325Y353581D01*
X1729320Y338586D01*
X1708327D01*
X1683285Y370075D02*
X1698280D01*
X1699780Y356580D01*
X1698280Y358079D01*
X1693782Y359579D01*
X1689283D01*
X1684785Y358079D01*
X1681786Y355080D01*
X1680286Y350582D01*
Y347583D01*
X1681786Y343084D01*
X1684785Y340086D01*
X1689283Y338586D01*
X1693782D01*
X1698280Y340086D01*
X1699780Y341585D01*
X1701279Y344584D01*
X1659822Y3102405D02*
X1662821Y3100906D01*
X1665820Y3097907D01*
X1667320Y3094908D01*
Y3088910D01*
X1665820Y3085911D01*
X1662821Y3082912D01*
X1659822Y3081412D01*
X1655324Y3079913D01*
X1647826D01*
X1643328Y3081412D01*
X1640329Y3082912D01*
X1637330Y3085911D01*
X1635830Y3088910D01*
Y3094908D01*
X1637330Y3097907D01*
X1640329Y3100906D01*
X1643328Y3102405D01*
X1659822Y3112752D02*
X1661322D01*
X1664321Y3114251D01*
X1665820Y3115751D01*
X1667320Y3118750D01*
Y3124748D01*
X1665820Y3127747D01*
X1664321Y3129246D01*
X1661322Y3130746D01*
X1658323D01*
X1655324Y3129246D01*
X1650825Y3126247D01*
X1635830Y3111252D01*
Y3132245D01*
X1667320Y3154288D02*
X1646327Y3139293D01*
Y3161785D01*
X1667320Y3154288D02*
X1635830D01*
X216909Y2807037D02*
X219908Y2805538D01*
X222907Y2802539D01*
X224406Y2799540D01*
Y2793542D01*
X222907Y2790543D01*
X219908Y2787544D01*
X216909Y2786044D01*
X212410Y2784545D01*
X204913D01*
X200414Y2786044D01*
X197415Y2787544D01*
X194416Y2790543D01*
X192917Y2793542D01*
Y2799540D01*
X194416Y2802539D01*
X197415Y2805538D01*
X200414Y2807037D01*
X216909Y2817384D02*
X218408D01*
X221407Y2818883D01*
X222907Y2820383D01*
X224406Y2823382D01*
Y2829380D01*
X222907Y2832379D01*
X221407Y2833878D01*
X218408Y2835378D01*
X215409D01*
X212410Y2833878D01*
X207912Y2830879D01*
X192917Y2815884D01*
Y2836877D01*
X224406Y2846924D02*
Y2863418D01*
X212410Y2854421D01*
Y2858920D01*
X210911Y2861919D01*
X209411Y2863418D01*
X204913Y2864918D01*
X201914D01*
X197415Y2863418D01*
X194416Y2860419D01*
X192917Y2855921D01*
Y2851422D01*
X194416Y2846924D01*
X195916Y2845424D01*
X198915Y2843925D01*
X1181476Y75990D02*
X1184475Y74490D01*
X1187474Y71491D01*
X1188973Y68492D01*
Y62495D01*
X1187474Y59495D01*
X1184475Y56496D01*
X1181476Y54997D01*
X1176977Y53498D01*
X1169480D01*
X1164981Y54997D01*
X1161982Y56496D01*
X1158983Y59495D01*
X1157484Y62495D01*
Y68492D01*
X1158983Y71491D01*
X1161982Y74490D01*
X1164981Y75990D01*
X1181476Y86336D02*
X1182975D01*
X1185974Y87836D01*
X1187474Y89335D01*
X1188973Y92334D01*
Y98332D01*
X1187474Y101331D01*
X1185974Y102831D01*
X1182975Y104330D01*
X1179976D01*
X1176977Y102831D01*
X1172479Y99832D01*
X1157484Y84837D01*
Y105830D01*
X1181476Y114377D02*
X1182975D01*
X1185974Y115876D01*
X1187474Y117376D01*
X1188973Y120375D01*
Y126373D01*
X1187474Y129372D01*
X1185974Y130871D01*
X1182975Y132371D01*
X1179976D01*
X1176977Y130871D01*
X1172479Y127872D01*
X1157484Y112877D01*
Y133870D01*
X1260216Y441810D02*
X1263215Y440310D01*
X1266214Y437311D01*
X1267713Y434312D01*
Y428314D01*
X1266214Y425315D01*
X1263215Y422316D01*
X1260216Y420817D01*
X1255717Y419317D01*
X1248220D01*
X1243721Y420817D01*
X1240722Y422316D01*
X1237723Y425315D01*
X1236224Y428314D01*
Y434312D01*
X1237723Y437311D01*
X1240722Y440310D01*
X1243721Y441810D01*
X1260216Y452156D02*
X1261715D01*
X1264714Y453656D01*
X1266214Y455155D01*
X1267713Y458154D01*
Y464152D01*
X1266214Y467151D01*
X1264714Y468651D01*
X1261715Y470150D01*
X1258716D01*
X1255717Y468651D01*
X1251219Y465651D01*
X1236224Y450657D01*
Y471649D01*
X1261715Y478697D02*
X1263215Y481696D01*
X1267713Y486195D01*
X1236224D01*
X1004310Y75990D02*
X1007309Y74490D01*
X1010308Y71492D01*
X1011808Y68493D01*
Y62495D01*
X1010308Y59496D01*
X1007309Y56497D01*
X1004310Y54997D01*
X999812Y53498D01*
X992314D01*
X987816Y54997D01*
X984817Y56497D01*
X981818Y59496D01*
X980318Y62495D01*
Y68493D01*
X981818Y71492D01*
X984817Y74490D01*
X987816Y75990D01*
X1005810Y84837D02*
X1007309Y87836D01*
X1011808Y92335D01*
X980318D01*
X1011808Y115427D02*
X1010308Y110928D01*
X1007309Y109429D01*
X1004310D01*
X1001311Y110928D01*
X999812Y113927D01*
X998312Y119925D01*
X996813Y124424D01*
X993814Y127423D01*
X990815Y128922D01*
X986316D01*
X983317Y127423D01*
X981818Y125923D01*
X980318Y121425D01*
Y115427D01*
X981818Y110928D01*
X983317Y109429D01*
X986316Y107929D01*
X990815D01*
X993814Y109429D01*
X996813Y112428D01*
X998312Y116926D01*
X999812Y122924D01*
X1001311Y125923D01*
X1004310Y127423D01*
X1007309D01*
X1010308Y125923D01*
X1011808Y121425D01*
Y115427D01*
X1081082Y2730843D02*
X1084081Y2729344D01*
X1087080Y2726345D01*
X1088579Y2723346D01*
Y2717348D01*
X1087080Y2714349D01*
X1084081Y2711350D01*
X1081082Y2709850D01*
X1076583Y2708351D01*
X1069086D01*
X1064587Y2709850D01*
X1061588Y2711350D01*
X1058589Y2714349D01*
X1057090Y2717348D01*
Y2723346D01*
X1058589Y2726345D01*
X1061588Y2729344D01*
X1064587Y2730843D01*
X1082581Y2739690D02*
X1084081Y2742689D01*
X1088579Y2747188D01*
X1057090D01*
X1088579Y2783775D02*
X1057090Y2768780D01*
X1088579Y2762782D02*
Y2783775D01*
X593960Y2665727D02*
X595460Y2668727D01*
X598458Y2671726D01*
X601457Y2673225D01*
X607455D01*
X610454Y2671726D01*
X613453Y2668727D01*
X614953Y2665727D01*
X616452Y2661229D01*
Y2653731D01*
X614953Y2649233D01*
X613453Y2646234D01*
X610454Y2643235D01*
X607455Y2641736D01*
X601457D01*
X598458Y2643235D01*
X595460Y2646234D01*
X593960Y2649233D01*
X585113Y2667227D02*
X582114Y2668727D01*
X577615Y2673225D01*
Y2641736D01*
X544027Y2673225D02*
X559022D01*
X560521Y2659729D01*
X559022Y2661229D01*
X554523Y2662729D01*
X550025D01*
X545526Y2661229D01*
X542527Y2658230D01*
X541028Y2653731D01*
Y2650733D01*
X542527Y2646234D01*
X545526Y2643235D01*
X550025Y2641736D01*
X554523D01*
X559022Y2643235D01*
X560521Y2644735D01*
X562021Y2647734D01*
X61480Y1823208D02*
X62979Y1826207D01*
X65978Y1829206D01*
X68977Y1830705D01*
X74975D01*
X77974Y1829206D01*
X80973Y1826207D01*
X82473Y1823208D01*
X83972Y1818709D01*
Y1811212D01*
X82473Y1806714D01*
X80973Y1803715D01*
X77974Y1800716D01*
X74975Y1799216D01*
X68977D01*
X65978Y1800716D01*
X62979Y1803715D01*
X61480Y1806714D01*
X52633Y1824707D02*
X49634Y1826207D01*
X45135Y1830705D01*
Y1799216D01*
X26541Y1830705D02*
X10047D01*
X19044Y1818709D01*
X14546D01*
X11547Y1817210D01*
X10047Y1815710D01*
X8548Y1811212D01*
Y1808213D01*
X10047Y1803715D01*
X13046Y1800716D01*
X17545Y1799216D01*
X22043D01*
X26541Y1800716D01*
X28041Y1802215D01*
X29541Y1805214D01*
X776674Y870452D02*
X778174Y873451D01*
X781173Y876450D01*
X784172Y877949D01*
X790170D01*
X793169Y876450D01*
X796168Y873451D01*
X797667Y870452D01*
X799167Y865953D01*
Y858456D01*
X797667Y853957D01*
X796168Y850958D01*
X793169Y847960D01*
X790170Y846460D01*
X784172D01*
X781173Y847960D01*
X778174Y850958D01*
X776674Y853957D01*
X767827Y871951D02*
X764828Y873451D01*
X760330Y877949D01*
Y846460D01*
X744735Y871951D02*
X741736Y873451D01*
X737238Y877949D01*
Y846460D01*
X654357Y1972814D02*
X655857Y1975813D01*
X658856Y1978812D01*
X661855Y1980312D01*
X667853D01*
X670852Y1978812D01*
X673851Y1975813D01*
X675350Y1972814D01*
X676850Y1968316D01*
Y1960818D01*
X675350Y1956320D01*
X673851Y1953321D01*
X670852Y1950322D01*
X667853Y1948822D01*
X661855D01*
X658856Y1950322D01*
X655857Y1953321D01*
X654357Y1956320D01*
X645510Y1974314D02*
X642511Y1975813D01*
X638013Y1980312D01*
Y1948822D01*
X613421Y1980312D02*
X617920Y1978812D01*
X620919Y1974314D01*
X622418Y1966816D01*
Y1962318D01*
X620919Y1954820D01*
X617920Y1950322D01*
X613421Y1948822D01*
X610422D01*
X605924Y1950322D01*
X602925Y1954820D01*
X601425Y1962318D01*
Y1966816D01*
X602925Y1974314D01*
X605924Y1978812D01*
X610422Y1980312D01*
X613421D01*
X497019Y3402932D02*
X498518Y3405931D01*
X501517Y3408930D01*
X504516Y3410430D01*
X510514D01*
X513513Y3408930D01*
X516512Y3405931D01*
X518011Y3402932D01*
X519511Y3398434D01*
Y3390936D01*
X518011Y3386438D01*
X516512Y3383439D01*
X513513Y3380440D01*
X510514Y3378940D01*
X504516D01*
X501517Y3380440D01*
X498518Y3383439D01*
X497019Y3386438D01*
X468678Y3399933D02*
X470178Y3395435D01*
X473177Y3392436D01*
X477675Y3390936D01*
X479175D01*
X483673Y3392436D01*
X486672Y3395435D01*
X488171Y3399933D01*
Y3401433D01*
X486672Y3405931D01*
X483673Y3408930D01*
X479175Y3410430D01*
X477675D01*
X473177Y3408930D01*
X470178Y3405931D01*
X468678Y3399933D01*
Y3392436D01*
X470178Y3384938D01*
X473177Y3380440D01*
X477675Y3378940D01*
X480674D01*
X485173Y3380440D01*
X486672Y3383439D01*
X1500721Y1399979D02*
X1502220Y1402978D01*
X1505219Y1405977D01*
X1508218Y1407477D01*
X1514216D01*
X1517215Y1405977D01*
X1520214Y1402978D01*
X1521714Y1399979D01*
X1523213Y1395481D01*
Y1387984D01*
X1521714Y1383485D01*
X1520214Y1380486D01*
X1517215Y1377487D01*
X1514216Y1375988D01*
X1508218D01*
X1505219Y1377487D01*
X1502220Y1380486D01*
X1500721Y1383485D01*
X1484376Y1407477D02*
X1488875Y1405977D01*
X1490374Y1402978D01*
Y1399979D01*
X1488875Y1396980D01*
X1485876Y1395481D01*
X1479878Y1393982D01*
X1475380Y1392482D01*
X1472380Y1389483D01*
X1470881Y1386484D01*
Y1381986D01*
X1472380Y1378987D01*
X1473880Y1377487D01*
X1478379Y1375988D01*
X1484376D01*
X1488875Y1377487D01*
X1490374Y1378987D01*
X1491874Y1381986D01*
Y1386484D01*
X1490374Y1389483D01*
X1487375Y1392482D01*
X1482877Y1393982D01*
X1476879Y1395481D01*
X1473880Y1396980D01*
X1472380Y1399979D01*
Y1402978D01*
X1473880Y1405977D01*
X1478379Y1407477D01*
X1484376D01*
X141469Y1483641D02*
X142968Y1486640D01*
X145967Y1489639D01*
X148966Y1491138D01*
X154964D01*
X157963Y1489639D01*
X160962Y1486640D01*
X162462Y1483641D01*
X163961Y1479142D01*
Y1471645D01*
X162462Y1467146D01*
X160962Y1464147D01*
X157963Y1461148D01*
X154964Y1459649D01*
X148966D01*
X145967Y1461148D01*
X142968Y1464147D01*
X141469Y1467146D01*
X111629Y1491138D02*
X126624Y1459649D01*
X132622Y1491138D02*
X111629D01*
X626412Y1694271D02*
X627912Y1697270D01*
X630911Y1700269D01*
X633910Y1701768D01*
X639908D01*
X642907Y1700269D01*
X645906Y1697270D01*
X647405Y1694271D01*
X648905Y1689772D01*
Y1682275D01*
X647405Y1677776D01*
X645906Y1674777D01*
X642907Y1671778D01*
X639908Y1670279D01*
X633910D01*
X630911Y1671778D01*
X627912Y1674777D01*
X626412Y1677776D01*
X599571Y1701768D02*
X614566D01*
X616066Y1688273D01*
X614566Y1689772D01*
X610068Y1691272D01*
X605569D01*
X601071Y1689772D01*
X598072Y1686773D01*
X596572Y1682275D01*
Y1679276D01*
X598072Y1674777D01*
X601071Y1671778D01*
X605569Y1670279D01*
X610068D01*
X614566Y1671778D01*
X616066Y1673278D01*
X617565Y1676277D01*
X1118590Y3358641D02*
X1120090Y3361640D01*
X1123089Y3364639D01*
X1126088Y3366138D01*
X1132086D01*
X1135085Y3364639D01*
X1138084Y3361640D01*
X1139583Y3358641D01*
X1141083Y3354142D01*
Y3346645D01*
X1139583Y3342146D01*
X1138084Y3339148D01*
X1135085Y3336148D01*
X1132086Y3334649D01*
X1126088D01*
X1123089Y3336148D01*
X1120090Y3339148D01*
X1118590Y3342146D01*
X1094748Y3366138D02*
X1109743Y3345146D01*
X1087251D01*
X1094748Y3366138D02*
Y3334649D01*
X515981Y1086987D02*
X517480Y1089986D01*
X520479Y1092985D01*
X523478Y1094485D01*
X529476D01*
X532475Y1092985D01*
X535474Y1089986D01*
X536974Y1086987D01*
X538473Y1082489D01*
Y1074991D01*
X536974Y1070493D01*
X535474Y1067494D01*
X532475Y1064495D01*
X529476Y1062995D01*
X523478D01*
X520479Y1064495D01*
X517480Y1067494D01*
X515981Y1070493D01*
X504135Y1094485D02*
X487640D01*
X496637Y1082489D01*
X492139D01*
X489140Y1080989D01*
X487640Y1079490D01*
X486141Y1074991D01*
Y1071993D01*
X487640Y1067494D01*
X490639Y1064495D01*
X495138Y1062995D01*
X499636D01*
X504135Y1064495D01*
X505634Y1065995D01*
X507134Y1068994D01*
X1129652Y1664255D02*
X1131151Y1667254D01*
X1134150Y1670253D01*
X1137149Y1671753D01*
X1143147D01*
X1146146Y1670253D01*
X1149145Y1667254D01*
X1150645Y1664255D01*
X1152144Y1659757D01*
Y1652259D01*
X1150645Y1647761D01*
X1149145Y1644762D01*
X1146146Y1641763D01*
X1143147Y1640263D01*
X1137149D01*
X1134150Y1641763D01*
X1131151Y1644762D01*
X1129652Y1647761D01*
X1119305Y1664255D02*
Y1665755D01*
X1117806Y1668754D01*
X1116306Y1670253D01*
X1113307Y1671753D01*
X1107309D01*
X1104310Y1670253D01*
X1102811Y1668754D01*
X1101311Y1665755D01*
Y1662756D01*
X1102811Y1659757D01*
X1105810Y1655258D01*
X1120805Y1640263D01*
X1099812D01*
D62*
X1514764Y2763780D02*
X1556102D01*
X1302165Y2659449D02*
X1343504D01*
X842716Y3137795D02*
Y3179134D01*
X968504Y3137795D02*
Y3179134D01*
D63*
X898228Y2217618D02*
Y2459547D01*
X639173D02*
X898228D01*
X639173Y2217618D02*
Y2459547D01*
Y2217618D02*
X898228D01*
D64*
X276772Y419094D02*
X376772D01*
D65*
X271772Y304094D02*
Y484094D01*
X381772Y304094D02*
Y484094D01*
%TF.MD5,c84fefdad2c72db2e25420de5f4b5a9c*%
M02*
