%TF.GenerationSoftware,Altium Limited,Altium Designer,23.4.1 (23)*%
G04 Layer_Color=65535*
%FSLAX26Y26*%
%MOIN*%
%TF.SameCoordinates,0B69EAEB-4B52-49E6-8846-B3B3CADC8916*%
%TF.FilePolarity,Positive*%
%TF.FileFunction,Legend,Top*%
%TF.Part,Single*%
G01*
G75*
%TA.AperFunction,NonConductor*%
%ADD60C,0.010000*%
%ADD61C,0.007874*%
%ADD62C,0.015748*%
%ADD63C,0.008000*%
%ADD64C,0.011811*%
%ADD65C,0.005906*%
%ADD104C,0.007480*%
D60*
X80709Y2086614D02*
G03*
X100394Y2066929I19685J0D01*
G01*
X454737Y2492138D02*
G03*
X435052Y2511823I-19685J0D01*
G01*
X435039Y2066929D02*
G03*
X454724Y2086614I0J19685D01*
G01*
X100406Y2511823D02*
G03*
X80721Y2492138I-0J-19685D01*
G01*
X409680Y3543319D02*
G03*
X409680Y3543319I-141951J0D01*
G01*
X377772D02*
G03*
X377772Y3543319I-110043J0D01*
G01*
X100406Y3740169D02*
G03*
X80721Y3720484I-0J-19685D01*
G01*
X435052Y3313004D02*
G03*
X454737Y3332689I0J19685D01*
G01*
Y3720484D02*
G03*
X435052Y3740169I-19685J0D01*
G01*
X80722Y3332689D02*
G03*
X100406Y3313003I19685J0D01*
G01*
X1645901Y3543319D02*
G03*
X1645901Y3543319I-141951J0D01*
G01*
X1613993D02*
G03*
X1613993Y3543319I-110043J0D01*
G01*
X1336627Y3732295D02*
G03*
X1316942Y3712610I-0J-19685D01*
G01*
X1671260Y3287402D02*
G03*
X1690945Y3307086I0J19685D01*
G01*
X1690958Y3712610D02*
G03*
X1671273Y3732295I-19685J0D01*
G01*
X1316929Y3307086D02*
G03*
X1336614Y3287401I19685J0D01*
G01*
X1316942Y2112216D02*
G03*
X1336627Y2092531I19685J0D01*
G01*
X1690958Y2500012D02*
G03*
X1671273Y2519697I-19685J0D01*
G01*
Y2092531D02*
G03*
X1690958Y2112216I0J19685D01*
G01*
X1336627Y2519697D02*
G03*
X1316942Y2500012I-0J-19685D01*
G01*
X1613993Y2322846D02*
G03*
X1613993Y2322846I-110043J0D01*
G01*
X1645901D02*
G03*
X1645901Y2322846I-141951J0D01*
G01*
X44701Y2997976D02*
G03*
X8202Y2831564I41914J-96401D01*
G01*
X163303Y2829680D02*
G03*
X128528Y2997976I-76688J71895D01*
G01*
X1824803Y1308032D02*
X1917323D01*
Y1688032D01*
X1824803D02*
X1917323D01*
X1824803Y1128543D02*
Y1817520D01*
Y1852953D01*
X1013780Y1128543D02*
X1824803D01*
X1011811Y1868701D02*
X1824803D01*
Y1852953D02*
Y1868701D01*
X1011811D02*
X1023622D01*
X-145669Y1170315D02*
X-53150D01*
X-145669Y790315D02*
Y1170315D01*
Y790315D02*
X-53150D01*
Y660827D02*
Y1349803D01*
Y625394D02*
Y660827D01*
Y1349803D02*
X757874D01*
X-53150Y609646D02*
X759842D01*
X-53150D02*
Y625394D01*
X748032Y609646D02*
X759842D01*
X80709Y2086614D02*
Y2244094D01*
X100394Y2066929D02*
X122047D01*
X454724Y2086614D02*
Y2244094D01*
X454737Y2492138D02*
X454737Y2401575D01*
X100406Y2511823D02*
X435052D01*
X80721Y2401575D02*
Y2492138D01*
X401575Y2066929D02*
X436024D01*
X303150D02*
X329724D01*
X216535D02*
X232283D01*
X181607Y3476882D02*
X333182Y3628456D01*
X200308Y3456212D02*
X354344Y3610248D01*
X80721Y3622059D02*
Y3720484D01*
X100406Y3740169D02*
X435052D01*
X454737Y3720484D02*
X454737Y3622059D01*
Y3332689D02*
Y3480327D01*
X100406Y3313004D02*
X435052D01*
X80721Y3332689D02*
Y3480327D01*
X1452756Y3287402D02*
X1468504D01*
X1539370D02*
X1565945D01*
X1637795D02*
X1672244D01*
X1417828Y3476882D02*
X1569402Y3628456D01*
X1436528Y3456212D02*
X1590564Y3610248D01*
X1316942Y3622047D02*
Y3712610D01*
X1336627Y3732295D02*
X1671273D01*
X1690958Y3712610D02*
X1690958Y3622047D01*
X1690945Y3307087D02*
Y3464567D01*
X1336614Y3287402D02*
X1358268D01*
X1316929Y3307086D02*
Y3464567D01*
X1316942Y2112216D02*
Y2259854D01*
X1336627Y2092531D02*
X1671273D01*
X1690958Y2112216D02*
Y2259854D01*
X1690958Y2500012D02*
X1690958Y2401586D01*
X1336627Y2519697D02*
X1671273D01*
X1316942Y2401586D02*
Y2500012D01*
X1436528Y2235740D02*
X1590564Y2389775D01*
X1417828Y2256409D02*
X1569402Y2407984D01*
X10827Y2828740D02*
X47244D01*
X125984D02*
X161417D01*
D61*
X244095Y2413386D02*
G03*
X358511Y2345534I23635J-90540D01*
G01*
X931368Y2799426D02*
G03*
X840286Y2799426I-45541J-43520D01*
G01*
Y2712385D02*
G03*
X931368Y2712385I45541J43520D01*
G01*
X474905Y3016732D02*
X482779D01*
X474905Y2987205D02*
X482779D01*
X592520Y2903543D02*
X624016D01*
X592520D02*
Y2935039D01*
Y3021653D02*
X624016D01*
X592520Y2990157D02*
Y3021653D01*
X474905Y3036417D02*
X482779D01*
X474905Y3065945D02*
X482779D01*
X438976Y3084646D02*
X505906D01*
X438976Y3135827D02*
X505906D01*
X592520Y3053150D02*
X624016D01*
X592520D02*
Y3084646D01*
Y3171260D02*
X624016D01*
X592520Y3139764D02*
Y3171260D01*
X472441Y3187992D02*
X480315D01*
X472441Y3158465D02*
X480315D01*
X438976Y2799213D02*
X505906D01*
X438976Y2850394D02*
X505906D01*
X474905Y2770669D02*
X482779D01*
X474905Y2741142D02*
X482779D01*
X474905Y2721457D02*
X482779D01*
X474905Y2691929D02*
X482779D01*
X474905Y2869095D02*
X482779D01*
X474905Y2898622D02*
X482779D01*
X762795Y2767716D02*
Y2811024D01*
X701772Y2767716D02*
Y2811024D01*
X1196851Y1486220D02*
Y1529528D01*
X1013780Y1128543D02*
Y1869094D01*
X574803Y948819D02*
Y992126D01*
X757874Y609252D02*
Y1349803D01*
X1289370Y498031D02*
X1293307D01*
X1289370Y549213D02*
X1293307D01*
X1417323Y118110D02*
Y335138D01*
Y118110D02*
X1506890D01*
X1595472D02*
X1685039D01*
Y335138D01*
X1468012Y385827D02*
X1506890D01*
X1417323Y335138D02*
X1468012Y385827D01*
X1634350D02*
X1685039Y335138D01*
X1595472Y385827D02*
X1634350D01*
X1281496Y360236D02*
Y364173D01*
X1230315Y360236D02*
Y364173D01*
X1441437Y577264D02*
X1613681D01*
X1441437Y469980D02*
X1613681D01*
X141732Y291339D02*
X358760D01*
X141732Y201772D02*
Y291339D01*
Y23622D02*
Y113189D01*
Y23622D02*
X358760D01*
X409449Y201772D02*
Y240650D01*
X358760Y291339D02*
X409449Y240650D01*
X358760Y23622D02*
X409449Y74311D01*
Y113189D01*
X141732Y586614D02*
X358760D01*
X141732Y497047D02*
Y586614D01*
Y318898D02*
Y408465D01*
Y318898D02*
X358760D01*
X409449Y497047D02*
Y535925D01*
X358760Y586614D02*
X409449Y535925D01*
X358760Y318898D02*
X409449Y369587D01*
Y408465D01*
X244095Y2413386D02*
X358268Y2346457D01*
X120091Y3708673D02*
Y3727374D01*
Y3708673D02*
X199816D01*
Y3748043D01*
X120091D02*
X199816D01*
X120091Y3727374D02*
Y3748043D01*
X416351Y3708673D02*
Y3728358D01*
X338595Y3708673D02*
X405525D01*
X338595D02*
Y3748043D01*
X416351D01*
Y3728358D02*
Y3748043D01*
X404540Y3313004D02*
X405525D01*
X337611Y3340563D02*
Y3379933D01*
X120091Y3339579D02*
Y3378949D01*
X198832D01*
Y3339579D02*
Y3378949D01*
X120091Y3339579D02*
X198832D01*
X405525Y3708673D02*
X416351D01*
X337611Y3379933D02*
X415367D01*
Y3360248D02*
Y3379933D01*
X337611Y3340563D02*
X415367D01*
Y3352374D02*
X415367Y3352374D01*
Y3340563D02*
Y3360248D01*
X1566955Y3740157D02*
X1645695D01*
X1566955Y3704724D02*
Y3740157D01*
Y3704724D02*
X1645695D01*
Y3740157D01*
X1362205Y3346480D02*
X1440945D01*
Y3381913D01*
X1362205D02*
X1440945D01*
X1362205Y3346480D02*
Y3381913D01*
X1566955Y3346480D02*
X1645695D01*
X1566955D02*
Y3381913D01*
X1645695D01*
Y3346480D02*
Y3381913D01*
X1362205Y3740157D02*
X1440945D01*
Y3704724D02*
Y3740157D01*
X1362205Y3704724D02*
X1440945D01*
X1362205D02*
Y3740157D01*
X1651588Y2120090D02*
Y2139775D01*
X1651588Y2131901D02*
X1651588Y2131901D01*
X1573832Y2120090D02*
X1651588D01*
X1651588Y2139775D02*
Y2159460D01*
X1573832D02*
X1651588D01*
X1641745Y2488201D02*
X1652572D01*
X1356312Y2119106D02*
X1435052D01*
Y2158476D01*
X1356312D02*
X1435052D01*
X1356312Y2119106D02*
Y2158476D01*
X1573832Y2120090D02*
Y2159460D01*
X1640761Y2092531D02*
X1641745D01*
X1652572Y2507886D02*
Y2527571D01*
X1574816D02*
X1652572D01*
X1574816Y2488201D02*
Y2527571D01*
Y2488201D02*
X1641745D01*
X1652572D02*
Y2507886D01*
X1356312Y2506901D02*
Y2527571D01*
X1436036D01*
Y2488201D02*
Y2527571D01*
X1356312Y2488201D02*
X1436036D01*
X1356312D02*
Y2506901D01*
X1122953Y493583D02*
Y588583D01*
Y83583D02*
Y183583D01*
X632953Y493583D02*
Y588583D01*
Y83583D02*
Y183583D01*
Y83583D02*
X1122953D01*
X632953Y588583D02*
X1122953D01*
X1044291Y2720472D02*
Y2728346D01*
X1073819Y2720472D02*
Y2728346D01*
X999134Y2735905D02*
Y2745905D01*
Y2765905D02*
Y2775905D01*
X979134Y2755905D02*
X1019134D01*
X999134Y2745905D02*
Y2765905D01*
X1548228Y3142717D02*
X1587106D01*
X1637795Y3092028D01*
X1370079D02*
X1420768Y3142717D01*
X1459646D01*
X1637795Y2875000D02*
Y3092028D01*
X1548228Y2875000D02*
X1637795D01*
X1370079D02*
X1459646D01*
X1370079D02*
Y3092028D01*
X1750667Y2666758D02*
X1752542Y2663009D01*
X1756290Y2659260D01*
X1760039Y2657386D01*
X1765662Y2655512D01*
X1775034D01*
X1780657Y2657386D01*
X1784406Y2659260D01*
X1788155Y2663009D01*
X1790029Y2666758D01*
Y2674256D01*
X1788155Y2678004D01*
X1784406Y2681753D01*
X1780657Y2683627D01*
X1775034Y2685502D01*
X1765662D01*
X1760039Y2683627D01*
X1756290Y2681753D01*
X1752542Y2678004D01*
X1750667Y2674256D01*
Y2666758D01*
X1763788Y2694686D02*
X1803150D01*
X1769411D02*
X1765662Y2698435D01*
X1763788Y2702184D01*
Y2707807D01*
X1765662Y2711555D01*
X1769411Y2715304D01*
X1775034Y2717178D01*
X1778783D01*
X1784406Y2715304D01*
X1788155Y2711555D01*
X1790029Y2707807D01*
Y2702184D01*
X1788155Y2698435D01*
X1784406Y2694686D01*
X1750667Y2731236D02*
X1782532D01*
X1788155Y2733110D01*
X1790029Y2736859D01*
Y2740608D01*
X1763788Y2725613D02*
Y2738734D01*
X1750667Y2749980D02*
X1752542Y2751854D01*
X1750667Y2753729D01*
X1748793Y2751854D01*
X1750667Y2749980D01*
X1763788Y2751854D02*
X1790029D01*
X1769411Y2783156D02*
X1765662Y2779407D01*
X1763788Y2775659D01*
Y2770035D01*
X1765662Y2766287D01*
X1769411Y2762538D01*
X1775034Y2760664D01*
X1778783D01*
X1784406Y2762538D01*
X1788155Y2766287D01*
X1790029Y2770035D01*
Y2775659D01*
X1788155Y2779407D01*
X1784406Y2783156D01*
X1763788Y2814083D02*
X1790029D01*
X1769411D02*
X1765662Y2810334D01*
X1763788Y2806586D01*
Y2800962D01*
X1765662Y2797214D01*
X1769411Y2793465D01*
X1775034Y2791591D01*
X1778783D01*
X1784406Y2793465D01*
X1788155Y2797214D01*
X1790029Y2800962D01*
Y2806586D01*
X1788155Y2810334D01*
X1784406Y2814083D01*
X1750667Y2824579D02*
X1790029D01*
X1760039Y2891869D02*
X1756290Y2889995D01*
X1752542Y2886246D01*
X1750667Y2882497D01*
Y2875000D01*
X1752542Y2871251D01*
X1756290Y2867502D01*
X1760039Y2865628D01*
X1765662Y2863754D01*
X1775034D01*
X1780657Y2865628D01*
X1784406Y2867502D01*
X1788155Y2871251D01*
X1790029Y2875000D01*
Y2882497D01*
X1788155Y2886246D01*
X1784406Y2889995D01*
X1780657Y2891869D01*
X1763788Y2912300D02*
X1765662Y2908551D01*
X1769411Y2904802D01*
X1775034Y2902928D01*
X1778783D01*
X1784406Y2904802D01*
X1788155Y2908551D01*
X1790029Y2912300D01*
Y2917923D01*
X1788155Y2921671D01*
X1784406Y2925420D01*
X1778783Y2927294D01*
X1775034D01*
X1769411Y2925420D01*
X1765662Y2921671D01*
X1763788Y2917923D01*
Y2912300D01*
Y2935917D02*
X1790029D01*
X1771285D02*
X1765662Y2941540D01*
X1763788Y2945288D01*
Y2950912D01*
X1765662Y2954660D01*
X1771285Y2956535D01*
X1790029D01*
X1771285D02*
X1765662Y2962158D01*
X1763788Y2965906D01*
Y2971530D01*
X1765662Y2975278D01*
X1771285Y2977153D01*
X1790029D01*
X1763788Y2989523D02*
X1803150D01*
X1769411D02*
X1765662Y2993272D01*
X1763788Y2997021D01*
Y3002644D01*
X1765662Y3006393D01*
X1769411Y3010141D01*
X1775034Y3012016D01*
X1778783D01*
X1784406Y3010141D01*
X1788155Y3006393D01*
X1790029Y3002644D01*
Y2997021D01*
X1788155Y2993272D01*
X1784406Y2989523D01*
X1763788Y3020450D02*
X1790029D01*
X1775034D02*
X1769411Y3022325D01*
X1765662Y3026073D01*
X1763788Y3029822D01*
Y3035445D01*
X1775034Y3039007D02*
Y3061499D01*
X1771285D01*
X1767537Y3059625D01*
X1765662Y3057750D01*
X1763788Y3054001D01*
Y3048378D01*
X1765662Y3044630D01*
X1769411Y3040881D01*
X1775034Y3039007D01*
X1778783D01*
X1784406Y3040881D01*
X1788155Y3044630D01*
X1790029Y3048378D01*
Y3054001D01*
X1788155Y3057750D01*
X1784406Y3061499D01*
X1769411Y3090552D02*
X1765662Y3088677D01*
X1763788Y3083054D01*
Y3077431D01*
X1765662Y3071808D01*
X1769411Y3069934D01*
X1773160Y3071808D01*
X1775034Y3075557D01*
X1776908Y3084928D01*
X1778783Y3088677D01*
X1782532Y3090552D01*
X1784406D01*
X1788155Y3088677D01*
X1790029Y3083054D01*
Y3077431D01*
X1788155Y3071808D01*
X1784406Y3069934D01*
X1769411Y3119417D02*
X1765662Y3117543D01*
X1763788Y3111919D01*
Y3106296D01*
X1765662Y3100673D01*
X1769411Y3098799D01*
X1773160Y3100673D01*
X1775034Y3104422D01*
X1776908Y3113794D01*
X1778783Y3117543D01*
X1782532Y3119417D01*
X1784406D01*
X1788155Y3117543D01*
X1790029Y3111919D01*
Y3106296D01*
X1788155Y3100673D01*
X1784406Y3098799D01*
X1763788Y3137036D02*
X1765662Y3133287D01*
X1769411Y3129538D01*
X1775034Y3127664D01*
X1778783D01*
X1784406Y3129538D01*
X1788155Y3133287D01*
X1790029Y3137036D01*
Y3142659D01*
X1788155Y3146408D01*
X1784406Y3150156D01*
X1778783Y3152031D01*
X1775034D01*
X1769411Y3150156D01*
X1765662Y3146408D01*
X1763788Y3142659D01*
Y3137036D01*
Y3160653D02*
X1790029D01*
X1775034D02*
X1769411Y3162527D01*
X1765662Y3166276D01*
X1763788Y3170025D01*
Y3175648D01*
Y3210136D02*
X1790029Y3221382D01*
X1763788Y3232628D02*
X1790029Y3221382D01*
X1760039Y3240876D02*
X1758165D01*
X1754416Y3242750D01*
X1752542Y3244624D01*
X1750667Y3248373D01*
Y3255870D01*
X1752542Y3259619D01*
X1754416Y3261494D01*
X1758165Y3263368D01*
X1761914D01*
X1765662Y3261494D01*
X1771285Y3257745D01*
X1790029Y3239001D01*
Y3265242D01*
X331138Y2899603D02*
Y2868114D01*
Y2899603D02*
X344634D01*
X349132Y2898104D01*
X350632Y2896604D01*
X352131Y2893605D01*
Y2890606D01*
X350632Y2887607D01*
X349132Y2886108D01*
X344634Y2884608D01*
X331138D01*
X341635D02*
X352131Y2868114D01*
X377173Y2899603D02*
X362178D01*
X360678Y2886108D01*
X362178Y2887607D01*
X366676Y2889106D01*
X371175D01*
X375673Y2887607D01*
X378672Y2884608D01*
X380171Y2880110D01*
Y2877111D01*
X378672Y2872612D01*
X375673Y2869613D01*
X371175Y2868114D01*
X366676D01*
X362178Y2869613D01*
X360678Y2871113D01*
X359179Y2874112D01*
X394717Y2899603D02*
X390218Y2898104D01*
X388719Y2895104D01*
Y2892106D01*
X390218Y2889106D01*
X393217Y2887607D01*
X399215Y2886108D01*
X403714Y2884608D01*
X406712Y2881609D01*
X408212Y2878610D01*
Y2874112D01*
X406712Y2871113D01*
X405213Y2869613D01*
X400714Y2868114D01*
X394717D01*
X390218Y2869613D01*
X388719Y2871113D01*
X387219Y2874112D01*
Y2878610D01*
X388719Y2881609D01*
X391718Y2884608D01*
X396216Y2886108D01*
X402214Y2887607D01*
X405213Y2889106D01*
X406712Y2892106D01*
Y2895104D01*
X405213Y2898104D01*
X400714Y2899603D01*
X394717D01*
X331138Y3179130D02*
Y3147641D01*
Y3179130D02*
X344634D01*
X349132Y3177631D01*
X350632Y3176131D01*
X352131Y3173132D01*
Y3170133D01*
X350632Y3167134D01*
X349132Y3165635D01*
X344634Y3164135D01*
X331138D01*
X341635D02*
X352131Y3147641D01*
X377173Y3179130D02*
X362178D01*
X360678Y3165635D01*
X362178Y3167134D01*
X366676Y3168634D01*
X371175D01*
X375673Y3167134D01*
X378672Y3164135D01*
X380171Y3159637D01*
Y3156638D01*
X378672Y3152140D01*
X375673Y3149140D01*
X371175Y3147641D01*
X366676D01*
X362178Y3149140D01*
X360678Y3150640D01*
X359179Y3153639D01*
X405213Y3174632D02*
X403714Y3177631D01*
X399215Y3179130D01*
X396216D01*
X391718Y3177631D01*
X388719Y3173132D01*
X387219Y3165635D01*
Y3158137D01*
X388719Y3152140D01*
X391718Y3149140D01*
X396216Y3147641D01*
X397716D01*
X402214Y3149140D01*
X405213Y3152140D01*
X406712Y3156638D01*
Y3158137D01*
X405213Y3162636D01*
X402214Y3165635D01*
X397716Y3167134D01*
X396216D01*
X391718Y3165635D01*
X388719Y3162636D01*
X387219Y3158137D01*
X659076Y2772660D02*
X656077Y2771161D01*
X653078Y2768162D01*
X651578Y2765163D01*
Y2759165D01*
X653078Y2756166D01*
X656077Y2753167D01*
X659076Y2751668D01*
X663574Y2750168D01*
X671072D01*
X675570Y2751668D01*
X678569Y2753167D01*
X681568Y2756166D01*
X683067Y2759165D01*
Y2765163D01*
X681568Y2768162D01*
X678569Y2771161D01*
X675570Y2772660D01*
X651578Y2796502D02*
X672571Y2781507D01*
Y2804000D01*
X651578Y2796502D02*
X683067D01*
X659076Y2811047D02*
X657576D01*
X654577Y2812547D01*
X653078Y2814046D01*
X651578Y2817045D01*
Y2823043D01*
X653078Y2826042D01*
X654577Y2827542D01*
X657576Y2829041D01*
X660575D01*
X663574Y2827542D01*
X668073Y2824543D01*
X683067Y2809548D01*
Y2830541D01*
X1173232Y506341D02*
X1204721D01*
Y524335D01*
X1173232Y530783D02*
Y547277D01*
X1185227Y538280D01*
Y542779D01*
X1186727Y545778D01*
X1188226Y547277D01*
X1192725Y548777D01*
X1195724D01*
X1200222Y547277D01*
X1203221Y544278D01*
X1204721Y539780D01*
Y535282D01*
X1203221Y530783D01*
X1201722Y529284D01*
X1198723Y527784D01*
X23625Y2086698D02*
X55115Y2098693D01*
X23625Y2110689D02*
X55115Y2098693D01*
X23625Y2114738D02*
X55115D01*
X23625D02*
Y2128233D01*
X25125Y2132732D01*
X26624Y2134231D01*
X29623Y2135731D01*
X32622D01*
X35621Y2134231D01*
X37121Y2132732D01*
X38620Y2128233D01*
Y2114738D01*
Y2125235D02*
X55115Y2135731D01*
X23625Y2157773D02*
X44618Y2142779D01*
Y2165271D01*
X23625Y2157773D02*
X55115D01*
X23625Y3331542D02*
X55115Y3343538D01*
X23625Y3355534D02*
X55115Y3343538D01*
X23625Y3359582D02*
X55115D01*
X23625D02*
Y3373078D01*
X25125Y3377576D01*
X26624Y3379076D01*
X29623Y3380575D01*
X32622D01*
X35621Y3379076D01*
X37121Y3377576D01*
X38620Y3373078D01*
Y3359582D01*
Y3370079D02*
X55115Y3380575D01*
X23625Y3390622D02*
Y3407116D01*
X35621Y3398119D01*
Y3402618D01*
X37121Y3405617D01*
X38620Y3407116D01*
X43119Y3408616D01*
X46118D01*
X50616Y3407116D01*
X53615Y3404117D01*
X55115Y3399619D01*
Y3395120D01*
X53615Y3390622D01*
X52116Y3389122D01*
X49117Y3387623D01*
X1259846Y3300046D02*
X1291335Y3312042D01*
X1259846Y3324038D02*
X1291335Y3312042D01*
X1259846Y3328086D02*
X1291335D01*
X1259846D02*
Y3341582D01*
X1261345Y3346080D01*
X1262845Y3347580D01*
X1265844Y3349079D01*
X1268843D01*
X1271842Y3347580D01*
X1273341Y3346080D01*
X1274841Y3341582D01*
Y3328086D01*
Y3338583D02*
X1291335Y3349079D01*
X1267343Y3357626D02*
X1265844D01*
X1262845Y3359126D01*
X1261345Y3360625D01*
X1259846Y3363624D01*
Y3369622D01*
X1261345Y3372621D01*
X1262845Y3374121D01*
X1265844Y3375620D01*
X1268843D01*
X1271842Y3374121D01*
X1276340Y3371122D01*
X1291335Y3356127D01*
Y3377120D01*
X1263783Y2113880D02*
X1295272Y2125876D01*
X1263783Y2137872D02*
X1295272Y2125876D01*
X1263783Y2141921D02*
X1295272D01*
X1263783D02*
Y2155416D01*
X1265282Y2159914D01*
X1266782Y2161414D01*
X1269781Y2162914D01*
X1272780D01*
X1275779Y2161414D01*
X1277278Y2159914D01*
X1278778Y2155416D01*
Y2141921D01*
Y2152417D02*
X1295272Y2162914D01*
X1269781Y2169961D02*
X1268281Y2172960D01*
X1263783Y2177459D01*
X1295272D01*
X583242Y109523D02*
X580243Y106524D01*
X578743Y102025D01*
Y96028D01*
X580243Y91529D01*
X583242Y88530D01*
X586241D01*
X589240Y90030D01*
X590739Y91529D01*
X592239Y94528D01*
X595238Y103525D01*
X596737Y106524D01*
X598237Y108023D01*
X601236Y109523D01*
X605734D01*
X608733Y106524D01*
X610233Y102025D01*
Y96028D01*
X608733Y91529D01*
X605734Y88530D01*
X584741Y116571D02*
X583242Y119570D01*
X578743Y124068D01*
X610233D01*
X331138Y2781493D02*
Y2750003D01*
Y2781493D02*
X344634D01*
X349132Y2779993D01*
X350632Y2778494D01*
X352131Y2775495D01*
Y2772496D01*
X350632Y2769497D01*
X349132Y2767997D01*
X344634Y2766498D01*
X331138D01*
X341635D02*
X352131Y2750003D01*
X360678Y2773995D02*
Y2775495D01*
X362178Y2778494D01*
X363677Y2779993D01*
X366676Y2781493D01*
X372674D01*
X375673Y2779993D01*
X377173Y2778494D01*
X378672Y2775495D01*
Y2772496D01*
X377173Y2769497D01*
X374173Y2764998D01*
X359179Y2750003D01*
X380171D01*
X408212Y2781493D02*
X393217Y2750003D01*
X387219Y2781493D02*
X408212D01*
X331138Y3066926D02*
Y3035436D01*
Y3066926D02*
X344634D01*
X349132Y3065426D01*
X350632Y3063927D01*
X352131Y3060928D01*
Y3057929D01*
X350632Y3054930D01*
X349132Y3053430D01*
X344634Y3051931D01*
X331138D01*
X341635D02*
X352131Y3035436D01*
X360678Y3059428D02*
Y3060928D01*
X362178Y3063927D01*
X363677Y3065426D01*
X366676Y3066926D01*
X372674D01*
X375673Y3065426D01*
X377173Y3063927D01*
X378672Y3060928D01*
Y3057929D01*
X377173Y3054930D01*
X374173Y3050431D01*
X359179Y3035436D01*
X380171D01*
X402214Y3066926D02*
X387219Y3045933D01*
X409712D01*
X402214Y3066926D02*
Y3035436D01*
X1096460Y2697684D02*
X1127949D01*
X1096460D02*
Y2711179D01*
X1097959Y2715677D01*
X1099459Y2717177D01*
X1102458Y2718676D01*
X1105457D01*
X1108456Y2717177D01*
X1109955Y2715677D01*
X1111455Y2711179D01*
Y2697684D01*
Y2708180D02*
X1127949Y2718676D01*
X1103957Y2727224D02*
X1102458D01*
X1099459Y2728723D01*
X1097959Y2730222D01*
X1096460Y2733222D01*
Y2739219D01*
X1097959Y2742218D01*
X1099459Y2743718D01*
X1102458Y2745217D01*
X1105457D01*
X1108456Y2743718D01*
X1112954Y2740719D01*
X1127949Y2725724D01*
Y2746717D01*
X1096460Y2762762D02*
X1097959Y2758263D01*
X1102458Y2755264D01*
X1109955Y2753765D01*
X1114454D01*
X1121951Y2755264D01*
X1126450Y2758263D01*
X1127949Y2762762D01*
Y2765760D01*
X1126450Y2770259D01*
X1121951Y2773258D01*
X1114454Y2774757D01*
X1109955D01*
X1102458Y2773258D01*
X1097959Y2770259D01*
X1096460Y2765760D01*
Y2762762D01*
X1173232Y318268D02*
X1204721D01*
X1173232D02*
Y331763D01*
X1174731Y336262D01*
X1176230Y337761D01*
X1179229Y339261D01*
X1182228D01*
X1185227Y337761D01*
X1186727Y336262D01*
X1188226Y331763D01*
Y318268D01*
Y328764D02*
X1204721Y339261D01*
X1179229Y346308D02*
X1177730Y349307D01*
X1173232Y353806D01*
X1204721D01*
X1173232Y376898D02*
X1174731Y372400D01*
X1177730Y370900D01*
X1180729D01*
X1183728Y372400D01*
X1185227Y375399D01*
X1186727Y381397D01*
X1188226Y385895D01*
X1191226Y388894D01*
X1194224Y390394D01*
X1198723D01*
X1201722Y388894D01*
X1203221Y387394D01*
X1204721Y382896D01*
Y376898D01*
X1203221Y372400D01*
X1201722Y370900D01*
X1198723Y369401D01*
X1194224D01*
X1191226Y370900D01*
X1188226Y373899D01*
X1186727Y378398D01*
X1185227Y384396D01*
X1183728Y387394D01*
X1180729Y388894D01*
X1177730D01*
X1174731Y387394D01*
X1173232Y382896D01*
Y376898D01*
X595878Y2881417D02*
X592879Y2879918D01*
X589880Y2876919D01*
X588380Y2873920D01*
X586881Y2869421D01*
Y2861924D01*
X588380Y2857425D01*
X589880Y2854427D01*
X592879Y2851427D01*
X595878Y2849928D01*
X601876D01*
X604875Y2851427D01*
X607874Y2854427D01*
X609373Y2857425D01*
X610873Y2861924D01*
Y2869421D01*
X609373Y2873920D01*
X607874Y2876919D01*
X604875Y2879918D01*
X601876Y2881417D01*
X595878D01*
X600376Y2855926D02*
X609373Y2846929D01*
X621219Y2881417D02*
X637714D01*
X628717Y2869421D01*
X633215D01*
X636214Y2867922D01*
X637714Y2866422D01*
X639213Y2861924D01*
Y2858925D01*
X637714Y2854427D01*
X634715Y2851427D01*
X630216Y2849928D01*
X625718D01*
X621219Y2851427D01*
X619720Y2852927D01*
X618220Y2855926D01*
X595878Y3224921D02*
X592879Y3223422D01*
X589880Y3220423D01*
X588380Y3217424D01*
X586881Y3212925D01*
Y3205428D01*
X588380Y3200930D01*
X589880Y3197930D01*
X592879Y3194932D01*
X595878Y3193432D01*
X601876D01*
X604875Y3194932D01*
X607874Y3197930D01*
X609373Y3200930D01*
X610873Y3205428D01*
Y3212925D01*
X609373Y3217424D01*
X607874Y3220423D01*
X604875Y3223422D01*
X601876Y3224921D01*
X595878D01*
X600376Y3199430D02*
X609373Y3190433D01*
X618220Y3218923D02*
X621219Y3220423D01*
X625718Y3224921D01*
Y3193432D01*
X854808Y2673225D02*
Y2641736D01*
X872802D01*
X895744Y2673225D02*
X876251D01*
Y2641736D01*
X895744D01*
X876251Y2658230D02*
X888247D01*
X900992Y2673225D02*
Y2641736D01*
Y2673225D02*
X911489D01*
X915987Y2671726D01*
X918986Y2668727D01*
X920486Y2665727D01*
X921985Y2661229D01*
Y2653731D01*
X920486Y2649233D01*
X918986Y2646234D01*
X915987Y2643235D01*
X911489Y2641736D01*
X900992D01*
X929033Y2667227D02*
X932032Y2668727D01*
X936530Y2673225D01*
Y2641736D01*
X1756732Y1933068D02*
Y1909076D01*
X1755232Y1904577D01*
X1753733Y1903078D01*
X1750734Y1901578D01*
X1747735D01*
X1744736Y1903078D01*
X1743236Y1904577D01*
X1741737Y1909076D01*
Y1912075D01*
X1767828Y1933068D02*
X1784323D01*
X1775326Y1921072D01*
X1779824D01*
X1782823Y1919572D01*
X1784323Y1918072D01*
X1785822Y1913574D01*
Y1910575D01*
X1784323Y1906077D01*
X1781324Y1903078D01*
X1776825Y1901578D01*
X1772327D01*
X1767828Y1903078D01*
X1766329Y1904577D01*
X1764829Y1907576D01*
X-3111Y586611D02*
Y562619D01*
X-4610Y558120D01*
X-6110Y556621D01*
X-9108Y555121D01*
X-12107D01*
X-15107Y556621D01*
X-16606Y558120D01*
X-18105Y562619D01*
Y565618D01*
X6486Y579113D02*
Y580613D01*
X7986Y583612D01*
X9485Y585111D01*
X12484Y586611D01*
X18482D01*
X21481Y585111D01*
X22981Y583612D01*
X24480Y580613D01*
Y577614D01*
X22981Y574615D01*
X19982Y570116D01*
X4987Y555121D01*
X25980D01*
X1755606Y1070863D02*
Y1046871D01*
X1754106Y1042372D01*
X1752607Y1040873D01*
X1749608Y1039373D01*
X1746609D01*
X1743610Y1040873D01*
X1742110Y1042372D01*
X1740611Y1046871D01*
Y1049870D01*
X1763703Y1064865D02*
X1766702Y1066364D01*
X1771200Y1070863D01*
Y1039373D01*
X331138Y2840548D02*
Y2809059D01*
Y2840548D02*
X341635D01*
X346133Y2839048D01*
X349132Y2836049D01*
X350632Y2833050D01*
X352131Y2828552D01*
Y2821054D01*
X350632Y2816556D01*
X349132Y2813557D01*
X346133Y2810558D01*
X341635Y2809059D01*
X331138D01*
X366676Y2840548D02*
X362178Y2839048D01*
X360678Y2836049D01*
Y2833050D01*
X362178Y2830051D01*
X365177Y2828552D01*
X371175Y2827052D01*
X375673Y2825553D01*
X378672Y2822554D01*
X380171Y2819555D01*
Y2815057D01*
X378672Y2812057D01*
X377173Y2810558D01*
X372674Y2809059D01*
X366676D01*
X362178Y2810558D01*
X360678Y2812057D01*
X359179Y2815057D01*
Y2819555D01*
X360678Y2822554D01*
X363677Y2825553D01*
X368176Y2827052D01*
X374173Y2828552D01*
X377173Y2830051D01*
X378672Y2833050D01*
Y2836049D01*
X377173Y2839048D01*
X372674Y2840548D01*
X366676D01*
X331138Y3125981D02*
Y3094492D01*
Y3125981D02*
X341635D01*
X346133Y3124481D01*
X349132Y3121482D01*
X350632Y3118483D01*
X352131Y3113985D01*
Y3106487D01*
X350632Y3101989D01*
X349132Y3098990D01*
X346133Y3095991D01*
X341635Y3094492D01*
X331138D01*
X377173Y3121482D02*
X375673Y3124481D01*
X371175Y3125981D01*
X368176D01*
X363677Y3124481D01*
X360678Y3119983D01*
X359179Y3112485D01*
Y3104988D01*
X360678Y3098990D01*
X363677Y3095991D01*
X368176Y3094492D01*
X369675D01*
X374173Y3095991D01*
X377173Y3098990D01*
X378672Y3103488D01*
Y3104988D01*
X377173Y3109486D01*
X374173Y3112485D01*
X369675Y3113985D01*
X368176D01*
X363677Y3112485D01*
X360678Y3109486D01*
X359179Y3104988D01*
X-4832Y2771650D02*
Y2740161D01*
Y2771650D02*
X5665D01*
X10163Y2770151D01*
X13162Y2767152D01*
X14662Y2764153D01*
X16161Y2759654D01*
Y2752157D01*
X14662Y2747658D01*
X13162Y2744659D01*
X10163Y2741660D01*
X5665Y2740161D01*
X-4832D01*
X41203Y2771650D02*
X26208D01*
X24708Y2758155D01*
X26208Y2759654D01*
X30706Y2761154D01*
X35205D01*
X39703Y2759654D01*
X42702Y2756655D01*
X44202Y2752157D01*
Y2749158D01*
X42702Y2744659D01*
X39703Y2741660D01*
X35205Y2740161D01*
X30706D01*
X26208Y2741660D01*
X24708Y2743160D01*
X23209Y2746159D01*
X1697175Y537398D02*
Y505909D01*
Y537398D02*
X1707671D01*
X1712169Y535899D01*
X1715168Y532900D01*
X1716668Y529901D01*
X1718167Y525402D01*
Y517905D01*
X1716668Y513406D01*
X1715168Y510407D01*
X1712169Y507408D01*
X1707671Y505909D01*
X1697175D01*
X1740210Y537398D02*
X1725215Y516405D01*
X1747707D01*
X1740210Y537398D02*
Y505909D01*
X1332680Y133042D02*
X1364170D01*
X1332680D02*
Y143538D01*
X1334180Y148037D01*
X1337179Y151036D01*
X1340178Y152535D01*
X1344676Y154035D01*
X1352174D01*
X1356672Y152535D01*
X1359671Y151036D01*
X1362670Y148037D01*
X1364170Y143538D01*
Y133042D01*
X1332680Y164081D02*
Y180576D01*
X1344676Y171579D01*
Y176077D01*
X1346176Y179076D01*
X1347675Y180576D01*
X1352174Y182075D01*
X1355173D01*
X1359671Y180576D01*
X1362670Y177577D01*
X1364170Y173078D01*
Y168580D01*
X1362670Y164081D01*
X1361171Y162582D01*
X1358172Y161082D01*
X1668918Y2908487D02*
X1665919Y2906988D01*
X1662920Y2903989D01*
X1661420Y2900990D01*
Y2894992D01*
X1662920Y2891993D01*
X1665919Y2888994D01*
X1668918Y2887494D01*
X1673417Y2885995D01*
X1680914D01*
X1685412Y2887494D01*
X1688411Y2888994D01*
X1691410Y2891993D01*
X1692910Y2894992D01*
Y2900990D01*
X1691410Y2903989D01*
X1688411Y2906988D01*
X1685412Y2908487D01*
X1661420Y2920333D02*
Y2936827D01*
X1673417Y2927831D01*
Y2932329D01*
X1674916Y2935328D01*
X1676416Y2936827D01*
X1680914Y2938327D01*
X1683913D01*
X1688411Y2936827D01*
X1691410Y2933829D01*
X1692910Y2929330D01*
Y2924832D01*
X1691410Y2920333D01*
X1689911Y2918834D01*
X1686912Y2917334D01*
X1661420Y2963369D02*
Y2948374D01*
X1674916Y2946874D01*
X1673417Y2948374D01*
X1671917Y2952872D01*
Y2957370D01*
X1673417Y2961869D01*
X1676416Y2964868D01*
X1680914Y2966367D01*
X1683913D01*
X1688411Y2964868D01*
X1691410Y2961869D01*
X1692910Y2957370D01*
Y2952872D01*
X1691410Y2948374D01*
X1689911Y2946874D01*
X1686912Y2945375D01*
X353630Y2714940D02*
X352131Y2717939D01*
X349132Y2720938D01*
X346133Y2722438D01*
X340135D01*
X337136Y2720938D01*
X334137Y2717939D01*
X332638Y2714940D01*
X331138Y2710442D01*
Y2702944D01*
X332638Y2698446D01*
X334137Y2695447D01*
X337136Y2692448D01*
X340135Y2690948D01*
X346133D01*
X349132Y2692448D01*
X352131Y2695447D01*
X353630Y2698446D01*
X363977Y2714940D02*
Y2716440D01*
X365476Y2719439D01*
X366976Y2720938D01*
X369975Y2722438D01*
X375973D01*
X378972Y2720938D01*
X380471Y2719439D01*
X381971Y2716440D01*
Y2713441D01*
X380471Y2710442D01*
X377472Y2705943D01*
X362478Y2690948D01*
X383470D01*
X410011Y2711941D02*
X408512Y2707443D01*
X405513Y2704444D01*
X401014Y2702944D01*
X399515D01*
X395017Y2704444D01*
X392017Y2707443D01*
X390518Y2711941D01*
Y2713441D01*
X392017Y2717939D01*
X395017Y2720938D01*
X399515Y2722438D01*
X401014D01*
X405513Y2720938D01*
X408512Y2717939D01*
X410011Y2711941D01*
Y2704444D01*
X408512Y2696946D01*
X405513Y2692448D01*
X401014Y2690948D01*
X398015D01*
X393517Y2692448D01*
X392017Y2695447D01*
X353630Y3000373D02*
X352131Y3003372D01*
X349132Y3006371D01*
X346133Y3007871D01*
X340135D01*
X337136Y3006371D01*
X334137Y3003372D01*
X332638Y3000373D01*
X331138Y2995875D01*
Y2988377D01*
X332638Y2983879D01*
X334137Y2980880D01*
X337136Y2977881D01*
X340135Y2976381D01*
X346133D01*
X349132Y2977881D01*
X352131Y2980880D01*
X353630Y2983879D01*
X363977Y3000373D02*
Y3001873D01*
X365476Y3004872D01*
X366976Y3006371D01*
X369975Y3007871D01*
X375973D01*
X378972Y3006371D01*
X380471Y3004872D01*
X381971Y3001873D01*
Y2998874D01*
X380471Y2995875D01*
X377472Y2991376D01*
X362478Y2976381D01*
X383470D01*
X408512Y3003372D02*
X407012Y3006371D01*
X402514Y3007871D01*
X399515D01*
X395017Y3006371D01*
X392017Y3001873D01*
X390518Y2994375D01*
Y2986878D01*
X392017Y2980880D01*
X395017Y2977881D01*
X399515Y2976381D01*
X401014D01*
X405513Y2977881D01*
X408512Y2980880D01*
X410011Y2985378D01*
Y2986878D01*
X408512Y2991376D01*
X405513Y2994375D01*
X401014Y2995875D01*
X399515D01*
X395017Y2994375D01*
X392017Y2991376D01*
X390518Y2986878D01*
X1716162Y155534D02*
X1713163Y154035D01*
X1710164Y151036D01*
X1708665Y148037D01*
Y142039D01*
X1710164Y139040D01*
X1713163Y136041D01*
X1716162Y134541D01*
X1720661Y133042D01*
X1728158D01*
X1732657Y134541D01*
X1735656Y136041D01*
X1738655Y139040D01*
X1740154Y142039D01*
Y148037D01*
X1738655Y151036D01*
X1735656Y154035D01*
X1732657Y155534D01*
X1716162Y165881D02*
X1714663D01*
X1711664Y167380D01*
X1710164Y168880D01*
X1708665Y171879D01*
Y177877D01*
X1710164Y180876D01*
X1711664Y182375D01*
X1714663Y183875D01*
X1717662D01*
X1720661Y182375D01*
X1725159Y179376D01*
X1740154Y164381D01*
Y185374D01*
X1708665Y201419D02*
X1710164Y196920D01*
X1714663Y193921D01*
X1722160Y192422D01*
X1726659D01*
X1734156Y193921D01*
X1738655Y196920D01*
X1740154Y201419D01*
Y204418D01*
X1738655Y208916D01*
X1734156Y211915D01*
X1726659Y213415D01*
X1722160D01*
X1714663Y211915D01*
X1710164Y208916D01*
X1708665Y204418D01*
Y201419D01*
X468130Y143010D02*
X465132Y141511D01*
X462132Y138512D01*
X460633Y135513D01*
Y129515D01*
X462132Y126516D01*
X465132Y123517D01*
X468130Y122017D01*
X472629Y120518D01*
X480127D01*
X484625Y122017D01*
X487624Y123517D01*
X490623Y126516D01*
X492122Y129515D01*
Y135513D01*
X490623Y138512D01*
X487624Y141511D01*
X484625Y143010D01*
X466631Y151857D02*
X465132Y154856D01*
X460633Y159355D01*
X492122D01*
X465132Y192943D02*
X462132Y191444D01*
X460633Y186945D01*
Y183946D01*
X462132Y179448D01*
X466631Y176449D01*
X474128Y174949D01*
X481626D01*
X487624Y176449D01*
X490623Y179448D01*
X492122Y183946D01*
Y185446D01*
X490623Y189944D01*
X487624Y192943D01*
X483125Y194443D01*
X481626D01*
X477127Y192943D01*
X474128Y189944D01*
X472629Y185446D01*
Y183946D01*
X474128Y179448D01*
X477127Y176449D01*
X481626Y174949D01*
X468130Y476156D02*
X465131Y474657D01*
X462132Y471658D01*
X460633Y468659D01*
Y462661D01*
X462132Y459662D01*
X465131Y456663D01*
X468130Y455163D01*
X472629Y453664D01*
X480126D01*
X484625Y455163D01*
X487624Y456663D01*
X490623Y459662D01*
X492122Y462661D01*
Y468659D01*
X490623Y471658D01*
X487624Y474657D01*
X484625Y476156D01*
X466631Y485003D02*
X465131Y488002D01*
X460633Y492501D01*
X492122D01*
X460633Y523090D02*
X481626Y508096D01*
Y530588D01*
X460633Y523090D02*
X492122D01*
D62*
X454724Y3089567D02*
Y3130905D01*
Y2804134D02*
Y2845472D01*
X1371063Y469980D02*
Y577264D01*
D63*
X1309764Y646772D02*
X1889764D01*
X1309764D02*
Y1101772D01*
X1889764D01*
D64*
X1209842Y185551D02*
X1309842D01*
D65*
X1204842Y70551D02*
Y250551D01*
X1314842Y70551D02*
Y250551D01*
D104*
X1679782Y1286735D02*
X1673222Y1293294D01*
X1660103D01*
X1653543Y1286735D01*
Y1280175D01*
X1660103Y1273616D01*
X1673222D01*
X1679782Y1267056D01*
Y1260497D01*
X1673222Y1253937D01*
X1660103D01*
X1653543Y1260497D01*
X1679782Y1739491D02*
X1673222Y1746050D01*
X1660103D01*
X1653543Y1739491D01*
Y1732931D01*
X1660103Y1726372D01*
X1673222D01*
X1679782Y1719812D01*
Y1713253D01*
X1673222Y1706693D01*
X1660103D01*
X1653543Y1713253D01*
X1405512Y1710630D02*
Y1749987D01*
X1425191D01*
X1431750Y1743428D01*
Y1730309D01*
X1425191Y1723749D01*
X1405512D01*
X1418631D02*
X1431750Y1710630D01*
X1366142Y1246063D02*
Y1285420D01*
X1385821D01*
X1392380Y1278861D01*
Y1265742D01*
X1385821Y1259182D01*
X1366142D01*
X1379261D02*
X1392380Y1246063D01*
X1405499D02*
X1431737Y1272301D01*
X1471095Y1278861D02*
X1464535Y1285420D01*
X1451416D01*
X1444857Y1278861D01*
Y1252623D01*
X1451416Y1246063D01*
X1464535D01*
X1471095Y1252623D01*
X1106299Y1285420D02*
X1132537D01*
X1119418D01*
Y1246063D01*
X1145657D02*
X1171895Y1272301D01*
X1211252Y1278861D02*
X1204693Y1285420D01*
X1191574D01*
X1185014Y1278861D01*
Y1252623D01*
X1191574Y1246063D01*
X1204693D01*
X1211252Y1252623D01*
X1153543Y1746050D02*
X1179782D01*
X1166662D01*
Y1706693D01*
X91872Y1191612D02*
X98431Y1185052D01*
X111551D01*
X118110Y1191612D01*
Y1198171D01*
X111551Y1204731D01*
X98431D01*
X91872Y1211290D01*
Y1217850D01*
X98431Y1224409D01*
X111551D01*
X118110Y1217850D01*
X91872Y738856D02*
X98431Y732296D01*
X111551D01*
X118110Y738856D01*
Y745415D01*
X111551Y751975D01*
X98431D01*
X91872Y758534D01*
Y765094D01*
X98431Y771654D01*
X111551D01*
X118110Y765094D01*
X366142Y767717D02*
Y728359D01*
X346463D01*
X339904Y734919D01*
Y748038D01*
X346463Y754597D01*
X366142D01*
X353023D02*
X339904Y767717D01*
X405512Y1232284D02*
Y1192926D01*
X385833D01*
X379274Y1199486D01*
Y1212605D01*
X385833Y1219164D01*
X405512D01*
X392393D02*
X379274Y1232284D01*
X366154D02*
X339916Y1206045D01*
X300559Y1199486D02*
X307118Y1192926D01*
X320237D01*
X326797Y1199486D01*
Y1225724D01*
X320237Y1232284D01*
X307118D01*
X300559Y1225724D01*
X665354Y1192926D02*
X639116D01*
X652235D01*
Y1232284D01*
X625997D02*
X599759Y1206045D01*
X560401Y1199486D02*
X566961Y1192926D01*
X580080D01*
X586639Y1199486D01*
Y1225724D01*
X580080Y1232284D01*
X566961D01*
X560401Y1225724D01*
X618110Y732296D02*
X591872D01*
X604991D01*
Y771654D01*
%TF.MD5,09262b4445fb1f821d13c13f754db16a*%
M02*
