%TF.GenerationSoftware,Altium Limited,Altium Designer,23.1.1 (15)*%
G04 Layer_Physical_Order=4*
G04 Layer_Color=16711680*
%FSLAX26Y26*%
%MOIN*%
%TF.SameCoordinates,CF7A6AEE-9E07-4C1C-9DF4-B320C76D0393*%
%TF.FilePolarity,Positive*%
%TF.FileFunction,Copper,L4,Bot,Signal*%
%TF.Part,Single*%
G01*
G75*
%TA.AperFunction,SMDPad,CuDef*%
G04:AMPARAMS|DCode=10|XSize=59.055mil|YSize=45.276mil|CornerRadius=5.659mil|HoleSize=0mil|Usage=FLASHONLY|Rotation=0.000|XOffset=0mil|YOffset=0mil|HoleType=Round|Shape=RoundedRectangle|*
%AMROUNDEDRECTD10*
21,1,0.059055,0.033957,0,0,0.0*
21,1,0.047736,0.045276,0,0,0.0*
1,1,0.011319,0.023868,-0.016978*
1,1,0.011319,-0.023868,-0.016978*
1,1,0.011319,-0.023868,0.016978*
1,1,0.011319,0.023868,0.016978*
%
%ADD10ROUNDEDRECTD10*%
%ADD11R,0.066000X0.060000*%
%ADD14R,0.023622X0.059843*%
G04:AMPARAMS|DCode=16|XSize=39.37mil|YSize=31.496mil|CornerRadius=3.937mil|HoleSize=0mil|Usage=FLASHONLY|Rotation=90.000|XOffset=0mil|YOffset=0mil|HoleType=Round|Shape=RoundedRectangle|*
%AMROUNDEDRECTD16*
21,1,0.039370,0.023622,0,0,90.0*
21,1,0.031496,0.031496,0,0,90.0*
1,1,0.007874,0.011811,0.015748*
1,1,0.007874,0.011811,-0.015748*
1,1,0.007874,-0.011811,-0.015748*
1,1,0.007874,-0.011811,0.015748*
%
%ADD16ROUNDEDRECTD16*%
G04:AMPARAMS|DCode=17|XSize=39.37mil|YSize=31.496mil|CornerRadius=3.937mil|HoleSize=0mil|Usage=FLASHONLY|Rotation=180.000|XOffset=0mil|YOffset=0mil|HoleType=Round|Shape=RoundedRectangle|*
%AMROUNDEDRECTD17*
21,1,0.039370,0.023622,0,0,180.0*
21,1,0.031496,0.031496,0,0,180.0*
1,1,0.007874,-0.015748,0.011811*
1,1,0.007874,0.015748,0.011811*
1,1,0.007874,0.015748,-0.011811*
1,1,0.007874,-0.015748,-0.011811*
%
%ADD17ROUNDEDRECTD17*%
G04:AMPARAMS|DCode=18|XSize=59.055mil|YSize=45.276mil|CornerRadius=5.659mil|HoleSize=0mil|Usage=FLASHONLY|Rotation=90.000|XOffset=0mil|YOffset=0mil|HoleType=Round|Shape=RoundedRectangle|*
%AMROUNDEDRECTD18*
21,1,0.059055,0.033957,0,0,90.0*
21,1,0.047736,0.045276,0,0,90.0*
1,1,0.011319,0.016978,0.023868*
1,1,0.011319,0.016978,-0.023868*
1,1,0.011319,-0.016978,-0.023868*
1,1,0.011319,-0.016978,0.023868*
%
%ADD18ROUNDEDRECTD18*%
%ADD19R,0.057087X0.023622*%
%ADD21R,0.023228X0.017716*%
%ADD25R,0.116142X0.064961*%
%TA.AperFunction,Conductor*%
%ADD26C,0.009842*%
%ADD27C,0.019685*%
%ADD28C,0.039370*%
%TA.AperFunction,ComponentPad*%
%ADD29O,0.086614X0.070866*%
%ADD30O,0.090551X0.137795*%
%ADD31O,0.070866X0.086614*%
%ADD32R,0.070866X0.086614*%
%ADD33C,0.078740*%
%ADD34C,0.066000*%
%ADD35R,0.055118X0.055118*%
%ADD36C,0.055118*%
%ADD37O,0.157480X0.078740*%
%ADD38R,0.118110X0.078740*%
%ADD39R,0.094488X0.051181*%
%ADD40R,0.090551X0.188976*%
%ADD41R,0.169291X0.090551*%
%ADD42R,0.090551X0.169291*%
%ADD43C,0.060000*%
%ADD44R,0.060000X0.060000*%
%TA.AperFunction,ViaPad*%
%ADD45C,0.023622*%
%TA.AperFunction,SMDPad,CuDef*%
G04:AMPARAMS|DCode=46|XSize=25.591mil|YSize=47.244mil|CornerRadius=1.919mil|HoleSize=0mil|Usage=FLASHONLY|Rotation=0.000|XOffset=0mil|YOffset=0mil|HoleType=Round|Shape=RoundedRectangle|*
%AMROUNDEDRECTD46*
21,1,0.025591,0.043406,0,0,0.0*
21,1,0.021752,0.047244,0,0,0.0*
1,1,0.003839,0.010876,-0.021703*
1,1,0.003839,-0.010876,-0.021703*
1,1,0.003839,-0.010876,0.021703*
1,1,0.003839,0.010876,0.021703*
%
%ADD46ROUNDEDRECTD46*%
%ADD47R,0.053150X0.118110*%
%ADD48R,0.022835X0.059843*%
%ADD49R,0.118110X0.053150*%
%ADD50R,0.017716X0.023228*%
%ADD51R,0.048032X0.035827*%
%ADD52R,0.064961X0.116142*%
G36*
X1800988Y3578520D02*
Y574898D01*
X1797795Y571221D01*
X1774818D01*
Y582677D01*
X1773978Y586902D01*
X1771585Y590483D01*
X1768004Y592876D01*
X1763780Y593716D01*
X1759555Y592876D01*
X1755974Y590483D01*
X1753581Y586902D01*
X1752741Y582677D01*
Y571221D01*
X1729764D01*
Y555336D01*
X1724764Y551232D01*
X1722687Y551645D01*
X1710709D01*
Y511811D01*
X1700709D01*
Y551645D01*
X1688730D01*
X1682620Y550430D01*
X1680683Y549136D01*
X1675683Y551808D01*
Y625984D01*
X1673811Y630504D01*
X1669291Y632376D01*
X1429134D01*
X1424614Y630504D01*
X1422742Y625984D01*
Y608268D01*
X1364173D01*
Y478346D01*
X1381581D01*
Y401575D01*
X1381581Y401575D01*
X1382803Y395430D01*
X1386284Y390221D01*
X1407226Y369279D01*
X1405313Y364660D01*
X1263780D01*
X1259260Y362788D01*
X1257387Y358268D01*
Y271654D01*
X1259260Y267134D01*
X1263780Y265261D01*
X1271026D01*
X1273699Y260261D01*
X1272405Y258325D01*
X1271189Y252215D01*
Y246275D01*
X1264764D01*
X1260539Y245435D01*
X1256958Y243042D01*
X1254565Y239461D01*
X1253725Y235236D01*
X1254565Y231012D01*
X1256958Y227431D01*
X1260539Y225038D01*
X1264764Y224197D01*
X1271189D01*
Y218258D01*
X1272405Y212148D01*
X1275866Y206968D01*
X1281045Y203507D01*
X1287156Y202292D01*
X1306024D01*
Y235236D01*
X1316024D01*
Y202292D01*
X1334892D01*
X1336199Y202552D01*
X1340065Y199380D01*
Y118110D01*
X1341937Y113590D01*
X1346457Y111718D01*
X1740158D01*
X1744677Y113590D01*
X1746550Y118110D01*
Y212598D01*
X1746376Y213017D01*
X1749717Y218017D01*
X1795276D01*
X1795988Y218312D01*
X1800988Y214972D01*
Y161637D01*
X1649386Y10035D01*
X122267Y10035D01*
X-29335Y161637D01*
Y386731D01*
X-24335Y389403D01*
X-23525Y388862D01*
X-19685Y388099D01*
X-7102D01*
Y372284D01*
X-11082Y368303D01*
X-13780Y361792D01*
Y354744D01*
X-11082Y348232D01*
X-6099Y343248D01*
X413Y340551D01*
X7461D01*
X13973Y343248D01*
X18956Y348232D01*
X21654Y354744D01*
Y361792D01*
X18956Y368303D01*
X14976Y372284D01*
Y388728D01*
X15652Y388862D01*
X18907Y391038D01*
X21083Y394293D01*
X21846Y398134D01*
Y399642D01*
X39178D01*
Y399606D01*
X39941Y395766D01*
X42117Y392510D01*
X45373Y390335D01*
X49213Y389571D01*
X80709D01*
X84549Y390335D01*
X87805Y392510D01*
X89980Y395766D01*
X90744Y399606D01*
Y423228D01*
X89980Y427068D01*
X87805Y430324D01*
X84549Y432500D01*
X80709Y433264D01*
X49213D01*
X45373Y432500D01*
X42117Y430324D01*
X39941Y427068D01*
X39178Y423228D01*
Y421720D01*
X21846D01*
Y421756D01*
X21083Y425596D01*
X18907Y428852D01*
X15652Y431027D01*
X11811Y431791D01*
X-19685D01*
X-23525Y431027D01*
X-24335Y430486D01*
X-29335Y433159D01*
Y444503D01*
X-24335Y446849D01*
X-19685Y445924D01*
X-8937D01*
Y471945D01*
X-3937D01*
Y476945D01*
X26021D01*
Y483756D01*
X24939Y489194D01*
X21859Y493804D01*
X17249Y496884D01*
X11811Y497966D01*
X7102D01*
Y503937D01*
X6262Y508161D01*
X3869Y511742D01*
X288Y514135D01*
X-3937Y514976D01*
X-8161Y514135D01*
X-11742Y511742D01*
X-14135Y508161D01*
X-14976Y503937D01*
Y497966D01*
X-19685D01*
X-24335Y497041D01*
X-29335Y499387D01*
Y1806403D01*
X-24715Y1808317D01*
X120457Y1663144D01*
Y1637638D01*
X116477Y1633658D01*
X113780Y1627146D01*
Y1620098D01*
X116477Y1613586D01*
X121460Y1608603D01*
X127972Y1605906D01*
X135020D01*
X141532Y1608603D01*
X146515Y1613586D01*
X149213Y1620098D01*
Y1627146D01*
X146515Y1633658D01*
X142535Y1637638D01*
Y1667716D01*
X141695Y1671941D01*
X139302Y1675522D01*
X-13568Y1828391D01*
Y1893957D01*
X-8567Y1897297D01*
X-5492Y1896024D01*
X1556D01*
X7261Y1898387D01*
X461402Y1444247D01*
Y1240158D01*
X462242Y1235933D01*
X464635Y1232352D01*
X543375Y1153612D01*
X546957Y1151219D01*
X551181Y1150379D01*
X747396D01*
X859040Y1038735D01*
Y844725D01*
X855059Y840744D01*
X852362Y834233D01*
Y827185D01*
X855059Y820673D01*
X860043Y815689D01*
X866555Y812992D01*
X873603D01*
X880114Y815689D01*
X885098Y820673D01*
X887795Y827185D01*
Y834233D01*
X885098Y840744D01*
X881117Y844725D01*
Y1043307D01*
X880277Y1047532D01*
X877884Y1051113D01*
X759774Y1169223D01*
X756193Y1171616D01*
X751968Y1172456D01*
X555754D01*
X483480Y1244730D01*
Y1448819D01*
X482639Y1453043D01*
X480247Y1456625D01*
X15680Y1921191D01*
X13525Y1922631D01*
X13051Y1923776D01*
X8067Y1928760D01*
X1556Y1931457D01*
X-5492D01*
X-8567Y1930183D01*
X-13568Y1933524D01*
Y1955073D01*
X4572Y1973213D01*
X208026D01*
X541407Y1639832D01*
X544988Y1637439D01*
X549212Y1636599D01*
X794506D01*
X794531Y1636562D01*
X796039Y1631599D01*
X792130Y1627690D01*
X789716Y1621863D01*
X789630Y1621778D01*
X786150Y1616569D01*
X784928Y1610424D01*
X784928Y1610423D01*
Y1596457D01*
X781299D01*
Y1585250D01*
X776667Y1582811D01*
X776299Y1582869D01*
X774316Y1585836D01*
X771061Y1588012D01*
X767220Y1588775D01*
X743598D01*
X739758Y1588012D01*
X736502Y1585836D01*
X734327Y1582580D01*
X733563Y1578740D01*
Y1547244D01*
X734327Y1543404D01*
X736502Y1540148D01*
X739758Y1537973D01*
X743598Y1537209D01*
X767220D01*
X771061Y1537973D01*
X774316Y1540148D01*
X776299Y1543116D01*
X776667Y1543173D01*
X781299Y1540734D01*
Y1524803D01*
X816732D01*
Y1561441D01*
X817041Y1562992D01*
X817041Y1562993D01*
Y1602575D01*
X817185Y1602635D01*
X822168Y1607619D01*
X824865Y1614130D01*
Y1621178D01*
X822168Y1627690D01*
X818259Y1631599D01*
X819767Y1636562D01*
X819792Y1636599D01*
X938189D01*
X938899Y1635707D01*
X940404Y1631599D01*
X938817Y1629224D01*
X937977Y1625000D01*
Y1600551D01*
X927205D01*
Y1565630D01*
X949015D01*
X970827D01*
Y1600551D01*
X960054D01*
Y1625000D01*
X959214Y1629224D01*
X957628Y1631599D01*
X959132Y1635707D01*
X959842Y1636599D01*
X1302938D01*
Y1609451D01*
X1287470Y1593983D01*
X1285077Y1590402D01*
X1284237Y1586178D01*
Y1511811D01*
X1285077Y1507587D01*
X1287470Y1504005D01*
X1302938Y1488538D01*
Y1457677D01*
X1303150Y1456611D01*
Y1433071D01*
X1372047D01*
Y1468504D01*
X1325015D01*
Y1493110D01*
X1324175Y1497335D01*
X1321782Y1500916D01*
X1306314Y1516383D01*
Y1555118D01*
X1372047D01*
Y1561796D01*
X1520457D01*
Y1343680D01*
X1416557Y1239779D01*
X1327166D01*
X1322941Y1238939D01*
X1319360Y1236546D01*
X1256495Y1173681D01*
X1252010Y1175892D01*
X1252359Y1178543D01*
X1250803Y1190363D01*
X1246241Y1201376D01*
X1238984Y1210834D01*
X1229526Y1218091D01*
X1218512Y1222654D01*
X1206693Y1224210D01*
X1127953D01*
X1116134Y1222654D01*
X1105120Y1218091D01*
X1095662Y1210834D01*
X1088405Y1201376D01*
X1083843Y1190363D01*
X1082287Y1178543D01*
X1083843Y1166724D01*
X1088405Y1155710D01*
X1095662Y1146252D01*
X1105120Y1138995D01*
X1116134Y1134433D01*
X1127953Y1132877D01*
X1206693D01*
X1209344Y1133226D01*
X1211556Y1128742D01*
X965687Y882873D01*
X963294Y879292D01*
X963148Y878559D01*
X958148Y879051D01*
Y1238492D01*
X976378D01*
X980218Y1239256D01*
X983474Y1241432D01*
X985649Y1244687D01*
X986413Y1248528D01*
Y1249300D01*
X1224906D01*
X1229130Y1250140D01*
X1232711Y1252533D01*
X1257737Y1277559D01*
X1263367D01*
X1269878Y1280256D01*
X1274862Y1285240D01*
X1277559Y1291752D01*
Y1298800D01*
X1274862Y1305311D01*
X1269878Y1310295D01*
X1263367Y1312992D01*
X1256319D01*
X1249807Y1310295D01*
X1244823Y1305311D01*
X1242126Y1298800D01*
Y1293170D01*
X1220333Y1271377D01*
X986413D01*
Y1272150D01*
X985649Y1275990D01*
X983474Y1279246D01*
X980218Y1281421D01*
X976378Y1282185D01*
X944882D01*
X941042Y1281421D01*
X937786Y1279246D01*
X935611Y1275990D01*
X934847Y1272150D01*
Y1248528D01*
X935611Y1244687D01*
X936071Y1243998D01*
Y717829D01*
X931071Y716031D01*
X927358Y719744D01*
X920847Y722441D01*
X913799D01*
X907287Y719744D01*
X902303Y714760D01*
X899606Y708248D01*
Y701200D01*
X902303Y694689D01*
X907287Y689705D01*
X913799Y687008D01*
X920847D01*
X927358Y689705D01*
X931071Y693418D01*
X936071Y691620D01*
Y651951D01*
X841173Y557054D01*
X841101Y556946D01*
X838642Y555059D01*
X836755Y552599D01*
X836647Y552527D01*
X635593Y351473D01*
X633445Y352362D01*
X626397D01*
X619886Y349665D01*
X614902Y344681D01*
X612205Y338170D01*
Y331122D01*
X614902Y324610D01*
X619886Y319626D01*
X626397Y316929D01*
X633445D01*
X639957Y319626D01*
X644941Y324610D01*
X647638Y331122D01*
Y332296D01*
X833583Y518240D01*
X838583Y516169D01*
Y510565D01*
X841266Y500552D01*
X846449Y491574D01*
X853779Y484244D01*
X862757Y479061D01*
X872770Y476378D01*
X883136D01*
X893149Y479061D01*
X902126Y484244D01*
X909457Y491574D01*
X914640Y500552D01*
X917323Y510565D01*
Y520931D01*
X914640Y530944D01*
X909457Y539922D01*
X902126Y547252D01*
X893149Y552435D01*
X883136Y555118D01*
X877532D01*
X875460Y560118D01*
X954915Y639573D01*
X957308Y643154D01*
X958148Y647379D01*
Y764322D01*
X963148Y766394D01*
X963457Y766085D01*
X969969Y763388D01*
X977017D01*
X983528Y766085D01*
X988512Y771068D01*
X991209Y777580D01*
Y784628D01*
X988512Y791140D01*
X984532Y795120D01*
Y870495D01*
X1244616Y1130579D01*
X1244828Y1130897D01*
X1250052Y1135184D01*
X1253904Y1139878D01*
X1254288Y1140134D01*
X1254577Y1140567D01*
X1254657Y1140620D01*
X1331738Y1217701D01*
X1340339D01*
X1341934Y1212701D01*
X1334828Y1203441D01*
X1329854Y1191431D01*
X1328815Y1183543D01*
X1505831D01*
X1504792Y1191431D01*
X1499818Y1203441D01*
X1491904Y1213755D01*
X1481591Y1221668D01*
X1469581Y1226643D01*
X1456693Y1228339D01*
X1442872D01*
X1440959Y1232959D01*
X1539302Y1331302D01*
X1541695Y1334883D01*
X1542535Y1339107D01*
Y1570866D01*
Y1901599D01*
X1541695Y1905824D01*
X1539302Y1909405D01*
X1536419Y1912288D01*
X1446863Y2001843D01*
Y2076783D01*
X1364186D01*
Y1978358D01*
X1439126D01*
X1520457Y1897027D01*
Y1583873D01*
X1372047D01*
Y1590551D01*
X1321793D01*
X1319880Y1595171D01*
X1321782Y1597073D01*
X1324175Y1600654D01*
X1325015Y1604878D01*
Y1629921D01*
X1372047D01*
Y1665354D01*
X1303150D01*
Y1658677D01*
X553785D01*
X220404Y1992058D01*
X216823Y1994450D01*
X212598Y1995291D01*
X0D01*
X-4224Y1994451D01*
X-7806Y1992058D01*
X-24715Y1975148D01*
X-29335Y1977061D01*
Y3578520D01*
X122267Y3730122D01*
X1649386Y3730122D01*
X1800988Y3578520D01*
D02*
G37*
G36*
X1685110Y396582D02*
X1686718Y394176D01*
X1686521Y393701D01*
Y309542D01*
X1675890D01*
X1674470Y312967D01*
X1674133Y314542D01*
X1676494Y318076D01*
X1677392Y322589D01*
Y370325D01*
X1676494Y374837D01*
X1673938Y378663D01*
X1670113Y381219D01*
X1665601Y382116D01*
X1631644D01*
X1627131Y381219D01*
X1623306Y378663D01*
X1620750Y374837D01*
X1619852Y370325D01*
Y340112D01*
X1618025Y338891D01*
X1587505D01*
X1587145Y340701D01*
X1585415Y343289D01*
X1584954Y343597D01*
Y362484D01*
X1583732Y368629D01*
X1580251Y373838D01*
X1580251Y373838D01*
X1568720Y385369D01*
X1567409Y386246D01*
X1568925Y391246D01*
X1649606D01*
X1654126Y393118D01*
X1655998Y397638D01*
Y398830D01*
X1660998Y401502D01*
X1662861Y400258D01*
X1668299Y399176D01*
X1675110D01*
Y429134D01*
X1685110D01*
Y396582D01*
D02*
G37*
G36*
X1669291Y480315D02*
X1649606Y460630D01*
Y397638D01*
X1429134D01*
Y625984D01*
X1669291D01*
Y480315D01*
D02*
G37*
G36*
X1425197Y357959D02*
X1425197Y357959D01*
X1511811D01*
Y283465D01*
X1504761D01*
X1504520Y284048D01*
X1500000Y285920D01*
X1429134D01*
X1424614Y284048D01*
X1424031Y283465D01*
X1421260D01*
X1409449Y271653D01*
X1263780Y271654D01*
Y358268D01*
X1423645D01*
X1425197Y357959D01*
D02*
G37*
G36*
X1554969Y286871D02*
X1558022Y286264D01*
X1579774D01*
X1580222Y285896D01*
Y224409D01*
X1580396Y223991D01*
X1577055Y218990D01*
X1506392D01*
Y277072D01*
X1511811D01*
X1515457Y278583D01*
X1520457Y276538D01*
Y259842D01*
X1521298Y255618D01*
X1523690Y252037D01*
X1527272Y249644D01*
X1531496Y248804D01*
X1535720Y249644D01*
X1539302Y252037D01*
X1541695Y255618D01*
X1542535Y259842D01*
Y282122D01*
X1547023Y283014D01*
X1550965Y285649D01*
X1552766Y288343D01*
X1554969Y286871D01*
D02*
G37*
G36*
X1795276Y224409D02*
X1586614D01*
Y290395D01*
X1587145Y291189D01*
X1587752Y294242D01*
Y303150D01*
X1692913D01*
Y393701D01*
X1712598D01*
Y472441D01*
X1795276D01*
Y224409D01*
D02*
G37*
G36*
X1500000Y212598D02*
X1740158D01*
Y118110D01*
X1346457D01*
Y217119D01*
X1346683Y218258D01*
Y252215D01*
X1346457Y253353D01*
Y263779D01*
X1413386D01*
X1429134Y279528D01*
X1500000D01*
Y212598D01*
D02*
G37*
%LPC*%
G36*
X948323Y3715763D02*
X645669D01*
X641445Y3714923D01*
X637864Y3712530D01*
X606368Y3681034D01*
X603975Y3677453D01*
X603134Y3673228D01*
Y3578740D01*
X603975Y3574516D01*
X606368Y3570935D01*
X621620Y3555683D01*
X625201Y3553290D01*
X629425Y3552449D01*
X635634D01*
Y3551677D01*
X636398Y3547837D01*
X638573Y3544581D01*
X641829Y3542406D01*
X645669Y3541642D01*
X677165D01*
X681006Y3542406D01*
X684261Y3544581D01*
X686437Y3547837D01*
X687201Y3551677D01*
Y3552449D01*
X750000D01*
Y3517717D01*
X784646D01*
Y3589370D01*
X776372D01*
X774459Y3593989D01*
X780670Y3600201D01*
X797078D01*
X802909Y3594370D01*
X800837Y3589370D01*
X800000D01*
Y3517717D01*
X805890D01*
Y3478982D01*
X715900Y3388992D01*
X658325D01*
X655870Y3388503D01*
X648622D01*
X648525Y3388484D01*
X622047D01*
X618207Y3387720D01*
X614951Y3385545D01*
X612776Y3382289D01*
X612012Y3378449D01*
Y3354827D01*
X612776Y3350986D01*
X614951Y3347731D01*
X618207Y3345555D01*
X622047Y3344791D01*
X653543D01*
X657384Y3345555D01*
X660639Y3347731D01*
X662815Y3350986D01*
X663579Y3354827D01*
Y3366914D01*
X720472D01*
X724697Y3367754D01*
X728278Y3370147D01*
X824735Y3466604D01*
X827128Y3470185D01*
X827968Y3474409D01*
Y3517717D01*
X834646D01*
Y3589370D01*
X828362D01*
Y3595567D01*
X827521Y3599791D01*
X825128Y3603373D01*
X809475Y3619026D01*
X808752Y3619509D01*
Y3641732D01*
X807988Y3645573D01*
X805812Y3648828D01*
X802557Y3651004D01*
X798716Y3651768D01*
X775095D01*
X771254Y3651004D01*
X767999Y3648828D01*
X765823Y3645573D01*
X765059Y3641732D01*
Y3615812D01*
X755758Y3606511D01*
X749809D01*
X746752Y3610236D01*
Y3641732D01*
X745988Y3645573D01*
X743812Y3648828D01*
X740557Y3651004D01*
X738057Y3651501D01*
X736844Y3655730D01*
X736875Y3656702D01*
X739429Y3659256D01*
X742126Y3665767D01*
Y3672815D01*
X739429Y3679327D01*
X734445Y3684311D01*
X727933Y3687008D01*
X720885D01*
X714374Y3684311D01*
X709390Y3679327D01*
X706693Y3672815D01*
Y3665767D01*
X709390Y3659256D01*
X711998Y3656648D01*
X710610Y3651273D01*
X709254Y3651004D01*
X705999Y3648828D01*
X703823Y3645573D01*
X703059Y3641732D01*
Y3610466D01*
X702545Y3609996D01*
X698394Y3608059D01*
X687201Y3619253D01*
Y3637299D01*
X686437Y3641140D01*
X684261Y3644395D01*
X681006Y3646571D01*
X677165Y3647334D01*
X645669D01*
X641829Y3646571D01*
X638573Y3644395D01*
X636398Y3641140D01*
X635634Y3637299D01*
Y3613677D01*
X636398Y3609837D01*
X638573Y3606581D01*
X641829Y3604406D01*
X645669Y3603642D01*
X671589D01*
X687564Y3587667D01*
X691146Y3585274D01*
X695370Y3584434D01*
X750000D01*
Y3574527D01*
X687201D01*
Y3575299D01*
X686437Y3579140D01*
X684261Y3582395D01*
X681006Y3584571D01*
X677165Y3585334D01*
X645669D01*
X641829Y3584571D01*
X638573Y3582395D01*
X636398Y3579140D01*
X630982Y3577542D01*
X625212Y3583313D01*
Y3668656D01*
X650242Y3693686D01*
X943750D01*
X946658Y3690778D01*
Y3676842D01*
X941658Y3675847D01*
X940216Y3679327D01*
X935232Y3684311D01*
X928721Y3687008D01*
X921673D01*
X915161Y3684311D01*
X910178Y3679327D01*
X907480Y3672815D01*
Y3665767D01*
X908892Y3662359D01*
Y3646962D01*
X905794Y3644891D01*
X903618Y3641635D01*
X902855Y3637795D01*
Y3616312D01*
X902841Y3616244D01*
X902841Y3616244D01*
Y3589370D01*
X900000D01*
Y3517717D01*
X934646D01*
Y3553567D01*
X934954Y3555118D01*
X934954Y3555119D01*
Y3596264D01*
X936512D01*
X940352Y3597028D01*
X943608Y3599203D01*
X943761Y3599433D01*
X949597Y3599699D01*
X949843Y3599535D01*
X952853Y3597524D01*
X956284Y3596841D01*
Y3589370D01*
X950000D01*
Y3517717D01*
X956284D01*
Y3497244D01*
X957124Y3493020D01*
X959517Y3489439D01*
X976605Y3472351D01*
X974691Y3467732D01*
X885827D01*
X881602Y3466891D01*
X878021Y3464499D01*
X809517Y3395995D01*
X807124Y3392413D01*
X806284Y3388189D01*
Y3372047D01*
X800000D01*
Y3300394D01*
X809040D01*
Y3254921D01*
X807480D01*
Y3225394D01*
X842520D01*
Y3230623D01*
X845971Y3232044D01*
X847520Y3232375D01*
X850491Y3230390D01*
X854331Y3229626D01*
X885827D01*
X889667Y3230390D01*
X892923Y3232566D01*
X895084Y3235800D01*
X895195Y3235821D01*
X900081Y3235821D01*
X900192Y3235800D01*
X902353Y3232565D01*
X905609Y3230390D01*
X909449Y3229626D01*
X940945D01*
X944785Y3230390D01*
X948041Y3232565D01*
X950216Y3235821D01*
X950980Y3239661D01*
Y3257707D01*
X975128Y3281856D01*
X977521Y3285437D01*
X978362Y3289661D01*
Y3300394D01*
X984646D01*
Y3372047D01*
X950000D01*
Y3300394D01*
X956284D01*
Y3294234D01*
X935369Y3273319D01*
X909449D01*
X905609Y3272555D01*
X902353Y3270379D01*
X900192Y3267145D01*
X900081Y3267124D01*
X895195Y3267124D01*
X895084Y3267145D01*
X892923Y3270380D01*
X889667Y3272555D01*
X885827Y3273319D01*
X854331D01*
X850491Y3272555D01*
X847235Y3270380D01*
X845059Y3267124D01*
X844296Y3263284D01*
Y3259186D01*
X842519Y3254921D01*
X839295Y3254921D01*
X831118D01*
Y3300394D01*
X834646D01*
Y3372047D01*
X828362D01*
Y3383617D01*
X890399Y3445654D01*
X1065775D01*
X1177441Y3333988D01*
Y3289563D01*
X1176669D01*
X1172829Y3288799D01*
X1169573Y3286624D01*
X1167398Y3283368D01*
X1166634Y3279528D01*
Y3248032D01*
X1167398Y3244191D01*
X1169573Y3240936D01*
X1172829Y3238760D01*
X1176669Y3237996D01*
X1179410D01*
Y3179089D01*
X1176766Y3178563D01*
X1173510Y3176387D01*
X1171335Y3173132D01*
X1170571Y3169291D01*
Y3137795D01*
X1171335Y3133955D01*
X1173510Y3130699D01*
X1176766Y3128524D01*
X1180606Y3127760D01*
X1204228D01*
X1208069Y3128524D01*
X1211324Y3130699D01*
X1213500Y3133955D01*
X1214264Y3137795D01*
Y3169291D01*
X1213500Y3173132D01*
X1211324Y3176387D01*
X1208069Y3178563D01*
X1204228Y3179327D01*
X1201488D01*
Y3238234D01*
X1204132Y3238760D01*
X1207387Y3240936D01*
X1209563Y3244191D01*
X1210327Y3248032D01*
Y3279528D01*
X1209563Y3283368D01*
X1207387Y3286624D01*
X1204132Y3288799D01*
X1200291Y3289563D01*
X1199519D01*
Y3327648D01*
X1204139Y3329562D01*
X1267270Y3266430D01*
X1265788Y3260841D01*
X1261618Y3259114D01*
X1256634Y3254130D01*
X1253937Y3247619D01*
Y3240570D01*
X1256634Y3234059D01*
X1260615Y3230078D01*
Y2935532D01*
X1261455Y2931307D01*
X1263848Y2927726D01*
X1300969Y2890605D01*
Y2597441D01*
X1248032D01*
Y2520669D01*
X1375984D01*
Y2597441D01*
X1323047D01*
Y2895177D01*
X1322206Y2899401D01*
X1319813Y2902983D01*
X1282692Y2940104D01*
Y3230078D01*
X1286673Y3234059D01*
X1288400Y3238229D01*
X1293989Y3239711D01*
X1307859Y3225841D01*
Y3094488D01*
X1308699Y3090264D01*
X1311092Y3086683D01*
X1375000Y3022775D01*
Y2911417D01*
X1451772D01*
Y2913662D01*
X1615949D01*
Y2912890D01*
X1616713Y2909050D01*
X1618888Y2905794D01*
X1622144Y2903618D01*
X1625984Y2902854D01*
X1657480D01*
X1661321Y2903618D01*
X1664576Y2905794D01*
X1666752Y2909050D01*
X1667516Y2912890D01*
Y2936512D01*
X1666752Y2940352D01*
X1664576Y2943608D01*
X1661321Y2945783D01*
X1657480Y2946547D01*
X1625984D01*
X1622144Y2945783D01*
X1618888Y2943608D01*
X1616713Y2940352D01*
X1615949Y2936512D01*
Y2935740D01*
X1451772D01*
Y3039370D01*
X1389627D01*
X1329936Y3099061D01*
Y3230414D01*
X1329096Y3234638D01*
X1326703Y3238220D01*
X1165854Y3399069D01*
X1167027Y3404967D01*
X1170102Y3406240D01*
X1175086Y3411224D01*
X1177783Y3417736D01*
Y3424784D01*
X1175086Y3431295D01*
X1170102Y3436279D01*
X1163590Y3438976D01*
X1157961D01*
X1100943Y3495994D01*
X1097362Y3498387D01*
X1093137Y3499228D01*
X1068746D01*
X1054876Y3513097D01*
X1056790Y3517717D01*
X1084646D01*
Y3573759D01*
X1148947Y3638061D01*
X1151340Y3641642D01*
X1152180Y3645866D01*
Y3654528D01*
X1165354D01*
Y3684055D01*
X1130315D01*
Y3666421D01*
X1130103Y3665354D01*
Y3650439D01*
X1069034Y3589370D01*
X1050000D01*
Y3524506D01*
X1045381Y3522593D01*
X1034646Y3533328D01*
Y3589370D01*
X1028362D01*
Y3630861D01*
X1051816Y3654316D01*
X1060827D01*
X1061893Y3654528D01*
X1082283D01*
Y3684055D01*
X1047244D01*
Y3676393D01*
X1043020Y3675553D01*
X1039438Y3673160D01*
X1009517Y3643239D01*
X1007124Y3639657D01*
X1006284Y3635433D01*
Y3589370D01*
X1000000D01*
Y3517717D01*
X1019034D01*
X1048652Y3488099D01*
X1046738Y3483480D01*
X996699D01*
X978362Y3501817D01*
Y3517717D01*
X984646D01*
Y3589370D01*
X978362D01*
Y3596760D01*
X988189D01*
X992029Y3597524D01*
X995285Y3599699D01*
X997460Y3602955D01*
X998224Y3606795D01*
Y3630417D01*
X997460Y3634258D01*
X995285Y3637513D01*
X992029Y3639689D01*
X988189Y3640453D01*
X956693D01*
X952853Y3639689D01*
X951447Y3638749D01*
X946291Y3640381D01*
X945979Y3640652D01*
X945783Y3641635D01*
X943608Y3644891D01*
X941005Y3646630D01*
Y3661161D01*
X942406Y3664542D01*
X946447Y3664875D01*
X947533Y3664788D01*
X949597Y3661699D01*
X952853Y3659524D01*
X956693Y3658760D01*
X988189D01*
X992029Y3659524D01*
X995285Y3661699D01*
X997460Y3664955D01*
X998224Y3668795D01*
Y3692417D01*
X997460Y3696258D01*
X995285Y3699513D01*
X992029Y3701689D01*
X988189Y3702453D01*
X965966D01*
X965483Y3703176D01*
X956128Y3712530D01*
X952547Y3714923D01*
X948323Y3715763D01*
D02*
G37*
G36*
X874512Y3652005D02*
X867701D01*
Y3627047D01*
X888722D01*
Y3637795D01*
X887640Y3643233D01*
X884560Y3647843D01*
X879950Y3650923D01*
X874512Y3652005D01*
D02*
G37*
G36*
X831205Y3668519D02*
X830709D01*
X826484Y3667679D01*
X822903Y3665286D01*
X820510Y3661705D01*
X819670Y3657480D01*
X820510Y3653256D01*
X822903Y3649675D01*
X824398Y3648676D01*
X836680Y3636394D01*
Y3627047D01*
X857701D01*
Y3652005D01*
X852291D01*
X839010Y3665286D01*
X835429Y3667679D01*
X831205Y3668519D01*
D02*
G37*
G36*
X888722Y3617047D02*
X862701D01*
X836680D01*
Y3606299D01*
X837761Y3600861D01*
X840842Y3596251D01*
X845452Y3593171D01*
X845905Y3593081D01*
Y3558543D01*
X888740D01*
Y3593465D01*
X888704D01*
X886039Y3598465D01*
X887640Y3600861D01*
X888722Y3606299D01*
Y3617047D01*
D02*
G37*
G36*
X1713674Y3622035D02*
Y3548319D01*
X1764427D01*
Y3566941D01*
X1762527Y3581370D01*
X1756957Y3594817D01*
X1748097Y3606364D01*
X1736551Y3615224D01*
X1723104Y3620794D01*
X1713674Y3622035D01*
D02*
G37*
G36*
X477454Y3622035D02*
Y3548319D01*
X528206D01*
Y3566941D01*
X526307Y3581370D01*
X520737Y3594817D01*
X511877Y3606364D01*
X500330Y3615224D01*
X486884Y3620794D01*
X477454Y3622035D01*
D02*
G37*
G36*
X467454Y3622035D02*
X458024Y3620794D01*
X444577Y3615224D01*
X433031Y3606364D01*
X424171Y3594817D01*
X418601Y3581370D01*
X416701Y3566941D01*
Y3548319D01*
X467454D01*
Y3622035D01*
D02*
G37*
G36*
X1703674D02*
X1694244Y3620794D01*
X1680798Y3615224D01*
X1669251Y3606364D01*
X1660391Y3594817D01*
X1654821Y3581370D01*
X1652922Y3566941D01*
Y3548319D01*
X1703674D01*
Y3622035D01*
D02*
G37*
G36*
X1304225D02*
Y3548319D01*
X1354978D01*
Y3566941D01*
X1353078Y3581370D01*
X1347509Y3594817D01*
X1338648Y3606364D01*
X1327102Y3615224D01*
X1313655Y3620794D01*
X1304225Y3622035D01*
D02*
G37*
G36*
X1294225D02*
X1284796Y3620794D01*
X1271349Y3615224D01*
X1259802Y3606364D01*
X1250942Y3594817D01*
X1245372Y3581370D01*
X1243473Y3566941D01*
Y3548319D01*
X1294225D01*
Y3622035D01*
D02*
G37*
G36*
X68005D02*
Y3548319D01*
X118757D01*
Y3566941D01*
X116858Y3581370D01*
X111288Y3594817D01*
X102428Y3606364D01*
X90881Y3615224D01*
X77435Y3620794D01*
X68005Y3622035D01*
D02*
G37*
G36*
X58005D02*
X48575Y3620794D01*
X35129Y3615224D01*
X23582Y3606364D01*
X14722Y3594817D01*
X9152Y3581370D01*
X7252Y3566941D01*
Y3548319D01*
X58005D01*
Y3622035D01*
D02*
G37*
G36*
X888740Y3548543D02*
X872323D01*
Y3513622D01*
X888740D01*
Y3548543D01*
D02*
G37*
G36*
X862323D02*
X845905D01*
Y3513622D01*
X862323D01*
Y3548543D01*
D02*
G37*
G36*
X467454Y3538319D02*
X416701D01*
Y3519697D01*
X418601Y3505267D01*
X424171Y3491820D01*
X433031Y3480274D01*
X444577Y3471414D01*
X458024Y3465844D01*
X467454Y3464602D01*
Y3538319D01*
D02*
G37*
G36*
X1764427D02*
X1713674D01*
Y3464602D01*
X1723104Y3465844D01*
X1736551Y3471414D01*
X1748097Y3480274D01*
X1756957Y3491820D01*
X1762527Y3505267D01*
X1764427Y3519697D01*
Y3538319D01*
D02*
G37*
G36*
X1354978Y3538319D02*
X1304225D01*
Y3464602D01*
X1313655Y3465844D01*
X1327102Y3471414D01*
X1338648Y3480274D01*
X1347509Y3491820D01*
X1353078Y3505267D01*
X1354978Y3519697D01*
Y3538319D01*
D02*
G37*
G36*
X1294225D02*
X1243473D01*
Y3519697D01*
X1245372Y3505267D01*
X1250942Y3491820D01*
X1259802Y3480274D01*
X1271349Y3471414D01*
X1284796Y3465844D01*
X1294225Y3464602D01*
Y3538319D01*
D02*
G37*
G36*
X118757D02*
X68005D01*
Y3464602D01*
X77435Y3465844D01*
X90881Y3471414D01*
X102428Y3480274D01*
X111288Y3491820D01*
X116858Y3505267D01*
X118757Y3519697D01*
Y3538319D01*
D02*
G37*
G36*
X58005D02*
X7252D01*
Y3519697D01*
X9152Y3505267D01*
X14722Y3491820D01*
X23582Y3480274D01*
X35129Y3471414D01*
X48575Y3465844D01*
X58005Y3464602D01*
Y3538319D01*
D02*
G37*
G36*
X1703674Y3538319D02*
X1652922D01*
Y3519697D01*
X1654821Y3505267D01*
X1660391Y3491820D01*
X1669251Y3480274D01*
X1680798Y3471414D01*
X1694244Y3465844D01*
X1703674Y3464602D01*
Y3538319D01*
D02*
G37*
G36*
X528206D02*
X477454D01*
Y3464602D01*
X486884Y3465844D01*
X500330Y3471414D01*
X511877Y3480274D01*
X520737Y3491820D01*
X526307Y3505267D01*
X528206Y3519697D01*
Y3538319D01*
D02*
G37*
G36*
X653543Y3450484D02*
X622047D01*
X618207Y3449720D01*
X614951Y3447545D01*
X612776Y3444289D01*
X612012Y3440449D01*
Y3439677D01*
X601126D01*
X597146Y3443657D01*
X590634Y3446354D01*
X583586D01*
X577075Y3443657D01*
X572091Y3438673D01*
X569394Y3432162D01*
Y3425114D01*
X572091Y3418602D01*
X577075Y3413619D01*
X583586Y3410921D01*
X590634D01*
X597146Y3413619D01*
X601126Y3417599D01*
X612012D01*
Y3416827D01*
X612776Y3412986D01*
X614951Y3409731D01*
X618207Y3407555D01*
X622047Y3406791D01*
X653543D01*
X657384Y3407555D01*
X660639Y3409731D01*
X662815Y3412986D01*
X662822Y3413024D01*
X682087D01*
Y3401969D01*
X711614D01*
Y3437008D01*
X682087D01*
Y3435102D01*
X663579D01*
Y3440449D01*
X662815Y3444289D01*
X660639Y3447545D01*
X657384Y3449720D01*
X653543Y3450484D01*
D02*
G37*
G36*
X784646Y3372047D02*
X750000D01*
Y3347456D01*
X711614D01*
Y3353937D01*
X682087D01*
Y3318898D01*
X711614D01*
Y3325379D01*
X750000D01*
Y3300394D01*
X756284D01*
Y3267368D01*
X743838Y3254921D01*
X724410D01*
Y3225394D01*
X759449D01*
Y3239310D01*
X775128Y3254990D01*
X777521Y3258571D01*
X778362Y3262795D01*
Y3300394D01*
X784646D01*
Y3372047D01*
D02*
G37*
G36*
X866142Y3404740D02*
X861917Y3403899D01*
X858336Y3401506D01*
X855943Y3397925D01*
X855103Y3393701D01*
X855693Y3390732D01*
Y3376142D01*
X845905D01*
Y3341220D01*
X888740D01*
Y3376142D01*
X877771D01*
Y3393110D01*
X876931Y3397335D01*
X874538Y3400916D01*
X873947Y3401506D01*
X870366Y3403899D01*
X866142Y3404740D01*
D02*
G37*
G36*
X920847Y3411417D02*
X913799D01*
X907287Y3408720D01*
X902303Y3403736D01*
X899606Y3397225D01*
Y3390177D01*
X901266Y3386169D01*
Y3372047D01*
X900000D01*
Y3300394D01*
X934646D01*
Y3372047D01*
X933379D01*
Y3386169D01*
X935039Y3390177D01*
Y3397225D01*
X932342Y3403736D01*
X927358Y3408720D01*
X920847Y3411417D01*
D02*
G37*
G36*
X888740Y3331220D02*
X872323D01*
Y3296299D01*
X888740D01*
Y3331220D01*
D02*
G37*
G36*
X862323D02*
X845905D01*
Y3296299D01*
X862323D01*
Y3331220D01*
D02*
G37*
G36*
X544802Y3313216D02*
X313989D01*
X309765Y3312375D01*
X306184Y3309983D01*
X288330Y3292129D01*
X278521Y3296192D01*
X267729Y3297612D01*
X256938Y3296192D01*
X246882Y3292026D01*
X238246Y3285400D01*
X231620Y3276765D01*
X227455Y3266709D01*
X226034Y3255917D01*
Y3240169D01*
X227455Y3229378D01*
X231620Y3219321D01*
X238246Y3210686D01*
X246882Y3204060D01*
X256938Y3199894D01*
X267729Y3198474D01*
X278521Y3199894D01*
X288577Y3204060D01*
X297212Y3210686D01*
X303839Y3219321D01*
X308004Y3229378D01*
X309425Y3240169D01*
Y3255917D01*
X308004Y3266709D01*
X303941Y3276517D01*
X318562Y3291138D01*
X336372D01*
X337979Y3286403D01*
X336672Y3285400D01*
X330046Y3276765D01*
X325880Y3266709D01*
X324459Y3255917D01*
Y3240169D01*
X325880Y3229378D01*
X330046Y3219321D01*
X336672Y3210686D01*
X345307Y3204060D01*
X355116Y3199997D01*
Y2763767D01*
X355956Y2759542D01*
X358349Y2755961D01*
X575575Y2538735D01*
Y2342520D01*
X576416Y2338295D01*
X578809Y2334714D01*
X827544Y2085979D01*
Y2066073D01*
Y2008509D01*
X655649Y1836614D01*
X650019D01*
X643508Y1833917D01*
X638524Y1828933D01*
X635827Y1822422D01*
Y1815374D01*
X638524Y1808862D01*
X642011Y1805375D01*
X639548Y1800767D01*
X637795Y1801116D01*
X627047D01*
Y1775094D01*
Y1749073D01*
X637795D01*
X643233Y1750155D01*
X647843Y1753236D01*
X650923Y1757846D01*
X651113Y1758799D01*
X655024Y1759306D01*
X656280Y1759148D01*
X658258Y1756188D01*
X661514Y1754012D01*
X665354Y1753248D01*
X696850D01*
X700691Y1754012D01*
X703946Y1756188D01*
X706122Y1759443D01*
X706886Y1763284D01*
Y1764056D01*
X781299D01*
Y1742126D01*
X809155D01*
X811069Y1737507D01*
X793223Y1719661D01*
X706886D01*
Y1724906D01*
X706122Y1728746D01*
X703946Y1732002D01*
X700691Y1734177D01*
X696850Y1734941D01*
X665354D01*
X661514Y1734177D01*
X658258Y1732002D01*
X656083Y1728746D01*
X655319Y1724906D01*
Y1724133D01*
X647831D01*
Y1724906D01*
X647067Y1728746D01*
X644891Y1732002D01*
X641635Y1734177D01*
X637795Y1734941D01*
X606299D01*
X602459Y1734177D01*
X599203Y1732002D01*
X597028Y1728746D01*
X596264Y1724906D01*
Y1701284D01*
X597028Y1697443D01*
X599203Y1694188D01*
X602459Y1692012D01*
X606299Y1691248D01*
X637795D01*
X641635Y1692012D01*
X644891Y1694188D01*
X647067Y1697443D01*
X647831Y1701284D01*
Y1702056D01*
X655319D01*
Y1701284D01*
X656083Y1697443D01*
X658258Y1694188D01*
X661514Y1692012D01*
X665354Y1691248D01*
X696850D01*
X700691Y1692012D01*
X703946Y1694188D01*
X706122Y1697443D01*
X706150Y1697583D01*
X797795D01*
X802020Y1698424D01*
X805601Y1700816D01*
X846910Y1742126D01*
X866732D01*
Y1812165D01*
X870524Y1816441D01*
X870606Y1816499D01*
X877426D01*
X881299Y1813779D01*
X881299Y1811499D01*
Y1742126D01*
X901121D01*
X922706Y1720541D01*
X926287Y1718148D01*
X930512Y1717308D01*
X992126D01*
X996350Y1718148D01*
X999932Y1720541D01*
X1027491Y1748100D01*
X1029883Y1751681D01*
X1030724Y1755906D01*
Y1834010D01*
X1149538Y1952824D01*
X1151931Y1956406D01*
X1152771Y1960630D01*
Y2089916D01*
X1181738Y2118883D01*
X1259843D01*
X1264067Y2119723D01*
X1267648Y2122116D01*
X1445798Y2300265D01*
X1448191Y2303847D01*
X1449031Y2308071D01*
Y2520669D01*
X1555118D01*
Y2563268D01*
X1608075D01*
Y2562496D01*
X1608839Y2558656D01*
X1611014Y2555400D01*
X1614270Y2553225D01*
X1618110Y2552461D01*
X1649606D01*
X1653447Y2553225D01*
X1656702Y2555400D01*
X1658878Y2558656D01*
X1659642Y2562496D01*
Y2586118D01*
X1658878Y2589958D01*
X1656702Y2593214D01*
X1653447Y2595390D01*
X1649606Y2596153D01*
X1618110D01*
X1614270Y2595390D01*
X1611014Y2593214D01*
X1608839Y2589958D01*
X1608075Y2586118D01*
Y2585346D01*
X1555118D01*
Y2597441D01*
X1427166D01*
Y2532562D01*
X1426953Y2531496D01*
Y2312643D01*
X1255270Y2140960D01*
X1177165D01*
X1172941Y2140120D01*
X1169360Y2137727D01*
X1133927Y2102294D01*
X1131534Y2098713D01*
X1130694Y2094488D01*
Y1965202D01*
X1011879Y1846388D01*
X1009486Y1842807D01*
X1008646Y1838583D01*
Y1760478D01*
X987554Y1739385D01*
X970597D01*
X966732Y1742126D01*
Y1813779D01*
X963104D01*
Y1823486D01*
X963293Y1823613D01*
X965468Y1826868D01*
X966232Y1830709D01*
Y1837780D01*
X974342D01*
X976532Y1836873D01*
X983580D01*
X990091Y1839571D01*
X995075Y1844554D01*
X997772Y1851066D01*
Y1858114D01*
X995075Y1864626D01*
X990091Y1869609D01*
X983580Y1872306D01*
X976532D01*
X970706Y1869893D01*
X962406D01*
X960037Y1871476D01*
X956197Y1872240D01*
X932575D01*
X928735Y1871476D01*
X925479Y1869301D01*
X923303Y1866045D01*
X922539Y1862205D01*
Y1830709D01*
X923303Y1826868D01*
X925479Y1823613D01*
X928735Y1821437D01*
X930991Y1820988D01*
Y1779922D01*
X930991Y1779921D01*
X931299Y1778370D01*
Y1749703D01*
X926680Y1747790D01*
X916732Y1757737D01*
Y1783777D01*
X916944Y1784842D01*
X916732Y1785908D01*
Y1813779D01*
X902946D01*
X901429Y1818779D01*
X904245Y1820661D01*
X907325Y1825271D01*
X908407Y1830709D01*
Y1841457D01*
X882386D01*
X856365D01*
Y1830709D01*
X857447Y1825271D01*
X860527Y1820661D01*
X863342Y1818779D01*
X861826Y1813779D01*
X831299D01*
Y1757737D01*
X821352Y1747790D01*
X816732Y1749703D01*
Y1813779D01*
X810054D01*
Y1892869D01*
X900980Y1983794D01*
X911192D01*
X912676Y1981573D01*
X916501Y1979017D01*
X921014Y1978120D01*
X968750D01*
X973262Y1979017D01*
X977088Y1981573D01*
X979644Y1985399D01*
X980542Y1989911D01*
Y2023868D01*
X979644Y2028380D01*
X977088Y2032206D01*
X973262Y2034762D01*
X968750Y2035660D01*
X921014D01*
X916501Y2034762D01*
X912676Y2032206D01*
X910120Y2028380D01*
X909222Y2023868D01*
Y2005871D01*
X896407D01*
X892183Y2005031D01*
X888602Y2002638D01*
X791210Y1905246D01*
X788817Y1901665D01*
X787977Y1897441D01*
Y1813779D01*
X781299D01*
Y1786133D01*
X706886D01*
Y1786906D01*
X706122Y1790746D01*
X703946Y1794002D01*
X700691Y1796177D01*
X696850Y1796941D01*
X665354D01*
X661514Y1796177D01*
X658258Y1794002D01*
X656280Y1791041D01*
X655024Y1790883D01*
X651113Y1791390D01*
X650923Y1792343D01*
X648105Y1796562D01*
X648722Y1798660D01*
X649176Y1799543D01*
X650516Y1801181D01*
X657067D01*
X663579Y1803878D01*
X668563Y1808862D01*
X671260Y1815374D01*
Y1821003D01*
X846388Y1996131D01*
X848781Y1999713D01*
X849621Y2003937D01*
Y2047925D01*
X854622Y2050392D01*
X859537Y2048356D01*
X866585D01*
X873097Y2051053D01*
X878080Y2056037D01*
X880778Y2062549D01*
Y2069597D01*
X878080Y2076108D01*
X873097Y2081092D01*
X866585Y2083789D01*
X859537D01*
X854622Y2081753D01*
X849621Y2084221D01*
Y2090551D01*
X848781Y2094776D01*
X846388Y2098357D01*
X597653Y2347092D01*
Y2543307D01*
X596813Y2547531D01*
X594420Y2551113D01*
X377193Y2768339D01*
Y3199997D01*
X387002Y3204060D01*
X395638Y3210686D01*
X402264Y3219321D01*
X406429Y3229378D01*
X407850Y3240169D01*
Y3255917D01*
X406429Y3266709D01*
X402264Y3276765D01*
X395638Y3285400D01*
X394330Y3286403D01*
X395937Y3291138D01*
X540230D01*
X649701Y3181667D01*
X653282Y3179274D01*
X657506Y3178434D01*
X840352D01*
X842500Y3175173D01*
X840256Y3170151D01*
X836421Y3168563D01*
X832441Y3164582D01*
X708661D01*
X704437Y3163742D01*
X700856Y3161349D01*
X683208Y3143701D01*
X677578D01*
X671067Y3141004D01*
X666083Y3136020D01*
X663386Y3129508D01*
Y3126494D01*
X658386Y3124423D01*
X629716Y3153093D01*
Y3176598D01*
X628876Y3180823D01*
X626483Y3184404D01*
X545276Y3265611D01*
Y3271240D01*
X542578Y3277752D01*
X537595Y3282736D01*
X531083Y3285433D01*
X524035D01*
X517524Y3282736D01*
X512540Y3277752D01*
X509843Y3271240D01*
Y3264193D01*
X512540Y3257681D01*
X517524Y3252697D01*
X524035Y3250000D01*
X529664D01*
X580163Y3199501D01*
X578966Y3196488D01*
X577711Y3194882D01*
X571279D01*
X564768Y3192185D01*
X559784Y3187201D01*
X557087Y3180689D01*
Y3173641D01*
X559784Y3167130D01*
X563764Y3163149D01*
Y3090551D01*
X564605Y3086327D01*
X566997Y3082746D01*
X619379Y3030365D01*
Y3017457D01*
X615398Y3013477D01*
X612701Y3006965D01*
Y2999917D01*
X615398Y2993405D01*
X620382Y2988422D01*
X626893Y2985724D01*
X633941D01*
X640453Y2988422D01*
X645437Y2993405D01*
X648134Y2999917D01*
Y3006965D01*
X645437Y3013477D01*
X641456Y3017457D01*
Y3034937D01*
X640616Y3039161D01*
X638223Y3042743D01*
X585842Y3095124D01*
Y3163149D01*
X589822Y3167130D01*
X592520Y3173641D01*
Y3180074D01*
X594126Y3181328D01*
X597139Y3182525D01*
X607638Y3172026D01*
Y3148521D01*
X608479Y3144296D01*
X610872Y3140715D01*
X743644Y3007942D01*
X747226Y3005550D01*
X751450Y3004709D01*
X1062992D01*
X1067216Y3005550D01*
X1070798Y3007942D01*
X1138223Y3075368D01*
X1140616Y3078949D01*
X1141456Y3083173D01*
Y3127760D01*
X1142228D01*
X1146069Y3128524D01*
X1149324Y3130699D01*
X1151500Y3133955D01*
X1152264Y3137795D01*
Y3169291D01*
X1151500Y3173132D01*
X1149324Y3176387D01*
X1146069Y3178563D01*
X1142228Y3179327D01*
X1118606D01*
X1114766Y3178563D01*
X1111510Y3176387D01*
X1111484Y3176377D01*
X1105755Y3176773D01*
X1104040Y3179339D01*
X1099430Y3182420D01*
X1093992Y3183501D01*
X1087181D01*
Y3153543D01*
X1082181D01*
Y3148543D01*
X1056160D01*
Y3137795D01*
X1057242Y3132357D01*
X1060322Y3127747D01*
X1064932Y3124667D01*
X1070370Y3123585D01*
X1071142D01*
Y3113677D01*
X1071983Y3109453D01*
X1074376Y3105872D01*
X1077957Y3103479D01*
X1082181Y3102638D01*
X1086406Y3103479D01*
X1089987Y3105872D01*
X1092380Y3109453D01*
X1093220Y3113677D01*
Y3123585D01*
X1093992D01*
X1099430Y3124667D01*
X1104040Y3127747D01*
X1105755Y3130313D01*
X1111484Y3130709D01*
X1111510Y3130699D01*
X1114766Y3128524D01*
X1118606Y3127760D01*
X1119379D01*
Y3087746D01*
X1058420Y3026787D01*
X756022D01*
X679541Y3103268D01*
X681612Y3108268D01*
X684626D01*
X691138Y3110965D01*
X696122Y3115949D01*
X698819Y3122460D01*
Y3128090D01*
X713234Y3142505D01*
X832441D01*
X836421Y3138524D01*
X842933Y3135827D01*
X849981D01*
X856492Y3138524D01*
X861476Y3143508D01*
X864173Y3150019D01*
Y3157067D01*
X861871Y3162626D01*
X863962Y3167626D01*
X885827D01*
X889667Y3168390D01*
X892056Y3169986D01*
X895245Y3170067D01*
X898183Y3169437D01*
X899401Y3167613D01*
X904011Y3164533D01*
X909449Y3163451D01*
X914158D01*
Y3149606D01*
X914998Y3145382D01*
X917391Y3141801D01*
X920972Y3139408D01*
X925197Y3138568D01*
X929421Y3139408D01*
X933003Y3141801D01*
X935395Y3145382D01*
X936236Y3149606D01*
Y3163451D01*
X940945D01*
X946383Y3164533D01*
X950993Y3167613D01*
X954073Y3172224D01*
X955155Y3177661D01*
Y3184472D01*
X925197D01*
Y3189472D01*
X920197D01*
Y3215493D01*
X909449D01*
X904011Y3214412D01*
X899401Y3211331D01*
X898183Y3209508D01*
X895245Y3208878D01*
X892056Y3208959D01*
X889667Y3210555D01*
X885827Y3211319D01*
X854331D01*
X850491Y3210555D01*
X847235Y3208380D01*
X845059Y3205124D01*
X844296Y3201284D01*
Y3200511D01*
X662079D01*
X552607Y3309983D01*
X549026Y3312375D01*
X544802Y3313216D01*
D02*
G37*
G36*
X1034646Y3372047D02*
X1000000D01*
Y3300394D01*
X1007961D01*
Y3289383D01*
X1005026Y3288799D01*
X1001770Y3286624D01*
X999595Y3283368D01*
X998831Y3279528D01*
Y3272914D01*
X993831Y3271114D01*
X987776Y3273622D01*
X980728D01*
X974216Y3270925D01*
X969233Y3265941D01*
X966535Y3259430D01*
Y3252381D01*
X969233Y3245870D01*
X974216Y3240886D01*
X980728Y3238189D01*
X987776D01*
X994288Y3240886D01*
X995334Y3241933D01*
X1001625Y3241153D01*
X1001770Y3240936D01*
X1005026Y3238760D01*
X1008866Y3237996D01*
X1009390D01*
Y3179327D01*
X1008370D01*
X1004530Y3178563D01*
X1001274Y3176387D01*
X999099Y3173132D01*
X998335Y3169291D01*
Y3137795D01*
X999099Y3133955D01*
X1001274Y3130699D01*
X1004530Y3128524D01*
X1008370Y3127760D01*
X1031992D01*
X1035832Y3128524D01*
X1039088Y3130699D01*
X1041264Y3133955D01*
X1042027Y3137795D01*
Y3169291D01*
X1041264Y3173132D01*
X1039088Y3176387D01*
X1035832Y3178563D01*
X1031992Y3179327D01*
X1031468D01*
Y3237996D01*
X1032488D01*
X1036329Y3238760D01*
X1039584Y3240936D01*
X1041760Y3244191D01*
X1042524Y3248032D01*
Y3279528D01*
X1041760Y3283368D01*
X1039584Y3286624D01*
X1036329Y3288799D01*
X1032488Y3289563D01*
X1030039D01*
Y3300394D01*
X1034646D01*
Y3372047D01*
D02*
G37*
G36*
X649193Y3305118D02*
X642145D01*
X635634Y3302421D01*
X630650Y3297437D01*
X627953Y3290926D01*
Y3283878D01*
X630650Y3277366D01*
X635634Y3272382D01*
X642145Y3269685D01*
X649193D01*
X655705Y3272382D01*
X660689Y3277366D01*
X663386Y3283878D01*
Y3290926D01*
X660689Y3297437D01*
X655705Y3302421D01*
X649193Y3305118D01*
D02*
G37*
G36*
X214737Y3301350D02*
X174304D01*
Y3253043D01*
X214737D01*
Y3301350D01*
D02*
G37*
G36*
X164304D02*
X123871D01*
Y3253043D01*
X164304D01*
Y3301350D01*
D02*
G37*
G36*
X1070847Y3411024D02*
X1063799D01*
X1057287Y3408326D01*
X1052303Y3403343D01*
X1049606Y3396831D01*
Y3389783D01*
X1052303Y3383271D01*
X1056284Y3379291D01*
Y3372047D01*
X1050000D01*
Y3300394D01*
X1056284D01*
Y3283071D01*
X1057124Y3278847D01*
X1059517Y3275265D01*
X1060831Y3273952D01*
Y3248032D01*
X1061595Y3244191D01*
X1063770Y3240936D01*
X1067026Y3238760D01*
X1070866Y3237996D01*
X1094488D01*
X1098329Y3238760D01*
X1101584Y3240936D01*
X1107573D01*
X1110829Y3238760D01*
X1114669Y3237996D01*
X1138291D01*
X1142132Y3238760D01*
X1145387Y3240936D01*
X1147563Y3244191D01*
X1148327Y3248032D01*
Y3279528D01*
X1147563Y3283368D01*
X1145387Y3286624D01*
X1142132Y3288799D01*
X1138291Y3289563D01*
X1114669D01*
X1110829Y3288799D01*
X1107573Y3286624D01*
X1101584D01*
X1098329Y3288799D01*
X1094488Y3289563D01*
X1078362D01*
Y3300394D01*
X1084646D01*
Y3372047D01*
X1078362D01*
Y3379291D01*
X1082342Y3383271D01*
X1085039Y3389783D01*
Y3396831D01*
X1082342Y3403343D01*
X1077358Y3408326D01*
X1070847Y3411024D01*
D02*
G37*
G36*
X1446863Y3297256D02*
X1364186D01*
Y3198831D01*
X1446863D01*
Y3297256D01*
D02*
G37*
G36*
X1602375Y3297612D02*
X1591584Y3296192D01*
X1581527Y3292026D01*
X1572892Y3285400D01*
X1566266Y3276765D01*
X1562101Y3266709D01*
X1560680Y3255917D01*
Y3240169D01*
X1562101Y3229378D01*
X1566266Y3219321D01*
X1572892Y3210686D01*
X1581527Y3204060D01*
X1591584Y3199894D01*
X1602375Y3198474D01*
X1613167Y3199894D01*
X1623223Y3204060D01*
X1631858Y3210686D01*
X1638484Y3219321D01*
X1642650Y3229378D01*
X1644070Y3240169D01*
Y3255917D01*
X1642650Y3266709D01*
X1638484Y3276765D01*
X1631858Y3285400D01*
X1623223Y3292026D01*
X1613167Y3296192D01*
X1602375Y3297612D01*
D02*
G37*
G36*
X1503950D02*
X1493158Y3296192D01*
X1483102Y3292026D01*
X1474467Y3285400D01*
X1467841Y3276765D01*
X1463675Y3266709D01*
X1462255Y3255917D01*
Y3240169D01*
X1463675Y3229378D01*
X1467841Y3219321D01*
X1474467Y3210686D01*
X1483102Y3204060D01*
X1493158Y3199894D01*
X1503950Y3198474D01*
X1514741Y3199894D01*
X1524797Y3204060D01*
X1533433Y3210686D01*
X1540059Y3219321D01*
X1544224Y3229378D01*
X1545645Y3240169D01*
Y3255917D01*
X1544224Y3266709D01*
X1540059Y3276765D01*
X1533433Y3285400D01*
X1524797Y3292026D01*
X1514741Y3296192D01*
X1503950Y3297612D01*
D02*
G37*
G36*
X214737Y3243043D02*
X174304D01*
Y3194736D01*
X214737D01*
Y3243043D01*
D02*
G37*
G36*
X164304D02*
X123871D01*
Y3194736D01*
X164304D01*
Y3243043D01*
D02*
G37*
G36*
X940945Y3215493D02*
X930197D01*
Y3194472D01*
X955155D01*
Y3201283D01*
X954073Y3206721D01*
X950993Y3211331D01*
X946383Y3214412D01*
X940945Y3215493D01*
D02*
G37*
G36*
X1077181Y3183501D02*
X1070370D01*
X1064932Y3182420D01*
X1060322Y3179339D01*
X1057242Y3174729D01*
X1056160Y3169291D01*
Y3158543D01*
X1077181D01*
Y3183501D01*
D02*
G37*
G36*
X122520Y3037480D02*
X50709D01*
Y2965669D01*
X122520D01*
Y3037480D01*
D02*
G37*
G36*
X91880Y2941575D02*
X91614D01*
Y2906575D01*
X126614D01*
Y2906841D01*
X123888Y2917014D01*
X118622Y2926135D01*
X111175Y2933583D01*
X102054Y2938849D01*
X91880Y2941575D01*
D02*
G37*
G36*
X81614D02*
X81348D01*
X71175Y2938849D01*
X62054Y2933583D01*
X54606Y2926135D01*
X49340Y2917014D01*
X46614Y2906841D01*
Y2906575D01*
X81614D01*
Y2941575D01*
D02*
G37*
G36*
X1636732Y2888722D02*
X1625984D01*
X1620546Y2887640D01*
X1615936Y2884560D01*
X1612856Y2879950D01*
X1611774Y2874512D01*
Y2867701D01*
X1636732D01*
Y2888722D01*
D02*
G37*
G36*
X126614Y2896575D02*
X91614D01*
Y2861575D01*
X91880D01*
X102054Y2864301D01*
X111175Y2869567D01*
X118622Y2877014D01*
X123888Y2886135D01*
X126614Y2896309D01*
Y2896575D01*
D02*
G37*
G36*
X81614D02*
X46614D01*
Y2896309D01*
X49340Y2886135D01*
X54606Y2877014D01*
X62054Y2869567D01*
X71175Y2864301D01*
X81348Y2861575D01*
X81614D01*
Y2896575D01*
D02*
G37*
G36*
X1657480Y2888722D02*
X1646732D01*
Y2862701D01*
Y2836680D01*
X1657480D01*
X1662918Y2837762D01*
X1667528Y2840842D01*
X1670609Y2845452D01*
X1671690Y2850890D01*
Y2851662D01*
X1680606D01*
X1684831Y2852502D01*
X1688412Y2854895D01*
X1690805Y2858476D01*
X1691645Y2862701D01*
X1690805Y2866925D01*
X1688412Y2870506D01*
X1684831Y2872899D01*
X1680606Y2873740D01*
X1671690D01*
Y2874512D01*
X1670609Y2879950D01*
X1667528Y2884560D01*
X1662918Y2887640D01*
X1657480Y2888722D01*
D02*
G37*
G36*
X1636732Y2857701D02*
X1611774D01*
Y2850890D01*
X1612856Y2845452D01*
X1615936Y2840842D01*
X1620546Y2837762D01*
X1625984Y2836680D01*
X1636732D01*
Y2857701D01*
D02*
G37*
G36*
X1455866Y2864331D02*
X1418386D01*
Y2801260D01*
X1455866D01*
Y2864331D01*
D02*
G37*
G36*
X1408386D02*
X1370906D01*
Y2801260D01*
X1408386D01*
Y2864331D01*
D02*
G37*
G36*
X91341Y2837480D02*
X81887D01*
X72755Y2835033D01*
X64568Y2830306D01*
X57883Y2823621D01*
X53156Y2815434D01*
X50709Y2806302D01*
Y2796848D01*
X53156Y2787716D01*
X57883Y2779528D01*
X64568Y2772843D01*
X72755Y2768116D01*
X81887Y2765669D01*
X91341D01*
X100473Y2768116D01*
X108661Y2772843D01*
X115346Y2779528D01*
X120073Y2787716D01*
X122520Y2796848D01*
Y2806302D01*
X120073Y2815434D01*
X115346Y2823621D01*
X108661Y2830306D01*
X100473Y2835033D01*
X91341Y2837480D01*
D02*
G37*
G36*
X840827Y2793450D02*
Y2760905D01*
X873371D01*
X870826Y2770403D01*
X865881Y2778967D01*
X858889Y2785960D01*
X850324Y2790905D01*
X840827Y2793450D01*
D02*
G37*
G36*
X830827D02*
X821330Y2790905D01*
X812765Y2785960D01*
X805772Y2778967D01*
X800827Y2770403D01*
X798283Y2760905D01*
X830827D01*
Y2793450D01*
D02*
G37*
G36*
X969291Y2789370D02*
X902362D01*
Y2722441D01*
X969291D01*
Y2789370D01*
D02*
G37*
G36*
X873371Y2750905D02*
X840827D01*
Y2718361D01*
X850324Y2720906D01*
X858889Y2725851D01*
X865881Y2732844D01*
X870826Y2741408D01*
X873371Y2750905D01*
D02*
G37*
G36*
X830827D02*
X798283D01*
X800827Y2741408D01*
X805772Y2732844D01*
X812765Y2725851D01*
X821330Y2720906D01*
X830827Y2718361D01*
Y2750905D01*
D02*
G37*
G36*
X1455866Y2791260D02*
X1413386D01*
X1370906D01*
Y2728189D01*
X1402347D01*
Y2712598D01*
X1403187Y2708374D01*
X1405580Y2704793D01*
X1409161Y2702400D01*
X1413386Y2701560D01*
X1417610Y2702400D01*
X1421191Y2704793D01*
X1423584Y2708374D01*
X1424425Y2712598D01*
Y2728189D01*
X1455866D01*
Y2791260D01*
D02*
G37*
G36*
X374016Y2600750D02*
X358268D01*
X347476Y2599330D01*
X337420Y2595164D01*
X328785Y2588538D01*
X322159Y2579903D01*
X317993Y2569847D01*
X316572Y2559055D01*
X317993Y2548264D01*
X322159Y2538207D01*
X328785Y2529572D01*
X337420Y2522946D01*
X347476Y2518781D01*
X358268Y2517360D01*
X374016D01*
X384807Y2518781D01*
X394863Y2522946D01*
X403499Y2529572D01*
X410125Y2538207D01*
X414290Y2548264D01*
X415711Y2559055D01*
X414290Y2569847D01*
X410125Y2579903D01*
X403499Y2588538D01*
X394863Y2595164D01*
X384807Y2599330D01*
X374016Y2600750D01*
D02*
G37*
G36*
X177165D02*
X161417D01*
X150626Y2599330D01*
X140570Y2595164D01*
X131934Y2588538D01*
X125308Y2579903D01*
X121143Y2569847D01*
X119722Y2559055D01*
X121143Y2548264D01*
X125308Y2538207D01*
X131934Y2529572D01*
X140570Y2522946D01*
X150626Y2518781D01*
X161417Y2517360D01*
X177165D01*
X187957Y2518781D01*
X198013Y2522946D01*
X206648Y2529572D01*
X213274Y2538207D01*
X217440Y2548264D01*
X218861Y2559055D01*
X217440Y2569847D01*
X213274Y2579903D01*
X206648Y2588538D01*
X198013Y2595164D01*
X187957Y2599330D01*
X177165Y2600750D01*
D02*
G37*
G36*
X1649606Y2538328D02*
X1638859D01*
Y2517307D01*
X1663816D01*
Y2524118D01*
X1662735Y2529556D01*
X1659654Y2534166D01*
X1655044Y2537246D01*
X1649606Y2538328D01*
D02*
G37*
G36*
X1628859D02*
X1618110D01*
X1612672Y2537246D01*
X1608062Y2534166D01*
X1604982Y2529556D01*
X1603900Y2524118D01*
Y2517307D01*
X1628859D01*
Y2538328D01*
D02*
G37*
G36*
X1663816Y2507307D02*
X1633859D01*
X1603900D01*
Y2500496D01*
X1604982Y2495058D01*
X1608062Y2490448D01*
X1612672Y2487368D01*
X1618110Y2486286D01*
X1622820D01*
Y2472441D01*
X1623660Y2468216D01*
X1626053Y2464635D01*
X1629634Y2462242D01*
X1633858Y2461402D01*
X1638083Y2462242D01*
X1641664Y2464635D01*
X1644057Y2468216D01*
X1644897Y2472441D01*
Y2486286D01*
X1649606D01*
X1655044Y2487368D01*
X1659654Y2490448D01*
X1662735Y2495058D01*
X1663816Y2500496D01*
Y2507307D01*
D02*
G37*
G36*
X243681Y2722441D02*
X236633D01*
X230122Y2719744D01*
X225138Y2714760D01*
X222441Y2708248D01*
Y2701200D01*
X225138Y2694689D01*
X229119Y2690708D01*
Y2578740D01*
X229959Y2574516D01*
X232352Y2570935D01*
X358336Y2444950D01*
X361917Y2442557D01*
X366142Y2441717D01*
X482047D01*
X486027Y2437737D01*
X492539Y2435039D01*
X499587D01*
X506099Y2437737D01*
X511082Y2442720D01*
X513779Y2449232D01*
Y2456280D01*
X511082Y2462791D01*
X506099Y2467775D01*
X499587Y2470472D01*
X492539D01*
X486027Y2467775D01*
X482047Y2463795D01*
X370714D01*
X251196Y2583313D01*
Y2690708D01*
X255177Y2694689D01*
X257874Y2701200D01*
Y2708248D01*
X255177Y2714760D01*
X250193Y2719744D01*
X243681Y2722441D01*
D02*
G37*
G36*
X1201185Y2417055D02*
X1190941D01*
X1181046Y2414404D01*
X1172175Y2409282D01*
X1164931Y2402038D01*
X1159809Y2393167D01*
X1157158Y2383272D01*
Y2373028D01*
X1159809Y2363133D01*
X1161868Y2359566D01*
X937076Y2134774D01*
X934683Y2131193D01*
X933843Y2126968D01*
Y2116368D01*
X921014D01*
X916501Y2115471D01*
X912676Y2112915D01*
X910120Y2109089D01*
X909222Y2104577D01*
Y2070620D01*
X910120Y2066108D01*
X912676Y2062282D01*
X916501Y2059726D01*
X921014Y2058829D01*
X968750D01*
X973262Y2059726D01*
X977088Y2062282D01*
X979644Y2066108D01*
X980542Y2070620D01*
Y2104577D01*
X979644Y2109089D01*
X977088Y2112915D01*
X973262Y2115471D01*
X968750Y2116368D01*
X955921D01*
Y2122396D01*
X1177479Y2343955D01*
X1181046Y2341896D01*
X1190941Y2339244D01*
X1201185D01*
X1211080Y2341896D01*
X1219951Y2347017D01*
X1227195Y2354261D01*
X1232317Y2363133D01*
X1234968Y2373028D01*
Y2383272D01*
X1232317Y2393167D01*
X1227195Y2402038D01*
X1219951Y2409282D01*
X1211080Y2414404D01*
X1201185Y2417055D01*
D02*
G37*
G36*
X434134Y2401562D02*
Y2327847D01*
X484886D01*
Y2346468D01*
X482987Y2360898D01*
X477417Y2374345D01*
X468557Y2385891D01*
X457010Y2394751D01*
X443564Y2400321D01*
X434134Y2401562D01*
D02*
G37*
G36*
X1713674D02*
Y2327847D01*
X1764427D01*
Y2346468D01*
X1762527Y2360898D01*
X1756957Y2374345D01*
X1748097Y2385891D01*
X1736551Y2394751D01*
X1723104Y2400321D01*
X1713674Y2401562D01*
D02*
G37*
G36*
X424134D02*
X414704Y2400321D01*
X401257Y2394751D01*
X389711Y2385891D01*
X380851Y2374345D01*
X375281Y2360898D01*
X373381Y2346468D01*
Y2327847D01*
X424134D01*
Y2401562D01*
D02*
G37*
G36*
X1703674D02*
X1694244Y2400321D01*
X1680798Y2394751D01*
X1669251Y2385891D01*
X1660391Y2374345D01*
X1654821Y2360898D01*
X1652922Y2346468D01*
Y2327847D01*
X1703674D01*
Y2401562D01*
D02*
G37*
G36*
X1304225D02*
Y2327846D01*
X1354978D01*
Y2346468D01*
X1353078Y2360898D01*
X1347509Y2374345D01*
X1338648Y2385891D01*
X1327102Y2394751D01*
X1313655Y2400321D01*
X1304225Y2401562D01*
D02*
G37*
G36*
X1294225D02*
X1284796Y2400321D01*
X1271349Y2394751D01*
X1259802Y2385891D01*
X1250942Y2374345D01*
X1245372Y2360898D01*
X1243473Y2346468D01*
Y2327846D01*
X1294225D01*
Y2401562D01*
D02*
G37*
G36*
X111299D02*
Y2327846D01*
X162052D01*
Y2346468D01*
X160152Y2360898D01*
X154582Y2374345D01*
X145722Y2385891D01*
X134175Y2394751D01*
X120729Y2400321D01*
X111299Y2401562D01*
D02*
G37*
G36*
X101299D02*
X91869Y2400321D01*
X78423Y2394751D01*
X66876Y2385891D01*
X58016Y2374345D01*
X52446Y2360898D01*
X50547Y2346468D01*
Y2327846D01*
X101299D01*
Y2401562D01*
D02*
G37*
G36*
X801185Y2392055D02*
X790941D01*
X781046Y2389404D01*
X772174Y2384282D01*
X764931Y2377038D01*
X759809Y2368167D01*
X757158Y2358272D01*
Y2348028D01*
X759809Y2338133D01*
X764931Y2329261D01*
X772174Y2322017D01*
X781046Y2316896D01*
X790941Y2314244D01*
X801185D01*
X811080Y2316896D01*
X819952Y2322017D01*
X827195Y2329261D01*
X832317Y2338133D01*
X834968Y2348028D01*
Y2358272D01*
X832317Y2368167D01*
X827195Y2377038D01*
X819952Y2384282D01*
X811080Y2389404D01*
X801185Y2392055D01*
D02*
G37*
G36*
X1764427Y2317847D02*
X1713674D01*
Y2244130D01*
X1723104Y2245371D01*
X1736551Y2250941D01*
X1748097Y2259801D01*
X1756957Y2271348D01*
X1762527Y2284794D01*
X1764427Y2299224D01*
Y2317847D01*
D02*
G37*
G36*
X484886D02*
X434134D01*
Y2244130D01*
X443564Y2245371D01*
X457010Y2250941D01*
X468557Y2259801D01*
X477417Y2271348D01*
X482987Y2284794D01*
X484886Y2299224D01*
Y2317847D01*
D02*
G37*
G36*
X1354978Y2317846D02*
X1304225D01*
Y2244130D01*
X1313655Y2245371D01*
X1327102Y2250941D01*
X1338648Y2259801D01*
X1347509Y2271348D01*
X1353078Y2284794D01*
X1354978Y2299224D01*
Y2317846D01*
D02*
G37*
G36*
X1294225D02*
X1243473D01*
Y2299224D01*
X1245372Y2284794D01*
X1250942Y2271348D01*
X1259802Y2259801D01*
X1271349Y2250941D01*
X1284796Y2245371D01*
X1294225Y2244130D01*
Y2317846D01*
D02*
G37*
G36*
X162052D02*
X111299D01*
Y2244130D01*
X120729Y2245371D01*
X134175Y2250941D01*
X145722Y2259801D01*
X154582Y2271348D01*
X160152Y2284794D01*
X162052Y2299224D01*
Y2317846D01*
D02*
G37*
G36*
X101299D02*
X50547D01*
Y2299224D01*
X52446Y2284794D01*
X58016Y2271348D01*
X66876Y2259801D01*
X78423Y2250941D01*
X91869Y2245371D01*
X101299Y2244130D01*
Y2317846D01*
D02*
G37*
G36*
X1703674Y2317847D02*
X1652922D01*
Y2299224D01*
X1654821Y2284794D01*
X1660391Y2271348D01*
X1669251Y2259801D01*
X1680798Y2250941D01*
X1694244Y2245371D01*
X1703674Y2244130D01*
Y2317847D01*
D02*
G37*
G36*
X424134D02*
X373381D01*
Y2299224D01*
X375281Y2284794D01*
X380851Y2271348D01*
X389711Y2259801D01*
X401257Y2250941D01*
X414704Y2245371D01*
X424134Y2244130D01*
Y2317847D01*
D02*
G37*
G36*
X1201724Y2271150D02*
X1201063D01*
Y2233150D01*
X1239063D01*
Y2233811D01*
X1236133Y2244747D01*
X1230472Y2254552D01*
X1222466Y2262558D01*
X1212660Y2268219D01*
X1201724Y2271150D01*
D02*
G37*
G36*
X1191063D02*
X1190402D01*
X1179466Y2268219D01*
X1169660Y2262558D01*
X1161655Y2254552D01*
X1155993Y2244747D01*
X1153063Y2233811D01*
Y2233150D01*
X1191063D01*
Y2271150D01*
D02*
G37*
G36*
X801185Y2292055D02*
X790941D01*
X781046Y2289404D01*
X772174Y2284282D01*
X764931Y2277038D01*
X759809Y2268167D01*
X757158Y2258272D01*
Y2248028D01*
X759809Y2238133D01*
X764931Y2229261D01*
X772174Y2222017D01*
X781046Y2216896D01*
X790941Y2214244D01*
X801185D01*
X811080Y2216896D01*
X819952Y2222017D01*
X827195Y2229261D01*
X832317Y2238133D01*
X834968Y2248028D01*
Y2258272D01*
X832317Y2268167D01*
X827195Y2277038D01*
X819952Y2284282D01*
X811080Y2289404D01*
X801185Y2292055D01*
D02*
G37*
G36*
X562579Y2226378D02*
X555531D01*
X549019Y2223681D01*
X544036Y2218697D01*
X541339Y2212185D01*
Y2205137D01*
X544036Y2198626D01*
X549019Y2193642D01*
X555531Y2190945D01*
X562579D01*
X569091Y2193642D01*
X574074Y2198626D01*
X576772Y2205137D01*
Y2212185D01*
X574074Y2218697D01*
X569091Y2223681D01*
X562579Y2226378D01*
D02*
G37*
G36*
X1239063Y2223150D02*
X1201063D01*
Y2185150D01*
X1201724D01*
X1212660Y2188080D01*
X1222466Y2193741D01*
X1230472Y2201747D01*
X1236133Y2211552D01*
X1239063Y2222488D01*
Y2223150D01*
D02*
G37*
G36*
X1191063D02*
X1153063D01*
Y2222488D01*
X1155993Y2211552D01*
X1161655Y2201747D01*
X1169660Y2193741D01*
X1179466Y2188080D01*
X1190402Y2185150D01*
X1191063D01*
Y2223150D01*
D02*
G37*
G36*
X550768Y2312992D02*
X543720D01*
X537208Y2310295D01*
X532225Y2305311D01*
X529528Y2298800D01*
Y2291752D01*
X532225Y2285240D01*
X537208Y2280256D01*
X543720Y2277559D01*
X549349D01*
X597819Y2229089D01*
Y2109882D01*
X593839Y2105902D01*
X591142Y2099390D01*
Y2092342D01*
X593839Y2085831D01*
X598823Y2080847D01*
X605334Y2078150D01*
X612382D01*
X618894Y2080847D01*
X623878Y2085831D01*
X626575Y2092342D01*
Y2099390D01*
X623878Y2105902D01*
X619897Y2109882D01*
Y2233661D01*
X619057Y2237886D01*
X616664Y2241467D01*
X564961Y2293170D01*
Y2298800D01*
X562263Y2305311D01*
X557280Y2310295D01*
X550768Y2312992D01*
D02*
G37*
G36*
X210643Y2135827D02*
X127966D01*
Y2037401D01*
X210643D01*
Y2135827D01*
D02*
G37*
G36*
X366155Y2136183D02*
X355363Y2134763D01*
X345307Y2130597D01*
X336672Y2123971D01*
X330046Y2115336D01*
X325880Y2105280D01*
X324459Y2094488D01*
Y2078740D01*
X325880Y2067948D01*
X330046Y2057892D01*
X336672Y2049257D01*
X345307Y2042631D01*
X355363Y2038466D01*
X366155Y2037045D01*
X376946Y2038466D01*
X387002Y2042631D01*
X395638Y2049257D01*
X402264Y2057892D01*
X406429Y2067948D01*
X407850Y2078740D01*
Y2094488D01*
X406429Y2105280D01*
X402264Y2115336D01*
X395638Y2123971D01*
X387002Y2130597D01*
X376946Y2134763D01*
X366155Y2136183D01*
D02*
G37*
G36*
X267716D02*
X256925Y2134763D01*
X246869Y2130597D01*
X238233Y2123971D01*
X231607Y2115336D01*
X227442Y2105280D01*
X226021Y2094488D01*
Y2078740D01*
X227442Y2067948D01*
X231607Y2057892D01*
X238233Y2049257D01*
X246869Y2042631D01*
X256925Y2038466D01*
X267716Y2037045D01*
X278508Y2038466D01*
X288564Y2042631D01*
X297200Y2049257D01*
X303826Y2057892D01*
X307991Y2067948D01*
X309412Y2078740D01*
Y2094488D01*
X307991Y2105280D01*
X303826Y2115336D01*
X297200Y2123971D01*
X288564Y2130597D01*
X278508Y2134763D01*
X267716Y2136183D01*
D02*
G37*
G36*
X1602375Y2077140D02*
X1591584Y2075719D01*
X1581527Y2071554D01*
X1572892Y2064928D01*
X1566266Y2056292D01*
X1562101Y2046236D01*
X1560680Y2035445D01*
Y2019697D01*
X1562101Y2008905D01*
X1566266Y1998849D01*
X1572892Y1990214D01*
X1581527Y1983587D01*
X1591584Y1979422D01*
X1602375Y1978001D01*
X1613167Y1979422D01*
X1623223Y1983587D01*
X1631858Y1990214D01*
X1638484Y1998849D01*
X1642650Y2008905D01*
X1644070Y2019697D01*
Y2035445D01*
X1642650Y2046236D01*
X1638484Y2056292D01*
X1631858Y2064928D01*
X1623223Y2071554D01*
X1613167Y2075719D01*
X1602375Y2077140D01*
D02*
G37*
G36*
X1503950D02*
X1493158Y2075719D01*
X1483102Y2071554D01*
X1474467Y2064928D01*
X1467841Y2056292D01*
X1463675Y2046236D01*
X1462255Y2035445D01*
Y2019697D01*
X1463675Y2008905D01*
X1467841Y1998849D01*
X1474467Y1990214D01*
X1483102Y1983587D01*
X1493158Y1979422D01*
X1503950Y1978001D01*
X1514741Y1979422D01*
X1524797Y1983587D01*
X1533433Y1990214D01*
X1540059Y1998849D01*
X1544224Y2008905D01*
X1545645Y2019697D01*
Y2035445D01*
X1544224Y2046236D01*
X1540059Y2056292D01*
X1533433Y2064928D01*
X1524797Y2071554D01*
X1514741Y2075719D01*
X1503950Y2077140D01*
D02*
G37*
G36*
X346044Y1970472D02*
X338996D01*
X332484Y1967775D01*
X327500Y1962792D01*
X324803Y1956280D01*
Y1949232D01*
X327500Y1942720D01*
X332484Y1937737D01*
X338996Y1935039D01*
X346044D01*
X352555Y1937737D01*
X357539Y1942720D01*
X360236Y1949232D01*
Y1956280D01*
X357539Y1962792D01*
X352555Y1967775D01*
X346044Y1970472D01*
D02*
G37*
G36*
X894197Y1876415D02*
X887386D01*
Y1851457D01*
X908407D01*
Y1862205D01*
X907325Y1867643D01*
X904245Y1872253D01*
X899635Y1875333D01*
X894197Y1876415D01*
D02*
G37*
G36*
X850394Y1889488D02*
X846169Y1888647D01*
X842588Y1886254D01*
X840195Y1882673D01*
X839355Y1878449D01*
X840195Y1874225D01*
X842588Y1870643D01*
X845225Y1868007D01*
X848806Y1865614D01*
X852237Y1864931D01*
X856365Y1860803D01*
Y1851457D01*
X877386D01*
Y1876415D01*
X871976D01*
X864773Y1883618D01*
X861192Y1886011D01*
X857450Y1886755D01*
X854618Y1888647D01*
X850394Y1889488D01*
D02*
G37*
G36*
X610236Y1877180D02*
X606012Y1876340D01*
X602431Y1873947D01*
X600038Y1870366D01*
X599197Y1866142D01*
Y1862413D01*
X600038Y1858189D01*
X602431Y1854607D01*
X606012Y1852215D01*
X610236Y1851374D01*
X614461Y1852215D01*
X618042Y1854607D01*
X620435Y1858189D01*
X621275Y1862413D01*
Y1866142D01*
X620435Y1870366D01*
X618042Y1873947D01*
X614461Y1876340D01*
X610236Y1877180D01*
D02*
G37*
G36*
X1736378Y1866890D02*
X1672323D01*
Y1822520D01*
X1736378D01*
Y1866890D01*
D02*
G37*
G36*
X1662323D02*
X1598268D01*
Y1822520D01*
X1662323D01*
Y1866890D01*
D02*
G37*
G36*
X1456693Y1867316D02*
X1422323D01*
Y1822520D01*
X1505831D01*
X1504792Y1830408D01*
X1499818Y1842418D01*
X1491904Y1852731D01*
X1481591Y1860644D01*
X1469581Y1865619D01*
X1456693Y1867316D01*
D02*
G37*
G36*
X1412323D02*
X1377953D01*
X1365065Y1865619D01*
X1353055Y1860644D01*
X1342742Y1852731D01*
X1334828Y1842418D01*
X1329854Y1830408D01*
X1328815Y1822520D01*
X1412323D01*
Y1867316D01*
D02*
G37*
G36*
X747619Y1844488D02*
X740571D01*
X734059Y1841791D01*
X729075Y1836807D01*
X726378Y1830296D01*
Y1823248D01*
X729075Y1816736D01*
X734059Y1811752D01*
X740571Y1809055D01*
X747619D01*
X754130Y1811752D01*
X759114Y1816736D01*
X761811Y1823248D01*
Y1830296D01*
X759114Y1836807D01*
X754130Y1841791D01*
X747619Y1844488D01*
D02*
G37*
G36*
X1206693Y1863186D02*
X1127953D01*
X1116134Y1861630D01*
X1105120Y1857068D01*
X1095662Y1849811D01*
X1088405Y1840353D01*
X1083843Y1829339D01*
X1082287Y1817520D01*
X1083843Y1805700D01*
X1088405Y1794687D01*
X1095662Y1785229D01*
X1105120Y1777972D01*
X1116134Y1773409D01*
X1127953Y1771853D01*
X1206693D01*
X1218512Y1773409D01*
X1229526Y1777972D01*
X1238984Y1785229D01*
X1246241Y1794687D01*
X1250803Y1805700D01*
X1252359Y1817520D01*
X1250803Y1829339D01*
X1246241Y1840353D01*
X1238984Y1849811D01*
X1229526Y1857068D01*
X1218512Y1861630D01*
X1206693Y1863186D01*
D02*
G37*
G36*
X1736378Y1812520D02*
X1672323D01*
Y1768150D01*
X1736378D01*
Y1812520D01*
D02*
G37*
G36*
X1662323D02*
X1598268D01*
Y1768150D01*
X1662323D01*
Y1812520D01*
D02*
G37*
G36*
X1505831D02*
X1422323D01*
Y1767724D01*
X1456693D01*
X1469581Y1769420D01*
X1481591Y1774395D01*
X1491904Y1782309D01*
X1499818Y1792622D01*
X1504792Y1804631D01*
X1505831Y1812520D01*
D02*
G37*
G36*
X1412323D02*
X1328815D01*
X1329854Y1804631D01*
X1334828Y1792622D01*
X1342742Y1782309D01*
X1353055Y1774395D01*
X1365065Y1769420D01*
X1377953Y1767724D01*
X1412323D01*
Y1812520D01*
D02*
G37*
G36*
X617047Y1801116D02*
X606299D01*
X600861Y1800034D01*
X596251Y1796954D01*
X593171Y1792343D01*
X592089Y1786906D01*
Y1786133D01*
X575299D01*
X571075Y1785293D01*
X567494Y1782900D01*
X565101Y1779319D01*
X564260Y1775094D01*
X565101Y1770870D01*
X567494Y1767289D01*
X571075Y1764896D01*
X575299Y1764056D01*
X592089D01*
Y1763284D01*
X593171Y1757846D01*
X596251Y1753236D01*
X600861Y1750155D01*
X606299Y1749073D01*
X617047D01*
Y1775094D01*
Y1801116D01*
D02*
G37*
G36*
X1196437Y2096457D02*
X1189389D01*
X1182878Y2093760D01*
X1177894Y2088776D01*
X1175197Y2082264D01*
Y2075216D01*
X1177894Y2068705D01*
X1181875Y2064724D01*
Y1950891D01*
X1182715Y1946667D01*
X1185108Y1943086D01*
X1272426Y1855768D01*
Y1750237D01*
X1268445Y1746256D01*
X1265748Y1739745D01*
Y1732697D01*
X1268445Y1726185D01*
X1273429Y1721201D01*
X1279941Y1718504D01*
X1286989D01*
X1293500Y1721201D01*
X1298484Y1726185D01*
X1301181Y1732697D01*
Y1739745D01*
X1298484Y1746256D01*
X1294503Y1750237D01*
Y1860340D01*
X1293663Y1864565D01*
X1291270Y1868146D01*
X1203952Y1955464D01*
Y2064724D01*
X1207933Y2068705D01*
X1210630Y2075216D01*
Y2082264D01*
X1207933Y2088776D01*
X1202949Y2093760D01*
X1196437Y2096457D01*
D02*
G37*
G36*
X3524Y1718504D02*
X-3524D01*
X-10036Y1715807D01*
X-15019Y1710823D01*
X-17716Y1704311D01*
Y1697263D01*
X-15019Y1690752D01*
X-10036Y1685768D01*
X-3524Y1683071D01*
X3524D01*
X10036Y1685768D01*
X15019Y1690752D01*
X17716Y1697263D01*
Y1704311D01*
X15019Y1710823D01*
X10036Y1715807D01*
X3524Y1718504D01*
D02*
G37*
G36*
X1690945Y1696850D02*
X1584646D01*
Y1633858D01*
X1690945D01*
Y1696850D01*
D02*
G37*
G36*
X420847Y1628990D02*
X413799D01*
X407287Y1626293D01*
X402303Y1621309D01*
X399606Y1614797D01*
Y1607749D01*
X402303Y1601238D01*
X407287Y1596254D01*
X413799Y1593557D01*
X420847D01*
X427358Y1596254D01*
X432342Y1601238D01*
X435039Y1607749D01*
Y1614797D01*
X432342Y1621309D01*
X427358Y1626293D01*
X420847Y1628990D01*
D02*
G37*
G36*
X916732Y1596457D02*
X881299D01*
Y1576686D01*
X866732D01*
Y1596457D01*
X831299D01*
Y1524803D01*
X866732D01*
Y1544573D01*
X881299D01*
Y1524803D01*
X916732D01*
Y1596457D01*
D02*
G37*
G36*
X695492Y1614759D02*
X694528D01*
X690303Y1613919D01*
X686722Y1611526D01*
X686163Y1610967D01*
X683770Y1607386D01*
X682930Y1603161D01*
Y1592950D01*
X681598D01*
X676160Y1591868D01*
X671550Y1588788D01*
X668470Y1584178D01*
X667388Y1578740D01*
Y1567992D01*
X693409D01*
X719430D01*
Y1578740D01*
X718349Y1584178D01*
X715268Y1588788D01*
X710658Y1591868D01*
X705220Y1592950D01*
X705007D01*
Y1598474D01*
X705691Y1599496D01*
X706531Y1603720D01*
X705691Y1607945D01*
X703298Y1611526D01*
X699716Y1613919D01*
X695492Y1614759D01*
D02*
G37*
G36*
X719430Y1557992D02*
X698409D01*
Y1533034D01*
X705220D01*
X710658Y1534116D01*
X715268Y1537196D01*
X718349Y1541806D01*
X719430Y1547244D01*
Y1557992D01*
D02*
G37*
G36*
X688409D02*
X667388D01*
Y1547244D01*
X668470Y1541806D01*
X671550Y1537196D01*
X676160Y1534116D01*
X681598Y1533034D01*
X688409D01*
Y1557992D01*
D02*
G37*
G36*
X970827Y1555630D02*
X954015D01*
Y1520709D01*
X970827D01*
Y1555630D01*
D02*
G37*
G36*
X944015D02*
X927205D01*
Y1520709D01*
X944015D01*
Y1555630D01*
D02*
G37*
G36*
X1279527Y1627953D02*
X1210630D01*
Y1604412D01*
X1210418Y1603347D01*
Y1591187D01*
X1154596Y1535365D01*
X1153984Y1534449D01*
X1138189D01*
Y1504921D01*
X1173228D01*
Y1522556D01*
X1173283Y1522829D01*
X1229262Y1578809D01*
X1231655Y1582390D01*
X1232495Y1586614D01*
Y1592520D01*
X1279527D01*
Y1627953D01*
D02*
G37*
G36*
X976378Y1486155D02*
X965630D01*
Y1465134D01*
X990588D01*
Y1471945D01*
X989506Y1477383D01*
X986426Y1481993D01*
X981816Y1485073D01*
X976378Y1486155D01*
D02*
G37*
G36*
X1090158Y1534449D02*
X1055118D01*
Y1504921D01*
X1061599D01*
Y1459100D01*
X1042672Y1440173D01*
X993250D01*
X989961Y1445173D01*
X990588Y1448323D01*
Y1455134D01*
X960630D01*
Y1460134D01*
X955630D01*
Y1486155D01*
X944882D01*
X939444Y1485073D01*
X934834Y1481993D01*
X931754Y1477383D01*
X931683Y1477027D01*
X926585D01*
X926514Y1477383D01*
X923434Y1481993D01*
X918824Y1485073D01*
X913386Y1486155D01*
X902638D01*
Y1460134D01*
Y1434113D01*
X913386D01*
X915240Y1434482D01*
X917703Y1429874D01*
X907810Y1419980D01*
X881890D01*
X878049Y1419216D01*
X874794Y1417041D01*
X872618Y1413785D01*
X871855Y1409945D01*
Y1386323D01*
X872618Y1382483D01*
X874794Y1379227D01*
X878049Y1377052D01*
X881890Y1376288D01*
X886599D01*
Y1344185D01*
X881890D01*
X878049Y1343421D01*
X874794Y1341246D01*
X872618Y1337990D01*
X871855Y1334150D01*
Y1310528D01*
X872618Y1306687D01*
X874794Y1303432D01*
X878049Y1301256D01*
X881890Y1300492D01*
X913386D01*
X917226Y1301256D01*
X920482Y1303432D01*
X922657Y1306687D01*
X923421Y1310528D01*
Y1334150D01*
X922657Y1337990D01*
X920482Y1341246D01*
X917226Y1343421D01*
X913386Y1344185D01*
X908677D01*
Y1376288D01*
X913386D01*
X917226Y1377052D01*
X920482Y1379227D01*
X922657Y1382483D01*
X923421Y1386323D01*
Y1404369D01*
X929948Y1410896D01*
X931891Y1410518D01*
X934847Y1408723D01*
Y1386323D01*
X935611Y1382483D01*
X937786Y1379227D01*
X941042Y1377052D01*
X944882Y1376288D01*
X949591D01*
Y1344185D01*
X944882D01*
X941042Y1343421D01*
X937786Y1341246D01*
X935611Y1337990D01*
X934847Y1334150D01*
Y1310528D01*
X935611Y1306687D01*
X937786Y1303432D01*
X941042Y1301256D01*
X944882Y1300492D01*
X976378D01*
X980218Y1301256D01*
X983474Y1303432D01*
X985649Y1306687D01*
X986413Y1310528D01*
Y1334150D01*
X985649Y1337990D01*
X983474Y1341246D01*
X980218Y1343421D01*
X976378Y1344185D01*
X971669D01*
Y1376288D01*
X976378D01*
X980218Y1377052D01*
X983474Y1379227D01*
X985649Y1382483D01*
X986413Y1386323D01*
Y1387095D01*
X1049065D01*
X1055118Y1381042D01*
Y1367126D01*
X1090158D01*
Y1396653D01*
X1070729D01*
X1061443Y1405939D01*
X1057862Y1408332D01*
X1053638Y1409173D01*
X988444D01*
X986149Y1414063D01*
X986466Y1414909D01*
X988783Y1418095D01*
X1047244D01*
X1051468Y1418935D01*
X1055050Y1421328D01*
X1080444Y1446722D01*
X1082836Y1450303D01*
X1083677Y1454528D01*
Y1504921D01*
X1090158D01*
Y1534449D01*
D02*
G37*
G36*
X892638Y1486155D02*
X881890D01*
X876452Y1485073D01*
X871842Y1481993D01*
X868761Y1477383D01*
X867680Y1471945D01*
Y1471173D01*
X843016D01*
X838791Y1470332D01*
X835210Y1467939D01*
X832817Y1464358D01*
X831977Y1460134D01*
X832817Y1455909D01*
X835210Y1452328D01*
X838791Y1449935D01*
X843016Y1449095D01*
X867680D01*
Y1448323D01*
X868761Y1442885D01*
X871842Y1438275D01*
X876452Y1435195D01*
X881890Y1434113D01*
X892638D01*
Y1460134D01*
Y1486155D01*
D02*
G37*
G36*
X1279527Y1431102D02*
X1210630D01*
Y1411281D01*
X1192278Y1392928D01*
X1173228D01*
Y1396653D01*
X1138189D01*
Y1367126D01*
X1173228D01*
Y1370851D01*
X1196850D01*
X1201075Y1371691D01*
X1204656Y1374084D01*
X1226241Y1395669D01*
X1279527D01*
Y1431102D01*
D02*
G37*
G36*
X1438563Y1393701D02*
X1431515D01*
X1425004Y1391004D01*
X1421023Y1387023D01*
X1372047D01*
Y1393701D01*
X1303150D01*
Y1358268D01*
X1372047D01*
Y1364946D01*
X1421023D01*
X1425004Y1360965D01*
X1431515Y1358268D01*
X1438563D01*
X1445075Y1360965D01*
X1450059Y1365949D01*
X1452756Y1372460D01*
Y1379508D01*
X1450059Y1386020D01*
X1445075Y1391004D01*
X1438563Y1393701D01*
D02*
G37*
G36*
X688821Y1431314D02*
X617126D01*
X612902Y1430474D01*
X609320Y1428081D01*
X596593Y1415354D01*
X590964D01*
X584453Y1412657D01*
X579469Y1407673D01*
X576772Y1401162D01*
Y1394114D01*
X579469Y1387602D01*
X584453Y1382619D01*
X590964Y1379921D01*
X598012D01*
X604524Y1382619D01*
X609508Y1387602D01*
X612205Y1394114D01*
Y1399743D01*
X621698Y1409237D01*
X684249D01*
X707591Y1385895D01*
X711172Y1383502D01*
X715396Y1382662D01*
X765511D01*
X769492Y1378681D01*
X776004Y1375984D01*
X783052D01*
X789563Y1378681D01*
X794547Y1383665D01*
X797244Y1390177D01*
Y1397225D01*
X794547Y1403736D01*
X789563Y1408720D01*
X783052Y1411417D01*
X776004D01*
X769492Y1408720D01*
X765511Y1404740D01*
X719968D01*
X696627Y1428081D01*
X693046Y1430474D01*
X688821Y1431314D01*
D02*
G37*
G36*
X62579Y1403543D02*
X55531D01*
X49020Y1400846D01*
X44036Y1395862D01*
X41339Y1389351D01*
Y1382303D01*
X44036Y1375791D01*
X49020Y1370807D01*
X55531Y1368110D01*
X62579D01*
X69091Y1370807D01*
X74074Y1375791D01*
X76772Y1382303D01*
Y1389351D01*
X74074Y1395862D01*
X69091Y1400846D01*
X62579Y1403543D01*
D02*
G37*
G36*
X643701Y1349599D02*
X609331D01*
Y1304803D01*
X692838D01*
X691800Y1312691D01*
X686825Y1324701D01*
X678912Y1335014D01*
X668599Y1342928D01*
X656589Y1347902D01*
X643701Y1349599D01*
D02*
G37*
G36*
X393701D02*
X359331D01*
Y1304803D01*
X442838D01*
X441800Y1312691D01*
X436825Y1324701D01*
X428912Y1335014D01*
X418599Y1342928D01*
X406589Y1347902D01*
X393701Y1349599D01*
D02*
G37*
G36*
X143701D02*
X109331D01*
Y1304803D01*
X192838D01*
X191800Y1312691D01*
X186825Y1324701D01*
X178912Y1335014D01*
X168599Y1342928D01*
X156589Y1347902D01*
X143701Y1349599D01*
D02*
G37*
G36*
X599331D02*
X564961D01*
X552072Y1347902D01*
X540063Y1342928D01*
X529749Y1335014D01*
X521836Y1324701D01*
X516861Y1312691D01*
X515823Y1304803D01*
X599331D01*
Y1349599D01*
D02*
G37*
G36*
X349331D02*
X314961D01*
X302072Y1347902D01*
X290063Y1342928D01*
X279749Y1335014D01*
X271836Y1324701D01*
X266861Y1312691D01*
X265823Y1304803D01*
X349331D01*
Y1349599D01*
D02*
G37*
G36*
X99331D02*
X64961D01*
X52072Y1347902D01*
X40063Y1342928D01*
X29749Y1335014D01*
X21836Y1324701D01*
X16861Y1312691D01*
X15823Y1304803D01*
X99331D01*
Y1349599D01*
D02*
G37*
G36*
X1690945Y1362205D02*
X1584646D01*
Y1299213D01*
X1690945D01*
Y1362205D01*
D02*
G37*
G36*
X692838Y1294803D02*
X609331D01*
Y1250007D01*
X643701D01*
X656589Y1251704D01*
X668599Y1256678D01*
X678912Y1264592D01*
X686825Y1274905D01*
X691800Y1286915D01*
X692838Y1294803D01*
D02*
G37*
G36*
X599331D02*
X515823D01*
X516861Y1286915D01*
X521836Y1274905D01*
X529749Y1264592D01*
X540063Y1256678D01*
X552072Y1251704D01*
X564961Y1250007D01*
X599331D01*
Y1294803D01*
D02*
G37*
G36*
X442838D02*
X359331D01*
Y1250007D01*
X393701D01*
X406589Y1251704D01*
X418599Y1256678D01*
X428912Y1264592D01*
X436825Y1274905D01*
X441800Y1286915D01*
X442838Y1294803D01*
D02*
G37*
G36*
X349331D02*
X265823D01*
X266861Y1286915D01*
X271836Y1274905D01*
X279749Y1264592D01*
X290063Y1256678D01*
X302072Y1251704D01*
X314961Y1250007D01*
X349331D01*
Y1294803D01*
D02*
G37*
G36*
X192838D02*
X109331D01*
Y1250007D01*
X143701D01*
X156589Y1251704D01*
X168599Y1256678D01*
X178912Y1264592D01*
X186825Y1274905D01*
X191800Y1286915D01*
X192838Y1294803D01*
D02*
G37*
G36*
X99331D02*
X15823D01*
X16861Y1286915D01*
X21836Y1274905D01*
X29749Y1264592D01*
X40063Y1256678D01*
X52072Y1251704D01*
X64961Y1250007D01*
X99331D01*
Y1294803D01*
D02*
G37*
G36*
X1706693Y1228339D02*
X1672323D01*
Y1183543D01*
X1755831D01*
X1754792Y1191431D01*
X1749818Y1203441D01*
X1741904Y1213755D01*
X1731591Y1221668D01*
X1719581Y1226643D01*
X1706693Y1228339D01*
D02*
G37*
G36*
X1662323D02*
X1627953D01*
X1615065Y1226643D01*
X1603055Y1221668D01*
X1592742Y1213755D01*
X1584828Y1203441D01*
X1579854Y1191431D01*
X1578815Y1183543D01*
X1662323D01*
Y1228339D01*
D02*
G37*
G36*
X1755831Y1173543D02*
X1672323D01*
Y1128747D01*
X1706693D01*
X1719581Y1130444D01*
X1731591Y1135419D01*
X1741904Y1143332D01*
X1749818Y1153645D01*
X1754792Y1165655D01*
X1755831Y1173543D01*
D02*
G37*
G36*
X1662323D02*
X1578815D01*
X1579854Y1165655D01*
X1584828Y1153645D01*
X1592742Y1143332D01*
X1603055Y1135419D01*
X1615065Y1130444D01*
X1627953Y1128747D01*
X1662323D01*
Y1173543D01*
D02*
G37*
G36*
X1505831D02*
X1422323D01*
Y1128747D01*
X1456693D01*
X1469581Y1130444D01*
X1481591Y1135419D01*
X1491904Y1143332D01*
X1499818Y1153645D01*
X1504792Y1165655D01*
X1505831Y1173543D01*
D02*
G37*
G36*
X1412323D02*
X1328815D01*
X1329854Y1165655D01*
X1334828Y1153645D01*
X1342742Y1143332D01*
X1353055Y1135419D01*
X1365065Y1130444D01*
X1377953Y1128747D01*
X1412323D01*
Y1173543D01*
D02*
G37*
G36*
X187008Y1179134D02*
X80709D01*
Y1116142D01*
X187008D01*
Y1179134D01*
D02*
G37*
G36*
X365315Y1018858D02*
X302244D01*
Y981378D01*
X365315D01*
Y1018858D01*
D02*
G37*
G36*
X991713Y1009842D02*
X984665D01*
X978153Y1007145D01*
X973170Y1002162D01*
X970472Y995650D01*
Y988602D01*
X973170Y982090D01*
X978153Y977107D01*
X984665Y974409D01*
X991713D01*
X998225Y977107D01*
X1003208Y982090D01*
X1005905Y988602D01*
Y995650D01*
X1003208Y1002162D01*
X998225Y1007145D01*
X991713Y1009842D01*
D02*
G37*
G36*
X1598425Y1062992D02*
X1417323D01*
Y960630D01*
X1598425D01*
Y1062992D01*
D02*
G37*
G36*
X476378Y1124236D02*
X469697Y1123357D01*
X463472Y1120778D01*
X458127Y1116677D01*
X454025Y1111331D01*
X451446Y1105106D01*
X450567Y1098425D01*
Y1014764D01*
X412402D01*
Y937992D01*
X540354D01*
Y987496D01*
X540418Y987979D01*
X548518Y996078D01*
X587079D01*
Y985984D01*
X664890D01*
Y996078D01*
X688876D01*
X700561Y984393D01*
Y968258D01*
X701458Y963745D01*
X704015Y959920D01*
X707840Y957364D01*
X712352Y956466D01*
X760089D01*
X764601Y957364D01*
X768426Y959920D01*
X770982Y963745D01*
X771880Y968258D01*
Y1002215D01*
X770982Y1006727D01*
X768426Y1010552D01*
X764601Y1013109D01*
X760089Y1014006D01*
X743953D01*
X717818Y1040141D01*
X712472Y1044243D01*
X706247Y1046822D01*
X699567Y1047701D01*
X664890D01*
Y1057795D01*
X587079D01*
Y1047701D01*
X537826D01*
X531146Y1046822D01*
X524921Y1044243D01*
X519575Y1040141D01*
X506809Y1027375D01*
X502189Y1029288D01*
Y1098425D01*
X501310Y1105106D01*
X498731Y1111331D01*
X494629Y1116677D01*
X489284Y1120778D01*
X483058Y1123357D01*
X476378Y1124236D01*
D02*
G37*
G36*
X365315Y971378D02*
X302244D01*
Y933898D01*
X365315D01*
Y971378D01*
D02*
G37*
G36*
X292244Y1018858D02*
X229173D01*
Y987417D01*
X200787D01*
X196563Y986577D01*
X192982Y984184D01*
X190589Y980602D01*
X189749Y976378D01*
X190589Y972154D01*
X192982Y968572D01*
X196563Y966179D01*
X200787Y965339D01*
X229173D01*
Y933898D01*
X292244D01*
Y976378D01*
Y1018858D01*
D02*
G37*
G36*
X668984Y921890D02*
X630984D01*
Y886890D01*
X668984D01*
Y921890D01*
D02*
G37*
G36*
X620984D02*
X582984D01*
Y886890D01*
X620984D01*
Y921890D01*
D02*
G37*
G36*
Y876890D02*
X582984D01*
Y841890D01*
X620984D01*
Y876890D01*
D02*
G37*
G36*
X1445039Y931260D02*
X1394764D01*
Y831771D01*
X1445039D01*
Y931260D01*
D02*
G37*
G36*
X1384764D02*
X1334488D01*
Y831771D01*
X1384764D01*
Y931260D01*
D02*
G37*
G36*
X668984Y876890D02*
X630984D01*
Y841890D01*
X653373D01*
X666517Y828746D01*
X666967Y826484D01*
X669360Y822903D01*
X672941Y820510D01*
X677165Y819670D01*
X681390Y820510D01*
X684971Y822903D01*
X687364Y826484D01*
X688204Y830709D01*
Y833709D01*
X687364Y837933D01*
X684971Y841514D01*
X668984Y857501D01*
Y876890D01*
D02*
G37*
G36*
X760089Y933297D02*
X712352D01*
X707840Y932400D01*
X704015Y929844D01*
X701458Y926018D01*
X700561Y921506D01*
Y887549D01*
X701458Y883037D01*
X704015Y879211D01*
X707840Y876655D01*
X710409Y876144D01*
Y842520D01*
X711289Y835839D01*
X713867Y829614D01*
X717969Y824268D01*
X723315Y820167D01*
X729540Y817588D01*
X736221Y816708D01*
X742901Y817588D01*
X749126Y820167D01*
X754472Y824268D01*
X758574Y829614D01*
X761152Y835839D01*
X762032Y842520D01*
Y876144D01*
X764601Y876655D01*
X768426Y879211D01*
X770982Y883037D01*
X771880Y887549D01*
Y921506D01*
X770982Y926018D01*
X768426Y929844D01*
X764601Y932400D01*
X760089Y933297D01*
D02*
G37*
G36*
X1263367Y832677D02*
X1256319D01*
X1249807Y829980D01*
X1244823Y824996D01*
X1242126Y818485D01*
Y811437D01*
X1244823Y804925D01*
X1249807Y799941D01*
X1256319Y797244D01*
X1263367D01*
X1269878Y799941D01*
X1274862Y804925D01*
X1277559Y811437D01*
Y818485D01*
X1274862Y824996D01*
X1269878Y829980D01*
X1263367Y832677D01*
D02*
G37*
G36*
X187008Y844488D02*
X80709D01*
Y781496D01*
X187008D01*
Y844488D01*
D02*
G37*
G36*
X1263367Y781496D02*
X1256319D01*
X1249807Y778799D01*
X1244823Y773815D01*
X1242126Y767303D01*
Y760255D01*
X1244823Y753744D01*
X1249807Y748760D01*
X1256319Y746063D01*
X1263367D01*
X1269878Y748760D01*
X1274862Y753744D01*
X1277559Y760255D01*
Y767303D01*
X1274862Y773815D01*
X1269878Y778799D01*
X1263367Y781496D01*
D02*
G37*
G36*
X1677165Y917323D02*
X1574803D01*
Y736221D01*
X1677165D01*
Y917323D01*
D02*
G37*
G36*
X1445039Y821771D02*
X1394764D01*
Y722284D01*
X1445039D01*
Y821771D01*
D02*
G37*
G36*
X1384764D02*
X1334488D01*
Y722284D01*
X1384764D01*
Y821771D01*
D02*
G37*
G36*
X393701Y710623D02*
X359331D01*
Y665827D01*
X442838D01*
X441800Y673715D01*
X436825Y685725D01*
X428912Y696038D01*
X418599Y703952D01*
X406589Y708926D01*
X393701Y710623D01*
D02*
G37*
G36*
X173386Y710197D02*
X109331D01*
Y665827D01*
X173386D01*
Y710197D01*
D02*
G37*
G36*
X99331D02*
X35276D01*
Y665827D01*
X99331D01*
Y710197D01*
D02*
G37*
G36*
X349331Y710623D02*
X314961D01*
X302072Y708926D01*
X290063Y703952D01*
X279749Y696038D01*
X271836Y685725D01*
X266861Y673715D01*
X265823Y665827D01*
X349331D01*
Y710623D01*
D02*
G37*
G36*
X913386Y1282185D02*
X881890D01*
X878049Y1281421D01*
X874794Y1279246D01*
X872618Y1275990D01*
X871855Y1272150D01*
Y1248528D01*
X872618Y1244687D01*
X874794Y1241432D01*
X878049Y1239256D01*
X881890Y1238492D01*
X898410D01*
Y823470D01*
X696609Y621669D01*
X674820D01*
X673213Y626403D01*
X675992Y628536D01*
X683249Y637994D01*
X687811Y649008D01*
X689367Y660827D01*
X687811Y672646D01*
X683249Y683660D01*
X675992Y693118D01*
X666534Y700375D01*
X655520Y704937D01*
X643701Y706493D01*
X564961D01*
X553141Y704937D01*
X542127Y700375D01*
X532670Y693118D01*
X525412Y683660D01*
X520850Y672646D01*
X519294Y660827D01*
X520850Y649008D01*
X525412Y637994D01*
X532670Y628536D01*
X535449Y626403D01*
X533841Y621669D01*
X442913D01*
X438689Y620828D01*
X435108Y618436D01*
X323365Y506693D01*
X304331D01*
Y435039D01*
X311205D01*
Y422874D01*
X307815Y419484D01*
X305118Y412973D01*
Y405925D01*
X307815Y399413D01*
X312799Y394430D01*
X319311Y391732D01*
X326359D01*
X332870Y394430D01*
X337854Y399413D01*
X340551Y405925D01*
Y412973D01*
X337854Y419484D01*
X333283Y424055D01*
Y435039D01*
X338976D01*
Y491082D01*
X345617Y497722D01*
X350236Y495809D01*
Y475866D01*
X366654D01*
Y510787D01*
X365215D01*
X363301Y515407D01*
X447486Y599591D01*
X701181D01*
X705405Y600431D01*
X708987Y602824D01*
X917254Y811092D01*
X919647Y814673D01*
X920488Y818898D01*
Y1241440D01*
X922657Y1244687D01*
X923421Y1248528D01*
Y1272150D01*
X922657Y1275990D01*
X920482Y1279246D01*
X917226Y1281421D01*
X913386Y1282185D01*
D02*
G37*
G36*
X173386Y655827D02*
X109331D01*
Y611457D01*
X173386D01*
Y655827D01*
D02*
G37*
G36*
X99331D02*
X35276D01*
Y611457D01*
X99331D01*
Y655827D01*
D02*
G37*
G36*
X442838D02*
X359331D01*
Y611031D01*
X393701D01*
X406589Y612727D01*
X418599Y617702D01*
X428912Y625616D01*
X436825Y635929D01*
X441800Y647939D01*
X442838Y655827D01*
D02*
G37*
G36*
X349331D02*
X265823D01*
X266861Y647939D01*
X271836Y635929D01*
X279749Y625616D01*
X290063Y617702D01*
X302072Y612727D01*
X314961Y611031D01*
X349331D01*
Y655827D01*
D02*
G37*
G36*
X416654Y510787D02*
X400236D01*
Y481905D01*
X393071D01*
Y510787D01*
X376654D01*
Y470866D01*
Y430945D01*
X393071D01*
Y459827D01*
X400236D01*
Y430945D01*
X410615D01*
Y416743D01*
X410221Y414764D01*
X411061Y410540D01*
X413454Y406958D01*
X413848Y406565D01*
X417429Y404172D01*
X421654Y403331D01*
X425878Y404172D01*
X429459Y406565D01*
X431852Y410146D01*
X432692Y414370D01*
Y430945D01*
X443071D01*
Y465866D01*
X421654D01*
Y470866D01*
X416654D01*
Y510787D01*
D02*
G37*
G36*
X443071D02*
X426654D01*
Y475866D01*
X443071D01*
Y510787D01*
D02*
G37*
G36*
X26021Y466945D02*
X1063D01*
Y445924D01*
X11811D01*
X17249Y447005D01*
X21859Y450086D01*
X24939Y454696D01*
X26021Y460134D01*
Y466945D01*
D02*
G37*
G36*
X217716Y554346D02*
X78740D01*
X74516Y553506D01*
X70935Y551113D01*
X57155Y537333D01*
X54762Y533752D01*
X53922Y529528D01*
Y495264D01*
X49213D01*
X45373Y494500D01*
X42117Y492324D01*
X39941Y489068D01*
X39178Y485228D01*
Y461606D01*
X39941Y457766D01*
X42117Y454510D01*
X45373Y452335D01*
X49213Y451571D01*
X80709D01*
X84549Y452335D01*
X87805Y454510D01*
X89980Y457766D01*
X90744Y461606D01*
Y485228D01*
X89980Y489068D01*
X87805Y492324D01*
X84549Y494500D01*
X80709Y495264D01*
X76000D01*
Y524955D01*
X83313Y532268D01*
X213144D01*
X234100Y511312D01*
X232187Y506693D01*
X204331D01*
Y435039D01*
X210615D01*
Y399454D01*
X163848Y352688D01*
X161455Y349106D01*
X160615Y344882D01*
Y289370D01*
X154331D01*
Y217717D01*
X160615D01*
Y191047D01*
X161455Y186823D01*
X163848Y183242D01*
X187311Y159778D01*
Y133858D01*
X188075Y130018D01*
X188103Y129976D01*
X185431Y124976D01*
X167077D01*
X160967Y123761D01*
X155787Y120300D01*
X152326Y115120D01*
X151111Y109010D01*
Y96180D01*
X127457D01*
X123232Y95340D01*
X119651Y92947D01*
X117258Y89366D01*
X116418Y85142D01*
X117258Y80917D01*
X119651Y77336D01*
X123232Y74943D01*
X127457Y74103D01*
X151111D01*
Y61274D01*
X152326Y55164D01*
X155787Y49984D01*
X160967Y46523D01*
X167077Y45307D01*
X179055D01*
Y85142D01*
X184055D01*
Y90142D01*
X217000D01*
Y109010D01*
X215784Y115120D01*
X213310Y118823D01*
X215233Y123502D01*
X215525Y123823D01*
X220969D01*
X224809Y124587D01*
X228065Y126762D01*
X230240Y130018D01*
X231004Y133858D01*
Y165354D01*
X230240Y169195D01*
X228065Y172450D01*
X224809Y174626D01*
X220969Y175390D01*
X202922D01*
X182692Y195620D01*
Y217717D01*
X188976D01*
Y289370D01*
X182692D01*
Y340310D01*
X229459Y387076D01*
X231852Y390658D01*
X232692Y394882D01*
Y435039D01*
X238976D01*
Y499903D01*
X243596Y501817D01*
X254331Y491082D01*
Y435039D01*
X288976D01*
Y506693D01*
X269942D01*
X225522Y551113D01*
X221941Y553506D01*
X217716Y554346D01*
D02*
G37*
G36*
X366654Y465866D02*
X350236D01*
Y430945D01*
X366654D01*
Y465866D01*
D02*
G37*
G36*
X138976Y506693D02*
X104331D01*
Y435039D01*
X109618D01*
X109964Y430039D01*
X105821Y425896D01*
X103124Y419385D01*
Y412337D01*
X105821Y405825D01*
X110804Y400841D01*
X117316Y398144D01*
X124364D01*
X130876Y400841D01*
X135859Y405825D01*
X138556Y412337D01*
Y419385D01*
X135859Y425896D01*
X132286Y429470D01*
Y435039D01*
X138976D01*
Y506693D01*
D02*
G37*
G36*
X1129976Y482284D02*
X1118055D01*
X1106540Y479198D01*
X1096216Y473237D01*
X1087786Y464808D01*
X1081826Y454484D01*
X1078740Y442969D01*
Y431047D01*
X1081826Y419532D01*
X1087786Y409208D01*
X1096216Y400778D01*
X1106540Y394818D01*
X1118055Y391732D01*
X1129976D01*
X1141492Y394818D01*
X1151816Y400778D01*
X1160245Y409208D01*
X1166206Y419532D01*
X1169291Y431047D01*
Y442969D01*
X1166206Y454484D01*
X1160245Y464808D01*
X1151816Y473237D01*
X1141492Y479198D01*
X1129976Y482284D01*
D02*
G37*
G36*
X637850D02*
X625929D01*
X614414Y479198D01*
X604090Y473237D01*
X595660Y464808D01*
X589700Y454484D01*
X586614Y442969D01*
Y431047D01*
X589700Y419532D01*
X595660Y409208D01*
X604090Y400778D01*
X614414Y394818D01*
X625929Y391732D01*
X637850D01*
X649365Y394818D01*
X659690Y400778D01*
X668119Y409208D01*
X674080Y419532D01*
X677165Y431047D01*
Y442969D01*
X674080Y454484D01*
X668119Y464808D01*
X659690Y473237D01*
X649365Y479198D01*
X637850Y482284D01*
D02*
G37*
G36*
X188976Y506693D02*
X154331D01*
Y435039D01*
X161402D01*
Y422678D01*
X158209Y419484D01*
X155512Y412973D01*
Y405925D01*
X158209Y399413D01*
X163193Y394430D01*
X169704Y391732D01*
X176752D01*
X183264Y394430D01*
X188248Y399413D01*
X190945Y405925D01*
Y412973D01*
X188248Y419484D01*
X183480Y424252D01*
Y435039D01*
X188976D01*
Y506693D01*
D02*
G37*
G36*
X903953Y360667D02*
X897142D01*
X891704Y359585D01*
X887094Y356505D01*
X884014Y351895D01*
X882932Y346457D01*
Y335709D01*
X903953D01*
Y360667D01*
D02*
G37*
G36*
X858764Y356492D02*
X835142D01*
X831302Y355728D01*
X828046Y353553D01*
X825870Y350297D01*
X825106Y346457D01*
Y314961D01*
X825870Y311120D01*
X828046Y307865D01*
X831302Y305689D01*
X835142Y304925D01*
X835666D01*
Y297437D01*
X834646D01*
X830806Y296673D01*
X827550Y294498D01*
X825374Y291242D01*
X824611Y287402D01*
Y282692D01*
X676950D01*
X672726Y281852D01*
X669145Y279459D01*
X662881Y273196D01*
X659690Y276387D01*
X649365Y282348D01*
X637850Y285433D01*
X625929D01*
X614414Y282348D01*
X604090Y276387D01*
X595660Y267957D01*
X589700Y257633D01*
X586614Y246118D01*
Y234197D01*
X589700Y222682D01*
X595660Y212358D01*
X604090Y203928D01*
X614414Y197967D01*
X625929Y194882D01*
X637850D01*
X649365Y197967D01*
X659690Y203928D01*
X668119Y212358D01*
X674080Y222682D01*
X677165Y234197D01*
Y246118D01*
X675023Y254115D01*
X681523Y260615D01*
X824611D01*
Y255906D01*
X825374Y252065D01*
X827550Y248810D01*
X830806Y246634D01*
X834646Y245870D01*
X858268D01*
X862108Y246634D01*
X865364Y248810D01*
X867539Y252065D01*
X868303Y255906D01*
Y287402D01*
X867539Y291242D01*
X865364Y294498D01*
X862108Y296673D01*
X858268Y297437D01*
X857744D01*
Y304925D01*
X858764D01*
X862604Y305689D01*
X865860Y307865D01*
X868035Y311120D01*
X868799Y314961D01*
Y346457D01*
X868035Y350297D01*
X865860Y353553D01*
X862604Y355728D01*
X858764Y356492D01*
D02*
G37*
G36*
X138976Y289370D02*
X104331D01*
Y269600D01*
X84697D01*
X80689Y271260D01*
X73641D01*
X67130Y268563D01*
X62146Y263579D01*
X59449Y257067D01*
Y250019D01*
X62146Y243508D01*
X67130Y238524D01*
X73641Y235827D01*
X80689D01*
X84697Y237487D01*
X104331D01*
Y217717D01*
X138976D01*
Y289370D01*
D02*
G37*
G36*
X271654Y314188D02*
X267429Y313348D01*
X263848Y310955D01*
X261455Y307374D01*
X260615Y303150D01*
Y293464D01*
X250236D01*
Y258543D01*
X271654D01*
X293071D01*
Y293464D01*
X282692D01*
Y303150D01*
X281852Y307374D01*
X279459Y310955D01*
X275878Y313348D01*
X271654Y314188D01*
D02*
G37*
G36*
X371654Y315763D02*
X367429Y314923D01*
X363848Y312530D01*
X361455Y308949D01*
X360615Y304724D01*
Y293464D01*
X350236D01*
Y258543D01*
X371654D01*
X393071D01*
Y293464D01*
X382692D01*
Y304724D01*
X381852Y308949D01*
X379459Y312530D01*
X375878Y314923D01*
X371654Y315763D01*
D02*
G37*
G36*
X238976Y289370D02*
X204331D01*
Y217717D01*
X238976D01*
Y289370D01*
D02*
G37*
G36*
X393071Y248543D02*
X376654D01*
Y213622D01*
X393071D01*
Y248543D01*
D02*
G37*
G36*
X366654D02*
X350236D01*
Y213622D01*
X366654D01*
Y248543D01*
D02*
G37*
G36*
X293071D02*
X276654D01*
Y213622D01*
X293071D01*
Y248543D01*
D02*
G37*
G36*
X266654D02*
X250236D01*
Y213622D01*
X266654D01*
Y248543D01*
D02*
G37*
G36*
X920764Y360667D02*
X913953D01*
Y330709D01*
X908953D01*
Y325709D01*
X882932D01*
Y314961D01*
X884014Y309523D01*
X887094Y304913D01*
X891704Y301832D01*
X892409Y301692D01*
X892750Y297374D01*
X892624Y296551D01*
X889550Y294498D01*
X887374Y291242D01*
X886611Y287402D01*
Y255906D01*
X887374Y252065D01*
X889550Y248810D01*
X892806Y246634D01*
X896646Y245870D01*
X914692D01*
X933843Y226719D01*
Y218201D01*
X929134D01*
X925294Y217437D01*
X922038Y215261D01*
X919862Y212006D01*
X919099Y208165D01*
Y207393D01*
X910226D01*
X904104Y213514D01*
X900523Y215907D01*
X896299Y216747D01*
X859607D01*
X855382Y215907D01*
X851801Y213514D01*
X845680Y207393D01*
X832870D01*
Y208165D01*
X832106Y212006D01*
X829931Y215261D01*
X826675Y217437D01*
X822835Y218201D01*
X791339D01*
X787498Y217437D01*
X784243Y215261D01*
X782067Y212006D01*
X781303Y208165D01*
Y184543D01*
X782067Y180703D01*
X784243Y177447D01*
X787498Y175272D01*
X791339Y174508D01*
X822835D01*
X826675Y175272D01*
X829931Y177447D01*
X832106Y180703D01*
X832870Y184543D01*
Y185315D01*
X841290D01*
X843790Y180985D01*
X841266Y176613D01*
X838583Y166601D01*
Y156234D01*
X841266Y146221D01*
X846449Y137244D01*
X853779Y129913D01*
X862757Y124730D01*
X872770Y122047D01*
X883136D01*
X893149Y124730D01*
X902126Y129913D01*
X909457Y137244D01*
X909924Y138053D01*
X914924Y136713D01*
Y122543D01*
X916006Y117105D01*
X919086Y112495D01*
X923696Y109415D01*
X929134Y108333D01*
X939882D01*
Y134354D01*
Y160375D01*
X929134D01*
X923696Y159294D01*
X922323Y158376D01*
X917323Y161049D01*
Y166601D01*
X914640Y176613D01*
X912629Y180096D01*
X915142Y184486D01*
X917936Y184526D01*
X919144Y184317D01*
X919862Y180703D01*
X922038Y177447D01*
X925294Y175272D01*
X929134Y174508D01*
X960630D01*
X964470Y175272D01*
X967726Y177447D01*
X969901Y180703D01*
X970665Y184543D01*
Y208165D01*
X969901Y212006D01*
X967726Y215261D01*
X964470Y217437D01*
X960630Y218201D01*
X955921D01*
Y231292D01*
X955081Y235516D01*
X952688Y239097D01*
X930303Y261481D01*
Y287402D01*
X929539Y291242D01*
X927364Y294498D01*
X924518Y296399D01*
X924356Y298040D01*
X925000Y301594D01*
X926202Y301832D01*
X930812Y304913D01*
X933892Y309523D01*
X934974Y314961D01*
Y319670D01*
X948819D01*
X953043Y320510D01*
X956625Y322903D01*
X959017Y326484D01*
X959858Y330709D01*
X959017Y334933D01*
X956625Y338514D01*
X953043Y340907D01*
X948819Y341748D01*
X934974D01*
Y346457D01*
X933892Y351895D01*
X930812Y356505D01*
X926202Y359585D01*
X920764Y360667D01*
D02*
G37*
G36*
X1129976Y285433D02*
X1118055D01*
X1106540Y282348D01*
X1096216Y276387D01*
X1087786Y267957D01*
X1081826Y257633D01*
X1078740Y246118D01*
Y234197D01*
X1081826Y222682D01*
X1087786Y212358D01*
X1096216Y203928D01*
X1106540Y197967D01*
X1118055Y194882D01*
X1129976D01*
X1141492Y197967D01*
X1151816Y203928D01*
X1160245Y212358D01*
X1166206Y222682D01*
X1169291Y234197D01*
Y246118D01*
X1166206Y257633D01*
X1160245Y267957D01*
X1151816Y276387D01*
X1141492Y282348D01*
X1129976Y285433D01*
D02*
G37*
G36*
X338976Y289370D02*
X304331D01*
Y217717D01*
X317111D01*
Y210725D01*
X317951Y206500D01*
X320344Y202919D01*
X377321Y145942D01*
X374489Y141703D01*
X369666Y143701D01*
X362618D01*
X356106Y141004D01*
X351122Y136020D01*
X348425Y129508D01*
Y122460D01*
X351122Y115949D01*
X356106Y110965D01*
X362618Y108268D01*
X369666D01*
X376177Y110965D01*
X380251Y115039D01*
X384590Y115342D01*
X386203Y115056D01*
X386605Y114455D01*
X389861Y112280D01*
X393701Y111516D01*
X425197D01*
X429037Y112280D01*
X432293Y114455D01*
X434468Y117711D01*
X435232Y121551D01*
Y145173D01*
X434468Y149013D01*
X432293Y152269D01*
X429037Y154445D01*
X425197Y155208D01*
X399277D01*
X339188Y215297D01*
Y247047D01*
X338976Y248113D01*
Y289370D01*
D02*
G37*
G36*
X438976D02*
X404331D01*
Y217717D01*
X423365D01*
X514533Y126549D01*
X518114Y124156D01*
X522338Y123316D01*
X781303D01*
Y122543D01*
X782067Y118703D01*
X784243Y115447D01*
X787498Y113272D01*
X791339Y112508D01*
X822835D01*
X826675Y113272D01*
X829931Y115447D01*
X832106Y118703D01*
X832870Y122543D01*
Y146165D01*
X832106Y150006D01*
X829931Y153261D01*
X826675Y155437D01*
X822835Y156201D01*
X791339D01*
X787498Y155437D01*
X784243Y153261D01*
X782067Y150006D01*
X781303Y146165D01*
Y145393D01*
X526911D01*
X438976Y233328D01*
Y289370D01*
D02*
G37*
G36*
X960630Y160375D02*
X949882D01*
Y134354D01*
Y108333D01*
X960630D01*
X966068Y109415D01*
X970678Y112495D01*
X973758Y117105D01*
X974840Y122543D01*
Y123316D01*
X987693D01*
X991917Y124156D01*
X995499Y126549D01*
X997891Y130130D01*
X998732Y134354D01*
X997891Y138579D01*
X995499Y142160D01*
X991917Y144553D01*
X987693Y145393D01*
X974840D01*
Y146165D01*
X973758Y151603D01*
X970678Y156213D01*
X966068Y159294D01*
X960630Y160375D01*
D02*
G37*
G36*
X282969Y175390D02*
X259346D01*
X255506Y174626D01*
X252250Y172450D01*
X250075Y169195D01*
X249311Y165354D01*
Y133858D01*
X250075Y130018D01*
X252250Y126762D01*
X253689Y125801D01*
X252172Y120801D01*
X247785D01*
X243273Y119904D01*
X239448Y117348D01*
X236892Y113522D01*
X235994Y109010D01*
Y61274D01*
X236892Y56761D01*
X239448Y52936D01*
X243273Y50380D01*
X247785Y49482D01*
X281742D01*
X286255Y50380D01*
X290080Y52936D01*
X292636Y56761D01*
X293345Y60323D01*
X383666D01*
Y59551D01*
X384429Y55711D01*
X386605Y52455D01*
X389861Y50280D01*
X393701Y49516D01*
X425197D01*
X429037Y50280D01*
X432293Y52455D01*
X434468Y55711D01*
X435232Y59551D01*
Y83173D01*
X434468Y87013D01*
X432293Y90269D01*
X429037Y92445D01*
X425197Y93209D01*
X393701D01*
X389861Y92445D01*
X386605Y90269D01*
X384429Y87013D01*
X383666Y83173D01*
Y82401D01*
X293534D01*
Y109010D01*
X292636Y113522D01*
X290080Y117348D01*
X286860Y119499D01*
X286711Y122382D01*
X287160Y124822D01*
X290065Y126762D01*
X292240Y130018D01*
X293004Y133858D01*
Y165354D01*
X292240Y169195D01*
X290065Y172450D01*
X286809Y174626D01*
X282969Y175390D01*
D02*
G37*
G36*
X217000Y80142D02*
X189055D01*
Y45307D01*
X201034D01*
X207143Y46523D01*
X212323Y49984D01*
X215784Y55164D01*
X217000Y61274D01*
Y80142D01*
D02*
G37*
G36*
X1492372Y204951D02*
X1458415D01*
X1453903Y204053D01*
X1450078Y201497D01*
X1447521Y197672D01*
X1446624Y193159D01*
Y183927D01*
X1441624Y181856D01*
X1439169Y184311D01*
X1432658Y187008D01*
X1425610D01*
X1419098Y184311D01*
X1414115Y179327D01*
X1411417Y172815D01*
Y165767D01*
X1414115Y159256D01*
X1419098Y154272D01*
X1425610Y151575D01*
X1432658D01*
X1439169Y154272D01*
X1441624Y156726D01*
X1446624Y154655D01*
Y145423D01*
X1447521Y140911D01*
X1450078Y137085D01*
X1453903Y134529D01*
X1458415Y133632D01*
X1492372D01*
X1496884Y134529D01*
X1500710Y137085D01*
X1503266Y140911D01*
X1504164Y145423D01*
Y193159D01*
X1503266Y197672D01*
X1500710Y201497D01*
X1496884Y204053D01*
X1492372Y204951D01*
D02*
G37*
%LPD*%
D10*
X944882Y2006890D02*
D03*
Y2087598D02*
D03*
X1381890Y315945D02*
D03*
Y235236D02*
D03*
X1311024Y235236D02*
D03*
Y315945D02*
D03*
X736221Y904528D02*
D03*
Y985236D02*
D03*
D11*
X625984Y881890D02*
D03*
Y1021890D02*
D03*
D14*
X949016Y1560630D02*
D03*
X899016D02*
D03*
X849016D02*
D03*
X799016D02*
D03*
X949016Y1777953D02*
D03*
X899016D02*
D03*
X849016D02*
D03*
X799016D02*
D03*
D16*
X1680110Y429134D02*
D03*
X1618110D02*
D03*
X1130417Y3153543D02*
D03*
X1192417D02*
D03*
X1188480Y3263780D02*
D03*
X1126480D02*
D03*
X786905Y3625984D02*
D03*
X724905D02*
D03*
X1082677Y3263780D02*
D03*
X1020677D02*
D03*
X1020181Y3153543D02*
D03*
X1082181D02*
D03*
X908953Y330709D02*
D03*
X846953D02*
D03*
X209157Y149606D02*
D03*
X271158D02*
D03*
X908457Y271654D02*
D03*
X846457D02*
D03*
X755409Y1562992D02*
D03*
X693409D02*
D03*
X882386Y1846457D02*
D03*
X944386D02*
D03*
X862701Y3622047D02*
D03*
X924701D02*
D03*
D17*
X661417Y3563488D02*
D03*
Y3625488D02*
D03*
X637795Y3366638D02*
D03*
Y3428638D02*
D03*
X622047Y1713094D02*
D03*
Y1775094D02*
D03*
X870079Y3251472D02*
D03*
Y3189472D02*
D03*
X972441Y3618606D02*
D03*
Y3680606D02*
D03*
X1633858Y2512307D02*
D03*
Y2574307D02*
D03*
X1641732Y2924701D02*
D03*
Y2862701D02*
D03*
X960630Y1322339D02*
D03*
Y1260339D02*
D03*
X681102Y1775094D02*
D03*
Y1713094D02*
D03*
X897638Y1322339D02*
D03*
Y1260339D02*
D03*
X807087Y196354D02*
D03*
Y134354D02*
D03*
X409449Y133362D02*
D03*
Y71362D02*
D03*
X944882Y196354D02*
D03*
Y134354D02*
D03*
X64961Y411417D02*
D03*
Y473417D02*
D03*
X-3937Y409945D02*
D03*
Y471945D02*
D03*
X925197Y3189472D02*
D03*
Y3251472D02*
D03*
X960630Y1398134D02*
D03*
Y1460134D02*
D03*
X897638D02*
D03*
Y1398134D02*
D03*
X1444882Y322339D02*
D03*
Y260339D02*
D03*
D18*
X1705709Y511811D02*
D03*
X1625000D02*
D03*
X1729331Y346457D02*
D03*
X1648622D02*
D03*
X1475394Y169291D02*
D03*
X1556102D02*
D03*
X184055Y85142D02*
D03*
X264764D02*
D03*
D19*
X1337598Y1450787D02*
D03*
Y1375984D02*
D03*
X1245079Y1413386D02*
D03*
X1337598Y1647638D02*
D03*
Y1572835D02*
D03*
X1245079Y1610236D02*
D03*
D21*
X825000Y3240157D02*
D03*
X741929D02*
D03*
X1064764Y3669291D02*
D03*
X1147835D02*
D03*
X1072638Y1381890D02*
D03*
X1155709D02*
D03*
X1072638Y1519685D02*
D03*
X1155709D02*
D03*
D25*
X1312008Y2559055D02*
D03*
X1491142D02*
D03*
X476378Y976378D02*
D03*
X297244D02*
D03*
D26*
X1246482Y1147940D02*
G03*
X1246851Y1148426I-39789J30603D01*
G01*
X1236810Y1138385D02*
G03*
X1246482Y1147940I-30117J40158D01*
G01*
X848979Y549248D02*
G03*
X844453Y544722I28974J-33500D01*
G01*
X1082181Y3113677D02*
Y3153543D01*
X1130417Y3083173D02*
Y3153543D01*
X1763780Y543307D02*
Y582677D01*
X1705709Y512655D02*
X1723369Y530315D01*
X1705709Y511811D02*
Y512655D01*
X1723369Y530315D02*
X1750787D01*
X1763780Y543307D01*
X1680110Y478923D02*
X1705709Y504522D01*
X1680110Y429134D02*
Y478923D01*
X1705709Y504522D02*
Y511811D01*
X1531496Y259842D02*
Y315945D01*
X1264764Y235236D02*
X1311024D01*
X1429134Y169291D02*
X1475394D01*
X1177165Y2129921D02*
X1259843D01*
X1141732Y1960630D02*
Y2094488D01*
X1177165Y2129921D01*
X1019685Y1838583D02*
X1141732Y1960630D01*
X1019685Y1755906D02*
Y1838583D01*
X992126Y1728347D02*
X1019685Y1755906D01*
X930512Y1728347D02*
X992126D01*
X899016Y1759842D02*
X930512Y1728347D01*
X899016Y1759842D02*
Y1777953D01*
X973493Y875068D02*
X1236810Y1138385D01*
X973493Y781104D02*
Y875068D01*
X957936Y1260339D02*
X960630D01*
X947110Y1249512D02*
X957936Y1260339D01*
X947110Y647379D02*
Y1249512D01*
X848979Y549248D02*
X947110Y647379D01*
X-1614Y1913386D02*
X7874D01*
X-1968Y1913740D02*
X-1614Y1913386D01*
X7874D02*
X472441Y1448819D01*
X594488Y1397638D02*
X617126Y1420276D01*
X1246851Y1148426D02*
X1327166Y1228740D01*
X1421129D01*
X1531496Y1339107D01*
X681102Y1713094D02*
X685575Y1708622D01*
X797795D01*
X622047Y1713094D02*
X681102D01*
X212598Y1984252D02*
X549212Y1647638D01*
X1320866D01*
X949016Y1560630D02*
Y1625000D01*
X897638Y1398134D02*
X901575D01*
X932575Y1429134D01*
X1047244D01*
X1072638Y1454528D01*
Y1519685D01*
X1053638Y1398134D02*
X1069882Y1381890D01*
X960630Y1398134D02*
X1053638D01*
X1069882Y1381890D02*
X1072638D01*
X960630Y1322339D02*
Y1398134D01*
X897638Y1322339D02*
Y1398134D01*
X681102Y3125984D02*
X708661Y3153543D01*
X846457D01*
X1224906Y1260339D02*
X1259842Y1295276D01*
X960630Y1260339D02*
X1224906D01*
X1283465Y1736220D02*
Y1860340D01*
X1192913Y1950891D02*
Y2078740D01*
Y1950891D02*
X1283465Y1860340D01*
X1259843Y2129921D02*
X1437992Y2308071D01*
X856967Y1875812D02*
X882386Y1850394D01*
X850394Y1878449D02*
X853030Y1875812D01*
X856967D01*
X799016Y1777953D02*
Y1897441D01*
X882386Y1846457D02*
Y1850394D01*
X799016Y1897441D02*
X896407Y1994833D01*
X899016Y1777953D02*
X905905Y1784842D01*
X797795Y1708622D02*
X849016Y1759842D01*
X1336811Y1648425D02*
X1337598Y1647638D01*
X1320866Y1648425D02*
X1336811D01*
X131496Y1623622D02*
Y1667716D01*
X172441Y410236D02*
Y470079D01*
Y410236D02*
X173228Y409449D01*
X171654Y470866D02*
X172441Y470079D01*
X371654Y253543D02*
Y304724D01*
X271654Y253543D02*
Y303150D01*
X421654Y414370D02*
Y470866D01*
X421260Y414764D02*
X421654Y414370D01*
X322244Y410039D02*
X322835Y409449D01*
X322244Y410039D02*
Y470276D01*
X321654Y470866D02*
X322244Y470276D01*
X0Y1984252D02*
X212598D01*
X-24606Y1959646D02*
X0Y1984252D01*
X-24606Y1823819D02*
Y1959646D01*
Y1823819D02*
X131496Y1667716D01*
X1337598Y1375984D02*
X1435039D01*
X1295276Y1586178D02*
X1313976Y1604878D01*
X1295276Y1511811D02*
Y1586178D01*
Y1511811D02*
X1313976Y1493110D01*
Y1604878D02*
Y1640748D01*
X1320866Y1647638D01*
X1313976Y1457677D02*
X1320866Y1450787D01*
X1337598D01*
X1313976Y1457677D02*
Y1493110D01*
X1531496Y1570866D02*
Y1901599D01*
Y1339107D02*
Y1570866D01*
X1337598Y1572835D02*
X1529527D01*
X1531496Y1570866D01*
X1228346Y1413386D02*
X1245079D01*
X1155709Y1381890D02*
X1196850D01*
X1228346Y1413386D01*
X1162402Y1527559D02*
X1221457Y1586614D01*
Y1603347D02*
X1228346Y1610236D01*
X1245079D01*
X1155709Y1519685D02*
X1158465D01*
X1162402Y1523622D01*
Y1527559D01*
X1221457Y1586614D02*
Y1603347D01*
X1528613Y1904482D02*
X1531496Y1901599D01*
X1405525Y2027571D02*
X1528613Y1904482D01*
X843016Y1460134D02*
X897638D01*
X960630D01*
X629921Y334646D02*
X634377D01*
X844453Y544722D01*
X905512Y1260339D02*
X909449Y1256402D01*
Y818898D02*
Y1256402D01*
X701181Y610630D02*
X909449Y818898D01*
X121247Y416267D02*
X122047Y417068D01*
X120840Y415861D02*
X121247Y416267D01*
Y470459D01*
X121653Y470866D01*
X442913Y610630D02*
X701181D01*
X321654Y489370D02*
X442913Y610630D01*
X321654Y470866D02*
Y489370D01*
X127457Y85142D02*
X184055D01*
X171654Y191047D02*
Y253543D01*
X209157Y149606D02*
Y153543D01*
X171654Y191047D02*
X209157Y153543D01*
X264764Y85142D02*
X271158Y91535D01*
Y149606D01*
X264764Y85142D02*
X278543Y71362D01*
X409449D01*
X328149Y210725D02*
Y247047D01*
X405512Y133362D02*
X409449D01*
X328149Y210725D02*
X405512Y133362D01*
X321654Y253543D02*
X328149Y247047D01*
X846705Y271902D02*
Y330461D01*
X846953Y330709D01*
X846457Y271654D02*
X846705Y271902D01*
X421654Y235039D02*
X522338Y134354D01*
X807087D01*
X421654Y235039D02*
Y253543D01*
X944882Y134354D02*
X987693D01*
X908953Y330709D02*
X948819D01*
X908457Y267717D02*
X944882Y231292D01*
Y196354D02*
Y231292D01*
X908457Y267717D02*
Y271654D01*
X896299Y205709D02*
X905653Y196354D01*
X859607Y205709D02*
X896299D01*
X905653Y196354D02*
X944882D01*
X850253D02*
X859607Y205709D01*
X807087Y196354D02*
X850253D01*
X645454Y240157D02*
X676950Y271654D01*
X631890Y240157D02*
X645454D01*
X676950Y271654D02*
X846457D01*
X-3937Y471945D02*
Y503937D01*
X217716Y543307D02*
X271654Y489370D01*
X78740Y543307D02*
X217716D01*
X271654Y470866D02*
Y489370D01*
X64961Y529528D02*
X78740Y543307D01*
X64961Y473417D02*
Y529528D01*
X-3201Y410681D02*
X64225D01*
X64961Y411417D01*
X-3937Y409945D02*
X-3201Y410681D01*
X-3937Y409945D02*
X3937Y402071D01*
Y358268D02*
Y402071D01*
X371654Y470866D02*
X421654D01*
X221654Y394882D02*
Y470866D01*
X171654Y344882D02*
X221654Y394882D01*
X171654Y253543D02*
Y344882D01*
X200787Y976378D02*
X297244D01*
X677165Y830709D02*
Y833709D01*
X628984Y881890D02*
X677165Y833709D01*
X625984Y881890D02*
X628984D01*
X1067323Y3283071D02*
X1082677Y3267716D01*
Y3263780D02*
X1085622Y3266724D01*
X1067323Y3336220D02*
Y3393307D01*
Y3283071D02*
Y3336220D01*
X838583Y2066073D02*
Y2090551D01*
Y2066073D02*
X863061D01*
X838583Y2003937D02*
Y2066073D01*
X586614Y2342520D02*
X838583Y2090551D01*
X547244Y2295276D02*
X608858Y2233661D01*
X944882Y2126968D02*
X1196063Y2378150D01*
X944882Y2087598D02*
Y2126968D01*
X896407Y1994833D02*
X932825D01*
X944882Y2006890D01*
X618677Y3148521D02*
Y3176598D01*
Y3148521D02*
X751450Y3015748D01*
X1062992D01*
X527559Y3267716D02*
X618677Y3176598D01*
X925197Y3189472D02*
X925197Y3189472D01*
X925197Y3149606D02*
Y3189472D01*
X648622Y3377465D02*
X657837D01*
X658325Y3377953D01*
X720472D01*
X816929Y3474409D01*
X637795Y3366638D02*
X648622Y3377465D01*
X816929Y3553150D02*
X817323Y3553543D01*
X816929Y3474409D02*
Y3553150D01*
X587110Y3428638D02*
X637795D01*
X692913Y3424063D02*
X696850Y3420126D01*
Y3419488D02*
Y3420126D01*
X642370Y3424063D02*
X692913D01*
X637795Y3428638D02*
X642370Y3424063D01*
X574803Y3090551D02*
Y3177165D01*
X1062992Y3015748D02*
X1130417Y3083173D01*
X1188480Y3263780D02*
X1190449Y3261811D01*
Y3155512D02*
X1192417Y3153543D01*
X1190449Y3155512D02*
Y3261811D01*
X1437992Y2308071D02*
Y2531496D01*
X1465551Y2559055D02*
X1491142D01*
X1437992Y2531496D02*
X1465551Y2559055D01*
X575299Y1775094D02*
X622047D01*
X610236Y1862413D02*
Y1866142D01*
X796158Y1775094D02*
X799016Y1777953D01*
X681102Y1775094D02*
X796158D01*
X849016Y1759842D02*
Y1777953D01*
X694528Y1603720D02*
X695492D01*
X693969Y1603161D02*
X694528Y1603720D01*
X693969Y1563551D02*
Y1603161D01*
X693409Y1562992D02*
X693969Y1563551D01*
X1093137Y3488189D02*
X1160066Y3421260D01*
X1070348Y3456693D02*
X1188480Y3338560D01*
X885827Y3456693D02*
X1070348D01*
X1188480Y3263780D02*
Y3338560D01*
X1076871Y3472441D02*
X1318898Y3230414D01*
X992126Y3472441D02*
X1076871D01*
X1318898Y3094488D02*
Y3230414D01*
X1064173Y3488189D02*
X1093137D01*
X1017323Y3535039D02*
Y3553543D01*
Y3535039D02*
X1064173Y3488189D01*
X817323Y3388189D02*
X885827Y3456693D01*
X967323Y3497244D02*
X992126Y3472441D01*
X1271653Y2935532D02*
Y3244095D01*
X1312008Y2559055D02*
Y2895177D01*
X1271653Y2935532D02*
X1312008Y2895177D01*
X1633858Y2472441D02*
Y2512307D01*
X1491142Y2559055D02*
X1506394Y2574307D01*
X1633858D01*
X1141142Y3665354D02*
X1145079Y3669291D01*
X1147835D01*
X1067323Y3553543D02*
Y3572047D01*
X1141142Y3645866D01*
Y3665354D01*
X1060827D02*
X1064764Y3669291D01*
X1047244Y3665354D02*
X1060827D01*
X1017323Y3635433D02*
X1047244Y3665354D01*
X1017323Y3553543D02*
Y3635433D01*
X957677Y3691433D02*
X968504Y3680606D01*
X948323Y3704724D02*
X957677Y3695370D01*
X614173Y3673228D02*
X645669Y3704724D01*
X968504Y3680606D02*
X972441D01*
X645669Y3704724D02*
X948323D01*
X957677Y3691433D02*
Y3695370D01*
X629425Y3563488D02*
X661417D01*
X614173Y3578740D02*
X629425Y3563488D01*
X614173Y3578740D02*
Y3673228D01*
X760827Y3563488D02*
X767323Y3556992D01*
X661417Y3563488D02*
X760827D01*
X767323Y3553543D02*
Y3556992D01*
X665354Y3625488D02*
X695370Y3595472D01*
X760331D01*
X1641732Y2862701D02*
X1680606D01*
X1413386Y2952260D02*
Y2975394D01*
X1440945Y2924701D02*
X1641732D01*
X1413386Y2952260D02*
X1440945Y2924701D01*
X967323Y3553543D02*
Y3613488D01*
X972441Y3618606D01*
X760331Y3595472D02*
X786905Y3622047D01*
X661417Y3625488D02*
X665354D01*
X786905Y3622047D02*
Y3625984D01*
X724409Y3669291D02*
X724658Y3669043D01*
Y3626232D02*
X724905Y3625984D01*
X724658Y3626232D02*
Y3669043D01*
X801669Y3611220D02*
X817323Y3595567D01*
X786905Y3622047D02*
X797732Y3611220D01*
X817323Y3553543D02*
Y3595567D01*
X797732Y3611220D02*
X801669D01*
X820079Y3244095D02*
X824016Y3240157D01*
X825000D01*
X820079Y3244095D02*
Y3333465D01*
X817323Y3336220D02*
X820079Y3333465D01*
X817323Y3336220D02*
Y3388189D01*
X767126Y3336417D02*
X767323Y3336220D01*
X696850Y3336417D02*
X767126D01*
X767323Y3262795D02*
Y3336220D01*
X744685Y3240157D02*
X767323Y3262795D01*
X741929Y3240157D02*
X744685D01*
X267729Y3248043D02*
Y3255917D01*
X313989Y3302177D01*
X544802D01*
X657506Y3189472D01*
X870079D01*
Y3251472D02*
X870079Y3251472D01*
X925197D01*
X929134D02*
X967323Y3289661D01*
Y3336220D01*
X925197Y3251472D02*
X929134D01*
X967323Y3497244D02*
Y3553543D01*
X866732Y3336811D02*
Y3393110D01*
X866142Y3393701D02*
X866732Y3393110D01*
Y3336811D02*
X867323Y3336220D01*
X1082677Y3263780D02*
X1126480D01*
X1385827Y3028543D02*
X1413386Y3000984D01*
X1318898Y3094488D02*
X1384842Y3028543D01*
X1413386Y2975394D02*
Y3000984D01*
X1384842Y3028543D02*
X1385827D01*
X1020429Y3263531D02*
X1020677Y3263780D01*
X1020429Y3153791D02*
Y3263531D01*
X1020181Y3153543D02*
X1020429Y3153791D01*
X1019000Y3265457D02*
Y3334543D01*
Y3265457D02*
X1020677Y3263780D01*
X1017323Y3336220D02*
X1019000Y3334543D01*
X830709Y3657480D02*
X831205D01*
X862701Y3625984D01*
Y3622047D02*
Y3625984D01*
X865012Y3555854D02*
X867323Y3553543D01*
X865012Y3555854D02*
Y3619736D01*
X862701Y3622047D02*
X865012Y3619736D01*
X1413386Y2712598D02*
Y2796260D01*
X608858Y2095866D02*
Y2233661D01*
X240157Y2578740D02*
Y2704724D01*
Y2578740D02*
X366142Y2452756D01*
X496063D01*
X366155Y2763767D02*
X586614Y2543307D01*
Y2342520D02*
Y2543307D01*
X366155Y2763767D02*
Y3248043D01*
X574803Y3090551D02*
X630417Y3034937D01*
Y3003441D02*
Y3034937D01*
X472441Y1240158D02*
Y1448819D01*
X551181Y1161417D02*
X751968D01*
X472441Y1240158D02*
X551181Y1161417D01*
X751968D02*
X870079Y1043307D01*
Y830709D02*
Y1043307D01*
X715396Y1393701D02*
X779528D01*
X688821Y1420276D02*
X715396Y1393701D01*
X617126Y1420276D02*
X688821D01*
X653543Y1818898D02*
X838583Y2003937D01*
D27*
X1624295Y322835D02*
X1628233Y326772D01*
X1570866Y322835D02*
X1624295D01*
X1628233Y326772D02*
X1635827D01*
X1648622Y339567D02*
Y346457D01*
X1635827Y326772D02*
X1648622Y339567D01*
X1568898Y315945D02*
Y362484D01*
X1557366Y374016D02*
X1568898Y362484D01*
X1425197Y374016D02*
X1557366D01*
X1397638Y401575D02*
X1425197Y374016D01*
X1397638Y401575D02*
Y542323D01*
X1396653Y543307D02*
X1397638Y542323D01*
X950291Y1853837D02*
X979302D01*
X807149Y1616589D02*
Y1617654D01*
X800984Y1610424D02*
X807149Y1616589D01*
X800984Y1562992D02*
Y1610424D01*
X799016Y1561024D02*
X800984Y1562992D01*
X944386Y1847931D02*
X950291Y1853837D01*
X979302D02*
X980056Y1854590D01*
X944386Y1846457D02*
Y1847931D01*
X77165Y253543D02*
X121653D01*
X924701Y3622047D02*
X924949Y3622295D01*
X918898Y3616244D02*
X924701Y3622047D01*
X947047Y1779921D02*
Y1843795D01*
Y1779921D02*
X949016Y1777953D01*
X944386Y1846457D02*
X947047Y1843795D01*
X799016Y1560630D02*
Y1561024D01*
X755409Y1562992D02*
X797047D01*
X799016Y1561024D01*
X849016Y1560630D02*
X899016D01*
X917323Y3336220D02*
Y3393701D01*
X924949Y3622295D02*
Y3669043D01*
X925197Y3669291D01*
X917323Y3553543D02*
X918898Y3555118D01*
Y3616244D01*
D28*
X736221Y842520D02*
Y904528D01*
X726378Y988189D02*
X729331Y985236D01*
X628984Y1021890D02*
X699567D01*
X726378Y995079D01*
X729331Y985236D02*
X736221D01*
X726378Y988189D02*
Y995079D01*
X501969Y976378D02*
X514764Y989173D01*
X476378Y976378D02*
X501969D01*
X514764Y998827D02*
X537826Y1021890D01*
X514764Y989173D02*
Y998827D01*
X537826Y1021890D02*
X625984D01*
X476378Y976378D02*
Y1098425D01*
D29*
X366142Y2559055D02*
D03*
X169291D02*
D03*
D30*
X106299Y2322846D02*
D03*
X429134D02*
D03*
X472454Y3543319D02*
D03*
X63005D02*
D03*
X1708674D02*
D03*
X1299225D02*
D03*
Y2322846D02*
D03*
X1708674D02*
D03*
D31*
X366155Y2086614D02*
D03*
X267716D02*
D03*
X267729Y3248043D02*
D03*
X366155D02*
D03*
X1503950D02*
D03*
X1602375D02*
D03*
Y2027571D02*
D03*
X1503950D02*
D03*
D32*
X169304Y2086614D02*
D03*
Y3248043D02*
D03*
X1405525D02*
D03*
Y2027571D02*
D03*
D33*
X631890Y437008D02*
D03*
Y240157D02*
D03*
X1124016D02*
D03*
Y437008D02*
D03*
D34*
X796063Y2253150D02*
D03*
Y2353150D02*
D03*
X1196063Y2378150D02*
D03*
Y2228150D02*
D03*
D35*
X935827Y2755905D02*
D03*
D36*
X835827D02*
D03*
D37*
X1167323Y1178543D02*
D03*
X1667323D02*
D03*
X1417323D02*
D03*
Y1817520D02*
D03*
X1167323D02*
D03*
X604331Y1299803D02*
D03*
X104331D02*
D03*
X354331D02*
D03*
Y660827D02*
D03*
X604331D02*
D03*
D38*
X1667323Y1817520D02*
D03*
X104331Y660827D02*
D03*
D39*
X1637795Y1665354D02*
D03*
Y1330709D02*
D03*
X133858Y812992D02*
D03*
Y1147638D02*
D03*
D40*
X1389764Y826772D02*
D03*
D41*
X1507874Y1011811D02*
D03*
D42*
X1625984Y826772D02*
D03*
D43*
X86614Y2801575D02*
D03*
Y2901575D02*
D03*
D44*
Y3001575D02*
D03*
D45*
X1535433Y2440945D02*
D03*
X1614173Y2283464D02*
D03*
X984252Y708661D02*
D03*
X275590Y3070866D02*
D03*
X1220472Y1496063D02*
D03*
X1692913Y2125984D02*
D03*
X748031Y551181D02*
D03*
X118110Y866141D02*
D03*
X1456693Y1653543D02*
D03*
X1692913Y3070866D02*
D03*
X1264112Y673561D02*
D03*
X1535433Y2125984D02*
D03*
X1377952Y1496063D02*
D03*
X1456693Y1338582D02*
D03*
X1062992Y1811023D02*
D03*
X590551Y2755905D02*
D03*
X1692913Y1496063D02*
D03*
X984252Y2598425D02*
D03*
X1220472Y2440945D02*
D03*
X354330Y3543307D02*
D03*
X826771Y78740D02*
D03*
X196850Y2913385D02*
D03*
Y1023622D02*
D03*
X984252Y393701D02*
D03*
X826771D02*
D03*
X118110Y2440945D02*
D03*
X39370Y1023622D02*
D03*
X1141732Y2283464D02*
D03*
X1456693Y3543307D02*
D03*
X118110Y3070866D02*
D03*
X1456693Y2283464D02*
D03*
X1535433Y2755905D02*
D03*
X1141732Y2598425D02*
D03*
X196850Y708661D02*
D03*
X1141732Y78740D02*
D03*
X1062992Y2125984D02*
D03*
X433071Y866141D02*
D03*
X1377952Y2440945D02*
D03*
X433071Y3070866D02*
D03*
Y551181D02*
D03*
X511811Y78740D02*
D03*
X1456693D02*
D03*
X275590Y2755905D02*
D03*
X984252Y78740D02*
D03*
X1141732Y3543307D02*
D03*
X196850Y2283464D02*
D03*
X275590Y1496063D02*
D03*
X1535433Y1181102D02*
D03*
X511811Y2283464D02*
D03*
X1220472Y3385826D02*
D03*
X1062992Y551181D02*
D03*
X905511Y2440945D02*
D03*
X748031Y2125984D02*
D03*
X118110Y2755905D02*
D03*
X1456693Y708661D02*
D03*
X669291Y78740D02*
D03*
X1692913Y3385826D02*
D03*
X433071Y1181102D02*
D03*
X1614173Y3543307D02*
D03*
X1692913Y2755905D02*
D03*
X669291Y3228346D02*
D03*
X590551Y551181D02*
D03*
X275590Y1181102D02*
D03*
X1692913Y2440945D02*
D03*
X1614173Y1023622D02*
D03*
X1535433Y3385826D02*
D03*
X1692913Y866141D02*
D03*
X1141732Y2913385D02*
D03*
X1062992Y1181102D02*
D03*
X511811Y2913385D02*
D03*
X433071Y2755905D02*
D03*
X196850Y3543307D02*
D03*
X1377952Y3070866D02*
D03*
X1535433Y866141D02*
D03*
X275590D02*
D03*
X826771Y1338582D02*
D03*
X1299212Y1023622D02*
D03*
X275590Y2440945D02*
D03*
Y551181D02*
D03*
X622047Y2629921D02*
D03*
X1082181Y3113677D02*
D03*
X1763780Y582677D02*
D03*
X1449229Y417502D02*
D03*
X1531496Y259842D02*
D03*
X1264764Y235236D02*
D03*
X1429134Y169291D02*
D03*
X1547244Y94488D02*
D03*
X1200787Y700787D02*
D03*
X973493Y781104D02*
D03*
X-1968Y1913740D02*
D03*
X417323Y1611273D02*
D03*
X506813Y1507874D02*
D03*
X984252Y3255905D02*
D03*
X594488Y1397638D02*
D03*
X773622Y1051181D02*
D03*
X1259842Y763779D02*
D03*
X949016Y1625000D02*
D03*
X681102Y3125984D02*
D03*
X1259842Y90551D02*
D03*
X736221Y842520D02*
D03*
X1259842Y1295276D02*
D03*
X1283465Y1736220D02*
D03*
X1192913Y2078740D02*
D03*
X807149Y1617654D02*
D03*
X980056Y1854590D02*
D03*
X850394Y1878449D02*
D03*
X988189Y992126D02*
D03*
X1066929Y1047244D02*
D03*
X645669Y3287402D02*
D03*
X131496Y1623622D02*
D03*
X173228Y409449D02*
D03*
X371654Y304724D02*
D03*
X271654Y303150D02*
D03*
X421654Y414370D02*
D03*
X322835Y409449D02*
D03*
X1435039Y1375984D02*
D03*
X1236220Y1090551D02*
D03*
X843016Y1460134D02*
D03*
X629921Y334646D02*
D03*
X120840Y415861D02*
D03*
X127457Y85142D02*
D03*
X987693Y134354D02*
D03*
X948819Y330709D02*
D03*
X-3937Y503937D02*
D03*
X3937Y358268D02*
D03*
X77165Y253543D02*
D03*
X200787Y976378D02*
D03*
X476378Y1098425D02*
D03*
X677165Y830709D02*
D03*
X1067323Y3393307D02*
D03*
X863061Y2066073D02*
D03*
X763779Y2874016D02*
D03*
X846457Y3153543D02*
D03*
X921260Y3055118D02*
D03*
Y2956693D02*
D03*
X547244Y2295276D02*
D03*
X1259842Y814961D02*
D03*
X925197Y3149606D02*
D03*
X587110Y3428638D02*
D03*
X527559Y3267716D02*
D03*
X574803Y3177165D02*
D03*
X575299Y1775094D02*
D03*
X694528Y1603720D02*
D03*
X1160066Y3421260D02*
D03*
X1271653Y3244095D02*
D03*
X1633858Y2472441D02*
D03*
X1680606Y2862701D02*
D03*
X724409Y3669291D02*
D03*
X866142Y3393701D02*
D03*
X917323D02*
D03*
X925197Y3669291D02*
D03*
X830709Y3657480D02*
D03*
X1413386Y2712598D02*
D03*
X1562992Y2877953D02*
D03*
X559055Y2208661D02*
D03*
X608858Y2095866D02*
D03*
X240157Y2704724D02*
D03*
X496063Y2452756D02*
D03*
X405016Y1952260D02*
D03*
X630417Y3003441D02*
D03*
X0Y1850394D02*
D03*
X685039Y2905512D02*
D03*
X1307087Y3011811D02*
D03*
X322835Y2704724D02*
D03*
X437008Y2818898D02*
D03*
X870079Y830709D02*
D03*
X1094488Y645669D02*
D03*
X366142Y125984D02*
D03*
X637795Y1397638D02*
D03*
X779528Y1393701D02*
D03*
X653543Y1818898D02*
D03*
X342520Y1952756D02*
D03*
X744095Y1826772D02*
D03*
X21654Y1531496D02*
D03*
X480315Y1606299D02*
D03*
X610236Y1866142D02*
D03*
X492126Y2027559D02*
D03*
X874016Y606299D02*
D03*
X917323Y704724D02*
D03*
X0Y1700787D02*
D03*
X59055Y1385827D02*
D03*
D46*
X1568898Y432087D02*
D03*
X1494095D02*
D03*
Y315945D02*
D03*
X1531496D02*
D03*
X1568898D02*
D03*
D47*
X1396653Y543307D02*
D03*
X1493110D02*
D03*
D48*
X421654Y253543D02*
D03*
X371654D02*
D03*
X321654D02*
D03*
X271654D02*
D03*
X221654D02*
D03*
X171654D02*
D03*
X121653D02*
D03*
X421654Y470866D02*
D03*
X371654D02*
D03*
X321654D02*
D03*
X271654D02*
D03*
X221654D02*
D03*
X171654D02*
D03*
X121653D02*
D03*
X1067323Y3336220D02*
D03*
X1017323D02*
D03*
X967323D02*
D03*
X917323D02*
D03*
X867323D02*
D03*
X817323D02*
D03*
X767323D02*
D03*
X1067323Y3553543D02*
D03*
X1017323D02*
D03*
X967323D02*
D03*
X917323D02*
D03*
X867323D02*
D03*
X817323D02*
D03*
X767323D02*
D03*
D49*
X1657480Y168307D02*
D03*
Y264764D02*
D03*
D50*
X696850Y3336417D02*
D03*
Y3419488D02*
D03*
D51*
X1763780Y543307D02*
D03*
Y417323D02*
D03*
D52*
X1413386Y2975394D02*
D03*
Y2796260D02*
D03*
%TF.MD5,4a4e6448e1d0d10cf88004d2a455ff14*%
M02*
