%TF.GenerationSoftware,Altium Limited,Altium Designer,23.4.1 (23)*%
G04 Layer_Color=2752767*
%FSLAX26Y26*%
%MOIN*%
%TF.SameCoordinates,0B69EAEB-4B52-49E6-8846-B3B3CADC8916*%
%TF.FilePolarity,Positive*%
%TF.FileFunction,Drawing*%
%TF.Part,Single*%
G01*
G75*
%TA.AperFunction,NonConductor*%
%ADD125C,0.005000*%
%ADD126C,0.006667*%
%ADD127C,0.004000*%
D125*
X673701Y2518583D02*
X683701Y2538583D01*
X673701Y2558583D01*
X693701Y2548583D01*
X713701Y2558583D01*
X703701Y2538583D01*
X713701Y2518583D01*
X693701Y2528583D01*
X673701Y2518583D01*
X823701D02*
X833701Y2538583D01*
X823701Y2558583D01*
X843701Y2548583D01*
X863701Y2558583D01*
X853701Y2538583D01*
X863701Y2518583D01*
X843701Y2528583D01*
X823701Y2518583D01*
X798701Y2118583D02*
X808701Y2138583D01*
X798701Y2158583D01*
X818701Y2148583D01*
X838701Y2158583D01*
X828701Y2138583D01*
X838701Y2118583D01*
X818701Y2128583D01*
X798701Y2118583D01*
X698701D02*
X708701Y2138583D01*
X698701Y2158583D01*
X718701Y2148583D01*
X738701Y2158583D01*
X728701Y2138583D01*
X738701Y2118583D01*
X718701Y2128583D01*
X698701Y2118583D01*
X1637795Y1310709D02*
X1647795Y1320709D01*
X1657795D01*
X1647795Y1330709D01*
X1657795Y1340709D01*
X1647795D01*
X1637795Y1350709D01*
X1627795Y1340709D01*
X1617795D01*
X1627795Y1330709D01*
X1617795Y1320709D01*
X1627795D01*
X1637795Y1310709D01*
Y1645354D02*
X1647795Y1655354D01*
X1657795D01*
X1647795Y1665354D01*
X1657795Y1675354D01*
X1647795D01*
X1637795Y1685354D01*
X1627795Y1675354D01*
X1617795D01*
X1627795Y1665354D01*
X1617795Y1655354D01*
X1627795D01*
X1637795Y1645354D01*
X1167323Y1797520D02*
X1147323Y1837520D01*
X1187323D01*
X1167323Y1797520D01*
X1667323D02*
X1647323Y1837520D01*
X1687323D01*
X1667323Y1797520D01*
X1417323D02*
X1397323Y1837520D01*
X1437323D01*
X1417323Y1797520D01*
Y1158543D02*
X1397323Y1198543D01*
X1437323D01*
X1417323Y1158543D01*
X1667323D02*
X1647323Y1198543D01*
X1687323D01*
X1667323Y1158543D01*
X1167323D02*
X1147323Y1198543D01*
X1187323D01*
X1167323Y1158543D01*
X133858Y1127638D02*
X143858Y1137638D01*
X153858D01*
X143858Y1147638D01*
X153858Y1157638D01*
X143858D01*
X133858Y1167638D01*
X123858Y1157638D01*
X113858D01*
X123858Y1147638D01*
X113858Y1137638D01*
X123858D01*
X133858Y1127638D01*
Y792992D02*
X143858Y802992D01*
X153858D01*
X143858Y812992D01*
X153858Y822992D01*
X143858D01*
X133858Y832992D01*
X123858Y822992D01*
X113858D01*
X123858Y812992D01*
X113858Y802992D01*
X123858D01*
X133858Y792992D01*
X604331Y640827D02*
X584331Y680827D01*
X624331D01*
X604331Y640827D01*
X104331D02*
X84331Y680827D01*
X124331D01*
X104331Y640827D01*
X354331D02*
X334331Y680827D01*
X374331D01*
X354331Y640827D01*
Y1279803D02*
X334331Y1319803D01*
X374331D01*
X354331Y1279803D01*
X104331D02*
X84331Y1319803D01*
X124331D01*
X104331Y1279803D01*
X604331D02*
X584331Y1319803D01*
X624331D01*
X604331Y1279803D01*
X346142Y2539055D02*
Y2579055D01*
X386142D01*
Y2539055D01*
X346142D01*
X149291D02*
Y2579055D01*
X189291D01*
Y2539055D01*
X149291D01*
X346155Y2066614D02*
Y2106614D01*
X386155D01*
Y2066614D01*
X346155D01*
X247716D02*
Y2106614D01*
X287716D01*
Y2066614D01*
X247716D01*
X149304D02*
Y2106614D01*
X189304D01*
Y2066614D01*
X149304D01*
X462454Y3533319D02*
Y3523319D01*
X482454D01*
Y3533319D01*
X492454D01*
Y3553319D01*
X482454D01*
Y3563319D01*
X462454D01*
Y3553319D01*
X452454D01*
Y3533319D01*
X462454D01*
X149304Y3228043D02*
Y3268043D01*
X189304D01*
Y3228043D01*
X149304D01*
X247729D02*
Y3268043D01*
X287729D01*
Y3228043D01*
X247729D01*
X346155D02*
Y3268043D01*
X386155D01*
Y3228043D01*
X346155D01*
X53005Y3533319D02*
Y3523319D01*
X73005D01*
Y3533319D01*
X83005D01*
Y3553319D01*
X73005D01*
Y3563319D01*
X53005D01*
Y3553319D01*
X43005D01*
Y3533319D01*
X53005D01*
X1698674D02*
Y3523319D01*
X1718674D01*
Y3533319D01*
X1728674D01*
Y3553319D01*
X1718674D01*
Y3563319D01*
X1698674D01*
Y3553319D01*
X1688674D01*
Y3533319D01*
X1698674D01*
X1385525Y3228043D02*
Y3268043D01*
X1425525D01*
Y3228043D01*
X1385525D01*
X1483950D02*
Y3268043D01*
X1523950D01*
Y3228043D01*
X1483950D01*
X1582375D02*
Y3268043D01*
X1622375D01*
Y3228043D01*
X1582375D01*
X1289225Y3533319D02*
Y3523319D01*
X1309225D01*
Y3533319D01*
X1319225D01*
Y3553319D01*
X1309225D01*
Y3563319D01*
X1289225D01*
Y3553319D01*
X1279225D01*
Y3533319D01*
X1289225D01*
Y2312846D02*
Y2302846D01*
X1309225D01*
Y2312846D01*
X1319225D01*
Y2332846D01*
X1309225D01*
Y2342846D01*
X1289225D01*
Y2332846D01*
X1279225D01*
Y2312846D01*
X1289225D01*
X1582375Y2007571D02*
Y2047571D01*
X1622375D01*
Y2007571D01*
X1582375D01*
X1483950D02*
Y2047571D01*
X1523950D01*
Y2007571D01*
X1483950D01*
X1385525D02*
Y2047571D01*
X1425525D01*
Y2007571D01*
X1385525D01*
X1698674Y2312846D02*
Y2302846D01*
X1718674D01*
Y2312846D01*
X1728674D01*
Y2332846D01*
X1718674D01*
Y2342846D01*
X1698674D01*
Y2332846D01*
X1688674D01*
Y2312846D01*
X1698674D01*
X877953Y495748D02*
X857953Y535748D01*
X897953D01*
X877953Y495748D01*
Y503748D02*
X865953Y527748D01*
X889953D01*
X877953Y503748D01*
Y141417D02*
X857953Y181417D01*
X897953D01*
X877953Y141417D01*
Y149417D02*
X865953Y173417D01*
X889953D01*
X877953Y149417D01*
X915827Y2735905D02*
X925827D01*
X935827Y2745905D01*
X945827Y2735905D01*
X955827D01*
Y2745905D01*
X945827Y2755905D01*
X955827Y2765905D01*
Y2775905D01*
X945827D01*
X935827Y2765905D01*
X925827Y2775905D01*
X915827D01*
Y2765905D01*
X925827Y2755905D01*
X915827Y2745905D01*
Y2735905D01*
X815827D02*
X825827D01*
X835827Y2745905D01*
X845827Y2735905D01*
X855827D01*
Y2745905D01*
X845827Y2755905D01*
X855827Y2765905D01*
Y2775905D01*
X845827D01*
X835827Y2765905D01*
X825827Y2775905D01*
X815827D01*
Y2765905D01*
X825827Y2755905D01*
X815827Y2745905D01*
Y2735905D01*
X1369764Y826772D02*
X1389764Y846772D01*
X1409764Y826772D01*
X1389764Y806772D01*
X1369764Y826772D01*
X1487874Y991811D02*
Y1031811D01*
X1527874D01*
Y991811D01*
X1487874D01*
X1495874Y999811D02*
Y1023811D01*
X1519874D01*
Y999811D01*
X1495874D01*
X1605984Y806772D02*
Y846772D01*
X1645984D01*
Y806772D01*
X1605984D01*
X1613984Y814772D02*
Y838772D01*
X1637984D01*
Y814772D01*
X1613984D01*
X66614Y2781575D02*
X76614Y2801575D01*
X66614Y2821575D01*
X86614Y2811575D01*
X106614Y2821575D01*
X96614Y2801575D01*
X106614Y2781575D01*
X86614Y2791575D01*
X66614Y2781575D01*
Y2881575D02*
X76614Y2901575D01*
X66614Y2921575D01*
X86614Y2911575D01*
X106614Y2921575D01*
X96614Y2901575D01*
X106614Y2881575D01*
X86614Y2891575D01*
X66614Y2881575D01*
Y2981575D02*
X76614Y3001575D01*
X66614Y3021575D01*
X86614Y3011575D01*
X106614Y3021575D01*
X96614Y3001575D01*
X106614Y2981575D01*
X86614Y2991575D01*
X66614Y2981575D01*
X190945Y1667008D02*
X200945Y1677008D01*
X210945D01*
X200945Y1687008D01*
X210945Y1697008D01*
X200945D01*
X190945Y1707008D01*
X180945Y1697008D01*
X170945D01*
X180945Y1687008D01*
X170945Y1677008D01*
X180945D01*
X190945Y1667008D01*
Y1675008D02*
X196945Y1681008D01*
X202945D01*
X196945Y1687008D01*
X202945Y1693008D01*
X196945D01*
X190945Y1699008D01*
X184945Y1693008D01*
X178945D01*
X184945Y1687008D01*
X178945Y1681008D01*
X184945D01*
X190945Y1675008D01*
X671260Y2263464D02*
X681260Y2273464D01*
X691260D01*
X681260Y2283464D01*
X691260Y2293464D01*
X681260D01*
X671260Y2303464D01*
X661260Y2293464D01*
X651260D01*
X661260Y2283464D01*
X651260Y2273464D01*
X661260D01*
X671260Y2263464D01*
Y2271464D02*
X677260Y2277464D01*
X683260D01*
X677260Y2283464D01*
X683260Y2289464D01*
X677260D01*
X671260Y2295464D01*
X665260Y2289464D01*
X659260D01*
X665260Y2283464D01*
X659260Y2277464D01*
X665260D01*
X671260Y2271464D01*
Y2578425D02*
X681260Y2588425D01*
X691260D01*
X681260Y2598425D01*
X691260Y2608425D01*
X681260D01*
X671260Y2618425D01*
X661260Y2608425D01*
X651260D01*
X661260Y2598425D01*
X651260Y2588425D01*
X661260D01*
X671260Y2578425D01*
Y2586425D02*
X677260Y2592425D01*
X683260D01*
X677260Y2598425D01*
X683260Y2604425D01*
X677260D01*
X671260Y2610425D01*
X665260Y2604425D01*
X659260D01*
X665260Y2598425D01*
X659260Y2592425D01*
X665260D01*
X671260Y2586425D01*
X275591Y176851D02*
X285591Y186851D01*
X295591D01*
X285591Y196851D01*
X295591Y206851D01*
X285591D01*
X275591Y216851D01*
X265591Y206851D01*
X255591D01*
X265591Y196851D01*
X255591Y186851D01*
X265591D01*
X275591Y176851D01*
Y184851D02*
X281591Y190851D01*
X287591D01*
X281591Y196851D01*
X287591Y202851D01*
X281591D01*
X275591Y208851D01*
X269591Y202851D01*
X263591D01*
X269591Y196851D01*
X263591Y190851D01*
X269591D01*
X275591Y184851D01*
Y728032D02*
X285591Y738032D01*
X295591D01*
X285591Y748032D01*
X295591Y758032D01*
X285591D01*
X275591Y768032D01*
X265591Y758032D01*
X255591D01*
X265591Y748032D01*
X255591Y738032D01*
X265591D01*
X275591Y728032D01*
Y736032D02*
X281591Y742032D01*
X287591D01*
X281591Y748032D01*
X287591Y754032D01*
X281591D01*
X275591Y760032D01*
X269591Y754032D01*
X263591D01*
X269591Y748032D01*
X263591Y742032D01*
X269591D01*
X275591Y736032D01*
X551181Y728032D02*
X561181Y738032D01*
X571181D01*
X561181Y748032D01*
X571181Y758032D01*
X561181D01*
X551181Y768032D01*
X541181Y758032D01*
X531181D01*
X541181Y748032D01*
X531181Y738032D01*
X541181D01*
X551181Y728032D01*
Y736032D02*
X557181Y742032D01*
X563181D01*
X557181Y748032D01*
X563181Y754032D01*
X557181D01*
X551181Y760032D01*
X545181Y754032D01*
X539181D01*
X545181Y748032D01*
X539181Y742032D01*
X545181D01*
X551181Y736032D01*
X826772Y1279213D02*
X836772Y1289213D01*
X846772D01*
X836772Y1299213D01*
X846772Y1309213D01*
X836772D01*
X826772Y1319213D01*
X816772Y1309213D01*
X806772D01*
X816772Y1299213D01*
X806772Y1289213D01*
X816772D01*
X826772Y1279213D01*
Y1287213D02*
X832772Y1293213D01*
X838772D01*
X832772Y1299213D01*
X838772Y1305213D01*
X832772D01*
X826772Y1311213D01*
X820772Y1305213D01*
X814772D01*
X820772Y1299213D01*
X814772Y1293213D01*
X820772D01*
X826772Y1287213D01*
X0Y2932757D02*
X10000Y2942757D01*
X20000D01*
X10000Y2952757D01*
X20000Y2962757D01*
X10000D01*
X0Y2972757D01*
X-10000Y2962757D01*
X-20000D01*
X-10000Y2952757D01*
X-20000Y2942757D01*
X-10000D01*
X0Y2932757D01*
Y2940757D02*
X6000Y2946757D01*
X12000D01*
X6000Y2952757D01*
X12000Y2958757D01*
X6000D01*
X0Y2964757D01*
X-6000Y2958757D01*
X-12000D01*
X-6000Y2952757D01*
X-12000Y2946757D01*
X-6000D01*
X0Y2940757D01*
X275591Y2381575D02*
X285591Y2391575D01*
X295591D01*
X285591Y2401575D01*
X295591Y2411575D01*
X285591D01*
X275591Y2421575D01*
X265591Y2411575D01*
X255591D01*
X265591Y2401575D01*
X255591Y2391575D01*
X265591D01*
X275591Y2381575D01*
Y2389575D02*
X281591Y2395575D01*
X287591D01*
X281591Y2401575D01*
X287591Y2407575D01*
X281591D01*
X275591Y2413575D01*
X269591Y2407575D01*
X263591D01*
X269591Y2401575D01*
X263591Y2395575D01*
X269591D01*
X275591Y2389575D01*
Y3483938D02*
X285591Y3493938D01*
X295591D01*
X285591Y3503938D01*
X295591Y3513938D01*
X285591D01*
X275591Y3523938D01*
X265591Y3513938D01*
X255591D01*
X265591Y3503938D01*
X255591Y3493938D01*
X265591D01*
X275591Y3483938D01*
Y3491938D02*
X281591Y3497938D01*
X287591D01*
X281591Y3503938D01*
X287591Y3509938D01*
X281591D01*
X275591Y3515938D01*
X269591Y3509938D01*
X263591D01*
X269591Y3503938D01*
X263591Y3497938D01*
X269591D01*
X275591Y3491938D01*
X551181Y3483938D02*
X561181Y3493938D01*
X571181D01*
X561181Y3503938D01*
X571181Y3513938D01*
X561181D01*
X551181Y3523938D01*
X541181Y3513938D01*
X531181D01*
X541181Y3503938D01*
X531181Y3493938D01*
X541181D01*
X551181Y3483938D01*
Y3491938D02*
X557181Y3497938D01*
X563181D01*
X557181Y3503938D01*
X563181Y3509938D01*
X557181D01*
X551181Y3515938D01*
X545181Y3509938D01*
X539181D01*
X545181Y3503938D01*
X539181Y3497938D01*
X545181D01*
X551181Y3491938D01*
X826772Y2932757D02*
X836772Y2942757D01*
X846772D01*
X836772Y2952757D01*
X846772Y2962757D01*
X836772D01*
X826772Y2972757D01*
X816772Y2962757D01*
X806772D01*
X816772Y2952757D01*
X806772Y2942757D01*
X816772D01*
X826772Y2932757D01*
Y2940757D02*
X832772Y2946757D01*
X838772D01*
X832772Y2952757D01*
X838772Y2958757D01*
X832772D01*
X826772Y2964757D01*
X820772Y2958757D01*
X814772D01*
X820772Y2952757D01*
X814772Y2946757D01*
X820772D01*
X826772Y2940757D01*
X964567Y452441D02*
X974567Y462441D01*
X984567D01*
X974567Y472441D01*
X984567Y482441D01*
X974567D01*
X964567Y492441D01*
X954567Y482441D01*
X944567D01*
X954567Y472441D01*
X944567Y462441D01*
X954567D01*
X964567Y452441D01*
Y460441D02*
X970567Y466441D01*
X976567D01*
X970567Y472441D01*
X976567Y478441D01*
X970567D01*
X964567Y484441D01*
X958567Y478441D01*
X952567D01*
X958567Y472441D01*
X952567Y466441D01*
X958567D01*
X964567Y460441D01*
X1102363Y1279213D02*
X1112363Y1289213D01*
X1122363D01*
X1112363Y1299213D01*
X1122363Y1309213D01*
X1112363D01*
X1102363Y1319213D01*
X1092363Y1309213D01*
X1082363D01*
X1092363Y1299213D01*
X1082363Y1289213D01*
X1092363D01*
X1102363Y1279213D01*
Y1287213D02*
X1108363Y1293213D01*
X1114363D01*
X1108363Y1299213D01*
X1114363Y1305213D01*
X1108363D01*
X1102363Y1311213D01*
X1096363Y1305213D01*
X1090363D01*
X1096363Y1299213D01*
X1090363Y1293213D01*
X1096363D01*
X1102363Y1287213D01*
X964567Y2105985D02*
X974567Y2115985D01*
X984567D01*
X974567Y2125985D01*
X984567Y2135985D01*
X974567D01*
X964567Y2145985D01*
X954567Y2135985D01*
X944567D01*
X954567Y2125985D01*
X944567Y2115985D01*
X954567D01*
X964567Y2105985D01*
Y2113985D02*
X970567Y2119985D01*
X976567D01*
X970567Y2125985D01*
X976567Y2131985D01*
X970567D01*
X964567Y2137985D01*
X958567Y2131985D01*
X952567D01*
X958567Y2125985D01*
X952567Y2119985D01*
X958567D01*
X964567Y2113985D01*
X1240158Y1554804D02*
X1250158Y1564804D01*
X1260158D01*
X1250158Y1574804D01*
X1260158Y1584804D01*
X1250158D01*
X1240158Y1594804D01*
X1230158Y1584804D01*
X1220158D01*
X1230158Y1574804D01*
X1220158Y1564804D01*
X1230158D01*
X1240158Y1554804D01*
Y1562804D02*
X1246158Y1568804D01*
X1252158D01*
X1246158Y1574804D01*
X1252158Y1580804D01*
X1246158D01*
X1240158Y1586804D01*
X1234158Y1580804D01*
X1228158D01*
X1234158Y1574804D01*
X1228158Y1568804D01*
X1234158D01*
X1240158Y1562804D01*
X1377953Y3483938D02*
X1387953Y3493938D01*
X1397953D01*
X1387953Y3503938D01*
X1397953Y3513938D01*
X1387953D01*
X1377953Y3523938D01*
X1367953Y3513938D01*
X1357953D01*
X1367953Y3503938D01*
X1357953Y3493938D01*
X1367953D01*
X1377953Y3483938D01*
Y3491938D02*
X1383953Y3497938D01*
X1389953D01*
X1383953Y3503938D01*
X1389953Y3509938D01*
X1383953D01*
X1377953Y3515938D01*
X1371953Y3509938D01*
X1365953D01*
X1371953Y3503938D01*
X1365953Y3497938D01*
X1371953D01*
X1377953Y3491938D01*
X1614173Y3523307D02*
X1624173Y3533307D01*
X1634173D01*
X1624173Y3543307D01*
X1634173Y3553307D01*
X1624173D01*
X1614173Y3563307D01*
X1604173Y3553307D01*
X1594173D01*
X1604173Y3543307D01*
X1594173Y3533307D01*
X1604173D01*
X1614173Y3523307D01*
Y3531307D02*
X1620173Y3537307D01*
X1626173D01*
X1620173Y3543307D01*
X1626173Y3549307D01*
X1620173D01*
X1614173Y3555307D01*
X1608173Y3549307D01*
X1602173D01*
X1608173Y3543307D01*
X1602173Y3537307D01*
X1608173D01*
X1614173Y3531307D01*
X1692913Y3365826D02*
X1702913Y3375826D01*
X1712913D01*
X1702913Y3385826D01*
X1712913Y3395826D01*
X1702913D01*
X1692913Y3405826D01*
X1682913Y3395826D01*
X1672913D01*
X1682913Y3385826D01*
X1672913Y3375826D01*
X1682913D01*
X1692913Y3365826D01*
Y3373826D02*
X1698913Y3379826D01*
X1704913D01*
X1698913Y3385826D01*
X1704913Y3391826D01*
X1698913D01*
X1692913Y3397826D01*
X1686913Y3391826D01*
X1680913D01*
X1686913Y3385826D01*
X1680913Y3379826D01*
X1686913D01*
X1692913Y3373826D01*
Y3050866D02*
X1702913Y3060866D01*
X1712913D01*
X1702913Y3070866D01*
X1712913Y3080866D01*
X1702913D01*
X1692913Y3090866D01*
X1682913Y3080866D01*
X1672913D01*
X1682913Y3070866D01*
X1672913Y3060866D01*
X1682913D01*
X1692913Y3050866D01*
Y3058866D02*
X1698913Y3064866D01*
X1704913D01*
X1698913Y3070866D01*
X1704913Y3076866D01*
X1698913D01*
X1692913Y3082866D01*
X1686913Y3076866D01*
X1680913D01*
X1686913Y3070866D01*
X1680913Y3064866D01*
X1686913D01*
X1692913Y3058866D01*
X1614173Y2263464D02*
X1624173Y2273464D01*
X1634173D01*
X1624173Y2283464D01*
X1634173Y2293464D01*
X1624173D01*
X1614173Y2303464D01*
X1604173Y2293464D01*
X1594173D01*
X1604173Y2283464D01*
X1594173Y2273464D01*
X1604173D01*
X1614173Y2263464D01*
Y2271464D02*
X1620173Y2277464D01*
X1626173D01*
X1620173Y2283464D01*
X1626173Y2289464D01*
X1620173D01*
X1614173Y2295464D01*
X1608173Y2289464D01*
X1602173D01*
X1608173Y2283464D01*
X1602173Y2277464D01*
X1608173D01*
X1614173Y2271464D01*
X1692913Y2105984D02*
X1702913Y2115984D01*
X1712913D01*
X1702913Y2125984D01*
X1712913Y2135984D01*
X1702913D01*
X1692913Y2145984D01*
X1682913Y2135984D01*
X1672913D01*
X1682913Y2125984D01*
X1672913Y2115984D01*
X1682913D01*
X1692913Y2105984D01*
Y2113984D02*
X1698913Y2119984D01*
X1704913D01*
X1698913Y2125984D01*
X1704913Y2131984D01*
X1698913D01*
X1692913Y2137984D01*
X1686913Y2131984D01*
X1680913D01*
X1686913Y2125984D01*
X1680913Y2119984D01*
X1686913D01*
X1692913Y2113984D01*
Y1476063D02*
X1702913Y1486063D01*
X1712913D01*
X1702913Y1496063D01*
X1712913Y1506063D01*
X1702913D01*
X1692913Y1516063D01*
X1682913Y1506063D01*
X1672913D01*
X1682913Y1496063D01*
X1672913Y1486063D01*
X1682913D01*
X1692913Y1476063D01*
Y1484063D02*
X1698913Y1490063D01*
X1704913D01*
X1698913Y1496063D01*
X1704913Y1502063D01*
X1698913D01*
X1692913Y1508063D01*
X1686913Y1502063D01*
X1680913D01*
X1686913Y1496063D01*
X1680913Y1490063D01*
X1686913D01*
X1692913Y1484063D01*
X1614173Y1003622D02*
X1624173Y1013622D01*
X1634173D01*
X1624173Y1023622D01*
X1634173Y1033622D01*
X1624173D01*
X1614173Y1043622D01*
X1604173Y1033622D01*
X1594173D01*
X1604173Y1023622D01*
X1594173Y1013622D01*
X1604173D01*
X1614173Y1003622D01*
Y1011622D02*
X1620173Y1017622D01*
X1626173D01*
X1620173Y1023622D01*
X1626173Y1029622D01*
X1620173D01*
X1614173Y1035622D01*
X1608173Y1029622D01*
X1602173D01*
X1608173Y1023622D01*
X1602173Y1017622D01*
X1608173D01*
X1614173Y1011622D01*
X1692913Y846141D02*
X1702913Y856141D01*
X1712913D01*
X1702913Y866141D01*
X1712913Y876141D01*
X1702913D01*
X1692913Y886141D01*
X1682913Y876141D01*
X1672913D01*
X1682913Y866141D01*
X1672913Y856141D01*
X1682913D01*
X1692913Y846141D01*
Y854141D02*
X1698913Y860141D01*
X1704913D01*
X1698913Y866141D01*
X1704913Y872141D01*
X1698913D01*
X1692913Y878141D01*
X1686913Y872141D01*
X1680913D01*
X1686913Y866141D01*
X1680913Y860141D01*
X1686913D01*
X1692913Y854141D01*
Y531181D02*
X1702913Y541181D01*
X1712913D01*
X1702913Y551181D01*
X1712913Y561181D01*
X1702913D01*
X1692913Y571181D01*
X1682913Y561181D01*
X1672913D01*
X1682913Y551181D01*
X1672913Y541181D01*
X1682913D01*
X1692913Y531181D01*
Y539181D02*
X1698913Y545181D01*
X1704913D01*
X1698913Y551181D01*
X1704913Y557181D01*
X1698913D01*
X1692913Y563181D01*
X1686913Y557181D01*
X1680913D01*
X1686913Y551181D01*
X1680913Y545181D01*
X1686913D01*
X1692913Y539181D01*
X1535433Y3365826D02*
X1545433Y3375826D01*
X1555433D01*
X1545433Y3385826D01*
X1555433Y3395826D01*
X1545433D01*
X1535433Y3405826D01*
X1525433Y3395826D01*
X1515433D01*
X1525433Y3385826D01*
X1515433Y3375826D01*
X1525433D01*
X1535433Y3365826D01*
Y3373826D02*
X1541433Y3379826D01*
X1547433D01*
X1541433Y3385826D01*
X1547433Y3391826D01*
X1541433D01*
X1535433Y3397826D01*
X1529433Y3391826D01*
X1523433D01*
X1529433Y3385826D01*
X1523433Y3379826D01*
X1529433D01*
X1535433Y3373826D01*
Y2420945D02*
X1545433Y2430945D01*
X1555433D01*
X1545433Y2440945D01*
X1555433Y2450945D01*
X1545433D01*
X1535433Y2460945D01*
X1525433Y2450945D01*
X1515433D01*
X1525433Y2440945D01*
X1515433Y2430945D01*
X1525433D01*
X1535433Y2420945D01*
Y2428945D02*
X1541433Y2434945D01*
X1547433D01*
X1541433Y2440945D01*
X1547433Y2446945D01*
X1541433D01*
X1535433Y2452945D01*
X1529433Y2446945D01*
X1523433D01*
X1529433Y2440945D01*
X1523433Y2434945D01*
X1529433D01*
X1535433Y2428945D01*
X1456693Y2263464D02*
X1466693Y2273464D01*
X1476693D01*
X1466693Y2283464D01*
X1476693Y2293464D01*
X1466693D01*
X1456693Y2303464D01*
X1446693Y2293464D01*
X1436693D01*
X1446693Y2283464D01*
X1436693Y2273464D01*
X1446693D01*
X1456693Y2263464D01*
Y2271464D02*
X1462693Y2277464D01*
X1468693D01*
X1462693Y2283464D01*
X1468693Y2289464D01*
X1462693D01*
X1456693Y2295464D01*
X1450693Y2289464D01*
X1444693D01*
X1450693Y2283464D01*
X1444693Y2277464D01*
X1450693D01*
X1456693Y2271464D01*
X1535433Y2105984D02*
X1545433Y2115984D01*
X1555433D01*
X1545433Y2125984D01*
X1555433Y2135984D01*
X1545433D01*
X1535433Y2145984D01*
X1525433Y2135984D01*
X1515433D01*
X1525433Y2125984D01*
X1515433Y2115984D01*
X1525433D01*
X1535433Y2105984D01*
Y2113984D02*
X1541433Y2119984D01*
X1547433D01*
X1541433Y2125984D01*
X1547433Y2131984D01*
X1541433D01*
X1535433Y2137984D01*
X1529433Y2131984D01*
X1523433D01*
X1529433Y2125984D01*
X1523433Y2119984D01*
X1529433D01*
X1535433Y2113984D01*
Y1791023D02*
X1545433Y1801023D01*
X1555433D01*
X1545433Y1811023D01*
X1555433Y1821023D01*
X1545433D01*
X1535433Y1831023D01*
X1525433Y1821023D01*
X1515433D01*
X1525433Y1811023D01*
X1515433Y1801023D01*
X1525433D01*
X1535433Y1791023D01*
Y1799023D02*
X1541433Y1805023D01*
X1547433D01*
X1541433Y1811023D01*
X1547433Y1817023D01*
X1541433D01*
X1535433Y1823023D01*
X1529433Y1817023D01*
X1523433D01*
X1529433Y1811023D01*
X1523433Y1805023D01*
X1529433D01*
X1535433Y1799023D01*
X1456693Y1633543D02*
X1466693Y1643543D01*
X1476693D01*
X1466693Y1653543D01*
X1476693Y1663543D01*
X1466693D01*
X1456693Y1673543D01*
X1446693Y1663543D01*
X1436693D01*
X1446693Y1653543D01*
X1436693Y1643543D01*
X1446693D01*
X1456693Y1633543D01*
Y1641543D02*
X1462693Y1647543D01*
X1468693D01*
X1462693Y1653543D01*
X1468693Y1659543D01*
X1462693D01*
X1456693Y1665543D01*
X1450693Y1659543D01*
X1444693D01*
X1450693Y1653543D01*
X1444693Y1647543D01*
X1450693D01*
X1456693Y1641543D01*
X1535433Y1476063D02*
X1545433Y1486063D01*
X1555433D01*
X1545433Y1496063D01*
X1555433Y1506063D01*
X1545433D01*
X1535433Y1516063D01*
X1525433Y1506063D01*
X1515433D01*
X1525433Y1496063D01*
X1515433Y1486063D01*
X1525433D01*
X1535433Y1476063D01*
Y1484063D02*
X1541433Y1490063D01*
X1547433D01*
X1541433Y1496063D01*
X1547433Y1502063D01*
X1541433D01*
X1535433Y1508063D01*
X1529433Y1502063D01*
X1523433D01*
X1529433Y1496063D01*
X1523433Y1490063D01*
X1529433D01*
X1535433Y1484063D01*
Y1161102D02*
X1545433Y1171102D01*
X1555433D01*
X1545433Y1181102D01*
X1555433Y1191102D01*
X1545433D01*
X1535433Y1201102D01*
X1525433Y1191102D01*
X1515433D01*
X1525433Y1181102D01*
X1515433Y1171102D01*
X1525433D01*
X1535433Y1161102D01*
Y1169102D02*
X1541433Y1175102D01*
X1547433D01*
X1541433Y1181102D01*
X1547433Y1187102D01*
X1541433D01*
X1535433Y1193102D01*
X1529433Y1187102D01*
X1523433D01*
X1529433Y1181102D01*
X1523433Y1175102D01*
X1529433D01*
X1535433Y1169102D01*
Y846141D02*
X1545433Y856141D01*
X1555433D01*
X1545433Y866141D01*
X1555433Y876141D01*
X1545433D01*
X1535433Y886141D01*
X1525433Y876141D01*
X1515433D01*
X1525433Y866141D01*
X1515433Y856141D01*
X1525433D01*
X1535433Y846141D01*
Y854141D02*
X1541433Y860141D01*
X1547433D01*
X1541433Y866141D01*
X1547433Y872141D01*
X1541433D01*
X1535433Y878141D01*
X1529433Y872141D01*
X1523433D01*
X1529433Y866141D01*
X1523433Y860141D01*
X1529433D01*
X1535433Y854141D01*
X1456693Y688661D02*
X1466693Y698661D01*
X1476693D01*
X1466693Y708661D01*
X1476693Y718661D01*
X1466693D01*
X1456693Y728661D01*
X1446693Y718661D01*
X1436693D01*
X1446693Y708661D01*
X1436693Y698661D01*
X1446693D01*
X1456693Y688661D01*
Y696661D02*
X1462693Y702661D01*
X1468693D01*
X1462693Y708661D01*
X1468693Y714661D01*
X1462693D01*
X1456693Y720661D01*
X1450693Y714661D01*
X1444693D01*
X1450693Y708661D01*
X1444693Y702661D01*
X1450693D01*
X1456693Y696661D01*
X1299212Y3208346D02*
X1309212Y3218346D01*
X1319212D01*
X1309212Y3228346D01*
X1319212Y3238346D01*
X1309212D01*
X1299212Y3248346D01*
X1289212Y3238346D01*
X1279212D01*
X1289212Y3228346D01*
X1279212Y3218346D01*
X1289212D01*
X1299212Y3208346D01*
Y3216346D02*
X1305212Y3222346D01*
X1311212D01*
X1305212Y3228346D01*
X1311212Y3234346D01*
X1305212D01*
X1299212Y3240346D01*
X1293212Y3234346D01*
X1287212D01*
X1293212Y3228346D01*
X1287212Y3222346D01*
X1293212D01*
X1299212Y3216346D01*
X1377952Y3050866D02*
X1387952Y3060866D01*
X1397952D01*
X1387952Y3070866D01*
X1397952Y3080866D01*
X1387952D01*
X1377952Y3090866D01*
X1367952Y3080866D01*
X1357952D01*
X1367952Y3070866D01*
X1357952Y3060866D01*
X1367952D01*
X1377952Y3050866D01*
Y3058866D02*
X1383952Y3064866D01*
X1389952D01*
X1383952Y3070866D01*
X1389952Y3076866D01*
X1383952D01*
X1377952Y3082866D01*
X1371952Y3076866D01*
X1365952D01*
X1371952Y3070866D01*
X1365952Y3064866D01*
X1371952D01*
X1377952Y3058866D01*
Y2420945D02*
X1387952Y2430945D01*
X1397952D01*
X1387952Y2440945D01*
X1397952Y2450945D01*
X1387952D01*
X1377952Y2460945D01*
X1367952Y2450945D01*
X1357952D01*
X1367952Y2440945D01*
X1357952Y2430945D01*
X1367952D01*
X1377952Y2420945D01*
Y2428945D02*
X1383952Y2434945D01*
X1389952D01*
X1383952Y2440945D01*
X1389952Y2446945D01*
X1383952D01*
X1377952Y2452945D01*
X1371952Y2446945D01*
X1365952D01*
X1371952Y2440945D01*
X1365952Y2434945D01*
X1371952D01*
X1377952Y2428945D01*
X1299212Y1948504D02*
X1309212Y1958504D01*
X1319212D01*
X1309212Y1968504D01*
X1319212Y1978504D01*
X1309212D01*
X1299212Y1988504D01*
X1289212Y1978504D01*
X1279212D01*
X1289212Y1968504D01*
X1279212Y1958504D01*
X1289212D01*
X1299212Y1948504D01*
Y1956504D02*
X1305212Y1962504D01*
X1311212D01*
X1305212Y1968504D01*
X1311212Y1974504D01*
X1305212D01*
X1299212Y1980504D01*
X1293212Y1974504D01*
X1287212D01*
X1293212Y1968504D01*
X1287212Y1962504D01*
X1293212D01*
X1299212Y1956504D01*
Y1003622D02*
X1309212Y1013622D01*
X1319212D01*
X1309212Y1023622D01*
X1319212Y1033622D01*
X1309212D01*
X1299212Y1043622D01*
X1289212Y1033622D01*
X1279212D01*
X1289212Y1023622D01*
X1279212Y1013622D01*
X1289212D01*
X1299212Y1003622D01*
Y1011622D02*
X1305212Y1017622D01*
X1311212D01*
X1305212Y1023622D01*
X1311212Y1029622D01*
X1305212D01*
X1299212Y1035622D01*
X1293212Y1029622D01*
X1287212D01*
X1293212Y1023622D01*
X1287212Y1017622D01*
X1293212D01*
X1299212Y1011622D01*
Y688661D02*
X1309212Y698661D01*
X1319212D01*
X1309212Y708661D01*
X1319212Y718661D01*
X1309212D01*
X1299212Y728661D01*
X1289212Y718661D01*
X1279212D01*
X1289212Y708661D01*
X1279212Y698661D01*
X1289212D01*
X1299212Y688661D01*
Y696661D02*
X1305212Y702661D01*
X1311212D01*
X1305212Y708661D01*
X1311212Y714661D01*
X1305212D01*
X1299212Y720661D01*
X1293212Y714661D01*
X1287212D01*
X1293212Y708661D01*
X1287212Y702661D01*
X1293212D01*
X1299212Y696661D01*
X1141732Y3523307D02*
X1151732Y3533307D01*
X1161732D01*
X1151732Y3543307D01*
X1161732Y3553307D01*
X1151732D01*
X1141732Y3563307D01*
X1131732Y3553307D01*
X1121732D01*
X1131732Y3543307D01*
X1121732Y3533307D01*
X1131732D01*
X1141732Y3523307D01*
Y3531307D02*
X1147732Y3537307D01*
X1153732D01*
X1147732Y3543307D01*
X1153732Y3549307D01*
X1147732D01*
X1141732Y3555307D01*
X1135732Y3549307D01*
X1129732D01*
X1135732Y3543307D01*
X1129732Y3537307D01*
X1135732D01*
X1141732Y3531307D01*
X1220472Y3365826D02*
X1230472Y3375826D01*
X1240472D01*
X1230472Y3385826D01*
X1240472Y3395826D01*
X1230472D01*
X1220472Y3405826D01*
X1210472Y3395826D01*
X1200472D01*
X1210472Y3385826D01*
X1200472Y3375826D01*
X1210472D01*
X1220472Y3365826D01*
Y3373826D02*
X1226472Y3379826D01*
X1232472D01*
X1226472Y3385826D01*
X1232472Y3391826D01*
X1226472D01*
X1220472Y3397826D01*
X1214472Y3391826D01*
X1208472D01*
X1214472Y3385826D01*
X1208472Y3379826D01*
X1214472D01*
X1220472Y3373826D01*
X1141732Y3208346D02*
X1151732Y3218346D01*
X1161732D01*
X1151732Y3228346D01*
X1161732Y3238346D01*
X1151732D01*
X1141732Y3248346D01*
X1131732Y3238346D01*
X1121732D01*
X1131732Y3228346D01*
X1121732Y3218346D01*
X1131732D01*
X1141732Y3208346D01*
Y3216346D02*
X1147732Y3222346D01*
X1153732D01*
X1147732Y3228346D01*
X1153732Y3234346D01*
X1147732D01*
X1141732Y3240346D01*
X1135732Y3234346D01*
X1129732D01*
X1135732Y3228346D01*
X1129732Y3222346D01*
X1135732D01*
X1141732Y3216346D01*
X1220472Y3050866D02*
X1230472Y3060866D01*
X1240472D01*
X1230472Y3070866D01*
X1240472Y3080866D01*
X1230472D01*
X1220472Y3090866D01*
X1210472Y3080866D01*
X1200472D01*
X1210472Y3070866D01*
X1200472Y3060866D01*
X1210472D01*
X1220472Y3050866D01*
Y3058866D02*
X1226472Y3064866D01*
X1232472D01*
X1226472Y3070866D01*
X1232472Y3076866D01*
X1226472D01*
X1220472Y3082866D01*
X1214472Y3076866D01*
X1208472D01*
X1214472Y3070866D01*
X1208472Y3064866D01*
X1214472D01*
X1220472Y3058866D01*
X1141732Y2578425D02*
X1151732Y2588425D01*
X1161732D01*
X1151732Y2598425D01*
X1161732Y2608425D01*
X1151732D01*
X1141732Y2618425D01*
X1131732Y2608425D01*
X1121732D01*
X1131732Y2598425D01*
X1121732Y2588425D01*
X1131732D01*
X1141732Y2578425D01*
Y2586425D02*
X1147732Y2592425D01*
X1153732D01*
X1147732Y2598425D01*
X1153732Y2604425D01*
X1147732D01*
X1141732Y2610425D01*
X1135732Y2604425D01*
X1129732D01*
X1135732Y2598425D01*
X1129732Y2592425D01*
X1135732D01*
X1141732Y2586425D01*
X1220472Y2420945D02*
X1230472Y2430945D01*
X1240472D01*
X1230472Y2440945D01*
X1240472Y2450945D01*
X1230472D01*
X1220472Y2460945D01*
X1210472Y2450945D01*
X1200472D01*
X1210472Y2440945D01*
X1200472Y2430945D01*
X1210472D01*
X1220472Y2420945D01*
Y2428945D02*
X1226472Y2434945D01*
X1232472D01*
X1226472Y2440945D01*
X1232472Y2446945D01*
X1226472D01*
X1220472Y2452945D01*
X1214472Y2446945D01*
X1208472D01*
X1214472Y2440945D01*
X1208472Y2434945D01*
X1214472D01*
X1220472Y2428945D01*
X1141732Y2263464D02*
X1151732Y2273464D01*
X1161732D01*
X1151732Y2283464D01*
X1161732Y2293464D01*
X1151732D01*
X1141732Y2303464D01*
X1131732Y2293464D01*
X1121732D01*
X1131732Y2283464D01*
X1121732Y2273464D01*
X1131732D01*
X1141732Y2263464D01*
Y2271464D02*
X1147732Y2277464D01*
X1153732D01*
X1147732Y2283464D01*
X1153732Y2289464D01*
X1147732D01*
X1141732Y2295464D01*
X1135732Y2289464D01*
X1129732D01*
X1135732Y2283464D01*
X1129732Y2277464D01*
X1135732D01*
X1141732Y2271464D01*
X1220472Y2105984D02*
X1230472Y2115984D01*
X1240472D01*
X1230472Y2125984D01*
X1240472Y2135984D01*
X1230472D01*
X1220472Y2145984D01*
X1210472Y2135984D01*
X1200472D01*
X1210472Y2125984D01*
X1200472Y2115984D01*
X1210472D01*
X1220472Y2105984D01*
Y2113984D02*
X1226472Y2119984D01*
X1232472D01*
X1226472Y2125984D01*
X1232472Y2131984D01*
X1226472D01*
X1220472Y2137984D01*
X1214472Y2131984D01*
X1208472D01*
X1214472Y2125984D01*
X1208472Y2119984D01*
X1214472D01*
X1220472Y2113984D01*
X1141732Y1948504D02*
X1151732Y1958504D01*
X1161732D01*
X1151732Y1968504D01*
X1161732Y1978504D01*
X1151732D01*
X1141732Y1988504D01*
X1131732Y1978504D01*
X1121732D01*
X1131732Y1968504D01*
X1121732Y1958504D01*
X1131732D01*
X1141732Y1948504D01*
Y1956504D02*
X1147732Y1962504D01*
X1153732D01*
X1147732Y1968504D01*
X1153732Y1974504D01*
X1147732D01*
X1141732Y1980504D01*
X1135732Y1974504D01*
X1129732D01*
X1135732Y1968504D01*
X1129732Y1962504D01*
X1135732D01*
X1141732Y1956504D01*
X1220472Y1476063D02*
X1230472Y1486063D01*
X1240472D01*
X1230472Y1496063D01*
X1240472Y1506063D01*
X1230472D01*
X1220472Y1516063D01*
X1210472Y1506063D01*
X1200472D01*
X1210472Y1496063D01*
X1200472Y1486063D01*
X1210472D01*
X1220472Y1476063D01*
Y1484063D02*
X1226472Y1490063D01*
X1232472D01*
X1226472Y1496063D01*
X1232472Y1502063D01*
X1226472D01*
X1220472Y1508063D01*
X1214472Y1502063D01*
X1208472D01*
X1214472Y1496063D01*
X1208472Y1490063D01*
X1214472D01*
X1220472Y1484063D01*
X1141732Y1003622D02*
X1151732Y1013622D01*
X1161732D01*
X1151732Y1023622D01*
X1161732Y1033622D01*
X1151732D01*
X1141732Y1043622D01*
X1131732Y1033622D01*
X1121732D01*
X1131732Y1023622D01*
X1121732Y1013622D01*
X1131732D01*
X1141732Y1003622D01*
Y1011622D02*
X1147732Y1017622D01*
X1153732D01*
X1147732Y1023622D01*
X1153732Y1029622D01*
X1147732D01*
X1141732Y1035622D01*
X1135732Y1029622D01*
X1129732D01*
X1135732Y1023622D01*
X1129732Y1017622D01*
X1135732D01*
X1141732Y1011622D01*
X1220472Y846141D02*
X1230472Y856141D01*
X1240472D01*
X1230472Y866141D01*
X1240472Y876141D01*
X1230472D01*
X1220472Y886141D01*
X1210472Y876141D01*
X1200472D01*
X1210472Y866141D01*
X1200472Y856141D01*
X1210472D01*
X1220472Y846141D01*
Y854141D02*
X1226472Y860141D01*
X1232472D01*
X1226472Y866141D01*
X1232472Y872141D01*
X1226472D01*
X1220472Y878141D01*
X1214472Y872141D01*
X1208472D01*
X1214472Y866141D01*
X1208472Y860141D01*
X1214472D01*
X1220472Y854141D01*
X1141732Y58740D02*
X1151732Y68740D01*
X1161732D01*
X1151732Y78740D01*
X1161732Y88740D01*
X1151732D01*
X1141732Y98740D01*
X1131732Y88740D01*
X1121732D01*
X1131732Y78740D01*
X1121732Y68740D01*
X1131732D01*
X1141732Y58740D01*
Y66740D02*
X1147732Y72740D01*
X1153732D01*
X1147732Y78740D01*
X1153732Y84740D01*
X1147732D01*
X1141732Y90740D01*
X1135732Y84740D01*
X1129732D01*
X1135732Y78740D01*
X1129732Y72740D01*
X1135732D01*
X1141732Y66740D01*
X984252Y2578425D02*
X994252Y2588425D01*
X1004252D01*
X994252Y2598425D01*
X1004252Y2608425D01*
X994252D01*
X984252Y2618425D01*
X974252Y2608425D01*
X964252D01*
X974252Y2598425D01*
X964252Y2588425D01*
X974252D01*
X984252Y2578425D01*
Y2586425D02*
X990252Y2592425D01*
X996252D01*
X990252Y2598425D01*
X996252Y2604425D01*
X990252D01*
X984252Y2610425D01*
X978252Y2604425D01*
X972252D01*
X978252Y2598425D01*
X972252Y2592425D01*
X978252D01*
X984252Y2586425D01*
Y2263464D02*
X994252Y2273464D01*
X1004252D01*
X994252Y2283464D01*
X1004252Y2293464D01*
X994252D01*
X984252Y2303464D01*
X974252Y2293464D01*
X964252D01*
X974252Y2283464D01*
X964252Y2273464D01*
X974252D01*
X984252Y2263464D01*
Y2271464D02*
X990252Y2277464D01*
X996252D01*
X990252Y2283464D01*
X996252Y2289464D01*
X990252D01*
X984252Y2295464D01*
X978252Y2289464D01*
X972252D01*
X978252Y2283464D01*
X972252Y2277464D01*
X978252D01*
X984252Y2271464D01*
Y1948504D02*
X994252Y1958504D01*
X1004252D01*
X994252Y1968504D01*
X1004252Y1978504D01*
X994252D01*
X984252Y1988504D01*
X974252Y1978504D01*
X964252D01*
X974252Y1968504D01*
X964252Y1958504D01*
X974252D01*
X984252Y1948504D01*
Y1956504D02*
X990252Y1962504D01*
X996252D01*
X990252Y1968504D01*
X996252Y1974504D01*
X990252D01*
X984252Y1980504D01*
X978252Y1974504D01*
X972252D01*
X978252Y1968504D01*
X972252Y1962504D01*
X978252D01*
X984252Y1956504D01*
X1062992Y1791023D02*
X1072992Y1801023D01*
X1082992D01*
X1072992Y1811023D01*
X1082992Y1821023D01*
X1072992D01*
X1062992Y1831023D01*
X1052992Y1821023D01*
X1042992D01*
X1052992Y1811023D01*
X1042992Y1801023D01*
X1052992D01*
X1062992Y1791023D01*
Y1799023D02*
X1068992Y1805023D01*
X1074992D01*
X1068992Y1811023D01*
X1074992Y1817023D01*
X1068992D01*
X1062992Y1823023D01*
X1056992Y1817023D01*
X1050992D01*
X1056992Y1811023D01*
X1050992Y1805023D01*
X1056992D01*
X1062992Y1799023D01*
Y1161102D02*
X1072992Y1171102D01*
X1082992D01*
X1072992Y1181102D01*
X1082992Y1191102D01*
X1072992D01*
X1062992Y1201102D01*
X1052992Y1191102D01*
X1042992D01*
X1052992Y1181102D01*
X1042992Y1171102D01*
X1052992D01*
X1062992Y1161102D01*
Y1169102D02*
X1068992Y1175102D01*
X1074992D01*
X1068992Y1181102D01*
X1074992Y1187102D01*
X1068992D01*
X1062992Y1193102D01*
X1056992Y1187102D01*
X1050992D01*
X1056992Y1181102D01*
X1050992Y1175102D01*
X1056992D01*
X1062992Y1169102D01*
X984252Y1003622D02*
X994252Y1013622D01*
X1004252D01*
X994252Y1023622D01*
X1004252Y1033622D01*
X994252D01*
X984252Y1043622D01*
X974252Y1033622D01*
X964252D01*
X974252Y1023622D01*
X964252Y1013622D01*
X974252D01*
X984252Y1003622D01*
Y1011622D02*
X990252Y1017622D01*
X996252D01*
X990252Y1023622D01*
X996252Y1029622D01*
X990252D01*
X984252Y1035622D01*
X978252Y1029622D01*
X972252D01*
X978252Y1023622D01*
X972252Y1017622D01*
X978252D01*
X984252Y1011622D01*
Y688661D02*
X994252Y698661D01*
X1004252D01*
X994252Y708661D01*
X1004252Y718661D01*
X994252D01*
X984252Y728661D01*
X974252Y718661D01*
X964252D01*
X974252Y708661D01*
X964252Y698661D01*
X974252D01*
X984252Y688661D01*
Y696661D02*
X990252Y702661D01*
X996252D01*
X990252Y708661D01*
X996252Y714661D01*
X990252D01*
X984252Y720661D01*
X978252Y714661D01*
X972252D01*
X978252Y708661D01*
X972252Y702661D01*
X978252D01*
X984252Y696661D01*
Y373701D02*
X994252Y383701D01*
X1004252D01*
X994252Y393701D01*
X1004252Y403701D01*
X994252D01*
X984252Y413701D01*
X974252Y403701D01*
X964252D01*
X974252Y393701D01*
X964252Y383701D01*
X974252D01*
X984252Y373701D01*
Y381701D02*
X990252Y387701D01*
X996252D01*
X990252Y393701D01*
X996252Y399701D01*
X990252D01*
X984252Y405701D01*
X978252Y399701D01*
X972252D01*
X978252Y393701D01*
X972252Y387701D01*
X978252D01*
X984252Y381701D01*
Y58740D02*
X994252Y68740D01*
X1004252D01*
X994252Y78740D01*
X1004252Y88740D01*
X994252D01*
X984252Y98740D01*
X974252Y88740D01*
X964252D01*
X974252Y78740D01*
X964252Y68740D01*
X974252D01*
X984252Y58740D01*
Y66740D02*
X990252Y72740D01*
X996252D01*
X990252Y78740D01*
X996252Y84740D01*
X990252D01*
X984252Y90740D01*
X978252Y84740D01*
X972252D01*
X978252Y78740D01*
X972252Y72740D01*
X978252D01*
X984252Y66740D01*
X826771Y2893385D02*
X836771Y2903385D01*
X846771D01*
X836771Y2913385D01*
X846771Y2923385D01*
X836771D01*
X826771Y2933385D01*
X816771Y2923385D01*
X806771D01*
X816771Y2913385D01*
X806771Y2903385D01*
X816771D01*
X826771Y2893385D01*
Y2901385D02*
X832771Y2907385D01*
X838771D01*
X832771Y2913385D01*
X838771Y2919385D01*
X832771D01*
X826771Y2925385D01*
X820771Y2919385D01*
X814771D01*
X820771Y2913385D01*
X814771Y2907385D01*
X820771D01*
X826771Y2901385D01*
Y2578425D02*
X836771Y2588425D01*
X846771D01*
X836771Y2598425D01*
X846771Y2608425D01*
X836771D01*
X826771Y2618425D01*
X816771Y2608425D01*
X806771D01*
X816771Y2598425D01*
X806771Y2588425D01*
X816771D01*
X826771Y2578425D01*
Y2586425D02*
X832771Y2592425D01*
X838771D01*
X832771Y2598425D01*
X838771Y2604425D01*
X832771D01*
X826771Y2610425D01*
X820771Y2604425D01*
X814771D01*
X820771Y2598425D01*
X814771Y2592425D01*
X820771D01*
X826771Y2586425D01*
Y2263464D02*
X836771Y2273464D01*
X846771D01*
X836771Y2283464D01*
X846771Y2293464D01*
X836771D01*
X826771Y2303464D01*
X816771Y2293464D01*
X806771D01*
X816771Y2283464D01*
X806771Y2273464D01*
X816771D01*
X826771Y2263464D01*
Y2271464D02*
X832771Y2277464D01*
X838771D01*
X832771Y2283464D01*
X838771Y2289464D01*
X832771D01*
X826771Y2295464D01*
X820771Y2289464D01*
X814771D01*
X820771Y2283464D01*
X814771Y2277464D01*
X820771D01*
X826771Y2271464D01*
Y1633543D02*
X836771Y1643543D01*
X846771D01*
X836771Y1653543D01*
X846771Y1663543D01*
X836771D01*
X826771Y1673543D01*
X816771Y1663543D01*
X806771D01*
X816771Y1653543D01*
X806771Y1643543D01*
X816771D01*
X826771Y1633543D01*
Y1641543D02*
X832771Y1647543D01*
X838771D01*
X832771Y1653543D01*
X838771Y1659543D01*
X832771D01*
X826771Y1665543D01*
X820771Y1659543D01*
X814771D01*
X820771Y1653543D01*
X814771Y1647543D01*
X820771D01*
X826771Y1641543D01*
Y1318582D02*
X836771Y1328582D01*
X846771D01*
X836771Y1338582D01*
X846771Y1348582D01*
X836771D01*
X826771Y1358582D01*
X816771Y1348582D01*
X806771D01*
X816771Y1338582D01*
X806771Y1328582D01*
X816771D01*
X826771Y1318582D01*
Y1326582D02*
X832771Y1332582D01*
X838771D01*
X832771Y1338582D01*
X838771Y1344582D01*
X832771D01*
X826771Y1350582D01*
X820771Y1344582D01*
X814771D01*
X820771Y1338582D01*
X814771Y1332582D01*
X820771D01*
X826771Y1326582D01*
Y373701D02*
X836771Y383701D01*
X846771D01*
X836771Y393701D01*
X846771Y403701D01*
X836771D01*
X826771Y413701D01*
X816771Y403701D01*
X806771D01*
X816771Y393701D01*
X806771Y383701D01*
X816771D01*
X826771Y373701D01*
Y381701D02*
X832771Y387701D01*
X838771D01*
X832771Y393701D01*
X838771Y399701D01*
X832771D01*
X826771Y405701D01*
X820771Y399701D01*
X814771D01*
X820771Y393701D01*
X814771Y387701D01*
X820771D01*
X826771Y381701D01*
Y58740D02*
X836771Y68740D01*
X846771D01*
X836771Y78740D01*
X846771Y88740D01*
X836771D01*
X826771Y98740D01*
X816771Y88740D01*
X806771D01*
X816771Y78740D01*
X806771Y68740D01*
X816771D01*
X826771Y58740D01*
Y66740D02*
X832771Y72740D01*
X838771D01*
X832771Y78740D01*
X838771Y84740D01*
X832771D01*
X826771Y90740D01*
X820771Y84740D01*
X814771D01*
X820771Y78740D01*
X814771Y72740D01*
X820771D01*
X826771Y66740D01*
X748031Y3050866D02*
X758031Y3060866D01*
X768031D01*
X758031Y3070866D01*
X768031Y3080866D01*
X758031D01*
X748031Y3090866D01*
X738031Y3080866D01*
X728031D01*
X738031Y3070866D01*
X728031Y3060866D01*
X738031D01*
X748031Y3050866D01*
Y3058866D02*
X754031Y3064866D01*
X760031D01*
X754031Y3070866D01*
X760031Y3076866D01*
X754031D01*
X748031Y3082866D01*
X742031Y3076866D01*
X736031D01*
X742031Y3070866D01*
X736031Y3064866D01*
X742031D01*
X748031Y3058866D01*
X669291Y1948504D02*
X679291Y1958504D01*
X689291D01*
X679291Y1968504D01*
X689291Y1978504D01*
X679291D01*
X669291Y1988504D01*
X659291Y1978504D01*
X649291D01*
X659291Y1968504D01*
X649291Y1958504D01*
X659291D01*
X669291Y1948504D01*
Y1956504D02*
X675291Y1962504D01*
X681291D01*
X675291Y1968504D01*
X681291Y1974504D01*
X675291D01*
X669291Y1980504D01*
X663291Y1974504D01*
X657291D01*
X663291Y1968504D01*
X657291Y1962504D01*
X663291D01*
X669291Y1956504D01*
Y58740D02*
X679291Y68740D01*
X689291D01*
X679291Y78740D01*
X689291Y88740D01*
X679291D01*
X669291Y98740D01*
X659291Y88740D01*
X649291D01*
X659291Y78740D01*
X649291Y68740D01*
X659291D01*
X669291Y58740D01*
Y66740D02*
X675291Y72740D01*
X681291D01*
X675291Y78740D01*
X681291Y84740D01*
X675291D01*
X669291Y90740D01*
X663291Y84740D01*
X657291D01*
X663291Y78740D01*
X657291Y72740D01*
X663291D01*
X669291Y66740D01*
X590551Y3050866D02*
X600551Y3060866D01*
X610551D01*
X600551Y3070866D01*
X610551Y3080866D01*
X600551D01*
X590551Y3090866D01*
X580551Y3080866D01*
X570551D01*
X580551Y3070866D01*
X570551Y3060866D01*
X580551D01*
X590551Y3050866D01*
Y3058866D02*
X596551Y3064866D01*
X602551D01*
X596551Y3070866D01*
X602551Y3076866D01*
X596551D01*
X590551Y3082866D01*
X584551Y3076866D01*
X578551D01*
X584551Y3070866D01*
X578551Y3064866D01*
X584551D01*
X590551Y3058866D01*
X511811Y2578425D02*
X521811Y2588425D01*
X531811D01*
X521811Y2598425D01*
X531811Y2608425D01*
X521811D01*
X511811Y2618425D01*
X501811Y2608425D01*
X491811D01*
X501811Y2598425D01*
X491811Y2588425D01*
X501811D01*
X511811Y2578425D01*
Y2586425D02*
X517811Y2592425D01*
X523811D01*
X517811Y2598425D01*
X523811Y2604425D01*
X517811D01*
X511811Y2610425D01*
X505811Y2604425D01*
X499811D01*
X505811Y2598425D01*
X499811Y2592425D01*
X505811D01*
X511811Y2586425D01*
Y2263464D02*
X521811Y2273464D01*
X531811D01*
X521811Y2283464D01*
X531811Y2293464D01*
X521811D01*
X511811Y2303464D01*
X501811Y2293464D01*
X491811D01*
X501811Y2283464D01*
X491811Y2273464D01*
X501811D01*
X511811Y2263464D01*
Y2271464D02*
X517811Y2277464D01*
X523811D01*
X517811Y2283464D01*
X523811Y2289464D01*
X517811D01*
X511811Y2295464D01*
X505811Y2289464D01*
X499811D01*
X505811Y2283464D01*
X499811Y2277464D01*
X505811D01*
X511811Y2271464D01*
X590551Y1161102D02*
X600551Y1171102D01*
X610551D01*
X600551Y1181102D01*
X610551Y1191102D01*
X600551D01*
X590551Y1201102D01*
X580551Y1191102D01*
X570551D01*
X580551Y1181102D01*
X570551Y1171102D01*
X580551D01*
X590551Y1161102D01*
Y1169102D02*
X596551Y1175102D01*
X602551D01*
X596551Y1181102D01*
X602551Y1187102D01*
X596551D01*
X590551Y1193102D01*
X584551Y1187102D01*
X578551D01*
X584551Y1181102D01*
X578551Y1175102D01*
X584551D01*
X590551Y1169102D01*
Y846141D02*
X600551Y856141D01*
X610551D01*
X600551Y866141D01*
X610551Y876141D01*
X600551D01*
X590551Y886141D01*
X580551Y876141D01*
X570551D01*
X580551Y866141D01*
X570551Y856141D01*
X580551D01*
X590551Y846141D01*
Y854141D02*
X596551Y860141D01*
X602551D01*
X596551Y866141D01*
X602551Y872141D01*
X596551D01*
X590551Y878141D01*
X584551Y872141D01*
X578551D01*
X584551Y866141D01*
X578551Y860141D01*
X584551D01*
X590551Y854141D01*
X511811Y688661D02*
X521811Y698661D01*
X531811D01*
X521811Y708661D01*
X531811Y718661D01*
X521811D01*
X511811Y728661D01*
X501811Y718661D01*
X491811D01*
X501811Y708661D01*
X491811Y698661D01*
X501811D01*
X511811Y688661D01*
Y696661D02*
X517811Y702661D01*
X523811D01*
X517811Y708661D01*
X523811Y714661D01*
X517811D01*
X511811Y720661D01*
X505811Y714661D01*
X499811D01*
X505811Y708661D01*
X499811Y702661D01*
X505811D01*
X511811Y696661D01*
X590551Y531181D02*
X600551Y541181D01*
X610551D01*
X600551Y551181D01*
X610551Y561181D01*
X600551D01*
X590551Y571181D01*
X580551Y561181D01*
X570551D01*
X580551Y551181D01*
X570551Y541181D01*
X580551D01*
X590551Y531181D01*
Y539181D02*
X596551Y545181D01*
X602551D01*
X596551Y551181D01*
X602551Y557181D01*
X596551D01*
X590551Y563181D01*
X584551Y557181D01*
X578551D01*
X584551Y551181D01*
X578551Y545181D01*
X584551D01*
X590551Y539181D01*
X511811Y373701D02*
X521811Y383701D01*
X531811D01*
X521811Y393701D01*
X531811Y403701D01*
X521811D01*
X511811Y413701D01*
X501811Y403701D01*
X491811D01*
X501811Y393701D01*
X491811Y383701D01*
X501811D01*
X511811Y373701D01*
Y381701D02*
X517811Y387701D01*
X523811D01*
X517811Y393701D01*
X523811Y399701D01*
X517811D01*
X511811Y405701D01*
X505811Y399701D01*
X499811D01*
X505811Y393701D01*
X499811Y387701D01*
X505811D01*
X511811Y381701D01*
Y58740D02*
X521811Y68740D01*
X531811D01*
X521811Y78740D01*
X531811Y88740D01*
X521811D01*
X511811Y98740D01*
X501811Y88740D01*
X491811D01*
X501811Y78740D01*
X491811Y68740D01*
X501811D01*
X511811Y58740D01*
Y66740D02*
X517811Y72740D01*
X523811D01*
X517811Y78740D01*
X523811Y84740D01*
X517811D01*
X511811Y90740D01*
X505811Y84740D01*
X499811D01*
X505811Y78740D01*
X499811Y72740D01*
X505811D01*
X511811Y66740D01*
X354330Y3523307D02*
X364330Y3533307D01*
X374330D01*
X364330Y3543307D01*
X374330Y3553307D01*
X364330D01*
X354330Y3563307D01*
X344330Y3553307D01*
X334330D01*
X344330Y3543307D01*
X334330Y3533307D01*
X344330D01*
X354330Y3523307D01*
Y3531307D02*
X360330Y3537307D01*
X366330D01*
X360330Y3543307D01*
X366330Y3549307D01*
X360330D01*
X354330Y3555307D01*
X348330Y3549307D01*
X342330D01*
X348330Y3543307D01*
X342330Y3537307D01*
X348330D01*
X354330Y3531307D01*
X433071Y3365826D02*
X443071Y3375826D01*
X453071D01*
X443071Y3385826D01*
X453071Y3395826D01*
X443071D01*
X433071Y3405826D01*
X423071Y3395826D01*
X413071D01*
X423071Y3385826D01*
X413071Y3375826D01*
X423071D01*
X433071Y3365826D01*
Y3373826D02*
X439071Y3379826D01*
X445071D01*
X439071Y3385826D01*
X445071Y3391826D01*
X439071D01*
X433071Y3397826D01*
X427071Y3391826D01*
X421071D01*
X427071Y3385826D01*
X421071Y3379826D01*
X427071D01*
X433071Y3373826D01*
Y2420945D02*
X443071Y2430945D01*
X453071D01*
X443071Y2440945D01*
X453071Y2450945D01*
X443071D01*
X433071Y2460945D01*
X423071Y2450945D01*
X413071D01*
X423071Y2440945D01*
X413071Y2430945D01*
X423071D01*
X433071Y2420945D01*
Y2428945D02*
X439071Y2434945D01*
X445071D01*
X439071Y2440945D01*
X445071Y2446945D01*
X439071D01*
X433071Y2452945D01*
X427071Y2446945D01*
X421071D01*
X427071Y2440945D01*
X421071Y2434945D01*
X427071D01*
X433071Y2428945D01*
X354330Y2263464D02*
X364330Y2273464D01*
X374330D01*
X364330Y2283464D01*
X374330Y2293464D01*
X364330D01*
X354330Y2303464D01*
X344330Y2293464D01*
X334330D01*
X344330Y2283464D01*
X334330Y2273464D01*
X344330D01*
X354330Y2263464D01*
Y2271464D02*
X360330Y2277464D01*
X366330D01*
X360330Y2283464D01*
X366330Y2289464D01*
X360330D01*
X354330Y2295464D01*
X348330Y2289464D01*
X342330D01*
X348330Y2283464D01*
X342330Y2277464D01*
X348330D01*
X354330Y2271464D01*
X433071Y2105984D02*
X443071Y2115984D01*
X453071D01*
X443071Y2125984D01*
X453071Y2135984D01*
X443071D01*
X433071Y2145984D01*
X423071Y2135984D01*
X413071D01*
X423071Y2125984D01*
X413071Y2115984D01*
X423071D01*
X433071Y2105984D01*
Y2113984D02*
X439071Y2119984D01*
X445071D01*
X439071Y2125984D01*
X445071Y2131984D01*
X439071D01*
X433071Y2137984D01*
X427071Y2131984D01*
X421071D01*
X427071Y2125984D01*
X421071Y2119984D01*
X427071D01*
X433071Y2113984D01*
Y1476063D02*
X443071Y1486063D01*
X453071D01*
X443071Y1496063D01*
X453071Y1506063D01*
X443071D01*
X433071Y1516063D01*
X423071Y1506063D01*
X413071D01*
X423071Y1496063D01*
X413071Y1486063D01*
X423071D01*
X433071Y1476063D01*
Y1484063D02*
X439071Y1490063D01*
X445071D01*
X439071Y1496063D01*
X445071Y1502063D01*
X439071D01*
X433071Y1508063D01*
X427071Y1502063D01*
X421071D01*
X427071Y1496063D01*
X421071Y1490063D01*
X427071D01*
X433071Y1484063D01*
Y1161102D02*
X443071Y1171102D01*
X453071D01*
X443071Y1181102D01*
X453071Y1191102D01*
X443071D01*
X433071Y1201102D01*
X423071Y1191102D01*
X413071D01*
X423071Y1181102D01*
X413071Y1171102D01*
X423071D01*
X433071Y1161102D01*
Y1169102D02*
X439071Y1175102D01*
X445071D01*
X439071Y1181102D01*
X445071Y1187102D01*
X439071D01*
X433071Y1193102D01*
X427071Y1187102D01*
X421071D01*
X427071Y1181102D01*
X421071Y1175102D01*
X427071D01*
X433071Y1169102D01*
X354330Y1003622D02*
X364330Y1013622D01*
X374330D01*
X364330Y1023622D01*
X374330Y1033622D01*
X364330D01*
X354330Y1043622D01*
X344330Y1033622D01*
X334330D01*
X344330Y1023622D01*
X334330Y1013622D01*
X344330D01*
X354330Y1003622D01*
Y1011622D02*
X360330Y1017622D01*
X366330D01*
X360330Y1023622D01*
X366330Y1029622D01*
X360330D01*
X354330Y1035622D01*
X348330Y1029622D01*
X342330D01*
X348330Y1023622D01*
X342330Y1017622D01*
X348330D01*
X354330Y1011622D01*
X433071Y846141D02*
X443071Y856141D01*
X453071D01*
X443071Y866141D01*
X453071Y876141D01*
X443071D01*
X433071Y886141D01*
X423071Y876141D01*
X413071D01*
X423071Y866141D01*
X413071Y856141D01*
X423071D01*
X433071Y846141D01*
Y854141D02*
X439071Y860141D01*
X445071D01*
X439071Y866141D01*
X445071Y872141D01*
X439071D01*
X433071Y878141D01*
X427071Y872141D01*
X421071D01*
X427071Y866141D01*
X421071Y860141D01*
X427071D01*
X433071Y854141D01*
Y531181D02*
X443071Y541181D01*
X453071D01*
X443071Y551181D01*
X453071Y561181D01*
X443071D01*
X433071Y571181D01*
X423071Y561181D01*
X413071D01*
X423071Y551181D01*
X413071Y541181D01*
X423071D01*
X433071Y531181D01*
Y539181D02*
X439071Y545181D01*
X445071D01*
X439071Y551181D01*
X445071Y557181D01*
X439071D01*
X433071Y563181D01*
X427071Y557181D01*
X421071D01*
X427071Y551181D01*
X421071Y545181D01*
X427071D01*
X433071Y539181D01*
Y216220D02*
X443071Y226220D01*
X453071D01*
X443071Y236220D01*
X453071Y246220D01*
X443071D01*
X433071Y256220D01*
X423071Y246220D01*
X413071D01*
X423071Y236220D01*
X413071Y226220D01*
X423071D01*
X433071Y216220D01*
Y224220D02*
X439071Y230220D01*
X445071D01*
X439071Y236220D01*
X445071Y242220D01*
X439071D01*
X433071Y248220D01*
X427071Y242220D01*
X421071D01*
X427071Y236220D01*
X421071Y230220D01*
X427071D01*
X433071Y224220D01*
X354330Y58740D02*
X364330Y68740D01*
X374330D01*
X364330Y78740D01*
X374330Y88740D01*
X364330D01*
X354330Y98740D01*
X344330Y88740D01*
X334330D01*
X344330Y78740D01*
X334330Y68740D01*
X344330D01*
X354330Y58740D01*
Y66740D02*
X360330Y72740D01*
X366330D01*
X360330Y78740D01*
X366330Y84740D01*
X360330D01*
X354330Y90740D01*
X348330Y84740D01*
X342330D01*
X348330Y78740D01*
X342330Y72740D01*
X348330D01*
X354330Y66740D01*
X196850Y3523307D02*
X206850Y3533307D01*
X216850D01*
X206850Y3543307D01*
X216850Y3553307D01*
X206850D01*
X196850Y3563307D01*
X186850Y3553307D01*
X176850D01*
X186850Y3543307D01*
X176850Y3533307D01*
X186850D01*
X196850Y3523307D01*
Y3531307D02*
X202850Y3537307D01*
X208850D01*
X202850Y3543307D01*
X208850Y3549307D01*
X202850D01*
X196850Y3555307D01*
X190850Y3549307D01*
X184850D01*
X190850Y3543307D01*
X184850Y3537307D01*
X190850D01*
X196850Y3531307D01*
X275590Y3365826D02*
X285590Y3375826D01*
X295590D01*
X285590Y3385826D01*
X295590Y3395826D01*
X285590D01*
X275590Y3405826D01*
X265590Y3395826D01*
X255590D01*
X265590Y3385826D01*
X255590Y3375826D01*
X265590D01*
X275590Y3365826D01*
Y3373826D02*
X281590Y3379826D01*
X287590D01*
X281590Y3385826D01*
X287590Y3391826D01*
X281590D01*
X275590Y3397826D01*
X269590Y3391826D01*
X263590D01*
X269590Y3385826D01*
X263590Y3379826D01*
X269590D01*
X275590Y3373826D01*
Y2420945D02*
X285590Y2430945D01*
X295590D01*
X285590Y2440945D01*
X295590Y2450945D01*
X285590D01*
X275590Y2460945D01*
X265590Y2450945D01*
X255590D01*
X265590Y2440945D01*
X255590Y2430945D01*
X265590D01*
X275590Y2420945D01*
Y2428945D02*
X281590Y2434945D01*
X287590D01*
X281590Y2440945D01*
X287590Y2446945D01*
X281590D01*
X275590Y2452945D01*
X269590Y2446945D01*
X263590D01*
X269590Y2440945D01*
X263590Y2434945D01*
X269590D01*
X275590Y2428945D01*
X196850Y1948504D02*
X206850Y1958504D01*
X216850D01*
X206850Y1968504D01*
X216850Y1978504D01*
X206850D01*
X196850Y1988504D01*
X186850Y1978504D01*
X176850D01*
X186850Y1968504D01*
X176850Y1958504D01*
X186850D01*
X196850Y1948504D01*
Y1956504D02*
X202850Y1962504D01*
X208850D01*
X202850Y1968504D01*
X208850Y1974504D01*
X202850D01*
X196850Y1980504D01*
X190850Y1974504D01*
X184850D01*
X190850Y1968504D01*
X184850Y1962504D01*
X190850D01*
X196850Y1956504D01*
Y1318582D02*
X206850Y1328582D01*
X216850D01*
X206850Y1338582D01*
X216850Y1348582D01*
X206850D01*
X196850Y1358582D01*
X186850Y1348582D01*
X176850D01*
X186850Y1338582D01*
X176850Y1328582D01*
X186850D01*
X196850Y1318582D01*
Y1326582D02*
X202850Y1332582D01*
X208850D01*
X202850Y1338582D01*
X208850Y1344582D01*
X202850D01*
X196850Y1350582D01*
X190850Y1344582D01*
X184850D01*
X190850Y1338582D01*
X184850Y1332582D01*
X190850D01*
X196850Y1326582D01*
X275590Y1161102D02*
X285590Y1171102D01*
X295590D01*
X285590Y1181102D01*
X295590Y1191102D01*
X285590D01*
X275590Y1201102D01*
X265590Y1191102D01*
X255590D01*
X265590Y1181102D01*
X255590Y1171102D01*
X265590D01*
X275590Y1161102D01*
Y1169102D02*
X281590Y1175102D01*
X287590D01*
X281590Y1181102D01*
X287590Y1187102D01*
X281590D01*
X275590Y1193102D01*
X269590Y1187102D01*
X263590D01*
X269590Y1181102D01*
X263590Y1175102D01*
X269590D01*
X275590Y1169102D01*
X196850Y1003622D02*
X206850Y1013622D01*
X216850D01*
X206850Y1023622D01*
X216850Y1033622D01*
X206850D01*
X196850Y1043622D01*
X186850Y1033622D01*
X176850D01*
X186850Y1023622D01*
X176850Y1013622D01*
X186850D01*
X196850Y1003622D01*
Y1011622D02*
X202850Y1017622D01*
X208850D01*
X202850Y1023622D01*
X208850Y1029622D01*
X202850D01*
X196850Y1035622D01*
X190850Y1029622D01*
X184850D01*
X190850Y1023622D01*
X184850Y1017622D01*
X190850D01*
X196850Y1011622D01*
X275590Y846141D02*
X285590Y856141D01*
X295590D01*
X285590Y866141D01*
X295590Y876141D01*
X285590D01*
X275590Y886141D01*
X265590Y876141D01*
X255590D01*
X265590Y866141D01*
X255590Y856141D01*
X265590D01*
X275590Y846141D01*
Y854141D02*
X281590Y860141D01*
X287590D01*
X281590Y866141D01*
X287590Y872141D01*
X281590D01*
X275590Y878141D01*
X269590Y872141D01*
X263590D01*
X269590Y866141D01*
X263590Y860141D01*
X269590D01*
X275590Y854141D01*
X196850Y688661D02*
X206850Y698661D01*
X216850D01*
X206850Y708661D01*
X216850Y718661D01*
X206850D01*
X196850Y728661D01*
X186850Y718661D01*
X176850D01*
X186850Y708661D01*
X176850Y698661D01*
X186850D01*
X196850Y688661D01*
Y696661D02*
X202850Y702661D01*
X208850D01*
X202850Y708661D01*
X208850Y714661D01*
X202850D01*
X196850Y720661D01*
X190850Y714661D01*
X184850D01*
X190850Y708661D01*
X184850Y702661D01*
X190850D01*
X196850Y696661D01*
X275590Y531181D02*
X285590Y541181D01*
X295590D01*
X285590Y551181D01*
X295590Y561181D01*
X285590D01*
X275590Y571181D01*
X265590Y561181D01*
X255590D01*
X265590Y551181D01*
X255590Y541181D01*
X265590D01*
X275590Y531181D01*
Y539181D02*
X281590Y545181D01*
X287590D01*
X281590Y551181D01*
X287590Y557181D01*
X281590D01*
X275590Y563181D01*
X269590Y557181D01*
X263590D01*
X269590Y551181D01*
X263590Y545181D01*
X269590D01*
X275590Y539181D01*
X196850Y373701D02*
X206850Y383701D01*
X216850D01*
X206850Y393701D01*
X216850Y403701D01*
X206850D01*
X196850Y413701D01*
X186850Y403701D01*
X176850D01*
X186850Y393701D01*
X176850Y383701D01*
X186850D01*
X196850Y373701D01*
Y381701D02*
X202850Y387701D01*
X208850D01*
X202850Y393701D01*
X208850Y399701D01*
X202850D01*
X196850Y405701D01*
X190850Y399701D01*
X184850D01*
X190850Y393701D01*
X184850Y387701D01*
X190850D01*
X196850Y381701D01*
X275590Y216220D02*
X285590Y226220D01*
X295590D01*
X285590Y236220D01*
X295590Y246220D01*
X285590D01*
X275590Y256220D01*
X265590Y246220D01*
X255590D01*
X265590Y236220D01*
X255590Y226220D01*
X265590D01*
X275590Y216220D01*
Y224220D02*
X281590Y230220D01*
X287590D01*
X281590Y236220D01*
X287590Y242220D01*
X281590D01*
X275590Y248220D01*
X269590Y242220D01*
X263590D01*
X269590Y236220D01*
X263590Y230220D01*
X269590D01*
X275590Y224220D01*
X196850Y58740D02*
X206850Y68740D01*
X216850D01*
X206850Y78740D01*
X216850Y88740D01*
X206850D01*
X196850Y98740D01*
X186850Y88740D01*
X176850D01*
X186850Y78740D01*
X176850Y68740D01*
X186850D01*
X196850Y58740D01*
Y66740D02*
X202850Y72740D01*
X208850D01*
X202850Y78740D01*
X208850Y84740D01*
X202850D01*
X196850Y90740D01*
X190850Y84740D01*
X184850D01*
X190850Y78740D01*
X184850Y72740D01*
X190850D01*
X196850Y66740D01*
X118110Y3365826D02*
X128110Y3375826D01*
X138110D01*
X128110Y3385826D01*
X138110Y3395826D01*
X128110D01*
X118110Y3405826D01*
X108110Y3395826D01*
X98110D01*
X108110Y3385826D01*
X98110Y3375826D01*
X108110D01*
X118110Y3365826D01*
Y3373826D02*
X124110Y3379826D01*
X130110D01*
X124110Y3385826D01*
X130110Y3391826D01*
X124110D01*
X118110Y3397826D01*
X112110Y3391826D01*
X106110D01*
X112110Y3385826D01*
X106110Y3379826D01*
X112110D01*
X118110Y3373826D01*
X39370Y3208346D02*
X49370Y3218346D01*
X59370D01*
X49370Y3228346D01*
X59370Y3238346D01*
X49370D01*
X39370Y3248346D01*
X29370Y3238346D01*
X19370D01*
X29370Y3228346D01*
X19370Y3218346D01*
X29370D01*
X39370Y3208346D01*
Y3216346D02*
X45370Y3222346D01*
X51370D01*
X45370Y3228346D01*
X51370Y3234346D01*
X45370D01*
X39370Y3240346D01*
X33370Y3234346D01*
X27370D01*
X33370Y3228346D01*
X27370Y3222346D01*
X33370D01*
X39370Y3216346D01*
X118110Y3050866D02*
X128110Y3060866D01*
X138110D01*
X128110Y3070866D01*
X138110Y3080866D01*
X128110D01*
X118110Y3090866D01*
X108110Y3080866D01*
X98110D01*
X108110Y3070866D01*
X98110Y3060866D01*
X108110D01*
X118110Y3050866D01*
Y3058866D02*
X124110Y3064866D01*
X130110D01*
X124110Y3070866D01*
X130110Y3076866D01*
X124110D01*
X118110Y3082866D01*
X112110Y3076866D01*
X106110D01*
X112110Y3070866D01*
X106110Y3064866D01*
X112110D01*
X118110Y3058866D01*
Y2420945D02*
X128110Y2430945D01*
X138110D01*
X128110Y2440945D01*
X138110Y2450945D01*
X128110D01*
X118110Y2460945D01*
X108110Y2450945D01*
X98110D01*
X108110Y2440945D01*
X98110Y2430945D01*
X108110D01*
X118110Y2420945D01*
Y2428945D02*
X124110Y2434945D01*
X130110D01*
X124110Y2440945D01*
X130110Y2446945D01*
X124110D01*
X118110Y2452945D01*
X112110Y2446945D01*
X106110D01*
X112110Y2440945D01*
X106110Y2434945D01*
X112110D01*
X118110Y2428945D01*
X39370Y2263464D02*
X49370Y2273464D01*
X59370D01*
X49370Y2283464D01*
X59370Y2293464D01*
X49370D01*
X39370Y2303464D01*
X29370Y2293464D01*
X19370D01*
X29370Y2283464D01*
X19370Y2273464D01*
X29370D01*
X39370Y2263464D01*
Y2271464D02*
X45370Y2277464D01*
X51370D01*
X45370Y2283464D01*
X51370Y2289464D01*
X45370D01*
X39370Y2295464D01*
X33370Y2289464D01*
X27370D01*
X33370Y2283464D01*
X27370Y2277464D01*
X33370D01*
X39370Y2271464D01*
Y1948504D02*
X49370Y1958504D01*
X59370D01*
X49370Y1968504D01*
X59370Y1978504D01*
X49370D01*
X39370Y1988504D01*
X29370Y1978504D01*
X19370D01*
X29370Y1968504D01*
X19370Y1958504D01*
X29370D01*
X39370Y1948504D01*
Y1956504D02*
X45370Y1962504D01*
X51370D01*
X45370Y1968504D01*
X51370Y1974504D01*
X45370D01*
X39370Y1980504D01*
X33370Y1974504D01*
X27370D01*
X33370Y1968504D01*
X27370Y1962504D01*
X33370D01*
X39370Y1956504D01*
X118110Y1791023D02*
X128110Y1801023D01*
X138110D01*
X128110Y1811023D01*
X138110Y1821023D01*
X128110D01*
X118110Y1831023D01*
X108110Y1821023D01*
X98110D01*
X108110Y1811023D01*
X98110Y1801023D01*
X108110D01*
X118110Y1791023D01*
Y1799023D02*
X124110Y1805023D01*
X130110D01*
X124110Y1811023D01*
X130110Y1817023D01*
X124110D01*
X118110Y1823023D01*
X112110Y1817023D01*
X106110D01*
X112110Y1811023D01*
X106110Y1805023D01*
X112110D01*
X118110Y1799023D01*
Y1476063D02*
X128110Y1486063D01*
X138110D01*
X128110Y1496063D01*
X138110Y1506063D01*
X128110D01*
X118110Y1516063D01*
X108110Y1506063D01*
X98110D01*
X108110Y1496063D01*
X98110Y1486063D01*
X108110D01*
X118110Y1476063D01*
Y1484063D02*
X124110Y1490063D01*
X130110D01*
X124110Y1496063D01*
X130110Y1502063D01*
X124110D01*
X118110Y1508063D01*
X112110Y1502063D01*
X106110D01*
X112110Y1496063D01*
X106110Y1490063D01*
X112110D01*
X118110Y1484063D01*
X39370Y1003622D02*
X49370Y1013622D01*
X59370D01*
X49370Y1023622D01*
X59370Y1033622D01*
X49370D01*
X39370Y1043622D01*
X29370Y1033622D01*
X19370D01*
X29370Y1023622D01*
X19370Y1013622D01*
X29370D01*
X39370Y1003622D01*
Y1011622D02*
X45370Y1017622D01*
X51370D01*
X45370Y1023622D01*
X51370Y1029622D01*
X45370D01*
X39370Y1035622D01*
X33370Y1029622D01*
X27370D01*
X33370Y1023622D01*
X27370Y1017622D01*
X33370D01*
X39370Y1011622D01*
X118110Y846141D02*
X128110Y856141D01*
X138110D01*
X128110Y866141D01*
X138110Y876141D01*
X128110D01*
X118110Y886141D01*
X108110Y876141D01*
X98110D01*
X108110Y866141D01*
X98110Y856141D01*
X108110D01*
X118110Y846141D01*
Y854141D02*
X124110Y860141D01*
X130110D01*
X124110Y866141D01*
X130110Y872141D01*
X124110D01*
X118110Y878141D01*
X112110Y872141D01*
X106110D01*
X112110Y866141D01*
X106110Y860141D01*
X112110D01*
X118110Y854141D01*
Y531181D02*
X128110Y541181D01*
X138110D01*
X128110Y551181D01*
X138110Y561181D01*
X128110D01*
X118110Y571181D01*
X108110Y561181D01*
X98110D01*
X108110Y551181D01*
X98110Y541181D01*
X108110D01*
X118110Y531181D01*
Y539181D02*
X124110Y545181D01*
X130110D01*
X124110Y551181D01*
X130110Y557181D01*
X124110D01*
X118110Y563181D01*
X112110Y557181D01*
X106110D01*
X112110Y551181D01*
X106110Y545181D01*
X112110D01*
X118110Y539181D01*
X1377953Y2932757D02*
X1387953Y2942757D01*
X1397953D01*
X1387953Y2952757D01*
X1397953Y2962757D01*
X1387953D01*
X1377953Y2972757D01*
X1367953Y2962757D01*
X1357953D01*
X1367953Y2952757D01*
X1357953Y2942757D01*
X1367953D01*
X1377953Y2932757D01*
Y2940757D02*
X1383953Y2946757D01*
X1389953D01*
X1383953Y2952757D01*
X1389953Y2958757D01*
X1383953D01*
X1377953Y2964757D01*
X1371953Y2958757D01*
X1365953D01*
X1371953Y2952757D01*
X1365953Y2946757D01*
X1371953D01*
X1377953Y2940757D01*
Y2381575D02*
X1387953Y2391575D01*
X1397953D01*
X1387953Y2401575D01*
X1397953Y2411575D01*
X1387953D01*
X1377953Y2421575D01*
X1367953Y2411575D01*
X1357953D01*
X1367953Y2401575D01*
X1357953Y2391575D01*
X1367953D01*
X1377953Y2381575D01*
Y2389575D02*
X1383953Y2395575D01*
X1389953D01*
X1383953Y2401575D01*
X1389953Y2407575D01*
X1383953D01*
X1377953Y2413575D01*
X1371953Y2407575D01*
X1365953D01*
X1371953Y2401575D01*
X1365953Y2395575D01*
X1371953D01*
X1377953Y2389575D01*
X1515748Y1554804D02*
X1525748Y1564804D01*
X1535748D01*
X1525748Y1574804D01*
X1535748Y1584804D01*
X1525748D01*
X1515748Y1594804D01*
X1505748Y1584804D01*
X1495748D01*
X1505748Y1574804D01*
X1495748Y1564804D01*
X1505748D01*
X1515748Y1554804D01*
Y1562804D02*
X1521748Y1568804D01*
X1527748D01*
X1521748Y1574804D01*
X1527748Y1580804D01*
X1521748D01*
X1515748Y1586804D01*
X1509748Y1580804D01*
X1503748D01*
X1509748Y1574804D01*
X1503748Y1568804D01*
X1509748D01*
X1515748Y1562804D01*
X1102363Y3483938D02*
X1112363Y3493938D01*
X1122363D01*
X1112363Y3503938D01*
X1122363Y3513938D01*
X1112363D01*
X1102363Y3523938D01*
X1092363Y3513938D01*
X1082363D01*
X1092363Y3503938D01*
X1082363Y3493938D01*
X1092363D01*
X1102363Y3483938D01*
Y3491938D02*
X1108363Y3497938D01*
X1114363D01*
X1108363Y3503938D01*
X1114363Y3509938D01*
X1108363D01*
X1102363Y3515938D01*
X1096363Y3509938D01*
X1090363D01*
X1096363Y3503938D01*
X1090363Y3497938D01*
X1096363D01*
X1102363Y3491938D01*
X1240158Y3208347D02*
X1250158Y3218347D01*
X1260158D01*
X1250158Y3228347D01*
X1260158Y3238347D01*
X1250158D01*
X1240158Y3248347D01*
X1230158Y3238347D01*
X1220158D01*
X1230158Y3228347D01*
X1220158Y3218347D01*
X1230158D01*
X1240158Y3208347D01*
Y3216347D02*
X1246158Y3222347D01*
X1252158D01*
X1246158Y3228347D01*
X1252158Y3234347D01*
X1246158D01*
X1240158Y3240347D01*
X1234158Y3234347D01*
X1228158D01*
X1234158Y3228347D01*
X1228158Y3222347D01*
X1234158D01*
X1240158Y3216347D01*
Y2105985D02*
X1250158Y2115985D01*
X1260158D01*
X1250158Y2125985D01*
X1260158Y2135985D01*
X1250158D01*
X1240158Y2145985D01*
X1230158Y2135985D01*
X1220158D01*
X1230158Y2125985D01*
X1220158Y2115985D01*
X1230158D01*
X1240158Y2105985D01*
Y2113985D02*
X1246158Y2119985D01*
X1252158D01*
X1246158Y2125985D01*
X1252158Y2131985D01*
X1246158D01*
X1240158Y2137985D01*
X1234158Y2131985D01*
X1228158D01*
X1234158Y2125985D01*
X1228158Y2119985D01*
X1234158D01*
X1240158Y2113985D01*
X826772Y176851D02*
X836772Y186851D01*
X846772D01*
X836772Y196851D01*
X846772Y206851D01*
X836772D01*
X826772Y216851D01*
X816772Y206851D01*
X806772D01*
X816772Y196851D01*
X806772Y186851D01*
X816772D01*
X826772Y176851D01*
Y184851D02*
X832772Y190851D01*
X838772D01*
X832772Y196851D01*
X838772Y202851D01*
X832772D01*
X826772Y208851D01*
X820772Y202851D01*
X814772D01*
X820772Y196851D01*
X814772Y190851D01*
X820772D01*
X826772Y184851D01*
X551181Y176851D02*
X561181Y186851D01*
X571181D01*
X561181Y196851D01*
X571181Y206851D01*
X561181D01*
X551181Y216851D01*
X541181Y206851D01*
X531181D01*
X541181Y196851D01*
X531181Y186851D01*
X541181D01*
X551181Y176851D01*
Y184851D02*
X557181Y190851D01*
X563181D01*
X557181Y196851D01*
X563181Y202851D01*
X557181D01*
X551181Y208851D01*
X545181Y202851D01*
X539181D01*
X545181Y196851D01*
X539181Y190851D01*
X545181D01*
X551181Y184851D01*
X413386Y2105985D02*
X423386Y2115985D01*
X433386D01*
X423386Y2125985D01*
X433386Y2135985D01*
X423386D01*
X413386Y2145985D01*
X403386Y2135985D01*
X393386D01*
X403386Y2125985D01*
X393386Y2115985D01*
X403386D01*
X413386Y2105985D01*
Y2113985D02*
X419386Y2119985D01*
X425386D01*
X419386Y2125985D01*
X425386Y2131985D01*
X419386D01*
X413386Y2137985D01*
X407386Y2131985D01*
X401386D01*
X407386Y2125985D01*
X401386Y2119985D01*
X407386D01*
X413386Y2113985D01*
Y1003622D02*
X423386Y1013622D01*
X433386D01*
X423386Y1023622D01*
X433386Y1033622D01*
X423386D01*
X413386Y1043622D01*
X403386Y1033622D01*
X393386D01*
X403386Y1023622D01*
X393386Y1013622D01*
X403386D01*
X413386Y1003622D01*
Y1011622D02*
X419386Y1017622D01*
X425386D01*
X419386Y1023622D01*
X425386Y1029622D01*
X419386D01*
X413386Y1035622D01*
X407386Y1029622D01*
X401386D01*
X407386Y1023622D01*
X401386Y1017622D01*
X407386D01*
X413386Y1011622D01*
X137796Y1554804D02*
X147796Y1564804D01*
X157796D01*
X147796Y1574804D01*
X157796Y1584804D01*
X147796D01*
X137796Y1594804D01*
X127796Y1584804D01*
X117796D01*
X127796Y1574804D01*
X117796Y1564804D01*
X127796D01*
X137796Y1554804D01*
Y1562804D02*
X143796Y1568804D01*
X149796D01*
X143796Y1574804D01*
X149796Y1580804D01*
X143796D01*
X137796Y1586804D01*
X131796Y1580804D01*
X125796D01*
X131796Y1574804D01*
X125796Y1568804D01*
X131796D01*
X137796Y1562804D01*
Y1003622D02*
X147796Y1013622D01*
X157796D01*
X147796Y1023622D01*
X157796Y1033622D01*
X147796D01*
X137796Y1043622D01*
X127796Y1033622D01*
X117796D01*
X127796Y1023622D01*
X117796Y1013622D01*
X127796D01*
X137796Y1003622D01*
Y1011622D02*
X143796Y1017622D01*
X149796D01*
X143796Y1023622D01*
X149796Y1029622D01*
X143796D01*
X137796Y1035622D01*
X131796Y1029622D01*
X125796D01*
X131796Y1023622D01*
X125796Y1017622D01*
X131796D01*
X137796Y1011622D01*
X0Y176851D02*
X10000Y186851D01*
X20000D01*
X10000Y196851D01*
X20000Y206851D01*
X10000D01*
X0Y216851D01*
X-10000Y206851D01*
X-20000D01*
X-10000Y196851D01*
X-20000Y186851D01*
X-10000D01*
X0Y176851D01*
Y184851D02*
X6000Y190851D01*
X12000D01*
X6000Y196851D01*
X12000Y202851D01*
X6000D01*
X0Y208851D01*
X-6000Y202851D01*
X-12000D01*
X-6000Y196851D01*
X-12000Y190851D01*
X-6000D01*
X0Y184851D01*
X1683071Y2696535D02*
X1693071Y2706535D01*
X1703071D01*
X1693071Y2716535D01*
X1703071Y2726535D01*
X1693071D01*
X1683071Y2736535D01*
X1673071Y2726535D01*
X1663071D01*
X1673071Y2716535D01*
X1663071Y2706535D01*
X1673071D01*
X1683071Y2696535D01*
Y2704535D02*
X1689071Y2710535D01*
X1695071D01*
X1689071Y2716535D01*
X1695071Y2722535D01*
X1689071D01*
X1683071Y2728535D01*
X1677071Y2722535D01*
X1671071D01*
X1677071Y2716535D01*
X1671071Y2710535D01*
X1677071D01*
X1683071Y2704535D01*
X974409Y1180787D02*
X984409Y1190787D01*
X994409D01*
X984409Y1200787D01*
X994409Y1210787D01*
X984409D01*
X974409Y1220787D01*
X964409Y1210787D01*
X954409D01*
X964409Y1200787D01*
X954409Y1190787D01*
X964409D01*
X974409Y1180787D01*
Y1188787D02*
X980409Y1194787D01*
X986409D01*
X980409Y1200787D01*
X986409Y1206787D01*
X980409D01*
X974409Y1212787D01*
X968409Y1206787D01*
X962409D01*
X968409Y1200787D01*
X962409Y1194787D01*
X968409D01*
X974409Y1188787D01*
X867126Y1180787D02*
X877126Y1190787D01*
X887126D01*
X877126Y1200787D01*
X887126Y1210787D01*
X877126D01*
X867126Y1220787D01*
X857126Y1210787D01*
X847126D01*
X857126Y1200787D01*
X847126Y1190787D01*
X857126D01*
X867126Y1180787D01*
Y1188787D02*
X873126Y1194787D01*
X879126D01*
X873126Y1200787D01*
X879126Y1206787D01*
X873126D01*
X867126Y1212787D01*
X861126Y1206787D01*
X855126D01*
X861126Y1200787D01*
X855126Y1194787D01*
X861126D01*
X867126Y1188787D01*
X155509Y2658147D02*
X165509Y2668147D01*
X175509D01*
X165509Y2678147D01*
X175509Y2688147D01*
X165509D01*
X155509Y2698147D01*
X145509Y2688147D01*
X135509D01*
X145509Y2678147D01*
X135509Y2668147D01*
X145509D01*
X155509Y2658147D01*
Y2666147D02*
X161509Y2672147D01*
X167509D01*
X161509Y2678147D01*
X167509Y2684147D01*
X161509D01*
X155509Y2690147D01*
X149509Y2684147D01*
X143509D01*
X149509Y2678147D01*
X143509Y2672147D01*
X149509D01*
X155509Y2666147D01*
X1377953Y550866D02*
X1387953Y560866D01*
X1397953D01*
X1387953Y570866D01*
X1397953Y580866D01*
X1387953D01*
X1377953Y590866D01*
X1367953Y580866D01*
X1357953D01*
X1367953Y570866D01*
X1357953Y560866D01*
X1367953D01*
X1377953Y550866D01*
Y558866D02*
X1383953Y564866D01*
X1389953D01*
X1383953Y570866D01*
X1389953Y576866D01*
X1383953D01*
X1377953Y582866D01*
X1371953Y576866D01*
X1365953D01*
X1371953Y570866D01*
X1365953Y564866D01*
X1371953D01*
X1377953Y558866D01*
X1466535Y88268D02*
X1476535Y98268D01*
X1486535D01*
X1476535Y108268D01*
X1486535Y118268D01*
X1476535D01*
X1466535Y128268D01*
X1456535Y118268D01*
X1446535D01*
X1456535Y108268D01*
X1446535Y98268D01*
X1456535D01*
X1466535Y88268D01*
Y96268D02*
X1472535Y102268D01*
X1478535D01*
X1472535Y108268D01*
X1478535Y114268D01*
X1472535D01*
X1466535Y120268D01*
X1460535Y114268D01*
X1454535D01*
X1460535Y108268D01*
X1454535Y102268D01*
X1460535D01*
X1466535Y96268D01*
X1500984Y107953D02*
X1510984Y117953D01*
X1520984D01*
X1510984Y127953D01*
X1520984Y137953D01*
X1510984D01*
X1500984Y147953D01*
X1490984Y137953D01*
X1480984D01*
X1490984Y127953D01*
X1480984Y117953D01*
X1490984D01*
X1500984Y107953D01*
Y115953D02*
X1506984Y121953D01*
X1512984D01*
X1506984Y127953D01*
X1512984Y133953D01*
X1506984D01*
X1500984Y139953D01*
X1494984Y133953D01*
X1488984D01*
X1494984Y127953D01*
X1488984Y121953D01*
X1494984D01*
X1500984Y115953D01*
X1535433Y251654D02*
X1545433Y261654D01*
X1555433D01*
X1545433Y271654D01*
X1555433Y281654D01*
X1545433D01*
X1535433Y291654D01*
X1525433Y281654D01*
X1515433D01*
X1525433Y271654D01*
X1515433Y261654D01*
X1525433D01*
X1535433Y251654D01*
Y259654D02*
X1541433Y265654D01*
X1547433D01*
X1541433Y271654D01*
X1547433Y277654D01*
X1541433D01*
X1535433Y283654D01*
X1529433Y277654D01*
X1523433D01*
X1529433Y271654D01*
X1523433Y265654D01*
X1529433D01*
X1535433Y259654D01*
X1309055Y566614D02*
X1319055Y576614D01*
X1329055D01*
X1319055Y586614D01*
X1329055Y596614D01*
X1319055D01*
X1309055Y606614D01*
X1299055Y596614D01*
X1289055D01*
X1299055Y586614D01*
X1289055Y576614D01*
X1299055D01*
X1309055Y566614D01*
Y574614D02*
X1315055Y580614D01*
X1321055D01*
X1315055Y586614D01*
X1321055Y592614D01*
X1315055D01*
X1309055Y598614D01*
X1303055Y592614D01*
X1297055D01*
X1303055Y586614D01*
X1297055Y580614D01*
X1303055D01*
X1309055Y574614D01*
X1181102Y176850D02*
X1191102Y186850D01*
X1201102D01*
X1191102Y196850D01*
X1201102Y206850D01*
X1191102D01*
X1181102Y216850D01*
X1171102Y206850D01*
X1161102D01*
X1171102Y196850D01*
X1161102Y186850D01*
X1171102D01*
X1181102Y176850D01*
Y184850D02*
X1187102Y190850D01*
X1193102D01*
X1187102Y196850D01*
X1193102Y202850D01*
X1187102D01*
X1181102Y208850D01*
X1175102Y202850D01*
X1169102D01*
X1175102Y196850D01*
X1169102Y190850D01*
X1175102D01*
X1181102Y184850D01*
X1774606Y3011496D02*
X1784606Y3021496D01*
X1794606D01*
X1784606Y3031496D01*
X1794606Y3041496D01*
X1784606D01*
X1774606Y3051496D01*
X1764606Y3041496D01*
X1754606D01*
X1764606Y3031496D01*
X1754606Y3021496D01*
X1764606D01*
X1774606Y3011496D01*
Y3019496D02*
X1780606Y3025496D01*
X1786606D01*
X1780606Y3031496D01*
X1786606Y3037496D01*
X1780606D01*
X1774606Y3043496D01*
X1768606Y3037496D01*
X1762606D01*
X1768606Y3031496D01*
X1762606Y3025496D01*
X1768606D01*
X1774606Y3019496D01*
X1082677Y1633543D02*
X1092677Y1643543D01*
X1102677D01*
X1092677Y1653543D01*
X1102677Y1663543D01*
X1092677D01*
X1082677Y1673543D01*
X1072677Y1663543D01*
X1062677D01*
X1072677Y1653543D01*
X1062677Y1643543D01*
X1072677D01*
X1082677Y1633543D01*
Y1641543D02*
X1088677Y1647543D01*
X1094677D01*
X1088677Y1653543D01*
X1094677Y1659543D01*
X1088677D01*
X1082677Y1665543D01*
X1076677Y1659543D01*
X1070677D01*
X1076677Y1653543D01*
X1070677Y1647543D01*
X1076677D01*
X1082677Y1641543D01*
X1496063Y422913D02*
X1506063Y432913D01*
X1516063D01*
X1506063Y442913D01*
X1516063Y452913D01*
X1506063D01*
X1496063Y462913D01*
X1486063Y452913D01*
X1476063D01*
X1486063Y442913D01*
X1476063Y432913D01*
X1486063D01*
X1496063Y422913D01*
Y430913D02*
X1502063Y436913D01*
X1508063D01*
X1502063Y442913D01*
X1508063Y448913D01*
X1502063D01*
X1496063Y454913D01*
X1490063Y448913D01*
X1484063D01*
X1490063Y442913D01*
X1484063Y436913D01*
X1490063D01*
X1496063Y430913D01*
X910165Y1674882D02*
X920165Y1684882D01*
X930165D01*
X920165Y1694882D01*
X930165Y1704882D01*
X920165D01*
X910165Y1714882D01*
X900165Y1704882D01*
X890165D01*
X900165Y1694882D01*
X890165Y1684882D01*
X900165D01*
X910165Y1674882D01*
Y1682882D02*
X916165Y1688882D01*
X922165D01*
X916165Y1694882D01*
X922165Y1700882D01*
X916165D01*
X910165Y1706882D01*
X904165Y1700882D01*
X898165D01*
X904165Y1694882D01*
X898165Y1688882D01*
X904165D01*
X910165Y1682882D01*
X840551Y1772323D02*
X850551Y1782323D01*
X860551D01*
X850551Y1792323D01*
X860551Y1802323D01*
X850551D01*
X840551Y1812323D01*
X830551Y1802323D01*
X820551D01*
X830551Y1792323D01*
X820551Y1782323D01*
X830551D01*
X840551Y1772323D01*
Y1780323D02*
X846551Y1786323D01*
X852551D01*
X846551Y1792323D01*
X852551Y1798323D01*
X846551D01*
X840551Y1804323D01*
X834551Y1798323D01*
X828551D01*
X834551Y1792323D01*
X828551Y1786323D01*
X834551D01*
X840551Y1780323D01*
X863189Y1540039D02*
X873189Y1550039D01*
X883189D01*
X873189Y1560039D01*
X883189Y1570039D01*
X873189D01*
X863189Y1580039D01*
X853189Y1570039D01*
X843189D01*
X853189Y1560039D01*
X843189Y1550039D01*
X853189D01*
X863189Y1540039D01*
Y1548039D02*
X869189Y1554039D01*
X875189D01*
X869189Y1560039D01*
X875189Y1566039D01*
X869189D01*
X863189Y1572039D01*
X857189Y1566039D01*
X851189D01*
X857189Y1560039D01*
X851189Y1554039D01*
X857189D01*
X863189Y1548039D01*
X846457Y2381575D02*
X856457Y2391575D01*
X866457D01*
X856457Y2401575D01*
X866457Y2411575D01*
X856457D01*
X846457Y2421575D01*
X836457Y2411575D01*
X826457D01*
X836457Y2401575D01*
X826457Y2391575D01*
X836457D01*
X846457Y2381575D01*
Y2389575D02*
X852457Y2395575D01*
X858457D01*
X852457Y2401575D01*
X858457Y2407575D01*
X852457D01*
X846457Y2413575D01*
X840457Y2407575D01*
X834457D01*
X840457Y2401575D01*
X834457Y2395575D01*
X840457D01*
X846457Y2389575D01*
X984252Y2302835D02*
X994252Y2312835D01*
X1004252D01*
X994252Y2322835D01*
X1004252Y2332835D01*
X994252D01*
X984252Y2342835D01*
X974252Y2332835D01*
X964252D01*
X974252Y2322835D01*
X964252Y2312835D01*
X974252D01*
X984252Y2302835D01*
Y2310835D02*
X990252Y2316835D01*
X996252D01*
X990252Y2322835D01*
X996252Y2328835D01*
X990252D01*
X984252Y2334835D01*
X978252Y2328835D01*
X972252D01*
X978252Y2322835D01*
X972252Y2316835D01*
X978252D01*
X984252Y2310835D01*
X1702756Y98110D02*
X1712756Y108110D01*
X1722756D01*
X1712756Y118110D01*
X1722756Y128110D01*
X1712756D01*
X1702756Y138110D01*
X1692756Y128110D01*
X1682756D01*
X1692756Y118110D01*
X1682756Y108110D01*
X1692756D01*
X1702756Y98110D01*
Y106110D02*
X1708756Y112110D01*
X1714756D01*
X1708756Y118110D01*
X1714756Y124110D01*
X1708756D01*
X1702756Y130110D01*
X1696756Y124110D01*
X1690756D01*
X1696756Y118110D01*
X1690756Y112110D01*
X1696756D01*
X1702756Y106110D01*
X423228Y2935248D02*
X433228Y2945248D01*
X443228D01*
X433228Y2955248D01*
X443228Y2965248D01*
X433228D01*
X423228Y2975248D01*
X413228Y2965248D01*
X403228D01*
X413228Y2955248D01*
X403228Y2945248D01*
X413228D01*
X423228Y2935248D01*
Y2943248D02*
X429228Y2949248D01*
X435228D01*
X429228Y2955248D01*
X435228Y2961248D01*
X429228D01*
X423228Y2967248D01*
X417228Y2961248D01*
X411228D01*
X417228Y2955248D01*
X411228Y2949248D01*
X417228D01*
X423228Y2943248D01*
X373658Y2935248D02*
X383658Y2945248D01*
X393658D01*
X383658Y2955248D01*
X393658Y2965248D01*
X383658D01*
X373658Y2975248D01*
X363658Y2965248D01*
X353658D01*
X363658Y2955248D01*
X353658Y2945248D01*
X363658D01*
X373658Y2935248D01*
Y2943248D02*
X379658Y2949248D01*
X385658D01*
X379658Y2955248D01*
X385658Y2961248D01*
X379658D01*
X373658Y2967248D01*
X367658Y2961248D01*
X361658D01*
X367658Y2955248D01*
X361658Y2949248D01*
X367658D01*
X373658Y2943248D01*
X314961Y2911975D02*
X324961Y2921975D01*
X334961D01*
X324961Y2931975D01*
X334961Y2941975D01*
X324961D01*
X314961Y2951975D01*
X304961Y2941975D01*
X294961D01*
X304961Y2931975D01*
X294961Y2921975D01*
X304961D01*
X314961Y2911975D01*
Y2919975D02*
X320961Y2925975D01*
X326961D01*
X320961Y2931975D01*
X326961Y2937975D01*
X320961D01*
X314961Y2943975D01*
X308961Y2937975D01*
X302961D01*
X308961Y2931975D01*
X302961Y2925975D01*
X308961D01*
X314961Y2919975D01*
X1563976Y2855000D02*
X1573976Y2865000D01*
X1583976D01*
X1573976Y2875000D01*
X1583976Y2885000D01*
X1573976D01*
X1563976Y2895000D01*
X1553976Y2885000D01*
X1543976D01*
X1553976Y2875000D01*
X1543976Y2865000D01*
X1553976D01*
X1563976Y2855000D01*
Y2863000D02*
X1569976Y2869000D01*
X1575976D01*
X1569976Y2875000D01*
X1575976Y2881000D01*
X1569976D01*
X1563976Y2887000D01*
X1557976Y2881000D01*
X1551976D01*
X1557976Y2875000D01*
X1551976Y2869000D01*
X1557976D01*
X1563976Y2863000D01*
X191929Y2897323D02*
X201929Y2907323D01*
X211929D01*
X201929Y2917323D01*
X211929Y2927323D01*
X201929D01*
X191929Y2937323D01*
X181929Y2927323D01*
X171929D01*
X181929Y2917323D01*
X171929Y2907323D01*
X181929D01*
X191929Y2897323D01*
Y2905323D02*
X197929Y2911323D01*
X203929D01*
X197929Y2917323D01*
X203929Y2923323D01*
X197929D01*
X191929Y2929323D01*
X185929Y2923323D01*
X179929D01*
X185929Y2917323D01*
X179929Y2911323D01*
X185929D01*
X191929Y2905323D01*
X216535Y3031181D02*
X226535Y3041181D01*
X236535D01*
X226535Y3051181D01*
X236535Y3061181D01*
X226535D01*
X216535Y3071181D01*
X206535Y3061181D01*
X196535D01*
X206535Y3051181D01*
X196535Y3041181D01*
X206535D01*
X216535Y3031181D01*
Y3039181D02*
X222535Y3045181D01*
X228535D01*
X222535Y3051181D01*
X228535Y3057181D01*
X222535D01*
X216535Y3063181D01*
X210535Y3057181D01*
X204535D01*
X210535Y3051181D01*
X204535Y3045181D01*
X210535D01*
X216535Y3039181D01*
X519685Y2938661D02*
X529685Y2948661D01*
X539685D01*
X529685Y2958661D01*
X539685Y2968661D01*
X529685D01*
X519685Y2978661D01*
X509685Y2968661D01*
X499685D01*
X509685Y2958661D01*
X499685Y2948661D01*
X509685D01*
X519685Y2938661D01*
Y2946661D02*
X525685Y2952661D01*
X531685D01*
X525685Y2958661D01*
X531685Y2964661D01*
X525685D01*
X519685Y2970661D01*
X513685Y2964661D01*
X507685D01*
X513685Y2958661D01*
X507685Y2952661D01*
X513685D01*
X519685Y2946661D01*
X1718504Y2531181D02*
X1728504Y2541181D01*
X1738504D01*
X1728504Y2551181D01*
X1738504Y2561181D01*
X1728504D01*
X1718504Y2571181D01*
X1708504Y2561181D01*
X1698504D01*
X1708504Y2551181D01*
X1698504Y2541181D01*
X1708504D01*
X1718504Y2531181D01*
Y2539181D02*
X1724504Y2545181D01*
X1730504D01*
X1724504Y2551181D01*
X1730504Y2557181D01*
X1724504D01*
X1718504Y2563181D01*
X1712504Y2557181D01*
X1706504D01*
X1712504Y2551181D01*
X1706504Y2545181D01*
X1712504D01*
X1718504Y2539181D01*
X975394Y1114842D02*
X985394Y1124842D01*
X995394D01*
X985394Y1134842D01*
X995394Y1144842D01*
X985394D01*
X975394Y1154842D01*
X965394Y1144842D01*
X955394D01*
X965394Y1134842D01*
X955394Y1124842D01*
X965394D01*
X975394Y1114842D01*
Y1122842D02*
X981394Y1128842D01*
X987394D01*
X981394Y1134842D01*
X987394Y1140842D01*
X981394D01*
X975394Y1146842D01*
X969394Y1140842D01*
X963394D01*
X969394Y1134842D01*
X963394Y1128842D01*
X969394D01*
X975394Y1122842D01*
X1181102Y272323D02*
X1191102Y282323D01*
X1201102D01*
X1191102Y292323D01*
X1201102Y302323D01*
X1191102D01*
X1181102Y312323D01*
X1171102Y302323D01*
X1161102D01*
X1171102Y292323D01*
X1161102Y282323D01*
X1171102D01*
X1181102Y272323D01*
Y280323D02*
X1187102Y286323D01*
X1193102D01*
X1187102Y292323D01*
X1193102Y298323D01*
X1187102D01*
X1181102Y304323D01*
X1175102Y298323D01*
X1169102D01*
X1175102Y292323D01*
X1169102Y286323D01*
X1175102D01*
X1181102Y280323D01*
X393701Y2676850D02*
X403701Y2686850D01*
X413701D01*
X403701Y2696850D01*
X413701Y2706850D01*
X403701D01*
X393701Y2716850D01*
X383701Y2706850D01*
X373701D01*
X383701Y2696850D01*
X373701Y2686850D01*
X383701D01*
X393701Y2676850D01*
Y2684850D02*
X399701Y2690850D01*
X405701D01*
X399701Y2696850D01*
X405701Y2702850D01*
X399701D01*
X393701Y2708850D01*
X387701Y2702850D01*
X381701D01*
X387701Y2696850D01*
X381701Y2690850D01*
X387701D01*
X393701Y2684850D01*
X1391732Y2713268D02*
X1401732Y2723268D01*
X1411732D01*
X1401732Y2733268D01*
X1411732Y2743268D01*
X1401732D01*
X1391732Y2753268D01*
X1381732Y2743268D01*
X1371732D01*
X1381732Y2733268D01*
X1371732Y2723268D01*
X1381732D01*
X1391732Y2713268D01*
Y2721268D02*
X1397732Y2727268D01*
X1403732D01*
X1397732Y2733268D01*
X1403732Y2739268D01*
X1397732D01*
X1391732Y2745268D01*
X1385732Y2739268D01*
X1379732D01*
X1385732Y2733268D01*
X1379732Y2727268D01*
X1385732D01*
X1391732Y2721268D01*
X1300197Y2718189D02*
X1310197Y2728189D01*
X1320197D01*
X1310197Y2738189D01*
X1320197Y2748189D01*
X1310197D01*
X1300197Y2758189D01*
X1290197Y2748189D01*
X1280197D01*
X1290197Y2738189D01*
X1280197Y2728189D01*
X1290197D01*
X1300197Y2718189D01*
Y2726189D02*
X1306197Y2732189D01*
X1312197D01*
X1306197Y2738189D01*
X1312197Y2744189D01*
X1306197D01*
X1300197Y2750189D01*
X1294197Y2744189D01*
X1288197D01*
X1294197Y2738189D01*
X1288197Y2732189D01*
X1294197D01*
X1300197Y2726189D01*
X492126Y1633543D02*
X502126Y1643543D01*
X512126D01*
X502126Y1653543D01*
X512126Y1663543D01*
X502126D01*
X492126Y1673543D01*
X482126Y1663543D01*
X472126D01*
X482126Y1653543D01*
X472126Y1643543D01*
X482126D01*
X492126Y1633543D01*
Y1641543D02*
X498126Y1647543D01*
X504126D01*
X498126Y1653543D01*
X504126Y1659543D01*
X498126D01*
X492126Y1665543D01*
X486126Y1659543D01*
X480126D01*
X486126Y1653543D01*
X480126Y1647543D01*
X486126D01*
X492126Y1641543D01*
Y1417008D02*
X502126Y1427008D01*
X512126D01*
X502126Y1437008D01*
X512126Y1447008D01*
X502126D01*
X492126Y1457008D01*
X482126Y1447008D01*
X472126D01*
X482126Y1437008D01*
X472126Y1427008D01*
X482126D01*
X492126Y1417008D01*
Y1425008D02*
X498126Y1431008D01*
X504126D01*
X498126Y1437008D01*
X504126Y1443008D01*
X498126D01*
X492126Y1449008D01*
X486126Y1443008D01*
X480126D01*
X486126Y1437008D01*
X480126Y1431008D01*
X486126D01*
X492126Y1425008D01*
X673228Y1726063D02*
X683228Y1736063D01*
X693228D01*
X683228Y1746063D01*
X693228Y1756063D01*
X683228D01*
X673228Y1766063D01*
X663228Y1756063D01*
X653228D01*
X663228Y1746063D01*
X653228Y1736063D01*
X663228D01*
X673228Y1726063D01*
Y1734063D02*
X679228Y1740063D01*
X685228D01*
X679228Y1746063D01*
X685228Y1752063D01*
X679228D01*
X673228Y1758063D01*
X667228Y1752063D01*
X661228D01*
X667228Y1746063D01*
X661228Y1740063D01*
X667228D01*
X673228Y1734063D01*
X575787Y1879606D02*
X585787Y1889606D01*
X595787D01*
X585787Y1899606D01*
X595787Y1909606D01*
X585787D01*
X575787Y1919606D01*
X565787Y1909606D01*
X555787D01*
X565787Y1899606D01*
X555787Y1889606D01*
X565787D01*
X575787Y1879606D01*
Y1887606D02*
X581787Y1893606D01*
X587787D01*
X581787Y1899606D01*
X587787Y1905606D01*
X581787D01*
X575787Y1911606D01*
X569787Y1905606D01*
X563787D01*
X569787Y1899606D01*
X563787Y1893606D01*
X569787D01*
X575787Y1887606D01*
X918307Y3072520D02*
X928307Y3082520D01*
X938307D01*
X928307Y3092520D01*
X938307Y3102520D01*
X928307D01*
X918307Y3112520D01*
X908307Y3102520D01*
X898307D01*
X908307Y3092520D01*
X898307Y3082520D01*
X908307D01*
X918307Y3072520D01*
Y3080520D02*
X924307Y3086520D01*
X930307D01*
X924307Y3092520D01*
X930307Y3098520D01*
X924307D01*
X918307Y3104520D01*
X912307Y3098520D01*
X906307D01*
X912307Y3092520D01*
X906307Y3086520D01*
X912307D01*
X918307Y3080520D01*
X33465Y462284D02*
X43465Y472284D01*
X53465D01*
X43465Y482284D01*
X53465Y492284D01*
X43465D01*
X33465Y502284D01*
X23465Y492284D01*
X13465D01*
X23465Y482284D01*
X13465Y472284D01*
X23465D01*
X33465Y462284D01*
Y470284D02*
X39465Y476284D01*
X45465D01*
X39465Y482284D01*
X45465Y488284D01*
X39465D01*
X33465Y494284D01*
X27465Y488284D01*
X21465D01*
X27465Y482284D01*
X21465Y476284D01*
X27465D01*
X33465Y470284D01*
X892716Y3095157D02*
X902716Y3105157D01*
X912716D01*
X902716Y3115157D01*
X912716Y3125157D01*
X902716D01*
X892716Y3135157D01*
X882716Y3125157D01*
X872716D01*
X882716Y3115157D01*
X872716Y3105157D01*
X882716D01*
X892716Y3095157D01*
Y3103157D02*
X898716Y3109157D01*
X904716D01*
X898716Y3115157D01*
X904716Y3121157D01*
X898716D01*
X892716Y3127157D01*
X886716Y3121157D01*
X880716D01*
X886716Y3115157D01*
X880716Y3109157D01*
X886716D01*
X892716Y3103157D01*
X1182087Y2975079D02*
X1192087Y2985079D01*
X1202087D01*
X1192087Y2995079D01*
X1202087Y3005079D01*
X1192087D01*
X1182087Y3015079D01*
X1172087Y3005079D01*
X1162087D01*
X1172087Y2995079D01*
X1162087Y2985079D01*
X1172087D01*
X1182087Y2975079D01*
Y2983079D02*
X1188087Y2989079D01*
X1194087D01*
X1188087Y2995079D01*
X1194087Y3001079D01*
X1188087D01*
X1182087Y3007079D01*
X1176087Y3001079D01*
X1170087D01*
X1176087Y2995079D01*
X1170087Y2989079D01*
X1176087D01*
X1182087Y2983079D01*
X1302658Y2769230D02*
X1312658Y2779230D01*
X1322658D01*
X1312658Y2789230D01*
X1322658Y2799230D01*
X1312658D01*
X1302658Y2809230D01*
X1292658Y2799230D01*
X1282658D01*
X1292658Y2789230D01*
X1282658Y2779230D01*
X1292658D01*
X1302658Y2769230D01*
Y2777230D02*
X1308658Y2783230D01*
X1314658D01*
X1308658Y2789230D01*
X1314658Y2795230D01*
X1308658D01*
X1302658Y2801230D01*
X1296658Y2795230D01*
X1290658D01*
X1296658Y2789230D01*
X1290658Y2783230D01*
X1296658D01*
X1302658Y2777230D01*
X300456Y1786362D02*
X310456Y1796362D01*
X320456D01*
X310456Y1806362D01*
X320456Y1816362D01*
X310456D01*
X300456Y1826362D01*
X290456Y1816362D01*
X280456D01*
X290456Y1806362D01*
X280456Y1796362D01*
X290456D01*
X300456Y1786362D01*
Y1794362D02*
X306456Y1800362D01*
X312456D01*
X306456Y1806362D01*
X312456Y1812362D01*
X306456D01*
X300456Y1818362D01*
X294456Y1812362D01*
X288456D01*
X294456Y1806362D01*
X288456Y1800362D01*
X294456D01*
X300456Y1794362D01*
X269685Y1786102D02*
X279685Y1796102D01*
X289685D01*
X279685Y1806102D01*
X289685Y1816102D01*
X279685D01*
X269685Y1826102D01*
X259685Y1816102D01*
X249685D01*
X259685Y1806102D01*
X249685Y1796102D01*
X259685D01*
X269685Y1786102D01*
Y1794102D02*
X275685Y1800102D01*
X281685D01*
X275685Y1806102D01*
X281685Y1812102D01*
X275685D01*
X269685Y1818102D01*
X263685Y1812102D01*
X257685D01*
X263685Y1806102D01*
X257685Y1800102D01*
X263685D01*
X269685Y1794102D01*
X769685Y1054803D02*
X779685Y1064803D01*
X789685D01*
X779685Y1074803D01*
X789685Y1084803D01*
X779685D01*
X769685Y1094803D01*
X759685Y1084803D01*
X749685D01*
X759685Y1074803D01*
X749685Y1064803D01*
X759685D01*
X769685Y1054803D01*
Y1062803D02*
X775685Y1068803D01*
X781685D01*
X775685Y1074803D01*
X781685Y1080803D01*
X775685D01*
X769685Y1086803D01*
X763685Y1080803D01*
X757685D01*
X763685Y1074803D01*
X757685Y1068803D01*
X763685D01*
X769685Y1062803D01*
X835630Y905197D02*
X845630Y915197D01*
X855630D01*
X845630Y925197D01*
X855630Y935197D01*
X845630D01*
X835630Y945197D01*
X825630Y935197D01*
X815630D01*
X825630Y925197D01*
X815630Y915197D01*
X825630D01*
X835630Y905197D01*
Y913197D02*
X841630Y919197D01*
X847630D01*
X841630Y925197D01*
X847630Y931197D01*
X841630D01*
X835630Y937197D01*
X829630Y931197D01*
X823630D01*
X829630Y925197D01*
X823630Y919197D01*
X829630D01*
X835630Y913197D01*
X14764Y1794961D02*
X24764Y1804961D01*
X34764D01*
X24764Y1814961D01*
X34764Y1824961D01*
X24764D01*
X14764Y1834961D01*
X4764Y1824961D01*
X-5236D01*
X4764Y1814961D01*
X-5236Y1804961D01*
X4764D01*
X14764Y1794961D01*
Y1802961D02*
X20764Y1808961D01*
X26764D01*
X20764Y1814961D01*
X26764Y1820961D01*
X20764D01*
X14764Y1826961D01*
X8764Y1820961D01*
X2764D01*
X8764Y1814961D01*
X2764Y1808961D01*
X8764D01*
X14764Y1802961D01*
X150591Y1735906D02*
X160591Y1745906D01*
X170591D01*
X160591Y1755906D01*
X170591Y1765906D01*
X160591D01*
X150591Y1775906D01*
X140591Y1765906D01*
X130591D01*
X140591Y1755906D01*
X130591Y1745906D01*
X140591D01*
X150591Y1735906D01*
Y1743906D02*
X156591Y1749906D01*
X162591D01*
X156591Y1755906D01*
X162591Y1761906D01*
X156591D01*
X150591Y1767906D01*
X144591Y1761906D01*
X138591D01*
X144591Y1755906D01*
X138591Y1749906D01*
X144591D01*
X150591Y1743906D01*
X1256890Y1367795D02*
X1266890Y1377795D01*
X1276890D01*
X1266890Y1387795D01*
X1276890Y1397795D01*
X1266890D01*
X1256890Y1407795D01*
X1246890Y1397795D01*
X1236890D01*
X1246890Y1387795D01*
X1236890Y1377795D01*
X1246890D01*
X1256890Y1367795D01*
Y1375795D02*
X1262890Y1381795D01*
X1268890D01*
X1262890Y1387795D01*
X1268890Y1393795D01*
X1262890D01*
X1256890Y1399795D01*
X1250890Y1393795D01*
X1244890D01*
X1250890Y1387795D01*
X1244890Y1381795D01*
X1250890D01*
X1256890Y1375795D01*
X1197835Y431772D02*
X1207835Y441772D01*
X1217835D01*
X1207835Y451772D01*
X1217835Y461772D01*
X1207835D01*
X1197835Y471772D01*
X1187835Y461772D01*
X1177835D01*
X1187835Y451772D01*
X1177835Y441772D01*
X1187835D01*
X1197835Y431772D01*
Y439772D02*
X1203835Y445772D01*
X1209835D01*
X1203835Y451772D01*
X1209835Y457772D01*
X1203835D01*
X1197835Y463772D01*
X1191835Y457772D01*
X1185835D01*
X1191835Y451772D01*
X1185835Y445772D01*
X1191835D01*
X1197835Y439772D01*
X1602362Y2856968D02*
X1612362Y2866968D01*
X1622362D01*
X1612362Y2876968D01*
X1622362Y2886968D01*
X1612362D01*
X1602362Y2896968D01*
X1592362Y2886968D01*
X1582362D01*
X1592362Y2876968D01*
X1582362Y2866968D01*
X1592362D01*
X1602362Y2856968D01*
Y2864968D02*
X1608362Y2870968D01*
X1614362D01*
X1608362Y2876968D01*
X1614362Y2882968D01*
X1608362D01*
X1602362Y2888968D01*
X1596362Y2882968D01*
X1590362D01*
X1596362Y2876968D01*
X1590362Y2870968D01*
X1596362D01*
X1602362Y2864968D01*
X1187992Y2762480D02*
X1197992Y2772480D01*
X1207992D01*
X1197992Y2782480D01*
X1207992Y2792480D01*
X1197992D01*
X1187992Y2802480D01*
X1177992Y2792480D01*
X1167992D01*
X1177992Y2782480D01*
X1167992Y2772480D01*
X1177992D01*
X1187992Y2762480D01*
Y2770480D02*
X1193992Y2776480D01*
X1199992D01*
X1193992Y2782480D01*
X1199992Y2788480D01*
X1193992D01*
X1187992Y2794480D01*
X1181992Y2788480D01*
X1175992D01*
X1181992Y2782480D01*
X1175992Y2776480D01*
X1181992D01*
X1187992Y2770480D01*
X1302165Y2917008D02*
X1312165Y2927008D01*
X1322165D01*
X1312165Y2937008D01*
X1322165Y2947008D01*
X1312165D01*
X1302165Y2957008D01*
X1292165Y2947008D01*
X1282165D01*
X1292165Y2937008D01*
X1282165Y2927008D01*
X1292165D01*
X1302165Y2917008D01*
Y2925008D02*
X1308165Y2931008D01*
X1314165D01*
X1308165Y2937008D01*
X1314165Y2943008D01*
X1308165D01*
X1302165Y2949008D01*
X1296165Y2943008D01*
X1290165D01*
X1296165Y2937008D01*
X1290165Y2931008D01*
X1296165D01*
X1302165Y2925008D01*
X817913Y3097126D02*
X827913Y3107126D01*
X837913D01*
X827913Y3117126D01*
X837913Y3127126D01*
X827913D01*
X817913Y3137126D01*
X807913Y3127126D01*
X797913D01*
X807913Y3117126D01*
X797913Y3107126D01*
X807913D01*
X817913Y3097126D01*
Y3105126D02*
X823913Y3111126D01*
X829913D01*
X823913Y3117126D01*
X829913Y3123126D01*
X823913D01*
X817913Y3129126D01*
X811913Y3123126D01*
X805913D01*
X811913Y3117126D01*
X805913Y3111126D01*
X811913D01*
X817913Y3105126D01*
X614173Y3452441D02*
X624173Y3462441D01*
X634173D01*
X624173Y3472441D01*
X634173Y3482441D01*
X624173D01*
X614173Y3492441D01*
X604173Y3482441D01*
X594173D01*
X604173Y3472441D01*
X594173Y3462441D01*
X604173D01*
X614173Y3452441D01*
Y3460441D02*
X620173Y3466441D01*
X626173D01*
X620173Y3472441D01*
X626173Y3478441D01*
X620173D01*
X614173Y3484441D01*
X608173Y3478441D01*
X602173D01*
X608173Y3472441D01*
X602173Y3466441D01*
X608173D01*
X614173Y3460441D01*
X675197Y3544961D02*
X685197Y3554961D01*
X695197D01*
X685197Y3564961D01*
X695197Y3574961D01*
X685197D01*
X675197Y3584961D01*
X665197Y3574961D01*
X655197D01*
X665197Y3564961D01*
X655197Y3554961D01*
X665197D01*
X675197Y3544961D01*
Y3552961D02*
X681197Y3558961D01*
X687197D01*
X681197Y3564961D01*
X687197Y3570961D01*
X681197D01*
X675197Y3576961D01*
X669197Y3570961D01*
X663197D01*
X669197Y3564961D01*
X663197Y3558961D01*
X669197D01*
X675197Y3552961D01*
X833661Y3353032D02*
X843661Y3363032D01*
X853661D01*
X843661Y3373032D01*
X853661Y3383032D01*
X843661D01*
X833661Y3393032D01*
X823661Y3383032D01*
X813661D01*
X823661Y3373032D01*
X813661Y3363032D01*
X823661D01*
X833661Y3353032D01*
Y3361032D02*
X839661Y3367032D01*
X845661D01*
X839661Y3373032D01*
X845661Y3379032D01*
X839661D01*
X833661Y3385032D01*
X827661Y3379032D01*
X821661D01*
X827661Y3373032D01*
X821661Y3367032D01*
X827661D01*
X833661Y3361032D01*
X728346Y3352539D02*
X738346Y3362539D01*
X748346D01*
X738346Y3372539D01*
X748346Y3382539D01*
X738346D01*
X728346Y3392539D01*
X718346Y3382539D01*
X708346D01*
X718346Y3372539D01*
X708346Y3362539D01*
X718346D01*
X728346Y3352539D01*
Y3360539D02*
X734346Y3366539D01*
X740346D01*
X734346Y3372539D01*
X740346Y3378539D01*
X734346D01*
X728346Y3384539D01*
X722346Y3378539D01*
X716346D01*
X722346Y3372539D01*
X716346Y3366539D01*
X722346D01*
X728346Y3360539D01*
X1570866Y18386D02*
X1580866Y28386D01*
X1590866D01*
X1580866Y38386D01*
X1590866Y48386D01*
X1580866D01*
X1570866Y58386D01*
X1560866Y48386D01*
X1550866D01*
X1560866Y38386D01*
X1550866Y28386D01*
X1560866D01*
X1570866Y18386D01*
Y26386D02*
X1576866Y32386D01*
X1582866D01*
X1576866Y38386D01*
X1582866Y44386D01*
X1576866D01*
X1570866Y50386D01*
X1564866Y44386D01*
X1558866D01*
X1564866Y38386D01*
X1558866Y32386D01*
X1564866D01*
X1570866Y26386D01*
X1660433Y98110D02*
X1670433Y108110D01*
X1680433D01*
X1670433Y118110D01*
X1680433Y128110D01*
X1670433D01*
X1660433Y138110D01*
X1650433Y128110D01*
X1640433D01*
X1650433Y118110D01*
X1640433Y108110D01*
X1650433D01*
X1660433Y98110D01*
Y106110D02*
X1666433Y112110D01*
X1672433D01*
X1666433Y118110D01*
X1672433Y124110D01*
X1666433D01*
X1660433Y130110D01*
X1654433Y124110D01*
X1648433D01*
X1654433Y118110D01*
X1648433Y112110D01*
X1654433D01*
X1660433Y106110D01*
X1186024Y70551D02*
X1196024Y80551D01*
X1206024D01*
X1196024Y90551D01*
X1206024Y100551D01*
X1196024D01*
X1186024Y110551D01*
X1176024Y100551D01*
X1166024D01*
X1176024Y90551D01*
X1166024Y80551D01*
X1176024D01*
X1186024Y70551D01*
Y78551D02*
X1192024Y84551D01*
X1198024D01*
X1192024Y90551D01*
X1198024Y96551D01*
X1192024D01*
X1186024Y102551D01*
X1180024Y96551D01*
X1174024D01*
X1180024Y90551D01*
X1174024Y84551D01*
X1180024D01*
X1186024Y78551D01*
X1003678Y905456D02*
X1013678Y915456D01*
X1023678D01*
X1013678Y925456D01*
X1023678Y935456D01*
X1013678D01*
X1003678Y945456D01*
X993678Y935456D01*
X983678D01*
X993678Y925456D01*
X983678Y915456D01*
X993678D01*
X1003678Y905456D01*
Y913456D02*
X1009678Y919456D01*
X1015678D01*
X1009678Y925456D01*
X1015678Y931456D01*
X1009678D01*
X1003678Y937456D01*
X997678Y931456D01*
X991678D01*
X997678Y925456D01*
X991678Y919456D01*
X997678D01*
X1003678Y913456D01*
X444882Y300866D02*
X454882Y310866D01*
X464882D01*
X454882Y320866D01*
X464882Y330866D01*
X454882D01*
X444882Y340866D01*
X434882Y330866D01*
X424882D01*
X434882Y320866D01*
X424882Y310866D01*
X434882D01*
X444882Y300866D01*
Y308866D02*
X450882Y314866D01*
X456882D01*
X450882Y320866D01*
X456882Y326866D01*
X450882D01*
X444882Y332866D01*
X438882Y326866D01*
X432882D01*
X438882Y320866D01*
X432882Y314866D01*
X438882D01*
X444882Y308866D01*
X263779Y1415039D02*
X273779Y1425039D01*
X283779D01*
X273779Y1435039D01*
X283779Y1445039D01*
X273779D01*
X263779Y1455039D01*
X253780Y1445039D01*
X243780D01*
X253780Y1435039D01*
X243780Y1425039D01*
X253780D01*
X263779Y1415039D01*
Y1423039D02*
X269779Y1429039D01*
X275779D01*
X269779Y1435039D01*
X275779Y1441039D01*
X269779D01*
X263779Y1447039D01*
X257779Y1441039D01*
X251780D01*
X257779Y1435039D01*
X251780Y1429039D01*
X257779D01*
X263779Y1423039D01*
X1373032Y1330394D02*
X1383032Y1340394D01*
X1393032D01*
X1383032Y1350394D01*
X1393032Y1360394D01*
X1383032D01*
X1373032Y1370394D01*
X1363032Y1360394D01*
X1353032D01*
X1363032Y1350394D01*
X1353032Y1340394D01*
X1363032D01*
X1373032Y1330394D01*
Y1338394D02*
X1379032Y1344394D01*
X1385032D01*
X1379032Y1350394D01*
X1385032Y1356394D01*
X1379032D01*
X1373032Y1362394D01*
X1367032Y1356394D01*
X1361032D01*
X1367032Y1350394D01*
X1361032Y1344394D01*
X1367032D01*
X1373032Y1338394D01*
X481299Y881575D02*
X491299Y891575D01*
X501299D01*
X491299Y901575D01*
X501299Y911575D01*
X491299D01*
X481299Y921575D01*
X471299Y911575D01*
X461299D01*
X471299Y901575D01*
X461299Y891575D01*
X471299D01*
X481299Y881575D01*
Y889575D02*
X487299Y895575D01*
X493299D01*
X487299Y901575D01*
X493299Y907575D01*
X487299D01*
X481299Y913575D01*
X475299Y907575D01*
X469299D01*
X475299Y901575D01*
X469299Y895575D01*
X475299D01*
X481299Y889575D01*
D126*
X126299Y2322846D02*
G03*
X126299Y2322846I-20000J0D01*
G01*
X449134D02*
G03*
X449134Y2322846I-20000J0D01*
G01*
X651890Y437008D02*
G03*
X651890Y437008I-20000J0D01*
G01*
Y240157D02*
G03*
X651890Y240157I-20000J0D01*
G01*
X1144016D02*
G03*
X1144016Y240157I-20000J0D01*
G01*
Y437008D02*
G03*
X1144016Y437008I-20000J0D01*
G01*
D127*
X643890D02*
G03*
X643890Y437008I-12000J0D01*
G01*
Y240157D02*
G03*
X643890Y240157I-12000J0D01*
G01*
X1136016D02*
G03*
X1136016Y240157I-12000J0D01*
G01*
Y437008D02*
G03*
X1136016Y437008I-12000J0D01*
G01*
%TF.MD5,19c5fce5d3b4f7ec2e66aa765980fc69*%
M02*
