%TF.GenerationSoftware,Altium Limited,Altium Designer,23.4.1 (23)*%
G04 Layer_Physical_Order=4*
G04 Layer_Color=16711680*
%FSLAX26Y26*%
%MOIN*%
%TF.SameCoordinates,0B69EAEB-4B52-49E6-8846-B3B3CADC8916*%
%TF.FilePolarity,Positive*%
%TF.FileFunction,Copper,L4,Bot,Signal*%
%TF.Part,Single*%
G01*
G75*
%TA.AperFunction,SMDPad,CuDef*%
G04:AMPARAMS|DCode=10|XSize=39.37mil|YSize=31.496mil|CornerRadius=3.937mil|HoleSize=0mil|Usage=FLASHONLY|Rotation=270.000|XOffset=0mil|YOffset=0mil|HoleType=Round|Shape=RoundedRectangle|*
%AMROUNDEDRECTD10*
21,1,0.039370,0.023622,0,0,270.0*
21,1,0.031496,0.031496,0,0,270.0*
1,1,0.007874,-0.011811,-0.015748*
1,1,0.007874,-0.011811,0.015748*
1,1,0.007874,0.011811,0.015748*
1,1,0.007874,0.011811,-0.015748*
%
%ADD10ROUNDEDRECTD10*%
%ADD11R,0.057087X0.023622*%
%ADD12R,0.023228X0.017716*%
G04:AMPARAMS|DCode=13|XSize=68.898mil|YSize=43.307mil|CornerRadius=5.413mil|HoleSize=0mil|Usage=FLASHONLY|Rotation=0.000|XOffset=0mil|YOffset=0mil|HoleType=Round|Shape=RoundedRectangle|*
%AMROUNDEDRECTD13*
21,1,0.068898,0.032480,0,0,0.0*
21,1,0.058071,0.043307,0,0,0.0*
1,1,0.010827,0.029035,-0.016240*
1,1,0.010827,-0.029035,-0.016240*
1,1,0.010827,-0.029035,0.016240*
1,1,0.010827,0.029035,0.016240*
%
%ADD13ROUNDEDRECTD13*%
G04:AMPARAMS|DCode=14|XSize=59.055mil|YSize=45.276mil|CornerRadius=5.659mil|HoleSize=0mil|Usage=FLASHONLY|Rotation=270.000|XOffset=0mil|YOffset=0mil|HoleType=Round|Shape=RoundedRectangle|*
%AMROUNDEDRECTD14*
21,1,0.059055,0.033957,0,0,270.0*
21,1,0.047736,0.045276,0,0,270.0*
1,1,0.011319,-0.016978,-0.023868*
1,1,0.011319,-0.016978,0.023868*
1,1,0.011319,0.016978,0.023868*
1,1,0.011319,0.016978,-0.023868*
%
%ADD14ROUNDEDRECTD14*%
G04:AMPARAMS|DCode=16|XSize=59.055mil|YSize=45.276mil|CornerRadius=5.659mil|HoleSize=0mil|Usage=FLASHONLY|Rotation=0.000|XOffset=0mil|YOffset=0mil|HoleType=Round|Shape=RoundedRectangle|*
%AMROUNDEDRECTD16*
21,1,0.059055,0.033957,0,0,0.0*
21,1,0.047736,0.045276,0,0,0.0*
1,1,0.011319,0.023868,-0.016978*
1,1,0.011319,-0.023868,-0.016978*
1,1,0.011319,-0.023868,0.016978*
1,1,0.011319,0.023868,0.016978*
%
%ADD16ROUNDEDRECTD16*%
%ADD17R,0.066000X0.060000*%
G04:AMPARAMS|DCode=21|XSize=39.37mil|YSize=31.496mil|CornerRadius=3.937mil|HoleSize=0mil|Usage=FLASHONLY|Rotation=0.000|XOffset=0mil|YOffset=0mil|HoleType=Round|Shape=RoundedRectangle|*
%AMROUNDEDRECTD21*
21,1,0.039370,0.023622,0,0,0.0*
21,1,0.031496,0.031496,0,0,0.0*
1,1,0.007874,0.015748,-0.011811*
1,1,0.007874,-0.015748,-0.011811*
1,1,0.007874,-0.015748,0.011811*
1,1,0.007874,0.015748,0.011811*
%
%ADD21ROUNDEDRECTD21*%
%TA.AperFunction,Conductor*%
%ADD22C,0.009842*%
%ADD23C,0.039370*%
%ADD24C,0.029528*%
%ADD25C,0.019685*%
%TA.AperFunction,ComponentPad*%
%ADD26C,0.066000*%
%ADD27R,0.094488X0.051181*%
%ADD28O,0.157480X0.078740*%
%ADD29R,0.118110X0.078740*%
%ADD30O,0.086614X0.070866*%
%ADD31O,0.090551X0.137795*%
%ADD32O,0.070866X0.086614*%
%ADD33R,0.070866X0.086614*%
%ADD34C,0.078740*%
%ADD35R,0.055118X0.055118*%
%ADD36C,0.055118*%
%ADD37R,0.090551X0.188976*%
%ADD38R,0.169291X0.090551*%
%ADD39R,0.090551X0.169291*%
%ADD40C,0.060000*%
%ADD41R,0.060000X0.060000*%
%TA.AperFunction,ViaPad*%
%ADD42C,0.023622*%
%TA.AperFunction,SMDPad,CuDef*%
G04:AMPARAMS|DCode=43|XSize=68.898mil|YSize=43.307mil|CornerRadius=5.413mil|HoleSize=0mil|Usage=FLASHONLY|Rotation=270.000|XOffset=0mil|YOffset=0mil|HoleType=Round|Shape=RoundedRectangle|*
%AMROUNDEDRECTD43*
21,1,0.068898,0.032480,0,0,270.0*
21,1,0.058071,0.043307,0,0,270.0*
1,1,0.010827,-0.016240,-0.029035*
1,1,0.010827,-0.016240,0.029035*
1,1,0.010827,0.016240,0.029035*
1,1,0.010827,0.016240,-0.029035*
%
%ADD43ROUNDEDRECTD43*%
%ADD44R,0.022835X0.059843*%
%ADD45R,0.017716X0.023228*%
%ADD46R,0.059843X0.022835*%
%ADD47R,0.059843X0.023622*%
%ADD48R,0.035433X0.027559*%
%ADD49R,0.023622X0.023622*%
%ADD50R,0.023622X0.057087*%
G04:AMPARAMS|DCode=51|XSize=25.591mil|YSize=47.244mil|CornerRadius=1.919mil|HoleSize=0mil|Usage=FLASHONLY|Rotation=90.000|XOffset=0mil|YOffset=0mil|HoleType=Round|Shape=RoundedRectangle|*
%AMROUNDEDRECTD51*
21,1,0.025591,0.043406,0,0,90.0*
21,1,0.021752,0.047244,0,0,90.0*
1,1,0.003839,0.021703,0.010876*
1,1,0.003839,0.021703,-0.010876*
1,1,0.003839,-0.021703,-0.010876*
1,1,0.003839,-0.021703,0.010876*
%
%ADD51ROUNDEDRECTD51*%
%ADD52R,0.162992X0.049213*%
%ADD53R,0.048032X0.035827*%
%ADD54R,0.064961X0.116142*%
%ADD55R,0.049213X0.162992*%
G36*
X1800988Y3578520D02*
Y478833D01*
X1583858D01*
Y571654D01*
X1530998D01*
Y625984D01*
X1529126Y630504D01*
X1524606Y632376D01*
X1175481D01*
X1170961Y630504D01*
X1169089Y625984D01*
Y459490D01*
X1164089Y458150D01*
X1160245Y464808D01*
X1151816Y473237D01*
X1141492Y479198D01*
X1129976Y482284D01*
X1118055D01*
X1106540Y479198D01*
X1096216Y473237D01*
X1087786Y464808D01*
X1083903Y458082D01*
X672002D01*
X668119Y464808D01*
X659690Y473237D01*
X649365Y479198D01*
X637850Y482284D01*
X625929D01*
X614414Y479198D01*
X604090Y473237D01*
X595660Y464808D01*
X591777Y458082D01*
X566192D01*
X537916Y486358D01*
X531079Y490926D01*
X523014Y492531D01*
X479727D01*
X479644Y492947D01*
X477088Y496773D01*
X473262Y499329D01*
X468750Y500226D01*
X421014D01*
X416501Y499329D01*
X412676Y496773D01*
X410120Y492947D01*
X410037Y492531D01*
X365677D01*
Y500000D01*
X287866D01*
Y485169D01*
X164370D01*
Y500000D01*
X87599D01*
Y372047D01*
X164370D01*
Y443020D01*
X287866D01*
Y428189D01*
X365677D01*
Y450382D01*
X410037D01*
X410120Y449966D01*
X412676Y446140D01*
X416501Y443584D01*
X421014Y442687D01*
X468750D01*
X473262Y443584D01*
X477088Y446140D01*
X479644Y449966D01*
X479727Y450382D01*
X514285D01*
X542561Y422106D01*
X549398Y417538D01*
X557463Y415934D01*
X591777D01*
X595660Y409208D01*
X604090Y400778D01*
X614414Y394818D01*
X625929Y391732D01*
X637850D01*
X649365Y394818D01*
X659690Y400778D01*
X668119Y409208D01*
X672002Y415934D01*
X1083903D01*
X1087786Y409208D01*
X1096216Y400778D01*
X1106540Y394818D01*
X1118055Y391732D01*
X1129976D01*
X1141492Y394818D01*
X1151816Y400778D01*
X1160245Y409208D01*
X1164089Y415866D01*
X1169089Y414526D01*
Y324803D01*
X1170961Y320283D01*
X1175481Y318411D01*
X1277244D01*
X1277859Y317661D01*
X1279458Y313411D01*
X1278130Y311423D01*
X1277366Y307583D01*
Y283961D01*
X1278130Y280120D01*
X1280306Y276865D01*
X1282075Y275682D01*
Y251877D01*
X1280306Y250694D01*
X1278130Y247439D01*
X1277366Y243598D01*
Y219976D01*
X1276557Y218990D01*
X1250000D01*
X1245480Y217118D01*
X1243608Y212598D01*
Y91079D01*
X1245480Y86559D01*
X1250000Y84687D01*
X1451598D01*
X1452773Y85173D01*
X1454044D01*
X1454944Y86072D01*
X1456118Y86559D01*
X1456605Y87734D01*
X1457504Y88632D01*
X1459575Y93632D01*
Y93903D01*
X1460318Y95035D01*
X1462186Y96777D01*
X1464681Y97598D01*
X1466535Y97229D01*
X1468390Y97598D01*
X1470885Y96777D01*
X1472753Y95035D01*
X1473496Y93903D01*
Y93632D01*
X1475567Y88632D01*
X1476466Y87734D01*
X1476953Y86559D01*
X1478127Y86072D01*
X1479026Y85173D01*
X1480298D01*
X1481472Y84687D01*
X1502726D01*
Y74557D01*
X1503624Y70045D01*
X1506180Y66219D01*
X1510005Y63663D01*
X1514518Y62766D01*
X1548475D01*
X1552987Y63663D01*
X1556812Y66219D01*
X1559368Y70045D01*
X1560266Y74557D01*
Y84687D01*
X1579260D01*
Y74557D01*
X1580476Y68447D01*
X1583937Y63267D01*
X1589116Y59806D01*
X1595226Y58591D01*
X1607205D01*
Y98425D01*
X1617205D01*
Y58591D01*
X1629183D01*
X1635293Y59806D01*
X1640473Y63267D01*
X1643934Y68447D01*
X1645149Y74557D01*
Y84687D01*
X1717505D01*
X1719418Y80067D01*
X1649386Y10035D01*
X122267Y10035D01*
X-29335Y161637D01*
Y522401D01*
X-24335Y524472D01*
X15748Y484389D01*
Y478760D01*
X18445Y472248D01*
X23429Y467264D01*
X29941Y464567D01*
X36989D01*
X43500Y467264D01*
X48484Y472248D01*
X51181Y478760D01*
Y485808D01*
X48484Y492319D01*
X43500Y497303D01*
X36989Y500000D01*
X31359D01*
X-8646Y540005D01*
Y1511714D01*
X-7834Y1516378D01*
X-3646Y1516378D01*
X27087D01*
Y1538189D01*
Y1560000D01*
X-3646D01*
X-7834Y1560000D01*
X-8646Y1564664D01*
Y1570246D01*
X-3740Y1570473D01*
X-3646Y1570473D01*
X67913D01*
Y1605906D01*
X43126D01*
Y1620473D01*
X67913D01*
Y1655906D01*
X-3646D01*
X-3740Y1655906D01*
X-8646Y1656132D01*
Y1670246D01*
X-3740Y1670473D01*
X-3646Y1670473D01*
X67913D01*
Y1705906D01*
X26299D01*
Y1730122D01*
X27071D01*
X30911Y1730886D01*
X34167Y1733062D01*
X36342Y1736317D01*
X37106Y1740158D01*
Y1771653D01*
X36342Y1775494D01*
X34167Y1778749D01*
X30911Y1780925D01*
X27071Y1781689D01*
X26051D01*
Y1801193D01*
X29783Y1804925D01*
X32480Y1811437D01*
Y1818485D01*
X29783Y1824996D01*
X24799Y1829980D01*
X18288Y1832677D01*
X11240D01*
X4728Y1829980D01*
X-256Y1824996D01*
X-2953Y1818485D01*
Y1811437D01*
X-256Y1804925D01*
X3973Y1800697D01*
Y1781689D01*
X3449D01*
X-392Y1780925D01*
X-3647Y1778749D01*
X-8646Y1780268D01*
Y2561739D01*
X93594Y2663979D01*
X98213Y2662066D01*
Y2526575D01*
X99053Y2522350D01*
X101446Y2518769D01*
X208449Y2411766D01*
Y2135827D01*
X127966D01*
Y2037401D01*
X158265D01*
Y1801664D01*
X159106Y1797440D01*
X161499Y1793859D01*
X189280Y1766078D01*
Y1740158D01*
X190044Y1736317D01*
X192219Y1733062D01*
X195475Y1730886D01*
X199315Y1730122D01*
X222937D01*
X226777Y1730886D01*
X230033Y1733062D01*
X232208Y1736317D01*
X232972Y1740158D01*
Y1771653D01*
X232208Y1775494D01*
X230033Y1778749D01*
X226777Y1780925D01*
X222937Y1781689D01*
X204891D01*
X180343Y1806237D01*
Y2037401D01*
X208449D01*
Y1847441D01*
X209290Y1843217D01*
X211683Y1839635D01*
X250385Y1800933D01*
X253517Y1798841D01*
X254666Y1796067D01*
X259649Y1791083D01*
X260367Y1790786D01*
Y1781500D01*
X257475Y1780925D01*
X254219Y1778749D01*
X252044Y1775494D01*
X251280Y1771653D01*
Y1740158D01*
X252044Y1736317D01*
X254219Y1733062D01*
X257475Y1730886D01*
X261315Y1730122D01*
X284937D01*
X288777Y1730886D01*
X292033Y1733062D01*
X294208Y1736317D01*
X294972Y1740158D01*
Y1771653D01*
X294208Y1775494D01*
X292033Y1778749D01*
X288777Y1780925D01*
X284937Y1781689D01*
X282444D01*
Y1792247D01*
X286793Y1794528D01*
X288467Y1793296D01*
X290421Y1791342D01*
X296932Y1788645D01*
X303980D01*
X306800Y1789813D01*
X311800Y1786472D01*
Y1781646D01*
X308175Y1780925D01*
X304920Y1778749D01*
X302744Y1775494D01*
X301980Y1771653D01*
Y1740158D01*
X302744Y1736317D01*
X304920Y1733062D01*
X308175Y1730886D01*
X312016Y1730122D01*
X335638D01*
X339478Y1730886D01*
X342734Y1733062D01*
X344909Y1736317D01*
X345673Y1740158D01*
Y1771653D01*
X344909Y1775494D01*
X342734Y1778749D01*
X339478Y1780925D01*
X335638Y1781689D01*
X333877D01*
Y1799565D01*
X373076Y1838764D01*
X416151D01*
X418692Y1833764D01*
X416990Y1831217D01*
X415908Y1825780D01*
Y1818968D01*
X445866D01*
Y1813968D01*
X450866D01*
Y1787947D01*
X461614D01*
X463469Y1788316D01*
X465932Y1783708D01*
X456038Y1773815D01*
X430118D01*
X426278Y1773051D01*
X423022Y1770876D01*
X420847Y1767620D01*
X420083Y1763780D01*
Y1763007D01*
X407673D01*
Y1771653D01*
X406909Y1775494D01*
X404734Y1778749D01*
X401478Y1780925D01*
X397638Y1781689D01*
X374016D01*
X370175Y1780925D01*
X366920Y1778749D01*
X364744Y1775494D01*
X363980Y1771653D01*
Y1740158D01*
X364744Y1736317D01*
X366920Y1733062D01*
X370175Y1730886D01*
X374016Y1730122D01*
X397638D01*
X401478Y1730886D01*
X404734Y1733062D01*
X406909Y1736317D01*
X407673Y1740158D01*
Y1740930D01*
X420083D01*
Y1740158D01*
X420847Y1736317D01*
X423022Y1733062D01*
X426278Y1730886D01*
X430118Y1730122D01*
X461614D01*
X465454Y1730886D01*
X468710Y1733062D01*
X470885Y1736317D01*
X471649Y1740158D01*
Y1758188D01*
X475166Y1761089D01*
X479528Y1759226D01*
Y1732087D01*
X551181D01*
Y1751908D01*
X631085Y1831812D01*
X633478Y1835394D01*
X634318Y1839618D01*
Y1862306D01*
X710796Y1938784D01*
X728842D01*
X732683Y1939547D01*
X735938Y1941723D01*
X738114Y1944979D01*
X738878Y1948819D01*
Y1980315D01*
X738114Y1984155D01*
X735938Y1987411D01*
X732683Y1989586D01*
X728905Y1990338D01*
Y2101039D01*
X733718Y2102329D01*
X742589Y2107451D01*
X749833Y2114694D01*
X754955Y2123566D01*
X757606Y2133461D01*
Y2143705D01*
X754955Y2153600D01*
X749833Y2162471D01*
X742589Y2169715D01*
X733718Y2174837D01*
X723823Y2177488D01*
X713579D01*
X703684Y2174837D01*
X694812Y2169715D01*
X687569Y2162471D01*
X682447Y2153600D01*
X679795Y2143705D01*
Y2133461D01*
X682447Y2123566D01*
X687569Y2114694D01*
X694812Y2107451D01*
X703684Y2102329D01*
X706827Y2101486D01*
Y1990350D01*
X705221D01*
X701380Y1989586D01*
X698125Y1987411D01*
X695949Y1984155D01*
X695185Y1980315D01*
Y1954395D01*
X615474Y1874684D01*
X613081Y1871102D01*
X612241Y1866878D01*
Y1844190D01*
X555800Y1787750D01*
X551181Y1789664D01*
Y1817520D01*
X480824D01*
X479528Y1817520D01*
X475824Y1820650D01*
Y1825780D01*
X474742Y1831217D01*
X474520Y1831551D01*
X477589Y1835957D01*
X479528Y1835493D01*
Y1832087D01*
X551181D01*
Y1867520D01*
X479528D01*
Y1860842D01*
X368504D01*
X364279Y1860002D01*
X360698Y1857609D01*
X320477Y1817388D01*
X315475Y1816397D01*
X310492Y1821381D01*
X303980Y1824078D01*
X296932D01*
X290421Y1821381D01*
X288207Y1819168D01*
X285203Y1816569D01*
X281675Y1819168D01*
X279721Y1821122D01*
X273209Y1823819D01*
X266161D01*
X260901Y1821640D01*
X230527Y1852013D01*
Y2051087D01*
X235527Y2052784D01*
X238233Y2049257D01*
X246869Y2042631D01*
X256925Y2038466D01*
X267716Y2037045D01*
X278508Y2038466D01*
X288564Y2042631D01*
X297200Y2049257D01*
X303826Y2057892D01*
X307991Y2067948D01*
X308995Y2075575D01*
X324876D01*
X325880Y2067948D01*
X330046Y2057892D01*
X336672Y2049257D01*
X345307Y2042631D01*
X355363Y2038466D01*
X366155Y2037045D01*
X376946Y2038466D01*
X387002Y2042631D01*
X395638Y2049257D01*
X402264Y2057892D01*
X406429Y2067948D01*
X407850Y2078740D01*
Y2094488D01*
X406429Y2105280D01*
X402264Y2115336D01*
X395638Y2123971D01*
X387002Y2130597D01*
X376946Y2134763D01*
X366155Y2136183D01*
X355363Y2134763D01*
X345307Y2130597D01*
X336672Y2123971D01*
X330046Y2115336D01*
X325880Y2105280D01*
X324876Y2097653D01*
X308995D01*
X307991Y2105280D01*
X303826Y2115336D01*
X297200Y2123971D01*
X288564Y2130597D01*
X278508Y2134763D01*
X267716Y2136183D01*
X256925Y2134763D01*
X246869Y2130597D01*
X238233Y2123971D01*
X235527Y2120444D01*
X230527Y2122141D01*
Y2416339D01*
X229687Y2420563D01*
X227294Y2424144D01*
X120291Y2531147D01*
Y2537255D01*
X125291Y2538249D01*
X125308Y2538207D01*
X131934Y2529572D01*
X140570Y2522946D01*
X150626Y2518781D01*
X161417Y2517360D01*
X177165D01*
X187957Y2518781D01*
X198013Y2522946D01*
X206648Y2529572D01*
X213274Y2538207D01*
X217440Y2548264D01*
X218861Y2559055D01*
X217440Y2569847D01*
X213274Y2579903D01*
X206648Y2588538D01*
X198013Y2595164D01*
X187957Y2599330D01*
X177165Y2600750D01*
X161417D01*
X150626Y2599330D01*
X140570Y2595164D01*
X131934Y2588538D01*
X125308Y2579903D01*
X125291Y2579861D01*
X120291Y2580856D01*
Y2717360D01*
X184971Y2782041D01*
X187364Y2785622D01*
X188204Y2789846D01*
Y2897987D01*
X189824Y2899606D01*
X195453D01*
X201965Y2902303D01*
X206948Y2907287D01*
X209646Y2913799D01*
Y2920847D01*
X206948Y2927358D01*
X201965Y2932342D01*
X195453Y2935039D01*
X190501D01*
X188430Y2940039D01*
X233519Y2985128D01*
X238127Y2982666D01*
X237758Y2980811D01*
Y2974000D01*
X262716D01*
Y2995021D01*
X251969D01*
X250114Y2994652D01*
X247651Y2999260D01*
X257545Y3009154D01*
X283464D01*
X287305Y3009918D01*
X287479Y3010034D01*
X291339Y3011747D01*
X295198Y3010034D01*
X295372Y3009918D01*
X299213Y3009154D01*
X330709D01*
X334549Y3009918D01*
X337805Y3012093D01*
X339980Y3015349D01*
X340744Y3019189D01*
Y3042811D01*
X339980Y3046651D01*
X337805Y3049907D01*
X334549Y3052082D01*
X330709Y3052846D01*
X299213D01*
X295372Y3052082D01*
X295198Y3051966D01*
X291339Y3050253D01*
X287479Y3051966D01*
X287305Y3052082D01*
X283464Y3052846D01*
X251969D01*
X248128Y3052082D01*
X244873Y3049907D01*
X242697Y3046651D01*
X241933Y3042811D01*
Y3024765D01*
X232574Y3015406D01*
X227574Y3017477D01*
Y3037165D01*
X231555Y3041146D01*
X234252Y3047657D01*
Y3054705D01*
X231555Y3061217D01*
X226571Y3066200D01*
X220059Y3068898D01*
X213011D01*
X206500Y3066200D01*
X201516Y3061217D01*
X198819Y3054705D01*
Y3047657D01*
X201516Y3041146D01*
X205497Y3037165D01*
Y3016383D01*
X137864Y2948751D01*
X135471Y2945169D01*
X134631Y2940945D01*
Y2807465D01*
X127520Y2800354D01*
X122520Y2802425D01*
Y2806302D01*
X120073Y2815434D01*
X115346Y2823621D01*
X108661Y2830306D01*
X100473Y2835033D01*
X91341Y2837480D01*
X81887D01*
X72755Y2835033D01*
X64568Y2830306D01*
X57883Y2823621D01*
X53156Y2815434D01*
X50709Y2806302D01*
Y2796848D01*
X52499Y2790167D01*
X27338Y2765006D01*
X27337Y2765005D01*
X-7417Y2730251D01*
X-10897Y2725042D01*
X-12120Y2718898D01*
X-16968Y2718201D01*
X-21654D01*
X-24335Y2717667D01*
X-28011Y2719695D01*
X-29335Y2720884D01*
Y3085507D01*
X-24335Y3088727D01*
X-22638Y3088390D01*
X-3814D01*
X50400Y3034176D01*
Y3021733D01*
X50400Y3021732D01*
X50709Y3020181D01*
Y2965669D01*
X122520D01*
Y3037480D01*
X85833D01*
X82513Y3040827D01*
X81291Y3046971D01*
X77810Y3052180D01*
X77810Y3052180D01*
X18893Y3111097D01*
Y3122047D01*
X18130Y3125887D01*
X15954Y3129143D01*
X12698Y3131319D01*
X8858Y3132082D01*
X-22638D01*
X-24335Y3131745D01*
X-29335Y3134966D01*
Y3147507D01*
X-24335Y3150727D01*
X-22638Y3150390D01*
X8858D01*
X12698Y3151154D01*
X15954Y3153329D01*
X18130Y3156585D01*
X18893Y3160425D01*
Y3161197D01*
X261183D01*
X360812Y3061569D01*
Y3050984D01*
X354331D01*
Y2979331D01*
X361617D01*
Y2968262D01*
X358639Y2965284D01*
X355942Y2958772D01*
Y2951724D01*
X358639Y2945212D01*
X363622Y2940229D01*
X370134Y2937532D01*
X377182D01*
X380257Y2938805D01*
X385257Y2935464D01*
Y2929900D01*
X322180Y2866823D01*
X296260D01*
X292420Y2866059D01*
X289164Y2863883D01*
X288506Y2862899D01*
X285639D01*
X282384Y2865075D01*
X278543Y2865838D01*
X247047D01*
X243207Y2865075D01*
X239951Y2862899D01*
X237776Y2859643D01*
X237012Y2855803D01*
Y2832181D01*
X237776Y2828341D01*
X239951Y2825085D01*
X243207Y2822910D01*
X247047Y2822146D01*
X278543D01*
X282384Y2822910D01*
X285639Y2825085D01*
X286297Y2826069D01*
X289164D01*
X292420Y2823894D01*
X296260Y2823130D01*
X327756D01*
X331596Y2823894D01*
X334852Y2826069D01*
X337027Y2829325D01*
X337791Y2833165D01*
Y2851211D01*
X404101Y2917522D01*
X406494Y2921103D01*
X407335Y2925327D01*
Y2939016D01*
X412335Y2941087D01*
X413193Y2940229D01*
X419704Y2937532D01*
X426752D01*
X433264Y2940229D01*
X438248Y2945212D01*
X440945Y2951724D01*
Y2958772D01*
X438248Y2965284D01*
X433480Y2970051D01*
Y2979331D01*
X438976D01*
Y3050984D01*
X438976Y3050984D01*
X438977D01*
X440909Y3055219D01*
X453391Y3067701D01*
X545624D01*
X557341Y3055984D01*
X555270Y3050984D01*
X554331D01*
Y2979331D01*
X588976D01*
Y3050984D01*
X582692D01*
Y3057283D01*
X581852Y3061508D01*
X579459Y3065089D01*
X565718Y3078830D01*
X567632Y3083449D01*
X670128D01*
X693802Y3059776D01*
X691428Y3055079D01*
X676654D01*
Y3015158D01*
Y2975236D01*
X689271D01*
X691342Y2970236D01*
X565665Y2844560D01*
X563272Y2840979D01*
X562432Y2836754D01*
Y2833662D01*
X554331D01*
Y2762008D01*
X570333D01*
X572246Y2757389D01*
X568262Y2753405D01*
X560922D01*
X560749Y2753663D01*
X556924Y2756219D01*
X552412Y2757116D01*
X547741D01*
X543071Y2757914D01*
X543071Y2762116D01*
Y2792835D01*
X521654D01*
X500236D01*
Y2762628D01*
X497535Y2758067D01*
X495688Y2758067D01*
X491532D01*
X488976Y2762008D01*
X488976Y2763067D01*
Y2833662D01*
X454331D01*
Y2762008D01*
X466377D01*
X466958Y2761186D01*
X466817Y2755127D01*
X464642Y2751872D01*
X463878Y2748032D01*
Y2716535D01*
X464642Y2712695D01*
X466817Y2709439D01*
X470073Y2707264D01*
X473913Y2706500D01*
X497535D01*
X501376Y2707264D01*
X501663Y2707456D01*
X506663Y2704784D01*
Y2697589D01*
X507561Y2693076D01*
X510117Y2689251D01*
X513942Y2686695D01*
X518455Y2685797D01*
X552412D01*
X556924Y2686695D01*
X560749Y2689251D01*
X563305Y2693076D01*
X564203Y2697589D01*
Y2731327D01*
X572835D01*
X577059Y2732167D01*
X578197Y2732928D01*
X583197Y2730255D01*
Y2726457D01*
X616142D01*
X649086D01*
Y2745325D01*
X647871Y2751435D01*
X645960Y2754295D01*
X644410Y2756615D01*
X643964Y2757047D01*
X643071Y2757914D01*
X643071D01*
X643071Y2757914D01*
Y2792835D01*
X621654D01*
Y2802835D01*
X643071D01*
Y2837756D01*
X627069D01*
X625155Y2842375D01*
X698418Y2915638D01*
X703547D01*
Y2914866D01*
X704311Y2911026D01*
X706487Y2907770D01*
X709742Y2905595D01*
X713583Y2904831D01*
X738002D01*
X739915Y2900211D01*
X673365Y2833662D01*
X654331D01*
Y2762008D01*
X688976D01*
Y2818050D01*
X775757Y2904831D01*
X800197D01*
X804037Y2905595D01*
X807293Y2907770D01*
X809468Y2911026D01*
X810232Y2914866D01*
Y2938488D01*
X809468Y2942329D01*
X807293Y2945584D01*
X804037Y2947760D01*
X800197Y2948523D01*
X768701D01*
X764861Y2947760D01*
X761605Y2945584D01*
X759444Y2942350D01*
X759333Y2942329D01*
X754447D01*
X754336Y2942350D01*
X752175Y2945584D01*
X748919Y2947760D01*
X745079Y2948523D01*
X713583D01*
X709742Y2947760D01*
X706487Y2945584D01*
X704311Y2942329D01*
X703547Y2938488D01*
Y2937716D01*
X697115D01*
X695044Y2942716D01*
X719159Y2966831D01*
X745079D01*
X748919Y2967595D01*
X752175Y2969770D01*
X754336Y2973004D01*
X754447Y2973026D01*
X759333D01*
X759444Y2973004D01*
X761605Y2969770D01*
X764861Y2967595D01*
X768701Y2966831D01*
X800197D01*
X804037Y2967595D01*
X807293Y2969770D01*
X809468Y2973026D01*
X810232Y2976866D01*
Y3000488D01*
X809468Y3004329D01*
X807293Y3007584D01*
X804037Y3009760D01*
X800197Y3010523D01*
X774277D01*
X682506Y3102294D01*
X678925Y3104687D01*
X674701Y3105527D01*
X442296D01*
X438072Y3104687D01*
X434490Y3102294D01*
X388490Y3056294D01*
X387889Y3055394D01*
X382889Y3056911D01*
Y3064956D01*
X383086Y3065945D01*
X382246Y3070169D01*
X379853Y3073751D01*
X273562Y3180042D01*
X269980Y3182435D01*
X265756Y3183275D01*
X18893D01*
Y3184047D01*
X18130Y3187887D01*
X15954Y3191143D01*
X12698Y3193319D01*
X8858Y3194082D01*
X-22638D01*
X-24335Y3193745D01*
X-29335Y3196966D01*
Y3578520D01*
X122267Y3730122D01*
X1649386Y3730122D01*
X1800988Y3578520D01*
D02*
G37*
G36*
X1524606Y571654D02*
X1522835D01*
Y396851D01*
X1524606D01*
Y386126D01*
X1522325Y382711D01*
X1521427Y378199D01*
Y377373D01*
X1479331D01*
X1471266Y375769D01*
X1470344Y375153D01*
X1457628D01*
X1454575Y374546D01*
X1451987Y372817D01*
X1450257Y370228D01*
X1449650Y367175D01*
Y345423D01*
X1450257Y342370D01*
X1451987Y339782D01*
Y335415D01*
X1450257Y332827D01*
X1449650Y329774D01*
Y324803D01*
X1175481D01*
Y625984D01*
X1524606D01*
Y571654D01*
D02*
G37*
G36*
X1507942Y297313D02*
X1507943Y297312D01*
X1521758Y283497D01*
Y283033D01*
X1520414Y281689D01*
X1517717Y275178D01*
Y268130D01*
X1520414Y261618D01*
X1525398Y256634D01*
X1531909Y253937D01*
X1538957D01*
X1545469Y256634D01*
X1546876Y258041D01*
X1551876Y255970D01*
Y224409D01*
X1552049Y223991D01*
X1548721Y218990D01*
X1547439Y218459D01*
X1547394Y218468D01*
X1547287Y218397D01*
X1546998Y218277D01*
X1545169Y217913D01*
X1544806Y217369D01*
X1544201Y217118D01*
X1543752Y216035D01*
X1543327Y215750D01*
X1541858Y213552D01*
X1540716Y212789D01*
X1538740Y212396D01*
X1508504D01*
X1506528Y212789D01*
X1505386Y213552D01*
X1503917Y215750D01*
X1503492Y216035D01*
X1503043Y217118D01*
X1502438Y217369D01*
X1502075Y217913D01*
X1500246Y218277D01*
X1499957Y218397D01*
X1499850Y218468D01*
X1499805Y218459D01*
X1498523Y218990D01*
X1493603D01*
X1492321Y218459D01*
X1492276Y218468D01*
X1492169Y218397D01*
X1491880Y218277D01*
X1490051Y217913D01*
X1489688Y217369D01*
X1489083Y217118D01*
X1488634Y216035D01*
X1488208Y215750D01*
X1486739Y213552D01*
X1485598Y212789D01*
X1483622Y212396D01*
X1453386D01*
X1451410Y212789D01*
X1450268Y213552D01*
X1448799Y215750D01*
X1448374Y216035D01*
X1447925Y217118D01*
X1447320Y217369D01*
X1446957Y217913D01*
X1445128Y218277D01*
X1444839Y218397D01*
X1444732Y218468D01*
X1444687Y218459D01*
X1443405Y218990D01*
X1433297D01*
X1428777Y217118D01*
X1426905Y212598D01*
Y205108D01*
X1426378Y202460D01*
X1425235Y200749D01*
X1423524Y199606D01*
X1420876Y199079D01*
X1374399D01*
X1371751Y199606D01*
X1370040Y200749D01*
X1368897Y202460D01*
X1368370Y205108D01*
Y212598D01*
X1366498Y217118D01*
X1361978Y218990D01*
X1361715D01*
Y262642D01*
X1384892D01*
X1387945Y263249D01*
X1390533Y264979D01*
X1392263Y267567D01*
X1392870Y270620D01*
Y292372D01*
X1392308Y295197D01*
X1392289Y295469D01*
X1395088Y300197D01*
X1456857D01*
X1457628Y300043D01*
X1501033D01*
X1501805Y300197D01*
X1505058D01*
X1507942Y297313D01*
D02*
G37*
G36*
X1800988Y224409D02*
X1558268D01*
Y318671D01*
X1567175D01*
X1571688Y319569D01*
X1575513Y322125D01*
X1578069Y325950D01*
X1578967Y330463D01*
Y378199D01*
X1578069Y382711D01*
X1577583Y383439D01*
Y396851D01*
X1583858D01*
Y472441D01*
X1800988D01*
Y224409D01*
D02*
G37*
G36*
Y161637D02*
X1730430Y91079D01*
X1640975D01*
Y122293D01*
X1640077Y126806D01*
X1637521Y130631D01*
X1633696Y133187D01*
X1629183Y134085D01*
X1595226D01*
X1590714Y133187D01*
X1586889Y130631D01*
X1584332Y126806D01*
X1583435Y122293D01*
Y91079D01*
X1481472D01*
X1479401Y96079D01*
X1481555Y98232D01*
X1484252Y104744D01*
Y111792D01*
X1481555Y118303D01*
X1477574Y122284D01*
Y144004D01*
X1484252D01*
X1488092Y144768D01*
X1491348Y146943D01*
X1493523Y150199D01*
X1494287Y154039D01*
Y177661D01*
X1493523Y181502D01*
X1491348Y184757D01*
X1488092Y186933D01*
X1484252Y187697D01*
X1452756D01*
X1448916Y186933D01*
X1445660Y184757D01*
X1443485Y181502D01*
X1442721Y177661D01*
Y154039D01*
X1443485Y150199D01*
X1445660Y146943D01*
X1448916Y144768D01*
X1452756Y144004D01*
X1455497D01*
Y122284D01*
X1451516Y118303D01*
X1448819Y111792D01*
Y104744D01*
X1451516Y98232D01*
X1453669Y96079D01*
X1451598Y91079D01*
X1250000D01*
Y212598D01*
X1280728D01*
X1283561Y210705D01*
X1287402Y209941D01*
X1318898D01*
X1322738Y210705D01*
X1325572Y212598D01*
X1361978D01*
Y204478D01*
X1362876Y199966D01*
X1365432Y196141D01*
X1369257Y193584D01*
X1373770Y192687D01*
X1421506D01*
X1426018Y193584D01*
X1429844Y196141D01*
X1432400Y199966D01*
X1433297Y204478D01*
Y212598D01*
X1443405D01*
X1443485Y212199D01*
X1445660Y208943D01*
X1448916Y206768D01*
X1452756Y206004D01*
X1484252D01*
X1488092Y206768D01*
X1491348Y208943D01*
X1493523Y212199D01*
X1493603Y212598D01*
X1498523D01*
X1498603Y212199D01*
X1500778Y208943D01*
X1504034Y206768D01*
X1507874Y206004D01*
X1539370D01*
X1543210Y206768D01*
X1546466Y208943D01*
X1548641Y212199D01*
X1548721Y212598D01*
X1800988D01*
Y161637D01*
D02*
G37*
%LPC*%
G36*
X1548228Y3719488D02*
X1471457D01*
Y3671472D01*
X1307087D01*
X1302862Y3670632D01*
X1299281Y3668239D01*
X1109857Y3478815D01*
X1075980D01*
Y3479587D01*
X1075216Y3483427D01*
X1073041Y3486683D01*
X1069785Y3488858D01*
X1065945Y3489622D01*
X1034449D01*
X1030609Y3488858D01*
X1030435Y3488742D01*
X1026575Y3487028D01*
X1022715Y3488742D01*
X1022541Y3488858D01*
X1018701Y3489622D01*
X987205D01*
X983365Y3488858D01*
X983190Y3488742D01*
X979331Y3487028D01*
X975471Y3488742D01*
X975297Y3488858D01*
X971457Y3489622D01*
X939961D01*
X936120Y3488858D01*
X932865Y3486683D01*
X926806Y3486543D01*
X925984Y3487124D01*
Y3490354D01*
X869942D01*
X859587Y3500709D01*
X861659Y3505709D01*
X925984D01*
Y3510427D01*
X926806Y3511009D01*
X932865Y3510869D01*
X936120Y3508693D01*
X939961Y3507930D01*
X971457D01*
X975297Y3508693D01*
X975471Y3508810D01*
X979331Y3510523D01*
X983190Y3508810D01*
X983365Y3508693D01*
X987205Y3507930D01*
X1018701D01*
X1022541Y3508693D01*
X1024088Y3508386D01*
X1024401Y3507917D01*
X1029011Y3504836D01*
X1034449Y3503755D01*
X1045197D01*
Y3529776D01*
Y3555797D01*
X1034449D01*
X1029011Y3554715D01*
X1024401Y3551635D01*
X1024088Y3551166D01*
X1022541Y3550858D01*
X1018701Y3551622D01*
X987205D01*
X983365Y3550858D01*
X983190Y3550742D01*
X979331Y3549028D01*
X975471Y3550742D01*
X975297Y3550858D01*
X971457Y3551622D01*
X939961D01*
X936120Y3550858D01*
X932865Y3548683D01*
X930689Y3545427D01*
X930103Y3542481D01*
X925984Y3540354D01*
X863234D01*
X861163Y3545354D01*
X882525Y3566717D01*
X893504D01*
X893601Y3566736D01*
X916142D01*
X919982Y3567500D01*
X923238Y3569676D01*
X925413Y3572931D01*
X926177Y3576772D01*
Y3608268D01*
X925413Y3612108D01*
X923238Y3615364D01*
X919982Y3617539D01*
X916142Y3618303D01*
X892520D01*
X888679Y3617539D01*
X885424Y3615364D01*
X883248Y3612108D01*
X882484Y3608268D01*
Y3588795D01*
X877953D01*
X873728Y3587954D01*
X870147Y3585561D01*
X868796Y3584211D01*
X864177Y3586124D01*
Y3608268D01*
X863413Y3612108D01*
X861238Y3615364D01*
X857982Y3617539D01*
X854142Y3618303D01*
X830520D01*
X826679Y3617539D01*
X823424Y3615364D01*
X821248Y3612108D01*
X820484Y3608268D01*
Y3582348D01*
X779596Y3541459D01*
X777203Y3537878D01*
X776363Y3533654D01*
Y3311659D01*
X705058Y3240354D01*
X654719D01*
X652806Y3244974D01*
X655640Y3247809D01*
X658033Y3251390D01*
X658874Y3255614D01*
Y3255709D01*
X708661D01*
Y3290354D01*
X637492D01*
X636728Y3294195D01*
X634553Y3297450D01*
X632390Y3298895D01*
X632006Y3300590D01*
Y3302756D01*
X632390Y3304451D01*
X632499Y3304524D01*
X637008Y3305709D01*
X637008Y3305709D01*
Y3305709D01*
X637008Y3305709D01*
X708661D01*
Y3340354D01*
X637492D01*
Y3344488D01*
X636728Y3348329D01*
X634553Y3351584D01*
X634515Y3351884D01*
X637905Y3355709D01*
X708661D01*
Y3361747D01*
X714084D01*
X718311Y3357520D01*
X724822Y3354823D01*
X731870D01*
X738382Y3357520D01*
X743366Y3362504D01*
X746063Y3369015D01*
Y3376063D01*
X743366Y3382575D01*
X738382Y3387559D01*
X731870Y3390256D01*
X724822D01*
X718311Y3387559D01*
X714577Y3383824D01*
X708661D01*
Y3390354D01*
X637492D01*
Y3399606D01*
X639140Y3401614D01*
X667835D01*
Y3418032D01*
X632913D01*
Y3413353D01*
X627913Y3409551D01*
X627457Y3409642D01*
X603835D01*
X599994Y3408878D01*
X596739Y3406702D01*
X594563Y3403447D01*
X593799Y3399606D01*
Y3368110D01*
X594563Y3364270D01*
X596739Y3361014D01*
X599973Y3358853D01*
X599994Y3358742D01*
Y3353856D01*
X599973Y3353745D01*
X596739Y3351584D01*
X594563Y3348329D01*
X593799Y3344488D01*
Y3312992D01*
X594563Y3309152D01*
X596739Y3305896D01*
X598901Y3304451D01*
X599285Y3302756D01*
Y3300590D01*
X598901Y3298895D01*
X596739Y3297450D01*
X594563Y3294195D01*
X593799Y3290354D01*
Y3258858D01*
X594563Y3255018D01*
X596739Y3251762D01*
X599973Y3249601D01*
X599994Y3249490D01*
Y3244604D01*
X599973Y3244493D01*
X596739Y3242332D01*
X594563Y3239077D01*
X593799Y3235236D01*
Y3218776D01*
X593076D01*
X588851Y3217936D01*
X585270Y3215543D01*
X584286Y3214559D01*
X579667Y3216472D01*
Y3235236D01*
X578585Y3240674D01*
X576654Y3243565D01*
X575891Y3247047D01*
X576654Y3250530D01*
X578585Y3253420D01*
X579667Y3258858D01*
Y3269606D01*
X553646D01*
X527625D01*
Y3258858D01*
X528706Y3253420D01*
X530638Y3250530D01*
X531400Y3247047D01*
X530638Y3243565D01*
X528706Y3240674D01*
X527625Y3235236D01*
Y3224488D01*
X553646D01*
Y3214488D01*
X527625D01*
Y3203740D01*
X528706Y3198302D01*
X531787Y3193692D01*
X533610Y3192474D01*
X534240Y3189536D01*
X534159Y3186347D01*
X532563Y3183958D01*
X531799Y3180118D01*
Y3148622D01*
X532563Y3144782D01*
X534739Y3141526D01*
X537994Y3139351D01*
X541835Y3138587D01*
X565457D01*
X569297Y3139351D01*
X572553Y3141526D01*
X574728Y3144782D01*
X575492Y3148622D01*
Y3174542D01*
X594994Y3194044D01*
X596826Y3193286D01*
X597382Y3187644D01*
X596739Y3187214D01*
X594563Y3183958D01*
X593799Y3180118D01*
Y3148622D01*
X594563Y3144782D01*
X596739Y3141526D01*
X599994Y3139351D01*
X603835Y3138587D01*
X627457D01*
X631297Y3139351D01*
X632157Y3139925D01*
X635827Y3141113D01*
X639497Y3139925D01*
X640357Y3139351D01*
X644197Y3138587D01*
X667819D01*
X671659Y3139351D01*
X674915Y3141526D01*
X677090Y3144782D01*
X677854Y3148622D01*
Y3180118D01*
X677090Y3183958D01*
X674915Y3187214D01*
X671659Y3189390D01*
X667819Y3190153D01*
X667047D01*
Y3205709D01*
X708661D01*
Y3218003D01*
X709357D01*
X713581Y3218843D01*
X717163Y3221236D01*
X795207Y3299281D01*
X797600Y3302862D01*
X798440Y3307087D01*
Y3529081D01*
X836096Y3566736D01*
X844789D01*
X846703Y3562117D01*
X838651Y3554065D01*
X836258Y3550484D01*
X835418Y3546260D01*
Y3498228D01*
X836258Y3494004D01*
X838651Y3490423D01*
X854331Y3474743D01*
Y3455709D01*
X925984D01*
X925984Y3455709D01*
X930303Y3454065D01*
X930689Y3452124D01*
X932726Y3449076D01*
X932490Y3448118D01*
X931909Y3446956D01*
X928436Y3444449D01*
X895158D01*
Y3423032D01*
Y3401614D01*
X930078D01*
X930079Y3401614D01*
X930689Y3399703D01*
X931013Y3399219D01*
X931774Y3397266D01*
X932452Y3395177D01*
X931260Y3391506D01*
X930795Y3390810D01*
X925984Y3390354D01*
X925984Y3390355D01*
X925984Y3390354D01*
X854331D01*
Y3384070D01*
X847678D01*
X843697Y3388051D01*
X837185Y3390748D01*
X830137D01*
X823626Y3388051D01*
X818642Y3383067D01*
X815945Y3376555D01*
Y3369508D01*
X818642Y3362996D01*
X823626Y3358012D01*
X830137Y3355315D01*
X837185D01*
X843697Y3358012D01*
X847678Y3361993D01*
X854331D01*
Y3355709D01*
X925984D01*
X925984Y3355709D01*
X930216Y3353854D01*
X930689Y3351475D01*
X932865Y3348219D01*
X936120Y3346044D01*
X939961Y3345280D01*
X952283D01*
X954196Y3340660D01*
X947606Y3334070D01*
X925984D01*
Y3340354D01*
X854331D01*
Y3305709D01*
X925984D01*
Y3311993D01*
X952179D01*
X956403Y3312833D01*
X959984Y3315226D01*
X987552Y3342794D01*
X991913Y3345267D01*
X996523Y3342187D01*
X1001961Y3341105D01*
X1008771D01*
Y3371063D01*
X1018771D01*
Y3341105D01*
X1025583D01*
X1028252Y3341636D01*
X1033253Y3338122D01*
Y3304595D01*
X1028252Y3301772D01*
X1024110Y3302596D01*
X1017299D01*
Y3272638D01*
X1012299D01*
Y3267638D01*
X986278D01*
Y3264212D01*
X981659Y3262299D01*
X978278Y3265680D01*
X974697Y3268073D01*
X972145Y3268580D01*
Y3288386D01*
X971382Y3292226D01*
X969206Y3295482D01*
X965951Y3297657D01*
X962110Y3298421D01*
X938488D01*
X934648Y3297657D01*
X931392Y3295482D01*
X929829Y3293143D01*
X925984Y3290354D01*
X854331D01*
Y3255709D01*
X925984D01*
X929628Y3252434D01*
X931392Y3249794D01*
Y3246269D01*
X929628Y3243629D01*
X925984Y3240354D01*
X854331D01*
Y3205709D01*
X856087D01*
Y3101378D01*
X856928Y3097153D01*
X859320Y3093572D01*
X901348Y3051545D01*
Y3007628D01*
X902246Y3003116D01*
X904802Y2999290D01*
X908627Y2996734D01*
X913140Y2995836D01*
X947096D01*
X951609Y2996734D01*
X955434Y2999290D01*
X957990Y3003116D01*
X958888Y3007628D01*
Y3055364D01*
X957990Y3059877D01*
X955434Y3063702D01*
X955430Y3063705D01*
X956947Y3068705D01*
X966047D01*
X969888Y3069469D01*
X973143Y3071644D01*
X975319Y3074900D01*
X976082Y3078740D01*
Y3110236D01*
X975319Y3114077D01*
X973143Y3117332D01*
X969888Y3119508D01*
X966047Y3120271D01*
X942425D01*
X938585Y3119508D01*
X935329Y3117332D01*
X933154Y3114077D01*
X932444Y3110509D01*
X930936Y3109416D01*
X927390Y3107934D01*
X921831Y3110236D01*
X915052D01*
X914629Y3110364D01*
X910433Y3113846D01*
Y3118682D01*
X910272Y3119070D01*
X911209Y3120007D01*
X913602Y3123588D01*
X914442Y3127813D01*
Y3140608D01*
X914442Y3140608D01*
Y3143701D01*
X919488D01*
Y3147426D01*
X927165D01*
Y3143701D01*
X962205D01*
Y3173228D01*
X927165D01*
Y3169503D01*
X919488D01*
Y3173228D01*
X884449D01*
Y3143701D01*
X888875D01*
X892365Y3140608D01*
Y3132874D01*
X889192D01*
X883165Y3130377D01*
X878165Y3132194D01*
Y3205709D01*
X925984D01*
X929829Y3202920D01*
X931392Y3200581D01*
X934648Y3198406D01*
X938488Y3197642D01*
X962110D01*
X965951Y3198406D01*
X969206Y3200581D01*
X971382Y3203837D01*
X972145Y3207677D01*
Y3233519D01*
X977145Y3235590D01*
X982352Y3230383D01*
X985933Y3227990D01*
X990158Y3227150D01*
X990453D01*
Y3207677D01*
X991217Y3203837D01*
X993392Y3200581D01*
X996648Y3198406D01*
X1000488Y3197642D01*
X1024110D01*
X1027950Y3198406D01*
X1028253Y3198608D01*
X1033253Y3195935D01*
Y3179572D01*
X1026908Y3173228D01*
X1010236D01*
Y3159312D01*
X1008431Y3157506D01*
X1006038Y3153925D01*
X1005197Y3149701D01*
Y3120271D01*
X1004425D01*
X1000585Y3119508D01*
X997329Y3117332D01*
X995154Y3114077D01*
X994390Y3110236D01*
Y3078740D01*
X995154Y3074900D01*
X996987Y3072156D01*
X996400Y3069817D01*
X995047Y3067156D01*
X993848D01*
X989336Y3066258D01*
X985510Y3063702D01*
X982954Y3059877D01*
X982057Y3055364D01*
Y3007628D01*
X982954Y3003116D01*
X985510Y2999290D01*
X989336Y2996734D01*
X993848Y2995836D01*
X994770D01*
Y2712359D01*
X857558Y2575148D01*
X848823Y2577488D01*
X838579D01*
X828684Y2574837D01*
X819812Y2569715D01*
X812569Y2562471D01*
X807447Y2553600D01*
X804795Y2543705D01*
Y2533461D01*
X807447Y2523566D01*
X812569Y2514694D01*
X819812Y2507451D01*
X828684Y2502329D01*
X838579Y2499677D01*
X848823D01*
X858718Y2502329D01*
X867589Y2507451D01*
X874833Y2514694D01*
X879955Y2523566D01*
X882606Y2533461D01*
Y2543705D01*
X880266Y2552440D01*
X1022180Y2694355D01*
X1022180Y2694355D01*
X1025661Y2699564D01*
X1026284Y2702696D01*
X1031284Y2702204D01*
Y2611856D01*
X911766Y2492338D01*
X706571D01*
X705913Y2497338D01*
X710298Y2498513D01*
X720103Y2504174D01*
X728109Y2512180D01*
X733770Y2521985D01*
X736701Y2532922D01*
Y2533583D01*
X693701D01*
X650701D01*
Y2532922D01*
X653631Y2521985D01*
X659292Y2512180D01*
X667298Y2504174D01*
X677103Y2498513D01*
X681489Y2497338D01*
X680831Y2492338D01*
X356929D01*
X173226Y2676042D01*
Y2681671D01*
X170529Y2688183D01*
X165545Y2693166D01*
X159033Y2695863D01*
X151985D01*
X145474Y2693166D01*
X140490Y2688183D01*
X137793Y2681671D01*
Y2674623D01*
X140490Y2668111D01*
X145474Y2663128D01*
X151985Y2660430D01*
X157614D01*
X344551Y2473494D01*
X348133Y2471101D01*
X352357Y2470260D01*
X916339D01*
X920563Y2471101D01*
X924144Y2473494D01*
X1050128Y2599478D01*
X1052521Y2603059D01*
X1053362Y2607283D01*
Y2804971D01*
X1094109Y2845718D01*
X1098728Y2843805D01*
Y2820866D01*
X1099492Y2817026D01*
X1101668Y2813770D01*
X1104924Y2811595D01*
X1106433Y2811294D01*
X1107115Y2808009D01*
X1106961Y2806091D01*
X1103621Y2803859D01*
X1101065Y2800034D01*
X1100167Y2795522D01*
Y2761565D01*
X1101065Y2757052D01*
X1103621Y2753227D01*
X1107446Y2750671D01*
X1111959Y2749773D01*
X1159695D01*
X1164207Y2750671D01*
X1168033Y2753227D01*
X1170589Y2757052D01*
X1171486Y2761565D01*
Y2766860D01*
X1176486Y2768931D01*
X1177957Y2767461D01*
X1184468Y2764764D01*
X1191516D01*
X1198028Y2767461D01*
X1202874Y2772307D01*
X1203621Y2772278D01*
X1207874Y2771119D01*
Y2766535D01*
X1279527D01*
Y2775555D01*
X1291278D01*
X1292622Y2774211D01*
X1299133Y2771514D01*
X1306181D01*
X1312693Y2774211D01*
X1317677Y2779195D01*
X1320374Y2785706D01*
Y2792754D01*
X1317677Y2799266D01*
X1312693Y2804250D01*
X1306181Y2806947D01*
X1299133D01*
X1292622Y2804250D01*
X1287638Y2799266D01*
X1286962Y2797633D01*
X1279527D01*
Y2801181D01*
X1207874D01*
Y2793842D01*
X1203621Y2792682D01*
X1202874Y2792653D01*
X1198028Y2797500D01*
X1191516Y2800197D01*
X1184468D01*
X1177957Y2797500D01*
X1176338Y2795881D01*
X1176065Y2795860D01*
X1171058Y2797673D01*
X1170589Y2800034D01*
X1168033Y2803859D01*
X1164207Y2806416D01*
X1159695Y2807313D01*
X1138379D01*
X1137301Y2812313D01*
X1139482Y2813770D01*
X1141657Y2817026D01*
X1142421Y2820866D01*
Y2852362D01*
X1141657Y2856202D01*
X1139482Y2859458D01*
X1136247Y2861619D01*
X1136226Y2861730D01*
Y2866617D01*
X1136247Y2866727D01*
X1139482Y2868888D01*
X1141657Y2872144D01*
X1142421Y2875984D01*
Y2901904D01*
X1165502Y2924985D01*
X1171748D01*
X1171845Y2925004D01*
X1194386D01*
X1198226Y2925768D01*
X1201482Y2927943D01*
X1202874Y2930027D01*
X1207874Y2928721D01*
Y2916535D01*
X1279527D01*
Y2924394D01*
X1289724D01*
X1292130Y2921989D01*
X1298641Y2919291D01*
X1305689D01*
X1312201Y2921989D01*
X1317185Y2926972D01*
X1319882Y2933484D01*
Y2940532D01*
X1317185Y2947044D01*
X1312201Y2952027D01*
X1305689Y2954724D01*
X1298641D01*
X1292130Y2952027D01*
X1287146Y2947044D01*
X1286909Y2946472D01*
X1279527D01*
Y2951181D01*
X1209421D01*
X1207874Y2951181D01*
X1204421Y2954751D01*
Y2962441D01*
X1238701D01*
Y2983858D01*
Y3005276D01*
X1203780D01*
Y3002068D01*
X1198780Y3001074D01*
X1197106Y3005114D01*
X1192122Y3010098D01*
X1185611Y3012795D01*
X1178563D01*
X1172051Y3010098D01*
X1167067Y3005114D01*
X1164370Y2998603D01*
Y2991555D01*
X1167067Y2985043D01*
X1170605Y2981505D01*
X1170646Y2980241D01*
X1169894Y2976398D01*
X1166924Y2975807D01*
X1163668Y2973631D01*
X1161492Y2970376D01*
X1160728Y2966535D01*
Y2947023D01*
X1156705Y2946222D01*
X1153123Y2943829D01*
X1151215Y2941921D01*
X1146596Y2943834D01*
Y2945787D01*
X1120575D01*
X1094554D01*
Y2935039D01*
X1095636Y2929602D01*
X1098716Y2924991D01*
X1103326Y2921911D01*
X1104279Y2921722D01*
X1104786Y2917811D01*
X1104628Y2916554D01*
X1101668Y2914576D01*
X1099492Y2911321D01*
X1098728Y2907480D01*
Y2881560D01*
X1034517Y2817349D01*
X1032124Y2813768D01*
X1031883Y2812556D01*
X1026883Y2813048D01*
Y2995836D01*
X1027805D01*
X1032318Y2996734D01*
X1036143Y2999290D01*
X1038699Y3003116D01*
X1039597Y3007628D01*
Y3055364D01*
X1038699Y3059877D01*
X1036143Y3063702D01*
X1033948Y3065169D01*
X1033727Y3070403D01*
X1033857Y3070785D01*
X1035143Y3071644D01*
X1037319Y3074900D01*
X1038082Y3078740D01*
Y3110236D01*
X1037319Y3114077D01*
X1035143Y3117332D01*
X1031888Y3119508D01*
X1028047Y3120271D01*
X1027275D01*
Y3143701D01*
X1045275D01*
Y3160373D01*
X1052097Y3167194D01*
X1054490Y3170776D01*
X1055330Y3175000D01*
Y3388982D01*
X1054490Y3393206D01*
X1052097Y3396787D01*
X1036551Y3412333D01*
X1035618Y3412957D01*
Y3435039D01*
X1034854Y3438880D01*
X1033412Y3441038D01*
X1033799Y3442865D01*
X1034685Y3444655D01*
X1035699Y3445930D01*
X1065945D01*
X1069785Y3446693D01*
X1073041Y3448869D01*
X1075216Y3452124D01*
X1075980Y3455965D01*
Y3456737D01*
X1114429D01*
X1118654Y3457577D01*
X1122235Y3459970D01*
X1239828Y3577563D01*
X1244564Y3575228D01*
X1243473Y3566941D01*
Y3548319D01*
X1294225D01*
Y3622035D01*
X1290938Y3621602D01*
X1288603Y3626338D01*
X1311659Y3649394D01*
X1471457D01*
Y3591535D01*
X1548228D01*
Y3719488D01*
D02*
G37*
G36*
X1713674Y3622035D02*
Y3548319D01*
X1764427D01*
Y3566941D01*
X1762527Y3581370D01*
X1756957Y3594817D01*
X1748097Y3606364D01*
X1736551Y3615224D01*
X1723104Y3620794D01*
X1713674Y3622035D01*
D02*
G37*
G36*
X477454Y3622035D02*
Y3548319D01*
X528206D01*
Y3566941D01*
X526307Y3581370D01*
X520737Y3594817D01*
X511877Y3606364D01*
X500330Y3615224D01*
X486884Y3620794D01*
X477454Y3622035D01*
D02*
G37*
G36*
X467454Y3622035D02*
X458024Y3620794D01*
X444577Y3615224D01*
X433031Y3606364D01*
X424171Y3594817D01*
X418601Y3581370D01*
X416701Y3566941D01*
Y3548319D01*
X467454D01*
Y3622035D01*
D02*
G37*
G36*
X1703674D02*
X1694244Y3620794D01*
X1680798Y3615224D01*
X1669251Y3606364D01*
X1660391Y3594817D01*
X1654821Y3581370D01*
X1652922Y3566941D01*
Y3548319D01*
X1703674D01*
Y3622035D01*
D02*
G37*
G36*
X1304225D02*
Y3548319D01*
X1354978D01*
Y3566941D01*
X1353078Y3581370D01*
X1347509Y3594817D01*
X1338648Y3606364D01*
X1327102Y3615224D01*
X1313655Y3620794D01*
X1304225Y3622035D01*
D02*
G37*
G36*
X68005D02*
Y3548319D01*
X118757D01*
Y3566941D01*
X116858Y3581370D01*
X111288Y3594817D01*
X102428Y3606364D01*
X90881Y3615224D01*
X77435Y3620794D01*
X68005Y3622035D01*
D02*
G37*
G36*
X58005D02*
X48575Y3620794D01*
X35129Y3615224D01*
X23582Y3606364D01*
X14722Y3594817D01*
X9152Y3581370D01*
X7252Y3566941D01*
Y3548319D01*
X58005D01*
Y3622035D01*
D02*
G37*
G36*
X1065945Y3555797D02*
X1055197D01*
Y3534776D01*
X1080155D01*
Y3541587D01*
X1079073Y3547025D01*
X1075993Y3551635D01*
X1071383Y3554715D01*
X1065945Y3555797D01*
D02*
G37*
G36*
X678721Y3582677D02*
X671673D01*
X665161Y3579980D01*
X660178Y3574996D01*
X657480Y3568485D01*
Y3561437D01*
X660178Y3554925D01*
X664158Y3550945D01*
Y3540354D01*
X637008D01*
Y3505709D01*
X708661D01*
Y3540354D01*
X686236D01*
Y3550945D01*
X690216Y3554925D01*
X692913Y3561437D01*
Y3568485D01*
X690216Y3574996D01*
X685232Y3579980D01*
X678721Y3582677D01*
D02*
G37*
G36*
X1080155Y3524776D02*
X1055197D01*
Y3503755D01*
X1065945D01*
X1071383Y3504836D01*
X1075993Y3507917D01*
X1079073Y3512527D01*
X1080155Y3517965D01*
Y3524776D01*
D02*
G37*
G36*
X708661Y3490354D02*
X637008D01*
Y3483775D01*
X627894D01*
X624209Y3487460D01*
X617697Y3490157D01*
X610649D01*
X604138Y3487460D01*
X599154Y3482477D01*
X596457Y3475965D01*
Y3468917D01*
X599154Y3462405D01*
X604138Y3457422D01*
X610649Y3454724D01*
X617697D01*
X624209Y3457422D01*
X628485Y3461697D01*
X637008D01*
Y3455709D01*
X708661D01*
Y3490354D01*
D02*
G37*
G36*
X1552323Y3544449D02*
X1514842D01*
Y3481378D01*
X1552323D01*
Y3544449D01*
D02*
G37*
G36*
X1504842D02*
X1467362D01*
Y3481378D01*
X1504842D01*
Y3544449D01*
D02*
G37*
G36*
X467454Y3538319D02*
X416701D01*
Y3519697D01*
X418601Y3505267D01*
X424171Y3491820D01*
X433031Y3480274D01*
X444577Y3471414D01*
X458024Y3465844D01*
X467454Y3464602D01*
Y3538319D01*
D02*
G37*
G36*
X1764427D02*
X1713674D01*
Y3464602D01*
X1723104Y3465844D01*
X1736551Y3471414D01*
X1748097Y3480274D01*
X1756957Y3491820D01*
X1762527Y3505267D01*
X1764427Y3519697D01*
Y3538319D01*
D02*
G37*
G36*
X1354978Y3538319D02*
X1304225D01*
Y3464602D01*
X1313655Y3465844D01*
X1327102Y3471414D01*
X1338648Y3480274D01*
X1347509Y3491820D01*
X1353078Y3505267D01*
X1354978Y3519697D01*
Y3538319D01*
D02*
G37*
G36*
X1294225D02*
X1243473D01*
Y3519697D01*
X1245372Y3505267D01*
X1250942Y3491820D01*
X1259802Y3480274D01*
X1271349Y3471414D01*
X1284796Y3465844D01*
X1294225Y3464602D01*
Y3538319D01*
D02*
G37*
G36*
X118757D02*
X68005D01*
Y3464602D01*
X77435Y3465844D01*
X90881Y3471414D01*
X102428Y3480274D01*
X111288Y3491820D01*
X116858Y3505267D01*
X118757Y3519697D01*
Y3538319D01*
D02*
G37*
G36*
X58005D02*
X7252D01*
Y3519697D01*
X9152Y3505267D01*
X14722Y3491820D01*
X23582Y3480274D01*
X35129Y3471414D01*
X48575Y3465844D01*
X58005Y3464602D01*
Y3538319D01*
D02*
G37*
G36*
X1703674Y3538319D02*
X1652922D01*
Y3519697D01*
X1654821Y3505267D01*
X1660391Y3491820D01*
X1669251Y3480274D01*
X1680798Y3471414D01*
X1694244Y3465844D01*
X1703674Y3464602D01*
Y3538319D01*
D02*
G37*
G36*
X528206D02*
X477454D01*
Y3464602D01*
X486884Y3465844D01*
X500330Y3471414D01*
X511877Y3480274D01*
X520737Y3491820D01*
X526307Y3505267D01*
X528206Y3519697D01*
Y3538319D01*
D02*
G37*
G36*
X712756Y3444449D02*
X677835D01*
Y3428032D01*
X712756D01*
Y3444449D01*
D02*
G37*
G36*
X885158D02*
X850236D01*
Y3428032D01*
X885158D01*
Y3444449D01*
D02*
G37*
G36*
X667835D02*
X632913D01*
Y3428032D01*
X667835D01*
Y3444449D01*
D02*
G37*
G36*
X1552323Y3471378D02*
X1514842D01*
Y3408307D01*
X1552323D01*
Y3471378D01*
D02*
G37*
G36*
X1504842D02*
X1467362D01*
Y3408307D01*
X1504842D01*
Y3471378D01*
D02*
G37*
G36*
X885158Y3418032D02*
X850236D01*
Y3401614D01*
X885158D01*
Y3418032D01*
D02*
G37*
G36*
X712756D02*
X677835D01*
Y3401614D01*
X712756D01*
Y3418032D01*
D02*
G37*
G36*
X565457Y3413816D02*
X558645D01*
Y3388858D01*
X579667D01*
Y3399606D01*
X578585Y3405044D01*
X575505Y3409654D01*
X570895Y3412735D01*
X565457Y3413816D01*
D02*
G37*
G36*
X548645D02*
X541835D01*
X536397Y3412735D01*
X531787Y3409654D01*
X528706Y3405044D01*
X527625Y3399606D01*
Y3388858D01*
X548645D01*
Y3413816D01*
D02*
G37*
G36*
X579667Y3378858D02*
X553645D01*
X527625D01*
Y3368110D01*
X528706Y3362672D01*
X531787Y3358062D01*
X533610Y3356844D01*
X534240Y3353906D01*
X534159Y3350717D01*
X532563Y3348329D01*
X531799Y3344488D01*
Y3334858D01*
X335631D01*
X331407Y3334017D01*
X327826Y3331624D01*
X288330Y3292129D01*
X278521Y3296192D01*
X267729Y3297612D01*
X256938Y3296192D01*
X246882Y3292026D01*
X238246Y3285400D01*
X231620Y3276765D01*
X227455Y3266709D01*
X226034Y3255917D01*
Y3240169D01*
X227455Y3229378D01*
X231620Y3219321D01*
X238246Y3210686D01*
X246882Y3204060D01*
X256938Y3199894D01*
X267729Y3198474D01*
X278521Y3199894D01*
X288577Y3204060D01*
X297212Y3210686D01*
X303839Y3219321D01*
X308004Y3229378D01*
X309425Y3240169D01*
Y3255917D01*
X308004Y3266709D01*
X303941Y3276517D01*
X340204Y3312780D01*
X531842D01*
X532563Y3309152D01*
X533587Y3307619D01*
X533262Y3302120D01*
X532874Y3301129D01*
X531787Y3300402D01*
X528706Y3295792D01*
X527625Y3290354D01*
Y3279606D01*
X553646D01*
X579667D01*
Y3290354D01*
X578585Y3295792D01*
X575505Y3300402D01*
X574418Y3301129D01*
X574030Y3302120D01*
X573704Y3307619D01*
X574728Y3309152D01*
X575492Y3312992D01*
Y3344488D01*
X574728Y3348329D01*
X573132Y3350717D01*
X573051Y3353906D01*
X573681Y3356844D01*
X575505Y3358062D01*
X578585Y3362672D01*
X579667Y3368110D01*
Y3378858D01*
D02*
G37*
G36*
X1007299Y3302596D02*
X1000488D01*
X995050Y3301514D01*
X990440Y3298434D01*
X987360Y3293824D01*
X986278Y3288386D01*
Y3277638D01*
X1007299D01*
Y3302596D01*
D02*
G37*
G36*
X214737Y3301350D02*
X174304D01*
Y3253043D01*
X214737D01*
Y3301350D01*
D02*
G37*
G36*
X164304D02*
X123871D01*
Y3253043D01*
X164304D01*
Y3301350D01*
D02*
G37*
G36*
X1446863Y3297256D02*
X1364186D01*
Y3198831D01*
X1446863D01*
Y3297256D01*
D02*
G37*
G36*
X1602375Y3297612D02*
X1591584Y3296192D01*
X1581527Y3292026D01*
X1572892Y3285400D01*
X1566266Y3276765D01*
X1562101Y3266709D01*
X1560680Y3255917D01*
Y3240169D01*
X1562101Y3229378D01*
X1566266Y3219321D01*
X1572892Y3210686D01*
X1581527Y3204060D01*
X1591584Y3199894D01*
X1602375Y3198474D01*
X1613167Y3199894D01*
X1623223Y3204060D01*
X1631858Y3210686D01*
X1638484Y3219321D01*
X1642650Y3229378D01*
X1644070Y3240169D01*
Y3255917D01*
X1642650Y3266709D01*
X1638484Y3276765D01*
X1631858Y3285400D01*
X1623223Y3292026D01*
X1613167Y3296192D01*
X1602375Y3297612D01*
D02*
G37*
G36*
X1503950D02*
X1493158Y3296192D01*
X1483102Y3292026D01*
X1474467Y3285400D01*
X1467841Y3276765D01*
X1463675Y3266709D01*
X1462255Y3255917D01*
Y3240169D01*
X1463675Y3229378D01*
X1467841Y3219321D01*
X1474467Y3210686D01*
X1483102Y3204060D01*
X1493158Y3199894D01*
X1503950Y3198474D01*
X1514741Y3199894D01*
X1524797Y3204060D01*
X1533433Y3210686D01*
X1540059Y3219321D01*
X1544224Y3229378D01*
X1545645Y3240169D01*
Y3255917D01*
X1544224Y3266709D01*
X1540059Y3276765D01*
X1533433Y3285400D01*
X1524797Y3292026D01*
X1514741Y3296192D01*
X1503950Y3297612D01*
D02*
G37*
G36*
X366155D02*
X355363Y3296192D01*
X345307Y3292026D01*
X336672Y3285400D01*
X330046Y3276765D01*
X325880Y3266709D01*
X324459Y3255917D01*
Y3240169D01*
X325880Y3229378D01*
X330046Y3219321D01*
X336672Y3210686D01*
X345307Y3204060D01*
X355363Y3199894D01*
X366155Y3198474D01*
X376946Y3199894D01*
X387002Y3204060D01*
X395638Y3210686D01*
X402264Y3219321D01*
X406429Y3229378D01*
X407850Y3240169D01*
Y3255917D01*
X406429Y3266709D01*
X402264Y3276765D01*
X395638Y3285400D01*
X387002Y3292026D01*
X376946Y3296192D01*
X366155Y3297612D01*
D02*
G37*
G36*
X214737Y3243043D02*
X174304D01*
Y3194736D01*
X214737D01*
Y3243043D01*
D02*
G37*
G36*
X164304D02*
X123871D01*
Y3194736D01*
X164304D01*
Y3243043D01*
D02*
G37*
G36*
X729819Y3190153D02*
X706197D01*
X702357Y3189390D01*
X699101Y3187214D01*
X696926Y3183958D01*
X696162Y3180118D01*
Y3148622D01*
X696926Y3144782D01*
X699101Y3141526D01*
X702357Y3139351D01*
X706197Y3138587D01*
X729819D01*
X733659Y3139351D01*
X736915Y3141526D01*
X739090Y3144782D01*
X739616Y3147426D01*
X801378D01*
Y3143701D01*
X807367D01*
Y3131634D01*
X802894Y3127162D01*
X800197Y3120650D01*
Y3113602D01*
X802894Y3107090D01*
X807878Y3102107D01*
X814389Y3099410D01*
X821437D01*
X827949Y3102107D01*
X832933Y3107090D01*
X835630Y3113602D01*
Y3120650D01*
X832933Y3127162D01*
X829444Y3130650D01*
Y3143701D01*
X836417D01*
Y3173228D01*
X801378D01*
Y3169503D01*
X739854D01*
Y3180118D01*
X739090Y3183958D01*
X736915Y3187214D01*
X733659Y3189390D01*
X729819Y3190153D01*
D02*
G37*
G36*
X1591457Y3058990D02*
X1580709D01*
X1575271Y3057908D01*
X1570661Y3054827D01*
X1569442Y3053004D01*
X1566505Y3052374D01*
X1563315Y3052455D01*
X1560927Y3054051D01*
X1557086Y3054815D01*
X1525591D01*
X1521750Y3054051D01*
X1518495Y3051876D01*
X1516319Y3048620D01*
X1515555Y3044780D01*
Y3044452D01*
X1496850D01*
Y3051181D01*
X1425197D01*
Y3016535D01*
X1496850D01*
Y3022374D01*
X1515555D01*
Y3021157D01*
X1516319Y3017317D01*
X1518495Y3014061D01*
X1521750Y3011886D01*
X1525591Y3011122D01*
X1557086D01*
X1560927Y3011886D01*
X1563315Y3013482D01*
X1566505Y3013563D01*
X1569442Y3012933D01*
X1570661Y3011110D01*
X1575271Y3008029D01*
X1580709Y3006948D01*
X1591457D01*
Y3032968D01*
Y3058990D01*
D02*
G37*
G36*
X1283622Y3055276D02*
X1248701D01*
Y3038858D01*
X1283622D01*
Y3055276D01*
D02*
G37*
G36*
X1238701D02*
X1203780D01*
Y3038858D01*
X1238701D01*
Y3055276D01*
D02*
G37*
G36*
X643071Y3055079D02*
X626654D01*
Y3020158D01*
X643071D01*
Y3055079D01*
D02*
G37*
G36*
X666654D02*
X650236D01*
Y3020158D01*
X666654D01*
Y3055079D01*
D02*
G37*
G36*
X616654D02*
X600236D01*
Y3020158D01*
X616654D01*
Y3055079D01*
D02*
G37*
G36*
X1612205Y3058990D02*
X1601457D01*
Y3032968D01*
Y3006948D01*
X1612205D01*
X1617642Y3008029D01*
X1622253Y3011110D01*
X1623471Y3012933D01*
X1626409Y3013563D01*
X1629598Y3013482D01*
X1631986Y3011886D01*
X1635827Y3011122D01*
X1667323D01*
X1671163Y3011886D01*
X1674419Y3014061D01*
X1676594Y3017317D01*
X1677358Y3021157D01*
Y3021930D01*
X1684847D01*
Y3021157D01*
X1685611Y3017317D01*
X1687786Y3014061D01*
X1691042Y3011886D01*
X1694882Y3011122D01*
X1726378D01*
X1730218Y3011886D01*
X1733474Y3014061D01*
X1735649Y3017317D01*
X1736413Y3021157D01*
Y3021193D01*
X1759854D01*
X1764571Y3016477D01*
X1771082Y3013780D01*
X1778130D01*
X1784642Y3016477D01*
X1789626Y3021461D01*
X1792323Y3027972D01*
Y3035020D01*
X1789626Y3041532D01*
X1784642Y3046515D01*
X1778130Y3049213D01*
X1771082D01*
X1764571Y3046515D01*
X1761326Y3043271D01*
X1736413D01*
Y3044780D01*
X1735649Y3048620D01*
X1733474Y3051876D01*
X1730218Y3054051D01*
X1726378Y3054815D01*
X1694882D01*
X1691042Y3054051D01*
X1687786Y3051876D01*
X1685611Y3048620D01*
X1684847Y3044780D01*
Y3044007D01*
X1677358D01*
Y3044780D01*
X1676594Y3048620D01*
X1674419Y3051876D01*
X1671163Y3054051D01*
X1667323Y3054815D01*
X1635827D01*
X1631986Y3054051D01*
X1629598Y3052455D01*
X1626409Y3052374D01*
X1623471Y3053004D01*
X1622253Y3054827D01*
X1617642Y3057908D01*
X1612205Y3058990D01*
D02*
G37*
G36*
X1283622Y3028858D02*
X1248701D01*
Y3012441D01*
X1283622D01*
Y3028858D01*
D02*
G37*
G36*
X1238701D02*
X1203780D01*
Y3012441D01*
X1238701D01*
Y3028858D01*
D02*
G37*
G36*
X1500945Y3005276D02*
X1466023D01*
Y2988858D01*
X1500945D01*
Y3005276D01*
D02*
G37*
G36*
X1283622D02*
X1248701D01*
Y2988858D01*
X1283622D01*
Y3005276D01*
D02*
G37*
G36*
X1456023D02*
X1421102D01*
Y2988858D01*
X1456023D01*
Y3005276D01*
D02*
G37*
G36*
X1705630Y2996990D02*
X1694882D01*
X1689444Y2995908D01*
X1684834Y2992827D01*
X1681754Y2988217D01*
X1681564Y2987264D01*
X1677653Y2986757D01*
X1676397Y2986916D01*
X1674419Y2989876D01*
X1671163Y2992051D01*
X1667323Y2992815D01*
X1635827D01*
X1631986Y2992051D01*
X1628731Y2989876D01*
X1626570Y2986641D01*
X1626459Y2986620D01*
X1621572D01*
X1621462Y2986641D01*
X1619301Y2989876D01*
X1616045Y2992051D01*
X1612205Y2992815D01*
X1580709D01*
X1576868Y2992051D01*
X1573613Y2989876D01*
X1571452Y2986641D01*
X1571341Y2986620D01*
X1566455D01*
X1566343Y2986641D01*
X1564182Y2989876D01*
X1560927Y2992051D01*
X1557086Y2992815D01*
X1525591D01*
X1521750Y2992051D01*
X1518495Y2989876D01*
X1516319Y2986620D01*
X1515555Y2982780D01*
Y2959157D01*
X1516319Y2955317D01*
X1518495Y2952061D01*
X1521750Y2949886D01*
X1522950Y2949647D01*
Y2944549D01*
X1521750Y2944311D01*
X1518495Y2942135D01*
X1516319Y2938880D01*
X1515555Y2935039D01*
Y2930330D01*
X1498667D01*
X1496850Y2932147D01*
Y2951181D01*
X1425197D01*
Y2916535D01*
X1481239D01*
X1486289Y2911486D01*
X1488100Y2910276D01*
X1486583Y2905276D01*
X1466023D01*
Y2888858D01*
X1500945D01*
Y2903252D01*
X1500945Y2905276D01*
X1504712Y2908253D01*
X1515555D01*
Y2903543D01*
X1516319Y2899703D01*
X1518495Y2896447D01*
X1521750Y2894272D01*
X1525591Y2893508D01*
X1549213D01*
X1551290Y2893921D01*
X1553106Y2889184D01*
X1548957Y2885036D01*
X1546260Y2878524D01*
Y2871476D01*
X1548957Y2864964D01*
X1549797Y2864125D01*
X1543149Y2857476D01*
X1521654D01*
X1517813Y2856712D01*
X1514558Y2854537D01*
X1512382Y2851281D01*
X1511618Y2847441D01*
Y2815945D01*
X1512382Y2812105D01*
X1514558Y2808849D01*
X1516639Y2807458D01*
X1517813Y2806673D01*
X1520669Y2803026D01*
X1520669Y2770079D01*
X1550197D01*
Y2780308D01*
X1559055D01*
X1563280Y2781148D01*
X1566861Y2783541D01*
X1573761Y2790441D01*
X1576845Y2789431D01*
X1578547Y2788156D01*
Y2770828D01*
X1531564Y2723845D01*
X1530363Y2722047D01*
X1520669D01*
Y2703534D01*
X1519085Y2702231D01*
X1515669Y2700408D01*
X1512795Y2700980D01*
X1489173D01*
X1485333Y2700216D01*
X1482077Y2698041D01*
X1479902Y2694785D01*
X1479138Y2690945D01*
Y2659449D01*
X1479902Y2655608D01*
X1482077Y2652353D01*
X1485333Y2650177D01*
X1489173Y2649414D01*
X1489946D01*
Y2625984D01*
X1454724D01*
Y2607147D01*
X1436102Y2588524D01*
X1431102Y2588583D01*
X1431102Y2588583D01*
X1431102Y2588583D01*
X1407692D01*
Y2628294D01*
X1428812Y2649414D01*
X1450795D01*
X1454636Y2650177D01*
X1457891Y2652353D01*
X1460067Y2655608D01*
X1460831Y2659449D01*
Y2690945D01*
X1460067Y2694785D01*
X1457891Y2698041D01*
X1454636Y2700216D01*
X1450795Y2700980D01*
X1427173D01*
X1423333Y2700216D01*
X1420077Y2698041D01*
X1417902Y2694785D01*
X1417138Y2690945D01*
Y2668722D01*
X1416415Y2668239D01*
X1388848Y2640672D01*
X1386455Y2637090D01*
X1385615Y2632866D01*
Y2588583D01*
X1362205D01*
Y2581905D01*
X1353982D01*
X1337598Y2598289D01*
Y2617716D01*
X1308071D01*
Y2582677D01*
X1321987D01*
X1341604Y2563061D01*
X1345185Y2560668D01*
X1349409Y2559827D01*
X1362205D01*
Y2553150D01*
X1429906D01*
Y2457677D01*
X1430746Y2453453D01*
X1433139Y2449872D01*
X1490930Y2392081D01*
Y2360458D01*
X1472933D01*
X1468517Y2359579D01*
X1464773Y2357078D01*
X1462271Y2353334D01*
X1461392Y2348917D01*
Y2316437D01*
X1462271Y2312021D01*
X1464773Y2308276D01*
X1468517Y2305775D01*
X1472933Y2304896D01*
X1531004D01*
X1535420Y2305775D01*
X1539164Y2308276D01*
X1541666Y2312021D01*
X1542545Y2316437D01*
Y2348917D01*
X1541666Y2353334D01*
X1539164Y2357078D01*
X1535420Y2359579D01*
X1531004Y2360458D01*
X1513007D01*
Y2396654D01*
X1512167Y2400878D01*
X1509774Y2404459D01*
X1451984Y2462250D01*
Y2511883D01*
X1454725Y2515748D01*
X1523622D01*
Y2520143D01*
X1528622Y2520635D01*
X1529200Y2517729D01*
X1531702Y2513985D01*
X1535446Y2511483D01*
X1539862Y2510605D01*
X1572342D01*
X1576759Y2511483D01*
X1580503Y2513985D01*
X1583005Y2517729D01*
X1583883Y2522146D01*
Y2575880D01*
X1615075Y2607071D01*
X1716162D01*
X1720386Y2607912D01*
X1723967Y2610305D01*
X1763711Y2650048D01*
X1766104Y2653630D01*
X1766944Y2657854D01*
Y2734189D01*
X1773622D01*
Y2803087D01*
X1738189D01*
Y2734189D01*
X1744867D01*
Y2662426D01*
X1740840Y2658399D01*
X1736220Y2660313D01*
Y2710567D01*
X1705187D01*
X1700787Y2713011D01*
X1700787Y2715567D01*
Y2720059D01*
X1698090Y2726571D01*
X1695472Y2729189D01*
X1697543Y2734189D01*
X1698819D01*
Y2801735D01*
X1699228D01*
Y2826693D01*
X1678207D01*
Y2815945D01*
X1679289Y2810507D01*
X1680906Y2808087D01*
X1678261Y2803087D01*
X1663386D01*
Y2734189D01*
X1666675D01*
X1668862Y2729189D01*
X1666690Y2726838D01*
X1630114D01*
Y2726874D01*
X1629350Y2730714D01*
X1627175Y2733970D01*
X1623919Y2736145D01*
X1620079Y2736909D01*
X1588583D01*
X1584742Y2736145D01*
X1581487Y2733970D01*
X1579311Y2730714D01*
X1578547Y2726874D01*
Y2703252D01*
X1579311Y2699412D01*
X1581487Y2696156D01*
X1584742Y2693981D01*
X1588583Y2693217D01*
X1620079D01*
X1623919Y2693981D01*
X1627175Y2696156D01*
X1629350Y2699412D01*
X1630114Y2703252D01*
Y2704760D01*
X1669791D01*
X1673035Y2701516D01*
X1679547Y2698819D01*
X1686595D01*
X1693107Y2701516D01*
X1695787Y2704197D01*
X1700787Y2702126D01*
Y2678362D01*
X1577210D01*
X1550197Y2705375D01*
Y2707398D01*
X1550409Y2708465D01*
Y2711467D01*
X1594159Y2755217D01*
X1620079D01*
X1623919Y2755981D01*
X1627175Y2758156D01*
X1629350Y2761412D01*
X1630114Y2765252D01*
Y2788874D01*
X1629350Y2792714D01*
X1627175Y2795970D01*
X1623919Y2798145D01*
X1620079Y2798909D01*
X1592025D01*
X1589612Y2803909D01*
X1591203Y2805910D01*
X1607276D01*
X1611116Y2806673D01*
X1614372Y2808849D01*
X1616162Y2811529D01*
X1618847Y2811839D01*
X1621531Y2811529D01*
X1623321Y2808849D01*
X1626577Y2806673D01*
X1630417Y2805910D01*
X1654039D01*
X1657880Y2806673D01*
X1661135Y2808849D01*
X1663311Y2812105D01*
X1664075Y2815945D01*
Y2847441D01*
X1663311Y2851281D01*
X1661135Y2854537D01*
X1657880Y2856712D01*
X1654039Y2857476D01*
X1630417D01*
X1626577Y2856712D01*
X1623321Y2854537D01*
X1621531Y2851857D01*
X1618846Y2851547D01*
X1616162Y2851857D01*
X1614372Y2854537D01*
X1611768Y2856276D01*
X1611418Y2859063D01*
X1611755Y2861683D01*
X1612398Y2861949D01*
X1617381Y2866933D01*
X1620079Y2873445D01*
Y2880492D01*
X1617381Y2887004D01*
X1615185Y2889200D01*
X1615148Y2890617D01*
X1616331Y2895126D01*
X1618309Y2896447D01*
X1620484Y2899703D01*
X1621248Y2903543D01*
Y2935039D01*
X1620484Y2938880D01*
X1618309Y2942135D01*
X1615053Y2944311D01*
X1614349Y2944451D01*
Y2949549D01*
X1616045Y2949886D01*
X1619301Y2952061D01*
X1621462Y2955296D01*
X1621572Y2955317D01*
X1626459D01*
X1626570Y2955296D01*
X1628731Y2952061D01*
X1631986Y2949886D01*
X1635827Y2949122D01*
X1667323D01*
X1671163Y2949886D01*
X1674419Y2952061D01*
X1676397Y2955021D01*
X1677653Y2955180D01*
X1681564Y2954673D01*
X1681754Y2953720D01*
X1684834Y2949110D01*
X1689444Y2946029D01*
X1694882Y2944948D01*
X1705630D01*
Y2970968D01*
Y2996990D01*
D02*
G37*
G36*
X1726378D02*
X1715630D01*
Y2975968D01*
X1740588D01*
Y2982780D01*
X1739506Y2988217D01*
X1736426Y2992827D01*
X1731816Y2995908D01*
X1726378Y2996990D01*
D02*
G37*
G36*
X666654Y3010158D02*
X650236D01*
Y2975236D01*
X666654D01*
Y3010158D01*
D02*
G37*
G36*
X643071D02*
X626654D01*
Y2975236D01*
X643071D01*
Y3010158D01*
D02*
G37*
G36*
X616654D02*
X600236D01*
Y2975236D01*
X616654D01*
Y3010158D01*
D02*
G37*
G36*
X1500945Y2978858D02*
X1466023D01*
Y2962441D01*
X1500945D01*
Y2978858D01*
D02*
G37*
G36*
X1456023D02*
X1421102D01*
Y2962441D01*
X1456023D01*
Y2978858D01*
D02*
G37*
G36*
X1283622D02*
X1248701D01*
Y2962441D01*
X1283622D01*
Y2978858D01*
D02*
G37*
G36*
X1132386Y2980745D02*
X1125575D01*
Y2955787D01*
X1146596D01*
Y2966535D01*
X1145514Y2971973D01*
X1142434Y2976583D01*
X1137824Y2979664D01*
X1132386Y2980745D01*
D02*
G37*
G36*
X1115575D02*
X1108764D01*
X1103326Y2979664D01*
X1098716Y2976583D01*
X1095636Y2971973D01*
X1094554Y2966535D01*
Y2955787D01*
X1115575D01*
Y2980745D01*
D02*
G37*
G36*
X1740588Y2965968D02*
X1715630D01*
Y2944948D01*
X1726378D01*
X1731816Y2946029D01*
X1736426Y2949110D01*
X1739506Y2953720D01*
X1740588Y2959157D01*
Y2965968D01*
D02*
G37*
G36*
X262716Y2964000D02*
X237758D01*
Y2957189D01*
X238840Y2951751D01*
X241921Y2947141D01*
X246531Y2944061D01*
X251969Y2942979D01*
X262716D01*
Y2964000D01*
D02*
G37*
G36*
X538976Y3050984D02*
X504331D01*
Y2979331D01*
X509630D01*
Y2973662D01*
X504666Y2968697D01*
X501969Y2962185D01*
Y2955137D01*
X504666Y2948626D01*
X509649Y2943642D01*
X516161Y2940945D01*
X523209D01*
X529721Y2943642D01*
X534704Y2948626D01*
X537402Y2955137D01*
Y2962185D01*
X534704Y2968697D01*
X531708Y2971693D01*
Y2979331D01*
X538976D01*
Y3050984D01*
D02*
G37*
G36*
X283464Y2995021D02*
X272716D01*
Y2969000D01*
Y2942979D01*
X283464D01*
X288902Y2944061D01*
X293512Y2947141D01*
X293582Y2947245D01*
X298410Y2946979D01*
X299651Y2944640D01*
X300084Y2942154D01*
X299941Y2942011D01*
X297244Y2935499D01*
Y2928451D01*
X299941Y2921939D01*
X304925Y2916956D01*
X311437Y2914259D01*
X318485D01*
X324996Y2916956D01*
X329980Y2921939D01*
X332677Y2928451D01*
Y2935499D01*
X329980Y2942011D01*
X329837Y2942154D01*
X330271Y2944640D01*
X331709Y2947353D01*
X334549Y2947918D01*
X337805Y2950093D01*
X339980Y2953349D01*
X340744Y2957189D01*
Y2980811D01*
X339980Y2984651D01*
X337805Y2987907D01*
X334549Y2990082D01*
X330709Y2990846D01*
X299213D01*
X295372Y2990082D01*
X293826Y2990390D01*
X293512Y2990859D01*
X288902Y2993939D01*
X283464Y2995021D01*
D02*
G37*
G36*
X91880Y2941575D02*
X91614D01*
Y2906575D01*
X126614D01*
Y2906841D01*
X123888Y2917014D01*
X118622Y2926135D01*
X111175Y2933583D01*
X102054Y2938849D01*
X91880Y2941575D01*
D02*
G37*
G36*
X81614D02*
X81348D01*
X71175Y2938849D01*
X62054Y2933583D01*
X54606Y2926135D01*
X49340Y2917014D01*
X46614Y2906841D01*
Y2906575D01*
X81614D01*
Y2941575D01*
D02*
G37*
G36*
X1456023Y2905276D02*
X1421102D01*
Y2888858D01*
X1456023D01*
Y2905276D01*
D02*
G37*
G36*
X1194386Y2917516D02*
X1170764D01*
X1166924Y2916752D01*
X1163668Y2914576D01*
X1161492Y2911321D01*
X1160728Y2907480D01*
Y2875984D01*
X1161492Y2872144D01*
X1163668Y2868888D01*
X1166902Y2866727D01*
X1166923Y2866617D01*
Y2861730D01*
X1166902Y2861619D01*
X1163668Y2859458D01*
X1161492Y2856202D01*
X1160728Y2852362D01*
Y2820866D01*
X1161492Y2817026D01*
X1163668Y2813770D01*
X1166924Y2811595D01*
X1170764Y2810831D01*
X1194386D01*
X1198226Y2811595D01*
X1201482Y2813770D01*
X1203048Y2816115D01*
X1207874Y2816535D01*
X1207874Y2816535D01*
X1207874Y2816535D01*
X1279527D01*
Y2822819D01*
X1308223D01*
X1354990Y2776053D01*
X1358571Y2773660D01*
X1362795Y2772819D01*
X1425197D01*
Y2766535D01*
X1496850D01*
Y2801181D01*
X1425197D01*
Y2794897D01*
X1367368D01*
X1320601Y2841664D01*
X1317020Y2844057D01*
X1312795Y2844897D01*
X1279527D01*
Y2851181D01*
X1207874D01*
X1204078Y2854087D01*
X1203657Y2856202D01*
X1201482Y2859458D01*
X1198248Y2861619D01*
X1198226Y2861730D01*
Y2866617D01*
X1198248Y2866727D01*
X1201482Y2868888D01*
X1202874Y2870972D01*
X1207874Y2869666D01*
Y2866535D01*
X1279527D01*
Y2901181D01*
X1207874D01*
X1204421Y2904751D01*
Y2907480D01*
X1203657Y2911321D01*
X1201482Y2914576D01*
X1198226Y2916752D01*
X1194386Y2917516D01*
D02*
G37*
G36*
X1500945Y2878858D02*
X1466023D01*
Y2862441D01*
X1500945D01*
Y2878858D01*
D02*
G37*
G36*
X1456023D02*
X1421102D01*
Y2862441D01*
X1456023D01*
Y2878858D01*
D02*
G37*
G36*
X126614Y2896575D02*
X91614D01*
Y2861575D01*
X91880D01*
X102054Y2864301D01*
X111175Y2869567D01*
X118622Y2877014D01*
X123888Y2886135D01*
X126614Y2896309D01*
Y2896575D01*
D02*
G37*
G36*
X81614D02*
X46614D01*
Y2896309D01*
X49340Y2886135D01*
X54606Y2877014D01*
X62054Y2869567D01*
X71175Y2864301D01*
X81348Y2861575D01*
X81614D01*
Y2896575D01*
D02*
G37*
G36*
X1716039Y2861651D02*
X1709228D01*
Y2836693D01*
X1730249D01*
Y2847441D01*
X1729168Y2852879D01*
X1726087Y2857489D01*
X1721477Y2860569D01*
X1716039Y2861651D01*
D02*
G37*
G36*
X1699228D02*
X1692417D01*
X1686979Y2860569D01*
X1682369Y2857489D01*
X1679289Y2852879D01*
X1678207Y2847441D01*
Y2836693D01*
X1699228D01*
Y2861651D01*
D02*
G37*
G36*
X1496850Y2851181D02*
X1425197D01*
Y2816535D01*
X1496850D01*
Y2851181D01*
D02*
G37*
G36*
X543071Y2837756D02*
X526654D01*
Y2802835D01*
X543071D01*
Y2837756D01*
D02*
G37*
G36*
X516654D02*
X500236D01*
Y2802835D01*
X516654D01*
Y2837756D01*
D02*
G37*
G36*
X1730249Y2826693D02*
X1709228D01*
Y2801735D01*
X1716039D01*
X1721477Y2802817D01*
X1726087Y2805897D01*
X1729168Y2810507D01*
X1730249Y2815945D01*
Y2826693D01*
D02*
G37*
G36*
X257795Y2808013D02*
X247047D01*
X241609Y2806931D01*
X236999Y2803851D01*
X233919Y2799241D01*
X232837Y2793803D01*
Y2786992D01*
X257795D01*
Y2808013D01*
D02*
G37*
G36*
X840827Y2793450D02*
Y2760905D01*
X873371D01*
X870826Y2770403D01*
X865881Y2778967D01*
X858889Y2785960D01*
X850324Y2790905D01*
X840827Y2793450D01*
D02*
G37*
G36*
X830827D02*
X821330Y2790905D01*
X812765Y2785960D01*
X805772Y2778967D01*
X800827Y2770403D01*
X798283Y2760905D01*
X830827D01*
Y2793450D01*
D02*
G37*
G36*
X1496850Y2751181D02*
X1425197D01*
Y2749619D01*
X1398551D01*
X1395256Y2750984D01*
X1388208D01*
X1381697Y2748287D01*
X1376713Y2743303D01*
X1374016Y2736792D01*
Y2729744D01*
X1376713Y2723232D01*
X1381697Y2718248D01*
X1388208Y2715551D01*
X1395256D01*
X1399977Y2717506D01*
X1425197D01*
Y2716535D01*
X1496850D01*
Y2751181D01*
D02*
G37*
G36*
X1303721Y2755905D02*
X1296673D01*
X1290161Y2753208D01*
X1285178Y2748225D01*
X1284696Y2747062D01*
X1279527D01*
Y2751181D01*
X1207874D01*
Y2716535D01*
X1251756D01*
Y2700980D01*
X1247047D01*
X1243207Y2700216D01*
X1243035Y2700101D01*
X1236426Y2700993D01*
X1231816Y2704073D01*
X1226378Y2705155D01*
X1215630D01*
Y2679133D01*
Y2653113D01*
X1226378D01*
X1231816Y2654195D01*
X1236426Y2657275D01*
X1243035Y2658166D01*
X1243207Y2658051D01*
X1247047Y2657287D01*
X1278543D01*
X1282383Y2658051D01*
X1285639Y2660227D01*
X1287815Y2663483D01*
X1288579Y2667323D01*
Y2690945D01*
X1287815Y2694785D01*
X1285639Y2698041D01*
X1282383Y2700216D01*
X1278543Y2700980D01*
X1273834D01*
Y2716535D01*
X1279527D01*
Y2724985D01*
X1288346D01*
X1290161Y2723170D01*
X1296673Y2720472D01*
X1303721D01*
X1310233Y2723170D01*
X1315216Y2728153D01*
X1317913Y2734665D01*
Y2741713D01*
X1315216Y2748225D01*
X1310233Y2753208D01*
X1303721Y2755905D01*
D02*
G37*
G36*
X969291Y2789370D02*
X902362D01*
Y2722441D01*
X969291D01*
Y2789370D01*
D02*
G37*
G36*
X873371Y2750905D02*
X840827D01*
Y2718361D01*
X850324Y2720906D01*
X858889Y2725851D01*
X865881Y2732844D01*
X870826Y2741408D01*
X873371Y2750905D01*
D02*
G37*
G36*
X830827D02*
X798283D01*
X800827Y2741408D01*
X805772Y2732844D01*
X812765Y2725851D01*
X821330Y2720906D01*
X830827Y2718361D01*
Y2750905D01*
D02*
G37*
G36*
X488976Y3050984D02*
X454331D01*
Y2979331D01*
X460615D01*
Y2901443D01*
X413848Y2854676D01*
X411455Y2851095D01*
X410615Y2846870D01*
Y2833662D01*
X404331D01*
Y2762008D01*
X404377D01*
X404958Y2761186D01*
X404817Y2755127D01*
X402642Y2751872D01*
X401878Y2748032D01*
Y2719517D01*
X396878Y2717446D01*
X387907Y2726417D01*
Y2762008D01*
X388976D01*
Y2833662D01*
X354331D01*
Y2762008D01*
X355794D01*
Y2719767D01*
X355794Y2719766D01*
X357016Y2713622D01*
X359447Y2709983D01*
X355564Y2706796D01*
X339264Y2723096D01*
Y2749016D01*
X338500Y2752856D01*
X336324Y2756112D01*
X334003Y2757663D01*
X333438Y2761428D01*
X333654Y2763269D01*
X334852Y2764069D01*
X337027Y2767325D01*
X337791Y2771165D01*
Y2794787D01*
X337027Y2798628D01*
X334852Y2801883D01*
X331596Y2804059D01*
X327756Y2804823D01*
X296260D01*
X292420Y2804059D01*
X291302Y2803312D01*
X288591Y2803851D01*
X283981Y2806931D01*
X278543Y2808013D01*
X267795D01*
Y2781992D01*
X262795D01*
Y2776992D01*
X232837D01*
Y2770181D01*
X233919Y2764743D01*
X236431Y2760983D01*
X233558Y2759064D01*
X230478Y2754454D01*
X229396Y2749016D01*
Y2738268D01*
X255417D01*
X281438D01*
Y2749016D01*
X280357Y2754454D01*
X284432Y2757354D01*
X288591Y2760133D01*
X289361Y2761286D01*
X292420Y2761894D01*
X296260Y2761130D01*
X297021D01*
X298538Y2756130D01*
X298510Y2756112D01*
X296335Y2752856D01*
X295571Y2749016D01*
Y2717520D01*
X296335Y2713679D01*
X298510Y2710424D01*
X301766Y2708248D01*
X305606Y2707484D01*
X323652D01*
X355103Y2676034D01*
Y2600334D01*
X347476Y2599330D01*
X337420Y2595164D01*
X328785Y2588538D01*
X322159Y2579903D01*
X317993Y2569847D01*
X316572Y2559055D01*
X317993Y2548264D01*
X322159Y2538207D01*
X328785Y2529572D01*
X337420Y2522946D01*
X347476Y2518781D01*
X358268Y2517360D01*
X374016D01*
X384807Y2518781D01*
X394863Y2522946D01*
X403499Y2529572D01*
X410125Y2538207D01*
X414290Y2548264D01*
X415711Y2559055D01*
X414290Y2569847D01*
X410125Y2579903D01*
X403499Y2588538D01*
X394863Y2595164D01*
X384807Y2599330D01*
X377180Y2600334D01*
Y2680606D01*
X377022Y2681403D01*
X381630Y2683866D01*
X383665Y2681831D01*
X390177Y2679134D01*
X397225D01*
X403736Y2681831D01*
X408720Y2686815D01*
X411417Y2693326D01*
Y2700374D01*
X410909Y2701602D01*
X411070Y2702388D01*
X414292Y2706500D01*
X435535D01*
X439376Y2707264D01*
X442631Y2709439D01*
X444807Y2712695D01*
X445571Y2716535D01*
Y2748032D01*
X444807Y2751872D01*
X442631Y2755128D01*
X439495Y2757223D01*
X438976Y2762008D01*
X438977Y2762008D01*
X438976Y2762008D01*
Y2833662D01*
X432692D01*
Y2842298D01*
X479459Y2889065D01*
X481852Y2892646D01*
X482692Y2896870D01*
Y2979331D01*
X488976D01*
Y3050984D01*
D02*
G37*
G36*
X281438Y2728268D02*
X260417D01*
Y2703310D01*
X267228D01*
X272666Y2704391D01*
X277276Y2707472D01*
X280357Y2712082D01*
X281438Y2717520D01*
Y2728268D01*
D02*
G37*
G36*
X250417D02*
X229396D01*
Y2717520D01*
X230478Y2712082D01*
X233558Y2707472D01*
X238168Y2704391D01*
X243606Y2703310D01*
X250417D01*
Y2728268D01*
D02*
G37*
G36*
X1159695Y2730779D02*
X1140827D01*
Y2702834D01*
X1175661D01*
Y2714813D01*
X1174446Y2720923D01*
X1170985Y2726103D01*
X1165805Y2729564D01*
X1159695Y2730779D01*
D02*
G37*
G36*
X1130827D02*
X1111959D01*
X1105849Y2729564D01*
X1100669Y2726103D01*
X1097208Y2720923D01*
X1095992Y2714813D01*
Y2702834D01*
X1130827D01*
Y2730779D01*
D02*
G37*
G36*
X1205630Y2705155D02*
X1194882D01*
X1189444Y2704073D01*
X1184834Y2700993D01*
X1181754Y2696383D01*
X1180672Y2690945D01*
Y2684133D01*
X1205630D01*
Y2705155D01*
D02*
G37*
G36*
X649086Y2716457D02*
X621142D01*
Y2681622D01*
X633120D01*
X639230Y2682838D01*
X644410Y2686299D01*
X647871Y2691479D01*
X649086Y2697589D01*
Y2716457D01*
D02*
G37*
G36*
X611142D02*
X583197D01*
Y2697589D01*
X584413Y2691479D01*
X587874Y2686299D01*
X593053Y2682838D01*
X599163Y2681622D01*
X611142D01*
Y2716457D01*
D02*
G37*
G36*
X1175661Y2692834D02*
X1140827D01*
Y2664890D01*
X1159695D01*
X1165805Y2666105D01*
X1170985Y2669566D01*
X1174446Y2674746D01*
X1175661Y2680856D01*
Y2692834D01*
D02*
G37*
G36*
X1130827D02*
X1095992D01*
Y2680856D01*
X1097208Y2674746D01*
X1100669Y2669566D01*
X1105849Y2666105D01*
X1111959Y2664890D01*
X1130827D01*
Y2692834D01*
D02*
G37*
G36*
X1205630Y2674133D02*
X1180672D01*
Y2667323D01*
X1181754Y2661885D01*
X1184834Y2657275D01*
X1189444Y2654195D01*
X1194882Y2653113D01*
X1205630D01*
Y2674133D01*
D02*
G37*
G36*
X1337598Y2700787D02*
X1308071D01*
Y2680397D01*
X1307859Y2679331D01*
Y2673872D01*
X1272967Y2638980D01*
X1247047D01*
X1243207Y2638216D01*
X1239951Y2636041D01*
X1239719Y2635694D01*
X1233706D01*
X1233474Y2636041D01*
X1230218Y2638216D01*
X1226378Y2638980D01*
X1194882D01*
X1191042Y2638216D01*
X1187786Y2636041D01*
X1185611Y2632785D01*
X1184847Y2628945D01*
Y2605323D01*
X1185611Y2601483D01*
X1187786Y2598227D01*
X1191042Y2596051D01*
X1194882Y2595287D01*
X1226378D01*
X1230218Y2596051D01*
X1233474Y2598227D01*
X1233706Y2598574D01*
X1239719D01*
X1239951Y2598227D01*
X1243207Y2596051D01*
X1247047Y2595287D01*
X1278543D01*
X1282383Y2596051D01*
X1285639Y2598227D01*
X1287815Y2601483D01*
X1288579Y2605323D01*
Y2623369D01*
X1326703Y2661494D01*
X1329096Y2665075D01*
X1329230Y2665748D01*
X1337598D01*
Y2700787D01*
D02*
G37*
G36*
X699362Y2581583D02*
X698701D01*
Y2543583D01*
X736701D01*
Y2544244D01*
X733770Y2555180D01*
X728109Y2564985D01*
X720103Y2572991D01*
X710298Y2578652D01*
X699362Y2581583D01*
D02*
G37*
G36*
X688701D02*
X688040D01*
X677103Y2578652D01*
X667298Y2572991D01*
X659292Y2564985D01*
X653631Y2555180D01*
X650701Y2544244D01*
Y2543583D01*
X688701D01*
Y2581583D01*
D02*
G37*
G36*
X1690453Y2591757D02*
X1657973D01*
X1653556Y2590879D01*
X1649812Y2588377D01*
X1647310Y2584633D01*
X1646432Y2580216D01*
Y2522146D01*
X1647310Y2517729D01*
X1649812Y2513985D01*
X1653556Y2511483D01*
X1657973Y2510605D01*
X1690453D01*
X1694869Y2511483D01*
X1698613Y2513985D01*
X1701115Y2517729D01*
X1701993Y2522146D01*
Y2535566D01*
X1706993Y2537637D01*
X1708468Y2536162D01*
X1714980Y2533465D01*
X1722028D01*
X1728540Y2536162D01*
X1733523Y2541146D01*
X1736220Y2547657D01*
Y2554705D01*
X1733523Y2561217D01*
X1728540Y2566200D01*
X1722028Y2568898D01*
X1714980D01*
X1708468Y2566200D01*
X1706993Y2564726D01*
X1701993Y2566797D01*
Y2580216D01*
X1701115Y2584633D01*
X1698613Y2588377D01*
X1694869Y2590879D01*
X1690453Y2591757D01*
D02*
G37*
G36*
X434134Y2401562D02*
Y2327847D01*
X484886D01*
Y2346468D01*
X482987Y2360898D01*
X477417Y2374345D01*
X468557Y2385891D01*
X457010Y2394751D01*
X443564Y2400321D01*
X434134Y2401562D01*
D02*
G37*
G36*
X1713674D02*
Y2327847D01*
X1764427D01*
Y2346468D01*
X1762527Y2360898D01*
X1756957Y2374345D01*
X1748097Y2385891D01*
X1736551Y2394751D01*
X1723104Y2400321D01*
X1713674Y2401562D01*
D02*
G37*
G36*
X424134D02*
X414704Y2400321D01*
X401257Y2394751D01*
X389711Y2385891D01*
X380851Y2374345D01*
X375281Y2360898D01*
X373381Y2346468D01*
Y2327847D01*
X424134D01*
Y2401562D01*
D02*
G37*
G36*
X1703674D02*
X1694244Y2400321D01*
X1680798Y2394751D01*
X1669251Y2385891D01*
X1660391Y2374345D01*
X1654821Y2360898D01*
X1652922Y2346468D01*
Y2327847D01*
X1703674D01*
Y2401562D01*
D02*
G37*
G36*
X1304225D02*
Y2327846D01*
X1354978D01*
Y2346468D01*
X1353078Y2360898D01*
X1347509Y2374345D01*
X1338648Y2385891D01*
X1327102Y2394751D01*
X1313655Y2400321D01*
X1304225Y2401562D01*
D02*
G37*
G36*
X1294225D02*
X1284796Y2400321D01*
X1271349Y2394751D01*
X1259802Y2385891D01*
X1250942Y2374345D01*
X1245372Y2360898D01*
X1243473Y2346468D01*
Y2327846D01*
X1294225D01*
Y2401562D01*
D02*
G37*
G36*
X111299D02*
Y2327846D01*
X162052D01*
Y2346468D01*
X160152Y2360898D01*
X154582Y2374345D01*
X145722Y2385891D01*
X134175Y2394751D01*
X120729Y2400321D01*
X111299Y2401562D01*
D02*
G37*
G36*
X101299D02*
X91869Y2400321D01*
X78423Y2394751D01*
X66876Y2385891D01*
X58016Y2374345D01*
X52446Y2360898D01*
X50547Y2346468D01*
Y2327846D01*
X101299D01*
Y2401562D01*
D02*
G37*
G36*
X846457Y2427386D02*
X839776Y2426506D01*
X833551Y2423928D01*
X828205Y2419826D01*
X824103Y2414480D01*
X821525Y2408255D01*
X820645Y2401575D01*
X821525Y2394894D01*
X824103Y2388669D01*
X828205Y2383323D01*
X906946Y2304583D01*
X912291Y2300481D01*
X918516Y2297903D01*
X925197Y2297023D01*
X984252D01*
X990933Y2297903D01*
X997158Y2300481D01*
X1002503Y2304583D01*
X1006605Y2309929D01*
X1009184Y2316154D01*
X1010063Y2322835D01*
X1009184Y2329515D01*
X1006605Y2335740D01*
X1002503Y2341086D01*
X997158Y2345188D01*
X990933Y2347766D01*
X984252Y2348646D01*
X935888D01*
X864708Y2419826D01*
X859362Y2423928D01*
X853137Y2426507D01*
X846457Y2427386D01*
D02*
G37*
G36*
X1764427Y2317847D02*
X1713674D01*
Y2244130D01*
X1723104Y2245371D01*
X1736551Y2250941D01*
X1748097Y2259801D01*
X1756957Y2271348D01*
X1762527Y2284794D01*
X1764427Y2299224D01*
Y2317847D01*
D02*
G37*
G36*
X484886D02*
X434134D01*
Y2244130D01*
X443564Y2245371D01*
X457010Y2250941D01*
X468557Y2259801D01*
X477417Y2271348D01*
X482987Y2284794D01*
X484886Y2299224D01*
Y2317847D01*
D02*
G37*
G36*
X1354978Y2317846D02*
X1304225D01*
Y2244130D01*
X1313655Y2245371D01*
X1327102Y2250941D01*
X1338648Y2259801D01*
X1347509Y2271348D01*
X1353078Y2284794D01*
X1354978Y2299224D01*
Y2317846D01*
D02*
G37*
G36*
X1294225D02*
X1243473D01*
Y2299224D01*
X1245372Y2284794D01*
X1250942Y2271348D01*
X1259802Y2259801D01*
X1271349Y2250941D01*
X1284796Y2245371D01*
X1294225Y2244130D01*
Y2317846D01*
D02*
G37*
G36*
X162052D02*
X111299D01*
Y2244130D01*
X120729Y2245371D01*
X134175Y2250941D01*
X145722Y2259801D01*
X154582Y2271348D01*
X160152Y2284794D01*
X162052Y2299224D01*
Y2317846D01*
D02*
G37*
G36*
X101299D02*
X50547D01*
Y2299224D01*
X52446Y2284794D01*
X58016Y2271348D01*
X66876Y2259801D01*
X78423Y2250941D01*
X91869Y2245371D01*
X101299Y2244130D01*
Y2317846D01*
D02*
G37*
G36*
X1703674Y2317847D02*
X1652922D01*
Y2299224D01*
X1654821Y2284794D01*
X1660391Y2271348D01*
X1669251Y2259801D01*
X1680798Y2250941D01*
X1694244Y2245371D01*
X1703674Y2244130D01*
Y2317847D01*
D02*
G37*
G36*
X424134D02*
X373381D01*
Y2299224D01*
X375281Y2284794D01*
X380851Y2271348D01*
X389711Y2259801D01*
X401257Y2250941D01*
X414704Y2245371D01*
X424134Y2244130D01*
Y2317847D01*
D02*
G37*
G36*
X1602375Y2077140D02*
X1591584Y2075719D01*
X1581527Y2071554D01*
X1572892Y2064928D01*
X1566266Y2056292D01*
X1562101Y2046236D01*
X1560680Y2035445D01*
Y2019697D01*
X1562101Y2008905D01*
X1566266Y1998849D01*
X1572892Y1990214D01*
X1581527Y1983587D01*
X1591584Y1979422D01*
X1602375Y1978001D01*
X1613167Y1979422D01*
X1623223Y1983587D01*
X1631858Y1990214D01*
X1638484Y1998849D01*
X1642650Y2008905D01*
X1644070Y2019697D01*
Y2035445D01*
X1642650Y2046236D01*
X1638484Y2056292D01*
X1631858Y2064928D01*
X1623223Y2071554D01*
X1613167Y2075719D01*
X1602375Y2077140D01*
D02*
G37*
G36*
X1531004Y2242348D02*
X1472933D01*
X1468517Y2241469D01*
X1464773Y2238968D01*
X1462271Y2235223D01*
X1461392Y2230807D01*
Y2198327D01*
X1462271Y2193910D01*
X1464773Y2190166D01*
X1468517Y2187665D01*
X1472933Y2186786D01*
X1492911D01*
Y2075617D01*
X1483102Y2071554D01*
X1474467Y2064928D01*
X1467841Y2056292D01*
X1463675Y2046236D01*
X1462255Y2035445D01*
Y2019697D01*
X1463675Y2008905D01*
X1467841Y1998849D01*
X1474467Y1990214D01*
X1483102Y1983587D01*
X1493158Y1979422D01*
X1503950Y1978001D01*
X1514741Y1979422D01*
X1524797Y1983587D01*
X1533433Y1990214D01*
X1540059Y1998849D01*
X1544224Y2008905D01*
X1545645Y2019697D01*
Y2035445D01*
X1544224Y2046236D01*
X1540059Y2056292D01*
X1533433Y2064928D01*
X1524797Y2071554D01*
X1514989Y2075617D01*
Y2186786D01*
X1531004D01*
X1535420Y2187665D01*
X1539164Y2190166D01*
X1541666Y2193910D01*
X1542545Y2198327D01*
Y2230807D01*
X1541666Y2235223D01*
X1539164Y2238968D01*
X1535420Y2241469D01*
X1531004Y2242348D01*
D02*
G37*
G36*
X574992Y1994525D02*
X568181D01*
Y1969567D01*
X589202D01*
Y1980315D01*
X588120Y1985753D01*
X585040Y1990363D01*
X580430Y1993443D01*
X574992Y1994525D01*
D02*
G37*
G36*
X558181D02*
X551370D01*
X545932Y1993443D01*
X541322Y1990363D01*
X538242Y1985753D01*
X537160Y1980315D01*
Y1969567D01*
X558181D01*
Y1994525D01*
D02*
G37*
G36*
X589202Y1959567D02*
X568181D01*
Y1934609D01*
X574992D01*
X580430Y1935691D01*
X585040Y1938771D01*
X588120Y1943381D01*
X589202Y1948819D01*
Y1959567D01*
D02*
G37*
G36*
X558181D02*
X537160D01*
Y1948819D01*
X538242Y1943381D01*
X541322Y1938771D01*
X545932Y1935691D01*
X551370Y1934609D01*
X558181D01*
Y1959567D01*
D02*
G37*
G36*
X823823Y2177488D02*
X813579D01*
X803684Y2174837D01*
X794812Y2169715D01*
X787569Y2162471D01*
X782447Y2153600D01*
X779795Y2143705D01*
Y2133461D01*
X782447Y2123566D01*
X787569Y2114694D01*
X794812Y2107451D01*
X803684Y2102329D01*
X807662Y2101263D01*
Y1924155D01*
X806432Y1922925D01*
X780512D01*
X776672Y1922161D01*
X773416Y1919986D01*
X772840Y1919123D01*
X768504Y1917520D01*
X766826Y1917520D01*
X761826Y1918791D01*
Y1927813D01*
X772796Y1938784D01*
X790842D01*
X794683Y1939547D01*
X797938Y1941723D01*
X800114Y1944979D01*
X800878Y1948819D01*
Y1980315D01*
X800114Y1984155D01*
X797938Y1987411D01*
X794683Y1989586D01*
X790842Y1990350D01*
X767221D01*
X763380Y1989586D01*
X760125Y1987411D01*
X757949Y1984155D01*
X757185Y1980315D01*
Y1954395D01*
X742982Y1940191D01*
X740589Y1936610D01*
X739749Y1932386D01*
Y1917520D01*
X696850D01*
Y1882087D01*
X721638D01*
Y1867520D01*
X696850D01*
Y1832087D01*
X766302D01*
Y1827268D01*
X767246Y1822520D01*
X766568Y1820708D01*
X764250Y1817520D01*
X696850D01*
Y1782087D01*
X768504D01*
X772225Y1779128D01*
X774400Y1775872D01*
X777656Y1773697D01*
X781496Y1772933D01*
X812992D01*
X816832Y1773697D01*
X820088Y1775872D01*
X822006Y1778742D01*
X822628Y1779204D01*
X827582Y1780237D01*
X830516Y1777303D01*
X837027Y1774606D01*
X844075D01*
X850587Y1777303D01*
X855571Y1782287D01*
X858268Y1788799D01*
Y1795847D01*
X855571Y1802358D01*
X850587Y1807342D01*
X844075Y1810039D01*
X837027D01*
X830516Y1807342D01*
X828027Y1804854D01*
X823027Y1805227D01*
Y1806591D01*
X822264Y1810431D01*
X821841Y1811063D01*
X822056Y1817220D01*
X825136Y1821830D01*
X826218Y1827268D01*
Y1834079D01*
X796260D01*
Y1839079D01*
X791260D01*
Y1865100D01*
X780512D01*
X775074Y1864018D01*
X773504Y1862969D01*
X768504Y1865642D01*
Y1867520D01*
X743716D01*
Y1882087D01*
X767459D01*
X768504Y1882086D01*
X773416Y1882172D01*
X776672Y1879996D01*
X780512Y1879232D01*
X812008D01*
X815848Y1879996D01*
X819104Y1882172D01*
X821279Y1885427D01*
X822043Y1889268D01*
Y1907314D01*
X826506Y1911777D01*
X828899Y1915358D01*
X829740Y1919583D01*
Y2101263D01*
X833718Y2102329D01*
X842589Y2107451D01*
X849833Y2114694D01*
X854955Y2123566D01*
X857606Y2133461D01*
Y2143705D01*
X854955Y2153600D01*
X849833Y2162471D01*
X842589Y2169715D01*
X833718Y2174837D01*
X823823Y2177488D01*
D02*
G37*
G36*
X512992Y1990350D02*
X489370D01*
X485530Y1989586D01*
X482274Y1987411D01*
X480099Y1984155D01*
X479335Y1980315D01*
Y1948819D01*
X480099Y1944979D01*
X482274Y1941723D01*
X485530Y1939547D01*
X489370Y1938784D01*
X490142D01*
Y1917520D01*
X479528D01*
Y1882087D01*
X551181D01*
Y1888666D01*
X561673D01*
X565752Y1884587D01*
X572263Y1881890D01*
X579311D01*
X585823Y1884587D01*
X590807Y1889571D01*
X593504Y1896082D01*
Y1903130D01*
X590807Y1909642D01*
X585823Y1914626D01*
X579311Y1917323D01*
X572263D01*
X565752Y1914626D01*
X561870Y1910744D01*
X551181D01*
Y1917520D01*
X512220D01*
Y1938784D01*
X512992D01*
X516832Y1939547D01*
X520088Y1941723D01*
X522264Y1944979D01*
X523027Y1948819D01*
Y1980315D01*
X522264Y1984155D01*
X520088Y1987411D01*
X516832Y1989586D01*
X512992Y1990350D01*
D02*
G37*
G36*
X812008Y1865100D02*
X801260D01*
Y1844079D01*
X826218D01*
Y1850890D01*
X825136Y1856328D01*
X822056Y1860938D01*
X817446Y1864018D01*
X812008Y1865100D01*
D02*
G37*
G36*
X1736378Y1866890D02*
X1672323D01*
Y1822520D01*
X1736378D01*
Y1866890D01*
D02*
G37*
G36*
X1662323D02*
X1598268D01*
Y1822520D01*
X1662323D01*
Y1866890D01*
D02*
G37*
G36*
X1456693Y1867316D02*
X1422323D01*
Y1822520D01*
X1505831D01*
X1504792Y1830408D01*
X1499818Y1842418D01*
X1491904Y1852731D01*
X1481591Y1860644D01*
X1469581Y1865619D01*
X1456693Y1867316D01*
D02*
G37*
G36*
X440866Y1808968D02*
X415908D01*
Y1802158D01*
X416990Y1796720D01*
X420070Y1792110D01*
X424680Y1789029D01*
X430118Y1787947D01*
X440866D01*
Y1808968D01*
D02*
G37*
G36*
X1206693Y1863186D02*
X1127953D01*
X1116134Y1861630D01*
X1105120Y1857068D01*
X1095662Y1849811D01*
X1088405Y1840353D01*
X1083843Y1829339D01*
X1082287Y1817520D01*
X1083843Y1805700D01*
X1088405Y1794687D01*
X1095662Y1785229D01*
X1105120Y1777972D01*
X1116134Y1773409D01*
X1127953Y1771853D01*
X1206693D01*
X1218512Y1773409D01*
X1229526Y1777972D01*
X1238984Y1785229D01*
X1246241Y1794687D01*
X1250803Y1805700D01*
X1252359Y1817520D01*
X1250803Y1829339D01*
X1246241Y1840353D01*
X1238984Y1849811D01*
X1229526Y1857068D01*
X1218512Y1861630D01*
X1206693Y1863186D01*
D02*
G37*
G36*
X1736378Y1812520D02*
X1672323D01*
Y1768150D01*
X1736378D01*
Y1812520D01*
D02*
G37*
G36*
X1662323D02*
X1598268D01*
Y1768150D01*
X1662323D01*
Y1812520D01*
D02*
G37*
G36*
X1505831D02*
X1422323D01*
Y1767724D01*
X1456693D01*
X1469581Y1769420D01*
X1481591Y1774395D01*
X1491904Y1782309D01*
X1499818Y1792622D01*
X1504792Y1804631D01*
X1505831Y1812520D01*
D02*
G37*
G36*
X1446863Y2076783D02*
X1364186D01*
Y1993969D01*
X1306564Y1936348D01*
X1304172Y1932766D01*
X1303331Y1928542D01*
Y1551378D01*
X1278543D01*
Y1531556D01*
X1191687Y1444700D01*
X1132874D01*
Y1451378D01*
X1061221D01*
Y1415945D01*
X1086008D01*
Y1401378D01*
X1061221D01*
Y1365945D01*
X1132874D01*
Y1401378D01*
X1108086D01*
Y1415945D01*
X1132874D01*
Y1422623D01*
X1196260D01*
X1200484Y1423463D01*
X1204065Y1425856D01*
X1273924Y1495715D01*
X1278543Y1493801D01*
Y1465945D01*
X1346321Y1465945D01*
X1346447D01*
X1346447D01*
X1347748Y1465945D01*
X1350506Y1461073D01*
X1350477Y1461029D01*
X1349713Y1457189D01*
Y1451378D01*
X1278543D01*
Y1444700D01*
X1265026D01*
X1260802Y1443860D01*
X1257221Y1441467D01*
X1248190Y1432437D01*
X1245797Y1428855D01*
X1244957Y1424631D01*
Y1400917D01*
X1241870Y1397831D01*
X1239173Y1391319D01*
Y1384271D01*
X1241870Y1377760D01*
X1246854Y1372776D01*
X1253366Y1370079D01*
X1260414D01*
X1266925Y1372776D01*
X1271909Y1377760D01*
X1273543Y1381705D01*
X1278543Y1380711D01*
Y1365945D01*
X1350197D01*
Y1365945D01*
X1353307Y1367331D01*
X1356914Y1365895D01*
X1358130Y1360547D01*
X1358012Y1360429D01*
X1355315Y1353918D01*
Y1346870D01*
X1358012Y1340358D01*
X1362996Y1335374D01*
X1369507Y1332677D01*
X1376555D01*
X1383067Y1335374D01*
X1388051Y1340358D01*
X1390748Y1346870D01*
Y1353918D01*
X1388051Y1360429D01*
X1386102Y1362379D01*
X1387134Y1367333D01*
X1387596Y1367955D01*
X1390466Y1369872D01*
X1392641Y1373128D01*
X1393405Y1376968D01*
Y1408465D01*
X1392641Y1412305D01*
X1390466Y1415561D01*
X1387210Y1417736D01*
X1383370Y1418500D01*
X1359748D01*
X1358475Y1418247D01*
X1354427Y1421016D01*
X1358475Y1423785D01*
X1359748Y1423532D01*
X1391244D01*
X1395084Y1424296D01*
X1396612Y1425316D01*
X1402116Y1424988D01*
X1403104Y1424600D01*
X1403826Y1423519D01*
X1408436Y1420439D01*
X1409447Y1415140D01*
X1408620Y1413902D01*
X1407538Y1408465D01*
Y1397716D01*
X1433559D01*
X1459580D01*
Y1408465D01*
X1458498Y1413902D01*
X1455418Y1418513D01*
X1455413Y1418516D01*
Y1423516D01*
X1455418Y1423519D01*
X1458498Y1428129D01*
X1459580Y1433567D01*
Y1440378D01*
X1429622D01*
Y1445378D01*
X1424622D01*
Y1471399D01*
X1413874D01*
X1408436Y1470317D01*
X1403826Y1467237D01*
X1403104Y1466156D01*
X1402116Y1465768D01*
X1396612Y1465440D01*
X1395084Y1466460D01*
X1391244Y1467224D01*
X1359748D01*
X1355908Y1466460D01*
X1355197Y1465985D01*
X1350197Y1468658D01*
X1350197Y1469893D01*
X1350197Y1469894D01*
X1350197Y1469930D01*
Y1479512D01*
X1354732D01*
X1358957Y1480353D01*
X1362538Y1482746D01*
X1365324Y1485532D01*
X1391244D01*
X1395084Y1486296D01*
X1398340Y1488471D01*
X1399781Y1490628D01*
X1401452Y1491008D01*
X1403666D01*
X1405337Y1490628D01*
X1406778Y1488471D01*
X1410034Y1486296D01*
X1413874Y1485532D01*
X1445370D01*
X1449210Y1486296D01*
X1452466Y1488471D01*
X1454641Y1491727D01*
X1455405Y1495567D01*
Y1519189D01*
X1454641Y1523029D01*
X1452466Y1526285D01*
X1449210Y1528460D01*
X1445370Y1529224D01*
X1413874D01*
X1410034Y1528460D01*
X1406778Y1526285D01*
X1405337Y1524128D01*
X1403666Y1523747D01*
X1401452D01*
X1399781Y1524128D01*
X1398340Y1526285D01*
X1395084Y1528460D01*
X1391244Y1529224D01*
X1359748D01*
X1355908Y1528460D01*
X1355197Y1527985D01*
X1350197Y1530658D01*
Y1551378D01*
X1325409D01*
Y1802296D01*
X1330409Y1803291D01*
X1334828Y1792622D01*
X1342742Y1782309D01*
X1353055Y1774395D01*
X1365065Y1769420D01*
X1377953Y1767724D01*
X1412323D01*
Y1817520D01*
Y1867316D01*
X1377953D01*
X1365065Y1865619D01*
X1353055Y1860644D01*
X1342742Y1852731D01*
X1334828Y1842418D01*
X1330409Y1831748D01*
X1325409Y1832743D01*
Y1923970D01*
X1379797Y1978358D01*
X1446863D01*
Y2076783D01*
D02*
G37*
G36*
X89071Y1785863D02*
X82260D01*
Y1760906D01*
X103281D01*
Y1771653D01*
X102199Y1777091D01*
X99119Y1781701D01*
X94509Y1784782D01*
X89071Y1785863D01*
D02*
G37*
G36*
X72260D02*
X65449D01*
X60011Y1784782D01*
X55401Y1781701D01*
X52321Y1777091D01*
X51239Y1771653D01*
Y1760906D01*
X72260D01*
Y1785863D01*
D02*
G37*
G36*
X768504Y1767520D02*
X696850D01*
Y1758972D01*
X685374D01*
X683264Y1761082D01*
X676752Y1763780D01*
X669704D01*
X663193Y1761082D01*
X658209Y1756099D01*
X655512Y1749587D01*
Y1742539D01*
X658209Y1736027D01*
X663193Y1731044D01*
X669704Y1728347D01*
X676752D01*
X683264Y1731044D01*
X688248Y1736027D01*
X688607Y1736894D01*
X696850D01*
Y1732087D01*
X735812D01*
Y1711807D01*
X735039D01*
X731199Y1711043D01*
X727943Y1708868D01*
X725768Y1705612D01*
X725004Y1701772D01*
Y1670276D01*
X725768Y1666435D01*
X727943Y1663180D01*
X731199Y1661004D01*
X735039Y1660240D01*
X758661D01*
X762502Y1661004D01*
X765757Y1663180D01*
X767933Y1666435D01*
X768697Y1670276D01*
Y1701772D01*
X767933Y1705612D01*
X765757Y1708868D01*
X762502Y1711043D01*
X758661Y1711807D01*
X757889D01*
Y1732087D01*
X767286D01*
Y1720968D01*
X768368Y1715531D01*
X771448Y1710920D01*
X776058Y1707840D01*
X781496Y1706758D01*
X792244D01*
Y1732780D01*
Y1758801D01*
X781496D01*
X776058Y1757719D01*
X773504Y1756012D01*
X768504Y1758547D01*
Y1767520D01*
D02*
G37*
G36*
X812992Y1758801D02*
X802244D01*
Y1737780D01*
X827202D01*
Y1744591D01*
X826120Y1750028D01*
X823040Y1754639D01*
X818430Y1757719D01*
X812992Y1758801D01*
D02*
G37*
G36*
X103281Y1750906D02*
X82260D01*
Y1725947D01*
X89071D01*
X94509Y1727029D01*
X99119Y1730110D01*
X102199Y1734720D01*
X103281Y1740158D01*
Y1750906D01*
D02*
G37*
G36*
X72260D02*
X51239D01*
Y1740158D01*
X52321Y1734720D01*
X55401Y1730110D01*
X60011Y1727029D01*
X65449Y1725947D01*
X72260D01*
Y1750906D01*
D02*
G37*
G36*
X376889Y1717454D02*
X366142D01*
X360704Y1716372D01*
X356094Y1713292D01*
X354875Y1711468D01*
X351938Y1710838D01*
X348748Y1710919D01*
X346360Y1712515D01*
X342520Y1713279D01*
X311024D01*
X307183Y1712515D01*
X303928Y1710340D01*
X301752Y1707084D01*
X300988Y1703244D01*
Y1700850D01*
X285236D01*
Y1705906D01*
X213583D01*
Y1698637D01*
X204370D01*
X200981Y1702027D01*
X194469Y1704724D01*
X187421D01*
X180909Y1702027D01*
X175926Y1697043D01*
X173228Y1690532D01*
Y1683484D01*
X175926Y1676972D01*
X180909Y1671989D01*
X187421Y1669291D01*
X194469D01*
X200981Y1671989D01*
X205552Y1676560D01*
X213583D01*
Y1670473D01*
X285236D01*
Y1678772D01*
X301157D01*
X301752Y1675782D01*
X303928Y1672526D01*
X307183Y1670351D01*
X311024Y1669587D01*
X342520D01*
X346360Y1670351D01*
X348748Y1671947D01*
X351938Y1672028D01*
X354875Y1671398D01*
X356094Y1669574D01*
X360704Y1666494D01*
X366142Y1665412D01*
X376889D01*
Y1691433D01*
Y1717454D01*
D02*
G37*
G36*
X827202Y1727780D02*
X802244D01*
Y1706758D01*
X812992D01*
X818430Y1707840D01*
X823040Y1710920D01*
X826120Y1715531D01*
X827202Y1720968D01*
Y1727780D01*
D02*
G37*
G36*
X397638Y1717454D02*
X386889D01*
Y1696433D01*
X411848D01*
Y1703244D01*
X410766Y1708682D01*
X407686Y1713292D01*
X403076Y1716372D01*
X397638Y1717454D01*
D02*
G37*
G36*
X696661Y1715982D02*
X689850D01*
Y1691024D01*
X710871D01*
Y1701772D01*
X709790Y1707209D01*
X706709Y1711820D01*
X702099Y1714900D01*
X696661Y1715982D01*
D02*
G37*
G36*
X679850D02*
X673039D01*
X667601Y1714900D01*
X662991Y1711820D01*
X659911Y1707209D01*
X658829Y1701772D01*
Y1691024D01*
X679850D01*
Y1715982D01*
D02*
G37*
G36*
X411848Y1686433D02*
X386889D01*
Y1665412D01*
X397638D01*
X403076Y1666494D01*
X407686Y1669574D01*
X410766Y1674184D01*
X411848Y1679622D01*
Y1686433D01*
D02*
G37*
G36*
X1026496Y1683989D02*
X1015748D01*
X1010310Y1682908D01*
X1005700Y1679828D01*
X1002620Y1675217D01*
X1001538Y1669780D01*
Y1662968D01*
X1026496D01*
Y1683989D01*
D02*
G37*
G36*
X710871Y1681024D02*
X689850D01*
Y1656066D01*
X696661D01*
X702099Y1657147D01*
X706709Y1660228D01*
X709790Y1664838D01*
X710871Y1670276D01*
Y1681024D01*
D02*
G37*
G36*
X679850D02*
X658829D01*
Y1670276D01*
X659911Y1664838D01*
X662991Y1660228D01*
X667601Y1657147D01*
X673039Y1656066D01*
X679850D01*
Y1681024D01*
D02*
G37*
G36*
X495650Y1671260D02*
X488602D01*
X482090Y1668563D01*
X477107Y1663579D01*
X474409Y1657067D01*
Y1650019D01*
X477107Y1643508D01*
X482090Y1638524D01*
X488602Y1635827D01*
X495650D01*
X502162Y1638524D01*
X507145Y1643508D01*
X509842Y1650019D01*
Y1657067D01*
X507145Y1663579D01*
X502162Y1668563D01*
X495650Y1671260D01*
D02*
G37*
G36*
X1690945Y1696850D02*
X1584646D01*
Y1633858D01*
X1690945D01*
Y1696850D01*
D02*
G37*
G36*
X1026496Y1652968D02*
X1001538D01*
Y1646158D01*
X999069Y1643150D01*
X955709D01*
Y1603780D01*
X987123D01*
X988189Y1603568D01*
X1004349D01*
X1005713Y1602204D01*
Y1584158D01*
X1006477Y1580317D01*
X1008652Y1577062D01*
X1011908Y1574886D01*
X1013071Y1574655D01*
X1013090Y1574608D01*
X1013598Y1569452D01*
X1011605Y1568120D01*
X1009429Y1564864D01*
X1008665Y1561024D01*
Y1529528D01*
X1009429Y1525687D01*
X1011605Y1522432D01*
X1014861Y1520256D01*
X1018701Y1519492D01*
X1019473D01*
Y1507111D01*
X1007382D01*
X1002966Y1506233D01*
X999221Y1503731D01*
X996720Y1499987D01*
X995841Y1495571D01*
Y1437500D01*
X996720Y1433084D01*
X999221Y1429340D01*
X1002966Y1426838D01*
X1007382Y1425959D01*
X1008701D01*
Y1412480D01*
X1030512D01*
X1052323D01*
Y1429291D01*
X1052323Y1429291D01*
X1050764Y1434291D01*
X1051403Y1437500D01*
Y1472623D01*
X1061221D01*
Y1465945D01*
X1132874D01*
Y1501378D01*
X1061221D01*
Y1494700D01*
X1051403D01*
Y1495571D01*
X1050524Y1499987D01*
X1048023Y1503731D01*
X1044278Y1506233D01*
X1041551Y1506776D01*
Y1519492D01*
X1042323D01*
X1046163Y1520256D01*
X1049419Y1522432D01*
X1051594Y1525687D01*
X1052358Y1529528D01*
Y1561024D01*
X1051594Y1564864D01*
X1049419Y1568120D01*
X1047660Y1569295D01*
X1047639Y1569546D01*
X1048922Y1574456D01*
X1051084Y1574886D01*
X1054340Y1577062D01*
X1056515Y1580317D01*
X1057279Y1584158D01*
Y1607780D01*
X1056515Y1611620D01*
X1054340Y1614876D01*
X1051084Y1617051D01*
X1047244Y1617815D01*
X1021324D01*
X1016727Y1622412D01*
X1013146Y1624805D01*
X1008921Y1625645D01*
X1002953D01*
Y1631932D01*
X1007953Y1634604D01*
X1010310Y1633029D01*
X1015748Y1631947D01*
X1026496D01*
Y1652968D01*
D02*
G37*
G36*
X913689Y1712598D02*
X906641D01*
X900130Y1709901D01*
X895146Y1704918D01*
X892449Y1698406D01*
Y1691358D01*
X895146Y1684846D01*
X899127Y1680866D01*
Y1668740D01*
X880905D01*
Y1629370D01*
X928149D01*
Y1668740D01*
X921204D01*
Y1680866D01*
X925185Y1684846D01*
X927882Y1691358D01*
Y1698406D01*
X925185Y1704918D01*
X920201Y1709901D01*
X913689Y1712598D01*
D02*
G37*
G36*
X154115Y1773622D02*
X147067D01*
X140555Y1770925D01*
X135571Y1765941D01*
X132874Y1759429D01*
Y1752381D01*
X135571Y1745870D01*
X139552Y1741889D01*
Y1668898D01*
X140392Y1664673D01*
X142785Y1661092D01*
X213583Y1590294D01*
Y1570473D01*
X285236D01*
Y1577150D01*
X300988D01*
Y1565449D01*
X301752Y1561609D01*
X303928Y1558353D01*
X307183Y1556177D01*
X311024Y1555414D01*
X342520D01*
X346360Y1556177D01*
X349616Y1558353D01*
X351791Y1561609D01*
X352555Y1565449D01*
Y1589071D01*
X351791Y1592911D01*
X349616Y1596167D01*
X346360Y1598342D01*
X342520Y1599106D01*
X312518D01*
X311905Y1599228D01*
X285236D01*
Y1605906D01*
X229194D01*
X219246Y1615853D01*
X221160Y1620473D01*
X285236D01*
Y1622772D01*
X300988D01*
Y1617622D01*
X301752Y1613782D01*
X303928Y1610526D01*
X307183Y1608351D01*
X311024Y1607587D01*
X342520D01*
X346360Y1608351D01*
X349616Y1610526D01*
X351777Y1613760D01*
X351888Y1613782D01*
X356774Y1613782D01*
X356885Y1613760D01*
X359046Y1610526D01*
X362301Y1608351D01*
X366142Y1607587D01*
X397638D01*
X401478Y1608351D01*
X404734Y1610526D01*
X406909Y1613782D01*
X407673Y1617622D01*
Y1641244D01*
X406909Y1645084D01*
X404734Y1648340D01*
X401478Y1650515D01*
X397638Y1651279D01*
X366142D01*
X362301Y1650515D01*
X359046Y1648340D01*
X356885Y1645106D01*
X356774Y1645084D01*
X351888Y1645084D01*
X351777Y1645106D01*
X349616Y1648340D01*
X346360Y1650515D01*
X342520Y1651279D01*
X311024D01*
X307183Y1650515D01*
X303928Y1648340D01*
X301752Y1645084D01*
X301706Y1644850D01*
X285236D01*
Y1655906D01*
X213583D01*
Y1628050D01*
X208963Y1626136D01*
X161629Y1673470D01*
Y1741889D01*
X165610Y1745870D01*
X168307Y1752381D01*
Y1759429D01*
X165610Y1765941D01*
X160626Y1770925D01*
X154115Y1773622D01*
D02*
G37*
G36*
X1157968Y1629863D02*
X1151158D01*
Y1604906D01*
X1172178D01*
Y1615653D01*
X1171097Y1621091D01*
X1168016Y1625701D01*
X1163406Y1628782D01*
X1157968Y1629863D01*
D02*
G37*
G36*
X1141158D02*
X1134347D01*
X1128909Y1628782D01*
X1124299Y1625701D01*
X1121218Y1621091D01*
X1120137Y1615653D01*
Y1604906D01*
X1141158D01*
Y1629863D01*
D02*
G37*
G36*
X928149Y1617559D02*
X880905D01*
Y1578189D01*
X889129D01*
X891425Y1573189D01*
X889611Y1571078D01*
X877205D01*
X873225Y1575059D01*
X866713Y1577756D01*
X859665D01*
X853153Y1575059D01*
X848170Y1570075D01*
X845472Y1563563D01*
Y1556515D01*
X848170Y1550004D01*
X853153Y1545020D01*
X859665Y1542323D01*
X866713D01*
X873225Y1545020D01*
X877205Y1549001D01*
X896221D01*
X900445Y1549841D01*
X904026Y1552234D01*
X913317Y1561525D01*
X915710Y1565106D01*
X916551Y1569331D01*
Y1578189D01*
X928149D01*
Y1617559D01*
D02*
G37*
G36*
X1172178Y1594906D02*
X1151158D01*
Y1569947D01*
X1157968D01*
X1163406Y1571029D01*
X1168016Y1574110D01*
X1171097Y1578720D01*
X1172178Y1584158D01*
Y1594906D01*
D02*
G37*
G36*
X1141158D02*
X1120137D01*
Y1584158D01*
X1121218Y1578720D01*
X1124299Y1574110D01*
X1128909Y1571029D01*
X1134347Y1569947D01*
X1141158D01*
Y1594906D01*
D02*
G37*
G36*
X980323Y1575234D02*
X973512D01*
Y1550276D01*
X994533D01*
Y1561024D01*
X993451Y1566461D01*
X990371Y1571072D01*
X985761Y1574152D01*
X980323Y1575234D01*
D02*
G37*
G36*
X963512D02*
X956701D01*
X951263Y1574152D01*
X946653Y1571072D01*
X943572Y1566461D01*
X942491Y1561024D01*
Y1550276D01*
X963512D01*
Y1575234D01*
D02*
G37*
G36*
X37087Y1560000D02*
Y1543189D01*
X72008D01*
Y1560000D01*
X37087D01*
D02*
G37*
G36*
X342520Y1541281D02*
X331772D01*
Y1520260D01*
X356730D01*
Y1527071D01*
X355648Y1532509D01*
X352568Y1537119D01*
X347957Y1540199D01*
X342520Y1541281D01*
D02*
G37*
G36*
X321772D02*
X311024D01*
X305586Y1540199D01*
X300976Y1537119D01*
X297895Y1532509D01*
X296814Y1527071D01*
Y1520260D01*
X321772D01*
Y1541281D01*
D02*
G37*
G36*
X72008Y1533189D02*
X37087D01*
Y1516378D01*
X72008D01*
Y1533189D01*
D02*
G37*
G36*
X1047244Y1683989D02*
X1036496D01*
Y1657968D01*
Y1631947D01*
X1047244D01*
X1052682Y1633029D01*
X1057292Y1636110D01*
X1060372Y1640720D01*
X1060472Y1641220D01*
X1066211Y1644926D01*
X1067159Y1644712D01*
X1067658Y1643508D01*
X1072379Y1638787D01*
Y1625689D01*
X1072347D01*
X1068506Y1624925D01*
X1065251Y1622749D01*
X1063075Y1619494D01*
X1062311Y1615653D01*
Y1584158D01*
X1063075Y1580317D01*
X1065251Y1577062D01*
X1068506Y1574886D01*
X1072347Y1574122D01*
X1073119D01*
Y1551378D01*
X1061221D01*
Y1515945D01*
X1132874D01*
Y1551378D01*
X1095196D01*
Y1574122D01*
X1095968D01*
X1099809Y1574886D01*
X1103064Y1577062D01*
X1105240Y1580317D01*
X1106004Y1584158D01*
Y1615653D01*
X1105240Y1619494D01*
X1103064Y1622749D01*
X1099809Y1624925D01*
X1095968Y1625689D01*
X1094456D01*
Y1640267D01*
X1097697Y1643508D01*
X1100394Y1650019D01*
Y1657067D01*
X1097697Y1663579D01*
X1092713Y1668563D01*
X1086201Y1671260D01*
X1079153D01*
X1072642Y1668563D01*
X1067658Y1663579D01*
X1066454Y1660673D01*
X1061454Y1661667D01*
Y1669780D01*
X1060372Y1675217D01*
X1057292Y1679828D01*
X1052682Y1682908D01*
X1047244Y1683989D01*
D02*
G37*
G36*
X994533Y1540276D02*
X973512D01*
Y1515318D01*
X980323D01*
X985761Y1516399D01*
X990371Y1519480D01*
X993451Y1524090D01*
X994533Y1529528D01*
Y1540276D01*
D02*
G37*
G36*
X963512D02*
X942491D01*
Y1529528D01*
X943572Y1524090D01*
X946653Y1519480D01*
X951263Y1516399D01*
X956701Y1515318D01*
X963512D01*
Y1540276D01*
D02*
G37*
G36*
X356730Y1510260D02*
X331772D01*
Y1489239D01*
X342520D01*
X347957Y1490321D01*
X352568Y1493401D01*
X355648Y1498011D01*
X356730Y1503449D01*
Y1510260D01*
D02*
G37*
G36*
X321772D02*
X296814D01*
Y1503449D01*
X297895Y1498011D01*
X300976Y1493401D01*
X305586Y1490321D01*
X311024Y1489239D01*
X321772D01*
Y1510260D01*
D02*
G37*
G36*
X213094Y1505352D02*
X206283D01*
Y1480394D01*
X227304D01*
Y1491142D01*
X226223Y1496580D01*
X223142Y1501190D01*
X218532Y1504270D01*
X213094Y1505352D01*
D02*
G37*
G36*
X196283D02*
X189472D01*
X184035Y1504270D01*
X179424Y1501190D01*
X176344Y1496580D01*
X175262Y1491142D01*
Y1480394D01*
X196283D01*
Y1505352D01*
D02*
G37*
G36*
X1445370Y1471399D02*
X1434622D01*
Y1450378D01*
X1459580D01*
Y1457189D01*
X1458498Y1462627D01*
X1455418Y1467237D01*
X1450808Y1470317D01*
X1445370Y1471399D01*
D02*
G37*
G36*
X227304Y1470394D02*
X206283D01*
Y1445436D01*
X213094D01*
X218532Y1446517D01*
X223142Y1449598D01*
X226223Y1454208D01*
X227304Y1459646D01*
Y1470394D01*
D02*
G37*
G36*
X196283D02*
X175262D01*
Y1459646D01*
X176344Y1454208D01*
X179424Y1449598D01*
X184035Y1446517D01*
X189472Y1445436D01*
X196283D01*
Y1470394D01*
D02*
G37*
G36*
X495650Y1454724D02*
X488602D01*
X482090Y1452027D01*
X477107Y1447043D01*
X474409Y1440532D01*
Y1433484D01*
X477107Y1426972D01*
X482090Y1421989D01*
X488602Y1419291D01*
X495650D01*
X502162Y1421989D01*
X507145Y1426972D01*
X509842Y1433484D01*
Y1440532D01*
X507145Y1447043D01*
X502162Y1452027D01*
X495650Y1454724D01*
D02*
G37*
G36*
X285236Y1555906D02*
X213583D01*
Y1520473D01*
X252245D01*
Y1501177D01*
X251472D01*
X247632Y1500413D01*
X244376Y1498238D01*
X242201Y1494982D01*
X241437Y1491142D01*
Y1459646D01*
X242201Y1455805D01*
X244376Y1452550D01*
X247246Y1450632D01*
X247710Y1450007D01*
X248760Y1445075D01*
X246063Y1438563D01*
Y1431515D01*
X248760Y1425004D01*
X253744Y1420020D01*
X260255Y1417323D01*
X267303D01*
X273815Y1420020D01*
X278799Y1425004D01*
X281496Y1431515D01*
Y1438563D01*
X278799Y1445075D01*
X278654Y1445220D01*
X278751Y1447000D01*
X279915Y1451030D01*
X282190Y1452550D01*
X284366Y1455805D01*
X285130Y1459646D01*
Y1491142D01*
X284366Y1494982D01*
X282190Y1498238D01*
X278935Y1500413D01*
X275094Y1501177D01*
X274322D01*
Y1520473D01*
X285236D01*
Y1555906D01*
D02*
G37*
G36*
X921752Y1507111D02*
X889272D01*
X884855Y1506233D01*
X881111Y1503731D01*
X878610Y1499987D01*
X877731Y1495571D01*
Y1437500D01*
X878610Y1433084D01*
X881111Y1429340D01*
X882160Y1428639D01*
X882205Y1422655D01*
X881180Y1421970D01*
X878624Y1418144D01*
X877726Y1413632D01*
Y1379675D01*
X878624Y1375163D01*
X881180Y1371337D01*
X885005Y1368781D01*
X889518Y1367884D01*
X937254D01*
X941766Y1368781D01*
X945592Y1371337D01*
X948148Y1375163D01*
X949045Y1379675D01*
Y1413632D01*
X948148Y1418144D01*
X945592Y1421970D01*
X941766Y1424526D01*
X937254Y1425424D01*
X932852D01*
X931952Y1426622D01*
X930637Y1430424D01*
X932414Y1433084D01*
X933293Y1437500D01*
Y1495571D01*
X932414Y1499987D01*
X929912Y1503731D01*
X926168Y1506233D01*
X921752Y1507111D01*
D02*
G37*
G36*
X1459580Y1387716D02*
X1438559D01*
Y1362758D01*
X1445370D01*
X1450808Y1363840D01*
X1455418Y1366920D01*
X1458498Y1371531D01*
X1459580Y1376968D01*
Y1387716D01*
D02*
G37*
G36*
X1428559D02*
X1407538D01*
Y1376968D01*
X1408620Y1371531D01*
X1411700Y1366920D01*
X1416310Y1363840D01*
X1421748Y1362758D01*
X1428559D01*
Y1387716D01*
D02*
G37*
G36*
X643701Y1349599D02*
X609331D01*
Y1304803D01*
X692838D01*
X691800Y1312691D01*
X686825Y1324701D01*
X678912Y1335014D01*
X668599Y1342928D01*
X656589Y1347902D01*
X643701Y1349599D01*
D02*
G37*
G36*
X393701D02*
X359331D01*
Y1304803D01*
X442838D01*
X441800Y1312691D01*
X436825Y1324701D01*
X428912Y1335014D01*
X418599Y1342928D01*
X406589Y1347902D01*
X393701Y1349599D01*
D02*
G37*
G36*
X143701D02*
X109331D01*
Y1304803D01*
X192838D01*
X191800Y1312691D01*
X186825Y1324701D01*
X178912Y1335014D01*
X168599Y1342928D01*
X156589Y1347902D01*
X143701Y1349599D01*
D02*
G37*
G36*
X599331D02*
X564961D01*
X552072Y1347902D01*
X540063Y1342928D01*
X529749Y1335014D01*
X521836Y1324701D01*
X516861Y1312691D01*
X515823Y1304803D01*
X599331D01*
Y1349599D01*
D02*
G37*
G36*
X349331D02*
X314961D01*
X302072Y1347902D01*
X290063Y1342928D01*
X279749Y1335014D01*
X271836Y1324701D01*
X266861Y1312691D01*
X265823Y1304803D01*
X349331D01*
Y1349599D01*
D02*
G37*
G36*
X99331D02*
X64961D01*
X52072Y1347902D01*
X40063Y1342928D01*
X29749Y1335014D01*
X21836Y1324701D01*
X16861Y1312691D01*
X15823Y1304803D01*
X99331D01*
Y1349599D01*
D02*
G37*
G36*
X1690945Y1362205D02*
X1584646D01*
Y1299213D01*
X1690945D01*
Y1362205D01*
D02*
G37*
G36*
X692838Y1294803D02*
X609331D01*
Y1250007D01*
X643701D01*
X656589Y1251704D01*
X668599Y1256678D01*
X678912Y1264592D01*
X686825Y1274905D01*
X691800Y1286915D01*
X692838Y1294803D01*
D02*
G37*
G36*
X599331D02*
X515823D01*
X516861Y1286915D01*
X521836Y1274905D01*
X529749Y1264592D01*
X540063Y1256678D01*
X552072Y1251704D01*
X564961Y1250007D01*
X599331D01*
Y1294803D01*
D02*
G37*
G36*
X442838D02*
X359331D01*
Y1250007D01*
X393701D01*
X406589Y1251704D01*
X418599Y1256678D01*
X428912Y1264592D01*
X436825Y1274905D01*
X441800Y1286915D01*
X442838Y1294803D01*
D02*
G37*
G36*
X349331D02*
X265823D01*
X266861Y1286915D01*
X271836Y1274905D01*
X279749Y1264592D01*
X290063Y1256678D01*
X302072Y1251704D01*
X314961Y1250007D01*
X349331D01*
Y1294803D01*
D02*
G37*
G36*
X192838D02*
X109331D01*
Y1250007D01*
X143701D01*
X156589Y1251704D01*
X168599Y1256678D01*
X178912Y1264592D01*
X186825Y1274905D01*
X191800Y1286915D01*
X192838Y1294803D01*
D02*
G37*
G36*
X99331D02*
X15823D01*
X16861Y1286915D01*
X21836Y1274905D01*
X29749Y1264592D01*
X40063Y1256678D01*
X52072Y1251704D01*
X64961Y1250007D01*
X99331D01*
Y1294803D01*
D02*
G37*
G36*
X1706693Y1228339D02*
X1672323D01*
Y1183543D01*
X1755831D01*
X1754792Y1191431D01*
X1749818Y1203441D01*
X1741904Y1213755D01*
X1731591Y1221668D01*
X1719581Y1226643D01*
X1706693Y1228339D01*
D02*
G37*
G36*
X1662323D02*
X1627953D01*
X1615065Y1226643D01*
X1603055Y1221668D01*
X1592742Y1213755D01*
X1584828Y1203441D01*
X1579854Y1191431D01*
X1578815Y1183543D01*
X1662323D01*
Y1228339D01*
D02*
G37*
G36*
X1456693D02*
X1422323D01*
Y1183543D01*
X1505831D01*
X1504792Y1191431D01*
X1499818Y1203441D01*
X1491904Y1213755D01*
X1481591Y1221668D01*
X1469581Y1226643D01*
X1456693Y1228339D01*
D02*
G37*
G36*
X1412323D02*
X1377953D01*
X1365065Y1226643D01*
X1353055Y1221668D01*
X1342742Y1213755D01*
X1334828Y1203441D01*
X1329854Y1191431D01*
X1328815Y1183543D01*
X1412323D01*
Y1228339D01*
D02*
G37*
G36*
X951279Y1241363D02*
X918799D01*
X914383Y1240485D01*
X910639Y1237983D01*
X908137Y1234239D01*
X907259Y1229823D01*
Y1171752D01*
X908137Y1167336D01*
X910639Y1163591D01*
X912561Y1162307D01*
X913147Y1156929D01*
X913006Y1156454D01*
X910996Y1153447D01*
X910232Y1149606D01*
Y1118110D01*
X910996Y1114270D01*
X913172Y1111014D01*
X916428Y1108839D01*
X920268Y1108075D01*
X922819D01*
Y1092716D01*
X883858D01*
Y1057284D01*
X955512D01*
Y1092716D01*
X944897D01*
Y1108275D01*
X947730Y1108839D01*
X950986Y1111014D01*
X953161Y1114270D01*
X953925Y1118110D01*
Y1123804D01*
X961378D01*
X965358Y1119823D01*
X971870Y1117126D01*
X978918D01*
X985429Y1119823D01*
X990413Y1124807D01*
X993110Y1131319D01*
Y1138367D01*
X990413Y1144878D01*
X985429Y1149862D01*
X978918Y1152559D01*
X971870D01*
X965358Y1149862D01*
X961378Y1145881D01*
X953925D01*
Y1149606D01*
X953161Y1153447D01*
X951866Y1155385D01*
X953147Y1159732D01*
X953855Y1160724D01*
X955696Y1161090D01*
X959440Y1163591D01*
X961942Y1167336D01*
X962820Y1171752D01*
Y1181000D01*
X967820Y1184341D01*
X970885Y1183071D01*
X977933D01*
X984445Y1185768D01*
X989429Y1190752D01*
X992126Y1197263D01*
Y1204311D01*
X989429Y1210823D01*
X984445Y1215807D01*
X977933Y1218504D01*
X970885D01*
X967820Y1217234D01*
X962820Y1220575D01*
Y1229823D01*
X961942Y1234239D01*
X959440Y1237983D01*
X955696Y1240485D01*
X951279Y1241363D01*
D02*
G37*
G36*
X833169D02*
X800689D01*
X796273Y1240485D01*
X792529Y1237983D01*
X790027Y1234239D01*
X789148Y1229823D01*
Y1171752D01*
X790027Y1167336D01*
X792529Y1163591D01*
X796273Y1161090D01*
X800689Y1160211D01*
X805890D01*
Y1067565D01*
X774365Y1036039D01*
X738189D01*
Y1042716D01*
X666536D01*
Y1036039D01*
X655705D01*
Y1039370D01*
X654941Y1043210D01*
X652765Y1046466D01*
Y1051959D01*
X654941Y1055215D01*
X655705Y1059055D01*
Y1063961D01*
X666536D01*
Y1057284D01*
X738189D01*
Y1063863D01*
X755570D01*
X759649Y1059784D01*
X766161Y1057087D01*
X773209D01*
X779721Y1059784D01*
X784704Y1064767D01*
X787402Y1071279D01*
Y1078327D01*
X784704Y1084839D01*
X779721Y1089822D01*
X773209Y1092520D01*
X766161D01*
X759649Y1089822D01*
X755767Y1085940D01*
X738189D01*
Y1092716D01*
X666536D01*
Y1086039D01*
X655705D01*
Y1090551D01*
X654941Y1094391D01*
X652765Y1097647D01*
X649510Y1099823D01*
X645669Y1100586D01*
X622047D01*
X618207Y1099823D01*
X614951Y1097647D01*
X612776Y1094391D01*
X612012Y1090551D01*
Y1059055D01*
X612776Y1055215D01*
X614951Y1051959D01*
Y1046466D01*
X612776Y1043210D01*
X612012Y1039370D01*
Y1007874D01*
X612776Y1004034D01*
X614951Y1000778D01*
X618207Y998603D01*
X622047Y997839D01*
X645669D01*
X649510Y998603D01*
X652765Y1000778D01*
X654941Y1004034D01*
X655705Y1007874D01*
Y1013961D01*
X666536D01*
Y1007284D01*
X738189D01*
Y1013961D01*
X778937D01*
X783161Y1014802D01*
X786743Y1017194D01*
X824735Y1055187D01*
X827128Y1058768D01*
X827968Y1062992D01*
Y1160211D01*
X833169D01*
X837586Y1161090D01*
X841330Y1163591D01*
X843832Y1167336D01*
X844710Y1171752D01*
Y1189749D01*
X853110D01*
X857090Y1185768D01*
X863602Y1183071D01*
X870650D01*
X877162Y1185768D01*
X882145Y1190752D01*
X884842Y1197263D01*
Y1204311D01*
X882145Y1210823D01*
X877162Y1215807D01*
X870650Y1218504D01*
X863602D01*
X857090Y1215807D01*
X853110Y1211826D01*
X844710D01*
Y1229823D01*
X843832Y1234239D01*
X841330Y1237983D01*
X837586Y1240485D01*
X833169Y1241363D01*
D02*
G37*
G36*
X881890Y1163816D02*
X875079D01*
Y1138858D01*
X896100D01*
Y1149606D01*
X895018Y1155044D01*
X891938Y1159654D01*
X887328Y1162735D01*
X881890Y1163816D01*
D02*
G37*
G36*
X865079D02*
X858268D01*
X852830Y1162735D01*
X848220Y1159654D01*
X845139Y1155044D01*
X844058Y1149606D01*
Y1138858D01*
X865079D01*
Y1163816D01*
D02*
G37*
G36*
X993110Y1425197D02*
X957677D01*
Y1390827D01*
X957677Y1389764D01*
X957677D01*
Y1385827D01*
X957677D01*
Y1366005D01*
X936387Y1344715D01*
X889518D01*
X885005Y1343817D01*
X881180Y1341261D01*
X878624Y1337436D01*
X877726Y1332923D01*
Y1298966D01*
X878624Y1294454D01*
X881180Y1290629D01*
X885005Y1288073D01*
X889518Y1287175D01*
X937254D01*
X941766Y1288073D01*
X945592Y1290629D01*
X948148Y1294454D01*
X949045Y1298966D01*
Y1326151D01*
X973288Y1350394D01*
X993110D01*
Y1367620D01*
X997730Y1369533D01*
X1000069Y1367194D01*
X1003650Y1364801D01*
X1007874Y1363961D01*
X1009438D01*
Y1275984D01*
X1011042Y1267919D01*
X1015610Y1261083D01*
X1084571Y1192121D01*
X1083843Y1190363D01*
X1082287Y1178543D01*
X1083843Y1166724D01*
X1088405Y1155710D01*
X1095662Y1146252D01*
X1105120Y1138995D01*
X1116134Y1134433D01*
X1127953Y1132877D01*
X1206693D01*
X1218512Y1134433D01*
X1229526Y1138995D01*
X1238984Y1146252D01*
X1246241Y1155710D01*
X1250803Y1166724D01*
X1252359Y1178543D01*
X1250803Y1190363D01*
X1246241Y1201376D01*
X1238984Y1210834D01*
X1229526Y1218091D01*
X1218512Y1222654D01*
X1206693Y1224210D01*
X1127953D01*
X1116134Y1222654D01*
X1114375Y1221925D01*
X1051586Y1284714D01*
Y1368110D01*
X1049982Y1376175D01*
X1048228Y1378799D01*
Y1385669D01*
X1052323D01*
Y1402480D01*
X1030512D01*
X1008701D01*
Y1396317D01*
X1004082Y1394404D01*
X993110Y1405375D01*
Y1425197D01*
D02*
G37*
G36*
X1755831Y1173543D02*
X1672323D01*
Y1128747D01*
X1706693D01*
X1719581Y1130444D01*
X1731591Y1135419D01*
X1741904Y1143332D01*
X1749818Y1153645D01*
X1754792Y1165655D01*
X1755831Y1173543D01*
D02*
G37*
G36*
X1662323D02*
X1578815D01*
X1579854Y1165655D01*
X1584828Y1153645D01*
X1592742Y1143332D01*
X1603055Y1135419D01*
X1615065Y1130444D01*
X1627953Y1128747D01*
X1662323D01*
Y1173543D01*
D02*
G37*
G36*
X1505831D02*
X1422323D01*
Y1128747D01*
X1456693D01*
X1469581Y1130444D01*
X1481591Y1135419D01*
X1491904Y1143332D01*
X1499818Y1153645D01*
X1504792Y1165655D01*
X1505831Y1173543D01*
D02*
G37*
G36*
X1412323D02*
X1328815D01*
X1329854Y1165655D01*
X1334828Y1153645D01*
X1342742Y1143332D01*
X1353055Y1135419D01*
X1365065Y1130444D01*
X1377953Y1128747D01*
X1412323D01*
Y1173543D01*
D02*
G37*
G36*
X187008Y1179134D02*
X80709D01*
Y1116142D01*
X187008D01*
Y1179134D01*
D02*
G37*
G36*
X896100Y1128858D02*
X875079D01*
Y1103900D01*
X881890D01*
X887328Y1104982D01*
X891938Y1108062D01*
X895018Y1112672D01*
X896100Y1118110D01*
Y1128858D01*
D02*
G37*
G36*
X865079D02*
X844058D01*
Y1118110D01*
X845139Y1112672D01*
X848220Y1108062D01*
X852830Y1104982D01*
X858268Y1103900D01*
X865079D01*
Y1128858D01*
D02*
G37*
G36*
X583669Y1104761D02*
X576858D01*
Y1079803D01*
X597879D01*
Y1090551D01*
X596798Y1095989D01*
X593717Y1100599D01*
X589107Y1103679D01*
X583669Y1104761D01*
D02*
G37*
G36*
X566858D02*
X560047D01*
X554609Y1103679D01*
X549999Y1100599D01*
X546919Y1095989D01*
X545837Y1090551D01*
Y1079803D01*
X566858D01*
Y1104761D01*
D02*
G37*
G36*
X597879Y1069803D02*
X571858D01*
X545837D01*
Y1059055D01*
X546919Y1053617D01*
X549862Y1049213D01*
X546919Y1044808D01*
X545837Y1039370D01*
Y1028622D01*
X571858D01*
X597879D01*
Y1039370D01*
X596798Y1044808D01*
X593855Y1049213D01*
X596798Y1053617D01*
X597879Y1059055D01*
Y1069803D01*
D02*
G37*
G36*
Y1018622D02*
X576858D01*
Y993664D01*
X583669D01*
X589107Y994746D01*
X593717Y997826D01*
X596798Y1002436D01*
X597879Y1007874D01*
Y1018622D01*
D02*
G37*
G36*
X566858D02*
X545837D01*
Y1007874D01*
X546919Y1002436D01*
X549999Y997826D01*
X554609Y994746D01*
X560047Y993664D01*
X566858D01*
Y1018622D01*
D02*
G37*
G36*
X738189Y992716D02*
X666536D01*
Y981311D01*
X654863D01*
X652765Y984450D01*
X649510Y986626D01*
X645669Y987390D01*
X614173D01*
X610333Y986626D01*
X607077Y984450D01*
X604916Y981216D01*
X604805Y981195D01*
X599919D01*
X599808Y981216D01*
X597647Y984450D01*
X594391Y986626D01*
X590551Y987390D01*
X559055D01*
X555215Y986626D01*
X551959Y984450D01*
X549798Y981216D01*
X549687Y981195D01*
X544801D01*
X544690Y981216D01*
X542529Y984450D01*
X539273Y986626D01*
X535433Y987390D01*
X503937D01*
X500097Y986626D01*
X496841Y984450D01*
X494666Y981195D01*
X493902Y977354D01*
Y953732D01*
X494666Y949892D01*
X496841Y946636D01*
X500097Y944461D01*
X503937Y943697D01*
X535433D01*
X539273Y944461D01*
X542529Y946636D01*
X544690Y949870D01*
X544801Y949892D01*
X549687D01*
X549798Y949870D01*
X551959Y946636D01*
X555215Y944461D01*
X559055Y943697D01*
X590551D01*
X594391Y944461D01*
X597647Y946636D01*
X599808Y949870D01*
X599919Y949892D01*
X604805D01*
X604916Y949870D01*
X607077Y946636D01*
X610333Y944461D01*
X614173Y943697D01*
X645669D01*
X649510Y944461D01*
X652765Y946636D01*
X654941Y949892D01*
X655705Y953732D01*
Y959233D01*
X666536D01*
Y957284D01*
X738189D01*
Y992716D01*
D02*
G37*
G36*
X1598425Y1062992D02*
X1417323D01*
Y960630D01*
X1598425D01*
Y1062992D01*
D02*
G37*
G36*
X1007202Y943173D02*
X1000154D01*
X993642Y940475D01*
X989434Y936267D01*
X955512D01*
Y942716D01*
X883858D01*
Y907284D01*
X922819D01*
Y891925D01*
X922047D01*
X918207Y891161D01*
X914951Y888986D01*
X912776Y885730D01*
X912012Y881890D01*
Y850394D01*
X912776Y846553D01*
X914951Y843298D01*
X918207Y841122D01*
X922047Y840359D01*
X945669D01*
X949510Y841122D01*
X952765Y843298D01*
X954941Y846553D01*
X955705Y850394D01*
Y881890D01*
X954941Y885730D01*
X952765Y888986D01*
X949510Y891161D01*
X945669Y891925D01*
X944897D01*
Y907284D01*
X955512D01*
Y914189D01*
X989890D01*
X993642Y910437D01*
X1000154Y907740D01*
X1007202D01*
X1013713Y910437D01*
X1018697Y915420D01*
X1021394Y921932D01*
Y928980D01*
X1018697Y935492D01*
X1013713Y940475D01*
X1007202Y943173D01*
D02*
G37*
G36*
X839154Y942913D02*
X832106D01*
X825594Y940216D01*
X821515Y936137D01*
X738189D01*
Y942716D01*
X666536D01*
Y936039D01*
X655315D01*
X651091Y935199D01*
X647509Y932806D01*
X640093Y925390D01*
X614173D01*
X610333Y924626D01*
X607077Y922450D01*
X604916Y919216D01*
X604805Y919195D01*
X599919D01*
X599808Y919216D01*
X597647Y922450D01*
X594391Y924626D01*
X590551Y925390D01*
X559055D01*
X555215Y924626D01*
X551959Y922450D01*
X549798Y919216D01*
X549687Y919195D01*
X544801D01*
X544690Y919216D01*
X542529Y922450D01*
X539273Y924626D01*
X535433Y925390D01*
X503937D01*
X500097Y924626D01*
X496841Y922450D01*
X495122Y919878D01*
X494143Y919029D01*
X489224Y917468D01*
X484823Y919291D01*
X477775D01*
X471264Y916594D01*
X466280Y911610D01*
X463583Y905099D01*
Y898051D01*
X466280Y891539D01*
X471264Y886556D01*
X477775Y883858D01*
X484823D01*
X490292Y886123D01*
X491349Y886551D01*
X496699Y884849D01*
X496841Y884636D01*
X500097Y882461D01*
X503937Y881697D01*
X535433D01*
X539273Y882461D01*
X542529Y884636D01*
X544690Y887870D01*
X544801Y887892D01*
X549687D01*
X549798Y887870D01*
X551959Y884636D01*
X555215Y882461D01*
X559055Y881697D01*
X590551D01*
X594391Y882461D01*
X597647Y884636D01*
X599808Y887870D01*
X599919Y887892D01*
X604805D01*
X604916Y887870D01*
X607077Y884636D01*
X610333Y882461D01*
X614173Y881697D01*
X645669D01*
X649510Y882461D01*
X652765Y884636D01*
X654941Y887892D01*
X655705Y891732D01*
Y909778D01*
X659887Y913961D01*
X666536D01*
Y907284D01*
X738189D01*
Y914060D01*
X821712D01*
X825594Y910178D01*
X832106Y907480D01*
X839154D01*
X845665Y910178D01*
X850649Y915161D01*
X853346Y921673D01*
Y928721D01*
X850649Y935232D01*
X845665Y940216D01*
X839154Y942913D01*
D02*
G37*
G36*
X955512Y1042716D02*
X883858D01*
Y1007284D01*
X908646D01*
Y992716D01*
X883858D01*
Y957284D01*
X955512D01*
Y963961D01*
X1048228D01*
Y895669D01*
X1125000D01*
Y1023622D01*
X1048228D01*
Y986039D01*
X955512D01*
Y992716D01*
X930724D01*
Y1007284D01*
X955512D01*
Y1042716D01*
D02*
G37*
G36*
X883669Y896100D02*
X876858D01*
Y871142D01*
X897879D01*
Y881890D01*
X896798Y887328D01*
X893717Y891938D01*
X889107Y895018D01*
X883669Y896100D01*
D02*
G37*
G36*
X866858D02*
X860047D01*
X854609Y895018D01*
X849999Y891938D01*
X846919Y887328D01*
X845837Y881890D01*
Y871142D01*
X866858D01*
Y896100D01*
D02*
G37*
G36*
X1445039Y931260D02*
X1394764D01*
Y831771D01*
X1445039D01*
Y931260D01*
D02*
G37*
G36*
X1384764D02*
X1334488D01*
Y831771D01*
X1384764D01*
Y931260D01*
D02*
G37*
G36*
X1125000Y844488D02*
X1048228D01*
Y791551D01*
X955738D01*
Y823081D01*
X954841Y827593D01*
X952285Y831418D01*
X948459Y833975D01*
X943947Y834872D01*
X909990D01*
X905478Y833975D01*
X901652Y831418D01*
X899096Y827593D01*
X898199Y823081D01*
Y775345D01*
X899096Y770832D01*
X901652Y767007D01*
X905478Y764451D01*
X906559Y764236D01*
X907615Y758928D01*
X907077Y758568D01*
X904902Y755313D01*
X904138Y751472D01*
Y727850D01*
X904902Y724010D01*
X907077Y720754D01*
X910333Y718579D01*
X914173Y717815D01*
X945669D01*
X949510Y718579D01*
X952765Y720754D01*
X954941Y724010D01*
X955705Y727850D01*
Y751472D01*
X954941Y755313D01*
X952765Y758568D01*
X950426Y760132D01*
X950018Y763901D01*
X950305Y765684D01*
X952285Y767007D01*
X953933Y769473D01*
X1048228D01*
Y716535D01*
X1125000D01*
Y844488D01*
D02*
G37*
G36*
X187008Y844488D02*
X80709D01*
Y781496D01*
X187008D01*
Y844488D01*
D02*
G37*
G36*
X1677165Y917323D02*
X1574803D01*
Y736221D01*
X1677165D01*
Y917323D01*
D02*
G37*
G36*
X1445039Y821771D02*
X1394764D01*
Y722284D01*
X1445039D01*
Y821771D01*
D02*
G37*
G36*
X1384764D02*
X1334488D01*
Y722284D01*
X1384764D01*
Y821771D01*
D02*
G37*
G36*
X897879Y861142D02*
X871858D01*
X845837D01*
Y850394D01*
X846919Y844956D01*
X849999Y840346D01*
X850708Y839872D01*
X849191Y834872D01*
X829281D01*
X824769Y833975D01*
X820944Y831418D01*
X818388Y827593D01*
X817490Y823081D01*
Y820287D01*
X782087D01*
X774022Y818683D01*
X767185Y814114D01*
X657279Y704208D01*
X655520Y704937D01*
X643701Y706493D01*
X564961D01*
X553141Y704937D01*
X542127Y700375D01*
X532670Y693118D01*
X525412Y683660D01*
X520850Y672646D01*
X519294Y660827D01*
X520850Y649008D01*
X525412Y637994D01*
X532670Y628536D01*
X542127Y621279D01*
X553141Y616716D01*
X564961Y615160D01*
X643701D01*
X655520Y616716D01*
X666534Y621279D01*
X675992Y628536D01*
X683249Y637994D01*
X687811Y649008D01*
X689367Y660827D01*
X687811Y672646D01*
X687082Y674405D01*
X790816Y778138D01*
X817490D01*
Y775345D01*
X818388Y770832D01*
X820944Y767007D01*
X824769Y764451D01*
X829281Y763553D01*
X829745D01*
Y732709D01*
X831349Y724644D01*
X832677Y722657D01*
Y714724D01*
X828583D01*
Y697913D01*
X872205D01*
Y714724D01*
X868110D01*
Y721383D01*
X870289Y724644D01*
X871893Y732709D01*
Y767482D01*
X874132Y770832D01*
X875030Y775345D01*
Y823081D01*
X874132Y827593D01*
X871733Y831184D01*
X872006Y832516D01*
X873444Y836184D01*
X883669D01*
X889107Y837265D01*
X893717Y840346D01*
X896798Y844956D01*
X897879Y850394D01*
Y861142D01*
D02*
G37*
G36*
X945669Y703682D02*
X934921D01*
Y682661D01*
X959879D01*
Y689472D01*
X958798Y694910D01*
X955717Y699520D01*
X951107Y702601D01*
X945669Y703682D01*
D02*
G37*
G36*
X924921D02*
X914173D01*
X908735Y702601D01*
X904125Y699520D01*
X901045Y694910D01*
X899963Y689472D01*
Y682661D01*
X924921D01*
Y703682D01*
D02*
G37*
G36*
X872205Y687913D02*
X855394D01*
Y671102D01*
X872205D01*
Y687913D01*
D02*
G37*
G36*
X845394D02*
X828583D01*
Y671102D01*
X845394D01*
Y687913D01*
D02*
G37*
G36*
X393701Y710623D02*
X359331D01*
Y665827D01*
X442838D01*
X441800Y673715D01*
X436825Y685725D01*
X428912Y696038D01*
X418599Y703952D01*
X406589Y708926D01*
X393701Y710623D01*
D02*
G37*
G36*
X173386Y710197D02*
X109331D01*
Y665827D01*
X173386D01*
Y710197D01*
D02*
G37*
G36*
X99331D02*
X35276D01*
Y665827D01*
X99331D01*
Y710197D01*
D02*
G37*
G36*
X349331Y710623D02*
X314961D01*
X302072Y708926D01*
X290063Y703952D01*
X279749Y696038D01*
X271836Y685725D01*
X266861Y673715D01*
X265823Y665827D01*
X349331D01*
Y710623D01*
D02*
G37*
G36*
X959879Y672661D02*
X934921D01*
Y651640D01*
X945669D01*
X951107Y652722D01*
X955717Y655802D01*
X958798Y660413D01*
X959879Y665850D01*
Y672661D01*
D02*
G37*
G36*
X924921D02*
X899963D01*
Y665850D01*
X901045Y660413D01*
X904125Y655802D01*
X908735Y652722D01*
X914173Y651640D01*
X924921D01*
Y672661D01*
D02*
G37*
G36*
X173386Y655827D02*
X109331D01*
Y611457D01*
X173386D01*
Y655827D01*
D02*
G37*
G36*
X99331D02*
X35276D01*
Y611457D01*
X99331D01*
Y655827D01*
D02*
G37*
G36*
X442838D02*
X359331D01*
Y611031D01*
X393701D01*
X406589Y612727D01*
X418599Y617702D01*
X428912Y625616D01*
X436825Y635929D01*
X441800Y647939D01*
X442838Y655827D01*
D02*
G37*
G36*
X349331D02*
X265823D01*
X266861Y647939D01*
X271836Y635929D01*
X279749Y625616D01*
X290063Y617702D01*
X302072Y612727D01*
X314961Y611031D01*
X349331D01*
Y655827D01*
D02*
G37*
G36*
X1675748Y586968D02*
X1646733D01*
Y564055D01*
X1675748D01*
Y586968D01*
D02*
G37*
G36*
X1636733D02*
X1607717D01*
Y564055D01*
X1636733D01*
Y586968D01*
D02*
G37*
G36*
X1675748Y554055D02*
X1646733D01*
Y531142D01*
X1675748D01*
Y554055D01*
D02*
G37*
G36*
X1636733D02*
X1607717D01*
Y531142D01*
X1636733D01*
Y554055D01*
D02*
G37*
G36*
X883136Y555118D02*
X872770D01*
X862757Y552435D01*
X853779Y547252D01*
X846449Y539922D01*
X841266Y530944D01*
X838583Y520931D01*
Y510565D01*
X841266Y500552D01*
X846449Y491574D01*
X853779Y484244D01*
X862757Y479061D01*
X872770Y476378D01*
X883136D01*
X893149Y479061D01*
X902126Y484244D01*
X909457Y491574D01*
X914640Y500552D01*
X917323Y510565D01*
Y520931D01*
X914640Y530944D01*
X909457Y539922D01*
X902126Y547252D01*
X893149Y552435D01*
X883136Y555118D01*
D02*
G37*
G36*
X369772Y364094D02*
X331772D01*
Y329094D01*
X369772D01*
Y364094D01*
D02*
G37*
G36*
X321772D02*
X283772D01*
Y329094D01*
X321772D01*
Y364094D01*
D02*
G37*
G36*
X468750Y419518D02*
X421014D01*
X416501Y418620D01*
X412676Y416064D01*
X410120Y412239D01*
X409222Y407726D01*
Y373769D01*
X410120Y369257D01*
X412676Y365432D01*
X416501Y362875D01*
X419071Y362364D01*
Y320866D01*
X419950Y314186D01*
X422529Y307960D01*
X426631Y302615D01*
X431976Y298513D01*
X438201Y295934D01*
X444882Y295055D01*
X451562Y295934D01*
X457788Y298513D01*
X463133Y302615D01*
X467235Y307960D01*
X469814Y314186D01*
X470693Y320866D01*
Y362364D01*
X473262Y362875D01*
X477088Y365432D01*
X479644Y369257D01*
X480541Y373769D01*
Y407726D01*
X479644Y412239D01*
X477088Y416064D01*
X473262Y418620D01*
X468750Y419518D01*
D02*
G37*
G36*
X369772Y319094D02*
X331772D01*
Y284094D01*
X369772D01*
Y319094D01*
D02*
G37*
G36*
X321772D02*
X283772D01*
Y284094D01*
X321772D01*
Y319094D01*
D02*
G37*
G36*
X1184626Y310039D02*
X1177578D01*
X1171067Y307342D01*
X1166083Y302358D01*
X1163386Y295847D01*
Y288799D01*
X1166083Y282287D01*
X1171067Y277303D01*
X1177578Y274606D01*
X1184626D01*
X1191138Y277303D01*
X1196122Y282287D01*
X1198819Y288799D01*
Y295847D01*
X1196122Y302358D01*
X1191138Y307342D01*
X1184626Y310039D01*
D02*
G37*
G36*
X168465Y324961D02*
X130984D01*
Y261890D01*
X168465D01*
Y324961D01*
D02*
G37*
G36*
X120984D02*
X83504D01*
Y261890D01*
X120984D01*
Y324961D01*
D02*
G37*
G36*
X1129976Y285433D02*
X1118055D01*
X1106540Y282348D01*
X1096216Y276387D01*
X1087786Y267957D01*
X1081826Y257633D01*
X1080101Y251196D01*
X675805D01*
X674080Y257633D01*
X668119Y267957D01*
X659690Y276387D01*
X649365Y282348D01*
X637850Y285433D01*
X625929D01*
X614414Y282348D01*
X604090Y276387D01*
X595660Y267957D01*
X589700Y257633D01*
X586614Y246118D01*
Y234197D01*
X589700Y222682D01*
X595660Y212358D01*
X604090Y203928D01*
X614414Y197967D01*
X625929Y194882D01*
X637850D01*
X649365Y197967D01*
X659690Y203928D01*
X668119Y212358D01*
X674080Y222682D01*
X675805Y229119D01*
X1080101D01*
X1081826Y222682D01*
X1087786Y212358D01*
X1096216Y203928D01*
X1106540Y197967D01*
X1118055Y194882D01*
X1129976D01*
X1141492Y197967D01*
X1151816Y203928D01*
X1160245Y212358D01*
X1166206Y222682D01*
X1169291Y234197D01*
Y246118D01*
X1166206Y257633D01*
X1160245Y267957D01*
X1151816Y276387D01*
X1141492Y282348D01*
X1129976Y285433D01*
D02*
G37*
G36*
X168465Y251890D02*
X130984D01*
Y188819D01*
X168465D01*
Y251890D01*
D02*
G37*
G36*
X120984D02*
X83504D01*
Y188819D01*
X120984D01*
Y251890D01*
D02*
G37*
G36*
X1184626Y214567D02*
X1177578D01*
X1171067Y211870D01*
X1166083Y206886D01*
X1163386Y200374D01*
Y193326D01*
X1166083Y186815D01*
X1171067Y181831D01*
X1177578Y179134D01*
X1184626D01*
X1191138Y181831D01*
X1196122Y186815D01*
X1198819Y193326D01*
Y200374D01*
X1196122Y206886D01*
X1191138Y211870D01*
X1184626Y214567D01*
D02*
G37*
G36*
X883136Y200787D02*
X872770D01*
X862757Y198104D01*
X853779Y192921D01*
X846449Y185591D01*
X841266Y176613D01*
X838583Y166601D01*
Y156234D01*
X841266Y146221D01*
X846449Y137244D01*
X853779Y129913D01*
X862757Y124730D01*
X872770Y122047D01*
X883136D01*
X893149Y124730D01*
X902126Y129913D01*
X909457Y137244D01*
X914640Y146221D01*
X917323Y156234D01*
Y166601D01*
X914640Y176613D01*
X909457Y185591D01*
X902126Y192921D01*
X893149Y198104D01*
X883136Y200787D01*
D02*
G37*
G36*
X1312579Y604331D02*
X1305531D01*
X1299020Y601633D01*
X1294036Y596650D01*
X1291339Y590138D01*
Y583090D01*
X1294036Y576578D01*
X1298016Y572598D01*
Y533691D01*
X1287156D01*
X1282643Y532793D01*
X1278818Y530237D01*
X1276262Y526412D01*
X1275364Y521900D01*
Y487943D01*
X1276262Y483430D01*
X1278818Y479605D01*
X1282643Y477049D01*
X1287156Y476151D01*
X1334892D01*
X1337256Y476622D01*
X1348232D01*
Y468008D01*
X1348996Y464168D01*
X1351172Y460912D01*
X1354427Y458736D01*
X1358268Y457973D01*
X1389764D01*
X1393604Y458736D01*
X1396860Y460912D01*
X1399035Y464168D01*
X1399799Y468008D01*
Y491630D01*
X1399035Y495470D01*
X1396860Y498726D01*
X1393604Y500901D01*
X1389764Y501665D01*
X1388992D01*
Y556850D01*
X1392972Y560831D01*
X1395669Y567342D01*
Y574390D01*
X1392972Y580902D01*
X1387988Y585885D01*
X1381477Y588583D01*
X1374429D01*
X1367917Y585885D01*
X1362934Y580902D01*
X1360236Y574390D01*
Y567342D01*
X1362934Y560831D01*
X1366914Y556850D01*
Y501665D01*
X1358268D01*
X1354427Y500901D01*
X1351683Y499068D01*
X1346683Y500323D01*
Y521900D01*
X1345786Y526412D01*
X1343229Y530237D01*
X1339404Y532793D01*
X1334892Y533691D01*
X1320094D01*
Y572598D01*
X1324074Y576578D01*
X1326772Y583090D01*
Y590138D01*
X1324074Y596650D01*
X1319091Y601633D01*
X1312579Y604331D01*
D02*
G37*
%LPD*%
D10*
X1500984Y2675197D02*
D03*
X1438984D02*
D03*
X485724Y2732284D02*
D03*
X423724D02*
D03*
X255417Y2733268D02*
D03*
X317417D02*
D03*
X1595465Y2831693D02*
D03*
X1533465D02*
D03*
X1704228D02*
D03*
X1642228D02*
D03*
X553646Y3383858D02*
D03*
X615646D02*
D03*
Y3219488D02*
D03*
X553646D02*
D03*
Y3164370D02*
D03*
X615646D02*
D03*
X656008D02*
D03*
X718008D02*
D03*
X553646Y3274606D02*
D03*
X615646D02*
D03*
X553646Y3328740D02*
D03*
X615646D02*
D03*
X563181Y1964567D02*
D03*
X501181D02*
D03*
X1084158Y1599906D02*
D03*
X1146158D02*
D03*
X1371559Y1392716D02*
D03*
X1433559D02*
D03*
X1030512Y1545276D02*
D03*
X968512D02*
D03*
X633858Y1023622D02*
D03*
X571858D02*
D03*
X633858Y1074803D02*
D03*
X571858D02*
D03*
X1599401Y2919291D02*
D03*
X1537401D02*
D03*
X1182575Y2891732D02*
D03*
X1120575D02*
D03*
X950299Y3223425D02*
D03*
X1012299D02*
D03*
X273126Y1755906D02*
D03*
X211126D02*
D03*
X323827D02*
D03*
X385827D02*
D03*
X15260D02*
D03*
X77260D02*
D03*
X201283Y1475394D02*
D03*
X263283D02*
D03*
X933858Y866142D02*
D03*
X871858D02*
D03*
X779032Y1964567D02*
D03*
X717032D02*
D03*
X746850Y1686024D02*
D03*
X684850D02*
D03*
X1016236Y3094488D02*
D03*
X954236D02*
D03*
X951772Y3419291D02*
D03*
X1013772D02*
D03*
X950299Y3272638D02*
D03*
X1012299D02*
D03*
X904331Y3592520D02*
D03*
X842331D02*
D03*
X870079Y1133858D02*
D03*
X932079D02*
D03*
X1182575Y2836614D02*
D03*
X1120575D02*
D03*
X1182575Y2950787D02*
D03*
X1120575D02*
D03*
X1013772Y3371063D02*
D03*
X951772D02*
D03*
D11*
X1489173Y2608268D02*
D03*
Y2533465D02*
D03*
X1396653Y2570866D02*
D03*
D12*
X818898Y3158465D02*
D03*
X901968D02*
D03*
X944685D02*
D03*
X1027756D02*
D03*
D13*
X1501968Y2214567D02*
D03*
Y2332677D02*
D03*
D14*
X535433Y2721457D02*
D03*
X616142D02*
D03*
X1550197Y354331D02*
D03*
X1630906D02*
D03*
X1531496Y98425D02*
D03*
X1612205D02*
D03*
X846260Y799213D02*
D03*
X926968D02*
D03*
X930118Y3031496D02*
D03*
X1010827D02*
D03*
D16*
X913386Y1315945D02*
D03*
Y1396654D02*
D03*
X1397638Y140748D02*
D03*
Y221457D02*
D03*
X1311024Y424212D02*
D03*
Y504921D02*
D03*
X444882Y390748D02*
D03*
Y471457D02*
D03*
X1135827Y2697834D02*
D03*
Y2778543D02*
D03*
D17*
X326772Y324094D02*
D03*
Y464094D02*
D03*
D21*
X-5906Y2634354D02*
D03*
Y2696354D02*
D03*
X-6890Y3110236D02*
D03*
Y3172236D02*
D03*
X729331Y2926677D02*
D03*
Y2988677D02*
D03*
X262795Y2843992D02*
D03*
Y2781992D02*
D03*
X312008Y2844976D02*
D03*
Y2782976D02*
D03*
X784449Y2988677D02*
D03*
Y2926677D02*
D03*
X314961Y3031000D02*
D03*
Y2969000D02*
D03*
X267716Y3031000D02*
D03*
Y2969000D02*
D03*
X1210630Y2617134D02*
D03*
Y2679134D02*
D03*
X1262795Y2617134D02*
D03*
Y2679134D02*
D03*
X381890Y1629433D02*
D03*
Y1691433D02*
D03*
X1031496Y1595968D02*
D03*
Y1657968D02*
D03*
X1429622Y1445378D02*
D03*
Y1507378D02*
D03*
X1375496Y1445378D02*
D03*
Y1507378D02*
D03*
X796260Y1839079D02*
D03*
Y1901079D02*
D03*
X1541339Y3032968D02*
D03*
Y2970968D02*
D03*
X1710630Y3032968D02*
D03*
Y2970968D02*
D03*
X1604331Y2777063D02*
D03*
Y2715063D02*
D03*
X1596457Y3032968D02*
D03*
Y2970968D02*
D03*
X1651575Y3032968D02*
D03*
Y2970968D02*
D03*
X1523622Y165850D02*
D03*
Y227850D02*
D03*
X1468504D02*
D03*
Y165850D02*
D03*
X1374016Y417819D02*
D03*
Y479819D02*
D03*
X1303150Y231787D02*
D03*
Y169787D02*
D03*
Y357772D02*
D03*
Y295772D02*
D03*
X326772Y1629433D02*
D03*
Y1691433D02*
D03*
Y1515260D02*
D03*
Y1577260D02*
D03*
X574803Y903543D02*
D03*
Y965543D02*
D03*
X445866Y1751968D02*
D03*
Y1813968D02*
D03*
X797244Y1732780D02*
D03*
Y1794780D02*
D03*
X929921Y739661D02*
D03*
Y677661D02*
D03*
X629921Y965543D02*
D03*
Y903543D02*
D03*
X519685D02*
D03*
Y965543D02*
D03*
X955709Y3529776D02*
D03*
Y3467776D02*
D03*
X1002953D02*
D03*
Y3529776D02*
D03*
X1050197Y3467776D02*
D03*
Y3529776D02*
D03*
D22*
X597441Y2766972D02*
Y2830272D01*
X572835Y2742366D02*
X597441Y2766972D01*
Y2830272D02*
X693846Y2926677D01*
X191536Y1687599D02*
X248819D01*
X190945Y1687008D02*
X191536Y1687599D01*
X248819D02*
X251031Y1689811D01*
X927362Y924606D02*
X927984Y925228D01*
X927362Y924606D02*
X933858Y918110D01*
X1003450Y925228D02*
X1003678Y925456D01*
X920079Y924606D02*
X927362D01*
X927984Y925228D02*
X1003450D01*
X933858Y866142D02*
Y918110D01*
X919685Y925000D02*
X920079Y924606D01*
X77756Y2686024D02*
Y2734979D01*
X-19685Y2566312D02*
X93504Y2679501D01*
X-19685Y535433D02*
Y2566312D01*
X-5906Y2634354D02*
X26087D01*
X77756Y2686024D01*
X93504Y2679501D02*
Y2728456D01*
X77756Y2734979D02*
X145669Y2802892D01*
X219488Y1847441D02*
Y2416339D01*
X93504Y2728456D02*
X161417Y2796369D01*
X109252Y2526575D02*
Y2721933D01*
X177165Y2789846D01*
X109252Y2526575D02*
X219488Y2416339D01*
Y1847441D02*
X258190Y1808739D01*
X1682335Y2715799D02*
X1683071Y2716535D01*
X1682087Y2717520D02*
Y2767653D01*
Y2717520D02*
X1683071Y2716535D01*
X1605067Y2715799D02*
X1682335D01*
X1681102Y2768638D02*
X1682087Y2767653D01*
X1604331Y2715063D02*
X1605067Y2715799D01*
X935039Y1200787D02*
X974409D01*
X829458D02*
X867126D01*
X816929Y1188258D02*
X829458Y1200787D01*
X155509Y2678147D02*
X352357Y2481299D01*
X1374016Y479819D02*
X1377953Y483756D01*
Y570866D01*
X1466535Y163882D02*
X1468504Y165850D01*
X1466535Y108268D02*
Y163882D01*
X1479331Y318898D02*
X1486255Y311973D01*
X1515748Y305118D02*
X1532797Y288070D01*
X1508893Y311973D02*
X1515748Y305118D01*
X1515748D01*
X1486255Y311973D02*
X1508893D01*
X1532797Y274290D02*
Y288070D01*
Y274290D02*
X1535433Y271654D01*
X1366174Y487660D02*
X1374016Y479819D01*
X1328284Y487660D02*
X1366174D01*
X1311024Y504921D02*
X1328284Y487660D01*
X1309055Y506890D02*
X1311024Y504921D01*
X1309055Y506890D02*
Y586614D01*
X1711366Y3032232D02*
X1773870D01*
X1774606Y3031496D01*
X1651575Y3032968D02*
X1710630D01*
X1711366Y3032232D01*
X1084158Y1593016D02*
X1091047Y1599906D01*
X1084158Y1540551D02*
Y1599906D01*
X1083417Y1607535D02*
Y1652803D01*
X1082677Y1653543D02*
X1083417Y1652803D01*
Y1607535D02*
X1091047Y1599906D01*
X1084158Y1540551D02*
Y1593016D01*
Y1540551D02*
X1091047Y1533661D01*
X1084158Y1540551D02*
X1091047Y1533661D01*
X975394Y1407480D02*
X1007874Y1375000D01*
X1023622D01*
X1024708Y1367024D02*
Y1373914D01*
X1023622Y1375000D02*
X1024708Y1373914D01*
X258190Y1808739D02*
X267048D01*
X271406Y1804382D01*
X910165Y1654693D02*
Y1694882D01*
X904528Y1649055D02*
X910165Y1654693D01*
X798472Y1793551D02*
X839323D01*
X840551Y1792323D01*
X794732Y1797291D02*
X797244Y1794780D01*
X798472Y1793551D01*
X863189Y1560039D02*
X896221D01*
X905512Y1569331D01*
X943898Y3373032D02*
X951772Y3365157D01*
X421654Y3015158D02*
X422441Y3014370D01*
Y2956035D02*
Y3014370D01*
Y2956035D02*
X423228Y2955248D01*
X421654Y2797835D02*
Y2846870D01*
X471654Y2896870D02*
Y3015158D01*
X421654Y2846870D02*
X471654Y2896870D01*
X372656Y2956250D02*
Y3014155D01*
Y2956250D02*
X373658Y2955248D01*
X314961Y2931975D02*
Y2969000D01*
X315453Y2844484D02*
X396296Y2925327D01*
Y3048488D01*
X1561340Y2872363D02*
X1563976Y2875000D01*
X1536913Y2835630D02*
X1561340Y2860056D01*
X1536913Y2831693D02*
Y2835630D01*
X1561340Y2860056D02*
Y2872363D01*
X216535Y3011811D02*
Y3051181D01*
X145669Y2940945D02*
X216535Y3011811D01*
X145669Y2802892D02*
Y2940945D01*
X252953Y3020173D02*
X263779Y3031000D01*
X161417Y2796369D02*
Y2928638D01*
X252953Y3020173D01*
Y3020173D01*
X177165Y2902559D02*
X191929Y2917323D01*
X177165Y2789846D02*
Y2902559D01*
X371654Y3015158D02*
X372656Y3014155D01*
X371654Y3015158D02*
X371850Y3015354D01*
X-6890Y3172236D02*
X265756D01*
X982284Y3353137D02*
Y3436241D01*
X991225Y3459001D02*
X1000000Y3467776D01*
X982284Y3436241D02*
X991225Y3445183D01*
Y3459001D01*
X1000000Y3467776D02*
X1050197D01*
X263779Y3031000D02*
X314961D01*
X520669Y2959646D02*
Y3014173D01*
X519685Y2958661D02*
X520669Y2959646D01*
Y3014173D02*
X521654Y3015158D01*
X371850Y3015354D02*
Y3065748D01*
X421654Y3015158D02*
X424156Y3017660D01*
X1535433Y2701772D02*
Y2704528D01*
X1572638Y2667323D02*
X1711614D01*
X1535433Y2701772D02*
X1539370Y2697835D01*
X1542126D01*
X1572638Y2667323D01*
X1718504Y2674213D02*
Y2676118D01*
X1711614Y2667323D02*
X1718504Y2674213D01*
X1539370Y2716039D02*
X1589567Y2766236D01*
X1535433Y2704528D02*
X1539370Y2708465D01*
X1589567Y2766236D02*
Y2766236D01*
X1539370Y2708465D02*
Y2716039D01*
X1589567Y2766236D02*
X1600394Y2777063D01*
X1604331D01*
X1556102Y2563710D02*
X1610503Y2618110D01*
X1716162D01*
X1556102Y2551181D02*
Y2563710D01*
X1716162Y2618110D02*
X1755905Y2657854D01*
Y2768638D01*
X1539408Y2533465D02*
X1556102Y2550159D01*
Y2551181D01*
X1489173Y2533465D02*
X1539408D01*
X1424220Y2660433D02*
X1428158D01*
X1396653Y2570866D02*
Y2632866D01*
X1438984Y2671260D02*
Y2675197D01*
X1428158Y2660433D02*
X1438984Y2671260D01*
X1396653Y2632866D02*
X1424220Y2660433D01*
X1322835Y2597441D02*
X1349409Y2570866D01*
X1396653D01*
X1322835Y2597441D02*
Y2600197D01*
X1494095Y2608268D02*
X1500984Y2615157D01*
Y2675197D01*
X1471457Y2608268D02*
X1494095D01*
X1440945Y2457677D02*
Y2577756D01*
X1466535Y2602362D02*
Y2603347D01*
X1464567Y2601378D02*
X1465551D01*
X1466535Y2603347D02*
X1471457Y2608268D01*
X1465551Y2601378D02*
X1466535Y2602362D01*
X1440945Y2577756D02*
X1464567Y2601378D01*
X1440945Y2457677D02*
X1501968Y2396654D01*
Y2332677D02*
Y2396654D01*
X1674213Y2551181D02*
X1718504D01*
X1559055Y2791346D02*
X1595465Y2827756D01*
X1539181Y2791346D02*
X1559055D01*
X1595465Y2827756D02*
Y2831693D01*
X1642228D01*
X1535433Y2787598D02*
X1539181Y2791346D01*
X709357Y3229042D02*
X787402Y3307087D01*
Y3533654D02*
X842331Y3588583D01*
X787402Y3307087D02*
Y3533654D01*
X672835Y3223032D02*
X678845Y3229042D01*
X709357D01*
X662504Y3223032D02*
X672835D01*
X778937Y1025000D02*
X816929Y1062992D01*
Y1188258D01*
Y1200787D01*
X702362Y1025000D02*
X778937D01*
X633858Y1023622D02*
X635236Y1025000D01*
X702362D01*
X932079Y1133858D02*
X933063Y1134842D01*
X975394D01*
X352357Y2481299D02*
X916339D01*
X1042323Y2607283D01*
Y2809543D01*
X1245866Y2736024D02*
X1298032D01*
X1243701Y2733858D02*
X1245866Y2736024D01*
X1298032D02*
X1300197Y2738189D01*
X396296Y3048488D02*
X442296Y3094488D01*
X674701D02*
X780512Y2988677D01*
X442296Y3094488D02*
X674701D01*
X424156Y3054077D02*
X448819Y3078740D01*
X550197D01*
X571654Y3057283D01*
X424156Y3017660D02*
Y3054077D01*
X265756Y3172236D02*
X372047Y3065945D01*
X371850Y3065748D02*
X372047Y3065945D01*
X675098Y1747933D02*
X730807D01*
X673228Y1746063D02*
X675098Y1747933D01*
X571654Y3015158D02*
Y3057283D01*
X317417Y2729331D02*
Y2733268D01*
Y2729331D02*
X366142Y2680606D01*
Y2559055D02*
Y2680606D01*
X317417Y2733268D02*
Y2777567D01*
X730807Y1747933D02*
X732677Y1749803D01*
X515354Y1899803D02*
X515453Y1899705D01*
X575689D01*
X575787Y1899606D01*
X780512Y2988677D02*
X784449D01*
X918307Y3092520D02*
X952268D01*
X1042323Y2809543D02*
X1120575Y2887795D01*
Y2895669D01*
X-19685Y535433D02*
X33465Y482284D01*
X621654Y2726968D02*
Y2797835D01*
X616142Y2721457D02*
X621654Y2726968D01*
X693846Y2926677D02*
X729331D01*
X553093Y2742366D02*
X572835D01*
X535433Y2724706D02*
X553093Y2742366D01*
X535433Y2721457D02*
Y2724706D01*
X312008Y2782976D02*
X317417Y2777567D01*
X262795Y2843992D02*
X263287Y2844484D01*
X315453D01*
X422689Y2733319D02*
Y2796799D01*
X421654Y2797835D02*
X422689Y2796799D01*
Y2733319D02*
X423724Y2732284D01*
X487078Y2730930D02*
X525960D01*
X535433Y2721457D01*
X485724Y2732284D02*
X487078Y2730930D01*
X573471Y2799652D02*
Y2836754D01*
X725394Y2988677D01*
X571654Y2797835D02*
X573471Y2799652D01*
X725394Y2988677D02*
X729331D01*
X671654Y2816339D02*
X769685Y2914370D01*
Y2915850D02*
X780512Y2926677D01*
X784449D01*
X671654Y2797835D02*
Y2816339D01*
X769685Y2914370D02*
Y2915850D01*
X903404Y3140608D02*
X903404Y3140608D01*
X892716Y3115176D02*
Y3117126D01*
X903404Y3127813D02*
Y3140608D01*
X892716Y3117126D02*
X903404Y3127813D01*
X903404Y3140608D02*
Y3157029D01*
X908465Y3158465D02*
X944685D01*
X901968D02*
X903404Y3157029D01*
X867126Y3101378D02*
X930118Y3038386D01*
X867126Y3101378D02*
Y3216536D01*
X890158Y3223032D02*
X949906D01*
X867126Y3216536D02*
X873622Y3223032D01*
X890158D01*
X818701Y1919583D02*
Y2138583D01*
X801172Y1902054D02*
X818701Y1919583D01*
X899606Y1410433D02*
Y1460630D01*
X905512Y1466535D01*
X899606Y1410433D02*
X913386Y1396654D01*
X933858Y1081890D02*
Y1133858D01*
X1266732Y2617134D02*
X1318898Y2669299D01*
Y2679331D01*
X1322835Y2683268D01*
X1262795Y2617134D02*
X1266732D01*
X1182331Y2951032D02*
X1182575Y2950787D01*
X1182331Y2951032D02*
Y2994835D01*
X1182087Y2995079D02*
X1182331Y2994835D01*
X1300021Y2786594D02*
X1302658Y2789230D01*
X1243701Y2783858D02*
X1246436Y2786594D01*
X1300021D01*
X1210630Y2617134D02*
X1262795D01*
X1243701Y2733858D02*
X1256299D01*
X1262795Y2727362D01*
Y2679134D02*
Y2727362D01*
X300456Y1806362D02*
X303093Y1803725D01*
X321275D02*
X321850Y1803150D01*
X303093Y1803725D02*
X321275D01*
X271406Y1757626D02*
X273126Y1755906D01*
X271406Y1757626D02*
Y1804382D01*
X702362Y1075000D02*
X702461Y1074902D01*
X769587D01*
X769685Y1074803D01*
X634055Y1075000D02*
X702362D01*
X702461Y925098D02*
X835532D01*
X835630Y925197D01*
X702362Y925000D02*
X702461Y925098D01*
X14764Y1814961D02*
X15012Y1814713D01*
Y1756153D02*
X15260Y1755906D01*
X15012Y1756153D02*
Y1814713D01*
X150591Y1668898D02*
Y1755906D01*
X1255996Y1388689D02*
Y1424631D01*
Y1388689D02*
X1256890Y1387795D01*
X905512Y1569331D02*
Y1596890D01*
X1600882Y2878449D02*
Y2917811D01*
Y2878449D02*
X1602362Y2876968D01*
X1599401Y2919291D02*
X1600882Y2917811D01*
X1139764Y2782480D02*
X1187992D01*
X1135827Y2778543D02*
X1139764Y2782480D01*
X1120575Y2793795D02*
Y2836614D01*
Y2793795D02*
X1135827Y2778543D01*
X1171748Y2936024D02*
X1182575Y2946850D01*
X1120575Y2895669D02*
X1160929Y2936024D01*
X1171748D01*
X1182575Y2946850D02*
Y2950787D01*
Y2891732D02*
X1190449Y2883858D01*
X1243701D01*
X1300591Y2935433D02*
X1302165Y2937008D01*
X1243701Y2933858D02*
X1245276Y2935433D01*
X1300591D01*
X1185331Y2833858D02*
X1243701D01*
X1182575Y2836614D02*
X1185331Y2833858D01*
X1362795Y2783858D02*
X1461024D01*
X1312795Y2833858D02*
X1362795Y2783858D01*
X1243701Y2833858D02*
X1312795D01*
X1461024Y2933858D02*
X1479528D01*
X1494094Y2919291D02*
X1537401D01*
X1479528Y2933858D02*
X1494094Y2919291D01*
X1596457Y2970968D02*
X1651575D01*
X1541339D02*
X1596457D01*
X1540894Y3033413D02*
X1541339Y3032968D01*
X1461024Y3033858D02*
X1461468Y3033413D01*
X1540894D01*
X818405Y3117618D02*
Y3157972D01*
X817913Y3117126D02*
X818405Y3117618D01*
Y3157972D02*
X818898Y3158465D01*
X723913D02*
X818898D01*
X322839Y1756894D02*
Y1802161D01*
X321850Y1803150D02*
X368504Y1849803D01*
X321850Y1803150D02*
X322839Y1802161D01*
X1504921Y3660433D02*
X1509842Y3655512D01*
X1307087Y3660433D02*
X1504921D01*
X1114429Y3467776D02*
X1307087Y3660433D01*
X1050197Y3467776D02*
X1114429D01*
X614468Y3472736D02*
X672539D01*
X672835Y3473032D01*
X614173Y3472441D02*
X614468Y3472736D01*
X672835Y3523032D02*
X675197Y3525394D01*
Y3564961D01*
X952268Y3092520D02*
X954236Y3094488D01*
X930118Y3031496D02*
Y3038386D01*
X1016236Y3094488D02*
Y3149701D01*
X1025000Y3158465D01*
X1027756D01*
X1013772Y3415354D02*
X1024599Y3404528D01*
X1044291Y3175000D02*
Y3388982D01*
X1028745Y3404528D02*
X1044291Y3388982D01*
X1024599Y3404528D02*
X1028745D01*
X1013772Y3415354D02*
Y3419291D01*
X1027756Y3158465D02*
X1030512D01*
X1034449Y3162402D01*
Y3165157D01*
X1044291Y3175000D01*
X718008Y3164370D02*
X723913Y3158465D01*
X949906Y3223032D02*
X950299Y3223425D01*
X970472Y3257874D02*
X990158Y3238189D01*
X1001472D02*
X1012299Y3227362D01*
X990158Y3238189D02*
X1001472D01*
X1012299Y3223425D02*
Y3227362D01*
X961126Y3257874D02*
X970472D01*
X949905Y3269095D02*
X961126Y3257874D01*
X949905Y3269095D02*
Y3273032D01*
X952179Y3323032D02*
X982284Y3353137D01*
X890158Y3273032D02*
X949905D01*
X890158Y3323032D02*
X952179D01*
X890157Y3373032D02*
X890158Y3373032D01*
X833661Y3373032D02*
X890157D01*
X890158Y3373032D02*
X943898D01*
X951772Y3419291D02*
Y3469095D01*
X953081Y3470404D01*
X846457Y3498228D02*
Y3546260D01*
X877953Y3577756D02*
X893504D01*
X846457Y3546260D02*
X877953Y3577756D01*
X893504D02*
X904331Y3588583D01*
X672835Y3373032D02*
X673081Y3372785D01*
X728100D02*
X728346Y3372539D01*
X673081Y3372785D02*
X728100D01*
X842331Y3588583D02*
Y3592520D01*
X846457Y3498228D02*
X871654Y3473032D01*
X904331Y3588583D02*
Y3592520D01*
X871654Y3473032D02*
X890158D01*
X955709Y3529776D02*
X1002953D01*
X890158Y3523032D02*
X893530Y3526404D01*
X952337D01*
X955709Y3529776D01*
X890158Y3473032D02*
X892785Y3470404D01*
X953081D01*
X1503950Y2027571D02*
Y2203753D01*
X1505906Y2205709D01*
X593076Y3207737D02*
X604819D01*
X615646Y3218564D02*
Y3219488D01*
X604819Y3207737D02*
X615646Y3218564D01*
X619087Y3226866D02*
X647835Y3255614D01*
X553646Y3168307D02*
X593076Y3207737D01*
X656008Y3164370D02*
Y3216536D01*
X662504Y3223032D01*
X615646Y3164370D02*
X656008D01*
X553646D02*
Y3168307D01*
X647835Y3255614D02*
Y3266536D01*
X654331Y3273032D01*
X672835D01*
X615646Y3269685D02*
Y3323819D01*
X616433Y3323032D02*
X672835D01*
X615646Y3323819D02*
X616433Y3323032D01*
X615646Y3378937D02*
X621551Y3373032D01*
X672835D01*
X335631Y3323819D02*
X553646D01*
X267729Y3248043D02*
Y3255917D01*
X335631Y3323819D01*
X1612205Y98425D02*
X1616142Y94488D01*
X732677Y1849803D02*
Y1899803D01*
X1338215Y1439396D02*
X1369514D01*
X1375496Y1445378D01*
X1332480Y1433661D02*
X1338215Y1439396D01*
X1265026Y1433661D02*
X1332480D01*
X1255996Y1424631D02*
X1265026Y1433661D01*
X1314370Y1928542D02*
X1405525Y2019697D01*
Y2027571D01*
X1314370Y1533661D02*
Y1928542D01*
X904528Y1597874D02*
X905512Y1596890D01*
X717866Y2137748D02*
X718701Y2138583D01*
X717032Y1964567D02*
X717866Y1965402D01*
Y2137748D01*
X750787Y1906693D02*
Y1932386D01*
X779032Y1960630D01*
X743898Y1899803D02*
X750787Y1906693D01*
X732677Y1899803D02*
X743898D01*
X779032Y1960630D02*
Y1964567D01*
X533465Y1749803D02*
X623280Y1839618D01*
Y1866878D01*
X717032Y1960630D01*
X515354Y1749803D02*
X533465D01*
X717032Y1960630D02*
Y1964567D01*
X735189Y1797291D02*
X794732D01*
X732677Y1799803D02*
X735189Y1797291D01*
X739961Y1749803D02*
X746850Y1742913D01*
Y1686024D02*
Y1742913D01*
X732677Y1749803D02*
X739961D01*
X501181Y1906693D02*
X508071Y1899803D01*
X501181Y1906693D02*
Y1964567D01*
X508071Y1899803D02*
X515354D01*
X368504Y1849803D02*
X515354D01*
X449803Y1751968D02*
X490354Y1792520D01*
Y1792913D01*
X497244Y1799803D02*
X515354D01*
X445866Y1751968D02*
X449803D01*
X490354Y1792913D02*
X497244Y1799803D01*
X389764Y1751968D02*
X445866D01*
X385827Y1755906D02*
X389764Y1751968D01*
X631890Y240157D02*
X1124016D01*
X322839Y1756894D02*
X323827Y1755906D01*
X150591Y1668898D02*
X231299Y1588189D01*
X311905D01*
X169304Y1801664D02*
X211126Y1759842D01*
X169304Y1801664D02*
Y2086614D01*
X267716D02*
X366155D01*
X211126Y1755906D02*
Y1759842D01*
X15260Y1695079D02*
X22149Y1688189D01*
X15260Y1695079D02*
Y1755906D01*
X22149Y1688189D02*
X32087D01*
Y1588189D02*
Y1638189D01*
X263531Y1435287D02*
X263779Y1435039D01*
X263283Y1475394D02*
X263531Y1475146D01*
Y1435287D02*
Y1475146D01*
X263283Y1475394D02*
Y1531299D01*
X256394Y1538189D02*
X263283Y1531299D01*
X249410Y1538189D02*
X256394D01*
X311905Y1588189D02*
X322835Y1577260D01*
X326772D01*
X253787Y1633811D02*
X322394D01*
X326772Y1629433D01*
X249410Y1638189D02*
X253787Y1633811D01*
X381890Y1629433D02*
X381890Y1629433D01*
X326772Y1629433D02*
X381890D01*
X251031Y1689811D02*
X325150D01*
X326772Y1691433D01*
X1372295Y1351130D02*
Y1391980D01*
Y1351130D02*
X1373032Y1350394D01*
X1371559Y1392716D02*
X1372295Y1391980D01*
X1314370Y1383661D02*
X1362504D01*
X1371559Y1392716D01*
X1375496Y1507378D02*
X1429622D01*
X1354732Y1490551D02*
X1371559Y1507378D01*
X1314370Y1483661D02*
X1321260Y1490551D01*
X1354732D01*
X1371559Y1507378D02*
X1375496D01*
X1196260Y1433661D02*
X1296260Y1533661D01*
X1097047Y1433661D02*
X1196260D01*
X1296260Y1533661D02*
X1314370D01*
X1027559Y1595968D02*
X1031496D01*
X979331Y1623465D02*
X988189Y1614606D01*
X1008921D01*
X1027559Y1595968D01*
X1030512Y1594984D02*
X1031496Y1595968D01*
X1030512Y1545276D02*
Y1594984D01*
X1097047Y1383661D02*
Y1433661D01*
X1030512Y1473857D02*
Y1545276D01*
Y1473857D02*
X1040317Y1483661D01*
X1023622Y1466967D02*
X1030512Y1473857D01*
X1023622Y1466535D02*
Y1466967D01*
X1040317Y1483661D02*
X1097047D01*
X940489Y1333206D02*
X975394Y1368110D01*
X930647Y1333206D02*
X940489D01*
X913386Y1315945D02*
X930647Y1333206D01*
X482284Y902559D02*
X518701D01*
X481299Y901575D02*
X482284Y902559D01*
X518701D02*
X519685Y903543D01*
X655315Y925000D02*
X702362D01*
X633858Y903543D02*
X655315Y925000D01*
X629921Y903543D02*
X633858D01*
X574803D02*
X629921D01*
X519685Y965543D02*
X574803D01*
X629921D01*
X634650Y970272D01*
X697634D02*
X702362Y975000D01*
X634650Y970272D02*
X697634D01*
X633858Y1074803D02*
X634055Y1075000D01*
X919685D02*
X926969D01*
X933858Y1081890D01*
X919685Y975000D02*
Y1025000D01*
X929060Y796081D02*
Y797121D01*
Y740523D02*
Y796081D01*
X944629Y780512D01*
X929060Y740523D02*
X929921Y739661D01*
X926968Y799213D02*
X929060Y797121D01*
X944629Y780512D02*
X1086614D01*
X1071260Y975000D02*
X1086614Y959646D01*
X919685Y975000D02*
X1071260D01*
D23*
X925197Y2322835D02*
X984252D01*
X1551772Y355905D02*
Y482677D01*
X1550197Y354331D02*
X1551772Y355905D01*
Y482677D02*
X1553346Y484252D01*
X1547244Y357284D02*
X1550197Y354331D01*
Y354331D02*
Y354331D01*
X846457Y2401575D02*
X925197Y2322835D01*
X444882Y320866D02*
Y390748D01*
D24*
X782087Y799213D02*
X846260D01*
X643701Y660827D02*
X782087Y799213D01*
X850819Y732709D02*
Y791764D01*
X1303150Y231787D02*
Y295772D01*
X1479331Y356299D02*
X1547244D01*
X631890Y437008D02*
X1124016D01*
X523014Y471457D02*
X557463Y437008D01*
X631890D01*
X444882Y471457D02*
X523014D01*
X334134D02*
X444882D01*
X326772Y464094D02*
X334134Y471457D01*
X125984Y436024D02*
Y441457D01*
X148622Y464094D02*
X326772D01*
X125984Y441457D02*
X148622Y464094D01*
X1030512Y1275984D02*
Y1368110D01*
X1127953Y1178543D02*
X1167323D01*
X1030512Y1275984D02*
X1127953Y1178543D01*
X604331Y660827D02*
X643701D01*
D25*
X1361715Y280022D02*
X1363189Y281496D01*
X1303150Y280022D02*
X1361715D01*
X371850Y2719766D02*
X393701Y2697916D01*
X371654Y2797835D02*
X371850Y2797638D01*
X393701Y2696850D02*
Y2697916D01*
X371850Y2719766D02*
Y2797638D01*
X1391732Y2733268D02*
X1392027Y2733563D01*
X1460728D01*
X2953Y3104331D02*
Y3104331D01*
Y3104331D02*
X66457Y3040827D01*
Y3021732D02*
X86614Y3001575D01*
X66457Y3021732D02*
Y3040827D01*
X-2953Y3110236D02*
X2953Y3104331D01*
X-6890Y3110236D02*
X-2953D01*
X-1968Y2696354D02*
X3937Y2702260D01*
X38691Y2753652D02*
Y2753652D01*
X-5906Y2696354D02*
X-1968D01*
X3937Y2702260D02*
Y2718898D01*
X38691Y2753652D01*
Y2753652D02*
X86614Y2801575D01*
X1460728Y2733563D02*
X1461024Y2733858D01*
X1010827Y2705709D02*
Y3031496D01*
X843701Y2538583D02*
X1010827Y2705709D01*
D26*
X693701Y2538583D02*
D03*
X843701D02*
D03*
X818701Y2138583D02*
D03*
X718701D02*
D03*
D27*
X1637795Y1330709D02*
D03*
Y1665354D02*
D03*
X133858Y1147638D02*
D03*
Y812992D02*
D03*
D28*
X1167323Y1817520D02*
D03*
X1417323D02*
D03*
Y1178543D02*
D03*
X1667323D02*
D03*
X1167323D02*
D03*
X604331Y660827D02*
D03*
X354331D02*
D03*
Y1299803D02*
D03*
X104331D02*
D03*
X604331D02*
D03*
D29*
X1667323Y1817520D02*
D03*
X104331Y660827D02*
D03*
D30*
X366142Y2559055D02*
D03*
X169291D02*
D03*
D31*
X106299Y2322846D02*
D03*
X429134D02*
D03*
X472454Y3543319D02*
D03*
X63005D02*
D03*
X1708674D02*
D03*
X1299225D02*
D03*
Y2322846D02*
D03*
X1708674D02*
D03*
D32*
X366155Y2086614D02*
D03*
X267716D02*
D03*
X267729Y3248043D02*
D03*
X366155D02*
D03*
X1503950D02*
D03*
X1602375D02*
D03*
Y2027571D02*
D03*
X1503950D02*
D03*
D33*
X169304Y2086614D02*
D03*
Y3248043D02*
D03*
X1405525D02*
D03*
Y2027571D02*
D03*
D34*
X631890Y437008D02*
D03*
Y240157D02*
D03*
X1124016D02*
D03*
Y437008D02*
D03*
D35*
X935827Y2755905D02*
D03*
D36*
X835827D02*
D03*
D37*
X1389764Y826772D02*
D03*
D38*
X1507874Y1011811D02*
D03*
D39*
X1625984Y826772D02*
D03*
D40*
X86614Y2801575D02*
D03*
Y2901575D02*
D03*
D41*
Y3001575D02*
D03*
D42*
X190945Y1687008D02*
D03*
X671260Y2283464D02*
D03*
Y2598425D02*
D03*
X275591Y196851D02*
D03*
Y748032D02*
D03*
X551181D02*
D03*
X826772Y1299213D02*
D03*
X0Y2952757D02*
D03*
X275591Y2401575D02*
D03*
Y3503938D02*
D03*
X551181D02*
D03*
X826772Y2952757D02*
D03*
X964567Y472441D02*
D03*
X1102363Y1299213D02*
D03*
X964567Y2125985D02*
D03*
X1240158Y1574804D02*
D03*
X1377953Y3503938D02*
D03*
X1614173Y3543307D02*
D03*
X1692913Y3385826D02*
D03*
Y3070866D02*
D03*
X1614173Y2283464D02*
D03*
X1692913Y2125984D02*
D03*
Y1496063D02*
D03*
X1614173Y1023622D02*
D03*
X1692913Y866141D02*
D03*
Y551181D02*
D03*
X1535433Y3385826D02*
D03*
Y2440945D02*
D03*
X1456693Y2283464D02*
D03*
X1535433Y2125984D02*
D03*
Y1811023D02*
D03*
X1456693Y1653543D02*
D03*
X1535433Y1496063D02*
D03*
Y1181102D02*
D03*
Y866141D02*
D03*
X1456693Y708661D02*
D03*
X1299212Y3228346D02*
D03*
X1377952Y3070866D02*
D03*
Y2440945D02*
D03*
X1299212Y1968504D02*
D03*
Y1023622D02*
D03*
Y708661D02*
D03*
X1141732Y3543307D02*
D03*
X1220472Y3385826D02*
D03*
X1141732Y3228346D02*
D03*
X1220472Y3070866D02*
D03*
X1141732Y2598425D02*
D03*
X1220472Y2440945D02*
D03*
X1141732Y2283464D02*
D03*
X1220472Y2125984D02*
D03*
X1141732Y1968504D02*
D03*
X1220472Y1496063D02*
D03*
X1141732Y1023622D02*
D03*
X1220472Y866141D02*
D03*
X1141732Y78740D02*
D03*
X984252Y2598425D02*
D03*
Y2283464D02*
D03*
Y1968504D02*
D03*
X1062992Y1811023D02*
D03*
Y1181102D02*
D03*
X984252Y1023622D02*
D03*
Y708661D02*
D03*
Y393701D02*
D03*
Y78740D02*
D03*
X826771Y2913385D02*
D03*
Y2598425D02*
D03*
Y2283464D02*
D03*
Y1653543D02*
D03*
Y1338582D02*
D03*
Y393701D02*
D03*
Y78740D02*
D03*
X748031Y3070866D02*
D03*
X669291Y1968504D02*
D03*
Y78740D02*
D03*
X590551Y3070866D02*
D03*
X511811Y2598425D02*
D03*
Y2283464D02*
D03*
X590551Y1181102D02*
D03*
Y866141D02*
D03*
X511811Y708661D02*
D03*
X590551Y551181D02*
D03*
X511811Y393701D02*
D03*
Y78740D02*
D03*
X354330Y3543307D02*
D03*
X433071Y3385826D02*
D03*
Y2440945D02*
D03*
X354330Y2283464D02*
D03*
X433071Y2125984D02*
D03*
Y1496063D02*
D03*
Y1181102D02*
D03*
X354330Y1023622D02*
D03*
X433071Y866141D02*
D03*
Y551181D02*
D03*
Y236220D02*
D03*
X354330Y78740D02*
D03*
X196850Y3543307D02*
D03*
X275590Y3385826D02*
D03*
Y2440945D02*
D03*
X196850Y1968504D02*
D03*
Y1338582D02*
D03*
X275590Y1181102D02*
D03*
X196850Y1023622D02*
D03*
X275590Y866141D02*
D03*
X196850Y708661D02*
D03*
X275590Y551181D02*
D03*
X196850Y393701D02*
D03*
X275590Y236220D02*
D03*
X196850Y78740D02*
D03*
X118110Y3385826D02*
D03*
X39370Y3228346D02*
D03*
X118110Y3070866D02*
D03*
Y2440945D02*
D03*
X39370Y2283464D02*
D03*
Y1968504D02*
D03*
X118110Y1811023D02*
D03*
Y1496063D02*
D03*
X39370Y1023622D02*
D03*
X118110Y866141D02*
D03*
Y551181D02*
D03*
X1377953Y2952757D02*
D03*
Y2401575D02*
D03*
X1515748Y1574804D02*
D03*
X1102363Y3503938D02*
D03*
X1240158Y3228347D02*
D03*
Y2125985D02*
D03*
X826772Y196851D02*
D03*
X551181D02*
D03*
X413386Y2125985D02*
D03*
Y1023622D02*
D03*
X137796Y1574804D02*
D03*
Y1023622D02*
D03*
X0Y196851D02*
D03*
X1683071Y2716535D02*
D03*
X974409Y1200787D02*
D03*
X867126D02*
D03*
X155509Y2678147D02*
D03*
X1377953Y570866D02*
D03*
X1466535Y108268D02*
D03*
X1500984Y127953D02*
D03*
X1535433Y271654D02*
D03*
X1309055Y586614D02*
D03*
X1181102Y196850D02*
D03*
X1774606Y3031496D02*
D03*
X1082677Y1653543D02*
D03*
X1496063Y442913D02*
D03*
X910165Y1694882D02*
D03*
X840551Y1792323D02*
D03*
X863189Y1560039D02*
D03*
X846457Y2401575D02*
D03*
X984252Y2322835D02*
D03*
X1702756Y118110D02*
D03*
X423228Y2955248D02*
D03*
X373658D02*
D03*
X314961Y2931975D02*
D03*
X1563976Y2875000D02*
D03*
X191929Y2917323D02*
D03*
X216535Y3051181D02*
D03*
X519685Y2958661D02*
D03*
X1718504Y2551181D02*
D03*
X975394Y1134842D02*
D03*
X1181102Y292323D02*
D03*
X393701Y2696850D02*
D03*
X1391732Y2733268D02*
D03*
X1300197Y2738189D02*
D03*
X492126Y1653543D02*
D03*
Y1437008D02*
D03*
X673228Y1746063D02*
D03*
X575787Y1899606D02*
D03*
X918307Y3092520D02*
D03*
X33465Y482284D02*
D03*
X892716Y3115157D02*
D03*
X1182087Y2995079D02*
D03*
X1302658Y2789230D02*
D03*
X300456Y1806362D02*
D03*
X269685Y1806102D02*
D03*
X769685Y1074803D02*
D03*
X835630Y925197D02*
D03*
X14764Y1814961D02*
D03*
X150591Y1755906D02*
D03*
X1256890Y1387795D02*
D03*
X1197835Y451772D02*
D03*
X1602362Y2876968D02*
D03*
X1187992Y2782480D02*
D03*
X1302165Y2937008D02*
D03*
X817913Y3117126D02*
D03*
X614173Y3472441D02*
D03*
X675197Y3564961D02*
D03*
X833661Y3373032D02*
D03*
X728346Y3372539D02*
D03*
X1570866Y38386D02*
D03*
X1660433Y118110D02*
D03*
X1186024Y90551D02*
D03*
X1003678Y925456D02*
D03*
X444882Y320866D02*
D03*
X263779Y1435039D02*
D03*
X1373032Y1350394D02*
D03*
X481299Y901575D02*
D03*
D43*
X1674213Y2551181D02*
D03*
X1556102D02*
D03*
X905512Y1466535D02*
D03*
X1023622D02*
D03*
X935039Y1200787D02*
D03*
X816929D02*
D03*
D44*
X671654Y2797835D02*
D03*
X621654D02*
D03*
X571654D02*
D03*
X521654D02*
D03*
X471654D02*
D03*
X421654D02*
D03*
X371654D02*
D03*
X671654Y3015158D02*
D03*
X621654D02*
D03*
X571654D02*
D03*
X521654D02*
D03*
X471654D02*
D03*
X421654D02*
D03*
X371654D02*
D03*
D45*
X1535433Y2787598D02*
D03*
Y2704528D02*
D03*
X1322835Y2683268D02*
D03*
Y2600197D02*
D03*
D46*
X672835Y3223032D02*
D03*
Y3273032D02*
D03*
Y3323032D02*
D03*
Y3373032D02*
D03*
Y3423032D02*
D03*
Y3473032D02*
D03*
Y3523032D02*
D03*
X890158Y3223032D02*
D03*
Y3273032D02*
D03*
Y3323032D02*
D03*
Y3373032D02*
D03*
Y3423032D02*
D03*
Y3473032D02*
D03*
Y3523032D02*
D03*
X1243701Y2733858D02*
D03*
Y2783858D02*
D03*
Y2833858D02*
D03*
Y2883858D02*
D03*
Y2933858D02*
D03*
Y2983858D02*
D03*
Y3033858D02*
D03*
X1461024Y2733858D02*
D03*
Y2783858D02*
D03*
Y2833858D02*
D03*
Y2883858D02*
D03*
Y2933858D02*
D03*
Y2983858D02*
D03*
Y3033858D02*
D03*
D47*
X515354Y1749803D02*
D03*
Y1799803D02*
D03*
Y1849803D02*
D03*
Y1899803D02*
D03*
X732677Y1749803D02*
D03*
Y1799803D02*
D03*
Y1849803D02*
D03*
Y1899803D02*
D03*
X1314370Y1533661D02*
D03*
Y1483661D02*
D03*
Y1433661D02*
D03*
Y1383661D02*
D03*
X1097047Y1533661D02*
D03*
Y1483661D02*
D03*
Y1433661D02*
D03*
Y1383661D02*
D03*
X249410Y1688189D02*
D03*
Y1638189D02*
D03*
Y1588189D02*
D03*
Y1538189D02*
D03*
X32087Y1688189D02*
D03*
Y1638189D02*
D03*
Y1588189D02*
D03*
Y1538189D02*
D03*
X919685Y1075000D02*
D03*
Y1025000D02*
D03*
Y975000D02*
D03*
Y925000D02*
D03*
X702362Y1075000D02*
D03*
Y1025000D02*
D03*
Y975000D02*
D03*
Y925000D02*
D03*
D48*
X904528Y1597874D02*
D03*
Y1649055D02*
D03*
X979331Y1623465D02*
D03*
D49*
X1030512Y1407480D02*
D03*
Y1368110D02*
D03*
X975394Y1407480D02*
D03*
Y1368110D02*
D03*
X850394Y692913D02*
D03*
Y732284D02*
D03*
D50*
X1718504Y2676118D02*
D03*
X1755905Y2768638D02*
D03*
X1681102D02*
D03*
D51*
X1479331Y356299D02*
D03*
Y318898D02*
D03*
Y281496D02*
D03*
X1363189D02*
D03*
Y356299D02*
D03*
D52*
X1645669Y281693D02*
D03*
Y167126D02*
D03*
D53*
X1641732Y433071D02*
D03*
Y559055D02*
D03*
D54*
X1509842Y3476378D02*
D03*
Y3655512D02*
D03*
X1086614Y780512D02*
D03*
Y959646D02*
D03*
X125984Y436024D02*
D03*
Y256890D02*
D03*
D55*
X1553346Y484252D02*
D03*
X1438780D02*
D03*
%TF.MD5,4ea24d8c65a1e26eb2501e49a002865e*%
M02*
