%TF.GenerationSoftware,Altium Limited,Altium Designer,23.1.1 (15)*%
G04 Layer_Physical_Order=3*
G04 Layer_Color=16440176*
%FSLAX26Y26*%
%MOIN*%
%TF.SameCoordinates,CF7A6AEE-9E07-4C1C-9DF4-B320C76D0393*%
%TF.FilePolarity,Positive*%
%TF.FileFunction,Copper,L3,Inr,Signal*%
%TF.Part,Single*%
G01*
G75*
%TA.AperFunction,Conductor*%
%ADD28C,0.039370*%
%TA.AperFunction,ComponentPad*%
%ADD29O,0.086614X0.070866*%
%ADD30O,0.090551X0.137795*%
%ADD31O,0.070866X0.086614*%
%ADD32R,0.070866X0.086614*%
%ADD33C,0.078740*%
%ADD34C,0.066000*%
%ADD35R,0.055118X0.055118*%
%ADD36C,0.055118*%
%ADD37O,0.157480X0.078740*%
%ADD38R,0.118110X0.078740*%
%ADD39R,0.094488X0.051181*%
%ADD40R,0.090551X0.188976*%
%ADD41R,0.169291X0.090551*%
%ADD42R,0.090551X0.169291*%
%ADD43C,0.060000*%
%ADD44R,0.060000X0.060000*%
%TA.AperFunction,ViaPad*%
%ADD45C,0.023622*%
G36*
X1800988Y3578520D02*
Y161637D01*
X1649386Y10035D01*
X122267Y10035D01*
X-29335Y161637D01*
Y3578520D01*
X122267Y3730122D01*
X1649386Y3730122D01*
X1800988Y3578520D01*
D02*
G37*
%LPC*%
G36*
X727933Y3687008D02*
X720885D01*
X714374Y3684311D01*
X709390Y3679327D01*
X706693Y3672815D01*
Y3665767D01*
X709390Y3659256D01*
X714374Y3654272D01*
X720885Y3651575D01*
X727933D01*
X734445Y3654272D01*
X739429Y3659256D01*
X742126Y3665767D01*
Y3672815D01*
X739429Y3679327D01*
X734445Y3684311D01*
X727933Y3687008D01*
D02*
G37*
G36*
X1713674Y3622035D02*
Y3548319D01*
X1764427D01*
Y3566941D01*
X1762527Y3581370D01*
X1756957Y3594817D01*
X1748097Y3606364D01*
X1736551Y3615224D01*
X1723104Y3620794D01*
X1713674Y3622035D01*
D02*
G37*
G36*
X477454Y3622035D02*
Y3548319D01*
X528206D01*
Y3566941D01*
X526307Y3581370D01*
X520737Y3594817D01*
X511877Y3606364D01*
X500330Y3615224D01*
X486884Y3620794D01*
X477454Y3622035D01*
D02*
G37*
G36*
X467454Y3622035D02*
X458024Y3620794D01*
X444577Y3615224D01*
X433031Y3606364D01*
X424171Y3594817D01*
X418601Y3581370D01*
X416701Y3566941D01*
Y3548319D01*
X467454D01*
Y3622035D01*
D02*
G37*
G36*
X1703674D02*
X1694244Y3620794D01*
X1680798Y3615224D01*
X1669251Y3606364D01*
X1660391Y3594817D01*
X1654821Y3581370D01*
X1652922Y3566941D01*
Y3548319D01*
X1703674D01*
Y3622035D01*
D02*
G37*
G36*
X1304225D02*
Y3548319D01*
X1354978D01*
Y3566941D01*
X1353078Y3581370D01*
X1347509Y3594817D01*
X1338648Y3606364D01*
X1327102Y3615224D01*
X1313655Y3620794D01*
X1304225Y3622035D01*
D02*
G37*
G36*
X1294225D02*
X1284796Y3620794D01*
X1271349Y3615224D01*
X1259802Y3606364D01*
X1250942Y3594817D01*
X1245372Y3581370D01*
X1243473Y3566941D01*
Y3548319D01*
X1294225D01*
Y3622035D01*
D02*
G37*
G36*
X68005D02*
Y3548319D01*
X118757D01*
Y3566941D01*
X116858Y3581370D01*
X111288Y3594817D01*
X102428Y3606364D01*
X90881Y3615224D01*
X77435Y3620794D01*
X68005Y3622035D01*
D02*
G37*
G36*
X58005D02*
X48575Y3620794D01*
X35129Y3615224D01*
X23582Y3606364D01*
X14722Y3594817D01*
X9152Y3581370D01*
X7252Y3566941D01*
Y3548319D01*
X58005D01*
Y3622035D01*
D02*
G37*
G36*
X467454Y3538319D02*
X416701D01*
Y3519697D01*
X418601Y3505267D01*
X424171Y3491820D01*
X433031Y3480274D01*
X444577Y3471414D01*
X458024Y3465844D01*
X467454Y3464602D01*
Y3538319D01*
D02*
G37*
G36*
X1764427D02*
X1713674D01*
Y3464602D01*
X1723104Y3465844D01*
X1736551Y3471414D01*
X1748097Y3480274D01*
X1756957Y3491820D01*
X1762527Y3505267D01*
X1764427Y3519697D01*
Y3538319D01*
D02*
G37*
G36*
X1354978Y3538319D02*
X1304225D01*
Y3464602D01*
X1313655Y3465844D01*
X1327102Y3471414D01*
X1338648Y3480274D01*
X1347509Y3491820D01*
X1353078Y3505267D01*
X1354978Y3519697D01*
Y3538319D01*
D02*
G37*
G36*
X1294225D02*
X1243473D01*
Y3519697D01*
X1245372Y3505267D01*
X1250942Y3491820D01*
X1259802Y3480274D01*
X1271349Y3471414D01*
X1284796Y3465844D01*
X1294225Y3464602D01*
Y3538319D01*
D02*
G37*
G36*
X118757D02*
X68005D01*
Y3464602D01*
X77435Y3465844D01*
X90881Y3471414D01*
X102428Y3480274D01*
X111288Y3491820D01*
X116858Y3505267D01*
X118757Y3519697D01*
Y3538319D01*
D02*
G37*
G36*
X58005D02*
X7252D01*
Y3519697D01*
X9152Y3505267D01*
X14722Y3491820D01*
X23582Y3480274D01*
X35129Y3471414D01*
X48575Y3465844D01*
X58005Y3464602D01*
Y3538319D01*
D02*
G37*
G36*
X1703674Y3538319D02*
X1652922D01*
Y3519697D01*
X1654821Y3505267D01*
X1660391Y3491820D01*
X1669251Y3480274D01*
X1680798Y3471414D01*
X1694244Y3465844D01*
X1703674Y3464602D01*
Y3538319D01*
D02*
G37*
G36*
X528206D02*
X477454D01*
Y3464602D01*
X486884Y3465844D01*
X500330Y3471414D01*
X511877Y3480274D01*
X520737Y3491820D01*
X526307Y3505267D01*
X528206Y3519697D01*
Y3538319D01*
D02*
G37*
G36*
X590634Y3446354D02*
X583586D01*
X577075Y3443657D01*
X572091Y3438673D01*
X569394Y3432162D01*
Y3425114D01*
X572091Y3418602D01*
X577075Y3413619D01*
X583586Y3410921D01*
X590634D01*
X597146Y3413619D01*
X602130Y3418602D01*
X604827Y3425114D01*
Y3432162D01*
X602130Y3438673D01*
X597146Y3443657D01*
X590634Y3446354D01*
D02*
G37*
G36*
X1163590Y3438976D02*
X1156542D01*
X1150031Y3436279D01*
X1145047Y3431295D01*
X1142350Y3424784D01*
Y3417736D01*
X1145047Y3411224D01*
X1150031Y3406240D01*
X1156542Y3403543D01*
X1163590D01*
X1170102Y3406240D01*
X1175086Y3411224D01*
X1177783Y3417736D01*
Y3424784D01*
X1175086Y3431295D01*
X1170102Y3436279D01*
X1163590Y3438976D01*
D02*
G37*
G36*
X920847Y3411417D02*
X913799D01*
X907287Y3408720D01*
X902303Y3403736D01*
X899606Y3397225D01*
Y3390177D01*
X902303Y3383665D01*
X907287Y3378682D01*
X913799Y3375984D01*
X920847D01*
X927358Y3378682D01*
X932342Y3383665D01*
X935039Y3390177D01*
Y3397225D01*
X932342Y3403736D01*
X927358Y3408720D01*
X920847Y3411417D01*
D02*
G37*
G36*
X1070847Y3411024D02*
X1063799D01*
X1057287Y3408326D01*
X1052303Y3403343D01*
X1049606Y3396831D01*
Y3389783D01*
X1052303Y3383271D01*
X1057287Y3378288D01*
X1063799Y3375591D01*
X1070847D01*
X1077358Y3378288D01*
X1082342Y3383271D01*
X1085039Y3389783D01*
Y3396831D01*
X1082342Y3403343D01*
X1077358Y3408326D01*
X1070847Y3411024D01*
D02*
G37*
G36*
X925197Y3695102D02*
X918516Y3694223D01*
X912291Y3691645D01*
X906946Y3687543D01*
X788835Y3569432D01*
X784733Y3564087D01*
X782155Y3557861D01*
X781275Y3551181D01*
Y2841400D01*
X721906Y2782031D01*
X717804Y2776685D01*
X715226Y2770460D01*
X714346Y2763780D01*
Y2400455D01*
X540804Y2226913D01*
X536702Y2221567D01*
X534123Y2215342D01*
X533244Y2208661D01*
Y1975818D01*
Y1940669D01*
X391109D01*
X360771Y1971007D01*
X355425Y1975109D01*
X349200Y1977688D01*
X342520Y1978567D01*
X335839Y1977688D01*
X329614Y1975109D01*
X324268Y1971007D01*
X320166Y1965661D01*
X317588Y1959436D01*
X316709Y1952756D01*
X317588Y1946075D01*
X320166Y1939850D01*
X324268Y1934505D01*
X362166Y1896607D01*
X367512Y1892505D01*
X373737Y1889926D01*
X380417Y1889047D01*
X391512D01*
Y1611273D01*
X391893Y1608374D01*
X387158Y1606038D01*
X60832Y1932363D01*
X60365Y1935913D01*
X57786Y1942138D01*
X56835Y1943378D01*
Y2264674D01*
X61835Y2266371D01*
X66876Y2259801D01*
X78423Y2250941D01*
X91869Y2245371D01*
X101299Y2244130D01*
Y2322846D01*
Y2401562D01*
X91869Y2400321D01*
X78423Y2394751D01*
X66876Y2385891D01*
X61835Y2379321D01*
X56835Y2381019D01*
Y2533244D01*
X129117D01*
X131934Y2529572D01*
X140570Y2522946D01*
X150626Y2518781D01*
X161417Y2517360D01*
X177165D01*
X187957Y2518781D01*
X198013Y2522946D01*
X206648Y2529572D01*
X213274Y2538207D01*
X217440Y2548264D01*
X218861Y2559055D01*
X217440Y2569847D01*
X213274Y2579903D01*
X206648Y2588538D01*
X198013Y2595164D01*
X187957Y2599330D01*
X177165Y2600750D01*
X161417D01*
X150626Y2599330D01*
X140570Y2595164D01*
X131934Y2588538D01*
X129117Y2584866D01*
X56835D01*
Y2773505D01*
X61835Y2775576D01*
X64568Y2772843D01*
X72755Y2768116D01*
X81887Y2765669D01*
X91341D01*
X100473Y2768116D01*
X108661Y2772843D01*
X115346Y2779528D01*
X120073Y2787716D01*
X122520Y2796848D01*
Y2806302D01*
X120073Y2815434D01*
X115346Y2823621D01*
X108661Y2830306D01*
X100473Y2835033D01*
X91341Y2837480D01*
X81887D01*
X72755Y2835033D01*
X64568Y2830306D01*
X61835Y2827573D01*
X56835Y2829645D01*
Y2868253D01*
X61454Y2870166D01*
X62054Y2869567D01*
X71175Y2864301D01*
X81348Y2861575D01*
X81614D01*
Y2901575D01*
Y2941575D01*
X81348D01*
X71175Y2938849D01*
X62054Y2933583D01*
X61454Y2932983D01*
X56835Y2934897D01*
Y2965669D01*
X122520D01*
Y3037480D01*
X56835D01*
Y3315608D01*
X124865Y3383637D01*
X512931D01*
X627418Y3269150D01*
X632764Y3265048D01*
X638989Y3262470D01*
X645669Y3261590D01*
X652350Y3262470D01*
X658575Y3265048D01*
X663921Y3269150D01*
X668023Y3274496D01*
X670601Y3280721D01*
X671481Y3287402D01*
X670601Y3294082D01*
X668023Y3300307D01*
X663921Y3305653D01*
X541873Y3427700D01*
X536528Y3431802D01*
X530303Y3434381D01*
X523622Y3435260D01*
X114173D01*
X107493Y3434381D01*
X101268Y3431802D01*
X95922Y3427700D01*
X12772Y3344550D01*
X8670Y3339205D01*
X6092Y3332980D01*
X5212Y3326299D01*
Y2782485D01*
X5471Y2780517D01*
X5212Y2778548D01*
Y2559055D01*
Y1935354D01*
X2388Y1932344D01*
X457Y1931457D01*
X-5492D01*
X-12004Y1928760D01*
X-16988Y1923776D01*
X-19685Y1917264D01*
Y1910216D01*
X-16988Y1903705D01*
X-12004Y1898721D01*
X-5492Y1896024D01*
X1556D01*
X8067Y1898721D01*
X11520Y1902174D01*
X15251Y1902724D01*
X16713Y1902645D01*
X17884Y1902307D01*
X450567Y1469624D01*
Y1098425D01*
Y437008D01*
Y287297D01*
X442624Y279355D01*
X77165D01*
X70485Y278475D01*
X64260Y275897D01*
X58914Y271795D01*
X54812Y266449D01*
X52233Y260224D01*
X51354Y253543D01*
X52233Y246863D01*
X54812Y240638D01*
X58914Y235292D01*
X64260Y231190D01*
X70485Y228612D01*
X77165Y227732D01*
X453315D01*
X459996Y228612D01*
X466221Y231190D01*
X471567Y235292D01*
X494629Y258354D01*
X498731Y263700D01*
X501310Y269925D01*
X502189Y276606D01*
Y411197D01*
X594512D01*
X595660Y409208D01*
X604090Y400778D01*
X614414Y394818D01*
X625929Y391732D01*
X637850D01*
X649365Y394818D01*
X659690Y400778D01*
X668119Y409208D01*
X674080Y419532D01*
X677165Y431047D01*
Y442969D01*
X674080Y454484D01*
X668119Y464808D01*
X659690Y473237D01*
X649365Y479198D01*
X637850Y482284D01*
X625929D01*
X614414Y479198D01*
X604090Y473237D01*
X595660Y464808D01*
X594512Y462819D01*
X502189D01*
Y1098425D01*
Y1480315D01*
X501310Y1486996D01*
X498731Y1493221D01*
X494629Y1498566D01*
X478086Y1515110D01*
X480421Y1519846D01*
X483321Y1519464D01*
X670155D01*
X773731Y1415888D01*
X772558Y1409990D01*
X769492Y1408720D01*
X764508Y1403736D01*
X761811Y1397225D01*
Y1390177D01*
X764508Y1383665D01*
X769492Y1378681D01*
X776004Y1375984D01*
X783052D01*
X789563Y1378681D01*
X794547Y1383665D01*
X795817Y1386731D01*
X801715Y1387905D01*
X962378Y1227242D01*
Y992126D01*
X963257Y985446D01*
X965836Y979220D01*
X969938Y973875D01*
X1198284Y745528D01*
X1203630Y741426D01*
X1209855Y738848D01*
X1216535Y737968D01*
X1255906D01*
X1257874Y738227D01*
X1259842Y737968D01*
X1264899D01*
X1460819Y542048D01*
Y437289D01*
X1455819Y433948D01*
X1452753Y435218D01*
X1445705D01*
X1439193Y432521D01*
X1434210Y427537D01*
X1431512Y421026D01*
Y413978D01*
X1434210Y407466D01*
X1439193Y402482D01*
X1445705Y399785D01*
X1452753D01*
X1455819Y401055D01*
X1460819Y397714D01*
Y206975D01*
X1453694Y199850D01*
X1449592Y194504D01*
X1447013Y188279D01*
X1446134Y181598D01*
X1447013Y174918D01*
X1449592Y168693D01*
X1453694Y163347D01*
X1459039Y159245D01*
X1465264Y156667D01*
X1471945Y155787D01*
X1478625Y156667D01*
X1484851Y159245D01*
X1490196Y163347D01*
X1510684Y183834D01*
X1648622D01*
X1655303Y184714D01*
X1661528Y187292D01*
X1666873Y191394D01*
X1670975Y196740D01*
X1673554Y202965D01*
X1674433Y209646D01*
X1673554Y216326D01*
X1670975Y222551D01*
X1666873Y227897D01*
X1661528Y231999D01*
X1655303Y234577D01*
X1648622Y235457D01*
X1512442D01*
Y552740D01*
X1511562Y559420D01*
X1508984Y565645D01*
X1504882Y570991D01*
X1358209Y717664D01*
X1360122Y722284D01*
X1384764D01*
Y821771D01*
X1334488D01*
Y747918D01*
X1329869Y746004D01*
X1293842Y782031D01*
X1288496Y786133D01*
X1282271Y788711D01*
X1275591Y789591D01*
X1259842D01*
X1257874Y789332D01*
X1255906Y789591D01*
X1227227D01*
X1014000Y1002817D01*
Y1237933D01*
X1013121Y1244614D01*
X1010542Y1250839D01*
X1006440Y1256185D01*
X699098Y1563527D01*
X693752Y1567629D01*
X687527Y1570207D01*
X680847Y1571087D01*
X494012D01*
X443134Y1621965D01*
Y1889047D01*
X557583D01*
X564263Y1889926D01*
X570488Y1892505D01*
X575834Y1896607D01*
X577307Y1898079D01*
X581408Y1903425D01*
X583987Y1909650D01*
X584866Y1916331D01*
Y1950007D01*
X848136D01*
X961804Y1836339D01*
X967150Y1832237D01*
X973375Y1829658D01*
X980056Y1828779D01*
X986736Y1829658D01*
X992961Y1832237D01*
X998307Y1836339D01*
X1002409Y1841684D01*
X1004987Y1847909D01*
X1005867Y1854590D01*
X1004987Y1861270D01*
X1002409Y1867495D01*
X998307Y1872841D01*
X877078Y1994070D01*
X871733Y1998172D01*
X865508Y2000750D01*
X858827Y2001630D01*
X584866D01*
Y2197970D01*
X754475Y2367579D01*
X758958Y2364990D01*
X757158Y2358272D01*
Y2348028D01*
X759809Y2338133D01*
X764931Y2329261D01*
X772174Y2322017D01*
X781046Y2316896D01*
X790941Y2314244D01*
X801185D01*
X811080Y2316896D01*
X819952Y2322017D01*
X827195Y2329261D01*
X832317Y2338133D01*
X834968Y2348028D01*
Y2358272D01*
X832317Y2368167D01*
X827195Y2377038D01*
X819952Y2384282D01*
X811080Y2389404D01*
X801185Y2392055D01*
X790941D01*
X781046Y2389404D01*
X772174Y2384282D01*
X769709Y2381816D01*
X769513Y2381870D01*
X765269Y2384447D01*
X765969Y2389764D01*
Y2753088D01*
X825338Y2812457D01*
X829440Y2817803D01*
X832018Y2824028D01*
X832898Y2830709D01*
Y3135514D01*
X837898Y3137912D01*
X842933Y3135827D01*
X849981D01*
X856492Y3138524D01*
X861476Y3143508D01*
X864173Y3150019D01*
Y3157067D01*
X861476Y3163579D01*
X856492Y3168563D01*
X849981Y3171260D01*
X842933D01*
X837898Y3169174D01*
X832898Y3171572D01*
Y3540490D01*
X943448Y3651040D01*
X947550Y3656386D01*
X950129Y3662611D01*
X951008Y3669291D01*
X950129Y3675972D01*
X947550Y3682197D01*
X943448Y3687543D01*
X938102Y3691645D01*
X931877Y3694223D01*
X925197Y3695102D01*
D02*
G37*
G36*
X214737Y3301350D02*
X174304D01*
Y3253043D01*
X214737D01*
Y3301350D01*
D02*
G37*
G36*
X164304D02*
X123871D01*
Y3253043D01*
X164304D01*
Y3301350D01*
D02*
G37*
G36*
X531083Y3285433D02*
X524035D01*
X517524Y3282736D01*
X512540Y3277752D01*
X509843Y3271240D01*
Y3264193D01*
X512540Y3257681D01*
X517524Y3252697D01*
X524035Y3250000D01*
X531083D01*
X537595Y3252697D01*
X542578Y3257681D01*
X545276Y3264193D01*
Y3271240D01*
X542578Y3277752D01*
X537595Y3282736D01*
X531083Y3285433D01*
D02*
G37*
G36*
X987776Y3273622D02*
X980728D01*
X974216Y3270925D01*
X969233Y3265941D01*
X966535Y3259430D01*
Y3252381D01*
X969233Y3245870D01*
X974216Y3240886D01*
X980728Y3238189D01*
X987776D01*
X994288Y3240886D01*
X999271Y3245870D01*
X1001968Y3252381D01*
Y3259430D01*
X999271Y3265941D01*
X994288Y3270925D01*
X987776Y3273622D01*
D02*
G37*
G36*
X1275178Y3261811D02*
X1268130D01*
X1261618Y3259114D01*
X1256634Y3254130D01*
X1253937Y3247619D01*
Y3240570D01*
X1256634Y3234059D01*
X1261618Y3229075D01*
X1268130Y3226378D01*
X1275178D01*
X1281689Y3229075D01*
X1286673Y3234059D01*
X1289370Y3240570D01*
Y3247619D01*
X1286673Y3254130D01*
X1281689Y3259114D01*
X1275178Y3261811D01*
D02*
G37*
G36*
X1446863Y3297256D02*
X1364186D01*
Y3198831D01*
X1446863D01*
Y3297256D01*
D02*
G37*
G36*
X1602375Y3297612D02*
X1591584Y3296192D01*
X1581527Y3292026D01*
X1572892Y3285400D01*
X1566266Y3276765D01*
X1562101Y3266709D01*
X1560680Y3255917D01*
Y3240169D01*
X1562101Y3229378D01*
X1566266Y3219321D01*
X1572892Y3210686D01*
X1581527Y3204060D01*
X1591584Y3199894D01*
X1602375Y3198474D01*
X1613167Y3199894D01*
X1623223Y3204060D01*
X1631858Y3210686D01*
X1638484Y3219321D01*
X1642650Y3229378D01*
X1644070Y3240169D01*
Y3255917D01*
X1642650Y3266709D01*
X1638484Y3276765D01*
X1631858Y3285400D01*
X1623223Y3292026D01*
X1613167Y3296192D01*
X1602375Y3297612D01*
D02*
G37*
G36*
X1503950D02*
X1493158Y3296192D01*
X1483102Y3292026D01*
X1474467Y3285400D01*
X1467841Y3276765D01*
X1463675Y3266709D01*
X1462255Y3255917D01*
Y3240169D01*
X1463675Y3229378D01*
X1467841Y3219321D01*
X1474467Y3210686D01*
X1483102Y3204060D01*
X1493158Y3199894D01*
X1503950Y3198474D01*
X1514741Y3199894D01*
X1524797Y3204060D01*
X1533433Y3210686D01*
X1540059Y3219321D01*
X1544224Y3229378D01*
X1545645Y3240169D01*
Y3255917D01*
X1544224Y3266709D01*
X1540059Y3276765D01*
X1533433Y3285400D01*
X1524797Y3292026D01*
X1514741Y3296192D01*
X1503950Y3297612D01*
D02*
G37*
G36*
X366155D02*
X355363Y3296192D01*
X345307Y3292026D01*
X336672Y3285400D01*
X330046Y3276765D01*
X325880Y3266709D01*
X324459Y3255917D01*
Y3240169D01*
X325880Y3229378D01*
X330046Y3219321D01*
X336672Y3210686D01*
X345307Y3204060D01*
X355363Y3199894D01*
X366155Y3198474D01*
X376946Y3199894D01*
X387002Y3204060D01*
X395638Y3210686D01*
X402264Y3219321D01*
X406429Y3229378D01*
X407850Y3240169D01*
Y3255917D01*
X406429Y3266709D01*
X402264Y3276765D01*
X395638Y3285400D01*
X387002Y3292026D01*
X376946Y3296192D01*
X366155Y3297612D01*
D02*
G37*
G36*
X267729D02*
X256938Y3296192D01*
X246882Y3292026D01*
X238246Y3285400D01*
X231620Y3276765D01*
X227455Y3266709D01*
X226034Y3255917D01*
Y3240169D01*
X227455Y3229378D01*
X231620Y3219321D01*
X238246Y3210686D01*
X246882Y3204060D01*
X256938Y3199894D01*
X267729Y3198474D01*
X278521Y3199894D01*
X288577Y3204060D01*
X297212Y3210686D01*
X303839Y3219321D01*
X308004Y3229378D01*
X309425Y3240169D01*
Y3255917D01*
X308004Y3266709D01*
X303839Y3276765D01*
X297212Y3285400D01*
X288577Y3292026D01*
X278521Y3296192D01*
X267729Y3297612D01*
D02*
G37*
G36*
X214737Y3243043D02*
X174304D01*
Y3194736D01*
X214737D01*
Y3243043D01*
D02*
G37*
G36*
X164304D02*
X123871D01*
Y3194736D01*
X164304D01*
Y3243043D01*
D02*
G37*
G36*
X578327Y3194882D02*
X571279D01*
X564768Y3192185D01*
X559784Y3187201D01*
X557087Y3180689D01*
Y3173641D01*
X559784Y3167130D01*
X564768Y3162146D01*
X571279Y3159449D01*
X578327D01*
X584839Y3162146D01*
X589822Y3167130D01*
X592520Y3173641D01*
Y3180689D01*
X589822Y3187201D01*
X584839Y3192185D01*
X578327Y3194882D01*
D02*
G37*
G36*
X684626Y3143701D02*
X677578D01*
X671067Y3141004D01*
X666083Y3136020D01*
X663386Y3129508D01*
Y3122460D01*
X666083Y3115949D01*
X671067Y3110965D01*
X677578Y3108268D01*
X684626D01*
X691138Y3110965D01*
X696122Y3115949D01*
X698819Y3122460D01*
Y3129508D01*
X696122Y3136020D01*
X691138Y3141004D01*
X684626Y3143701D01*
D02*
G37*
G36*
X633941Y3021157D02*
X626893D01*
X620382Y3018460D01*
X615398Y3013477D01*
X612701Y3006965D01*
Y2999917D01*
X615398Y2993405D01*
X620382Y2988422D01*
X626893Y2985724D01*
X633941D01*
X640453Y2988422D01*
X645437Y2993405D01*
X648134Y2999917D01*
Y3006965D01*
X645437Y3013477D01*
X640453Y3018460D01*
X633941Y3021157D01*
D02*
G37*
G36*
X91880Y2941575D02*
X91614D01*
Y2906575D01*
X126614D01*
Y2906841D01*
X123888Y2917014D01*
X118622Y2926135D01*
X111175Y2933583D01*
X102054Y2938849D01*
X91880Y2941575D01*
D02*
G37*
G36*
X126614Y2896575D02*
X91614D01*
Y2861575D01*
X91880D01*
X102054Y2864301D01*
X111175Y2869567D01*
X118622Y2877014D01*
X123888Y2886135D01*
X126614Y2896309D01*
Y2896575D01*
D02*
G37*
G36*
X840827Y2793450D02*
Y2760905D01*
X873371D01*
X870826Y2770403D01*
X865881Y2778967D01*
X858889Y2785960D01*
X850324Y2790905D01*
X840827Y2793450D01*
D02*
G37*
G36*
X830827D02*
X821330Y2790905D01*
X812765Y2785960D01*
X805772Y2778967D01*
X800827Y2770403D01*
X798283Y2760905D01*
X830827D01*
Y2793450D01*
D02*
G37*
G36*
X969291Y2789370D02*
X902362D01*
Y2722441D01*
X969291D01*
Y2789370D01*
D02*
G37*
G36*
X873371Y2750905D02*
X840827D01*
Y2718361D01*
X850324Y2720906D01*
X858889Y2725851D01*
X865881Y2732844D01*
X870826Y2741408D01*
X873371Y2750905D01*
D02*
G37*
G36*
X830827D02*
X798283D01*
X800827Y2741408D01*
X805772Y2732844D01*
X812765Y2725851D01*
X821330Y2720906D01*
X830827Y2718361D01*
Y2750905D01*
D02*
G37*
G36*
X243681Y2722441D02*
X236633D01*
X230122Y2719744D01*
X225138Y2714760D01*
X222441Y2708248D01*
Y2701200D01*
X225138Y2694689D01*
X230122Y2689705D01*
X236633Y2687008D01*
X243681D01*
X250193Y2689705D01*
X255177Y2694689D01*
X257874Y2701200D01*
Y2708248D01*
X255177Y2714760D01*
X250193Y2719744D01*
X243681Y2722441D01*
D02*
G37*
G36*
X374016Y2600750D02*
X358268D01*
X347476Y2599330D01*
X337420Y2595164D01*
X328785Y2588538D01*
X322159Y2579903D01*
X317993Y2569847D01*
X316572Y2559055D01*
X317993Y2548264D01*
X322159Y2538207D01*
X328785Y2529572D01*
X337420Y2522946D01*
X347476Y2518781D01*
X358268Y2517360D01*
X374016D01*
X384807Y2518781D01*
X394863Y2522946D01*
X403499Y2529572D01*
X410125Y2538207D01*
X414290Y2548264D01*
X415711Y2559055D01*
X414290Y2569847D01*
X410125Y2579903D01*
X403499Y2588538D01*
X394863Y2595164D01*
X384807Y2599330D01*
X374016Y2600750D01*
D02*
G37*
G36*
X499587Y2470472D02*
X492539D01*
X486027Y2467775D01*
X481044Y2462791D01*
X478346Y2456280D01*
Y2449232D01*
X481044Y2442720D01*
X486027Y2437737D01*
X492539Y2435039D01*
X499587D01*
X506099Y2437737D01*
X511082Y2442720D01*
X513779Y2449232D01*
Y2456280D01*
X511082Y2462791D01*
X506099Y2467775D01*
X499587Y2470472D01*
D02*
G37*
G36*
X1201185Y2417055D02*
X1190941D01*
X1181046Y2414404D01*
X1172175Y2409282D01*
X1164931Y2402038D01*
X1159809Y2393167D01*
X1157158Y2383272D01*
Y2373028D01*
X1159809Y2363133D01*
X1164931Y2354261D01*
X1172175Y2347017D01*
X1181046Y2341896D01*
X1190941Y2339244D01*
X1201185D01*
X1211080Y2341896D01*
X1219951Y2347017D01*
X1227195Y2354261D01*
X1232317Y2363133D01*
X1234968Y2373028D01*
Y2383272D01*
X1232317Y2393167D01*
X1227195Y2402038D01*
X1219951Y2409282D01*
X1211080Y2414404D01*
X1201185Y2417055D01*
D02*
G37*
G36*
X434134Y2401562D02*
Y2327847D01*
X484886D01*
Y2346468D01*
X482987Y2360898D01*
X477417Y2374345D01*
X468557Y2385891D01*
X457010Y2394751D01*
X443564Y2400321D01*
X434134Y2401562D01*
D02*
G37*
G36*
X1713674D02*
Y2327847D01*
X1764427D01*
Y2346468D01*
X1762527Y2360898D01*
X1756957Y2374345D01*
X1748097Y2385891D01*
X1736551Y2394751D01*
X1723104Y2400321D01*
X1713674Y2401562D01*
D02*
G37*
G36*
X424134D02*
X414704Y2400321D01*
X401257Y2394751D01*
X389711Y2385891D01*
X380851Y2374345D01*
X375281Y2360898D01*
X373381Y2346468D01*
Y2327847D01*
X424134D01*
Y2401562D01*
D02*
G37*
G36*
X1703674D02*
X1694244Y2400321D01*
X1680798Y2394751D01*
X1669251Y2385891D01*
X1660391Y2374345D01*
X1654821Y2360898D01*
X1652922Y2346468D01*
Y2327847D01*
X1703674D01*
Y2401562D01*
D02*
G37*
G36*
X1304225D02*
Y2327846D01*
X1354978D01*
Y2346468D01*
X1353078Y2360898D01*
X1347509Y2374345D01*
X1338648Y2385891D01*
X1327102Y2394751D01*
X1313655Y2400321D01*
X1304225Y2401562D01*
D02*
G37*
G36*
X1294225D02*
X1284796Y2400321D01*
X1271349Y2394751D01*
X1259802Y2385891D01*
X1250942Y2374345D01*
X1245372Y2360898D01*
X1243473Y2346468D01*
Y2327846D01*
X1294225D01*
Y2401562D01*
D02*
G37*
G36*
X111299D02*
Y2327846D01*
X162052D01*
Y2346468D01*
X160152Y2360898D01*
X154582Y2374345D01*
X145722Y2385891D01*
X134175Y2394751D01*
X120729Y2400321D01*
X111299Y2401562D01*
D02*
G37*
G36*
X550768Y2312992D02*
X543720D01*
X537208Y2310295D01*
X532225Y2305311D01*
X529528Y2298800D01*
Y2291752D01*
X532225Y2285240D01*
X537208Y2280256D01*
X543720Y2277559D01*
X550768D01*
X557280Y2280256D01*
X562263Y2285240D01*
X564961Y2291752D01*
Y2298800D01*
X562263Y2305311D01*
X557280Y2310295D01*
X550768Y2312992D01*
D02*
G37*
G36*
X1764427Y2317847D02*
X1713674D01*
Y2244130D01*
X1723104Y2245371D01*
X1736551Y2250941D01*
X1748097Y2259801D01*
X1756957Y2271348D01*
X1762527Y2284794D01*
X1764427Y2299224D01*
Y2317847D01*
D02*
G37*
G36*
X484886D02*
X434134D01*
Y2244130D01*
X443564Y2245371D01*
X457010Y2250941D01*
X468557Y2259801D01*
X477417Y2271348D01*
X482987Y2284794D01*
X484886Y2299224D01*
Y2317847D01*
D02*
G37*
G36*
X1354978Y2317846D02*
X1304225D01*
Y2244130D01*
X1313655Y2245371D01*
X1327102Y2250941D01*
X1338648Y2259801D01*
X1347509Y2271348D01*
X1353078Y2284794D01*
X1354978Y2299224D01*
Y2317846D01*
D02*
G37*
G36*
X1294225D02*
X1243473D01*
Y2299224D01*
X1245372Y2284794D01*
X1250942Y2271348D01*
X1259802Y2259801D01*
X1271349Y2250941D01*
X1284796Y2245371D01*
X1294225Y2244130D01*
Y2317846D01*
D02*
G37*
G36*
X162052D02*
X111299D01*
Y2244130D01*
X120729Y2245371D01*
X134175Y2250941D01*
X145722Y2259801D01*
X154582Y2271348D01*
X160152Y2284794D01*
X162052Y2299224D01*
Y2317846D01*
D02*
G37*
G36*
X1703674Y2317847D02*
X1652922D01*
Y2299224D01*
X1654821Y2284794D01*
X1660391Y2271348D01*
X1669251Y2259801D01*
X1680798Y2250941D01*
X1694244Y2245371D01*
X1703674Y2244130D01*
Y2317847D01*
D02*
G37*
G36*
X424134D02*
X373381D01*
Y2299224D01*
X375281Y2284794D01*
X380851Y2271348D01*
X389711Y2259801D01*
X401257Y2250941D01*
X414704Y2245371D01*
X424134Y2244130D01*
Y2317847D01*
D02*
G37*
G36*
X1201724Y2271150D02*
X1201063D01*
Y2233150D01*
X1239063D01*
Y2233811D01*
X1236133Y2244747D01*
X1230472Y2254552D01*
X1222466Y2262558D01*
X1212660Y2268219D01*
X1201724Y2271150D01*
D02*
G37*
G36*
X1191063D02*
X1190402D01*
X1179466Y2268219D01*
X1169660Y2262558D01*
X1161655Y2254552D01*
X1155993Y2244747D01*
X1153063Y2233811D01*
Y2233150D01*
X1191063D01*
Y2271150D01*
D02*
G37*
G36*
X801185Y2292055D02*
X790941D01*
X781046Y2289404D01*
X772174Y2284282D01*
X764931Y2277038D01*
X759809Y2268167D01*
X757158Y2258272D01*
Y2248028D01*
X759809Y2238133D01*
X764931Y2229261D01*
X772174Y2222017D01*
X781046Y2216896D01*
X790941Y2214244D01*
X801185D01*
X811080Y2216896D01*
X819952Y2222017D01*
X827195Y2229261D01*
X832317Y2238133D01*
X834968Y2248028D01*
Y2258272D01*
X832317Y2268167D01*
X827195Y2277038D01*
X819952Y2284282D01*
X811080Y2289404D01*
X801185Y2292055D01*
D02*
G37*
G36*
X1239063Y2223150D02*
X1201063D01*
Y2185150D01*
X1201724D01*
X1212660Y2188080D01*
X1222466Y2193741D01*
X1230472Y2201747D01*
X1236133Y2211552D01*
X1239063Y2222488D01*
Y2223150D01*
D02*
G37*
G36*
X1191063D02*
X1153063D01*
Y2222488D01*
X1155993Y2211552D01*
X1161655Y2201747D01*
X1169660Y2193741D01*
X1179466Y2188080D01*
X1190402Y2185150D01*
X1191063D01*
Y2223150D01*
D02*
G37*
G36*
X612382Y2113583D02*
X605334D01*
X598823Y2110885D01*
X593839Y2105902D01*
X591142Y2099390D01*
Y2092342D01*
X593839Y2085831D01*
X598823Y2080847D01*
X605334Y2078150D01*
X612382D01*
X618894Y2080847D01*
X623878Y2085831D01*
X626575Y2092342D01*
Y2099390D01*
X623878Y2105902D01*
X618894Y2110885D01*
X612382Y2113583D01*
D02*
G37*
G36*
X1196437Y2096457D02*
X1189389D01*
X1182878Y2093760D01*
X1177894Y2088776D01*
X1175197Y2082264D01*
Y2075216D01*
X1177894Y2068705D01*
X1182878Y2063721D01*
X1189389Y2061024D01*
X1196437D01*
X1202949Y2063721D01*
X1207933Y2068705D01*
X1210630Y2075216D01*
Y2082264D01*
X1207933Y2088776D01*
X1202949Y2093760D01*
X1196437Y2096457D01*
D02*
G37*
G36*
X866585Y2083789D02*
X859537D01*
X853025Y2081092D01*
X848042Y2076108D01*
X845345Y2069597D01*
Y2062549D01*
X848042Y2056037D01*
X853025Y2051053D01*
X859537Y2048356D01*
X866585D01*
X873097Y2051053D01*
X878080Y2056037D01*
X880778Y2062549D01*
Y2069597D01*
X878080Y2076108D01*
X873097Y2081092D01*
X866585Y2083789D01*
D02*
G37*
G36*
X210643Y2135827D02*
X127966D01*
Y2037401D01*
X210643D01*
Y2135827D01*
D02*
G37*
G36*
X366155Y2136183D02*
X355363Y2134763D01*
X345307Y2130597D01*
X336672Y2123971D01*
X330046Y2115336D01*
X325880Y2105280D01*
X324459Y2094488D01*
Y2078740D01*
X325880Y2067948D01*
X330046Y2057892D01*
X336672Y2049257D01*
X345307Y2042631D01*
X355363Y2038466D01*
X366155Y2037045D01*
X376946Y2038466D01*
X387002Y2042631D01*
X395638Y2049257D01*
X402264Y2057892D01*
X406429Y2067948D01*
X407850Y2078740D01*
Y2094488D01*
X406429Y2105280D01*
X402264Y2115336D01*
X395638Y2123971D01*
X387002Y2130597D01*
X376946Y2134763D01*
X366155Y2136183D01*
D02*
G37*
G36*
X267716D02*
X256925Y2134763D01*
X246869Y2130597D01*
X238233Y2123971D01*
X231607Y2115336D01*
X227442Y2105280D01*
X226021Y2094488D01*
Y2078740D01*
X227442Y2067948D01*
X231607Y2057892D01*
X238233Y2049257D01*
X246869Y2042631D01*
X256925Y2038466D01*
X267716Y2037045D01*
X278508Y2038466D01*
X288564Y2042631D01*
X297200Y2049257D01*
X303826Y2057892D01*
X307991Y2067948D01*
X309412Y2078740D01*
Y2094488D01*
X307991Y2105280D01*
X303826Y2115336D01*
X297200Y2123971D01*
X288564Y2130597D01*
X278508Y2134763D01*
X267716Y2136183D01*
D02*
G37*
G36*
X1446863Y2076783D02*
X1364186D01*
Y1978358D01*
X1446863D01*
Y2076783D01*
D02*
G37*
G36*
X1602375Y2077140D02*
X1591584Y2075719D01*
X1581527Y2071554D01*
X1572892Y2064928D01*
X1566266Y2056292D01*
X1562101Y2046236D01*
X1560680Y2035445D01*
Y2019697D01*
X1562101Y2008905D01*
X1566266Y1998849D01*
X1572892Y1990214D01*
X1581527Y1983587D01*
X1591584Y1979422D01*
X1602375Y1978001D01*
X1613167Y1979422D01*
X1623223Y1983587D01*
X1631858Y1990214D01*
X1638484Y1998849D01*
X1642650Y2008905D01*
X1644070Y2019697D01*
Y2035445D01*
X1642650Y2046236D01*
X1638484Y2056292D01*
X1631858Y2064928D01*
X1623223Y2071554D01*
X1613167Y2075719D01*
X1602375Y2077140D01*
D02*
G37*
G36*
X1503950D02*
X1493158Y2075719D01*
X1483102Y2071554D01*
X1474467Y2064928D01*
X1467841Y2056292D01*
X1463675Y2046236D01*
X1462255Y2035445D01*
Y2019697D01*
X1463675Y2008905D01*
X1467841Y1998849D01*
X1474467Y1990214D01*
X1483102Y1983587D01*
X1493158Y1979422D01*
X1503950Y1978001D01*
X1514741Y1979422D01*
X1524797Y1983587D01*
X1533433Y1990214D01*
X1540059Y1998849D01*
X1544224Y2008905D01*
X1545645Y2019697D01*
Y2035445D01*
X1544224Y2046236D01*
X1540059Y2056292D01*
X1533433Y2064928D01*
X1524797Y2071554D01*
X1514741Y2075719D01*
X1503950Y2077140D01*
D02*
G37*
G36*
X1736378Y1866890D02*
X1672323D01*
Y1822520D01*
X1736378D01*
Y1866890D01*
D02*
G37*
G36*
X1662323D02*
X1598268D01*
Y1822520D01*
X1662323D01*
Y1866890D01*
D02*
G37*
G36*
X1456693Y1867316D02*
X1422323D01*
Y1822520D01*
X1505831D01*
X1504792Y1830408D01*
X1499818Y1842418D01*
X1491904Y1852731D01*
X1481591Y1860644D01*
X1469581Y1865619D01*
X1456693Y1867316D01*
D02*
G37*
G36*
X1412323D02*
X1377953D01*
X1365065Y1865619D01*
X1353055Y1860644D01*
X1342742Y1852731D01*
X1334828Y1842418D01*
X1329854Y1830408D01*
X1328815Y1822520D01*
X1412323D01*
Y1867316D01*
D02*
G37*
G36*
X747619Y1844488D02*
X740571D01*
X734059Y1841791D01*
X729075Y1836807D01*
X726378Y1830296D01*
Y1823248D01*
X729075Y1816736D01*
X734059Y1811752D01*
X740571Y1809055D01*
X747619D01*
X754130Y1811752D01*
X759114Y1816736D01*
X761811Y1823248D01*
Y1830296D01*
X759114Y1836807D01*
X754130Y1841791D01*
X747619Y1844488D01*
D02*
G37*
G36*
X657067Y1836614D02*
X650019D01*
X643508Y1833917D01*
X638524Y1828933D01*
X635827Y1822422D01*
Y1815374D01*
X638524Y1808862D01*
X643508Y1803878D01*
X650019Y1801181D01*
X657067D01*
X663579Y1803878D01*
X668563Y1808862D01*
X671260Y1815374D01*
Y1822422D01*
X668563Y1828933D01*
X663579Y1833917D01*
X657067Y1836614D01*
D02*
G37*
G36*
X1206693Y1863186D02*
X1127953D01*
X1116134Y1861630D01*
X1105120Y1857068D01*
X1095662Y1849811D01*
X1088405Y1840353D01*
X1083843Y1829339D01*
X1082287Y1817520D01*
X1083843Y1805700D01*
X1088405Y1794687D01*
X1095662Y1785229D01*
X1105120Y1777972D01*
X1116134Y1773409D01*
X1127953Y1771853D01*
X1206693D01*
X1218512Y1773409D01*
X1229526Y1777972D01*
X1238984Y1785229D01*
X1246241Y1794687D01*
X1250803Y1805700D01*
X1252359Y1817520D01*
X1250803Y1829339D01*
X1246241Y1840353D01*
X1238984Y1849811D01*
X1229526Y1857068D01*
X1218512Y1861630D01*
X1206693Y1863186D01*
D02*
G37*
G36*
X1736378Y1812520D02*
X1672323D01*
Y1768150D01*
X1736378D01*
Y1812520D01*
D02*
G37*
G36*
X1662323D02*
X1598268D01*
Y1768150D01*
X1662323D01*
Y1812520D01*
D02*
G37*
G36*
X1505831D02*
X1422323D01*
Y1767724D01*
X1456693D01*
X1469581Y1769420D01*
X1481591Y1774395D01*
X1491904Y1782309D01*
X1499818Y1792622D01*
X1504792Y1804631D01*
X1505831Y1812520D01*
D02*
G37*
G36*
X1412323D02*
X1328815D01*
X1329854Y1804631D01*
X1334828Y1792622D01*
X1342742Y1782309D01*
X1353055Y1774395D01*
X1365065Y1769420D01*
X1377953Y1767724D01*
X1412323D01*
Y1812520D01*
D02*
G37*
G36*
X1286989Y1753937D02*
X1279941D01*
X1273429Y1751240D01*
X1268445Y1746256D01*
X1265748Y1739745D01*
Y1732697D01*
X1268445Y1726185D01*
X1273429Y1721201D01*
X1279941Y1718504D01*
X1286989D01*
X1293500Y1721201D01*
X1298484Y1726185D01*
X1301181Y1732697D01*
Y1739745D01*
X1298484Y1746256D01*
X1293500Y1751240D01*
X1286989Y1753937D01*
D02*
G37*
G36*
X3524Y1718504D02*
X-3524D01*
X-10036Y1715807D01*
X-15019Y1710823D01*
X-17716Y1704311D01*
Y1697263D01*
X-15019Y1690752D01*
X-10036Y1685768D01*
X-3524Y1683071D01*
X3524D01*
X10036Y1685768D01*
X15019Y1690752D01*
X17716Y1697263D01*
Y1704311D01*
X15019Y1710823D01*
X10036Y1715807D01*
X3524Y1718504D01*
D02*
G37*
G36*
X1690945Y1696850D02*
X1584646D01*
Y1633858D01*
X1690945D01*
Y1696850D01*
D02*
G37*
G36*
X135020Y1641339D02*
X127972D01*
X121460Y1638641D01*
X116477Y1633658D01*
X113780Y1627146D01*
Y1620098D01*
X116477Y1613586D01*
X121460Y1608603D01*
X127972Y1605906D01*
X135020D01*
X141532Y1608603D01*
X146515Y1613586D01*
X149213Y1620098D01*
Y1627146D01*
X146515Y1633658D01*
X141532Y1638641D01*
X135020Y1641339D01*
D02*
G37*
G36*
X810673Y1635371D02*
X803625D01*
X797113Y1632673D01*
X792130Y1627690D01*
X789433Y1621178D01*
Y1614130D01*
X792130Y1607619D01*
X797113Y1602635D01*
X803625Y1599938D01*
X810673D01*
X817185Y1602635D01*
X822168Y1607619D01*
X824865Y1614130D01*
Y1621178D01*
X822168Y1627690D01*
X817185Y1632673D01*
X810673Y1635371D01*
D02*
G37*
G36*
X598012Y1415354D02*
X590964D01*
X584453Y1412657D01*
X579469Y1407673D01*
X576772Y1401162D01*
Y1394114D01*
X579469Y1387602D01*
X584453Y1382619D01*
X590964Y1379921D01*
X598012D01*
X604524Y1382619D01*
X609508Y1387602D01*
X612205Y1394114D01*
Y1401162D01*
X609508Y1407673D01*
X604524Y1412657D01*
X598012Y1415354D01*
D02*
G37*
G36*
X62579Y1403543D02*
X55531D01*
X49020Y1400846D01*
X44036Y1395862D01*
X41339Y1389351D01*
Y1382303D01*
X44036Y1375791D01*
X49020Y1370807D01*
X55531Y1368110D01*
X62579D01*
X69091Y1370807D01*
X74074Y1375791D01*
X76772Y1382303D01*
Y1389351D01*
X74074Y1395862D01*
X69091Y1400846D01*
X62579Y1403543D01*
D02*
G37*
G36*
X1438563Y1393701D02*
X1431515D01*
X1425004Y1391004D01*
X1420020Y1386020D01*
X1417323Y1379508D01*
Y1372460D01*
X1420020Y1365949D01*
X1425004Y1360965D01*
X1431515Y1358268D01*
X1438563D01*
X1445075Y1360965D01*
X1450059Y1365949D01*
X1452756Y1372460D01*
Y1379508D01*
X1450059Y1386020D01*
X1445075Y1391004D01*
X1438563Y1393701D01*
D02*
G37*
G36*
X643701Y1349599D02*
X609331D01*
Y1304803D01*
X692838D01*
X691800Y1312691D01*
X686825Y1324701D01*
X678912Y1335014D01*
X668599Y1342928D01*
X656589Y1347902D01*
X643701Y1349599D01*
D02*
G37*
G36*
X393701D02*
X359331D01*
Y1304803D01*
X442838D01*
X441800Y1312691D01*
X436825Y1324701D01*
X428912Y1335014D01*
X418599Y1342928D01*
X406589Y1347902D01*
X393701Y1349599D01*
D02*
G37*
G36*
X143701D02*
X109331D01*
Y1304803D01*
X192838D01*
X191800Y1312691D01*
X186825Y1324701D01*
X178912Y1335014D01*
X168599Y1342928D01*
X156589Y1347902D01*
X143701Y1349599D01*
D02*
G37*
G36*
X599331D02*
X564961D01*
X552072Y1347902D01*
X540063Y1342928D01*
X529749Y1335014D01*
X521836Y1324701D01*
X516861Y1312691D01*
X515823Y1304803D01*
X599331D01*
Y1349599D01*
D02*
G37*
G36*
X99331D02*
X64961D01*
X52072Y1347902D01*
X40063Y1342928D01*
X29749Y1335014D01*
X21836Y1324701D01*
X16861Y1312691D01*
X15823Y1304803D01*
X99331D01*
Y1349599D01*
D02*
G37*
G36*
X349331D02*
X314961D01*
X302072Y1347902D01*
X290063Y1342928D01*
X279749Y1335014D01*
X271836Y1324701D01*
X266861Y1312691D01*
X265823Y1304803D01*
X349331D01*
Y1349599D01*
D02*
G37*
G36*
X1690945Y1362205D02*
X1584646D01*
Y1299213D01*
X1690945D01*
Y1362205D01*
D02*
G37*
G36*
X1263367Y1312992D02*
X1256319D01*
X1249807Y1310295D01*
X1244823Y1305311D01*
X1242126Y1298800D01*
Y1291752D01*
X1244823Y1285240D01*
X1249807Y1280256D01*
X1256319Y1277559D01*
X1263367D01*
X1269878Y1280256D01*
X1274862Y1285240D01*
X1277559Y1291752D01*
Y1298800D01*
X1274862Y1305311D01*
X1269878Y1310295D01*
X1263367Y1312992D01*
D02*
G37*
G36*
X692838Y1294803D02*
X609331D01*
Y1250007D01*
X643701D01*
X656589Y1251704D01*
X668599Y1256678D01*
X678912Y1264592D01*
X686825Y1274905D01*
X691800Y1286915D01*
X692838Y1294803D01*
D02*
G37*
G36*
X599331D02*
X515823D01*
X516861Y1286915D01*
X521836Y1274905D01*
X529749Y1264592D01*
X540063Y1256678D01*
X552072Y1251704D01*
X564961Y1250007D01*
X599331D01*
Y1294803D01*
D02*
G37*
G36*
X442838D02*
X359331D01*
Y1250007D01*
X393701D01*
X406589Y1251704D01*
X418599Y1256678D01*
X428912Y1264592D01*
X436825Y1274905D01*
X441800Y1286915D01*
X442838Y1294803D01*
D02*
G37*
G36*
X349331D02*
X265823D01*
X266861Y1286915D01*
X271836Y1274905D01*
X279749Y1264592D01*
X290063Y1256678D01*
X302072Y1251704D01*
X314961Y1250007D01*
X349331D01*
Y1294803D01*
D02*
G37*
G36*
X192838D02*
X109331D01*
Y1250007D01*
X143701D01*
X156589Y1251704D01*
X168599Y1256678D01*
X178912Y1264592D01*
X186825Y1274905D01*
X191800Y1286915D01*
X192838Y1294803D01*
D02*
G37*
G36*
X99331D02*
X15823D01*
X16861Y1286915D01*
X21836Y1274905D01*
X29749Y1264592D01*
X40063Y1256678D01*
X52072Y1251704D01*
X64961Y1250007D01*
X99331D01*
Y1294803D01*
D02*
G37*
G36*
X1706693Y1228339D02*
X1672323D01*
Y1183543D01*
X1755831D01*
X1754792Y1191431D01*
X1749818Y1203441D01*
X1741904Y1213755D01*
X1731591Y1221668D01*
X1719581Y1226643D01*
X1706693Y1228339D01*
D02*
G37*
G36*
X1662323D02*
X1627953D01*
X1615065Y1226643D01*
X1603055Y1221668D01*
X1592742Y1213755D01*
X1584828Y1203441D01*
X1579854Y1191431D01*
X1578815Y1183543D01*
X1662323D01*
Y1228339D01*
D02*
G37*
G36*
X1456693D02*
X1422323D01*
Y1183543D01*
X1505831D01*
X1504792Y1191431D01*
X1499818Y1203441D01*
X1491904Y1213755D01*
X1481591Y1221668D01*
X1469581Y1226643D01*
X1456693Y1228339D01*
D02*
G37*
G36*
X1412323D02*
X1377953D01*
X1365065Y1226643D01*
X1353055Y1221668D01*
X1342742Y1213755D01*
X1334828Y1203441D01*
X1329854Y1191431D01*
X1328815Y1183543D01*
X1412323D01*
Y1228339D01*
D02*
G37*
G36*
X1206693Y1224210D02*
X1127953D01*
X1116134Y1222654D01*
X1105120Y1218091D01*
X1095662Y1210834D01*
X1088405Y1201376D01*
X1083843Y1190363D01*
X1082287Y1178543D01*
X1083843Y1166724D01*
X1088405Y1155710D01*
X1095662Y1146252D01*
X1105120Y1138995D01*
X1116134Y1134433D01*
X1127953Y1132877D01*
X1206693D01*
X1218512Y1134433D01*
X1229526Y1138995D01*
X1238984Y1146252D01*
X1246241Y1155710D01*
X1250803Y1166724D01*
X1252359Y1178543D01*
X1250803Y1190363D01*
X1246241Y1201376D01*
X1238984Y1210834D01*
X1229526Y1218091D01*
X1218512Y1222654D01*
X1206693Y1224210D01*
D02*
G37*
G36*
X1755831Y1173543D02*
X1672323D01*
Y1128747D01*
X1706693D01*
X1719581Y1130444D01*
X1731591Y1135419D01*
X1741904Y1143332D01*
X1749818Y1153645D01*
X1754792Y1165655D01*
X1755831Y1173543D01*
D02*
G37*
G36*
X1662323D02*
X1578815D01*
X1579854Y1165655D01*
X1584828Y1153645D01*
X1592742Y1143332D01*
X1603055Y1135419D01*
X1615065Y1130444D01*
X1627953Y1128747D01*
X1662323D01*
Y1173543D01*
D02*
G37*
G36*
X1505831D02*
X1422323D01*
Y1128747D01*
X1456693D01*
X1469581Y1130444D01*
X1481591Y1135419D01*
X1491904Y1143332D01*
X1499818Y1153645D01*
X1504792Y1165655D01*
X1505831Y1173543D01*
D02*
G37*
G36*
X1412323D02*
X1328815D01*
X1329854Y1165655D01*
X1334828Y1153645D01*
X1342742Y1143332D01*
X1353055Y1135419D01*
X1365065Y1130444D01*
X1377953Y1128747D01*
X1412323D01*
Y1173543D01*
D02*
G37*
G36*
X187008Y1179134D02*
X80709D01*
Y1116142D01*
X187008D01*
Y1179134D01*
D02*
G37*
G36*
X1598425Y1062992D02*
X1417323D01*
Y960630D01*
X1598425D01*
Y1062992D01*
D02*
G37*
G36*
X1445039Y931260D02*
X1394764D01*
Y831771D01*
X1445039D01*
Y931260D01*
D02*
G37*
G36*
X1384764D02*
X1334488D01*
Y831771D01*
X1384764D01*
Y931260D01*
D02*
G37*
G36*
X739745Y860236D02*
X732697D01*
X726185Y857539D01*
X721201Y852555D01*
X718504Y846044D01*
Y838996D01*
X721201Y832484D01*
X726185Y827500D01*
X732697Y824803D01*
X739745D01*
X746256Y827500D01*
X751240Y832484D01*
X753937Y838996D01*
Y846044D01*
X751240Y852555D01*
X746256Y857539D01*
X739745Y860236D01*
D02*
G37*
G36*
X873603Y848425D02*
X866555D01*
X860043Y845728D01*
X855059Y840744D01*
X852362Y834233D01*
Y827185D01*
X855059Y820673D01*
X860043Y815689D01*
X866555Y812992D01*
X873603D01*
X880114Y815689D01*
X885098Y820673D01*
X887795Y827185D01*
Y834233D01*
X885098Y840744D01*
X880114Y845728D01*
X873603Y848425D01*
D02*
G37*
G36*
X1263367Y832677D02*
X1256319D01*
X1249807Y829980D01*
X1244823Y824996D01*
X1242126Y818485D01*
Y811437D01*
X1244823Y804925D01*
X1249807Y799941D01*
X1256319Y797244D01*
X1263367D01*
X1269878Y799941D01*
X1274862Y804925D01*
X1277559Y811437D01*
Y818485D01*
X1274862Y824996D01*
X1269878Y829980D01*
X1263367Y832677D01*
D02*
G37*
G36*
X187008Y844488D02*
X80709D01*
Y781496D01*
X187008D01*
Y844488D01*
D02*
G37*
G36*
X977017Y798821D02*
X969969D01*
X963457Y796123D01*
X958473Y791140D01*
X955776Y784628D01*
Y777580D01*
X958473Y771068D01*
X963457Y766085D01*
X969969Y763388D01*
X977017D01*
X983528Y766085D01*
X988512Y771068D01*
X991209Y777580D01*
Y784628D01*
X988512Y791140D01*
X983528Y796123D01*
X977017Y798821D01*
D02*
G37*
G36*
X1677165Y917323D02*
X1574803D01*
Y736221D01*
X1677165D01*
Y917323D01*
D02*
G37*
G36*
X1445039Y821771D02*
X1394764D01*
Y722284D01*
X1445039D01*
Y821771D01*
D02*
G37*
G36*
X920847Y722441D02*
X913799D01*
X907287Y719744D01*
X902303Y714760D01*
X899606Y708248D01*
Y701200D01*
X902303Y694689D01*
X907287Y689705D01*
X913799Y687008D01*
X920847D01*
X927358Y689705D01*
X932342Y694689D01*
X935039Y701200D01*
Y708248D01*
X932342Y714760D01*
X927358Y719744D01*
X920847Y722441D01*
D02*
G37*
G36*
X393701Y710623D02*
X359331D01*
Y665827D01*
X442838D01*
X441800Y673715D01*
X436825Y685725D01*
X428912Y696038D01*
X418599Y703952D01*
X406589Y708926D01*
X393701Y710623D01*
D02*
G37*
G36*
X173386Y710197D02*
X109331D01*
Y665827D01*
X173386D01*
Y710197D01*
D02*
G37*
G36*
X99331D02*
X35276D01*
Y665827D01*
X99331D01*
Y710197D01*
D02*
G37*
G36*
X349331Y710623D02*
X314961D01*
X302072Y708926D01*
X290063Y703952D01*
X279749Y696038D01*
X271836Y685725D01*
X266861Y673715D01*
X265823Y665827D01*
X349331D01*
Y710623D01*
D02*
G37*
G36*
X643701Y706493D02*
X564961D01*
X553141Y704937D01*
X542127Y700375D01*
X532670Y693118D01*
X525412Y683660D01*
X520850Y672646D01*
X519294Y660827D01*
X520850Y649008D01*
X525412Y637994D01*
X532670Y628536D01*
X542127Y621279D01*
X553141Y616716D01*
X564961Y615160D01*
X643701D01*
X655520Y616716D01*
X666534Y621279D01*
X675992Y628536D01*
X683249Y637994D01*
X687811Y649008D01*
X689367Y660827D01*
X687811Y672646D01*
X683249Y683660D01*
X675992Y693118D01*
X666534Y700375D01*
X655520Y704937D01*
X643701Y706493D01*
D02*
G37*
G36*
X173386Y655827D02*
X109331D01*
Y611457D01*
X173386D01*
Y655827D01*
D02*
G37*
G36*
X99331D02*
X35276D01*
Y611457D01*
X99331D01*
Y655827D01*
D02*
G37*
G36*
X442838D02*
X359331D01*
Y611031D01*
X393701D01*
X406589Y612727D01*
X418599Y617702D01*
X428912Y625616D01*
X436825Y635929D01*
X441800Y647939D01*
X442838Y655827D01*
D02*
G37*
G36*
X349331D02*
X265823D01*
X266861Y647939D01*
X271836Y635929D01*
X279749Y625616D01*
X290063Y617702D01*
X302072Y612727D01*
X314961Y611031D01*
X349331D01*
Y655827D01*
D02*
G37*
G36*
X883136Y555118D02*
X872770D01*
X862757Y552435D01*
X853779Y547252D01*
X846449Y539922D01*
X841266Y530944D01*
X838583Y520931D01*
Y510565D01*
X841266Y500552D01*
X846449Y491574D01*
X853779Y484244D01*
X862757Y479061D01*
X872770Y476378D01*
X883136D01*
X893149Y479061D01*
X902126Y484244D01*
X909457Y491574D01*
X914640Y500552D01*
X917323Y510565D01*
Y520931D01*
X914640Y530944D01*
X909457Y539922D01*
X902126Y547252D01*
X893149Y552435D01*
X883136Y555118D01*
D02*
G37*
G36*
X124364Y433577D02*
X117316D01*
X110804Y430880D01*
X105821Y425896D01*
X103124Y419385D01*
Y412337D01*
X105821Y405825D01*
X110804Y400841D01*
X117316Y398144D01*
X124364D01*
X130876Y400841D01*
X135859Y405825D01*
X138556Y412337D01*
Y419385D01*
X135859Y425896D01*
X130876Y430880D01*
X124364Y433577D01*
D02*
G37*
G36*
X1129976Y482284D02*
X1118055D01*
X1106540Y479198D01*
X1096216Y473237D01*
X1087786Y464808D01*
X1081826Y454484D01*
X1078740Y442969D01*
Y431047D01*
X1081826Y419532D01*
X1087786Y409208D01*
X1096216Y400778D01*
X1106540Y394818D01*
X1118055Y391732D01*
X1129976D01*
X1141492Y394818D01*
X1151816Y400778D01*
X1160245Y409208D01*
X1166206Y419532D01*
X1169291Y431047D01*
Y442969D01*
X1166206Y454484D01*
X1160245Y464808D01*
X1151816Y473237D01*
X1141492Y479198D01*
X1129976Y482284D01*
D02*
G37*
G36*
X326359Y427165D02*
X319311D01*
X312799Y424468D01*
X307815Y419484D01*
X305118Y412973D01*
Y405925D01*
X307815Y399413D01*
X312799Y394430D01*
X319311Y391732D01*
X326359D01*
X332870Y394430D01*
X337854Y399413D01*
X340551Y405925D01*
Y412973D01*
X337854Y419484D01*
X332870Y424468D01*
X326359Y427165D01*
D02*
G37*
G36*
X176752D02*
X169704D01*
X163193Y424468D01*
X158209Y419484D01*
X155512Y412973D01*
Y405925D01*
X158209Y399413D01*
X163193Y394430D01*
X169704Y391732D01*
X176752D01*
X183264Y394430D01*
X188248Y399413D01*
X190945Y405925D01*
Y412973D01*
X188248Y419484D01*
X183264Y424468D01*
X176752Y427165D01*
D02*
G37*
G36*
X7461Y375984D02*
X413D01*
X-6099Y373287D01*
X-11082Y368303D01*
X-13780Y361792D01*
Y354744D01*
X-11082Y348232D01*
X-6099Y343248D01*
X413Y340551D01*
X7461D01*
X13973Y343248D01*
X18956Y348232D01*
X21654Y354744D01*
Y361792D01*
X18956Y368303D01*
X13973Y373287D01*
X7461Y375984D01*
D02*
G37*
G36*
X633445Y352362D02*
X626397D01*
X619886Y349665D01*
X614902Y344681D01*
X612205Y338170D01*
Y331122D01*
X614902Y324610D01*
X619886Y319626D01*
X626397Y316929D01*
X633445D01*
X639957Y319626D01*
X644941Y324610D01*
X647638Y331122D01*
Y338170D01*
X644941Y344681D01*
X639957Y349665D01*
X633445Y352362D01*
D02*
G37*
G36*
X1129976Y285433D02*
X1118055D01*
X1106540Y282348D01*
X1096216Y276387D01*
X1087786Y267957D01*
X1081826Y257633D01*
X1078740Y246118D01*
Y234197D01*
X1081826Y222682D01*
X1087786Y212358D01*
X1096216Y203928D01*
X1106540Y197967D01*
X1118055Y194882D01*
X1129976D01*
X1141492Y197967D01*
X1151816Y203928D01*
X1160245Y212358D01*
X1166206Y222682D01*
X1169291Y234197D01*
Y246118D01*
X1166206Y257633D01*
X1160245Y267957D01*
X1151816Y276387D01*
X1141492Y282348D01*
X1129976Y285433D01*
D02*
G37*
G36*
X637850D02*
X625929D01*
X614414Y282348D01*
X604090Y276387D01*
X595660Y267957D01*
X589700Y257633D01*
X586614Y246118D01*
Y234197D01*
X589700Y222682D01*
X595660Y212358D01*
X604090Y203928D01*
X614414Y197967D01*
X625929Y194882D01*
X637850D01*
X649365Y197967D01*
X659690Y203928D01*
X668119Y212358D01*
X674080Y222682D01*
X677165Y234197D01*
Y246118D01*
X674080Y257633D01*
X668119Y267957D01*
X659690Y276387D01*
X649365Y282348D01*
X637850Y285433D01*
D02*
G37*
G36*
X883136Y200787D02*
X872770D01*
X862757Y198104D01*
X853779Y192921D01*
X846449Y185591D01*
X841266Y176613D01*
X838583Y166601D01*
Y156234D01*
X841266Y146221D01*
X846449Y137244D01*
X853779Y129913D01*
X862757Y124730D01*
X872770Y122047D01*
X883136D01*
X893149Y124730D01*
X902126Y129913D01*
X909457Y137244D01*
X914640Y146221D01*
X917323Y156234D01*
Y166601D01*
X914640Y176613D01*
X909457Y185591D01*
X902126Y192921D01*
X893149Y198104D01*
X883136Y200787D01*
D02*
G37*
G36*
X369666Y143701D02*
X362618D01*
X356106Y141004D01*
X351122Y136020D01*
X348425Y129508D01*
Y122460D01*
X351122Y115949D01*
X356106Y110965D01*
X362618Y108268D01*
X369666D01*
X376177Y110965D01*
X381161Y115949D01*
X383858Y122460D01*
Y129508D01*
X381161Y136020D01*
X376177Y141004D01*
X369666Y143701D01*
D02*
G37*
%LPD*%
D28*
X1486630Y196284D02*
Y552740D01*
X1275591Y763779D02*
X1486630Y552740D01*
X1259842Y763779D02*
X1275591D01*
X988189Y992126D02*
X1216535Y763779D01*
X1255906D01*
X988189Y992126D02*
Y1237933D01*
X559055Y1916331D02*
Y1975818D01*
X557583Y1914858D02*
X559055Y1916331D01*
X417323Y1611273D02*
Y1914858D01*
X380417D02*
X417323D01*
X557583D01*
X559055Y1975818D02*
Y2208661D01*
Y1975818D02*
X858827D01*
X31024Y1933642D02*
X35433Y1929233D01*
Y1921260D02*
Y1929233D01*
Y1921260D02*
X476378Y1480315D01*
X31024Y2559055D02*
Y2778548D01*
Y1933642D02*
Y2559055D01*
X476378Y1098425D02*
Y1480315D01*
X31024Y2782485D02*
Y3326299D01*
X34961Y2559055D02*
X169291D01*
X417323Y1611273D02*
X483321Y1545276D01*
X680847D01*
X476378Y437008D02*
Y1098425D01*
X77165Y253543D02*
X453315D01*
X476378Y276606D01*
Y437008D01*
X858827Y1975818D02*
X980056Y1854590D01*
X1471945Y181598D02*
X1499992Y209646D01*
X523622Y3409449D02*
X645669Y3287402D01*
X114173Y3409449D02*
X523622D01*
X31024Y3326299D02*
X114173Y3409449D01*
X476378Y437008D02*
X631890D01*
X680847Y1545276D02*
X988189Y1237933D01*
X807087Y3551181D02*
X925197Y3669291D01*
X807087Y2830709D02*
Y3551181D01*
X740158Y2763780D02*
X807087Y2830709D01*
X740158Y2389764D02*
Y2763780D01*
X559055Y2208661D02*
X740158Y2389764D01*
X1499992Y209646D02*
X1648622D01*
X342520Y1952756D02*
X380417Y1914858D01*
D29*
X366142Y2559055D02*
D03*
X169291D02*
D03*
D30*
X106299Y2322846D02*
D03*
X429134D02*
D03*
X472454Y3543319D02*
D03*
X63005D02*
D03*
X1708674D02*
D03*
X1299225D02*
D03*
Y2322846D02*
D03*
X1708674D02*
D03*
D31*
X366155Y2086614D02*
D03*
X267716D02*
D03*
X267729Y3248043D02*
D03*
X366155D02*
D03*
X1503950D02*
D03*
X1602375D02*
D03*
Y2027571D02*
D03*
X1503950D02*
D03*
D32*
X169304Y2086614D02*
D03*
Y3248043D02*
D03*
X1405525D02*
D03*
Y2027571D02*
D03*
D33*
X631890Y437008D02*
D03*
Y240157D02*
D03*
X1124016D02*
D03*
Y437008D02*
D03*
D34*
X796063Y2253150D02*
D03*
Y2353150D02*
D03*
X1196063Y2378150D02*
D03*
Y2228150D02*
D03*
D35*
X935827Y2755905D02*
D03*
D36*
X835827D02*
D03*
D37*
X1167323Y1178543D02*
D03*
X1667323D02*
D03*
X1417323D02*
D03*
Y1817520D02*
D03*
X1167323D02*
D03*
X604331Y1299803D02*
D03*
X104331D02*
D03*
X354331D02*
D03*
Y660827D02*
D03*
X604331D02*
D03*
D38*
X1667323Y1817520D02*
D03*
X104331Y660827D02*
D03*
D39*
X1637795Y1665354D02*
D03*
Y1330709D02*
D03*
X133858Y812992D02*
D03*
Y1147638D02*
D03*
D40*
X1389764Y826772D02*
D03*
D41*
X1507874Y1011811D02*
D03*
D42*
X1625984Y826772D02*
D03*
D43*
X86614Y2801575D02*
D03*
Y2901575D02*
D03*
D44*
Y3001575D02*
D03*
D45*
X1535433Y2440945D02*
D03*
X1614173Y2283464D02*
D03*
X984252Y708661D02*
D03*
X275590Y3070866D02*
D03*
X1220472Y1496063D02*
D03*
X1692913Y2125984D02*
D03*
X748031Y551181D02*
D03*
X118110Y866141D02*
D03*
X1456693Y1653543D02*
D03*
X1692913Y3070866D02*
D03*
X1264112Y673561D02*
D03*
X1535433Y2125984D02*
D03*
X1377952Y1496063D02*
D03*
X1456693Y1338582D02*
D03*
X1062992Y1811023D02*
D03*
X590551Y2755905D02*
D03*
X1692913Y1496063D02*
D03*
X984252Y2598425D02*
D03*
X1220472Y2440945D02*
D03*
X354330Y3543307D02*
D03*
X826771Y78740D02*
D03*
X196850Y2913385D02*
D03*
Y1023622D02*
D03*
X984252Y393701D02*
D03*
X826771D02*
D03*
X118110Y2440945D02*
D03*
X39370Y1023622D02*
D03*
X1141732Y2283464D02*
D03*
X1456693Y3543307D02*
D03*
X118110Y3070866D02*
D03*
X1456693Y2283464D02*
D03*
X1535433Y2755905D02*
D03*
X1141732Y2598425D02*
D03*
X196850Y708661D02*
D03*
X1141732Y78740D02*
D03*
X1062992Y2125984D02*
D03*
X433071Y866141D02*
D03*
X1377952Y2440945D02*
D03*
X433071Y3070866D02*
D03*
Y551181D02*
D03*
X511811Y78740D02*
D03*
X1456693D02*
D03*
X275590Y2755905D02*
D03*
X984252Y78740D02*
D03*
X1141732Y3543307D02*
D03*
X196850Y2283464D02*
D03*
X275590Y1496063D02*
D03*
X1535433Y1181102D02*
D03*
X511811Y2283464D02*
D03*
X1220472Y3385826D02*
D03*
X1062992Y551181D02*
D03*
X905511Y2440945D02*
D03*
X748031Y2125984D02*
D03*
X118110Y2755905D02*
D03*
X1456693Y708661D02*
D03*
X669291Y78740D02*
D03*
X1692913Y3385826D02*
D03*
X433071Y1181102D02*
D03*
X1614173Y3543307D02*
D03*
X1692913Y2755905D02*
D03*
X669291Y3228346D02*
D03*
X590551Y551181D02*
D03*
X275590Y1181102D02*
D03*
X1692913Y2440945D02*
D03*
X1614173Y1023622D02*
D03*
X1535433Y3385826D02*
D03*
X1692913Y866141D02*
D03*
X1141732Y2913385D02*
D03*
X1062992Y1181102D02*
D03*
X511811Y2913385D02*
D03*
X433071Y2755905D02*
D03*
X196850Y3543307D02*
D03*
X1377952Y3070866D02*
D03*
X1535433Y866141D02*
D03*
X275590D02*
D03*
X826771Y1338582D02*
D03*
X1299212Y1023622D02*
D03*
X275590Y2440945D02*
D03*
Y551181D02*
D03*
X622047Y2629921D02*
D03*
X1082181Y3113677D02*
D03*
X1763780Y582677D02*
D03*
X1449229Y417502D02*
D03*
X1531496Y259842D02*
D03*
X1264764Y235236D02*
D03*
X1429134Y169291D02*
D03*
X1547244Y94488D02*
D03*
X1200787Y700787D02*
D03*
X973493Y781104D02*
D03*
X-1968Y1913740D02*
D03*
X417323Y1611273D02*
D03*
X506813Y1507874D02*
D03*
X984252Y3255905D02*
D03*
X594488Y1397638D02*
D03*
X773622Y1051181D02*
D03*
X1259842Y763779D02*
D03*
X949016Y1625000D02*
D03*
X681102Y3125984D02*
D03*
X1259842Y90551D02*
D03*
X736221Y842520D02*
D03*
X1259842Y1295276D02*
D03*
X1283465Y1736220D02*
D03*
X1192913Y2078740D02*
D03*
X807149Y1617654D02*
D03*
X980056Y1854590D02*
D03*
X850394Y1878449D02*
D03*
X988189Y992126D02*
D03*
X1066929Y1047244D02*
D03*
X645669Y3287402D02*
D03*
X131496Y1623622D02*
D03*
X173228Y409449D02*
D03*
X371654Y304724D02*
D03*
X271654Y303150D02*
D03*
X421654Y414370D02*
D03*
X322835Y409449D02*
D03*
X1435039Y1375984D02*
D03*
X1236220Y1090551D02*
D03*
X843016Y1460134D02*
D03*
X629921Y334646D02*
D03*
X120840Y415861D02*
D03*
X127457Y85142D02*
D03*
X987693Y134354D02*
D03*
X948819Y330709D02*
D03*
X-3937Y503937D02*
D03*
X3937Y358268D02*
D03*
X77165Y253543D02*
D03*
X200787Y976378D02*
D03*
X476378Y1098425D02*
D03*
X677165Y830709D02*
D03*
X1067323Y3393307D02*
D03*
X863061Y2066073D02*
D03*
X763779Y2874016D02*
D03*
X846457Y3153543D02*
D03*
X921260Y3055118D02*
D03*
Y2956693D02*
D03*
X547244Y2295276D02*
D03*
X1259842Y814961D02*
D03*
X925197Y3149606D02*
D03*
X587110Y3428638D02*
D03*
X527559Y3267716D02*
D03*
X574803Y3177165D02*
D03*
X575299Y1775094D02*
D03*
X694528Y1603720D02*
D03*
X1160066Y3421260D02*
D03*
X1271653Y3244095D02*
D03*
X1633858Y2472441D02*
D03*
X1680606Y2862701D02*
D03*
X724409Y3669291D02*
D03*
X866142Y3393701D02*
D03*
X917323D02*
D03*
X925197Y3669291D02*
D03*
X830709Y3657480D02*
D03*
X1413386Y2712598D02*
D03*
X1562992Y2877953D02*
D03*
X559055Y2208661D02*
D03*
X608858Y2095866D02*
D03*
X240157Y2704724D02*
D03*
X496063Y2452756D02*
D03*
X405016Y1952260D02*
D03*
X630417Y3003441D02*
D03*
X0Y1850394D02*
D03*
X685039Y2905512D02*
D03*
X1307087Y3011811D02*
D03*
X322835Y2704724D02*
D03*
X437008Y2818898D02*
D03*
X870079Y830709D02*
D03*
X1094488Y645669D02*
D03*
X366142Y125984D02*
D03*
X637795Y1397638D02*
D03*
X779528Y1393701D02*
D03*
X653543Y1818898D02*
D03*
X342520Y1952756D02*
D03*
X744095Y1826772D02*
D03*
X21654Y1531496D02*
D03*
X480315Y1606299D02*
D03*
X610236Y1866142D02*
D03*
X492126Y2027559D02*
D03*
X874016Y606299D02*
D03*
X917323Y704724D02*
D03*
X0Y1700787D02*
D03*
X59055Y1385827D02*
D03*
%TF.MD5,ac29bd8fa2301625a0d3da41f5eba2fa*%
M02*
