%TF.GenerationSoftware,Altium Limited,Altium Designer,23.4.1 (23)*%
G04 Layer_Physical_Order=1*
G04 Layer_Color=255*
%FSLAX26Y26*%
%MOIN*%
%TF.SameCoordinates,0B69EAEB-4B52-49E6-8846-B3B3CADC8916*%
%TF.FilePolarity,Positive*%
%TF.FileFunction,Copper,L1,Top,Signal*%
%TF.Part,Single*%
G01*
G75*
%TA.AperFunction,SMDPad,CuDef*%
G04:AMPARAMS|DCode=10|XSize=39.37mil|YSize=31.496mil|CornerRadius=3.937mil|HoleSize=0mil|Usage=FLASHONLY|Rotation=270.000|XOffset=0mil|YOffset=0mil|HoleType=Round|Shape=RoundedRectangle|*
%AMROUNDEDRECTD10*
21,1,0.039370,0.023622,0,0,270.0*
21,1,0.031496,0.031496,0,0,270.0*
1,1,0.007874,-0.011811,-0.015748*
1,1,0.007874,-0.011811,0.015748*
1,1,0.007874,0.011811,0.015748*
1,1,0.007874,0.011811,-0.015748*
%
%ADD10ROUNDEDRECTD10*%
%ADD11R,0.057087X0.023622*%
%ADD12R,0.023228X0.017716*%
G04:AMPARAMS|DCode=13|XSize=68.898mil|YSize=43.307mil|CornerRadius=5.413mil|HoleSize=0mil|Usage=FLASHONLY|Rotation=0.000|XOffset=0mil|YOffset=0mil|HoleType=Round|Shape=RoundedRectangle|*
%AMROUNDEDRECTD13*
21,1,0.068898,0.032480,0,0,0.0*
21,1,0.058071,0.043307,0,0,0.0*
1,1,0.010827,0.029035,-0.016240*
1,1,0.010827,-0.029035,-0.016240*
1,1,0.010827,-0.029035,0.016240*
1,1,0.010827,0.029035,0.016240*
%
%ADD13ROUNDEDRECTD13*%
G04:AMPARAMS|DCode=14|XSize=59.055mil|YSize=45.276mil|CornerRadius=5.659mil|HoleSize=0mil|Usage=FLASHONLY|Rotation=270.000|XOffset=0mil|YOffset=0mil|HoleType=Round|Shape=RoundedRectangle|*
%AMROUNDEDRECTD14*
21,1,0.059055,0.033957,0,0,270.0*
21,1,0.047736,0.045276,0,0,270.0*
1,1,0.011319,-0.016978,-0.023868*
1,1,0.011319,-0.016978,0.023868*
1,1,0.011319,0.016978,0.023868*
1,1,0.011319,0.016978,-0.023868*
%
%ADD14ROUNDEDRECTD14*%
%ADD15R,0.064961X0.135827*%
G04:AMPARAMS|DCode=16|XSize=59.055mil|YSize=45.276mil|CornerRadius=5.659mil|HoleSize=0mil|Usage=FLASHONLY|Rotation=0.000|XOffset=0mil|YOffset=0mil|HoleType=Round|Shape=RoundedRectangle|*
%AMROUNDEDRECTD16*
21,1,0.059055,0.033957,0,0,0.0*
21,1,0.047736,0.045276,0,0,0.0*
1,1,0.011319,0.023868,-0.016978*
1,1,0.011319,-0.023868,-0.016978*
1,1,0.011319,-0.023868,0.016978*
1,1,0.011319,0.023868,0.016978*
%
%ADD16ROUNDEDRECTD16*%
%ADD17R,0.066000X0.060000*%
%ADD18R,0.104331X0.068898*%
%TA.AperFunction,ConnectorPad*%
%ADD19R,0.135827X0.064961*%
%TA.AperFunction,SMDPad,CuDef*%
%ADD20R,0.135827X0.064961*%
G04:AMPARAMS|DCode=21|XSize=39.37mil|YSize=31.496mil|CornerRadius=3.937mil|HoleSize=0mil|Usage=FLASHONLY|Rotation=0.000|XOffset=0mil|YOffset=0mil|HoleType=Round|Shape=RoundedRectangle|*
%AMROUNDEDRECTD21*
21,1,0.039370,0.023622,0,0,0.0*
21,1,0.031496,0.031496,0,0,0.0*
1,1,0.007874,0.015748,-0.011811*
1,1,0.007874,-0.015748,-0.011811*
1,1,0.007874,-0.015748,0.011811*
1,1,0.007874,0.015748,0.011811*
%
%ADD21ROUNDEDRECTD21*%
%TA.AperFunction,Conductor*%
%ADD22C,0.009842*%
%ADD23C,0.039370*%
%ADD24C,0.029528*%
%ADD25C,0.019685*%
%TA.AperFunction,ComponentPad*%
%ADD26C,0.066000*%
%ADD27R,0.094488X0.051181*%
%ADD28O,0.157480X0.078740*%
%ADD29R,0.118110X0.078740*%
%ADD30O,0.086614X0.070866*%
%ADD31O,0.090551X0.137795*%
%ADD32O,0.070866X0.086614*%
%ADD33R,0.070866X0.086614*%
%ADD34C,0.078740*%
%ADD35R,0.055118X0.055118*%
%ADD36C,0.055118*%
%ADD37R,0.090551X0.188976*%
%ADD38R,0.169291X0.090551*%
%ADD39R,0.090551X0.169291*%
%ADD40C,0.060000*%
%ADD41R,0.060000X0.060000*%
%TA.AperFunction,ViaPad*%
%ADD42C,0.023622*%
G36*
X1566468Y3708662D02*
X1568341Y3704142D01*
X1572861Y3702269D01*
X1639790D01*
X1644309Y3704142D01*
X1646182Y3708662D01*
Y3726256D01*
X1651182Y3728327D01*
X1800988Y3578520D01*
Y2862594D01*
X1795988Y2860523D01*
X1785645Y2870866D01*
Y3017480D01*
X1789626Y3021461D01*
X1792323Y3027972D01*
Y3035020D01*
X1789626Y3041532D01*
X1784642Y3046515D01*
X1778130Y3049213D01*
X1771082D01*
X1768007Y3047939D01*
X1763007Y3051280D01*
Y3160433D01*
X1762167Y3164658D01*
X1759774Y3168239D01*
X1672164Y3255849D01*
X1668583Y3258242D01*
X1664359Y3259082D01*
X1643654D01*
X1642650Y3266709D01*
X1638484Y3276765D01*
X1631858Y3285400D01*
X1623223Y3292026D01*
X1613167Y3296192D01*
X1602375Y3297612D01*
X1591584Y3296192D01*
X1581527Y3292026D01*
X1572892Y3285400D01*
X1566266Y3276765D01*
X1562101Y3266709D01*
X1560680Y3255917D01*
Y3240169D01*
X1562101Y3229378D01*
X1566266Y3219321D01*
X1572892Y3210686D01*
X1581527Y3204060D01*
X1591584Y3199894D01*
X1602375Y3198474D01*
X1613167Y3199894D01*
X1623223Y3204060D01*
X1631858Y3210686D01*
X1638484Y3219321D01*
X1642650Y3229378D01*
X1643654Y3237004D01*
X1659786D01*
X1740930Y3155861D01*
Y2866660D01*
X1741770Y2862436D01*
X1744163Y2858855D01*
X1763568Y2839450D01*
Y2371452D01*
X1758568Y2370457D01*
X1756957Y2374345D01*
X1748097Y2385891D01*
X1736551Y2394751D01*
X1723104Y2400321D01*
X1708674Y2402221D01*
X1707199Y2402027D01*
X1704987Y2406511D01*
X1726310Y2427833D01*
X1728703Y2431414D01*
X1729543Y2435639D01*
Y2537165D01*
X1733523Y2541146D01*
X1736220Y2547657D01*
Y2554705D01*
X1733523Y2561217D01*
X1728540Y2566200D01*
X1722028Y2568898D01*
X1714980D01*
X1710921Y2567216D01*
X1705921Y2570186D01*
Y2703880D01*
X1705080Y2708104D01*
X1702688Y2711686D01*
X1700787Y2713586D01*
Y2720059D01*
X1698090Y2726571D01*
X1693107Y2731555D01*
X1686595Y2734252D01*
X1679547D01*
X1673035Y2731555D01*
X1668052Y2726571D01*
X1665354Y2720059D01*
Y2713011D01*
X1668052Y2706500D01*
X1673035Y2701516D01*
X1679547Y2698819D01*
X1683843D01*
Y2438860D01*
X1629018Y2384035D01*
X1626625Y2380454D01*
X1625785Y2376230D01*
Y2365806D01*
X1427247Y2167267D01*
X1424854Y2163686D01*
X1424013Y2159462D01*
Y2156010D01*
X1367139D01*
X1362619Y2154138D01*
X1360747Y2149618D01*
Y2127846D01*
X1362619Y2123326D01*
X1367139Y2121454D01*
X1424001D01*
Y2076783D01*
X1364186D01*
Y1978358D01*
X1428220D01*
X1430133Y1973739D01*
X1363322Y1906928D01*
X1048448D01*
X1044224Y1906087D01*
X1040642Y1903694D01*
X934124Y1797176D01*
X931731Y1793594D01*
X930890Y1789370D01*
Y1704208D01*
X925890Y1703214D01*
X925185Y1704918D01*
X920201Y1709901D01*
X913689Y1712598D01*
X906641D01*
X903567Y1711325D01*
X898566Y1714666D01*
Y2719534D01*
X902362Y2722441D01*
X903567Y2722441D01*
X969291D01*
Y2744371D01*
X1033272D01*
Y2743598D01*
X1034036Y2739758D01*
X1036211Y2736502D01*
X1039467Y2734327D01*
X1043307Y2733563D01*
X1074803D01*
X1078643Y2734327D01*
X1081899Y2736502D01*
X1084074Y2739758D01*
X1084838Y2743598D01*
Y2767220D01*
X1084074Y2771061D01*
X1081899Y2774316D01*
X1078643Y2776492D01*
X1074803Y2777256D01*
X1043307D01*
X1039467Y2776492D01*
X1036211Y2774316D01*
X1034036Y2771061D01*
X1033272Y2767220D01*
Y2766448D01*
X969291D01*
Y2789370D01*
X903567D01*
X902362Y2789370D01*
X898566Y2792277D01*
Y2990425D01*
X897726Y2994650D01*
X895333Y2998231D01*
X637715Y3255849D01*
X634134Y3258242D01*
X629910Y3259082D01*
X407433D01*
X406429Y3266709D01*
X402264Y3276765D01*
X395638Y3285400D01*
X387002Y3292026D01*
X376946Y3296192D01*
X366155Y3297612D01*
X355363Y3296192D01*
X345307Y3292026D01*
X336672Y3285400D01*
X330046Y3276765D01*
X325880Y3266709D01*
X324459Y3255917D01*
Y3240169D01*
X325880Y3229378D01*
X330046Y3219321D01*
X336672Y3210686D01*
X345307Y3204060D01*
X355363Y3199894D01*
X366155Y3198474D01*
X376946Y3199894D01*
X387002Y3204060D01*
X395638Y3210686D01*
X402264Y3219321D01*
X406429Y3229378D01*
X407433Y3237004D01*
X625337D01*
X690399Y3171942D01*
X688486Y3167323D01*
X635436D01*
X631362Y3169180D01*
X630619Y3171797D01*
X630277Y3173516D01*
X627884Y3177097D01*
X578672Y3226309D01*
X575091Y3228702D01*
X570866Y3229543D01*
X470472D01*
X466248Y3228702D01*
X462667Y3226309D01*
X444642Y3208285D01*
X442249Y3204704D01*
X441409Y3200479D01*
Y3199012D01*
X433567D01*
X429727Y3198248D01*
X426471Y3196072D01*
X424296Y3192817D01*
X423770Y3190173D01*
X312474D01*
X308249Y3189332D01*
X304668Y3186939D01*
X184124Y3066395D01*
X181731Y3062814D01*
X180890Y3058589D01*
Y2931339D01*
X176910Y2927358D01*
X174213Y2920847D01*
Y2913799D01*
X176910Y2907287D01*
X181893Y2902303D01*
X188405Y2899606D01*
X195453D01*
X201965Y2902303D01*
X206948Y2907287D01*
X209646Y2913799D01*
Y2920847D01*
X206948Y2927358D01*
X202968Y2931339D01*
Y3033161D01*
X207968Y3035554D01*
X213011Y3033465D01*
X220059D01*
X226571Y3036162D01*
X230552Y3040142D01*
X425996D01*
Y3035433D01*
X426760Y3031593D01*
X426001Y3027776D01*
X425983Y3027765D01*
X422903Y3023154D01*
X421821Y3017716D01*
Y3006968D01*
X447842D01*
Y2996968D01*
X421821D01*
Y2986220D01*
X422903Y2980783D01*
X424786Y2977965D01*
X422470Y2972965D01*
X419704D01*
X413193Y2970267D01*
X408209Y2965284D01*
X405512Y2958772D01*
Y2951724D01*
X406786Y2948649D01*
X403445Y2943649D01*
X393442D01*
X390101Y2948649D01*
X391375Y2951724D01*
Y2958772D01*
X388677Y2965284D01*
X383694Y2970267D01*
X377182Y2972965D01*
X370134D01*
X363622Y2970267D01*
X359007Y2965652D01*
X298089D01*
X293864Y2964811D01*
X290283Y2962419D01*
X284517Y2956653D01*
X282124Y2953072D01*
X281284Y2948847D01*
Y2857284D01*
X282124Y2853059D01*
X284517Y2849478D01*
X385895Y2748100D01*
X389476Y2745707D01*
X393701Y2744867D01*
X425996D01*
Y2740158D01*
X426760Y2736317D01*
X426001Y2732501D01*
X425983Y2732489D01*
X422903Y2727879D01*
X421821Y2722441D01*
Y2711693D01*
X447842D01*
X473863D01*
Y2722441D01*
X472782Y2727879D01*
X469701Y2732489D01*
X469684Y2732501D01*
X468925Y2736317D01*
X469689Y2740158D01*
Y2766094D01*
X474689Y2768165D01*
X479990Y2762864D01*
X483571Y2760471D01*
X487795Y2759631D01*
X487996D01*
Y2740158D01*
X488760Y2736317D01*
X490935Y2733062D01*
Y2729537D01*
X488760Y2726281D01*
X487996Y2722441D01*
Y2690945D01*
X488760Y2687105D01*
X490935Y2683849D01*
X494191Y2681674D01*
X498031Y2680910D01*
X521653D01*
X525494Y2681674D01*
X528749Y2683849D01*
X530925Y2687105D01*
X531689Y2690945D01*
Y2722441D01*
X530925Y2726281D01*
X528749Y2729537D01*
Y2733062D01*
X530925Y2736317D01*
X531689Y2740158D01*
Y2771654D01*
X530925Y2775494D01*
X528749Y2778750D01*
X525494Y2780925D01*
X521653Y2781689D01*
X499113D01*
X499016Y2781708D01*
X492368D01*
X448425Y2825651D01*
Y2839567D01*
X413386D01*
Y2810039D01*
X432814D01*
X456164Y2786689D01*
X454093Y2781689D01*
X436031D01*
X432191Y2780925D01*
X428935Y2778750D01*
X426760Y2775494D01*
X425996Y2771654D01*
Y2766944D01*
X398273D01*
X303362Y2861856D01*
Y2912191D01*
X308362Y2915532D01*
X311437Y2914259D01*
X318485D01*
X324996Y2916956D01*
X329612Y2921571D01*
X459474D01*
X461388Y2916952D01*
X454077Y2909642D01*
X436031D01*
X432191Y2908878D01*
X428935Y2906702D01*
X426760Y2903447D01*
X425996Y2899606D01*
Y2868110D01*
X426760Y2864270D01*
X428935Y2861014D01*
X432191Y2858839D01*
X436031Y2858075D01*
X458572D01*
X458669Y2858056D01*
X462357D01*
X496457Y2823956D01*
Y2810039D01*
X531496D01*
Y2839567D01*
X512068D01*
X498560Y2853075D01*
X500631Y2858075D01*
X521653D01*
X525494Y2858839D01*
X528749Y2861014D01*
X530925Y2864270D01*
X531689Y2868110D01*
Y2894030D01*
X551816Y2914158D01*
X631890D01*
Y2907480D01*
X637583D01*
Y2236238D01*
X283375Y1882030D01*
X278755Y1883943D01*
Y2038568D01*
X288564Y2042631D01*
X297200Y2049257D01*
X303826Y2057892D01*
X307991Y2067948D01*
X309412Y2078740D01*
Y2094488D01*
X307991Y2105280D01*
X303826Y2115336D01*
X297200Y2123971D01*
X288564Y2130597D01*
X278508Y2134763D01*
X267716Y2136183D01*
X256925Y2134763D01*
X246869Y2130597D01*
X238233Y2123971D01*
X231607Y2115336D01*
X227442Y2105280D01*
X226021Y2094488D01*
Y2078740D01*
X227442Y2067948D01*
X231607Y2057892D01*
X238233Y2049257D01*
X246869Y2042631D01*
X256678Y2038568D01*
Y1877604D01*
X152696Y1773622D01*
X147067D01*
X140555Y1770925D01*
X135571Y1765941D01*
X132874Y1759429D01*
Y1752381D01*
X135571Y1745870D01*
X140555Y1740886D01*
X147067Y1738189D01*
X154115D01*
X160626Y1740886D01*
X165610Y1745870D01*
X168307Y1752381D01*
Y1758011D01*
X175287Y1764990D01*
X179906Y1763077D01*
Y1701024D01*
X175926Y1697043D01*
X173228Y1690532D01*
Y1683484D01*
X175926Y1676972D01*
X180909Y1671989D01*
X187421Y1669291D01*
X194469D01*
X200981Y1671989D01*
X205964Y1676972D01*
X208661Y1683484D01*
Y1690532D01*
X205964Y1697043D01*
X201984Y1701024D01*
Y1769416D01*
X249642Y1817074D01*
X253880Y1814242D01*
X251969Y1809626D01*
Y1802578D01*
X254666Y1796067D01*
X258646Y1792086D01*
Y1765596D01*
X259486Y1761372D01*
X261879Y1757791D01*
X676512Y1343158D01*
X673208Y1339391D01*
X668599Y1342928D01*
X656589Y1347902D01*
X643701Y1349599D01*
X609331D01*
Y1299803D01*
Y1250007D01*
X643701D01*
X656589Y1251704D01*
X668599Y1256678D01*
X678912Y1264592D01*
X686825Y1274905D01*
X691800Y1286915D01*
X693097Y1296765D01*
X698376Y1298557D01*
X911235Y1085698D01*
X914816Y1083305D01*
X919041Y1082465D01*
X1219403D01*
X1221316Y1077846D01*
X1057328Y913857D01*
X1023461D01*
X1020120Y918857D01*
X1021394Y921932D01*
Y928980D01*
X1018697Y935492D01*
X1013713Y940475D01*
X1007202Y943173D01*
X1000154D01*
X993642Y940475D01*
X988658Y935492D01*
X985961Y928980D01*
Y921932D01*
X987235Y918857D01*
X983894Y913857D01*
X862581D01*
X853346Y923092D01*
Y928721D01*
X850649Y935232D01*
X845665Y940216D01*
X839154Y942913D01*
X832106D01*
X825594Y940216D01*
X820611Y935232D01*
X817913Y928721D01*
Y921673D01*
X819595Y917614D01*
X816625Y912614D01*
X495315D01*
X491335Y916594D01*
X484823Y919291D01*
X477775D01*
X471264Y916594D01*
X466280Y911610D01*
X463583Y905099D01*
Y898051D01*
X466280Y891539D01*
X471264Y886556D01*
X477775Y883858D01*
X484823D01*
X491335Y886556D01*
X495315Y890536D01*
X831576D01*
X842847Y879265D01*
X846429Y876872D01*
X850653Y876032D01*
X1057628D01*
X1059541Y871412D01*
X1039438Y851309D01*
X1037046Y847728D01*
X1036205Y843504D01*
Y316929D01*
X1037046Y312705D01*
X1039438Y309124D01*
X1085158Y263404D01*
X1081826Y257633D01*
X1078740Y246118D01*
Y234197D01*
X1081826Y222682D01*
X1087786Y212358D01*
X1096216Y203928D01*
X1106540Y197967D01*
X1118055Y194882D01*
X1129976D01*
X1131373Y195256D01*
X1135340Y192212D01*
Y157480D01*
X1137212Y152960D01*
X1141732Y151088D01*
X1456693D01*
X1461213Y152960D01*
X1463085Y157480D01*
Y249513D01*
X1519055D01*
X1520230Y250000D01*
X1521501D01*
X1522400Y250899D01*
X1523575Y251386D01*
X1524062Y252560D01*
X1524961Y253459D01*
X1527032Y258459D01*
Y259731D01*
X1527518Y260906D01*
X1527032Y262080D01*
Y263352D01*
X1526319Y264064D01*
X1524109Y269401D01*
Y273906D01*
X1525833Y278068D01*
X1529018Y281254D01*
X1533180Y282978D01*
X1537686D01*
X1541848Y281254D01*
X1545034Y278068D01*
X1546757Y273906D01*
Y269401D01*
X1544547Y264064D01*
X1543834Y263352D01*
Y262080D01*
X1543348Y260906D01*
X1543834Y259731D01*
Y258459D01*
X1545906Y253459D01*
X1546804Y252560D01*
X1547291Y251386D01*
X1548466Y250899D01*
X1549365Y250000D01*
X1550636D01*
X1551811Y249513D01*
X1653543D01*
X1658063Y251386D01*
X1659935Y255905D01*
Y472441D01*
X1658063Y476961D01*
X1654908Y478268D01*
X1655902Y483268D01*
X1670276D01*
Y563976D01*
X1644906D01*
Y736221D01*
X1677165D01*
Y917323D01*
X1574803D01*
Y736221D01*
X1593283D01*
Y563976D01*
X1554134D01*
Y483833D01*
X1554134Y483268D01*
X1552769Y478833D01*
X1502349D01*
X1500984Y483268D01*
X1500984Y483833D01*
Y563976D01*
X1384843D01*
Y549433D01*
X1360076D01*
X1359565Y552003D01*
X1357009Y555828D01*
X1353184Y558384D01*
X1348671Y559282D01*
X1314715D01*
X1310202Y558384D01*
X1306377Y555828D01*
X1303821Y552003D01*
X1302923Y547490D01*
Y499754D01*
X1303821Y495242D01*
X1306377Y491416D01*
X1310202Y488860D01*
X1314715Y487962D01*
X1348671D01*
X1353184Y488860D01*
X1357009Y491416D01*
X1359565Y495242D01*
X1360076Y497811D01*
X1384843D01*
Y483833D01*
X1384842Y483268D01*
X1383478Y478833D01*
X1358268D01*
X1353748Y476961D01*
X1351876Y472441D01*
Y368597D01*
X1141732D01*
X1137212Y366725D01*
X1135340Y362205D01*
Y288103D01*
X1131373Y285059D01*
X1129976Y285433D01*
X1118055D01*
X1106540Y282348D01*
X1100769Y279016D01*
X1058283Y321502D01*
Y838932D01*
X1315585Y1096233D01*
X1317978Y1099814D01*
X1318818Y1104039D01*
Y1204782D01*
X1795988Y1681952D01*
X1800988Y1679881D01*
Y161637D01*
X1649386Y10035D01*
X122267Y10035D01*
X-29335Y161637D01*
Y460931D01*
X-24715Y462844D01*
X96245Y341884D01*
Y185039D01*
X96457Y183974D01*
Y119094D01*
X244095D01*
Y195866D01*
X118322D01*
Y346457D01*
X117482Y350681D01*
X115089Y354262D01*
X-11599Y480950D01*
Y2495428D01*
X153404Y2660430D01*
X159033D01*
X165545Y2663128D01*
X170529Y2668111D01*
X173226Y2674623D01*
Y2681671D01*
X170529Y2688183D01*
X165545Y2693166D01*
X159033Y2695863D01*
X151985D01*
X145474Y2693166D01*
X140490Y2688183D01*
X137793Y2681671D01*
Y2676042D01*
X-24715Y2513534D01*
X-29335Y2515447D01*
Y3578520D01*
X118542Y3726397D01*
X123542Y3724326D01*
Y3716547D01*
X125414Y3712028D01*
X129934Y3710155D01*
X188989D01*
X193509Y3712028D01*
X195381Y3716547D01*
Y3730122D01*
X341062D01*
Y3716547D01*
X342934Y3712027D01*
X347454Y3710155D01*
X406509D01*
X411029Y3712027D01*
X412901Y3716547D01*
Y3730122D01*
X1361718Y3730122D01*
Y3708661D01*
X1363590Y3704142D01*
X1368110Y3702269D01*
X1435039D01*
X1439559Y3704142D01*
X1441431Y3708661D01*
Y3730122D01*
X1566468D01*
Y3708662D01*
D02*
G37*
G36*
X609040Y3164719D02*
Y3134602D01*
X608268Y3129921D01*
X604040Y3129921D01*
X539370D01*
Y3122259D01*
X531496D01*
Y3125000D01*
X518417D01*
Y3147445D01*
X519189D01*
X523029Y3148209D01*
X526285Y3150384D01*
X528460Y3153640D01*
X529224Y3157480D01*
Y3188976D01*
X528460Y3192817D01*
X526285Y3196072D01*
X523029Y3198248D01*
X519189Y3199012D01*
X495567D01*
X491727Y3198248D01*
X488471Y3196072D01*
X486296Y3192817D01*
X485532Y3188976D01*
Y3157480D01*
X486296Y3153640D01*
X488471Y3150384D01*
X491727Y3148209D01*
X495567Y3147445D01*
X496339D01*
Y3114173D01*
X496457Y3113582D01*
Y3095472D01*
X531496D01*
Y3100182D01*
X539370D01*
Y3094488D01*
X607620D01*
X608268Y3094488D01*
X613268Y3095531D01*
X631890Y3076909D01*
Y3057087D01*
X700787D01*
Y3092520D01*
X647501D01*
X631117Y3108903D01*
Y3127210D01*
X631890Y3131890D01*
X636118Y3131890D01*
X685176D01*
X707465Y3109601D01*
Y3040005D01*
X685176Y3017716D01*
X631890D01*
Y2982283D01*
X685176D01*
X721245Y2946215D01*
Y2876206D01*
X703248D01*
X698832Y2875327D01*
X695088Y2872826D01*
X692586Y2869082D01*
X691707Y2864665D01*
Y2832185D01*
X692586Y2827769D01*
X695088Y2824025D01*
X698832Y2821523D01*
X703248Y2820644D01*
X761319D01*
X765735Y2821523D01*
X769479Y2824025D01*
X771981Y2827769D01*
X772860Y2832185D01*
Y2864665D01*
X771981Y2869082D01*
X769479Y2872826D01*
X765735Y2875327D01*
X761319Y2876206D01*
X743322D01*
Y2950787D01*
X742482Y2955012D01*
X740089Y2958593D01*
X700787Y2997895D01*
Y3002105D01*
X726309Y3027627D01*
X728702Y3031209D01*
X729543Y3035433D01*
Y3114173D01*
X728702Y3118398D01*
X726309Y3121979D01*
X700787Y3147501D01*
Y3155021D01*
X705407Y3156935D01*
X876489Y2985853D01*
Y2768588D01*
X871489Y2767930D01*
X870826Y2770403D01*
X865881Y2778967D01*
X858889Y2785960D01*
X850324Y2790905D01*
X840827Y2793450D01*
Y2755905D01*
Y2718361D01*
X850324Y2720906D01*
X858889Y2725851D01*
X865881Y2732844D01*
X870826Y2741408D01*
X871489Y2743881D01*
X876489Y2743223D01*
Y2567886D01*
X871489Y2565815D01*
X867589Y2569715D01*
X858718Y2574837D01*
X848823Y2577488D01*
X838579D01*
X828684Y2574837D01*
X819812Y2569715D01*
X812569Y2562471D01*
X807447Y2553600D01*
X804795Y2543705D01*
Y2533461D01*
X807447Y2523566D01*
X812569Y2514694D01*
X819812Y2507451D01*
X828684Y2502329D01*
X838579Y2499677D01*
X848823D01*
X858718Y2502329D01*
X867589Y2507451D01*
X871489Y2511350D01*
X876489Y2509279D01*
Y1578327D01*
X871489Y1575778D01*
X866713Y1577756D01*
X859665D01*
X853153Y1575059D01*
X848170Y1570075D01*
X845472Y1563563D01*
Y1556515D01*
X848170Y1550004D01*
X853153Y1545020D01*
X859665Y1542323D01*
X866713D01*
X871489Y1544301D01*
X876489Y1541751D01*
Y1225761D01*
X869231Y1218504D01*
X863602D01*
X857090Y1215807D01*
X852107Y1210823D01*
X850516Y1206982D01*
X844790Y1205637D01*
X720684Y1329742D01*
Y1347907D01*
X719844Y1352131D01*
X717451Y1355712D01*
X311495Y1761669D01*
Y1792345D01*
X315475Y1796326D01*
X318173Y1802838D01*
Y1809886D01*
X315475Y1816397D01*
X310492Y1821381D01*
X303980Y1824078D01*
X296932D01*
X290421Y1821381D01*
X288207Y1819168D01*
X285203Y1816569D01*
X281675Y1819168D01*
X279721Y1821122D01*
X273209Y1823819D01*
X266161D01*
X261546Y1821907D01*
X258713Y1826146D01*
X656428Y2223860D01*
X658821Y2227442D01*
X659661Y2231666D01*
Y2505279D01*
X664280Y2507192D01*
X667298Y2504174D01*
X677103Y2498513D01*
X688040Y2495583D01*
X688701D01*
Y2538583D01*
Y2581583D01*
X688040D01*
X677103Y2578652D01*
X667298Y2572991D01*
X664280Y2569973D01*
X659661Y2571887D01*
Y2907480D01*
X700787D01*
Y2942913D01*
X631890D01*
Y2936236D01*
X553406D01*
X551335Y2941236D01*
X554981Y2944882D01*
X608268D01*
Y2980315D01*
X539370D01*
Y2970499D01*
X535959Y2969182D01*
X534370Y2969031D01*
X529721Y2973681D01*
X529647Y2973711D01*
X528776Y2978963D01*
X528943Y2979415D01*
X530925Y2982380D01*
X531689Y2986220D01*
Y3017716D01*
X530925Y3021557D01*
X528749Y3024812D01*
Y3028337D01*
X530925Y3031593D01*
X531689Y3035433D01*
Y3066929D01*
X530925Y3070769D01*
X528749Y3074025D01*
X525494Y3076200D01*
X521653Y3076964D01*
X499670D01*
X462530Y3114105D01*
X458949Y3116498D01*
X454724Y3117338D01*
X448425D01*
Y3125000D01*
X413386D01*
Y3095472D01*
X433776D01*
X434842Y3095260D01*
X450152D01*
X464268Y3081144D01*
X461805Y3076537D01*
X459653Y3076964D01*
X436031D01*
X432191Y3076200D01*
X428935Y3074025D01*
X426760Y3070769D01*
X425996Y3066929D01*
Y3062220D01*
X230552D01*
X226571Y3066200D01*
X223496Y3067474D01*
X222323Y3073372D01*
X317046Y3168095D01*
X423532D01*
Y3157480D01*
X424296Y3153640D01*
X426471Y3150384D01*
X429727Y3148209D01*
X433567Y3147445D01*
X457189D01*
X461029Y3148209D01*
X464285Y3150384D01*
X466460Y3153640D01*
X467224Y3157480D01*
Y3188976D01*
X466460Y3192817D01*
X464285Y3196072D01*
X464228Y3196649D01*
X475045Y3207465D01*
X566294D01*
X609040Y3164719D01*
D02*
G37*
G36*
X1652922Y2332916D02*
Y2327847D01*
X1708674D01*
Y2322847D01*
X1713674D01*
Y2244130D01*
X1723104Y2245371D01*
X1736551Y2250941D01*
X1748097Y2259801D01*
X1756957Y2271348D01*
X1758568Y2275235D01*
X1763568Y2274240D01*
Y1706344D01*
X1695945Y1638721D01*
X1690945Y1640793D01*
Y1696850D01*
X1584646D01*
Y1633858D01*
X1684011D01*
X1686082Y1628858D01*
X1288296Y1231072D01*
X1283677Y1232986D01*
Y1289719D01*
X1351337Y1357379D01*
X1355576Y1354547D01*
X1355315Y1353918D01*
Y1346870D01*
X1358012Y1340358D01*
X1362996Y1335374D01*
X1369507Y1332677D01*
X1376555D01*
X1383067Y1335374D01*
X1388051Y1340358D01*
X1390748Y1346870D01*
Y1353918D01*
X1388051Y1360429D01*
X1383067Y1365413D01*
X1376555Y1368110D01*
X1369507D01*
X1368878Y1367850D01*
X1366046Y1372088D01*
X1575719Y1581761D01*
X1578112Y1585343D01*
X1578952Y1589567D01*
Y1979775D01*
X1582992Y1982981D01*
X1591584Y1979422D01*
X1602375Y1978001D01*
X1613167Y1979422D01*
X1623223Y1983587D01*
X1631858Y1990214D01*
X1638484Y1998849D01*
X1642650Y2008905D01*
X1644070Y2019697D01*
Y2035445D01*
X1642650Y2046236D01*
X1638484Y2056292D01*
X1631858Y2064928D01*
X1623223Y2071554D01*
X1613167Y2075719D01*
X1602375Y2077140D01*
X1591584Y2075719D01*
X1581527Y2071554D01*
X1572892Y2064928D01*
X1566266Y2056292D01*
X1562101Y2046236D01*
X1560680Y2035445D01*
Y2019697D01*
X1562101Y2008905D01*
X1566164Y1999096D01*
X1560108Y1993041D01*
X1557715Y1989459D01*
X1556875Y1985235D01*
Y1594139D01*
X1272548Y1309813D01*
X1267929Y1311726D01*
Y1373779D01*
X1271909Y1377760D01*
X1274606Y1384271D01*
Y1391319D01*
X1271909Y1397831D01*
X1266925Y1402815D01*
X1260414Y1405512D01*
X1253366D01*
X1246854Y1402815D01*
X1241870Y1397831D01*
X1239173Y1391319D01*
Y1384271D01*
X1241870Y1377760D01*
X1245851Y1373779D01*
Y1209663D01*
X1241116Y1208055D01*
X1238984Y1210834D01*
X1229526Y1218091D01*
X1218512Y1222654D01*
X1206693Y1224210D01*
X1188397D01*
Y1771853D01*
X1206693D01*
X1218512Y1773409D01*
X1229526Y1777972D01*
X1238984Y1785229D01*
X1246241Y1794687D01*
X1250803Y1805700D01*
X1252359Y1817520D01*
X1250803Y1829339D01*
X1246241Y1840353D01*
X1238984Y1849811D01*
X1229526Y1857068D01*
X1218512Y1861630D01*
X1206693Y1863186D01*
X1127953D01*
X1116134Y1861630D01*
X1105120Y1857068D01*
X1095662Y1849811D01*
X1088405Y1840353D01*
X1083843Y1829339D01*
X1082287Y1817520D01*
X1083843Y1805700D01*
X1088405Y1794687D01*
X1095662Y1785229D01*
X1105120Y1777972D01*
X1116134Y1773409D01*
X1127953Y1771853D01*
X1146249D01*
Y1224210D01*
X1127953D01*
X1116134Y1222654D01*
X1105120Y1218091D01*
X1095662Y1210834D01*
X1088405Y1201376D01*
X1083843Y1190363D01*
X1082287Y1178543D01*
X1083843Y1166724D01*
X1088405Y1155710D01*
X1095662Y1146252D01*
X1105120Y1138995D01*
X1116134Y1134433D01*
X1127953Y1132877D01*
X1206693D01*
X1218512Y1134433D01*
X1229526Y1138995D01*
X1238984Y1146252D01*
X1241116Y1149031D01*
X1245851Y1147424D01*
Y1124651D01*
X1225743Y1104543D01*
X999253D01*
X997339Y1109162D01*
X1010525Y1122349D01*
X1012918Y1125930D01*
X1013759Y1130154D01*
Y1171860D01*
X1012918Y1176084D01*
X1010525Y1179666D01*
X992126Y1198065D01*
Y1204311D01*
X989429Y1210823D01*
X984445Y1215807D01*
X977933Y1218504D01*
X970885D01*
X964374Y1215807D01*
X959390Y1210823D01*
X957968Y1207390D01*
X952968Y1208384D01*
Y1784798D01*
X1053020Y1884850D01*
X1367895D01*
X1372119Y1885690D01*
X1375700Y1888083D01*
X1459590Y1971973D01*
X1461983Y1975554D01*
X1462823Y1979779D01*
Y1997896D01*
X1467823Y1998891D01*
X1467841Y1998849D01*
X1474467Y1990214D01*
X1483102Y1983587D01*
X1493158Y1979422D01*
X1503950Y1978001D01*
X1514741Y1979422D01*
X1524797Y1983587D01*
X1533433Y1990214D01*
X1540059Y1998849D01*
X1544224Y2008905D01*
X1545645Y2019697D01*
Y2035445D01*
X1544224Y2046236D01*
X1540059Y2056292D01*
X1533433Y2064928D01*
X1524797Y2071554D01*
X1514741Y2075719D01*
X1503950Y2077140D01*
X1493158Y2075719D01*
X1483102Y2071554D01*
X1474467Y2064928D01*
X1467841Y2056292D01*
X1467823Y2056250D01*
X1462823Y2057245D01*
Y2149351D01*
X1648302Y2334829D01*
X1652922Y2332916D01*
D02*
G37*
G36*
X1653543Y255905D02*
X1551811D01*
X1549740Y260906D01*
X1550452Y261618D01*
X1553150Y268130D01*
Y275178D01*
X1550452Y281689D01*
X1545469Y286673D01*
X1538957Y289370D01*
X1531909D01*
X1525398Y286673D01*
X1520414Y281689D01*
X1517717Y275178D01*
Y268130D01*
X1520414Y261618D01*
X1521126Y260906D01*
X1519055Y255905D01*
X1456693D01*
Y157480D01*
X1141732D01*
Y198106D01*
X1151816Y203928D01*
X1160245Y212358D01*
X1166206Y222682D01*
X1169291Y234197D01*
Y246118D01*
X1166206Y257633D01*
X1160245Y267957D01*
X1151816Y276387D01*
X1141732Y282209D01*
Y362205D01*
X1358268D01*
Y472441D01*
X1653543D01*
Y255905D01*
D02*
G37*
%LPC*%
G36*
X1713674Y3622035D02*
Y3548319D01*
X1764427D01*
Y3566941D01*
X1762527Y3581370D01*
X1756957Y3594817D01*
X1748097Y3606364D01*
X1736551Y3615224D01*
X1723104Y3620794D01*
X1713674Y3622035D01*
D02*
G37*
G36*
X477454Y3622035D02*
Y3548319D01*
X528206D01*
Y3566941D01*
X526307Y3581370D01*
X520737Y3594817D01*
X511877Y3606364D01*
X500330Y3615224D01*
X486884Y3620794D01*
X477454Y3622035D01*
D02*
G37*
G36*
X467454Y3622035D02*
X458024Y3620794D01*
X444577Y3615224D01*
X433031Y3606364D01*
X424171Y3594817D01*
X418601Y3581370D01*
X416701Y3566941D01*
Y3548319D01*
X467454D01*
Y3622035D01*
D02*
G37*
G36*
X1703674D02*
X1694244Y3620794D01*
X1680798Y3615224D01*
X1669251Y3606364D01*
X1660391Y3594817D01*
X1654821Y3581370D01*
X1652922Y3566941D01*
Y3548319D01*
X1703674D01*
Y3622035D01*
D02*
G37*
G36*
X1304225D02*
Y3548319D01*
X1354978D01*
Y3566941D01*
X1353078Y3581370D01*
X1347509Y3594817D01*
X1338648Y3606364D01*
X1327102Y3615224D01*
X1313655Y3620794D01*
X1304225Y3622035D01*
D02*
G37*
G36*
X1294225D02*
X1284796Y3620794D01*
X1271349Y3615224D01*
X1259802Y3606364D01*
X1250942Y3594817D01*
X1245372Y3581370D01*
X1243473Y3566941D01*
Y3548319D01*
X1294225D01*
Y3622035D01*
D02*
G37*
G36*
X68005D02*
Y3548319D01*
X118757D01*
Y3566941D01*
X116858Y3581370D01*
X111288Y3594817D01*
X102428Y3606364D01*
X90881Y3615224D01*
X77435Y3620794D01*
X68005Y3622035D01*
D02*
G37*
G36*
X58005D02*
X48575Y3620794D01*
X35129Y3615224D01*
X23582Y3606364D01*
X14722Y3594817D01*
X9152Y3581370D01*
X7252Y3566941D01*
Y3548319D01*
X58005D01*
Y3622035D01*
D02*
G37*
G36*
X467454Y3538319D02*
X416701D01*
Y3519697D01*
X418601Y3505267D01*
X424171Y3491820D01*
X433031Y3480274D01*
X444577Y3471414D01*
X458024Y3465844D01*
X467454Y3464602D01*
Y3538319D01*
D02*
G37*
G36*
X1764427D02*
X1713674D01*
Y3464602D01*
X1723104Y3465844D01*
X1736551Y3471414D01*
X1748097Y3480274D01*
X1756957Y3491820D01*
X1762527Y3505267D01*
X1764427Y3519697D01*
Y3538319D01*
D02*
G37*
G36*
X1354978Y3538319D02*
X1304225D01*
Y3464602D01*
X1313655Y3465844D01*
X1327102Y3471414D01*
X1338648Y3480274D01*
X1347509Y3491820D01*
X1353078Y3505267D01*
X1354978Y3519697D01*
Y3538319D01*
D02*
G37*
G36*
X1294225D02*
X1243473D01*
Y3519697D01*
X1245372Y3505267D01*
X1250942Y3491820D01*
X1259802Y3480274D01*
X1271349Y3471414D01*
X1284796Y3465844D01*
X1294225Y3464602D01*
Y3538319D01*
D02*
G37*
G36*
X118757D02*
X68005D01*
Y3464602D01*
X77435Y3465844D01*
X90881Y3471414D01*
X102428Y3480274D01*
X111288Y3491820D01*
X116858Y3505267D01*
X118757Y3519697D01*
Y3538319D01*
D02*
G37*
G36*
X58005D02*
X7252D01*
Y3519697D01*
X9152Y3505267D01*
X14722Y3491820D01*
X23582Y3480274D01*
X35129Y3471414D01*
X48575Y3465844D01*
X58005Y3464602D01*
Y3538319D01*
D02*
G37*
G36*
X1703674Y3538319D02*
X1652922D01*
Y3519697D01*
X1654821Y3505267D01*
X1660391Y3491820D01*
X1669251Y3480274D01*
X1680798Y3471414D01*
X1694244Y3465844D01*
X1703674Y3464602D01*
Y3538319D01*
D02*
G37*
G36*
X528206D02*
X477454D01*
Y3464602D01*
X486884Y3465844D01*
X500330Y3471414D01*
X511877Y3480274D01*
X520737Y3491820D01*
X526307Y3505267D01*
X528206Y3519697D01*
Y3538319D01*
D02*
G37*
G36*
X837185Y3390748D02*
X830137D01*
X823626Y3388051D01*
X818642Y3383067D01*
X815945Y3376555D01*
Y3369508D01*
X818642Y3362996D01*
X823626Y3358012D01*
X830137Y3355315D01*
X837185D01*
X843697Y3358012D01*
X848681Y3362996D01*
X851378Y3369508D01*
Y3376555D01*
X848681Y3383067D01*
X843697Y3388051D01*
X837185Y3390748D01*
D02*
G37*
G36*
X731870Y3390256D02*
X724822D01*
X718311Y3387559D01*
X713327Y3382575D01*
X710630Y3376063D01*
Y3369015D01*
X713327Y3362504D01*
X718311Y3357520D01*
X724822Y3354823D01*
X731870D01*
X738382Y3357520D01*
X743366Y3362504D01*
X746063Y3369015D01*
Y3376063D01*
X743366Y3382575D01*
X738382Y3387559D01*
X731870Y3390256D01*
D02*
G37*
G36*
X1639790Y3384368D02*
X1572861D01*
X1568341Y3382496D01*
X1566468Y3377976D01*
Y3350417D01*
X1568341Y3345897D01*
X1572861Y3344025D01*
X1639790D01*
X1644309Y3345897D01*
X1646182Y3350417D01*
Y3377976D01*
X1644309Y3382496D01*
X1639790Y3384368D01*
D02*
G37*
G36*
X1435039Y3384368D02*
X1368110D01*
X1363590Y3382496D01*
X1361718Y3377976D01*
Y3350417D01*
X1363590Y3345897D01*
X1368110Y3344025D01*
X1435039D01*
X1439559Y3345897D01*
X1441431Y3350417D01*
Y3377976D01*
X1439559Y3382496D01*
X1435039Y3384368D01*
D02*
G37*
G36*
X404540Y3377467D02*
X346469D01*
X341950Y3375595D01*
X340077Y3371075D01*
Y3350405D01*
X341950Y3345885D01*
X346469Y3344013D01*
X404540D01*
X409060Y3345885D01*
X410932Y3350405D01*
Y3371075D01*
X409060Y3375595D01*
X404540Y3377467D01*
D02*
G37*
G36*
X188005Y3376483D02*
X130918D01*
X126398Y3374610D01*
X124526Y3370090D01*
Y3348319D01*
X126398Y3343799D01*
X130918Y3341927D01*
X188005D01*
X192525Y3343799D01*
X194397Y3348319D01*
Y3370090D01*
X192525Y3374610D01*
X188005Y3376483D01*
D02*
G37*
G36*
X1503950Y3297612D02*
X1493158Y3296192D01*
X1483102Y3292026D01*
X1474467Y3285400D01*
X1467841Y3276765D01*
X1463675Y3266709D01*
X1462671Y3259082D01*
X1446863D01*
Y3297256D01*
X1364186D01*
Y3198831D01*
X1446863D01*
Y3237004D01*
X1462671D01*
X1463675Y3229378D01*
X1467841Y3219321D01*
X1474467Y3210686D01*
X1483102Y3204060D01*
X1492911Y3199997D01*
Y3187992D01*
X1465551D01*
Y3040354D01*
X1542323D01*
Y3187992D01*
X1514989D01*
Y3199997D01*
X1524797Y3204060D01*
X1533433Y3210686D01*
X1540059Y3219321D01*
X1544224Y3229378D01*
X1545645Y3240169D01*
Y3255917D01*
X1544224Y3266709D01*
X1540059Y3276765D01*
X1533433Y3285400D01*
X1524797Y3292026D01*
X1514741Y3296192D01*
X1503950Y3297612D01*
D02*
G37*
G36*
X214737Y3301350D02*
X174304D01*
Y3253043D01*
X214737D01*
Y3301350D01*
D02*
G37*
G36*
X164304D02*
X123871D01*
Y3253043D01*
X164304D01*
Y3301350D01*
D02*
G37*
G36*
X267729Y3297612D02*
X256938Y3296192D01*
X246882Y3292026D01*
X238246Y3285400D01*
X231620Y3276765D01*
X227455Y3266709D01*
X226034Y3255917D01*
Y3240169D01*
X227455Y3229378D01*
X231620Y3219321D01*
X238246Y3210686D01*
X246882Y3204060D01*
X256938Y3199894D01*
X267729Y3198474D01*
X278521Y3199894D01*
X288577Y3204060D01*
X297212Y3210686D01*
X303839Y3219321D01*
X308004Y3229378D01*
X309425Y3240169D01*
Y3255917D01*
X308004Y3266709D01*
X303839Y3276765D01*
X297212Y3285400D01*
X288577Y3292026D01*
X278521Y3296192D01*
X267729Y3297612D01*
D02*
G37*
G36*
X214737Y3243043D02*
X174304D01*
Y3194736D01*
X214737D01*
Y3243043D01*
D02*
G37*
G36*
X164304D02*
X123871D01*
Y3194736D01*
X164304D01*
Y3243043D01*
D02*
G37*
G36*
X678721Y3582677D02*
X671673D01*
X665161Y3579980D01*
X660178Y3574996D01*
X657480Y3568485D01*
Y3561437D01*
X660178Y3554925D01*
X665161Y3549941D01*
X671673Y3547244D01*
X678721D01*
X685232Y3549941D01*
X689213Y3553922D01*
X788735D01*
X904316Y3438341D01*
Y3142368D01*
X894822Y3132874D01*
X889192D01*
X882681Y3130177D01*
X877697Y3125193D01*
X875000Y3118682D01*
Y3111633D01*
X876274Y3108559D01*
X872933Y3103559D01*
X847092D01*
X835630Y3115021D01*
Y3120650D01*
X832933Y3127162D01*
X827949Y3132145D01*
X821437Y3134843D01*
X815808D01*
X625212Y3325439D01*
Y3458425D01*
X629192Y3462405D01*
X631890Y3468917D01*
Y3475965D01*
X629192Y3482477D01*
X624209Y3487460D01*
X617697Y3490157D01*
X610649D01*
X604138Y3487460D01*
X599154Y3482477D01*
X596457Y3475965D01*
Y3468917D01*
X599154Y3462405D01*
X603134Y3458425D01*
Y3320866D01*
X603975Y3316642D01*
X606368Y3313061D01*
X800197Y3119231D01*
Y3113602D01*
X802894Y3107090D01*
X807878Y3102107D01*
X814389Y3099410D01*
X820019D01*
X834714Y3084714D01*
X838295Y3082321D01*
X842520Y3081481D01*
X904291D01*
X908271Y3077500D01*
X914783Y3074803D01*
X921831D01*
X928343Y3077500D01*
X933326Y3082484D01*
X936024Y3088996D01*
Y3096044D01*
X933326Y3102555D01*
X928343Y3107539D01*
X921831Y3110236D01*
X915052D01*
X914629Y3110364D01*
X911706Y3112790D01*
X911517Y3118347D01*
X923160Y3129990D01*
X925553Y3133571D01*
X926393Y3137795D01*
Y3442913D01*
X925553Y3447138D01*
X923160Y3450719D01*
X801113Y3572766D01*
X797532Y3575159D01*
X793307Y3575999D01*
X689213D01*
X685232Y3579980D01*
X678721Y3582677D01*
D02*
G37*
G36*
X1185611Y3012795D02*
X1178563D01*
X1172051Y3010098D01*
X1167067Y3005114D01*
X1164370Y2998603D01*
Y2991555D01*
X1167067Y2985043D01*
X1172051Y2980059D01*
X1178563Y2977362D01*
X1185611D01*
X1192122Y2980059D01*
X1197106Y2985043D01*
X1199803Y2991555D01*
Y2998603D01*
X1197106Y3005114D01*
X1192122Y3010098D01*
X1185611Y3012795D01*
D02*
G37*
G36*
X122520Y3037480D02*
X50709D01*
Y2965669D01*
X122520D01*
Y3037480D01*
D02*
G37*
G36*
X1546417Y2981457D02*
X1508937D01*
Y2908543D01*
X1546417D01*
Y2981457D01*
D02*
G37*
G36*
X1498937D02*
X1461457D01*
Y2908543D01*
X1498937D01*
Y2981457D01*
D02*
G37*
G36*
X91880Y2941575D02*
X91614D01*
Y2906575D01*
X126614D01*
Y2906841D01*
X123888Y2917014D01*
X118622Y2926135D01*
X111175Y2933583D01*
X102054Y2938849D01*
X91880Y2941575D01*
D02*
G37*
G36*
X81614D02*
X81348D01*
X71175Y2938849D01*
X62054Y2933583D01*
X54606Y2926135D01*
X49340Y2917014D01*
X46614Y2906841D01*
Y2906575D01*
X81614D01*
Y2941575D01*
D02*
G37*
G36*
X126614Y2896575D02*
X91614D01*
Y2861575D01*
X91880D01*
X102054Y2864301D01*
X111175Y2869567D01*
X118622Y2877014D01*
X123888Y2886135D01*
X126614Y2896309D01*
Y2896575D01*
D02*
G37*
G36*
X81614D02*
X46614D01*
Y2896309D01*
X49340Y2886135D01*
X54606Y2877014D01*
X62054Y2869567D01*
X71175Y2864301D01*
X81348Y2861575D01*
X81614D01*
Y2896575D01*
D02*
G37*
G36*
X1498937Y2898543D02*
X1461457D01*
Y2825630D01*
X1498937D01*
Y2898543D01*
D02*
G37*
G36*
X1305689Y2954724D02*
X1298641D01*
X1292130Y2952027D01*
X1287146Y2947044D01*
X1284449Y2940532D01*
Y2933484D01*
X1287146Y2926972D01*
X1291373Y2922746D01*
Y2803000D01*
X1287638Y2799266D01*
X1284941Y2792754D01*
Y2785706D01*
X1286215Y2782631D01*
X1282874Y2777631D01*
X1208452D01*
X1205709Y2780375D01*
Y2786004D01*
X1203011Y2792516D01*
X1198028Y2797500D01*
X1191516Y2800197D01*
X1184468D01*
X1177957Y2797500D01*
X1172973Y2792516D01*
X1170276Y2786004D01*
Y2778956D01*
X1172973Y2772445D01*
X1177957Y2767461D01*
X1184468Y2764764D01*
X1190097D01*
X1196074Y2758787D01*
X1199656Y2756394D01*
X1203880Y2755554D01*
X1285436D01*
X1287507Y2750554D01*
X1285178Y2748225D01*
X1282480Y2741713D01*
Y2736084D01*
X1250845Y2704448D01*
X1084838D01*
Y2705220D01*
X1084074Y2709061D01*
X1081899Y2712316D01*
X1078643Y2714492D01*
X1074803Y2715256D01*
X1043307D01*
X1039467Y2714492D01*
X1036211Y2712316D01*
X1034036Y2709061D01*
X1033272Y2705220D01*
Y2681598D01*
X1034036Y2677758D01*
X1036211Y2674502D01*
X1039467Y2672327D01*
X1043307Y2671563D01*
X1074803D01*
X1078643Y2672327D01*
X1081899Y2674502D01*
X1084074Y2677758D01*
X1084838Y2681598D01*
Y2682371D01*
X1255417D01*
X1259642Y2683211D01*
X1263223Y2685604D01*
X1298092Y2720472D01*
X1303721D01*
X1310233Y2723170D01*
X1315216Y2728153D01*
X1317913Y2734665D01*
Y2741713D01*
X1315216Y2748225D01*
X1312887Y2750554D01*
X1314958Y2755554D01*
X1386174D01*
X1387169Y2750554D01*
X1381697Y2748287D01*
X1376713Y2743303D01*
X1374016Y2736792D01*
Y2729744D01*
X1376713Y2723232D01*
X1381697Y2718248D01*
X1388208Y2715551D01*
X1395256D01*
X1401768Y2718248D01*
X1406752Y2723232D01*
X1409449Y2729744D01*
Y2736792D01*
X1406752Y2743303D01*
X1401768Y2748287D01*
X1396296Y2750554D01*
X1397290Y2755554D01*
X1528683D01*
X1532908Y2756394D01*
X1536489Y2758787D01*
X1610168Y2832466D01*
X1612561Y2836047D01*
X1613401Y2840272D01*
Y2862952D01*
X1617381Y2866933D01*
X1620079Y2873445D01*
Y2880492D01*
X1617381Y2887004D01*
X1612398Y2891988D01*
X1605886Y2894685D01*
X1598838D01*
X1592327Y2891988D01*
X1587343Y2887004D01*
X1585468Y2882477D01*
X1580056D01*
X1578996Y2885036D01*
X1574012Y2890019D01*
X1567500Y2892716D01*
X1560452D01*
X1553941Y2890019D01*
X1551417Y2887496D01*
X1546417Y2889567D01*
Y2898543D01*
X1508937D01*
Y2825630D01*
X1542121D01*
X1544192Y2820630D01*
X1523831Y2800269D01*
X1316674D01*
X1313450Y2803492D01*
Y2923238D01*
X1317185Y2926972D01*
X1319882Y2933484D01*
Y2940532D01*
X1317185Y2947044D01*
X1312201Y2952027D01*
X1305689Y2954724D01*
D02*
G37*
G36*
X91341Y2837480D02*
X81887D01*
X72755Y2835033D01*
X64568Y2830306D01*
X57883Y2823621D01*
X53156Y2815434D01*
X50709Y2806302D01*
Y2796848D01*
X53156Y2787716D01*
X57883Y2779528D01*
X64568Y2772843D01*
X72755Y2768116D01*
X81887Y2765669D01*
X91341D01*
X100473Y2768116D01*
X108661Y2772843D01*
X115346Y2779528D01*
X120073Y2787716D01*
X122520Y2796848D01*
Y2806302D01*
X120073Y2815434D01*
X115346Y2823621D01*
X108661Y2830306D01*
X100473Y2835033D01*
X91341Y2837480D01*
D02*
G37*
G36*
X397225Y2714567D02*
X390177D01*
X383665Y2711870D01*
X378682Y2706886D01*
X375984Y2700374D01*
Y2693326D01*
X378682Y2686815D01*
X383665Y2681831D01*
X390177Y2679134D01*
X397225D01*
X403736Y2681831D01*
X408720Y2686815D01*
X411417Y2693326D01*
Y2700374D01*
X408720Y2706886D01*
X403736Y2711870D01*
X397225Y2714567D01*
D02*
G37*
G36*
X473863Y2701693D02*
X452842D01*
Y2676735D01*
X459653D01*
X465091Y2677817D01*
X469701Y2680897D01*
X472782Y2685507D01*
X473863Y2690945D01*
Y2701693D01*
D02*
G37*
G36*
X442842D02*
X421821D01*
Y2690945D01*
X422903Y2685507D01*
X425983Y2680897D01*
X430594Y2677817D01*
X436031Y2676735D01*
X442842D01*
Y2701693D01*
D02*
G37*
G36*
X374016Y2600750D02*
X358268D01*
X347476Y2599330D01*
X337420Y2595164D01*
X328785Y2588538D01*
X322159Y2579903D01*
X317993Y2569847D01*
X316572Y2559055D01*
X317993Y2548264D01*
X322159Y2538207D01*
X328785Y2529572D01*
X337420Y2522946D01*
X347476Y2518781D01*
X358268Y2517360D01*
X374016D01*
X384807Y2518781D01*
X394863Y2522946D01*
X403499Y2529572D01*
X410125Y2538207D01*
X414290Y2548264D01*
X415711Y2559055D01*
X414290Y2569847D01*
X410125Y2579903D01*
X403499Y2588538D01*
X394863Y2595164D01*
X384807Y2599330D01*
X374016Y2600750D01*
D02*
G37*
G36*
X177165D02*
X161417D01*
X150626Y2599330D01*
X140570Y2595164D01*
X131934Y2588538D01*
X125308Y2579903D01*
X121143Y2569847D01*
X119722Y2559055D01*
X121143Y2548264D01*
X125308Y2538207D01*
X131934Y2529572D01*
X140570Y2522946D01*
X150626Y2518781D01*
X161417Y2517360D01*
X177165D01*
X187957Y2518781D01*
X198013Y2522946D01*
X206648Y2529572D01*
X213274Y2538207D01*
X217440Y2548264D01*
X218861Y2559055D01*
X217440Y2569847D01*
X213274Y2579903D01*
X206648Y2588538D01*
X198013Y2595164D01*
X187957Y2599330D01*
X177165Y2600750D01*
D02*
G37*
G36*
X1425210Y2516246D02*
X1366154D01*
X1361634Y2514374D01*
X1359762Y2509854D01*
Y2496075D01*
X1361634Y2491555D01*
X1366154Y2489683D01*
X1425210D01*
X1429729Y2491555D01*
X1431602Y2496075D01*
Y2509854D01*
X1429729Y2514374D01*
X1425210Y2516246D01*
D02*
G37*
G36*
X1642729Y2516246D02*
X1583674D01*
X1579154Y2514374D01*
X1577282Y2509854D01*
Y2496075D01*
X1579154Y2491555D01*
X1583674Y2489683D01*
X1642729D01*
X1647249Y2491555D01*
X1649121Y2496075D01*
Y2509854D01*
X1647249Y2514374D01*
X1642729Y2516246D01*
D02*
G37*
G36*
X434134Y2401562D02*
Y2327847D01*
X484886D01*
Y2346468D01*
X482987Y2360898D01*
X477417Y2374345D01*
X468557Y2385891D01*
X457010Y2394751D01*
X443564Y2400321D01*
X434134Y2401562D01*
D02*
G37*
G36*
X424134D02*
X414704Y2400321D01*
X401257Y2394751D01*
X389711Y2385891D01*
X380851Y2374345D01*
X375281Y2360898D01*
X373381Y2346468D01*
Y2327847D01*
X424134D01*
Y2401562D01*
D02*
G37*
G36*
X1304225D02*
Y2327846D01*
X1354978D01*
Y2346468D01*
X1353078Y2360898D01*
X1347509Y2374345D01*
X1338648Y2385891D01*
X1327102Y2394751D01*
X1313655Y2400321D01*
X1304225Y2401562D01*
D02*
G37*
G36*
X1294225D02*
X1284796Y2400321D01*
X1271349Y2394751D01*
X1259802Y2385891D01*
X1250942Y2374345D01*
X1245372Y2360898D01*
X1243473Y2346468D01*
Y2327846D01*
X1294225D01*
Y2401562D01*
D02*
G37*
G36*
X111299D02*
Y2327846D01*
X162052D01*
Y2346468D01*
X160152Y2360898D01*
X154582Y2374345D01*
X145722Y2385891D01*
X134175Y2394751D01*
X120729Y2400321D01*
X111299Y2401562D01*
D02*
G37*
G36*
X101299D02*
X91869Y2400321D01*
X78423Y2394751D01*
X66876Y2385891D01*
X58016Y2374345D01*
X52446Y2360898D01*
X50547Y2346468D01*
Y2327846D01*
X101299D01*
Y2401562D01*
D02*
G37*
G36*
X987776Y2340551D02*
X980728D01*
X974216Y2337854D01*
X969233Y2332870D01*
X966535Y2326359D01*
Y2319311D01*
X969233Y2312799D01*
X974216Y2307815D01*
X980728Y2305118D01*
X987776D01*
X994288Y2307815D01*
X999271Y2312799D01*
X1001968Y2319311D01*
Y2326359D01*
X999271Y2332870D01*
X994288Y2337854D01*
X987776Y2340551D01*
D02*
G37*
G36*
X484886Y2317847D02*
X434134D01*
Y2244130D01*
X443564Y2245371D01*
X457010Y2250941D01*
X468557Y2259801D01*
X477417Y2271348D01*
X482987Y2284794D01*
X484886Y2299224D01*
Y2317847D01*
D02*
G37*
G36*
X1354978Y2317846D02*
X1304225D01*
Y2244130D01*
X1313655Y2245371D01*
X1327102Y2250941D01*
X1338648Y2259801D01*
X1347509Y2271348D01*
X1353078Y2284794D01*
X1354978Y2299224D01*
Y2317846D01*
D02*
G37*
G36*
X1294225D02*
X1243473D01*
Y2299224D01*
X1245372Y2284794D01*
X1250942Y2271348D01*
X1259802Y2259801D01*
X1271349Y2250941D01*
X1284796Y2245371D01*
X1294225Y2244130D01*
Y2317846D01*
D02*
G37*
G36*
X162052D02*
X111299D01*
Y2244130D01*
X120729Y2245371D01*
X134175Y2250941D01*
X145722Y2259801D01*
X154582Y2271348D01*
X160152Y2284794D01*
X162052Y2299224D01*
Y2317846D01*
D02*
G37*
G36*
X101299D02*
X50547D01*
Y2299224D01*
X52446Y2284794D01*
X58016Y2271348D01*
X66876Y2259801D01*
X78423Y2250941D01*
X91869Y2245371D01*
X101299Y2244130D01*
Y2317846D01*
D02*
G37*
G36*
X424134Y2317847D02*
X373381D01*
Y2299224D01*
X375281Y2284794D01*
X380851Y2271348D01*
X389711Y2259801D01*
X401257Y2250941D01*
X414704Y2245371D01*
X424134Y2244130D01*
Y2317847D01*
D02*
G37*
G36*
X210643Y2135827D02*
X127966D01*
Y2037401D01*
X210643D01*
Y2135827D01*
D02*
G37*
G36*
X366155Y2136183D02*
X355363Y2134763D01*
X345307Y2130597D01*
X336672Y2123971D01*
X330046Y2115336D01*
X325880Y2105280D01*
X324459Y2094488D01*
Y2078740D01*
X325880Y2067948D01*
X330046Y2057892D01*
X336672Y2049257D01*
X345307Y2042631D01*
X355363Y2038466D01*
X366155Y2037045D01*
X376946Y2038466D01*
X387002Y2042631D01*
X395638Y2049257D01*
X402264Y2057892D01*
X406429Y2067948D01*
X407850Y2078740D01*
Y2094488D01*
X406429Y2105280D01*
X402264Y2115336D01*
X395638Y2123971D01*
X387002Y2130597D01*
X376946Y2134763D01*
X366155Y2136183D01*
D02*
G37*
G36*
X18288Y1832677D02*
X11240D01*
X4728Y1829980D01*
X-256Y1824996D01*
X-2953Y1818485D01*
Y1811437D01*
X-256Y1804925D01*
X4728Y1799941D01*
X11240Y1797244D01*
X18288D01*
X24799Y1799941D01*
X29783Y1804925D01*
X32480Y1811437D01*
Y1818485D01*
X29783Y1824996D01*
X24799Y1829980D01*
X18288Y1832677D01*
D02*
G37*
G36*
X495650Y1454724D02*
X488602D01*
X482090Y1452027D01*
X477107Y1447043D01*
X474409Y1440532D01*
Y1433484D01*
X477107Y1426972D01*
X482090Y1421989D01*
X488602Y1419291D01*
X495650D01*
X502162Y1421989D01*
X507145Y1426972D01*
X509842Y1433484D01*
Y1440532D01*
X507145Y1447043D01*
X502162Y1452027D01*
X495650Y1454724D01*
D02*
G37*
G36*
X267303Y1452756D02*
X260255D01*
X253744Y1450059D01*
X248760Y1445075D01*
X246063Y1438563D01*
Y1431515D01*
X248760Y1425004D01*
X253744Y1420020D01*
X260255Y1417323D01*
X267303D01*
X273815Y1420020D01*
X278799Y1425004D01*
X281496Y1431515D01*
Y1438563D01*
X278799Y1445075D01*
X273815Y1450059D01*
X267303Y1452756D01*
D02*
G37*
G36*
X393701Y1349599D02*
X359331D01*
Y1304803D01*
X442838D01*
X441800Y1312691D01*
X436825Y1324701D01*
X428912Y1335014D01*
X418599Y1342928D01*
X406589Y1347902D01*
X393701Y1349599D01*
D02*
G37*
G36*
X143701D02*
X109331D01*
Y1304803D01*
X192838D01*
X191800Y1312691D01*
X186825Y1324701D01*
X178912Y1335014D01*
X168599Y1342928D01*
X156589Y1347902D01*
X143701Y1349599D01*
D02*
G37*
G36*
X599331D02*
X564961D01*
X552072Y1347902D01*
X540063Y1342928D01*
X529749Y1335014D01*
X521836Y1324701D01*
X516861Y1312691D01*
X515823Y1304803D01*
X599331D01*
Y1349599D01*
D02*
G37*
G36*
X349331D02*
X314961D01*
X302072Y1347902D01*
X290063Y1342928D01*
X279749Y1335014D01*
X271836Y1324701D01*
X266861Y1312691D01*
X265823Y1304803D01*
X349331D01*
Y1349599D01*
D02*
G37*
G36*
X99331D02*
X64961D01*
X52072Y1347902D01*
X40063Y1342928D01*
X29749Y1335014D01*
X21836Y1324701D01*
X16861Y1312691D01*
X15823Y1304803D01*
X99331D01*
Y1349599D01*
D02*
G37*
G36*
X1690945Y1362205D02*
X1584646D01*
Y1299213D01*
X1690945D01*
Y1362205D01*
D02*
G37*
G36*
X599331Y1294803D02*
X515823D01*
X516861Y1286915D01*
X521836Y1274905D01*
X529749Y1264592D01*
X540063Y1256678D01*
X552072Y1251704D01*
X564961Y1250007D01*
X599331D01*
Y1294803D01*
D02*
G37*
G36*
X442838D02*
X359331D01*
Y1250007D01*
X393701D01*
X406589Y1251704D01*
X418599Y1256678D01*
X428912Y1264592D01*
X436825Y1274905D01*
X441800Y1286915D01*
X442838Y1294803D01*
D02*
G37*
G36*
X349331D02*
X265823D01*
X266861Y1286915D01*
X271836Y1274905D01*
X279749Y1264592D01*
X290063Y1256678D01*
X302072Y1251704D01*
X314961Y1250007D01*
X349331D01*
Y1294803D01*
D02*
G37*
G36*
X192838D02*
X109331D01*
Y1250007D01*
X143701D01*
X156589Y1251704D01*
X168599Y1256678D01*
X178912Y1264592D01*
X186825Y1274905D01*
X191800Y1286915D01*
X192838Y1294803D01*
D02*
G37*
G36*
X99331D02*
X15823D01*
X16861Y1286915D01*
X21836Y1274905D01*
X29749Y1264592D01*
X40063Y1256678D01*
X52072Y1251704D01*
X64961Y1250007D01*
X99331D01*
Y1294803D01*
D02*
G37*
G36*
X1706693Y1228339D02*
X1672323D01*
Y1183543D01*
X1755831D01*
X1754792Y1191431D01*
X1749818Y1203441D01*
X1741904Y1213755D01*
X1731591Y1221668D01*
X1719581Y1226643D01*
X1706693Y1228339D01*
D02*
G37*
G36*
X1662323D02*
X1627953D01*
X1615065Y1226643D01*
X1603055Y1221668D01*
X1592742Y1213755D01*
X1584828Y1203441D01*
X1579854Y1191431D01*
X1578815Y1183543D01*
X1662323D01*
Y1228339D01*
D02*
G37*
G36*
X1456693D02*
X1422323D01*
Y1183543D01*
X1505831D01*
X1504792Y1191431D01*
X1499818Y1203441D01*
X1491904Y1213755D01*
X1481591Y1221668D01*
X1469581Y1226643D01*
X1456693Y1228339D01*
D02*
G37*
G36*
X1412323D02*
X1377953D01*
X1365065Y1226643D01*
X1353055Y1221668D01*
X1342742Y1213755D01*
X1334828Y1203441D01*
X1329854Y1191431D01*
X1328815Y1183543D01*
X1412323D01*
Y1228339D01*
D02*
G37*
G36*
X1755831Y1173543D02*
X1672323D01*
Y1128747D01*
X1706693D01*
X1719581Y1130444D01*
X1731591Y1135419D01*
X1741904Y1143332D01*
X1749818Y1153645D01*
X1754792Y1165655D01*
X1755831Y1173543D01*
D02*
G37*
G36*
X1662323D02*
X1578815D01*
X1579854Y1165655D01*
X1584828Y1153645D01*
X1592742Y1143332D01*
X1603055Y1135419D01*
X1615065Y1130444D01*
X1627953Y1128747D01*
X1662323D01*
Y1173543D01*
D02*
G37*
G36*
X1505831D02*
X1422323D01*
Y1128747D01*
X1456693D01*
X1469581Y1130444D01*
X1481591Y1135419D01*
X1491904Y1143332D01*
X1499818Y1153645D01*
X1504792Y1165655D01*
X1505831Y1173543D01*
D02*
G37*
G36*
X1412323D02*
X1328815D01*
X1329854Y1165655D01*
X1334828Y1153645D01*
X1342742Y1143332D01*
X1353055Y1135419D01*
X1365065Y1130444D01*
X1377953Y1128747D01*
X1412323D01*
Y1173543D01*
D02*
G37*
G36*
X187008Y1179134D02*
X80709D01*
Y1116142D01*
X187008D01*
Y1179134D01*
D02*
G37*
G36*
X773209Y1092520D02*
X766161D01*
X759649Y1089822D01*
X754666Y1084839D01*
X751968Y1078327D01*
Y1071279D01*
X754666Y1064767D01*
X759649Y1059784D01*
X766161Y1057087D01*
X773209D01*
X779721Y1059784D01*
X784704Y1064767D01*
X787402Y1071279D01*
Y1078327D01*
X784704Y1084839D01*
X779721Y1089822D01*
X773209Y1092520D01*
D02*
G37*
G36*
X1598425Y1062992D02*
X1417323D01*
Y960630D01*
X1598425D01*
Y1062992D01*
D02*
G37*
G36*
X1445039Y931260D02*
X1394764D01*
Y831771D01*
X1445039D01*
Y931260D01*
D02*
G37*
G36*
X1384764D02*
X1334488D01*
Y831771D01*
X1384764D01*
Y931260D01*
D02*
G37*
G36*
X187008Y844488D02*
X80709D01*
Y781496D01*
X187008D01*
Y844488D01*
D02*
G37*
G36*
X1445039Y821771D02*
X1394764D01*
Y722284D01*
X1445039D01*
Y821771D01*
D02*
G37*
G36*
X1384764D02*
X1334488D01*
Y722284D01*
X1384764D01*
Y821771D01*
D02*
G37*
G36*
X393701Y710623D02*
X359331D01*
Y665827D01*
X442838D01*
X441800Y673715D01*
X436825Y685725D01*
X428912Y696038D01*
X418599Y703952D01*
X406589Y708926D01*
X393701Y710623D01*
D02*
G37*
G36*
X173386Y710197D02*
X109331D01*
Y665827D01*
X173386D01*
Y710197D01*
D02*
G37*
G36*
X99331D02*
X35276D01*
Y665827D01*
X99331D01*
Y710197D01*
D02*
G37*
G36*
X349331Y710623D02*
X314961D01*
X302072Y708926D01*
X290063Y703952D01*
X279749Y696038D01*
X271836Y685725D01*
X266861Y673715D01*
X265823Y665827D01*
X349331D01*
Y710623D01*
D02*
G37*
G36*
X643701Y706493D02*
X564961D01*
X553141Y704937D01*
X542127Y700375D01*
X532670Y693118D01*
X525412Y683660D01*
X520850Y672646D01*
X519294Y660827D01*
X520850Y649008D01*
X525412Y637994D01*
X532670Y628536D01*
X542127Y621279D01*
X553141Y616716D01*
X564961Y615160D01*
X643701D01*
X655520Y616716D01*
X666534Y621279D01*
X675992Y628536D01*
X683249Y637994D01*
X687811Y649008D01*
X689367Y660827D01*
X687811Y672646D01*
X683249Y683660D01*
X675992Y693118D01*
X666534Y700375D01*
X655520Y704937D01*
X643701Y706493D01*
D02*
G37*
G36*
X173386Y655827D02*
X109331D01*
Y611457D01*
X173386D01*
Y655827D01*
D02*
G37*
G36*
X99331D02*
X35276D01*
Y611457D01*
X99331D01*
Y655827D01*
D02*
G37*
G36*
X442838D02*
X359331D01*
Y611031D01*
X393701D01*
X406589Y612727D01*
X418599Y617702D01*
X428912Y625616D01*
X436825Y635929D01*
X441800Y647939D01*
X442838Y655827D01*
D02*
G37*
G36*
X349331D02*
X265823D01*
X266861Y647939D01*
X271836Y635929D01*
X279749Y625616D01*
X290063Y617702D01*
X302072Y612727D01*
X314961Y611031D01*
X349331D01*
Y655827D01*
D02*
G37*
G36*
X883136Y555118D02*
X872770D01*
X862757Y552435D01*
X853779Y547252D01*
X846449Y539922D01*
X841266Y530944D01*
X838583Y520931D01*
Y510565D01*
X841266Y500552D01*
X846449Y491574D01*
X853779Y484244D01*
X862757Y479061D01*
X872770Y476378D01*
X883136D01*
X893149Y479061D01*
X902126Y484244D01*
X909457Y491574D01*
X914640Y500552D01*
X917323Y510565D01*
Y520931D01*
X914640Y530944D01*
X909457Y539922D01*
X902126Y547252D01*
X893149Y552435D01*
X883136Y555118D01*
D02*
G37*
G36*
X1201359Y469488D02*
X1194311D01*
X1187799Y466791D01*
X1182815Y461807D01*
X1180118Y455296D01*
Y448248D01*
X1182815Y441736D01*
X1187799Y436752D01*
X1194311Y434055D01*
X1201359D01*
X1207870Y436752D01*
X1212854Y441736D01*
X1215551Y448248D01*
Y455296D01*
X1212854Y461807D01*
X1207870Y466791D01*
X1201359Y469488D01*
D02*
G37*
G36*
X36989Y500000D02*
X29941D01*
X23429Y497303D01*
X18445Y492319D01*
X15748Y485808D01*
Y478760D01*
X18445Y472248D01*
X23429Y467264D01*
X29941Y464567D01*
X35570D01*
X55187Y444950D01*
X58768Y442557D01*
X62992Y441717D01*
X96457D01*
Y414370D01*
X244095D01*
Y491142D01*
X96457D01*
Y463795D01*
X67565D01*
X51181Y480178D01*
Y485808D01*
X48484Y492319D01*
X43500Y497303D01*
X36989Y500000D01*
D02*
G37*
G36*
X1129976Y482284D02*
X1118055D01*
X1106540Y479198D01*
X1096216Y473237D01*
X1087786Y464808D01*
X1081826Y454484D01*
X1078740Y442969D01*
Y431047D01*
X1081826Y419532D01*
X1087786Y409208D01*
X1096216Y400778D01*
X1106540Y394818D01*
X1118055Y391732D01*
X1129976D01*
X1141492Y394818D01*
X1151816Y400778D01*
X1160245Y409208D01*
X1166206Y419532D01*
X1169291Y431047D01*
Y442969D01*
X1166206Y454484D01*
X1160245Y464808D01*
X1151816Y473237D01*
X1141492Y479198D01*
X1129976Y482284D01*
D02*
G37*
G36*
X454724Y491142D02*
X307087D01*
Y414370D01*
X364849D01*
Y195866D01*
X307087D01*
Y119094D01*
X454724D01*
Y195866D01*
X396962D01*
Y414370D01*
X454724D01*
Y420951D01*
X589319D01*
X589700Y419532D01*
X595660Y409208D01*
X604090Y400778D01*
X614414Y394818D01*
X625929Y391732D01*
X637850D01*
X649365Y394818D01*
X659690Y400778D01*
X668119Y409208D01*
X674080Y419532D01*
X677165Y431047D01*
Y442969D01*
X674080Y454484D01*
X668119Y464808D01*
X659690Y473237D01*
X649365Y479198D01*
X637850Y482284D01*
X625929D01*
X614414Y479198D01*
X604090Y473237D01*
X595660Y464808D01*
X589700Y454484D01*
X589319Y453064D01*
X454724D01*
Y491142D01*
D02*
G37*
G36*
X1267963Y559282D02*
X1234006D01*
X1229493Y558384D01*
X1225668Y555828D01*
X1223112Y552003D01*
X1222214Y547490D01*
Y499754D01*
X1223112Y495242D01*
X1225173Y492157D01*
Y428860D01*
X1223700Y427875D01*
X1221143Y424050D01*
X1220246Y419537D01*
Y385581D01*
X1221143Y381068D01*
X1223700Y377243D01*
X1227525Y374687D01*
X1232037Y373789D01*
X1279774D01*
X1284286Y374687D01*
X1288111Y377243D01*
X1290668Y381068D01*
X1291565Y385581D01*
Y419537D01*
X1290668Y424050D01*
X1288111Y427875D01*
X1284286Y430431D01*
X1279774Y431329D01*
X1276795D01*
Y492157D01*
X1278857Y495242D01*
X1279754Y499754D01*
Y547490D01*
X1278857Y552003D01*
X1276300Y555828D01*
X1272475Y558384D01*
X1267963Y559282D01*
D02*
G37*
G36*
X448406Y338583D02*
X441358D01*
X434846Y335885D01*
X429863Y330902D01*
X427165Y324390D01*
Y317342D01*
X429863Y310830D01*
X434846Y305847D01*
X441358Y303150D01*
X448406D01*
X454918Y305847D01*
X459901Y310830D01*
X462598Y317342D01*
Y324390D01*
X459901Y330902D01*
X454918Y335885D01*
X448406Y338583D01*
D02*
G37*
G36*
X637850Y285433D02*
X625929D01*
X614414Y282348D01*
X604090Y276387D01*
X595660Y267957D01*
X589700Y257633D01*
X586614Y246118D01*
Y234197D01*
X589700Y222682D01*
X595660Y212358D01*
X604090Y203928D01*
X614414Y197967D01*
X625929Y194882D01*
X637850D01*
X649365Y197967D01*
X659690Y203928D01*
X668119Y212358D01*
X674080Y222682D01*
X677165Y234197D01*
Y246118D01*
X674080Y257633D01*
X668119Y267957D01*
X659690Y276387D01*
X649365Y282348D01*
X637850Y285433D01*
D02*
G37*
G36*
X1593661Y224567D02*
X1556181D01*
Y151654D01*
X1593661D01*
Y224567D01*
D02*
G37*
G36*
X1546181D02*
X1508701D01*
Y148433D01*
X1504543Y145655D01*
X1504508Y145669D01*
X1497460D01*
X1490949Y142972D01*
X1485965Y137988D01*
X1483268Y131477D01*
Y124429D01*
X1485965Y117917D01*
X1490949Y112933D01*
X1497460Y110236D01*
X1504508D01*
X1504543Y110251D01*
X1508701Y107473D01*
Y68740D01*
X1539158D01*
Y59055D01*
X1539998Y54831D01*
X1542391Y51249D01*
X1563061Y30580D01*
X1566642Y28187D01*
X1570866Y27347D01*
X1575091Y28187D01*
X1578672Y30580D01*
X1581065Y34161D01*
X1581905Y38386D01*
X1581065Y42610D01*
X1578672Y46191D01*
X1561236Y63627D01*
Y68740D01*
X1593661D01*
Y141654D01*
X1551181D01*
Y146654D01*
X1546181D01*
Y224567D01*
D02*
G37*
G36*
X883136Y200787D02*
X872770D01*
X862757Y198104D01*
X853779Y192921D01*
X846449Y185591D01*
X841266Y176613D01*
X838583Y166601D01*
Y156234D01*
X841266Y146221D01*
X846449Y137244D01*
X853779Y129913D01*
X862757Y124730D01*
X872770Y122047D01*
X883136D01*
X893149Y124730D01*
X902126Y129913D01*
X909457Y137244D01*
X914640Y146221D01*
X917323Y156234D01*
Y166601D01*
X914640Y176613D01*
X909457Y185591D01*
X902126Y192921D01*
X893149Y198104D01*
X883136Y200787D01*
D02*
G37*
G36*
X1706280Y135827D02*
X1699232D01*
X1692720Y133130D01*
X1687737Y128146D01*
X1685039Y121634D01*
Y114586D01*
X1687737Y108075D01*
X1692720Y103091D01*
X1699232Y100394D01*
X1706280D01*
X1712792Y103091D01*
X1717775Y108075D01*
X1720472Y114586D01*
Y121634D01*
X1717775Y128146D01*
X1712792Y133130D01*
X1706280Y135827D01*
D02*
G37*
G36*
X1663957D02*
X1656909D01*
X1650398Y133130D01*
X1645414Y128146D01*
X1642717Y121634D01*
Y114586D01*
X1645414Y108075D01*
X1650398Y103091D01*
X1656909Y100394D01*
X1663957D01*
X1670469Y103091D01*
X1675452Y108075D01*
X1678150Y114586D01*
Y121634D01*
X1675452Y128146D01*
X1670469Y133130D01*
X1663957Y135827D01*
D02*
G37*
G36*
X1302842Y130551D02*
X1264842D01*
Y95551D01*
X1302842D01*
Y130551D01*
D02*
G37*
G36*
Y85551D02*
X1264842D01*
Y50551D01*
X1302842D01*
Y85551D01*
D02*
G37*
G36*
X1254842Y130551D02*
X1216842D01*
Y101590D01*
X1186024D01*
X1181799Y100750D01*
X1178218Y98357D01*
X1175825Y94776D01*
X1174985Y90551D01*
X1175825Y86327D01*
X1178218Y82746D01*
X1181799Y80353D01*
X1186024Y79512D01*
X1216842D01*
Y50551D01*
X1254842D01*
Y90551D01*
Y130551D01*
D02*
G37*
G36*
X830827Y2793450D02*
X821330Y2790905D01*
X812765Y2785960D01*
X805772Y2778967D01*
X800827Y2770403D01*
X798283Y2760905D01*
X830827D01*
Y2793450D01*
D02*
G37*
G36*
Y2750905D02*
X798283D01*
X800827Y2741408D01*
X805772Y2732844D01*
X812765Y2725851D01*
X821330Y2720906D01*
X830827Y2718361D01*
Y2750905D01*
D02*
G37*
G36*
X699362Y2581583D02*
X698701D01*
Y2543583D01*
X736701D01*
Y2544244D01*
X733770Y2555180D01*
X728109Y2564985D01*
X720103Y2572991D01*
X710298Y2578652D01*
X699362Y2581583D01*
D02*
G37*
G36*
X736701Y2533583D02*
X698701D01*
Y2495583D01*
X699362D01*
X710298Y2498513D01*
X720103Y2504174D01*
X728109Y2512180D01*
X733770Y2521985D01*
X736701Y2532922D01*
Y2533583D01*
D02*
G37*
G36*
X849981Y2419291D02*
X842933D01*
X836421Y2416594D01*
X831437Y2411610D01*
X828740Y2405099D01*
Y2398051D01*
X831437Y2391539D01*
X836421Y2386555D01*
X842933Y2383858D01*
X849981D01*
X856492Y2386555D01*
X861476Y2391539D01*
X864173Y2398051D01*
Y2405099D01*
X861476Y2411610D01*
X856492Y2416594D01*
X849981Y2419291D01*
D02*
G37*
G36*
X761319Y2758096D02*
X703248D01*
X698832Y2757217D01*
X695088Y2754716D01*
X692586Y2750972D01*
X691707Y2746555D01*
Y2714075D01*
X692586Y2709659D01*
X695088Y2705914D01*
X698832Y2703413D01*
X703248Y2702534D01*
X755693D01*
Y2162320D01*
X750693Y2160981D01*
X749833Y2162471D01*
X742589Y2169715D01*
X733718Y2174837D01*
X723823Y2177488D01*
X713579D01*
X703684Y2174837D01*
X694812Y2169715D01*
X687569Y2162471D01*
X682447Y2153600D01*
X679795Y2143705D01*
Y2133461D01*
X682447Y2123566D01*
X687569Y2114694D01*
X694812Y2107451D01*
X703684Y2102329D01*
X713579Y2099677D01*
X723823D01*
X733718Y2102329D01*
X742589Y2107451D01*
X749833Y2114694D01*
X750693Y2116185D01*
X755693Y2114845D01*
Y1866142D01*
X756534Y1861917D01*
X758927Y1858336D01*
X822835Y1794428D01*
Y1788799D01*
X825532Y1782287D01*
X830516Y1777303D01*
X837027Y1774606D01*
X844075D01*
X850587Y1777303D01*
X855571Y1782287D01*
X858268Y1788799D01*
Y1795847D01*
X855571Y1802358D01*
X850587Y1807342D01*
X844075Y1810039D01*
X838446D01*
X777771Y1870714D01*
Y2119924D01*
X778491Y2120416D01*
X785139Y2118902D01*
X787569Y2114694D01*
X794812Y2107451D01*
X803684Y2102329D01*
X813579Y2099677D01*
X823823D01*
X833718Y2102329D01*
X842589Y2107451D01*
X849833Y2114694D01*
X854955Y2123566D01*
X857606Y2133461D01*
Y2143705D01*
X854955Y2153600D01*
X849833Y2162471D01*
X842589Y2169715D01*
X833718Y2174837D01*
X823823Y2177488D01*
X813579D01*
X803684Y2174837D01*
X794812Y2169715D01*
X787569Y2162471D01*
X785139Y2158263D01*
X778491Y2156749D01*
X777771Y2157241D01*
Y2708395D01*
X776931Y2712619D01*
X774538Y2716201D01*
X772860Y2717879D01*
Y2746555D01*
X771981Y2750972D01*
X769479Y2754716D01*
X765735Y2757217D01*
X761319Y2758096D01*
D02*
G37*
G36*
X579311Y1917323D02*
X572263D01*
X565752Y1914626D01*
X560768Y1909642D01*
X558071Y1903130D01*
Y1896082D01*
X560768Y1889571D01*
X565752Y1884587D01*
X572263Y1881890D01*
X579311D01*
X585823Y1884587D01*
X590807Y1889571D01*
X593504Y1896082D01*
Y1903130D01*
X590807Y1909642D01*
X585823Y1914626D01*
X579311Y1917323D01*
D02*
G37*
G36*
X676752Y1763780D02*
X669704D01*
X663193Y1761082D01*
X658209Y1756099D01*
X655512Y1749587D01*
Y1742539D01*
X658209Y1736027D01*
X663193Y1731044D01*
X669704Y1728347D01*
X676752D01*
X683264Y1731044D01*
X688248Y1736027D01*
X690945Y1742539D01*
Y1749587D01*
X688248Y1756099D01*
X683264Y1761082D01*
X676752Y1763780D01*
D02*
G37*
G36*
X495650Y1671260D02*
X488602D01*
X482090Y1668563D01*
X477107Y1663579D01*
X474409Y1657067D01*
Y1650019D01*
X477107Y1643508D01*
X482090Y1638524D01*
X488602Y1635827D01*
X495650D01*
X502162Y1638524D01*
X507145Y1643508D01*
X509842Y1650019D01*
Y1657067D01*
X507145Y1663579D01*
X502162Y1668563D01*
X495650Y1671260D01*
D02*
G37*
G36*
X1703674Y2317847D02*
X1652922D01*
Y2299224D01*
X1654821Y2284794D01*
X1660391Y2271348D01*
X1669251Y2259801D01*
X1680798Y2250941D01*
X1694244Y2245371D01*
X1703674Y2244130D01*
Y2317847D01*
D02*
G37*
G36*
X1640761Y2156994D02*
X1582690D01*
X1578170Y2155122D01*
X1576298Y2150602D01*
Y2129933D01*
X1578170Y2125413D01*
X1582690Y2123541D01*
X1640761D01*
X1645281Y2125413D01*
X1647153Y2129933D01*
Y2150602D01*
X1645281Y2155122D01*
X1640761Y2156994D01*
D02*
G37*
G36*
X1736378Y1866890D02*
X1672323D01*
Y1822520D01*
X1736378D01*
Y1866890D01*
D02*
G37*
G36*
X1662323D02*
X1598268D01*
Y1822520D01*
X1662323D01*
Y1866890D01*
D02*
G37*
G36*
X1456693Y1867316D02*
X1422323D01*
Y1822520D01*
X1505831D01*
X1504792Y1830408D01*
X1499818Y1842418D01*
X1491904Y1852731D01*
X1481591Y1860644D01*
X1469581Y1865619D01*
X1456693Y1867316D01*
D02*
G37*
G36*
X1412323D02*
X1377953D01*
X1365065Y1865619D01*
X1353055Y1860644D01*
X1342742Y1852731D01*
X1334828Y1842418D01*
X1329854Y1830408D01*
X1328815Y1822520D01*
X1412323D01*
Y1867316D01*
D02*
G37*
G36*
X1736378Y1812520D02*
X1672323D01*
Y1768150D01*
X1736378D01*
Y1812520D01*
D02*
G37*
G36*
X1662323D02*
X1598268D01*
Y1768150D01*
X1662323D01*
Y1812520D01*
D02*
G37*
G36*
X1505831D02*
X1422323D01*
Y1767724D01*
X1456693D01*
X1469581Y1769420D01*
X1481591Y1774395D01*
X1491904Y1782309D01*
X1499818Y1792622D01*
X1504792Y1804631D01*
X1505831Y1812520D01*
D02*
G37*
G36*
X1412323D02*
X1328815D01*
X1329854Y1804631D01*
X1334828Y1792622D01*
X1342742Y1782309D01*
X1353055Y1774395D01*
X1365065Y1769420D01*
X1377953Y1767724D01*
X1412323D01*
Y1812520D01*
D02*
G37*
G36*
X1086201Y1671260D02*
X1079153D01*
X1072642Y1668563D01*
X1067658Y1663579D01*
X1064961Y1657067D01*
Y1650019D01*
X1067658Y1643508D01*
X1072642Y1638524D01*
X1079153Y1635827D01*
X1086201D01*
X1092713Y1638524D01*
X1097697Y1643508D01*
X1100394Y1650019D01*
Y1657067D01*
X1097697Y1663579D01*
X1092713Y1668563D01*
X1086201Y1671260D01*
D02*
G37*
G36*
X1551181Y418528D02*
X1544501Y417648D01*
X1538275Y415070D01*
X1532930Y410968D01*
X1528828Y405622D01*
X1526249Y399397D01*
X1525370Y392717D01*
Y357284D01*
X1526249Y350603D01*
X1528828Y344378D01*
X1532930Y339032D01*
X1538275Y334930D01*
X1544501Y332352D01*
X1551181Y331472D01*
X1557862Y332352D01*
X1564087Y334930D01*
X1569432Y339032D01*
X1573534Y344378D01*
X1576113Y350603D01*
X1576992Y357284D01*
Y392717D01*
X1576113Y399397D01*
X1573534Y405622D01*
X1569432Y410968D01*
X1564087Y415070D01*
X1557862Y417648D01*
X1551181Y418528D01*
D02*
G37*
%LPD*%
D10*
X447842Y3001968D02*
D03*
X509842D02*
D03*
Y3051181D02*
D03*
X447842D02*
D03*
X445378Y3173228D02*
D03*
X507378D02*
D03*
X447842Y2755906D02*
D03*
X509842D02*
D03*
X447842Y2706693D02*
D03*
X509842D02*
D03*
Y2883858D02*
D03*
X447842D02*
D03*
D11*
X666338Y2925197D02*
D03*
Y3000000D02*
D03*
X573819Y2962598D02*
D03*
X666338Y3074803D02*
D03*
Y3149606D02*
D03*
X573819Y3112205D02*
D03*
D12*
X430906Y3110236D02*
D03*
X513976D02*
D03*
X430906Y2824803D02*
D03*
X513976D02*
D03*
D13*
X732284Y2848425D02*
D03*
Y2730315D02*
D03*
D14*
X1331693Y523622D02*
D03*
X1250984D02*
D03*
D15*
X1551181Y146654D02*
D03*
Y357284D02*
D03*
X1503937Y3114173D02*
D03*
Y2903543D02*
D03*
D16*
X1255906Y402559D02*
D03*
Y321850D02*
D03*
D17*
X1259842Y230551D02*
D03*
Y90551D02*
D03*
D18*
X1442913Y523622D02*
D03*
X1612205D02*
D03*
D19*
X170276Y157480D02*
D03*
X380906D02*
D03*
D20*
X170276Y452756D02*
D03*
X380906D02*
D03*
D21*
X1059055Y2693409D02*
D03*
Y2755409D02*
D03*
D22*
X190945Y1687008D02*
Y1773989D01*
X648622Y2231666D01*
X434842Y3106299D02*
X454724D01*
X495079Y3065945D01*
X509842Y3001968D02*
Y3055118D01*
X495079Y3065945D02*
X499016D01*
X509842Y3055118D01*
X648622Y2925197D02*
X666338D01*
X648622Y2231666D02*
Y2925197D01*
X547244D02*
X648622D01*
X757874Y2717253D02*
X766732Y2708395D01*
Y1866142D02*
X840551Y1792323D01*
X757874Y2717253D02*
Y2736220D01*
X766732Y1866142D02*
Y2708395D01*
X732284Y2848425D02*
Y2950787D01*
X683071Y3000000D02*
X732284Y2950787D01*
X507378Y3114173D02*
X511315Y3110236D01*
X513976D01*
X507378Y3114173D02*
Y3173228D01*
X447527Y3183071D02*
X452448Y3187992D01*
Y3200479D02*
X470472Y3218504D01*
X435039Y3183071D02*
X447527D01*
X470472Y3218504D02*
X570866D01*
X452448Y3187992D02*
Y3200479D01*
X435039Y3179134D02*
Y3183071D01*
X312474Y3179134D02*
X435039D01*
X1683071Y2715691D02*
X1694882Y2703880D01*
Y2434288D02*
Y2703880D01*
X1683071Y2715691D02*
Y2716535D01*
X974409Y1200170D02*
X1002720Y1171860D01*
Y1130154D02*
Y1171860D01*
X867126Y1200787D02*
X887528Y1221189D01*
X981818Y1109252D02*
X1002720Y1130154D01*
X941929Y1168307D02*
X975394Y1134842D01*
X941929Y1168307D02*
Y1789370D01*
X1048448Y1895889D01*
X709646Y1325170D02*
X925564Y1109252D01*
X981818D01*
X887528Y1221189D02*
Y2990425D01*
X-22638Y2500000D02*
X155509Y2678147D01*
X1751968Y2866660D02*
X1774606Y2844023D01*
X1664359Y3248043D02*
X1751968Y3160433D01*
X1774606Y2866294D02*
X1790354Y2850546D01*
X1751968Y2866660D02*
Y3160433D01*
X1774606Y2866294D02*
Y3031496D01*
Y1701772D02*
Y2844023D01*
X629910Y3248043D02*
X887528Y2990425D01*
X1048448Y1895889D02*
X1367895D01*
X520669Y2898622D02*
X520669D01*
X547244Y2925197D01*
X509842Y2887795D02*
X520669Y2898622D01*
X509842Y2883858D02*
Y2887795D01*
X447842D02*
X476909Y2916862D01*
X511350D01*
X447842Y2883858D02*
Y2887795D01*
X511350Y2916862D02*
X557087Y2962598D01*
X573819D01*
X314961Y2931975D02*
X315596Y2932610D01*
X493634D01*
X519685Y2958661D01*
X509842Y2706693D02*
Y2755906D01*
X292323Y2857284D02*
Y2948847D01*
Y2857284D02*
X393701Y2755906D01*
X447842D01*
X433661Y2824803D02*
X487795Y2770669D01*
X499016D01*
X430906Y2824803D02*
X433661D01*
X499016Y2770669D02*
X509842Y2759843D01*
Y2755906D02*
Y2759843D01*
X466929Y2869095D02*
X511220Y2824803D01*
X447842Y2879921D02*
X458669Y2869095D01*
X447842Y2879921D02*
Y2883858D01*
X511220Y2824803D02*
X513976D01*
X458669Y2869095D02*
X466929D01*
X481291Y2981291D02*
Y3020895D01*
X455491Y2955491D02*
X481291Y2981291D01*
X423228Y2955248D02*
X423471Y2955491D01*
X455491D01*
X465769Y3036417D02*
X481291Y3020895D01*
X447842Y3047244D02*
Y3051181D01*
Y3047244D02*
X458669Y3036417D01*
X465769D01*
X292323Y2948847D02*
X298089Y2954613D01*
X373023D01*
X1288386Y1215551D02*
X1774606Y1701772D01*
X1790354Y1691929D02*
Y2850546D01*
X1307779Y1209354D02*
X1790354Y1691929D01*
X1528403Y2789230D02*
X1563976Y2824803D01*
Y2875000D01*
X191929Y2917323D02*
Y3058589D01*
X216535Y3051181D02*
X447842D01*
X191929Y3058589D02*
X312474Y3179134D01*
X430906Y3110236D02*
X434842Y3106299D01*
X620079Y3104331D02*
Y3169291D01*
X570866Y3218504D02*
X620079Y3169291D01*
Y3104331D02*
X649606Y3074803D01*
X666338D01*
X514961Y3111220D02*
X572835D01*
X513976Y3110236D02*
X514961Y3111220D01*
X572835D02*
X573819Y3112205D01*
X366155Y3248043D02*
X629910D01*
X666338Y3000000D02*
X683071D01*
Y3149606D02*
X718504Y3114173D01*
Y3035433D02*
Y3114173D01*
X683071Y3000000D02*
X718504Y3035433D01*
X666338Y3149606D02*
X683071D01*
X1652572Y2354710D02*
Y2369707D01*
X1718504Y2435639D02*
Y2551181D01*
X1451785Y2153923D02*
X1652572Y2354710D01*
Y2369707D02*
X1718504Y2435639D01*
X1636824Y2376230D02*
X1694882Y2434288D01*
X1435052Y2159462D02*
X1636824Y2361233D01*
Y2376230D01*
X693898Y1318647D02*
X919041Y1093504D01*
X1230315D01*
X709646Y1325170D02*
Y1347907D01*
X693898Y1318647D02*
Y1341384D01*
X300456Y1757096D02*
X709646Y1347907D01*
X269685Y1765596D02*
X693898Y1341384D01*
X269685Y1765596D02*
Y1806102D01*
X300456Y1757096D02*
Y1806362D01*
X1203880Y2766593D02*
X1528683D01*
X1302658Y2789230D02*
X1528403D01*
X1528683Y2766593D02*
X1602362Y2840272D01*
X1187992Y2782480D02*
X1203880Y2766593D01*
X1255417Y2693409D02*
X1300197Y2738189D01*
X267716Y1873031D02*
Y2086614D01*
X150591Y1755906D02*
X267716Y1873031D01*
X842520Y3092520D02*
X918307D01*
X614173Y3320866D02*
X842520Y3092520D01*
X-22638Y476378D02*
Y2500000D01*
X33465Y482284D02*
X62992Y452756D01*
X170276D01*
X793307Y3564961D02*
X915354Y3442913D01*
X892716Y3115157D02*
X915354Y3137795D01*
Y3442913D01*
X107284Y185039D02*
X134843Y157480D01*
X107284Y185039D02*
Y346457D01*
X-22638Y476378D02*
X107284Y346457D01*
X134843Y157480D02*
X170276D01*
X1059055Y2693409D02*
X1255417D01*
X1047244Y843504D02*
X1307779Y1104039D01*
X1047244Y316929D02*
Y843504D01*
Y316929D02*
X1124016Y240157D01*
X1307779Y1104039D02*
Y1209354D01*
X1256890Y1120079D02*
Y1387795D01*
X1068423Y887070D02*
X1288386Y1107033D01*
X1272638Y1113556D02*
Y1294291D01*
X858009Y902818D02*
X1061900D01*
X850653Y887070D02*
X1068423D01*
X1230315Y1093504D02*
X1256890Y1120079D01*
X1288386Y1107033D02*
Y1215551D01*
X1061900Y902818D02*
X1272638Y1113556D01*
X1451785Y1979779D02*
Y2153923D01*
X1367895Y1895889D02*
X1451785Y1979779D01*
X1435052Y2123362D02*
Y2159462D01*
X1435039Y2057085D02*
Y2123349D01*
X1405525Y2027571D02*
X1435039Y2057085D01*
Y2123349D02*
X1435052Y2123362D01*
X1503950Y3114173D02*
Y3248043D01*
X1602362Y2840272D02*
Y2876968D01*
X1302411Y2789476D02*
Y2936762D01*
Y2789476D02*
X1302658Y2789230D01*
X1302165Y2937008D02*
X1302411Y2936762D01*
X835630Y925197D02*
X858009Y902818D01*
X481299Y901575D02*
X836149D01*
X850653Y887070D01*
X614173Y3320866D02*
Y3472441D01*
X675197Y3564961D02*
X793307D01*
X1550197Y59055D02*
Y145669D01*
Y59055D02*
X1570866Y38386D01*
X1550197Y145669D02*
X1551181Y146654D01*
X1186024Y90551D02*
X1259842D01*
X1272638Y1294291D02*
X1567913Y1589567D01*
Y1985235D02*
X1602375Y2019697D01*
X1567913Y1589567D02*
Y1985235D01*
X1602375Y2019697D02*
Y2027571D01*
X936323Y2755409D02*
X1059055D01*
X935827Y2755905D02*
X936323Y2755409D01*
X1405525Y3248043D02*
X1503950D01*
X1503937Y3052165D02*
X1503950Y3052178D01*
X1602375Y3248043D02*
X1664359D01*
D23*
X1619094Y530512D02*
Y819882D01*
X1612205Y523622D02*
X1619094Y530512D01*
Y819882D02*
X1625984Y826772D01*
X1331693Y523622D02*
X1442913D01*
X1551181Y357284D02*
Y392717D01*
X1250984Y405512D02*
Y523622D01*
X1253937Y402559D02*
X1255906D01*
X1250984Y405512D02*
X1253937Y402559D01*
D24*
X1167323Y1178543D02*
Y1817520D01*
D25*
X380906Y157480D02*
Y452756D01*
X396654Y437008D02*
X631890D01*
X380906Y452756D02*
X396654Y437008D01*
D26*
X693701Y2538583D02*
D03*
X843701D02*
D03*
X818701Y2138583D02*
D03*
X718701D02*
D03*
D27*
X1637795Y1330709D02*
D03*
Y1665354D02*
D03*
X133858Y1147638D02*
D03*
Y812992D02*
D03*
D28*
X1167323Y1817520D02*
D03*
X1417323D02*
D03*
Y1178543D02*
D03*
X1667323D02*
D03*
X1167323D02*
D03*
X604331Y660827D02*
D03*
X354331D02*
D03*
Y1299803D02*
D03*
X104331D02*
D03*
X604331D02*
D03*
D29*
X1667323Y1817520D02*
D03*
X104331Y660827D02*
D03*
D30*
X366142Y2559055D02*
D03*
X169291D02*
D03*
D31*
X106299Y2322846D02*
D03*
X429134D02*
D03*
X472454Y3543319D02*
D03*
X63005D02*
D03*
X1708674D02*
D03*
X1299225D02*
D03*
Y2322846D02*
D03*
X1708674D02*
D03*
D32*
X366155Y2086614D02*
D03*
X267716D02*
D03*
X267729Y3248043D02*
D03*
X366155D02*
D03*
X1503950D02*
D03*
X1602375D02*
D03*
Y2027571D02*
D03*
X1503950D02*
D03*
D33*
X169304Y2086614D02*
D03*
Y3248043D02*
D03*
X1405525D02*
D03*
Y2027571D02*
D03*
D34*
X631890Y437008D02*
D03*
Y240157D02*
D03*
X1124016D02*
D03*
Y437008D02*
D03*
D35*
X935827Y2755905D02*
D03*
D36*
X835827D02*
D03*
D37*
X1389764Y826772D02*
D03*
D38*
X1507874Y1011811D02*
D03*
D39*
X1625984Y826772D02*
D03*
D40*
X86614Y2801575D02*
D03*
Y2901575D02*
D03*
D41*
Y3001575D02*
D03*
D42*
X190945Y1687008D02*
D03*
X671260Y2283464D02*
D03*
Y2598425D02*
D03*
X275591Y196851D02*
D03*
Y748032D02*
D03*
X551181D02*
D03*
X826772Y1299213D02*
D03*
X0Y2952757D02*
D03*
X275591Y2401575D02*
D03*
Y3503938D02*
D03*
X551181D02*
D03*
X826772Y2952757D02*
D03*
X964567Y472441D02*
D03*
X1102363Y1299213D02*
D03*
X964567Y2125985D02*
D03*
X1240158Y1574804D02*
D03*
X1377953Y3503938D02*
D03*
X1614173Y3543307D02*
D03*
X1692913Y3385826D02*
D03*
Y3070866D02*
D03*
X1614173Y2283464D02*
D03*
X1692913Y2125984D02*
D03*
Y1496063D02*
D03*
X1614173Y1023622D02*
D03*
X1692913Y866141D02*
D03*
Y551181D02*
D03*
X1535433Y3385826D02*
D03*
Y2440945D02*
D03*
X1456693Y2283464D02*
D03*
X1535433Y2125984D02*
D03*
Y1811023D02*
D03*
X1456693Y1653543D02*
D03*
X1535433Y1496063D02*
D03*
Y1181102D02*
D03*
Y866141D02*
D03*
X1456693Y708661D02*
D03*
X1299212Y3228346D02*
D03*
X1377952Y3070866D02*
D03*
Y2440945D02*
D03*
X1299212Y1968504D02*
D03*
Y1023622D02*
D03*
Y708661D02*
D03*
X1141732Y3543307D02*
D03*
X1220472Y3385826D02*
D03*
X1141732Y3228346D02*
D03*
X1220472Y3070866D02*
D03*
X1141732Y2598425D02*
D03*
X1220472Y2440945D02*
D03*
X1141732Y2283464D02*
D03*
X1220472Y2125984D02*
D03*
X1141732Y1968504D02*
D03*
X1220472Y1496063D02*
D03*
X1141732Y1023622D02*
D03*
X1220472Y866141D02*
D03*
X1141732Y78740D02*
D03*
X984252Y2598425D02*
D03*
Y2283464D02*
D03*
Y1968504D02*
D03*
X1062992Y1811023D02*
D03*
Y1181102D02*
D03*
X984252Y1023622D02*
D03*
Y708661D02*
D03*
Y393701D02*
D03*
Y78740D02*
D03*
X826771Y2913385D02*
D03*
Y2598425D02*
D03*
Y2283464D02*
D03*
Y1653543D02*
D03*
Y1338582D02*
D03*
Y393701D02*
D03*
Y78740D02*
D03*
X748031Y3070866D02*
D03*
X669291Y1968504D02*
D03*
Y78740D02*
D03*
X590551Y3070866D02*
D03*
X511811Y2598425D02*
D03*
Y2283464D02*
D03*
X590551Y1181102D02*
D03*
Y866141D02*
D03*
X511811Y708661D02*
D03*
X590551Y551181D02*
D03*
X511811Y393701D02*
D03*
Y78740D02*
D03*
X354330Y3543307D02*
D03*
X433071Y3385826D02*
D03*
Y2440945D02*
D03*
X354330Y2283464D02*
D03*
X433071Y2125984D02*
D03*
Y1496063D02*
D03*
Y1181102D02*
D03*
X354330Y1023622D02*
D03*
X433071Y866141D02*
D03*
Y551181D02*
D03*
Y236220D02*
D03*
X354330Y78740D02*
D03*
X196850Y3543307D02*
D03*
X275590Y3385826D02*
D03*
Y2440945D02*
D03*
X196850Y1968504D02*
D03*
Y1338582D02*
D03*
X275590Y1181102D02*
D03*
X196850Y1023622D02*
D03*
X275590Y866141D02*
D03*
X196850Y708661D02*
D03*
X275590Y551181D02*
D03*
X196850Y393701D02*
D03*
X275590Y236220D02*
D03*
X196850Y78740D02*
D03*
X118110Y3385826D02*
D03*
X39370Y3228346D02*
D03*
X118110Y3070866D02*
D03*
Y2440945D02*
D03*
X39370Y2283464D02*
D03*
Y1968504D02*
D03*
X118110Y1811023D02*
D03*
Y1496063D02*
D03*
X39370Y1023622D02*
D03*
X118110Y866141D02*
D03*
Y551181D02*
D03*
X1377953Y2952757D02*
D03*
Y2401575D02*
D03*
X1515748Y1574804D02*
D03*
X1102363Y3503938D02*
D03*
X1240158Y3228347D02*
D03*
Y2125985D02*
D03*
X826772Y196851D02*
D03*
X551181D02*
D03*
X413386Y2125985D02*
D03*
Y1023622D02*
D03*
X137796Y1574804D02*
D03*
Y1023622D02*
D03*
X0Y196851D02*
D03*
X1683071Y2716535D02*
D03*
X974409Y1200787D02*
D03*
X867126D02*
D03*
X155509Y2678147D02*
D03*
X1377953Y570866D02*
D03*
X1466535Y108268D02*
D03*
X1500984Y127953D02*
D03*
X1535433Y271654D02*
D03*
X1309055Y586614D02*
D03*
X1181102Y196850D02*
D03*
X1774606Y3031496D02*
D03*
X1082677Y1653543D02*
D03*
X1496063Y442913D02*
D03*
X910165Y1694882D02*
D03*
X840551Y1792323D02*
D03*
X863189Y1560039D02*
D03*
X846457Y2401575D02*
D03*
X984252Y2322835D02*
D03*
X1702756Y118110D02*
D03*
X423228Y2955248D02*
D03*
X373658D02*
D03*
X314961Y2931975D02*
D03*
X1563976Y2875000D02*
D03*
X191929Y2917323D02*
D03*
X216535Y3051181D02*
D03*
X519685Y2958661D02*
D03*
X1718504Y2551181D02*
D03*
X975394Y1134842D02*
D03*
X1181102Y292323D02*
D03*
X393701Y2696850D02*
D03*
X1391732Y2733268D02*
D03*
X1300197Y2738189D02*
D03*
X492126Y1653543D02*
D03*
Y1437008D02*
D03*
X673228Y1746063D02*
D03*
X575787Y1899606D02*
D03*
X918307Y3092520D02*
D03*
X33465Y482284D02*
D03*
X892716Y3115157D02*
D03*
X1182087Y2995079D02*
D03*
X1302658Y2789230D02*
D03*
X300456Y1806362D02*
D03*
X269685Y1806102D02*
D03*
X769685Y1074803D02*
D03*
X835630Y925197D02*
D03*
X14764Y1814961D02*
D03*
X150591Y1755906D02*
D03*
X1256890Y1387795D02*
D03*
X1197835Y451772D02*
D03*
X1602362Y2876968D02*
D03*
X1187992Y2782480D02*
D03*
X1302165Y2937008D02*
D03*
X817913Y3117126D02*
D03*
X614173Y3472441D02*
D03*
X675197Y3564961D02*
D03*
X833661Y3373032D02*
D03*
X728346Y3372539D02*
D03*
X1570866Y38386D02*
D03*
X1660433Y118110D02*
D03*
X1186024Y90551D02*
D03*
X1003678Y925456D02*
D03*
X444882Y320866D02*
D03*
X263779Y1435039D02*
D03*
X1373032Y1350394D02*
D03*
X481299Y901575D02*
D03*
%TF.MD5,49e9f556c5af2534687020b390cb0475*%
M02*
