%TF.GenerationSoftware,Altium Limited,Altium Designer,23.1.1 (15)*%
G04 Layer_Color=65535*
%FSLAX26Y26*%
%MOIN*%
%TF.SameCoordinates,CF7A6AEE-9E07-4C1C-9DF4-B320C76D0393*%
%TF.FilePolarity,Positive*%
%TF.FileFunction,Legend,Top*%
%TF.Part,Single*%
G01*
G75*
%TA.AperFunction,NonConductor*%
%ADD54C,0.023622*%
%ADD57C,0.010000*%
%ADD58C,0.011811*%
%ADD59C,0.005906*%
%ADD60C,0.007874*%
%ADD61C,0.015748*%
%ADD96C,0.000000*%
%ADD97C,0.008000*%
%ADD98C,0.007480*%
D54*
X860630Y3189370D02*
G03*
X860630Y3189370I-11811J0D01*
G01*
X704724Y2066929D02*
G03*
X704724Y2066929I-11811J0D01*
G01*
X204724Y1716535D02*
G03*
X204724Y1716535I-11811J0D01*
G01*
X952756Y799213D02*
G03*
X952756Y799213I-11811J0D01*
G01*
X275591Y1437008D02*
G03*
X275591Y1437008I-11811J0D01*
G01*
D57*
X80709Y2086614D02*
G03*
X100394Y2066929I19685J0D01*
G01*
X454737Y2492138D02*
G03*
X435052Y2511823I-19685J0D01*
G01*
X435039Y2066929D02*
G03*
X454724Y2086614I0J19685D01*
G01*
X100406Y2511823D02*
G03*
X80721Y2492138I-0J-19685D01*
G01*
X409680Y3543319D02*
G03*
X409680Y3543319I-141951J0D01*
G01*
X377772D02*
G03*
X377772Y3543319I-110043J0D01*
G01*
X100406Y3740169D02*
G03*
X80721Y3720484I-0J-19685D01*
G01*
X435052Y3313004D02*
G03*
X454737Y3332689I0J19685D01*
G01*
Y3720484D02*
G03*
X435052Y3740169I-19685J0D01*
G01*
X80722Y3332689D02*
G03*
X100406Y3313003I19685J0D01*
G01*
X1645901Y3543319D02*
G03*
X1645901Y3543319I-141951J0D01*
G01*
X1613993D02*
G03*
X1613993Y3543319I-110043J0D01*
G01*
X1336627Y3732295D02*
G03*
X1316942Y3712610I-0J-19685D01*
G01*
X1671260Y3287402D02*
G03*
X1690945Y3307086I0J19685D01*
G01*
X1690958Y3712610D02*
G03*
X1671273Y3732295I-19685J0D01*
G01*
X1316929Y3307086D02*
G03*
X1336614Y3287401I19685J0D01*
G01*
X1316942Y2112216D02*
G03*
X1336627Y2092531I19685J0D01*
G01*
X1690958Y2500012D02*
G03*
X1671273Y2519697I-19685J0D01*
G01*
Y2092531D02*
G03*
X1690958Y2112216I0J19685D01*
G01*
X1336627Y2519697D02*
G03*
X1316942Y2500012I-0J-19685D01*
G01*
X1613993Y2322846D02*
G03*
X1613993Y2322846I-110043J0D01*
G01*
X1645901D02*
G03*
X1645901Y2322846I-141951J0D01*
G01*
X44701Y2997976D02*
G03*
X8202Y2831564I41914J-96401D01*
G01*
X163303Y2829680D02*
G03*
X128528Y2997976I-76688J71895D01*
G01*
X555118Y2881890D02*
Y2893701D01*
X440945Y2881890D02*
X555118D01*
Y2893701D02*
Y3039370D01*
X452756D02*
X555118D01*
X452756Y2972441D02*
Y3039370D01*
X299213Y2972441D02*
X452756D01*
X299213Y2881890D02*
Y2972441D01*
Y2881890D02*
X440945D01*
Y2850394D02*
Y2881890D01*
X318898Y2681102D02*
Y2700787D01*
Y2681102D02*
X566929D01*
Y2850394D01*
X440945D02*
X566929D01*
X440945Y2744095D02*
Y2850394D01*
X318898Y2744095D02*
X440945D01*
X318898Y2700787D02*
Y2744095D01*
X830709Y1129921D02*
Y1188976D01*
Y1129921D02*
X905512D01*
Y1259842D01*
X830709D02*
X905512D01*
X830709Y1188976D02*
Y1259842D01*
X771654Y1188976D02*
X830709D01*
X771654Y700787D02*
Y1188976D01*
Y700787D02*
X787402D01*
X80709Y2086614D02*
Y2244094D01*
X100394Y2066929D02*
X122047D01*
X454724Y2086614D02*
Y2244094D01*
X454737Y2492138D02*
X454737Y2401575D01*
X100406Y2511823D02*
X435052D01*
X80721Y2401575D02*
Y2492138D01*
X401575Y2066929D02*
X436024D01*
X303150D02*
X329724D01*
X216535D02*
X232283D01*
X181607Y3476882D02*
X333182Y3628456D01*
X200308Y3456212D02*
X354344Y3610248D01*
X80721Y3622059D02*
Y3720484D01*
X100406Y3740169D02*
X435052D01*
X454737Y3720484D02*
X454737Y3622059D01*
Y3332689D02*
Y3480327D01*
X100406Y3313004D02*
X435052D01*
X80721Y3332689D02*
Y3480327D01*
X1452756Y3287402D02*
X1468504D01*
X1539370D02*
X1565945D01*
X1637795D02*
X1672244D01*
X1417828Y3476882D02*
X1569402Y3628456D01*
X1436528Y3456212D02*
X1590564Y3610248D01*
X1316942Y3622047D02*
Y3712610D01*
X1336627Y3732295D02*
X1671273D01*
X1690958Y3712610D02*
X1690958Y3622047D01*
X1690945Y3307087D02*
Y3464567D01*
X1336614Y3287402D02*
X1358268D01*
X1316929Y3307086D02*
Y3464567D01*
X1316942Y2112216D02*
Y2259854D01*
X1336627Y2092531D02*
X1671273D01*
X1690958Y2112216D02*
Y2259854D01*
X1690958Y2500012D02*
X1690958Y2401586D01*
X1336627Y2519697D02*
X1671273D01*
X1316942Y2401586D02*
Y2500012D01*
X1436528Y2235740D02*
X1590564Y2389775D01*
X1417828Y2256409D02*
X1569402Y2407984D01*
X1011811Y1868701D02*
X1023622D01*
X1824803Y1852953D02*
Y1868701D01*
X1011811D02*
X1824803D01*
X1013780Y1128543D02*
X1824803D01*
Y1817520D02*
Y1852953D01*
Y1128543D02*
Y1817520D01*
Y1688032D02*
X1917323D01*
Y1308032D02*
Y1688032D01*
X1824803Y1308032D02*
X1917323D01*
X748032Y609646D02*
X759842D01*
X-53150D02*
Y625394D01*
Y609646D02*
X759842D01*
X-53150Y1349803D02*
X757874D01*
X-53150Y625394D02*
Y660827D01*
Y1349803D01*
X-145669Y790315D02*
X-53150D01*
X-145669D02*
Y1170315D01*
X-53150D01*
X10827Y2828740D02*
X47244D01*
X125984D02*
X161417D01*
D58*
X1209842Y240669D02*
X1309842D01*
D59*
X1314842Y125669D02*
Y305669D01*
X1204842Y125669D02*
Y305669D01*
D60*
X244095Y2413386D02*
G03*
X358511Y2345534I23635J-90540D01*
G01*
X931368Y2799426D02*
G03*
X840286Y2799426I-45541J-43520D01*
G01*
Y2712385D02*
G03*
X931368Y2712385I45541J43520D01*
G01*
X1234252Y450787D02*
Y454724D01*
X1285433Y450787D02*
Y454724D01*
X244095Y2413386D02*
X358268Y2346457D01*
X120091Y3708673D02*
Y3727374D01*
Y3708673D02*
X199816D01*
Y3748043D01*
X120091D02*
X199816D01*
X120091Y3727374D02*
Y3748043D01*
X416351Y3708673D02*
Y3728358D01*
X338595Y3708673D02*
X405525D01*
X338595D02*
Y3748043D01*
X416351D01*
Y3728358D02*
Y3748043D01*
X404540Y3313004D02*
X405525D01*
X337611Y3340563D02*
Y3379933D01*
X120091Y3339579D02*
Y3378949D01*
X198832D01*
Y3339579D02*
Y3378949D01*
X120091Y3339579D02*
X198832D01*
X405525Y3708673D02*
X416351D01*
X337611Y3379933D02*
X415367D01*
Y3360248D02*
Y3379933D01*
X337611Y3340563D02*
X415367D01*
Y3352374D02*
X415367Y3352374D01*
Y3340563D02*
Y3360248D01*
X1566955Y3740157D02*
X1645695D01*
X1566955Y3704724D02*
Y3740157D01*
Y3704724D02*
X1645695D01*
Y3740157D01*
X1362205Y3346480D02*
X1440945D01*
Y3381913D01*
X1362205D02*
X1440945D01*
X1362205Y3346480D02*
Y3381913D01*
X1566955Y3346480D02*
X1645695D01*
X1566955D02*
Y3381913D01*
X1645695D01*
Y3346480D02*
Y3381913D01*
X1362205Y3740157D02*
X1440945D01*
Y3704724D02*
Y3740157D01*
X1362205Y3704724D02*
X1440945D01*
X1362205D02*
Y3740157D01*
X1651588Y2120090D02*
Y2139775D01*
X1651588Y2131901D02*
X1651588Y2131901D01*
X1573832Y2120090D02*
X1651588D01*
X1651588Y2139775D02*
Y2159460D01*
X1573832D02*
X1651588D01*
X1641745Y2488201D02*
X1652572D01*
X1356312Y2119106D02*
X1435052D01*
Y2158476D01*
X1356312D02*
X1435052D01*
X1356312Y2119106D02*
Y2158476D01*
X1573832Y2120090D02*
Y2159460D01*
X1640761Y2092531D02*
X1641745D01*
X1652572Y2507886D02*
Y2527571D01*
X1574816D02*
X1652572D01*
X1574816Y2488201D02*
Y2527571D01*
Y2488201D02*
X1641745D01*
X1652572D02*
Y2507886D01*
X1356312Y2506901D02*
Y2527571D01*
X1436036D01*
Y2488201D02*
Y2527571D01*
X1356312Y2488201D02*
X1436036D01*
X1356312D02*
Y2506901D01*
X1188976Y1078740D02*
Y1102362D01*
X657480Y1413386D02*
Y1437008D01*
X809449Y2882284D02*
X935433D01*
X809449Y3228740D02*
X935433D01*
Y2882284D02*
Y3228740D01*
X809449Y2882284D02*
Y3228740D01*
X535433Y2106299D02*
X732284D01*
X535433Y1980315D02*
X732284D01*
Y2106299D01*
X535433Y1980315D02*
Y2106299D01*
X232283Y1677165D02*
Y1874016D01*
X106299Y1677165D02*
Y1874016D01*
Y1677165D02*
X232283D01*
X106299Y1874016D02*
X232283D01*
X980315Y759842D02*
Y956693D01*
X854331Y759842D02*
Y956693D01*
Y759842D02*
X980315D01*
X854331Y956693D02*
X980315D01*
X303150Y1397638D02*
Y1594488D01*
X177165Y1397638D02*
Y1594488D01*
Y1397638D02*
X303150D01*
X177165Y1594488D02*
X303150D01*
X1122953Y493583D02*
Y588583D01*
Y83583D02*
Y183583D01*
X632953Y493583D02*
Y588583D01*
Y83583D02*
Y183583D01*
Y83583D02*
X1122953D01*
X632953Y588583D02*
X1122953D01*
X803149Y2020669D02*
X811024D01*
X803149Y2050197D02*
X811024D01*
X794291Y1933567D02*
Y1941441D01*
X764764Y1933567D02*
Y1941441D01*
X796260Y669291D02*
Y677165D01*
X825787Y669291D02*
Y677165D01*
X792323Y1015748D02*
Y1023622D01*
X821850Y1015748D02*
Y1023622D01*
X672244Y2259842D02*
Y2267716D01*
X642716Y2259842D02*
Y2267716D01*
X92520Y1889764D02*
X96457D01*
X92520Y1940945D02*
X96457D01*
X1183071Y927165D02*
Y931102D01*
X1234252Y927165D02*
Y931102D01*
X1028543Y669787D02*
Y677661D01*
X1058071Y669787D02*
Y677661D01*
X912402Y1933567D02*
Y1941441D01*
X882874Y1933567D02*
Y1941441D01*
X524606Y1421260D02*
Y1429134D01*
X554134Y1421260D02*
Y1429134D01*
X768701Y1539370D02*
Y1547244D01*
X798228Y1539370D02*
Y1547244D01*
X1177165Y2565945D02*
X1185039D01*
X1177165Y2536417D02*
X1185039D01*
X598425Y2437992D02*
X606299D01*
X598425Y2467520D02*
X606299D01*
X639764Y1521653D02*
Y1525591D01*
X690945Y1521653D02*
Y1525591D01*
X524606Y1535433D02*
Y1543307D01*
X554134Y1535433D02*
Y1543307D01*
X204724Y2989173D02*
X212598D01*
X204724Y3018701D02*
X212598D01*
X1091535Y2720472D02*
Y2728346D01*
X1121063Y2720472D02*
Y2728346D01*
X204724Y2784449D02*
X212598D01*
X204724Y2813976D02*
X212598D01*
X618110Y2727362D02*
X625984D01*
X618110Y2697835D02*
X625984D01*
X385827Y2723425D02*
X393701D01*
X385827Y2693898D02*
X393701D01*
X1082677Y3022638D02*
X1090551D01*
X1082677Y2993110D02*
X1090551D01*
X500000Y2804134D02*
X507874D01*
X500000Y2833661D02*
X507874D01*
X1082677Y3172244D02*
X1090551D01*
X1082677Y3142716D02*
X1090551D01*
X654039Y3077756D02*
X661913D01*
X654039Y3048228D02*
X661913D01*
X699803Y2968504D02*
Y2976378D01*
X670276Y2968504D02*
Y2976378D01*
X874016Y2610236D02*
X905512D01*
Y2578740D02*
Y2610236D01*
X874016Y2492126D02*
X905512D01*
Y2523622D01*
X535433Y2610236D02*
X566929D01*
Y2578740D02*
Y2610236D01*
X535433Y2492126D02*
X566929D01*
Y2523622D01*
X999134Y2735905D02*
Y2745905D01*
Y2765905D02*
Y2775905D01*
X979134Y2755905D02*
X1019134D01*
X999134Y2745905D02*
Y2765905D01*
X1188976Y1015748D02*
Y1039370D01*
X1289370Y604331D02*
X1293307D01*
X1289370Y553150D02*
X1293307D01*
X1013780Y1128543D02*
Y1869094D01*
X1196851Y1486220D02*
Y1529528D01*
X757874Y609252D02*
Y1349803D01*
X574803Y948819D02*
Y992126D01*
X1144685Y816929D02*
Y830709D01*
X1173740D01*
X1144685Y744095D02*
Y757874D01*
Y744095D02*
X1173740D01*
X1009842Y2576772D02*
X1076772D01*
X1009842Y2525590D02*
X1076772D01*
X655512Y2576772D02*
X722441D01*
X655512Y2525590D02*
X722441D01*
X1441437Y525098D02*
X1613681D01*
X1441437Y632382D02*
X1613681D01*
X370079Y1780512D02*
X377953D01*
X370079Y1810039D02*
X377953D01*
X1122535Y686024D02*
X1130409D01*
X1122535Y715551D02*
X1130409D01*
X1552165Y3114173D02*
X1591043D01*
X1641732Y3063484D01*
X1374016D02*
X1424705Y3114173D01*
X1463583D01*
X1641732Y2846457D02*
Y3063484D01*
X1552165Y2846457D02*
X1641732D01*
X1374016D02*
X1463583D01*
X1374016D02*
Y3063484D01*
X410433Y1421260D02*
Y1429134D01*
X439961Y1421260D02*
Y1429134D01*
X1177165Y2506890D02*
X1185039D01*
X1177165Y2477362D02*
X1185039D01*
X1083661Y895669D02*
Y938976D01*
X1144685Y895669D02*
Y938976D01*
X693409Y2644685D02*
X701284D01*
X693409Y2615157D02*
X701284D01*
X500496Y2697835D02*
X508370D01*
X500496Y2727362D02*
X508370D01*
X1595472Y440945D02*
X1634350D01*
X1685039Y390256D01*
X1417323D02*
X1468012Y440945D01*
X1506890D01*
X1685039Y173228D02*
Y390256D01*
X1595472Y173228D02*
X1685039D01*
X1417323D02*
X1506890D01*
X1417323D02*
Y390256D01*
X478346Y1764764D02*
Y1790846D01*
X516240Y1828740D01*
X478346Y1650098D02*
X516240Y1612205D01*
X478346Y1650098D02*
Y1676181D01*
X516240Y1828740D02*
X694882D01*
Y1764764D02*
Y1828740D01*
Y1612205D02*
Y1676181D01*
X516240Y1612205D02*
X694882D01*
X383858Y138287D02*
Y164370D01*
X345965Y100394D02*
X383858Y138287D01*
X345965Y316929D02*
X383858Y279035D01*
Y252953D02*
Y279035D01*
X167323Y100394D02*
X345965D01*
X167323D02*
Y164370D01*
Y252953D02*
Y316929D01*
X345965D01*
X1226378Y2986220D02*
X1230315D01*
X1226378Y3037402D02*
X1230315D01*
X383858Y394193D02*
Y420276D01*
X345965Y356299D02*
X383858Y394193D01*
X345965Y572835D02*
X383858Y534941D01*
Y508858D02*
Y534941D01*
X167323Y356299D02*
X345965D01*
X167323D02*
Y420276D01*
Y508858D02*
Y572835D01*
X345965D01*
X73819Y1613677D02*
Y1621551D01*
X44291Y1613677D02*
Y1621551D01*
X877953Y3353347D02*
X885827D01*
X877953Y3323819D02*
X885827D01*
X44291Y1448819D02*
Y1456693D01*
X73819Y1448819D02*
Y1456693D01*
X673228Y1851378D02*
X681102D01*
X673228Y1880906D02*
X681102D01*
X859252Y669787D02*
Y677661D01*
X888779Y669787D02*
Y677661D01*
X370079Y1890748D02*
X377953D01*
X370079Y1920276D02*
X377953D01*
X477362Y2090551D02*
Y2098425D01*
X506890Y2090551D02*
Y2098425D01*
X444882Y1552165D02*
X452756D01*
X444882Y1581693D02*
X452756D01*
X1042323Y1015748D02*
Y1023622D01*
X1012795Y1015748D02*
Y1023622D01*
X1750673Y2586608D02*
Y2573489D01*
X1757233Y2566929D01*
X1783471D01*
X1790031Y2573489D01*
Y2586608D01*
X1783471Y2593167D01*
X1757233D01*
X1750673Y2586608D01*
X1803150Y2606287D02*
X1763792D01*
Y2625965D01*
X1770352Y2632525D01*
X1783471D01*
X1790031Y2625965D01*
Y2606287D01*
X1757233Y2652204D02*
X1763792D01*
Y2645644D01*
Y2658763D01*
Y2652204D01*
X1783471D01*
X1790031Y2658763D01*
Y2678442D02*
Y2691561D01*
Y2685001D01*
X1763792D01*
Y2678442D01*
Y2737478D02*
Y2717799D01*
X1770352Y2711240D01*
X1783471D01*
X1790031Y2717799D01*
Y2737478D01*
X1763792Y2757157D02*
Y2770276D01*
X1770352Y2776835D01*
X1790031D01*
Y2757157D01*
X1783471Y2750597D01*
X1776911Y2757157D01*
Y2776835D01*
X1790031Y2789954D02*
Y2803073D01*
Y2796514D01*
X1750673D01*
Y2789954D01*
X1757233Y2888348D02*
X1750673Y2881788D01*
Y2868669D01*
X1757233Y2862110D01*
X1783471D01*
X1790031Y2868669D01*
Y2881788D01*
X1783471Y2888348D01*
X1790031Y2908026D02*
Y2921146D01*
X1783471Y2927705D01*
X1770352D01*
X1763792Y2921146D01*
Y2908026D01*
X1770352Y2901467D01*
X1783471D01*
X1790031Y2908026D01*
Y2940824D02*
X1763792D01*
Y2947384D01*
X1770352Y2953943D01*
X1790031D01*
X1770352D01*
X1763792Y2960503D01*
X1770352Y2967062D01*
X1790031D01*
X1803150Y2980182D02*
X1763792D01*
Y2999860D01*
X1770352Y3006420D01*
X1783471D01*
X1790031Y2999860D01*
Y2980182D01*
X1763792Y3019539D02*
X1790031D01*
X1776911D01*
X1770352Y3026099D01*
X1763792Y3032658D01*
Y3039218D01*
X1790031Y3078575D02*
Y3065456D01*
X1783471Y3058896D01*
X1770352D01*
X1763792Y3065456D01*
Y3078575D01*
X1770352Y3085135D01*
X1776911D01*
Y3058896D01*
X1790031Y3098254D02*
Y3117933D01*
X1783471Y3124492D01*
X1776911Y3117933D01*
Y3104814D01*
X1770352Y3098254D01*
X1763792Y3104814D01*
Y3124492D01*
X1790031Y3137611D02*
Y3157290D01*
X1783471Y3163849D01*
X1776911Y3157290D01*
Y3144171D01*
X1770352Y3137611D01*
X1763792Y3144171D01*
Y3163849D01*
X1790031Y3183528D02*
Y3196647D01*
X1783471Y3203207D01*
X1770352D01*
X1763792Y3196647D01*
Y3183528D01*
X1770352Y3176969D01*
X1783471D01*
X1790031Y3183528D01*
X1763792Y3216326D02*
X1790031D01*
X1776911D01*
X1770352Y3222886D01*
X1763792Y3229445D01*
Y3236005D01*
Y3295041D02*
X1790031Y3308160D01*
X1763792Y3321279D01*
X1790031Y3360637D02*
Y3334398D01*
X1763792Y3360637D01*
X1757233D01*
X1750673Y3354077D01*
Y3340958D01*
X1757233Y3334398D01*
X969825Y2153537D02*
X956706D01*
X950146Y2146977D01*
Y2120739D01*
X956706Y2114180D01*
X969825D01*
X976384Y2120739D01*
Y2146977D01*
X969825Y2153537D01*
X1015742Y2146977D02*
X1009182Y2153537D01*
X996063D01*
X989504Y2146977D01*
Y2120739D01*
X996063Y2114180D01*
X1009182D01*
X1015742Y2120739D01*
X1028861Y2114180D02*
X1041980D01*
X1035420D01*
Y2153537D01*
X1028861Y2146977D01*
X1230982Y1111532D02*
Y1085293D01*
X1244101Y1072174D01*
X1257220Y1085293D01*
Y1111532D01*
X1296577Y1072174D02*
X1270339D01*
X1296577Y1098412D01*
Y1104972D01*
X1290018Y1111532D01*
X1276899D01*
X1270339Y1104972D01*
X712605Y1437002D02*
Y1410763D01*
X725724Y1397644D01*
X738843Y1410763D01*
Y1437002D01*
X751962Y1397644D02*
X765081D01*
X758522D01*
Y1437002D01*
X751962Y1430442D01*
X1230982Y1055112D02*
Y1015754D01*
X1257220D01*
X1290018D02*
Y1055112D01*
X1270339Y1035433D01*
X1296577D01*
X1173235Y549879D02*
X1212592D01*
Y576117D01*
X1179794Y589237D02*
X1173235Y595796D01*
Y608915D01*
X1179794Y615475D01*
X1186354D01*
X1192913Y608915D01*
Y602356D01*
Y608915D01*
X1199473Y615475D01*
X1206032D01*
X1212592Y608915D01*
Y595796D01*
X1206032Y589237D01*
X772317Y1729655D02*
X765758Y1736214D01*
X752639D01*
X746079Y1729655D01*
Y1703416D01*
X752639Y1696857D01*
X765758D01*
X772317Y1703416D01*
X785436Y1696857D02*
X798555D01*
X791996D01*
Y1736214D01*
X785436Y1729655D01*
X818234Y1703416D02*
X824794Y1696857D01*
X837913D01*
X844472Y1703416D01*
Y1729655D01*
X837913Y1736214D01*
X824794D01*
X818234Y1729655D01*
Y1723095D01*
X824794Y1716535D01*
X844472D01*
X19691Y2073508D02*
X45930D01*
X59049Y2086627D01*
X45930Y2099746D01*
X19691D01*
X59049Y2112865D02*
X19691D01*
Y2132544D01*
X26251Y2139103D01*
X39370D01*
X45930Y2132544D01*
Y2112865D01*
Y2125984D02*
X59049Y2139103D01*
Y2171901D02*
X19691D01*
X39370Y2152223D01*
Y2178461D01*
X19691Y3317602D02*
X45930D01*
X59049Y3330721D01*
X45930Y3343840D01*
X19691D01*
X59049Y3356960D02*
X19691D01*
Y3376638D01*
X26251Y3383198D01*
X39370D01*
X45930Y3376638D01*
Y3356960D01*
Y3370079D02*
X59049Y3383198D01*
X26251Y3396317D02*
X19691Y3402877D01*
Y3415996D01*
X26251Y3422555D01*
X32811D01*
X39370Y3415996D01*
Y3409436D01*
Y3415996D01*
X45930Y3422555D01*
X52489D01*
X59049Y3415996D01*
Y3402877D01*
X52489Y3396317D01*
X1255912Y3286106D02*
X1282150D01*
X1295269Y3299225D01*
X1282150Y3312344D01*
X1255912D01*
X1295269Y3325463D02*
X1255912D01*
Y3345142D01*
X1262471Y3351702D01*
X1275591D01*
X1282150Y3345142D01*
Y3325463D01*
Y3338583D02*
X1295269Y3351702D01*
Y3391059D02*
Y3364821D01*
X1269031Y3391059D01*
X1262471D01*
X1255912Y3384500D01*
Y3371381D01*
X1262471Y3364821D01*
X1259849Y2099752D02*
X1286087D01*
X1299206Y2112871D01*
X1286087Y2125990D01*
X1259849D01*
X1299206Y2139110D02*
X1259849D01*
Y2158788D01*
X1266408Y2165348D01*
X1279527D01*
X1286087Y2158788D01*
Y2139110D01*
Y2152229D02*
X1299206Y2165348D01*
Y2178467D02*
Y2191586D01*
Y2185027D01*
X1259849D01*
X1266408Y2178467D01*
X841612Y3072238D02*
Y3039440D01*
X848171Y3032880D01*
X861290D01*
X867850Y3039440D01*
Y3072238D01*
X880969D02*
X907207D01*
Y3065678D01*
X880969Y3039440D01*
Y3032880D01*
X649600Y2076105D02*
X616802D01*
X610242Y2069545D01*
Y2056426D01*
X616802Y2049866D01*
X649600D01*
Y2010509D02*
Y2036747D01*
X629921D01*
X636481Y2023628D01*
Y2017069D01*
X629921Y2010509D01*
X616802D01*
X610242Y2017069D01*
Y2030188D01*
X616802Y2036747D01*
X136494Y1799206D02*
Y1766408D01*
X143053Y1759849D01*
X156172D01*
X162732Y1766408D01*
Y1799206D01*
X195530Y1759849D02*
Y1799206D01*
X175851Y1779527D01*
X202089D01*
X884525Y881884D02*
Y849086D01*
X891085Y842526D01*
X904204D01*
X910763Y849086D01*
Y881884D01*
X950121Y842526D02*
X923882D01*
X950121Y868764D01*
Y875324D01*
X943561Y881884D01*
X930442D01*
X923882Y875324D01*
X213919Y1515742D02*
Y1482944D01*
X220479Y1476384D01*
X233598D01*
X240157Y1482944D01*
Y1515742D01*
X253277Y1476384D02*
X266396D01*
X259836D01*
Y1515742D01*
X253277Y1509182D01*
X581369Y106299D02*
X574809Y99740D01*
Y86621D01*
X581369Y80061D01*
X587929D01*
X594488Y86621D01*
Y99740D01*
X601048Y106299D01*
X607607D01*
X614167Y99740D01*
Y86621D01*
X607607Y80061D01*
X614167Y119418D02*
Y132537D01*
Y125978D01*
X574809D01*
X581369Y119418D01*
X758547Y2078747D02*
Y2118104D01*
X778226D01*
X784785Y2111544D01*
Y2098425D01*
X778226Y2091866D01*
X758547D01*
X771666D02*
X784785Y2078747D01*
X824143Y2118104D02*
X797904D01*
Y2098425D01*
X811024Y2104985D01*
X817583D01*
X824143Y2098425D01*
Y2085306D01*
X817583Y2078747D01*
X804464D01*
X797904Y2085306D01*
X837262Y2111544D02*
X843822Y2118104D01*
X856941D01*
X863500Y2111544D01*
Y2104985D01*
X856941Y2098425D01*
X850381D01*
X856941D01*
X863500Y2091866D01*
Y2085306D01*
X856941Y2078747D01*
X843822D01*
X837262Y2085306D01*
X858261Y1888965D02*
X818904D01*
Y1908643D01*
X825463Y1915203D01*
X838582D01*
X845142Y1908643D01*
Y1888965D01*
Y1902084D02*
X858261Y1915203D01*
X818904Y1954560D02*
Y1928322D01*
X838582D01*
X832023Y1941441D01*
Y1948001D01*
X838582Y1954560D01*
X851702D01*
X858261Y1948001D01*
Y1934882D01*
X851702Y1928322D01*
X858261Y1993918D02*
Y1967679D01*
X832023Y1993918D01*
X825463D01*
X818904Y1987358D01*
Y1974239D01*
X825463Y1967679D01*
X889757Y1146996D02*
X850400D01*
Y1166675D01*
X856960Y1173235D01*
X870079D01*
X876638Y1166675D01*
Y1146996D01*
Y1160116D02*
X889757Y1173235D01*
X850400Y1212592D02*
Y1186354D01*
X870079D01*
X863519Y1199473D01*
Y1206033D01*
X870079Y1212592D01*
X883198D01*
X889757Y1206033D01*
Y1192913D01*
X883198Y1186354D01*
X889757Y1225711D02*
Y1238830D01*
Y1232271D01*
X850400D01*
X856960Y1225711D01*
X889757Y1006572D02*
X850400D01*
Y1026251D01*
X856960Y1032811D01*
X870079D01*
X876638Y1026251D01*
Y1006572D01*
Y1019692D02*
X889757Y1032811D01*
X850400Y1072168D02*
Y1045930D01*
X870079D01*
X863519Y1059049D01*
Y1065609D01*
X870079Y1072168D01*
X883198D01*
X889757Y1065609D01*
Y1052489D01*
X883198Y1045930D01*
X856960Y1085287D02*
X850400Y1091847D01*
Y1104966D01*
X856960Y1111525D01*
X883198D01*
X889757Y1104966D01*
Y1091847D01*
X883198Y1085287D01*
X856960D01*
X736214Y2207366D02*
X696856D01*
Y2227045D01*
X703416Y2233604D01*
X716535D01*
X723095Y2227045D01*
Y2207366D01*
Y2220485D02*
X736214Y2233604D01*
Y2266402D02*
X696856D01*
X716535Y2246723D01*
Y2272961D01*
X729654Y2286081D02*
X736214Y2292640D01*
Y2305759D01*
X729654Y2312319D01*
X703416D01*
X696856Y2305759D01*
Y2292640D01*
X703416Y2286081D01*
X709976D01*
X716535Y2292640D01*
Y2312319D01*
X38075Y1968510D02*
Y2007868D01*
X57753D01*
X64313Y2001308D01*
Y1988189D01*
X57753Y1981629D01*
X38075D01*
X51194D02*
X64313Y1968510D01*
X97111D02*
Y2007868D01*
X77432Y1988189D01*
X103670D01*
X116790Y2001308D02*
X123349Y2007868D01*
X136468D01*
X143028Y2001308D01*
Y1994748D01*
X136468Y1988189D01*
X143028Y1981629D01*
Y1975070D01*
X136468Y1968510D01*
X123349D01*
X116790Y1975070D01*
Y1981629D01*
X123349Y1988189D01*
X116790Y1994748D01*
Y2001308D01*
X123349Y1988189D02*
X136468D01*
X1299206Y880594D02*
X1259849D01*
Y900273D01*
X1266408Y906833D01*
X1279527D01*
X1286087Y900273D01*
Y880594D01*
Y893713D02*
X1299206Y906833D01*
Y939630D02*
X1259849D01*
X1279527Y919952D01*
Y946190D01*
X1259849Y959309D02*
Y985547D01*
X1266408D01*
X1292647Y959309D01*
X1299206D01*
X1011805Y625990D02*
X972447D01*
Y645669D01*
X979007Y652229D01*
X992126D01*
X998686Y645669D01*
Y625990D01*
Y639110D02*
X1011805Y652229D01*
Y685027D02*
X972447D01*
X992126Y665348D01*
Y691586D01*
X972447Y730943D02*
X979007Y717824D01*
X992126Y704705D01*
X1005245D01*
X1011805Y711265D01*
Y724384D01*
X1005245Y730943D01*
X998686D01*
X992126Y724384D01*
Y704705D01*
X976372Y1888965D02*
X937014D01*
Y1908643D01*
X943574Y1915203D01*
X956693D01*
X963253Y1908643D01*
Y1888965D01*
Y1902084D02*
X976372Y1915203D01*
Y1948001D02*
X937014D01*
X956693Y1928322D01*
Y1954560D01*
X937014Y1993918D02*
Y1967679D01*
X956693D01*
X950133Y1980798D01*
Y1987358D01*
X956693Y1993918D01*
X969812D01*
X976372Y1987358D01*
Y1974239D01*
X969812Y1967679D01*
X614167Y1368783D02*
X574809D01*
Y1388462D01*
X581369Y1395022D01*
X594488D01*
X601048Y1388462D01*
Y1368783D01*
Y1381902D02*
X614167Y1395022D01*
Y1427819D02*
X574809D01*
X594488Y1408141D01*
Y1434379D01*
X614167Y1473736D02*
Y1447498D01*
X587928Y1473736D01*
X581369D01*
X574809Y1467177D01*
Y1454058D01*
X581369Y1447498D01*
X858261Y1494768D02*
X818904D01*
Y1514446D01*
X825464Y1521006D01*
X838583D01*
X845142Y1514446D01*
Y1494768D01*
Y1507887D02*
X858261Y1521006D01*
Y1553804D02*
X818904D01*
X838583Y1534125D01*
Y1560363D01*
X858261Y1573482D02*
Y1586601D01*
Y1580042D01*
X818904D01*
X825464Y1573482D01*
X1136500Y2618117D02*
Y2657474D01*
X1156179D01*
X1162738Y2650914D01*
Y2637795D01*
X1156179Y2631236D01*
X1136500D01*
X1149619D02*
X1162738Y2618117D01*
X1202095D02*
X1175857D01*
X1202095Y2644355D01*
Y2650914D01*
X1195536Y2657474D01*
X1182417D01*
X1175857Y2650914D01*
X1215215Y2657474D02*
X1241453D01*
Y2650914D01*
X1215215Y2624676D01*
Y2618117D01*
X557760Y2377959D02*
Y2417316D01*
X577438D01*
X583998Y2410757D01*
Y2397638D01*
X577438Y2391078D01*
X557760D01*
X570879D02*
X583998Y2377959D01*
X623355D02*
X597117D01*
X623355Y2404197D01*
Y2410757D01*
X616796Y2417316D01*
X603677D01*
X597117Y2410757D01*
X656153Y2377959D02*
Y2417316D01*
X636475Y2397638D01*
X662713D01*
X751962Y1494768D02*
X712605D01*
Y1514446D01*
X719164Y1521006D01*
X732284D01*
X738843Y1514446D01*
Y1494768D01*
Y1507887D02*
X751962Y1521006D01*
Y1560363D02*
Y1534125D01*
X725724Y1560363D01*
X719164D01*
X712605Y1553804D01*
Y1540685D01*
X719164Y1534125D01*
Y1573482D02*
X712605Y1580042D01*
Y1593161D01*
X719164Y1599721D01*
X725724D01*
X732284Y1593161D01*
Y1586601D01*
Y1593161D01*
X738843Y1599721D01*
X745403D01*
X751962Y1593161D01*
Y1580042D01*
X745403Y1573482D01*
X614167Y1494767D02*
X574809D01*
Y1514446D01*
X581369Y1521006D01*
X594488D01*
X601048Y1514446D01*
Y1494767D01*
Y1507887D02*
X614167Y1521006D01*
Y1560363D02*
Y1534125D01*
X587929Y1560363D01*
X581369D01*
X574809Y1553804D01*
Y1540685D01*
X581369Y1534125D01*
X614167Y1599720D02*
Y1573482D01*
X587929Y1599720D01*
X581369D01*
X574809Y1593161D01*
Y1580042D01*
X581369Y1573482D01*
X166681Y3039376D02*
Y3078734D01*
X186360D01*
X192920Y3072174D01*
Y3059055D01*
X186360Y3052495D01*
X166681D01*
X179801D02*
X192920Y3039376D01*
X232277D02*
X206039D01*
X232277Y3065615D01*
Y3072174D01*
X225718Y3078734D01*
X212599D01*
X206039Y3072174D01*
X245396Y3039376D02*
X258515D01*
X251956D01*
Y3078734D01*
X245396Y3072174D01*
X1188970Y2695555D02*
X1149613D01*
Y2715234D01*
X1156172Y2721793D01*
X1169291D01*
X1175851Y2715234D01*
Y2695555D01*
Y2708674D02*
X1188970Y2721793D01*
Y2761151D02*
Y2734912D01*
X1162732Y2761151D01*
X1156172D01*
X1149613Y2754591D01*
Y2741472D01*
X1156172Y2734912D01*
Y2774270D02*
X1149613Y2780829D01*
Y2793948D01*
X1156172Y2800508D01*
X1182410D01*
X1188970Y2793948D01*
Y2780829D01*
X1182410Y2774270D01*
X1156172D01*
X166681Y2716542D02*
Y2755899D01*
X186360D01*
X192920Y2749340D01*
Y2736220D01*
X186360Y2729661D01*
X166681D01*
X179801D02*
X192920Y2716542D01*
X206039D02*
X219158D01*
X212599D01*
Y2755899D01*
X206039Y2749340D01*
X238837Y2723101D02*
X245396Y2716542D01*
X258515D01*
X265075Y2723101D01*
Y2749340D01*
X258515Y2755899D01*
X245396D01*
X238837Y2749340D01*
Y2742780D01*
X245396Y2736220D01*
X265075D01*
X1377946Y399622D02*
X1338589D01*
Y419301D01*
X1345149Y425860D01*
X1358268D01*
X1364827Y419301D01*
Y399622D01*
Y412741D02*
X1377946Y425860D01*
Y438980D02*
Y452099D01*
Y445539D01*
X1338589D01*
X1345149Y438980D01*
Y471777D02*
X1338589Y478337D01*
Y491456D01*
X1345149Y498016D01*
X1351708D01*
X1358268Y491456D01*
X1364827Y498016D01*
X1371387D01*
X1377946Y491456D01*
Y478337D01*
X1371387Y471777D01*
X1364827D01*
X1358268Y478337D01*
X1351708Y471777D01*
X1345149D01*
X1358268Y478337D02*
Y491456D01*
X687024Y2744101D02*
Y2783458D01*
X706702D01*
X713262Y2776898D01*
Y2763779D01*
X706702Y2757220D01*
X687024D01*
X700143D02*
X713262Y2744101D01*
X726381D02*
X739500D01*
X732941D01*
Y2783458D01*
X726381Y2776898D01*
X778858Y2744101D02*
Y2783458D01*
X759179Y2763779D01*
X785417D01*
X316945Y2905518D02*
Y2944876D01*
X336624D01*
X343183Y2938316D01*
Y2925197D01*
X336624Y2918637D01*
X316945D01*
X330064D02*
X343183Y2905518D01*
X356302D02*
X369421D01*
X362862D01*
Y2944876D01*
X356302Y2938316D01*
X389100D02*
X395660Y2944876D01*
X408779D01*
X415338Y2938316D01*
Y2931756D01*
X408779Y2925197D01*
X402219D01*
X408779D01*
X415338Y2918637D01*
Y2912078D01*
X408779Y2905518D01*
X395660D01*
X389100Y2912078D01*
X1041354Y3055124D02*
Y3094482D01*
X1061033D01*
X1067593Y3087922D01*
Y3074803D01*
X1061033Y3068244D01*
X1041354D01*
X1054474D02*
X1067593Y3055124D01*
X1080712D02*
X1093831D01*
X1087272D01*
Y3094482D01*
X1080712Y3087922D01*
X1113510D02*
X1120069Y3094482D01*
X1133188D01*
X1139748Y3087922D01*
Y3061684D01*
X1133188Y3055124D01*
X1120069D01*
X1113510Y3061684D01*
Y3087922D01*
X475070Y2976384D02*
Y3015742D01*
X494749D01*
X501308Y3009182D01*
Y2996063D01*
X494749Y2989503D01*
X475070D01*
X488189D02*
X501308Y2976384D01*
X514427Y3009182D02*
X520987Y3015742D01*
X534106D01*
X540665Y3009182D01*
Y3002622D01*
X534106Y2996063D01*
X540665Y2989503D01*
Y2982944D01*
X534106Y2976384D01*
X520987D01*
X514427Y2982944D01*
Y2989503D01*
X520987Y2996063D01*
X514427Y3002622D01*
Y3009182D01*
X520987Y2996063D02*
X534106D01*
X1053816Y3196857D02*
Y3236214D01*
X1073495D01*
X1080055Y3229655D01*
Y3216535D01*
X1073495Y3209976D01*
X1053816D01*
X1066936D02*
X1080055Y3196857D01*
X1119412Y3236214D02*
X1106293Y3229655D01*
X1093174Y3216535D01*
Y3203416D01*
X1099733Y3196857D01*
X1112852D01*
X1119412Y3203416D01*
Y3209976D01*
X1112852Y3216535D01*
X1093174D01*
X610243Y3098432D02*
Y3137789D01*
X629921D01*
X636481Y3131229D01*
Y3118110D01*
X629921Y3111551D01*
X610243D01*
X623362D02*
X636481Y3098432D01*
X649600Y3131229D02*
X656160Y3137789D01*
X669279D01*
X675838Y3131229D01*
Y3124670D01*
X669279Y3118110D01*
X662719D01*
X669279D01*
X675838Y3111551D01*
Y3104991D01*
X669279Y3098432D01*
X656160D01*
X649600Y3104991D01*
X649600Y2946203D02*
X610242D01*
Y2965881D01*
X616802Y2972441D01*
X629921D01*
X636481Y2965881D01*
Y2946203D01*
Y2959322D02*
X649600Y2972441D01*
Y2985560D02*
Y2998679D01*
Y2992120D01*
X610242D01*
X616802Y2985560D01*
X942259Y2628613D02*
Y2654851D01*
X935700Y2661411D01*
X922581D01*
X916021Y2654851D01*
Y2628613D01*
X922581Y2622054D01*
X935700D01*
X929140Y2635173D02*
X942259Y2622054D01*
X935700D02*
X942259Y2628613D01*
X955379Y2654851D02*
X961938Y2661411D01*
X975057D01*
X981617Y2654851D01*
Y2648292D01*
X975057Y2641732D01*
X968498D01*
X975057D01*
X981617Y2635173D01*
Y2628613D01*
X975057Y2622054D01*
X961938D01*
X955379Y2628613D01*
X606299Y2624676D02*
Y2650914D01*
X599740Y2657474D01*
X586621D01*
X580061Y2650914D01*
Y2624676D01*
X586621Y2618117D01*
X599740D01*
X593180Y2631236D02*
X606299Y2618117D01*
X599740D02*
X606299Y2624676D01*
X619418Y2618117D02*
X632538D01*
X625978D01*
Y2657474D01*
X619418Y2650914D01*
X973774Y2854324D02*
Y2814967D01*
X1000013D01*
X1039370Y2854324D02*
X1013132D01*
Y2814967D01*
X1039370D01*
X1013132Y2834646D02*
X1026251D01*
X1052489Y2854324D02*
Y2814967D01*
X1072168D01*
X1078727Y2821527D01*
Y2847765D01*
X1072168Y2854324D01*
X1052489D01*
X1091847Y2814967D02*
X1104966D01*
X1098406D01*
Y2854324D01*
X1091847Y2847765D01*
X1757220Y1937002D02*
X1744101D01*
X1750660D01*
Y1904204D01*
X1744101Y1897644D01*
X1737541D01*
X1730982Y1904204D01*
X1770339Y1930442D02*
X1776899Y1937002D01*
X1790018D01*
X1796577Y1930442D01*
Y1923882D01*
X1790018Y1917323D01*
X1783458D01*
X1790018D01*
X1796577Y1910763D01*
Y1904204D01*
X1790018Y1897644D01*
X1776899D01*
X1770339Y1904204D01*
X-2623Y590545D02*
X-15742D01*
X-9182D01*
Y557747D01*
X-15742Y551187D01*
X-22301D01*
X-28861Y557747D01*
X36735Y551187D02*
X10497D01*
X36735Y577426D01*
Y583985D01*
X30175Y590545D01*
X17056D01*
X10497Y583985D01*
X1755906Y1074797D02*
X1742786D01*
X1749346D01*
Y1041999D01*
X1742786Y1035439D01*
X1736227D01*
X1729667Y1041999D01*
X1769025Y1035439D02*
X1782144D01*
X1775584D01*
Y1074797D01*
X1769025Y1068237D01*
X1259849Y750016D02*
X1299206D01*
Y769695D01*
X1292647Y776254D01*
X1266408D01*
X1259849Y769695D01*
Y750016D01*
X1299206Y789373D02*
Y802492D01*
Y795933D01*
X1259849D01*
X1266408Y789373D01*
Y822171D02*
X1259849Y828731D01*
Y841850D01*
X1266408Y848409D01*
X1272968D01*
X1279527Y841850D01*
Y835290D01*
Y841850D01*
X1286087Y848409D01*
X1292647D01*
X1299206Y841850D01*
Y828731D01*
X1292647Y822171D01*
X1014446Y2657474D02*
Y2618117D01*
X1034125D01*
X1040685Y2624676D01*
Y2650914D01*
X1034125Y2657474D01*
X1014446D01*
X1053804Y2650914D02*
X1060363Y2657474D01*
X1073482D01*
X1080042Y2650914D01*
Y2644355D01*
X1073482Y2637795D01*
X1080042Y2631236D01*
Y2624676D01*
X1073482Y2618117D01*
X1060363D01*
X1053804Y2624676D01*
Y2631236D01*
X1060363Y2637795D01*
X1053804Y2644355D01*
Y2650914D01*
X1060363Y2637795D02*
X1073482D01*
X751975Y2526257D02*
X791332D01*
Y2545936D01*
X784773Y2552496D01*
X758534D01*
X751975Y2545936D01*
Y2526257D01*
Y2591853D02*
X758534Y2578734D01*
X771653Y2565615D01*
X784773D01*
X791332Y2572174D01*
Y2585294D01*
X784773Y2591853D01*
X778213D01*
X771653Y2585294D01*
Y2565615D01*
X10509Y3094482D02*
Y3055124D01*
X30188D01*
X36748Y3061684D01*
Y3087922D01*
X30188Y3094482D01*
X10509D01*
X76105D02*
X49867D01*
Y3074803D01*
X62986Y3081363D01*
X69545D01*
X76105Y3074803D01*
Y3061684D01*
X69545Y3055124D01*
X56426D01*
X49867Y3061684D01*
X1704731Y598419D02*
Y559062D01*
X1724409D01*
X1730969Y565621D01*
Y591859D01*
X1724409Y598419D01*
X1704731D01*
X1763767Y559062D02*
Y598419D01*
X1744088Y578740D01*
X1770326D01*
X1338589Y175870D02*
X1377946D01*
Y195549D01*
X1371387Y202108D01*
X1345149D01*
X1338589Y195549D01*
Y175870D01*
X1345149Y215227D02*
X1338589Y221787D01*
Y234906D01*
X1345149Y241466D01*
X1351708D01*
X1358268Y234906D01*
Y228346D01*
Y234906D01*
X1364827Y241466D01*
X1371387D01*
X1377946Y234906D01*
Y221787D01*
X1371387Y215227D01*
X355645Y1863513D02*
X349086Y1870072D01*
X335966D01*
X329407Y1863513D01*
Y1837275D01*
X335966Y1830715D01*
X349086D01*
X355645Y1837275D01*
X368764Y1863513D02*
X375324Y1870072D01*
X388443D01*
X395002Y1863513D01*
Y1856953D01*
X388443Y1850394D01*
X381883D01*
X388443D01*
X395002Y1843834D01*
Y1837275D01*
X388443Y1830715D01*
X375324D01*
X368764Y1837275D01*
X408122Y1870072D02*
X434360D01*
Y1863513D01*
X408122Y1837275D01*
Y1830715D01*
X1217856Y713907D02*
X1211297Y720466D01*
X1198178D01*
X1191618Y713907D01*
Y687668D01*
X1198178Y681109D01*
X1211297D01*
X1217856Y687668D01*
X1230975Y713907D02*
X1237535Y720466D01*
X1250654D01*
X1257214Y713907D01*
Y707347D01*
X1250654Y700787D01*
X1244094D01*
X1250654D01*
X1257214Y694228D01*
Y687668D01*
X1250654Y681109D01*
X1237535D01*
X1230975Y687668D01*
X1296571Y720466D02*
X1283452Y713907D01*
X1270333Y700787D01*
Y687668D01*
X1276892Y681109D01*
X1290012D01*
X1296571Y687668D01*
Y694228D01*
X1290012Y700787D01*
X1270333D01*
X1667983Y2871399D02*
X1661424Y2864840D01*
Y2851721D01*
X1667983Y2845161D01*
X1694221D01*
X1700781Y2851721D01*
Y2864840D01*
X1694221Y2871399D01*
X1667983Y2884519D02*
X1661424Y2891078D01*
Y2904197D01*
X1667983Y2910757D01*
X1674543D01*
X1681102Y2904197D01*
Y2897638D01*
Y2904197D01*
X1687662Y2910757D01*
X1694221D01*
X1700781Y2904197D01*
Y2891078D01*
X1694221Y2884519D01*
X1661424Y2950114D02*
Y2923876D01*
X1681102D01*
X1674543Y2936995D01*
Y2943555D01*
X1681102Y2950114D01*
X1694221D01*
X1700781Y2943555D01*
Y2930436D01*
X1694221Y2923876D01*
X471133Y1395022D02*
X464573Y1388462D01*
Y1375343D01*
X471133Y1368783D01*
X497371D01*
X503930Y1375343D01*
Y1388462D01*
X497371Y1395022D01*
X471133Y1408141D02*
X464573Y1414700D01*
Y1427819D01*
X471133Y1434379D01*
X477692D01*
X484252Y1427819D01*
Y1421260D01*
Y1427819D01*
X490811Y1434379D01*
X497371D01*
X503930Y1427819D01*
Y1414700D01*
X497371Y1408141D01*
X503930Y1467177D02*
X464573D01*
X484252Y1447498D01*
Y1473736D01*
X1036754Y2505245D02*
X1030194Y2511805D01*
X1017075D01*
X1010516Y2505245D01*
Y2479007D01*
X1017075Y2472447D01*
X1030194D01*
X1036754Y2479007D01*
X1076111Y2472447D02*
X1049873D01*
X1076111Y2498686D01*
Y2505245D01*
X1069552Y2511805D01*
X1056433D01*
X1049873Y2505245D01*
X1089230Y2479007D02*
X1095790Y2472447D01*
X1108909D01*
X1115469Y2479007D01*
Y2505245D01*
X1108909Y2511805D01*
X1095790D01*
X1089230Y2505245D01*
Y2498686D01*
X1095790Y2492126D01*
X1115469D01*
X1101054Y1032811D02*
X1094494Y1026251D01*
Y1013132D01*
X1101054Y1006572D01*
X1127292D01*
X1133852Y1013132D01*
Y1026251D01*
X1127292Y1032811D01*
X1133852Y1072168D02*
Y1045930D01*
X1107613Y1072168D01*
X1101054D01*
X1094494Y1065608D01*
Y1052489D01*
X1101054Y1045930D01*
Y1085287D02*
X1094494Y1091847D01*
Y1104966D01*
X1101054Y1111525D01*
X1107613D01*
X1114173Y1104966D01*
X1120733Y1111525D01*
X1127292D01*
X1133852Y1104966D01*
Y1091847D01*
X1127292Y1085287D01*
X1120733D01*
X1114173Y1091847D01*
X1107613Y1085287D01*
X1101054D01*
X1114173Y1091847D02*
Y1104966D01*
X709982Y2713906D02*
X703423Y2720466D01*
X690304D01*
X683744Y2713906D01*
Y2687668D01*
X690304Y2681109D01*
X703423D01*
X709982Y2687668D01*
X749340Y2681109D02*
X723101D01*
X749340Y2707347D01*
Y2713906D01*
X742780Y2720466D01*
X729661D01*
X723101Y2713906D01*
X788697Y2720466D02*
X775578Y2713906D01*
X762459Y2700787D01*
Y2687668D01*
X769018Y2681109D01*
X782138D01*
X788697Y2687668D01*
Y2694228D01*
X782138Y2700787D01*
X762459D01*
X461951Y2938316D02*
X455391Y2944876D01*
X442272D01*
X435712Y2938316D01*
Y2912078D01*
X442272Y2905518D01*
X455391D01*
X461951Y2912078D01*
X501308Y2905518D02*
X475070D01*
X501308Y2931756D01*
Y2938316D01*
X494749Y2944876D01*
X481630D01*
X475070Y2938316D01*
X514427D02*
X520987Y2944876D01*
X534106D01*
X540665Y2938316D01*
Y2931756D01*
X534106Y2925197D01*
X527546D01*
X534106D01*
X540665Y2918637D01*
Y2912078D01*
X534106Y2905518D01*
X520987D01*
X514427Y2912078D01*
X1711290Y202108D02*
X1704731Y195549D01*
Y182429D01*
X1711290Y175870D01*
X1737528D01*
X1744088Y182429D01*
Y195549D01*
X1737528Y202108D01*
X1744088Y241465D02*
Y215227D01*
X1717850Y241465D01*
X1711290D01*
X1704731Y234906D01*
Y221787D01*
X1711290Y215227D01*
Y254585D02*
X1704731Y261144D01*
Y274263D01*
X1711290Y280823D01*
X1737528D01*
X1744088Y274263D01*
Y261144D01*
X1737528Y254585D01*
X1711290D01*
X463259Y185703D02*
X456699Y179143D01*
Y166024D01*
X463259Y159465D01*
X489497D01*
X496057Y166024D01*
Y179143D01*
X489497Y185703D01*
X496057Y198822D02*
Y211941D01*
Y205382D01*
X456699D01*
X463259Y198822D01*
X456699Y257858D02*
X463259Y244739D01*
X476378Y231620D01*
X489497D01*
X496057Y238180D01*
Y251299D01*
X489497Y257858D01*
X482937D01*
X476378Y251299D01*
Y231620D01*
X1201451Y3087922D02*
X1194891Y3094482D01*
X1181772D01*
X1175213Y3087922D01*
Y3061684D01*
X1181772Y3055124D01*
X1194891D01*
X1201451Y3061684D01*
X1214570Y3055124D02*
X1227689D01*
X1221130D01*
Y3094482D01*
X1214570Y3087922D01*
X1273606Y3094482D02*
X1247368D01*
Y3074803D01*
X1260487Y3081363D01*
X1267047D01*
X1273606Y3074803D01*
Y3061684D01*
X1267047Y3055124D01*
X1253928D01*
X1247368Y3061684D01*
X463259Y480979D02*
X456699Y474419D01*
Y461300D01*
X463259Y454740D01*
X489497D01*
X496057Y461300D01*
Y474419D01*
X489497Y480979D01*
X496057Y494098D02*
Y507217D01*
Y500657D01*
X456699D01*
X463259Y494098D01*
X496057Y546574D02*
X456699D01*
X476378Y526896D01*
Y553134D01*
X-9182Y1595152D02*
X-15742Y1588592D01*
Y1575473D01*
X-9182Y1568914D01*
X17056D01*
X23616Y1575473D01*
Y1588592D01*
X17056Y1595152D01*
X23616Y1608271D02*
Y1621390D01*
Y1614831D01*
X-15742D01*
X-9182Y1608271D01*
Y1641069D02*
X-15742Y1647628D01*
Y1660747D01*
X-9182Y1667307D01*
X-2623D01*
X3937Y1660747D01*
Y1654188D01*
Y1660747D01*
X10496Y1667307D01*
X17056D01*
X23616Y1660747D01*
Y1647628D01*
X17056Y1641069D01*
X752632Y3355639D02*
X746073Y3362198D01*
X732953D01*
X726394Y3355639D01*
Y3329401D01*
X732953Y3322841D01*
X746073D01*
X752632Y3329401D01*
X765751Y3322841D02*
X778870D01*
X772311D01*
Y3362198D01*
X765751Y3355639D01*
X824787Y3322841D02*
X798549D01*
X824787Y3349079D01*
Y3355639D01*
X818228Y3362198D01*
X805109D01*
X798549Y3355639D01*
X-9182Y1436357D02*
X-15742Y1429797D01*
Y1416678D01*
X-9182Y1410119D01*
X17056D01*
X23616Y1416678D01*
Y1429797D01*
X17056Y1436357D01*
X23616Y1449476D02*
Y1462595D01*
Y1456036D01*
X-15742D01*
X-9182Y1449476D01*
X23616Y1482274D02*
Y1495393D01*
Y1488834D01*
X-15742D01*
X-9182Y1482274D01*
X552495Y1879261D02*
X545936Y1885820D01*
X532817D01*
X526257Y1879261D01*
Y1853023D01*
X532817Y1846463D01*
X545936D01*
X552495Y1853023D01*
X565615D02*
X572174Y1846463D01*
X585293D01*
X591853Y1853023D01*
Y1879261D01*
X585293Y1885820D01*
X572174D01*
X565615Y1879261D01*
Y1872701D01*
X572174Y1866142D01*
X591853D01*
X916015Y650921D02*
X909455Y644361D01*
Y631242D01*
X916015Y624683D01*
X942253D01*
X948812Y631242D01*
Y644361D01*
X942253Y650921D01*
X916015Y664040D02*
X909455Y670600D01*
Y683719D01*
X916015Y690278D01*
X922574D01*
X929134Y683719D01*
X935693Y690278D01*
X942253D01*
X948812Y683719D01*
Y670600D01*
X942253Y664040D01*
X935693D01*
X929134Y670600D01*
X922574Y664040D01*
X916015D01*
X929134Y670600D02*
Y683719D01*
X355645Y1973749D02*
X349086Y1980309D01*
X335966D01*
X329407Y1973749D01*
Y1947511D01*
X335966Y1940951D01*
X349086D01*
X355645Y1947511D01*
X368764Y1980309D02*
X395002D01*
Y1973749D01*
X368764Y1947511D01*
Y1940951D01*
X482944Y1967189D02*
X476384Y1960630D01*
Y1947511D01*
X482944Y1940951D01*
X509182D01*
X515742Y1947511D01*
Y1960630D01*
X509182Y1967189D01*
X476384Y2006547D02*
Y1980309D01*
X496063D01*
X489503Y1993428D01*
Y1999987D01*
X496063Y2006547D01*
X509182D01*
X515742Y1999987D01*
Y1986868D01*
X509182Y1980309D01*
X442259Y1524930D02*
X435700Y1531490D01*
X422581D01*
X416021Y1524930D01*
Y1498692D01*
X422581Y1492132D01*
X435700D01*
X442259Y1498692D01*
X455378Y1524930D02*
X461938Y1531490D01*
X475057D01*
X481617Y1524930D01*
Y1518370D01*
X475057Y1511811D01*
X468498D01*
X475057D01*
X481617Y1505251D01*
Y1498692D01*
X475057Y1492132D01*
X461938D01*
X455378Y1498692D01*
X955385Y1032811D02*
X948825Y1026251D01*
Y1013132D01*
X955385Y1006572D01*
X981623D01*
X988183Y1013132D01*
Y1026251D01*
X981623Y1032811D01*
X988183Y1072168D02*
Y1045930D01*
X961944Y1072168D01*
X955385D01*
X948825Y1065609D01*
Y1052489D01*
X955385Y1045930D01*
D61*
X1061024Y2530512D02*
Y2571850D01*
X706693Y2530512D02*
Y2571850D01*
X1371063Y525098D02*
Y632382D01*
D96*
X1101240Y2209398D02*
G03*
X1101240Y2209398I-17677J0D01*
G01*
D97*
X875098Y2173622D02*
Y2432677D01*
Y2173622D02*
X1117028D01*
Y2432677D01*
X875098D02*
X1117028D01*
X1309764Y646772D02*
X1889764D01*
X1309764D02*
Y1101772D01*
X1889764D01*
D98*
X1153543Y1746050D02*
X1179782D01*
X1166662D01*
Y1706693D01*
X1106299Y1285420D02*
X1132537D01*
X1119418D01*
Y1246063D01*
X1145657D02*
X1171895Y1272301D01*
X1211252Y1278861D02*
X1204693Y1285420D01*
X1191574D01*
X1185014Y1278861D01*
Y1252623D01*
X1191574Y1246063D01*
X1204693D01*
X1211252Y1252623D01*
X1366142Y1246063D02*
Y1285420D01*
X1385821D01*
X1392380Y1278861D01*
Y1265742D01*
X1385821Y1259182D01*
X1366142D01*
X1379261D02*
X1392380Y1246063D01*
X1405499D02*
X1431737Y1272301D01*
X1471095Y1278861D02*
X1464535Y1285420D01*
X1451416D01*
X1444857Y1278861D01*
Y1252623D01*
X1451416Y1246063D01*
X1464535D01*
X1471095Y1252623D01*
X1405512Y1710630D02*
Y1749987D01*
X1425191D01*
X1431750Y1743428D01*
Y1730309D01*
X1425191Y1723749D01*
X1405512D01*
X1418631D02*
X1431750Y1710630D01*
X1679782Y1739491D02*
X1673222Y1746050D01*
X1660103D01*
X1653543Y1739491D01*
Y1732931D01*
X1660103Y1726372D01*
X1673222D01*
X1679782Y1719812D01*
Y1713253D01*
X1673222Y1706693D01*
X1660103D01*
X1653543Y1713253D01*
X1679782Y1286735D02*
X1673222Y1293294D01*
X1660103D01*
X1653543Y1286735D01*
Y1280175D01*
X1660103Y1273616D01*
X1673222D01*
X1679782Y1267056D01*
Y1260497D01*
X1673222Y1253937D01*
X1660103D01*
X1653543Y1260497D01*
X618110Y732296D02*
X591872D01*
X604991D01*
Y771654D01*
X665354Y1192926D02*
X639116D01*
X652235D01*
Y1232284D01*
X625997D02*
X599759Y1206045D01*
X560401Y1199486D02*
X566961Y1192926D01*
X580080D01*
X586639Y1199486D01*
Y1225724D01*
X580080Y1232284D01*
X566961D01*
X560401Y1225724D01*
X405512Y1232284D02*
Y1192926D01*
X385833D01*
X379274Y1199486D01*
Y1212605D01*
X385833Y1219164D01*
X405512D01*
X392393D02*
X379274Y1232284D01*
X366154D02*
X339916Y1206045D01*
X300559Y1199486D02*
X307118Y1192926D01*
X320237D01*
X326797Y1199486D01*
Y1225724D01*
X320237Y1232284D01*
X307118D01*
X300559Y1225724D01*
X366142Y767717D02*
Y728359D01*
X346463D01*
X339904Y734919D01*
Y748038D01*
X346463Y754597D01*
X366142D01*
X353023D02*
X339904Y767717D01*
X91872Y738856D02*
X98431Y732296D01*
X111551D01*
X118110Y738856D01*
Y745415D01*
X111551Y751975D01*
X98431D01*
X91872Y758534D01*
Y765094D01*
X98431Y771654D01*
X111551D01*
X118110Y765094D01*
X91872Y1191612D02*
X98431Y1185052D01*
X111551D01*
X118110Y1191612D01*
Y1198171D01*
X111551Y1204731D01*
X98431D01*
X91872Y1211290D01*
Y1217850D01*
X98431Y1224409D01*
X111551D01*
X118110Y1217850D01*
%TF.MD5,c5fab08dfabeb65b2674c5e43667d6be*%
M02*
