%TF.GenerationSoftware,Altium Limited,Altium Designer,23.1.1 (15)*%
G04 Layer_Color=128*
%FSLAX26Y26*%
%MOIN*%
%TF.SameCoordinates,CF7A6AEE-9E07-4C1C-9DF4-B320C76D0393*%
%TF.FilePolarity,Positive*%
%TF.FileFunction,Paste,Bot*%
%TF.Part,Single*%
G01*
G75*
%TA.AperFunction,SMDPad,CuDef*%
G04:AMPARAMS|DCode=10|XSize=59.055mil|YSize=45.276mil|CornerRadius=5.659mil|HoleSize=0mil|Usage=FLASHONLY|Rotation=0.000|XOffset=0mil|YOffset=0mil|HoleType=Round|Shape=RoundedRectangle|*
%AMROUNDEDRECTD10*
21,1,0.059055,0.033957,0,0,0.0*
21,1,0.047736,0.045276,0,0,0.0*
1,1,0.011319,0.023868,-0.016978*
1,1,0.011319,-0.023868,-0.016978*
1,1,0.011319,-0.023868,0.016978*
1,1,0.011319,0.023868,0.016978*
%
%ADD10ROUNDEDRECTD10*%
%ADD11R,0.066000X0.060000*%
%ADD14R,0.023622X0.059843*%
G04:AMPARAMS|DCode=16|XSize=39.37mil|YSize=31.496mil|CornerRadius=3.937mil|HoleSize=0mil|Usage=FLASHONLY|Rotation=90.000|XOffset=0mil|YOffset=0mil|HoleType=Round|Shape=RoundedRectangle|*
%AMROUNDEDRECTD16*
21,1,0.039370,0.023622,0,0,90.0*
21,1,0.031496,0.031496,0,0,90.0*
1,1,0.007874,0.011811,0.015748*
1,1,0.007874,0.011811,-0.015748*
1,1,0.007874,-0.011811,-0.015748*
1,1,0.007874,-0.011811,0.015748*
%
%ADD16ROUNDEDRECTD16*%
G04:AMPARAMS|DCode=17|XSize=39.37mil|YSize=31.496mil|CornerRadius=3.937mil|HoleSize=0mil|Usage=FLASHONLY|Rotation=180.000|XOffset=0mil|YOffset=0mil|HoleType=Round|Shape=RoundedRectangle|*
%AMROUNDEDRECTD17*
21,1,0.039370,0.023622,0,0,180.0*
21,1,0.031496,0.031496,0,0,180.0*
1,1,0.007874,-0.015748,0.011811*
1,1,0.007874,0.015748,0.011811*
1,1,0.007874,0.015748,-0.011811*
1,1,0.007874,-0.015748,-0.011811*
%
%ADD17ROUNDEDRECTD17*%
G04:AMPARAMS|DCode=18|XSize=59.055mil|YSize=45.276mil|CornerRadius=5.659mil|HoleSize=0mil|Usage=FLASHONLY|Rotation=90.000|XOffset=0mil|YOffset=0mil|HoleType=Round|Shape=RoundedRectangle|*
%AMROUNDEDRECTD18*
21,1,0.059055,0.033957,0,0,90.0*
21,1,0.047736,0.045276,0,0,90.0*
1,1,0.011319,0.016978,0.023868*
1,1,0.011319,0.016978,-0.023868*
1,1,0.011319,-0.016978,-0.023868*
1,1,0.011319,-0.016978,0.023868*
%
%ADD18ROUNDEDRECTD18*%
%ADD19R,0.057087X0.023622*%
%ADD21R,0.023228X0.017716*%
%ADD25R,0.116142X0.064961*%
G04:AMPARAMS|DCode=46|XSize=25.591mil|YSize=47.244mil|CornerRadius=1.919mil|HoleSize=0mil|Usage=FLASHONLY|Rotation=0.000|XOffset=0mil|YOffset=0mil|HoleType=Round|Shape=RoundedRectangle|*
%AMROUNDEDRECTD46*
21,1,0.025591,0.043406,0,0,0.0*
21,1,0.021752,0.047244,0,0,0.0*
1,1,0.003839,0.010876,-0.021703*
1,1,0.003839,-0.010876,-0.021703*
1,1,0.003839,-0.010876,0.021703*
1,1,0.003839,0.010876,0.021703*
%
%ADD46ROUNDEDRECTD46*%
%ADD47R,0.053150X0.118110*%
%ADD48R,0.022835X0.059843*%
%ADD49R,0.118110X0.053150*%
%ADD50R,0.017716X0.023228*%
%ADD51R,0.048032X0.035827*%
%ADD52R,0.064961X0.116142*%
D10*
X944882Y2006890D02*
D03*
Y2087598D02*
D03*
X1381890Y315945D02*
D03*
Y235236D02*
D03*
X1311024Y235236D02*
D03*
Y315945D02*
D03*
X736221Y904528D02*
D03*
Y985236D02*
D03*
D11*
X625984Y881890D02*
D03*
Y1021890D02*
D03*
D14*
X949016Y1560630D02*
D03*
X899016D02*
D03*
X849016D02*
D03*
X799016D02*
D03*
X949016Y1777953D02*
D03*
X899016D02*
D03*
X849016D02*
D03*
X799016D02*
D03*
D16*
X1680110Y429134D02*
D03*
X1618110D02*
D03*
X1130417Y3153543D02*
D03*
X1192417D02*
D03*
X1188480Y3263780D02*
D03*
X1126480D02*
D03*
X786905Y3625984D02*
D03*
X724905D02*
D03*
X1082677Y3263780D02*
D03*
X1020677D02*
D03*
X1020181Y3153543D02*
D03*
X1082181D02*
D03*
X908953Y330709D02*
D03*
X846953D02*
D03*
X209157Y149606D02*
D03*
X271158D02*
D03*
X908457Y271654D02*
D03*
X846457D02*
D03*
X755409Y1562992D02*
D03*
X693409D02*
D03*
X882386Y1846457D02*
D03*
X944386D02*
D03*
X862701Y3622047D02*
D03*
X924701D02*
D03*
D17*
X661417Y3563488D02*
D03*
Y3625488D02*
D03*
X637795Y3366638D02*
D03*
Y3428638D02*
D03*
X622047Y1713094D02*
D03*
Y1775094D02*
D03*
X870079Y3251472D02*
D03*
Y3189472D02*
D03*
X972441Y3618606D02*
D03*
Y3680606D02*
D03*
X1633858Y2512307D02*
D03*
Y2574307D02*
D03*
X1641732Y2924701D02*
D03*
Y2862701D02*
D03*
X960630Y1322339D02*
D03*
Y1260339D02*
D03*
X681102Y1775094D02*
D03*
Y1713094D02*
D03*
X897638Y1322339D02*
D03*
Y1260339D02*
D03*
X807087Y196354D02*
D03*
Y134354D02*
D03*
X409449Y133362D02*
D03*
Y71362D02*
D03*
X944882Y196354D02*
D03*
Y134354D02*
D03*
X64961Y411417D02*
D03*
Y473417D02*
D03*
X-3937Y409945D02*
D03*
Y471945D02*
D03*
X925197Y3189472D02*
D03*
Y3251472D02*
D03*
X960630Y1398134D02*
D03*
Y1460134D02*
D03*
X897638D02*
D03*
Y1398134D02*
D03*
X1444882Y322339D02*
D03*
Y260339D02*
D03*
D18*
X1705709Y511811D02*
D03*
X1625000D02*
D03*
X1729331Y346457D02*
D03*
X1648622D02*
D03*
X1475394Y169291D02*
D03*
X1556102D02*
D03*
X184055Y85142D02*
D03*
X264764D02*
D03*
D19*
X1337598Y1450787D02*
D03*
Y1375984D02*
D03*
X1245079Y1413386D02*
D03*
X1337598Y1647638D02*
D03*
Y1572835D02*
D03*
X1245079Y1610236D02*
D03*
D21*
X825000Y3240157D02*
D03*
X741929D02*
D03*
X1064764Y3669291D02*
D03*
X1147835D02*
D03*
X1072638Y1381890D02*
D03*
X1155709D02*
D03*
X1072638Y1519685D02*
D03*
X1155709D02*
D03*
D25*
X1312008Y2559055D02*
D03*
X1491142D02*
D03*
X476378Y976378D02*
D03*
X297244D02*
D03*
D46*
X1568898Y432087D02*
D03*
X1494095D02*
D03*
Y315945D02*
D03*
X1531496D02*
D03*
X1568898D02*
D03*
D47*
X1396653Y543307D02*
D03*
X1493110D02*
D03*
D48*
X421654Y253543D02*
D03*
X371654D02*
D03*
X321654D02*
D03*
X271654D02*
D03*
X221654D02*
D03*
X171654D02*
D03*
X121653D02*
D03*
X421654Y470866D02*
D03*
X371654D02*
D03*
X321654D02*
D03*
X271654D02*
D03*
X221654D02*
D03*
X171654D02*
D03*
X121653D02*
D03*
X1067323Y3336220D02*
D03*
X1017323D02*
D03*
X967323D02*
D03*
X917323D02*
D03*
X867323D02*
D03*
X817323D02*
D03*
X767323D02*
D03*
X1067323Y3553543D02*
D03*
X1017323D02*
D03*
X967323D02*
D03*
X917323D02*
D03*
X867323D02*
D03*
X817323D02*
D03*
X767323D02*
D03*
D49*
X1657480Y168307D02*
D03*
Y264764D02*
D03*
D50*
X696850Y3336417D02*
D03*
Y3419488D02*
D03*
D51*
X1763780Y543307D02*
D03*
Y417323D02*
D03*
D52*
X1413386Y2975394D02*
D03*
Y2796260D02*
D03*
%TF.MD5,f88833787b0c6154f00fd29e96cf1b56*%
M02*
