%TF.GenerationSoftware,Altium Limited,Altium Designer,23.4.1 (23)*%
G04 Layer_Color=0*
%FSLAX26Y26*%
%MOIN*%
%TF.SameCoordinates,0B69EAEB-4B52-49E6-8846-B3B3CADC8916*%
%TF.FilePolarity,Positive*%
%TF.FileFunction,Plated,1,4,PTH,Drill*%
%TF.Part,Single*%
G01*
G75*
%TA.AperFunction,ComponentDrill*%
%ADD111C,0.032000*%
%ADD112O,0.062992X0.019685*%
%ADD113C,0.059055*%
%ADD114C,0.043307*%
%ADD115O,0.051181X0.074803*%
%ADD116C,0.043307*%
%ADD117C,0.051181*%
%ADD118C,0.047244*%
%ADD119C,0.035000*%
%ADD120O,0.039370X0.137795*%
%ADD121O,0.118110X0.039370*%
%ADD122O,0.039370X0.118110*%
%TA.AperFunction,ViaDrill,NotFilled*%
%ADD123C,0.011811*%
D111*
X693701Y2538583D02*
D03*
X843701D02*
D03*
X818701Y2138583D02*
D03*
X718701D02*
D03*
X86614Y2801575D02*
D03*
Y2901575D02*
D03*
Y3001575D02*
D03*
D112*
X1637795Y1330709D02*
D03*
Y1665354D02*
D03*
X133858Y1147638D02*
D03*
Y812992D02*
D03*
D113*
X1167323Y1817520D02*
D03*
X1667323D02*
D03*
X1417323D02*
D03*
Y1178543D02*
D03*
X1667323D02*
D03*
X1167323D02*
D03*
X604331Y660827D02*
D03*
X104331D02*
D03*
X354331D02*
D03*
Y1299803D02*
D03*
X104331D02*
D03*
X604331D02*
D03*
D114*
X366142Y2559055D02*
D03*
X169291D02*
D03*
D115*
X106299Y2322846D02*
D03*
X429134D02*
D03*
D116*
X366155Y2086614D02*
D03*
X267716D02*
D03*
X169304D02*
D03*
Y3248043D02*
D03*
X267729D02*
D03*
X366155D02*
D03*
X1405525D02*
D03*
X1503950D02*
D03*
X1602375D02*
D03*
Y2027571D02*
D03*
X1503950D02*
D03*
X1405525D02*
D03*
D117*
X472454Y3543319D02*
D03*
X63005D02*
D03*
X1708674D02*
D03*
X1299225D02*
D03*
Y2322846D02*
D03*
X1708674D02*
D03*
D118*
X631890Y437008D02*
D03*
Y240157D02*
D03*
X1124016D02*
D03*
Y437008D02*
D03*
D119*
X935827Y2755905D02*
D03*
X835827D02*
D03*
D120*
X1389764Y826772D02*
D03*
D121*
X1507874Y1011811D02*
D03*
D122*
X1625984Y826772D02*
D03*
D123*
X190945Y1687008D02*
D03*
X671260Y2283464D02*
D03*
Y2598425D02*
D03*
X275591Y196851D02*
D03*
Y748032D02*
D03*
X551181D02*
D03*
X826772Y1299213D02*
D03*
X0Y2952757D02*
D03*
X275591Y2401575D02*
D03*
Y3503938D02*
D03*
X551181D02*
D03*
X826772Y2952757D02*
D03*
X964567Y472441D02*
D03*
X1102363Y1299213D02*
D03*
X964567Y2125985D02*
D03*
X1240158Y1574804D02*
D03*
X1377953Y3503938D02*
D03*
X1614173Y3543307D02*
D03*
X1692913Y3385826D02*
D03*
Y3070866D02*
D03*
X1614173Y2283464D02*
D03*
X1692913Y2125984D02*
D03*
Y1496063D02*
D03*
X1614173Y1023622D02*
D03*
X1692913Y866141D02*
D03*
Y551181D02*
D03*
X1535433Y3385826D02*
D03*
Y2440945D02*
D03*
X1456693Y2283464D02*
D03*
X1535433Y2125984D02*
D03*
Y1811023D02*
D03*
X1456693Y1653543D02*
D03*
X1535433Y1496063D02*
D03*
Y1181102D02*
D03*
Y866141D02*
D03*
X1456693Y708661D02*
D03*
X1299212Y3228346D02*
D03*
X1377952Y3070866D02*
D03*
Y2440945D02*
D03*
X1299212Y1968504D02*
D03*
Y1023622D02*
D03*
Y708661D02*
D03*
X1141732Y3543307D02*
D03*
X1220472Y3385826D02*
D03*
X1141732Y3228346D02*
D03*
X1220472Y3070866D02*
D03*
X1141732Y2598425D02*
D03*
X1220472Y2440945D02*
D03*
X1141732Y2283464D02*
D03*
X1220472Y2125984D02*
D03*
X1141732Y1968504D02*
D03*
X1220472Y1496063D02*
D03*
X1141732Y1023622D02*
D03*
X1220472Y866141D02*
D03*
X1141732Y78740D02*
D03*
X984252Y2598425D02*
D03*
Y2283464D02*
D03*
Y1968504D02*
D03*
X1062992Y1811023D02*
D03*
Y1181102D02*
D03*
X984252Y1023622D02*
D03*
Y708661D02*
D03*
Y393701D02*
D03*
Y78740D02*
D03*
X826771Y2913385D02*
D03*
Y2598425D02*
D03*
Y2283464D02*
D03*
Y1653543D02*
D03*
Y1338582D02*
D03*
Y393701D02*
D03*
Y78740D02*
D03*
X748031Y3070866D02*
D03*
X669291Y1968504D02*
D03*
Y78740D02*
D03*
X590551Y3070866D02*
D03*
X511811Y2598425D02*
D03*
Y2283464D02*
D03*
X590551Y1181102D02*
D03*
Y866141D02*
D03*
X511811Y708661D02*
D03*
X590551Y551181D02*
D03*
X511811Y393701D02*
D03*
Y78740D02*
D03*
X354330Y3543307D02*
D03*
X433071Y3385826D02*
D03*
Y2440945D02*
D03*
X354330Y2283464D02*
D03*
X433071Y2125984D02*
D03*
Y1496063D02*
D03*
Y1181102D02*
D03*
X354330Y1023622D02*
D03*
X433071Y866141D02*
D03*
Y551181D02*
D03*
Y236220D02*
D03*
X354330Y78740D02*
D03*
X196850Y3543307D02*
D03*
X275590Y3385826D02*
D03*
Y2440945D02*
D03*
X196850Y1968504D02*
D03*
Y1338582D02*
D03*
X275590Y1181102D02*
D03*
X196850Y1023622D02*
D03*
X275590Y866141D02*
D03*
X196850Y708661D02*
D03*
X275590Y551181D02*
D03*
X196850Y393701D02*
D03*
X275590Y236220D02*
D03*
X196850Y78740D02*
D03*
X118110Y3385826D02*
D03*
X39370Y3228346D02*
D03*
X118110Y3070866D02*
D03*
Y2440945D02*
D03*
X39370Y2283464D02*
D03*
Y1968504D02*
D03*
X118110Y1811023D02*
D03*
Y1496063D02*
D03*
X39370Y1023622D02*
D03*
X118110Y866141D02*
D03*
Y551181D02*
D03*
X1377953Y2952757D02*
D03*
Y2401575D02*
D03*
X1515748Y1574804D02*
D03*
X1102363Y3503938D02*
D03*
X1240158Y3228347D02*
D03*
Y2125985D02*
D03*
X826772Y196851D02*
D03*
X551181D02*
D03*
X413386Y2125985D02*
D03*
Y1023622D02*
D03*
X137796Y1574804D02*
D03*
Y1023622D02*
D03*
X0Y196851D02*
D03*
X1683071Y2716535D02*
D03*
X974409Y1200787D02*
D03*
X867126D02*
D03*
X155509Y2678147D02*
D03*
X1377953Y570866D02*
D03*
X1466535Y108268D02*
D03*
X1500984Y127953D02*
D03*
X1535433Y271654D02*
D03*
X1309055Y586614D02*
D03*
X1181102Y196850D02*
D03*
X1774606Y3031496D02*
D03*
X1082677Y1653543D02*
D03*
X1496063Y442913D02*
D03*
X910165Y1694882D02*
D03*
X840551Y1792323D02*
D03*
X863189Y1560039D02*
D03*
X846457Y2401575D02*
D03*
X984252Y2322835D02*
D03*
X1702756Y118110D02*
D03*
X423228Y2955248D02*
D03*
X373658D02*
D03*
X314961Y2931975D02*
D03*
X1563976Y2875000D02*
D03*
X191929Y2917323D02*
D03*
X216535Y3051181D02*
D03*
X519685Y2958661D02*
D03*
X1718504Y2551181D02*
D03*
X975394Y1134842D02*
D03*
X1181102Y292323D02*
D03*
X393701Y2696850D02*
D03*
X1391732Y2733268D02*
D03*
X1300197Y2738189D02*
D03*
X492126Y1653543D02*
D03*
Y1437008D02*
D03*
X673228Y1746063D02*
D03*
X575787Y1899606D02*
D03*
X918307Y3092520D02*
D03*
X33465Y482284D02*
D03*
X892716Y3115157D02*
D03*
X1182087Y2995079D02*
D03*
X1302658Y2789230D02*
D03*
X300456Y1806362D02*
D03*
X269685Y1806102D02*
D03*
X769685Y1074803D02*
D03*
X835630Y925197D02*
D03*
X14764Y1814961D02*
D03*
X150591Y1755906D02*
D03*
X1256890Y1387795D02*
D03*
X1197835Y451772D02*
D03*
X1602362Y2876968D02*
D03*
X1187992Y2782480D02*
D03*
X1302165Y2937008D02*
D03*
X817913Y3117126D02*
D03*
X614173Y3472441D02*
D03*
X675197Y3564961D02*
D03*
X833661Y3373032D02*
D03*
X728346Y3372539D02*
D03*
X1570866Y38386D02*
D03*
X1660433Y118110D02*
D03*
X1186024Y90551D02*
D03*
X1003678Y925456D02*
D03*
X444882Y320866D02*
D03*
X263779Y1435039D02*
D03*
X1373032Y1350394D02*
D03*
X481299Y901575D02*
D03*
%TF.MD5,1ffbe1ea45920c6faf836b8aa3dce63d*%
M02*
