%TF.GenerationSoftware,Altium Limited,Altium Designer,23.4.1 (23)*%
G04 Layer_Color=8421504*
%FSLAX26Y26*%
%MOIN*%
%TF.SameCoordinates,0B69EAEB-4B52-49E6-8846-B3B3CADC8916*%
%TF.FilePolarity,Positive*%
%TF.FileFunction,Paste,Top*%
%TF.Part,Single*%
G01*
G75*
%TA.AperFunction,SMDPad,CuDef*%
G04:AMPARAMS|DCode=10|XSize=39.37mil|YSize=31.496mil|CornerRadius=3.937mil|HoleSize=0mil|Usage=FLASHONLY|Rotation=270.000|XOffset=0mil|YOffset=0mil|HoleType=Round|Shape=RoundedRectangle|*
%AMROUNDEDRECTD10*
21,1,0.039370,0.023622,0,0,270.0*
21,1,0.031496,0.031496,0,0,270.0*
1,1,0.007874,-0.011811,-0.015748*
1,1,0.007874,-0.011811,0.015748*
1,1,0.007874,0.011811,0.015748*
1,1,0.007874,0.011811,-0.015748*
%
%ADD10ROUNDEDRECTD10*%
%ADD11R,0.057087X0.023622*%
%ADD12R,0.023228X0.017716*%
G04:AMPARAMS|DCode=13|XSize=68.898mil|YSize=43.307mil|CornerRadius=5.413mil|HoleSize=0mil|Usage=FLASHONLY|Rotation=0.000|XOffset=0mil|YOffset=0mil|HoleType=Round|Shape=RoundedRectangle|*
%AMROUNDEDRECTD13*
21,1,0.068898,0.032480,0,0,0.0*
21,1,0.058071,0.043307,0,0,0.0*
1,1,0.010827,0.029035,-0.016240*
1,1,0.010827,-0.029035,-0.016240*
1,1,0.010827,-0.029035,0.016240*
1,1,0.010827,0.029035,0.016240*
%
%ADD13ROUNDEDRECTD13*%
G04:AMPARAMS|DCode=14|XSize=59.055mil|YSize=45.276mil|CornerRadius=5.659mil|HoleSize=0mil|Usage=FLASHONLY|Rotation=270.000|XOffset=0mil|YOffset=0mil|HoleType=Round|Shape=RoundedRectangle|*
%AMROUNDEDRECTD14*
21,1,0.059055,0.033957,0,0,270.0*
21,1,0.047736,0.045276,0,0,270.0*
1,1,0.011319,-0.016978,-0.023868*
1,1,0.011319,-0.016978,0.023868*
1,1,0.011319,0.016978,0.023868*
1,1,0.011319,0.016978,-0.023868*
%
%ADD14ROUNDEDRECTD14*%
%ADD15R,0.064961X0.135827*%
G04:AMPARAMS|DCode=16|XSize=59.055mil|YSize=45.276mil|CornerRadius=5.659mil|HoleSize=0mil|Usage=FLASHONLY|Rotation=0.000|XOffset=0mil|YOffset=0mil|HoleType=Round|Shape=RoundedRectangle|*
%AMROUNDEDRECTD16*
21,1,0.059055,0.033957,0,0,0.0*
21,1,0.047736,0.045276,0,0,0.0*
1,1,0.011319,0.023868,-0.016978*
1,1,0.011319,-0.023868,-0.016978*
1,1,0.011319,-0.023868,0.016978*
1,1,0.011319,0.023868,0.016978*
%
%ADD16ROUNDEDRECTD16*%
%ADD17R,0.066000X0.060000*%
%ADD18R,0.104331X0.068898*%
%TA.AperFunction,ConnectorPad*%
%ADD19R,0.135827X0.064961*%
%TA.AperFunction,SMDPad,CuDef*%
%ADD20R,0.135827X0.064961*%
G04:AMPARAMS|DCode=21|XSize=39.37mil|YSize=31.496mil|CornerRadius=3.937mil|HoleSize=0mil|Usage=FLASHONLY|Rotation=0.000|XOffset=0mil|YOffset=0mil|HoleType=Round|Shape=RoundedRectangle|*
%AMROUNDEDRECTD21*
21,1,0.039370,0.023622,0,0,0.0*
21,1,0.031496,0.031496,0,0,0.0*
1,1,0.007874,0.015748,-0.011811*
1,1,0.007874,-0.015748,-0.011811*
1,1,0.007874,-0.015748,0.011811*
1,1,0.007874,0.015748,0.011811*
%
%ADD21ROUNDEDRECTD21*%
D10*
X447842Y3001968D02*
D03*
X509842D02*
D03*
Y3051181D02*
D03*
X447842D02*
D03*
X445378Y3173228D02*
D03*
X507378D02*
D03*
X447842Y2755906D02*
D03*
X509842D02*
D03*
X447842Y2706693D02*
D03*
X509842D02*
D03*
Y2883858D02*
D03*
X447842D02*
D03*
D11*
X666338Y2925197D02*
D03*
Y3000000D02*
D03*
X573819Y2962598D02*
D03*
X666338Y3074803D02*
D03*
Y3149606D02*
D03*
X573819Y3112205D02*
D03*
D12*
X430906Y3110236D02*
D03*
X513976D02*
D03*
X430906Y2824803D02*
D03*
X513976D02*
D03*
D13*
X732284Y2848425D02*
D03*
Y2730315D02*
D03*
D14*
X1331693Y523622D02*
D03*
X1250984D02*
D03*
D15*
X1551181Y146654D02*
D03*
Y357284D02*
D03*
X1503937Y3114173D02*
D03*
Y2903543D02*
D03*
D16*
X1255906Y402559D02*
D03*
Y321850D02*
D03*
D17*
X1259842Y230551D02*
D03*
Y90551D02*
D03*
D18*
X1442913Y523622D02*
D03*
X1612205D02*
D03*
D19*
X170276Y157480D02*
D03*
X380906D02*
D03*
D20*
X170276Y452756D02*
D03*
X380906D02*
D03*
D21*
X1059055Y2693409D02*
D03*
Y2755409D02*
D03*
%TF.MD5,ac1fc60d231a3d169aea390354f0bc37*%
M02*
