%TF.GenerationSoftware,Altium Limited,Altium Designer,23.4.1 (23)*%
G04 Layer_Color=16711935*
%FSLAX26Y26*%
%MOIN*%
%TF.SameCoordinates,0B69EAEB-4B52-49E6-8846-B3B3CADC8916*%
%TF.FilePolarity,Negative*%
%TF.FileFunction,Soldermask,Bot*%
%TF.Part,Single*%
G01*
G75*
%TA.AperFunction,SMDPad,CuDef*%
%ADD66R,0.065087X0.031622*%
G04:AMPARAMS|DCode=67|XSize=47.37mil|YSize=39.496mil|CornerRadius=7.937mil|HoleSize=0mil|Usage=FLASHONLY|Rotation=270.000|XOffset=0mil|YOffset=0mil|HoleType=Round|Shape=RoundedRectangle|*
%AMROUNDEDRECTD67*
21,1,0.047370,0.023622,0,0,270.0*
21,1,0.031496,0.039496,0,0,270.0*
1,1,0.015874,-0.011811,-0.015748*
1,1,0.015874,-0.011811,0.015748*
1,1,0.015874,0.011811,0.015748*
1,1,0.015874,0.011811,-0.015748*
%
%ADD67ROUNDEDRECTD67*%
G04:AMPARAMS|DCode=68|XSize=76.898mil|YSize=51.307mil|CornerRadius=9.413mil|HoleSize=0mil|Usage=FLASHONLY|Rotation=270.000|XOffset=0mil|YOffset=0mil|HoleType=Round|Shape=RoundedRectangle|*
%AMROUNDEDRECTD68*
21,1,0.076898,0.032480,0,0,270.0*
21,1,0.058071,0.051307,0,0,270.0*
1,1,0.018827,-0.016240,-0.029035*
1,1,0.018827,-0.016240,0.029035*
1,1,0.018827,0.016240,0.029035*
1,1,0.018827,0.016240,-0.029035*
%
%ADD68ROUNDEDRECTD68*%
G04:AMPARAMS|DCode=69|XSize=47.37mil|YSize=39.496mil|CornerRadius=7.937mil|HoleSize=0mil|Usage=FLASHONLY|Rotation=180.000|XOffset=0mil|YOffset=0mil|HoleType=Round|Shape=RoundedRectangle|*
%AMROUNDEDRECTD69*
21,1,0.047370,0.023622,0,0,180.0*
21,1,0.031496,0.039496,0,0,180.0*
1,1,0.015874,-0.015748,0.011811*
1,1,0.015874,0.015748,0.011811*
1,1,0.015874,0.015748,-0.011811*
1,1,0.015874,-0.015748,-0.011811*
%
%ADD69ROUNDEDRECTD69*%
G04:AMPARAMS|DCode=70|XSize=67.055mil|YSize=53.276mil|CornerRadius=9.659mil|HoleSize=0mil|Usage=FLASHONLY|Rotation=270.000|XOffset=0mil|YOffset=0mil|HoleType=Round|Shape=RoundedRectangle|*
%AMROUNDEDRECTD70*
21,1,0.067055,0.033957,0,0,270.0*
21,1,0.047736,0.053276,0,0,270.0*
1,1,0.019319,-0.016978,-0.023868*
1,1,0.019319,-0.016978,0.023868*
1,1,0.019319,0.016978,0.023868*
1,1,0.019319,0.016978,-0.023868*
%
%ADD70ROUNDEDRECTD70*%
%ADD71R,0.030835X0.067843*%
%ADD72R,0.025716X0.031228*%
%ADD73R,0.067843X0.030835*%
%ADD74R,0.067843X0.031622*%
G04:AMPARAMS|DCode=75|XSize=67.055mil|YSize=53.276mil|CornerRadius=9.659mil|HoleSize=0mil|Usage=FLASHONLY|Rotation=0.000|XOffset=0mil|YOffset=0mil|HoleType=Round|Shape=RoundedRectangle|*
%AMROUNDEDRECTD75*
21,1,0.067055,0.033957,0,0,0.0*
21,1,0.047736,0.053276,0,0,0.0*
1,1,0.019319,0.023868,-0.016978*
1,1,0.019319,-0.023868,-0.016978*
1,1,0.019319,-0.023868,0.016978*
1,1,0.019319,0.023868,0.016978*
%
%ADD75ROUNDEDRECTD75*%
%ADD76R,0.043433X0.035559*%
%ADD77R,0.031622X0.031622*%
%ADD78R,0.031622X0.065087*%
G04:AMPARAMS|DCode=79|XSize=33.591mil|YSize=55.244mil|CornerRadius=5.919mil|HoleSize=0mil|Usage=FLASHONLY|Rotation=90.000|XOffset=0mil|YOffset=0mil|HoleType=Round|Shape=RoundedRectangle|*
%AMROUNDEDRECTD79*
21,1,0.033591,0.043406,0,0,90.0*
21,1,0.021752,0.055244,0,0,90.0*
1,1,0.011839,0.021703,0.010876*
1,1,0.011839,0.021703,-0.010876*
1,1,0.011839,-0.021703,-0.010876*
1,1,0.011839,-0.021703,0.010876*
%
%ADD79ROUNDEDRECTD79*%
%ADD80R,0.170992X0.057213*%
%ADD81R,0.056032X0.043827*%
G04:AMPARAMS|DCode=82|XSize=76.898mil|YSize=51.307mil|CornerRadius=9.413mil|HoleSize=0mil|Usage=FLASHONLY|Rotation=0.000|XOffset=0mil|YOffset=0mil|HoleType=Round|Shape=RoundedRectangle|*
%AMROUNDEDRECTD82*
21,1,0.076898,0.032480,0,0,0.0*
21,1,0.058071,0.051307,0,0,0.0*
1,1,0.018827,0.029035,-0.016240*
1,1,0.018827,-0.029035,-0.016240*
1,1,0.018827,-0.029035,0.016240*
1,1,0.018827,0.029035,0.016240*
%
%ADD82ROUNDEDRECTD82*%
%ADD83R,0.072961X0.124142*%
%ADD84R,0.057213X0.170992*%
%ADD85R,0.074000X0.068000*%
%ADD86R,0.031228X0.025716*%
%TA.AperFunction,ComponentPad*%
%ADD87C,0.074000*%
%ADD88R,0.102488X0.059181*%
%ADD89O,0.165480X0.086740*%
%ADD90R,0.126110X0.086740*%
%ADD91O,0.094614X0.078866*%
%ADD92O,0.098551X0.145795*%
%ADD93O,0.078866X0.094614*%
%ADD94R,0.078866X0.094614*%
%ADD95C,0.086740*%
%ADD96C,0.008000*%
%ADD97R,0.063118X0.063118*%
%ADD98C,0.063118*%
%ADD99R,0.098551X0.196976*%
%ADD100R,0.177291X0.098551*%
%ADD101R,0.098551X0.177291*%
%ADD102C,0.068000*%
%ADD103R,0.068000X0.068000*%
D66*
X1489173Y2608268D02*
D03*
Y2533465D02*
D03*
X1396653Y2570866D02*
D03*
D67*
X1500984Y2675197D02*
D03*
X1438984D02*
D03*
X485724Y2732284D02*
D03*
X423724D02*
D03*
X255417Y2733268D02*
D03*
X317417D02*
D03*
X1595465Y2831693D02*
D03*
X1533465D02*
D03*
X1704228D02*
D03*
X1642228D02*
D03*
X553646Y3383858D02*
D03*
X615646D02*
D03*
Y3219488D02*
D03*
X553646D02*
D03*
Y3164370D02*
D03*
X615646D02*
D03*
X656008D02*
D03*
X718008D02*
D03*
X553646Y3274606D02*
D03*
X615646D02*
D03*
X553646Y3328740D02*
D03*
X615646D02*
D03*
X563181Y1964567D02*
D03*
X501181D02*
D03*
X1084158Y1599906D02*
D03*
X1146158D02*
D03*
X1371559Y1392716D02*
D03*
X1433559D02*
D03*
X1030512Y1545276D02*
D03*
X968512D02*
D03*
X633858Y1023622D02*
D03*
X571858D02*
D03*
X633858Y1074803D02*
D03*
X571858D02*
D03*
X1599401Y2919291D02*
D03*
X1537401D02*
D03*
X1182575Y2891732D02*
D03*
X1120575D02*
D03*
X950299Y3223425D02*
D03*
X1012299D02*
D03*
X273126Y1755906D02*
D03*
X211126D02*
D03*
X323827D02*
D03*
X385827D02*
D03*
X15260D02*
D03*
X77260D02*
D03*
X201283Y1475394D02*
D03*
X263283D02*
D03*
X933858Y866142D02*
D03*
X871858D02*
D03*
X779032Y1964567D02*
D03*
X717032D02*
D03*
X746850Y1686024D02*
D03*
X684850D02*
D03*
X1016236Y3094488D02*
D03*
X954236D02*
D03*
X951772Y3419291D02*
D03*
X1013772D02*
D03*
X950299Y3272638D02*
D03*
X1012299D02*
D03*
X904331Y3592520D02*
D03*
X842331D02*
D03*
X870079Y1133858D02*
D03*
X932079D02*
D03*
X1182575Y2836614D02*
D03*
X1120575D02*
D03*
X1182575Y2950787D02*
D03*
X1120575D02*
D03*
X1013772Y3371063D02*
D03*
X951772D02*
D03*
D68*
X1674213Y2551181D02*
D03*
X1556102D02*
D03*
X905512Y1466535D02*
D03*
X1023622D02*
D03*
X935039Y1200787D02*
D03*
X816929D02*
D03*
D69*
X-5906Y2634354D02*
D03*
Y2696354D02*
D03*
X-6890Y3110236D02*
D03*
Y3172236D02*
D03*
X729331Y2926677D02*
D03*
Y2988677D02*
D03*
X262795Y2843992D02*
D03*
Y2781992D02*
D03*
X312008Y2844976D02*
D03*
Y2782976D02*
D03*
X784449Y2988677D02*
D03*
Y2926677D02*
D03*
X314961Y3031000D02*
D03*
Y2969000D02*
D03*
X267716Y3031000D02*
D03*
Y2969000D02*
D03*
X1210630Y2617134D02*
D03*
Y2679134D02*
D03*
X1262795Y2617134D02*
D03*
Y2679134D02*
D03*
X381890Y1629433D02*
D03*
Y1691433D02*
D03*
X1031496Y1595968D02*
D03*
Y1657968D02*
D03*
X1429622Y1445378D02*
D03*
Y1507378D02*
D03*
X1375496Y1445378D02*
D03*
Y1507378D02*
D03*
X796260Y1839079D02*
D03*
Y1901079D02*
D03*
X1541339Y3032968D02*
D03*
Y2970968D02*
D03*
X1710630Y3032968D02*
D03*
Y2970968D02*
D03*
X1604331Y2777063D02*
D03*
Y2715063D02*
D03*
X1596457Y3032968D02*
D03*
Y2970968D02*
D03*
X1651575Y3032968D02*
D03*
Y2970968D02*
D03*
X1523622Y165850D02*
D03*
Y227850D02*
D03*
X1468504D02*
D03*
Y165850D02*
D03*
X1374016Y417819D02*
D03*
Y479819D02*
D03*
X1303150Y231787D02*
D03*
Y169787D02*
D03*
Y357772D02*
D03*
Y295772D02*
D03*
X326772Y1629433D02*
D03*
Y1691433D02*
D03*
Y1515260D02*
D03*
Y1577260D02*
D03*
X574803Y903543D02*
D03*
Y965543D02*
D03*
X445866Y1751968D02*
D03*
Y1813968D02*
D03*
X797244Y1732780D02*
D03*
Y1794780D02*
D03*
X929921Y739661D02*
D03*
Y677661D02*
D03*
X629921Y965543D02*
D03*
Y903543D02*
D03*
X519685D02*
D03*
Y965543D02*
D03*
X955709Y3529776D02*
D03*
Y3467776D02*
D03*
X1002953D02*
D03*
Y3529776D02*
D03*
X1050197Y3467776D02*
D03*
Y3529776D02*
D03*
D70*
X535433Y2721457D02*
D03*
X616142D02*
D03*
X1550197Y354331D02*
D03*
X1630906D02*
D03*
X1531496Y98425D02*
D03*
X1612205D02*
D03*
X846260Y799213D02*
D03*
X926968D02*
D03*
X930118Y3031496D02*
D03*
X1010827D02*
D03*
D71*
X671654Y2797835D02*
D03*
X621654D02*
D03*
X571654D02*
D03*
X521654D02*
D03*
X471654D02*
D03*
X421654D02*
D03*
X371654D02*
D03*
X671654Y3015158D02*
D03*
X621654D02*
D03*
X571654D02*
D03*
X521654D02*
D03*
X471654D02*
D03*
X421654D02*
D03*
X371654D02*
D03*
D72*
X1535433Y2787598D02*
D03*
Y2704528D02*
D03*
X1322835Y2683268D02*
D03*
Y2600197D02*
D03*
D73*
X672835Y3223032D02*
D03*
Y3273032D02*
D03*
Y3323032D02*
D03*
Y3373032D02*
D03*
Y3423032D02*
D03*
Y3473032D02*
D03*
Y3523032D02*
D03*
X890158Y3223032D02*
D03*
Y3273032D02*
D03*
Y3323032D02*
D03*
Y3373032D02*
D03*
Y3423032D02*
D03*
Y3473032D02*
D03*
Y3523032D02*
D03*
X1243701Y2733858D02*
D03*
Y2783858D02*
D03*
Y2833858D02*
D03*
Y2883858D02*
D03*
Y2933858D02*
D03*
Y2983858D02*
D03*
Y3033858D02*
D03*
X1461024Y2733858D02*
D03*
Y2783858D02*
D03*
Y2833858D02*
D03*
Y2883858D02*
D03*
Y2933858D02*
D03*
Y2983858D02*
D03*
Y3033858D02*
D03*
D74*
X515354Y1749803D02*
D03*
Y1799803D02*
D03*
Y1849803D02*
D03*
Y1899803D02*
D03*
X732677Y1749803D02*
D03*
Y1799803D02*
D03*
Y1849803D02*
D03*
Y1899803D02*
D03*
X1314370Y1533661D02*
D03*
Y1483661D02*
D03*
Y1433661D02*
D03*
Y1383661D02*
D03*
X1097047Y1533661D02*
D03*
Y1483661D02*
D03*
Y1433661D02*
D03*
Y1383661D02*
D03*
X249410Y1688189D02*
D03*
Y1638189D02*
D03*
Y1588189D02*
D03*
Y1538189D02*
D03*
X32087Y1688189D02*
D03*
Y1638189D02*
D03*
Y1588189D02*
D03*
Y1538189D02*
D03*
X919685Y1075000D02*
D03*
Y1025000D02*
D03*
Y975000D02*
D03*
Y925000D02*
D03*
X702362Y1075000D02*
D03*
Y1025000D02*
D03*
Y975000D02*
D03*
Y925000D02*
D03*
D75*
X913386Y1315945D02*
D03*
Y1396654D02*
D03*
X1397638Y140748D02*
D03*
Y221457D02*
D03*
X1311024Y424212D02*
D03*
Y504921D02*
D03*
X444882Y390748D02*
D03*
Y471457D02*
D03*
X1135827Y2697834D02*
D03*
Y2778543D02*
D03*
D76*
X904528Y1597874D02*
D03*
Y1649055D02*
D03*
X979331Y1623465D02*
D03*
D77*
X1030512Y1407480D02*
D03*
Y1368110D02*
D03*
X975394Y1407480D02*
D03*
Y1368110D02*
D03*
X850394Y692913D02*
D03*
Y732284D02*
D03*
D78*
X1718504Y2676118D02*
D03*
X1755905Y2768638D02*
D03*
X1681102D02*
D03*
D79*
X1479331Y356299D02*
D03*
Y318898D02*
D03*
Y281496D02*
D03*
X1363189D02*
D03*
Y356299D02*
D03*
D80*
X1645669Y281693D02*
D03*
Y167126D02*
D03*
D81*
X1641732Y433071D02*
D03*
Y559055D02*
D03*
D82*
X1501968Y2214567D02*
D03*
Y2332677D02*
D03*
D83*
X1509842Y3476378D02*
D03*
Y3655512D02*
D03*
X1086614Y780512D02*
D03*
Y959646D02*
D03*
X125984Y436024D02*
D03*
Y256890D02*
D03*
D84*
X1553346Y484252D02*
D03*
X1438780D02*
D03*
D85*
X326772Y324094D02*
D03*
Y464094D02*
D03*
D86*
X818898Y3158465D02*
D03*
X901968D02*
D03*
X944685D02*
D03*
X1027756D02*
D03*
D87*
X693701Y2538583D02*
D03*
X843701D02*
D03*
X818701Y2138583D02*
D03*
X718701D02*
D03*
D88*
X1637795Y1330709D02*
D03*
Y1665354D02*
D03*
X133858Y1147638D02*
D03*
Y812992D02*
D03*
D89*
X1167323Y1817520D02*
D03*
X1417323D02*
D03*
Y1178543D02*
D03*
X1667323D02*
D03*
X1167323D02*
D03*
X604331Y660827D02*
D03*
X354331D02*
D03*
Y1299803D02*
D03*
X104331D02*
D03*
X604331D02*
D03*
D90*
X1667323Y1817520D02*
D03*
X104331Y660827D02*
D03*
D91*
X366142Y2559055D02*
D03*
X169291D02*
D03*
D92*
X106299Y2322846D02*
D03*
X429134D02*
D03*
X472454Y3543319D02*
D03*
X63005D02*
D03*
X1708674D02*
D03*
X1299225D02*
D03*
Y2322846D02*
D03*
X1708674D02*
D03*
D93*
X366155Y2086614D02*
D03*
X267716D02*
D03*
X267729Y3248043D02*
D03*
X366155D02*
D03*
X1503950D02*
D03*
X1602375D02*
D03*
Y2027571D02*
D03*
X1503950D02*
D03*
D94*
X169304Y2086614D02*
D03*
Y3248043D02*
D03*
X1405525D02*
D03*
Y2027571D02*
D03*
D95*
X631890Y437008D02*
D03*
Y240157D02*
D03*
X1124016D02*
D03*
Y437008D02*
D03*
D96*
X877953Y515748D02*
D03*
Y161417D02*
D03*
D97*
X935827Y2755905D02*
D03*
D98*
X835827D02*
D03*
D99*
X1389764Y826772D02*
D03*
D100*
X1507874Y1011811D02*
D03*
D101*
X1625984Y826772D02*
D03*
D102*
X86614Y2801575D02*
D03*
Y2901575D02*
D03*
D103*
Y3001575D02*
D03*
%TF.MD5,12a1ea88fa3348421f610c5f8770cd35*%
M02*
