M48
;Layer_Color=9474304
;FILE_FORMAT=2:5
INCH,LZ
;TYPE=PLATED
T1F00S00C0.01181
T3F00S00C0.03200
T4F00S00C0.03500
T6F00S00C0.04331
T7F00S00C0.04724
T8F00S00C0.05118
T10F00S00C0.05906
;TYPE=NON_PLATED
T11F00S00C0.06693
%
T01
X0012746Y0008514
X0007717Y0025354
X0000394Y0035827
X0027165Y0030315
X0037165Y0030472
X0036614Y0012598
X0051181Y0007874
X0066929
X0082677
X0098425
X0098769Y0013435
X0114173Y0007874
X0125984Y0009055
X0126476Y0023524
X0142913Y0016929
X0145669Y0007874
X0154724Y0009449
X015315Y0025984
X0094882Y0033071
X0062992Y0033465
X0176378Y0058268
X0169291Y0086614
X0153543
X0145669Y0070866
X0126411Y0067356
X0120079Y0070079
X0125984Y0076378
Y0081496
X0129921Y0102362
X0123622Y0109055
X0106693Y0104724
X0098819Y0099213
X0097349Y007811
X0098425Y0070866
X0091732Y0070472
X0087402Y006063
X0074803Y0055118
X0059055
X0043307
X0042165Y0041437
X0032283Y0040945
X0027559Y0055118
X0019685Y0070866
X0027559Y0086614
X0043307
X0047638Y0109843
X0043307Y011811
X0027559
X0019685Y0102362
X0020079Y0097638
X0027559Y0149606
X0050681Y0150787
X0048031Y016063
X0041732Y0161127
X0069453Y0160372
X0080715Y0161765
X0094902Y01625
X0098006Y0185459
X0106299Y0181102
X0085039Y0187845
X007441Y0182677
X0065354Y018189
X0061024Y0186614
X005753Y0177509
X0059449Y0139764
X0063779
X0077953Y013937
X0082677Y0133858
X0084302Y0146013
X0122047Y0149606
X0137795
X0143504Y0137598
X0145669Y0133858
X0153543Y011811
X0161417Y0102362
X0169291Y0149606
X0145669Y0165354
X0128347Y0173622
X0125984Y0129528
X0106299Y011811
X0077362Y0105118
X0073622Y0084252
X0067716Y0083071
X0087008
X0109449Y0064567
X0106299Y0055118
X0098425Y003937
X0082677
X0144923Y004175
X0017323Y0040945
X0012084Y0041586
X-0000394Y0050394
X0011811Y0086614
X0003937Y0102362
X0005906Y0138583
X0002165Y015315
X0Y0170079
Y0185039
X-0000197Y0191374
X001315Y0162362
X0011811Y0244094
Y027559
Y0307087
X0027559
X0043307
X0051181Y0291338
X0043701Y028189
X0043307Y027559
X0059055
X0062205Y0262992
X0049606Y0245276
X0051181Y0228346
X0054724Y0229528
X0055905Y0220866
X0060886Y0209587
X0074803Y0212598
X0086306Y0206607
X0106299Y0212598
X0119291Y0207874
X0114173Y0228346
X0122047Y0244094
X0137795
X0153543
X0163386Y0247244
X0169291Y0244094
X0161417Y0228346
X0145669
X0153543Y0212598
X0169291
Y027559
X0168061Y028627
X0156299Y0287795
X0153543Y027559
X0141339Y027126
X0114173Y0259842
X0098425
X0090551Y0244094
X0092126Y0295669
Y0305512
X009252Y0314961
X0084646Y0315354
X006811Y0312598
X0066929Y0322835
X0064567Y032874
X0052756Y0326772
X005748Y0317717
X0063042Y0300344
X0068504Y0290551
X0076378Y0287402
X0114173Y0291338
X0108218Y0311368
X0098425Y032559
X0091732Y033937
X0086614
X0106732Y0339331
X0116007Y0342126
X0122047Y0338583
X0127165Y032441
X0130709Y0301181
X0137795Y0307087
X0169291
Y0338583
X0153543
X0058711Y0342864
X0019685Y0291338
X0027559Y027559
X0024016Y0270472
X0032283
X0027559Y0244094
X0019685Y0228346
X0034252Y0195276
X0040502Y0195226
X0049213Y0202756
X0035433Y0354331
X0019685
X0072441Y0366929
X0083071Y0365748
X009252Y0366929
X0114173Y0354331
X0145669
X0161417
T03
X0008661Y0280157
Y0290158
Y0300157
X0079606Y0235315
Y0225315
X0119606Y0222815
Y0237815
T04
X0083583Y027559
X0093583
T06
X001693Y0208661
X0016929Y0255906
X001693Y0324804
X0026773
X0036615
X0036614Y0255906
X0036615Y0208661
X0026772
X0140552Y0202757
X0150395
X0160238
Y0324804
X0150395
X0140552
T07
X0063189Y0024016
X0112402
Y0043701
X0063189
T08
X0129922Y0232285
X0170867
Y0354332
X0129922
X0047245
X0006301
T10
X0035433Y0066083
X0060433
Y012998
X0035433
X0116732Y0117854
X0141732
X0166732
Y0181752
X0141732
X0116732
X0010433Y012998
Y0066083
T11
X0087795Y0016142
Y0051575
M30
