M48
;Layer_Color=9474304
;FILE_FORMAT=2:5
INCH,LZ
;TYPE=PLATED
T1F00S00C0.01181
T3F00S00C0.03200
T4F00S00C0.03500
T6F00S00C0.04331
T7F00S00C0.04724
T8F00S00C0.05118
T10F00S00C0.05906
;TYPE=NON_PLATED
T11F00S00C0.06693
%
T01
X0Y0019685
X0027559
X0027559Y0023622
X0043307
X0044488Y0032087
X0055118Y0019685
X0051181Y0007874
X0066929
X0082677
X0082677Y0019685
X0098425Y0007874
X0114173
X0118602Y0009055
X011811Y0019685
Y0029232
X0153543Y0027165
X0150098Y0012795
X0146653Y0010827
X0157087Y0003839
X0166043Y0011811
X0170276
X0035433Y0007874
X0019685
Y003937
X0027559Y0055118
X0043307
X0059055
X0055118Y0074803
X0051181Y0070866
X004813Y0090158
X0043307Y0086614
X0059055
X0083563Y009252
X0100368Y0092546
X0098425Y0102362
X0097539Y0113484
X0097441Y0120079
X0086713
X0082677Y0129921
X0082677Y0133858
X0086319Y0156004
X0082677Y0165354
X0091017Y0169488
X0084055Y0179232
X0067323Y0174606
X0057579Y0189961
X0049213Y0165354
Y0143701
X0043307Y0149606
X0026378Y0143504
X0019685Y0133858
X0027559Y011811
X0043307
X0059055
X0076968Y010748
X0106299Y011811
X0110236Y0129921
X0125689Y0138779
X0122047Y0149606
X0124016Y015748
X0108268Y0165354
X0106299Y0181102
X0153543
X0145669Y0165354
X0151575Y015748
X0153543Y0149606
X0169291
X0137303Y0135039
X0153543Y011811
X0161417Y0102362
X0169291Y0086614
X0153543
X0145669Y0070866
X0129921
X0130905Y0058661
X0137795Y0057087
X0149606Y0044291
X0169291Y0055118
X0119783Y0045177
X0096457Y0047244
X0098425Y003937
X0082677
X0051181
X0027559Y0074803
X0027559Y0086614
X0019685Y0102362
X0035433
X0041339Y0102362
X0019685Y0070866
X0098425
X0122047Y0086614
X0114173Y0102362
X0129921
X0019094Y0168701
X0026969Y018061
X0030046Y0180636
X0011811Y0181102
X0015059Y0175591
X001378Y015748
X0011811Y0149606
X0001476Y0181496
X0003937Y0102362
X001378Y0102362
X0011811Y0086614
Y0055118
X0003347Y0048228
X0003937Y019685
Y0228346
X0011811Y0244094
X0015551Y0267815
X0011811Y0307087
X0Y0295276
X0003937Y0322835
X0011811Y0338583
X0027559
X0027559Y0350394
X0055118
X0061417Y0347244
X0072835Y0337254
X0083366Y0337303
X0081791Y0311713
X0089272Y0311516
X0091831Y0309252
X0074803Y0307087
X0059055
X0051968Y0295866
X0042323Y0295525
X0037366
X0031496Y0293197
X0019193Y0291732
X0021654Y0305118
X003937Y0269685
X0051181Y0259842
X0067126
X0082677
X0098425
X0114173
X0118799Y0278248
X0130266Y0278923
X013002Y0273819
X0139173Y0273327
X0137795Y0295276
X0130217Y0293701
X0118209Y0299508
X0122047Y0307087
X0137795
X0129921Y0322835
X0124016Y0322835
X0114173Y0322835
X0122047Y0338583
X0110236Y0350394
X0137795
X0153543Y0338583
X0169291
Y0307087
X0160236Y0287697
X0156398Y02875
X0168307Y0271654
X017185Y0255118
X0153543Y0244094
X0137795
X0137795Y0240158
X0122047Y0244094
X0114173Y0228346
X0098425
X0098425Y0232283
X0082677Y0228346
X0084646Y0240158
X0067126Y0228346
X0051181
X0035433
X0027559Y0240158
X0027559Y0244094
X0043307
Y0212598
X0041339Y0212598
X0019685Y019685
X0066929
X0098425
X0114173
X0129921
X0124016Y0212598
X0122047Y0212598
X0096457Y0212598
X0153543Y0212598
X0169291
X0161417Y0228346
X0145669
X0082677Y0291338
X0082677Y0295276
X0043307Y0338583
X0177461Y030315
X0161417Y0354331
X0114173
X006752Y0356496
X0035433Y0354331
X0019685
T03
X0008661Y0280157
Y0290158
Y0300157
X006937Y0253858
X008437
X008187Y0213858
X007187
T04
X0083583Y027559
X0093583
T06
X001693Y0208661
X0016929Y0255906
X001693Y0324804
X0026773
X0036615
X0036614Y0255906
X0036615Y0208661
X0026772
X0140552Y0202757
X0150395
X0160238
Y0324804
X0150395
X0140552
T07
X0063189Y0024016
X0112402
Y0043701
X0063189
T08
X0129922Y0232285
X0170867
Y0354332
X0129922
X0047245
X0006301
T10
X0035433Y0066083
X0060433
Y012998
X0035433
X0116732Y0117854
X0141732
X0166732
Y0181752
X0141732
X0116732
X0010433Y012998
Y0066083
T11
X0087795Y0016142
Y0051575
M30
